<svg width="24" height="24" viewBox="0 0 24 24" fill="none" xmlns="http://www.w3.org/2000/svg">
<path d="M8.72004 10L1.17673 10.0106C1.11487 10.0106 1.08394 10.0106 1.06031 10.0226C1.03953 10.0332 1.02263 10.0501 1.01204 10.0709C1 10.0945 1 10.1255 1 10.1873V14.2521C1 14.3139 1 14.3448 1.01204 14.3685C1.02263 14.3893 1.03953 14.4062 1.06031 14.4167C1.08394 14.4288 1.11487 14.4288 1.17673 14.4288L8.68795 14.4182C9.13607 14.4182 9.36012 14.4182 9.57007 14.366C9.75617 14.3198 9.9335 14.2435 10.0951 14.1403C10.2774 14.0239 10.4316 13.8613 10.7399 13.5361L13.7522 10.359L12.0936 12.6515C11.9822 12.8055 11.9264 12.8825 11.9146 12.9626C11.9041 13.0331 11.9167 13.105 11.9503 13.1677C11.9886 13.2391 12.0671 13.2927 12.2241 13.4L12.9026 13.8636C13.2042 14.0697 13.355 14.1727 13.5187 14.2457C13.6639 14.3105 13.8165 14.3577 13.973 14.3861C14.1494 14.4182 14.332 14.4182 14.6972 14.4182H22.7881C22.85 14.4182 22.8809 14.4182 22.9045 14.4062C22.9253 14.3956 22.9422 14.3787 22.9528 14.3579C22.9648 14.3343 22.9648 14.3033 22.9648 14.2415V10.1767C22.9648 10.1149 22.9648 10.0839 22.9528 10.0603C22.9422 10.0395 22.9253 10.0226 22.9045 10.012C22.8809 10 22.85 10 22.7881 10H14.6051C14.2131 10 14.0171 10 13.8287 10.0367C13.6616 10.0692 13.4994 10.1231 13.346 10.197C13.1731 10.2803 13.0161 10.3976 12.7019 10.6321L12.313 10.9225C12.0161 11.1443 11.8676 11.2551 11.7067 11.2913C11.5649 11.3232 11.417 11.3144 11.2799 11.2661C11.1244 11.2112 10.99 11.0837 10.7212 10.8285L10.6667 10.7767C10.3643 10.4898 10.2131 10.3463 10.0389 10.2438C9.88434 10.153 9.71688 10.0861 9.54224 10.0457C9.3453 10 9.13688 10 8.72004 10Z" fill="#212122"/>
<path d="M7.25781 11.3237H8.52101V11.6044H8.06301V13.0425H7.71582V11.6044H7.25781V11.3237Z" fill="white"/>
<path d="M6.41502 13.0599C6.29678 13.0599 6.19087 13.0386 6.09727 12.9959C6.00366 12.9532 5.92731 12.8941 5.86819 12.8185C5.80907 12.743 5.7713 12.6543 5.75488 12.5525L6.10712 12.4811C6.12518 12.5714 6.16049 12.642 6.21304 12.6929C6.26558 12.7438 6.32963 12.7693 6.40516 12.7693C6.49055 12.7693 6.55624 12.7512 6.60222 12.7151C6.6482 12.6773 6.67119 12.6272 6.67119 12.5648C6.67119 12.5139 6.65477 12.4729 6.62192 12.4417C6.59072 12.4105 6.54803 12.3842 6.49384 12.3629C6.44129 12.3415 6.38382 12.3226 6.32142 12.3062C6.25901 12.2881 6.19579 12.2684 6.13175 12.2471C6.06935 12.2241 6.01188 12.1945 5.95933 12.1584C5.90678 12.1223 5.86408 12.0763 5.83124 12.0205C5.80004 11.9646 5.78444 11.8932 5.78444 11.8062C5.78444 11.7011 5.80989 11.6116 5.8608 11.5377C5.91171 11.4622 5.98232 11.4047 6.07263 11.3653C6.16459 11.3259 6.27051 11.3062 6.39038 11.3062C6.49548 11.3062 6.59072 11.325 6.67611 11.3628C6.76315 11.4006 6.83458 11.4531 6.89041 11.5204C6.94624 11.5861 6.97991 11.6617 6.9914 11.7471L6.64409 11.8357C6.62931 11.7586 6.59811 11.6986 6.55049 11.6559C6.50451 11.6132 6.44704 11.5919 6.37807 11.5919C6.33373 11.5919 6.29268 11.5993 6.25491 11.6141C6.21878 11.6288 6.19005 11.651 6.1687 11.6806C6.14735 11.7101 6.13668 11.7471 6.13668 11.7914C6.13668 11.8407 6.1531 11.8809 6.18594 11.9121C6.21878 11.9417 6.26148 11.9671 6.31403 11.9885C6.36657 12.0082 6.42405 12.027 6.48645 12.0451C6.55049 12.0615 6.61371 12.0812 6.67611 12.1042C6.74016 12.1272 6.79845 12.1568 6.851 12.1929C6.90519 12.229 6.94789 12.2758 6.97909 12.3333C7.01193 12.3891 7.02835 12.4597 7.02835 12.5451C7.02835 12.6355 7.0029 12.72 6.95199 12.7988C6.90273 12.8777 6.83212 12.9409 6.74016 12.9885C6.6482 13.0361 6.53982 13.0599 6.41502 13.0599Z" fill="white"/>
<path d="M4.64061 13.0599C4.51909 13.0599 4.40496 13.0386 4.29823 12.9959C4.19149 12.9532 4.09789 12.8924 4.01742 12.8136C3.93696 12.7348 3.87374 12.642 3.82776 12.5353C3.78178 12.4285 3.75879 12.3103 3.75879 12.1806C3.75879 12.0525 3.78178 11.9351 3.82776 11.8283C3.87374 11.7216 3.93696 11.6297 4.01742 11.5525C4.09789 11.4736 4.19149 11.4129 4.29823 11.3702C4.40496 11.3275 4.51909 11.3062 4.64061 11.3062C4.76213 11.3062 4.87625 11.3275 4.98299 11.3702C5.08973 11.4129 5.18251 11.4736 5.26133 11.5525C5.3418 11.6297 5.40502 11.7216 5.451 11.8283C5.49698 11.9351 5.51997 12.0525 5.51997 12.1806C5.51997 12.3103 5.49698 12.4285 5.451 12.5353C5.40502 12.642 5.3418 12.7348 5.26133 12.8136C5.18251 12.8924 5.08973 12.9532 4.98299 12.9959C4.87625 13.0386 4.76213 13.0599 4.64061 13.0599ZM4.63815 12.7471C4.74324 12.7471 4.83438 12.7241 4.91156 12.6781C4.99038 12.6322 5.05196 12.5665 5.0963 12.4811C5.14064 12.3957 5.1628 12.2955 5.1628 12.1806C5.1628 12.0656 5.14064 11.9663 5.0963 11.8825C5.05196 11.7971 4.99038 11.7315 4.91156 11.6855C4.83438 11.6395 4.74324 11.6165 4.63815 11.6165C4.53633 11.6165 4.44602 11.6395 4.3672 11.6855C4.28837 11.7315 4.22679 11.7971 4.18246 11.8825C4.13812 11.9663 4.11595 12.0656 4.11595 12.1806C4.11595 12.2955 4.13812 12.3957 4.18246 12.4811C4.22679 12.5665 4.28837 12.6322 4.3672 12.6781C4.44602 12.7241 4.53633 12.7471 4.63815 12.7471Z" fill="white"/>
<path d="M2.31836 13.0425V11.3237H2.95119C3.09073 11.3237 3.20646 11.3475 3.29839 11.3951C3.39032 11.4411 3.45844 11.5043 3.50277 11.5847C3.54873 11.6652 3.57171 11.7555 3.57171 11.8556C3.57171 11.9426 3.55037 12.0272 3.50769 12.1092C3.46665 12.1897 3.40099 12.2562 3.3107 12.3087C3.22041 12.3596 3.10058 12.385 2.95119 12.385H2.66556V13.0425H2.31836ZM2.66556 12.1043H2.93642C3.03327 12.1043 3.10386 12.0821 3.14818 12.0378C3.19415 11.9919 3.21713 11.9311 3.21713 11.8556C3.21713 11.7768 3.19415 11.7152 3.14818 11.6709C3.10386 11.6266 3.03327 11.6044 2.93642 11.6044H2.66556V12.1043Z" fill="white"/>
<path d="M20.2129 11.3237H20.5601V13.0425H20.2129V11.3237ZM21.2939 11.3237H21.6411V13.0425H21.2939V11.3237ZM20.5108 12.0304H21.3554V12.3111H20.5108V12.0304Z" fill="white"/>
<path d="M19.2783 13.0599C19.1601 13.0599 19.0541 13.0386 18.9605 12.9959C18.8669 12.9532 18.7906 12.8941 18.7315 12.8185C18.6724 12.743 18.6346 12.6543 18.6182 12.5525L18.9704 12.4811C18.9885 12.5714 19.0238 12.642 19.0763 12.6929C19.1289 12.7438 19.1929 12.7693 19.2684 12.7693C19.3538 12.7693 19.4195 12.7512 19.4655 12.7151C19.5115 12.6773 19.5345 12.6272 19.5345 12.5648C19.5345 12.5139 19.518 12.4729 19.4852 12.4417C19.454 12.4105 19.4113 12.3842 19.3571 12.3629C19.3046 12.3415 19.2471 12.3226 19.1847 12.3062C19.1223 12.2881 19.0591 12.2684 18.995 12.2471C18.9326 12.2241 18.8752 12.1945 18.8226 12.1584C18.7701 12.1223 18.7274 12.0763 18.6945 12.0205C18.6633 11.9646 18.6477 11.8932 18.6477 11.8062C18.6477 11.7011 18.6732 11.6116 18.7241 11.5377C18.775 11.4622 18.8456 11.4047 18.9359 11.3653C19.0279 11.3259 19.1338 11.3062 19.2537 11.3062C19.3588 11.3062 19.454 11.325 19.5394 11.3628C19.6264 11.4006 19.6979 11.4531 19.7537 11.5204C19.8095 11.5861 19.8432 11.6617 19.8547 11.7471L19.5074 11.8357C19.4926 11.7586 19.4614 11.6986 19.4138 11.6559C19.3678 11.6132 19.3103 11.5919 19.2414 11.5919C19.197 11.5919 19.156 11.5993 19.1182 11.6141C19.0821 11.6288 19.0533 11.651 19.032 11.6806C19.0106 11.7101 19 11.7471 19 11.7914C19 11.8407 19.0164 11.8809 19.0492 11.9121C19.0821 11.9417 19.1248 11.9671 19.1773 11.9885C19.2299 12.0082 19.2873 12.027 19.3497 12.0451C19.4138 12.0615 19.477 12.0812 19.5394 12.1042C19.6034 12.1272 19.6617 12.1568 19.7143 12.1929C19.7685 12.229 19.8112 12.2758 19.8424 12.3333C19.8752 12.3891 19.8916 12.4597 19.8916 12.5451C19.8916 12.6355 19.8662 12.72 19.8153 12.7988C19.766 12.8777 19.6954 12.9409 19.6034 12.9885C19.5115 13.0361 19.4031 13.0599 19.2783 13.0599Z" fill="white"/>
<path d="M17.7904 11.3237L18.411 13.0425H18.0441L17.5147 11.5059H17.6624L17.133 13.0425H16.7686L17.3891 11.3237H17.7904ZM17.1207 12.4392H18.0318L18.1204 12.715H17.032L17.1207 12.4392Z" fill="white"/>
<path d="M15.7802 13.0599C15.6554 13.0599 15.5396 13.0386 15.4329 12.9959C15.3278 12.9516 15.2358 12.8908 15.157 12.8136C15.0782 12.7348 15.0166 12.642 14.9722 12.5353C14.9296 12.4269 14.9082 12.3087 14.9082 12.1806C14.9082 12.0525 14.9304 11.9351 14.9747 11.8283C15.019 11.7216 15.0806 11.6297 15.1594 11.5525C15.2383 11.4736 15.3302 11.4129 15.4353 11.3702C15.5421 11.3275 15.657 11.3062 15.7802 11.3062C15.9066 11.3062 16.0224 11.3283 16.1275 11.3727C16.2342 11.4154 16.3254 11.4778 16.4009 11.5599C16.4764 11.642 16.5323 11.7413 16.5684 11.8579L16.2359 11.9614C16.1964 11.8481 16.1373 11.7627 16.0585 11.7052C15.9813 11.6461 15.8894 11.6165 15.7826 11.6165C15.6825 11.6165 15.593 11.6403 15.5141 11.6879C15.437 11.7339 15.3762 11.7988 15.3319 11.8825C15.2875 11.9663 15.2654 12.0656 15.2654 12.1806C15.2654 12.2955 15.2867 12.3957 15.3294 12.4811C15.3737 12.5665 15.4345 12.633 15.5117 12.6806C15.5889 12.7266 15.6775 12.7496 15.7777 12.7496C15.8828 12.7496 15.9772 12.72 16.061 12.6609C16.1447 12.6001 16.2071 12.5164 16.2482 12.4097L16.5856 12.4885C16.5495 12.61 16.4912 12.7135 16.4107 12.7988C16.3303 12.8842 16.2359 12.9491 16.1275 12.9934C16.0191 13.0378 15.9033 13.0599 15.7802 13.0599Z" fill="white"/>
</svg>
