<svg width="42" height="42" viewBox="0 0 42 42" fill="none" xmlns="http://www.w3.org/2000/svg">
<circle cx="21" cy="21" r="21" fill="#A0A6BF"/>
<path d="M30.6186 24.5332L23.3153 12.3049C22.8313 11.484 21.9683 11 21.0001 11C20.0318 11 19.169 11.484 18.6848 12.3049L11.3815 24.5332C10.8764 25.375 10.8764 26.3853 11.3605 27.2481C11.8446 28.1111 12.7285 28.6161 13.6968 28.6161H28.3033C29.2925 28.6161 30.1555 28.1109 30.6396 27.2481C31.1236 26.3853 31.1236 25.375 30.6186 24.5332H30.6186ZM21.0001 25.7539C20.3687 25.7539 19.8637 25.2487 19.8637 24.6174C19.8637 23.986 20.3688 23.481 21.0001 23.481C21.6316 23.481 22.1366 23.9861 22.1366 24.6174C22.1366 25.2487 21.6316 25.7539 21.0001 25.7539ZM22.2209 17.1036L21.8209 21.797C21.7788 22.2391 21.3789 22.5757 20.937 22.5338C20.537 22.4916 20.2214 22.176 20.2002 21.797L19.8003 17.1036C19.7372 16.43 20.2424 15.8407 20.9158 15.7776C21.5894 15.7145 22.1787 16.2196 22.2418 16.8931C22.2208 16.9562 22.2208 17.0405 22.2208 17.1036L22.2209 17.1036Z" fill="white"/>
</svg>
