<svg width="320" height="320" viewBox="0 0 320 320" fill="none" xmlns="http://www.w3.org/2000/svg">
<path fill-rule="evenodd" clip-rule="evenodd" d="M147.816 182.941C155.062 188.981 159.635 195.066 162.288 201.682L162.47 202.144L162.708 202.775L162.935 203.399L163.151 204.02L163.355 204.638L163.5 205.101L163.64 205.564L163.817 206.183L163.86 206.338L163.902 206.493L164.064 207.118L164.142 207.432L164.289 208.065L164.427 208.707L164.557 209.359L164.677 210.021L164.706 210.189L164.734 210.358L164.843 211.041L164.943 211.739L165.035 212.455L165.121 213.19L165.199 213.945L165.27 214.722L165.336 215.523L165.351 215.727L165.366 215.933L165.422 216.772L165.472 217.64L165.517 218.536L165.557 219.464L165.608 220.918L165.637 221.931L165.672 223.52L165.7 225.197L165.726 227.54L165.761 230.221L165.788 231.7L165.833 233.537L165.86 234.404L165.89 235.24L165.941 236.441L165.981 237.209L166.048 238.321L166.098 239.038L166.153 239.739L166.213 240.427L166.278 241.103L166.349 241.771L166.425 242.432L166.508 243.09L166.597 243.747L166.692 244.405L166.794 245.067L166.96 246.074L167.081 246.756C168.469 254.476 171.159 261.562 175.647 268.561C178.925 273.674 185.149 278.478 194.355 283.064L194.922 283.345L195.973 283.853L196.239 283.98L196.507 284.107L197.595 284.613C198.084 284.837 198.58 285.061 199.083 285.285L199.844 285.62L201.005 286.121L202.192 286.62L203.403 287.118L204.638 287.614L205.265 287.861L205.899 288.108L207.184 288.602L208.494 289.093L209.828 289.583L210.684 289.893C190.061 296.631 170.283 300 151.35 300C129.776 300 111.761 294.547 97.3044 283.641C64.3672 291.639 44.7785 292.718 38.5384 286.877C32.2984 281.036 41.4496 272.557 65.9922 261.441C42.5294 224.822 29.5384 198.796 27.0193 183.362C25.9813 177.003 25.7726 170.374 26.2278 163.839L27.0363 163.781C87.2524 159.543 127.57 166.062 147.816 182.941ZM242.433 22.9116C249.578 27.4436 249.578 41.4475 242.433 64.9233C271.572 92.0841 288.375 122.473 292.841 156.089C297.308 189.705 286.582 226.338 260.663 265.99C279.197 279.914 286.209 287.969 281.698 290.153C277.486 292.192 259.093 291.375 226.519 287.703L226.586 287.471L225.097 287.022L223.633 286.573L222.192 286.123L220.775 285.672L219.382 285.22L218.014 284.768L216.669 284.315L216.336 284.202L216.005 284.088L214.697 283.635L214.373 283.521L214.051 283.407L212.151 282.725L211.84 282.612L211.53 282.498L210.305 282.042L209.104 281.586L208.808 281.472L208.513 281.358L207.349 280.901L207.061 280.787L206.775 280.672L205.647 280.215L204.543 279.757L203.463 279.299L203.196 279.185L202.932 279.07L201.888 278.612L200.868 278.153L200.617 278.038L200.367 277.924L199.383 277.464L198.424 277.005L197.489 276.546L197.259 276.431L197.03 276.316L196.131 275.856C195.638 275.601 195.157 275.346 194.687 275.09L193.99 274.707L193.175 274.247C187.561 271.029 183.728 267.811 181.693 264.637C177.734 258.464 175.385 252.274 174.161 245.467L174.132 245.308L174.104 245.15L173.996 244.521L173.895 243.9L173.801 243.283L173.671 242.36L173.592 241.743L173.519 241.122L173.451 240.494L173.389 239.857L173.305 238.878L173.254 238.206L173.187 237.163L173.147 236.441L173.111 235.695L173.079 234.921L173.024 233.283L172.981 231.506L172.947 229.571L172.893 225.036L172.864 223.267L172.826 221.586L172.795 220.511L172.739 218.964L172.696 217.974L172.647 217.014L172.592 216.083L172.53 215.18L172.462 214.302L172.444 214.086L172.425 213.872L172.347 213.03L172.261 212.208L172.166 211.407L172.142 211.209L172.116 211.013L172.01 210.238L171.895 209.478L171.771 208.732L171.738 208.548L171.705 208.364L171.566 207.636L171.456 207.096L171.34 206.561L171.176 205.853L171.002 205.151C170.862 204.607 170.711 204.065 170.55 203.524L170.301 202.711L170.074 202.012L169.834 201.309L169.581 200.601L169.315 199.885L169.177 199.523C166.094 191.539 160.736 184.31 152.406 177.366C130.43 159.046 88.6898 152.231 27.0154 156.525C29.2368 141.223 34.8864 127.237 41.7176 119.509C65.9922 92.0485 150.885 98.8568 185.124 112.412C219.362 125.967 192.53 189.715 232.455 189.715C259.072 189.715 257.051 154.462 226.392 83.9559C217.131 90.1704 210.222 93.9471 205.665 95.2861C192.625 99.1178 180.7 96.883 177.816 92.0485C174.419 86.3529 181.954 71.4148 201.442 62.9233C205.258 61.2605 212.14 61.2605 222.087 62.9233C219.16 52.3416 218.251 45.1845 219.362 41.4517C224.298 24.8629 237.091 19.5233 242.433 22.9116ZM164.325 134.868C160.352 134.868 157.131 138.109 157.131 142.107V153.87C157.131 157.868 160.352 161.109 164.325 161.109C168.299 161.109 171.52 157.868 171.52 153.87V142.107C171.52 138.109 168.299 134.868 164.325 134.868ZM140.846 20.0973C164.139 21.2662 166.741 70.3957 148.652 70.3957C130.563 70.3957 140.846 47.5798 130.051 47.5798C124.761 47.5798 123.573 57.4261 122.384 67.4693L122.238 68.6994C121.041 78.7427 119.674 88.589 114.035 88.589C102.525 88.589 108.348 49.3609 100.591 49.3609C92.8334 49.3609 93.6996 70.3957 77.8889 70.3957C62.0783 70.3957 62.8844 20.0973 88.7972 20.0973C108.65 20.0973 103.448 28.6824 115.948 28.6824C120.948 28.6824 122.205 27.1218 123.404 25.3238L123.584 25.0525C125.328 22.4158 127.337 19.4193 140.846 20.0973Z" fill="black"/>
</svg>
