<svg width="46" height="46" viewBox="0 0 46 46" fill="none" xmlns="http://www.w3.org/2000/svg">
  <path fill-rule="evenodd" clip-rule="evenodd" d="M13.5 14.79C13.5 14.3763 13.8363 14.04 14.25 14.04H28.8333C29.3856 14.04 29.8333 13.5923 29.8333 13.04C29.8333 12.4878 29.3856 12.04 28.8333 12.04H14.25C12.7317 12.04 11.5 13.2718 11.5 14.79V22.8665C12.8269 21.6789 14.5791 20.9568 16.5 20.9568C20.6421 20.9568 24 24.3147 24 28.4568C24 30.5861 23.1126 32.5082 21.6876 33.8734H31.1667C33.0081 33.8734 34.5 32.3815 34.5 30.54V18.8734C34.5 17.0319 33.0081 15.54 31.1667 15.54H14.25C13.8363 15.54 13.5 15.2038 13.5 14.79ZM28.5 25.9568C29.3284 25.9568 30 25.2852 30 24.4568C30 23.6284 29.3284 22.9568 28.5 22.9568C27.6716 22.9568 27 23.6284 27 24.4568C27 25.2852 27.6716 25.9568 28.5 25.9568Z" fill="currentColor"/>
  <path fill-rule="evenodd" clip-rule="evenodd" d="M22 28.4568C22 31.501 19.5442 33.9568 16.5 33.9568C13.4557 33.9568 11 31.501 11 28.4568C11 25.4125 13.4557 22.9568 16.5 22.9568C19.5442 22.9568 22 25.4125 22 28.4568ZM13.1 28.4568C13.1 27.9597 13.5029 27.5568 14 27.5568H15.6V25.9568C15.6 25.4597 16.0029 25.0568 16.5 25.0568C16.9971 25.0568 17.4 25.4597 17.4 25.9568V27.5568H19C19.4971 27.5568 19.9 27.9597 19.9 28.4568C19.9 28.9538 19.4971 29.3568 19 29.3568H17.4V30.9568C17.4 31.4538 16.9971 31.8568 16.5 31.8568C16.0029 31.8568 15.6 31.4538 15.6 30.9568V29.3568H14C13.5029 29.3568 13.1 28.9538 13.1 28.4568Z" fill="currentColor"/>
</svg>
