<svg width="24" height="24" viewBox="0 0 24 24" fill="none" xmlns="http://www.w3.org/2000/svg">
<g id="24/ic-address update-24">
<path id="Subtract" fill-rule="evenodd" clip-rule="evenodd" d="M2 8C2 4.68629 4.68629 2 8 2H16C19.3137 2 22 4.68629 22 8V16C22 19.3137 19.3137 22 16 22H8C4.68629 22 2 19.3137 2 16V8ZM17.7995 11.1002C17.3465 8.29563 14.9252 6.15 11.9985 6.15C10.7706 6.15 9.63855 6.53475 8.70077 7.17742C8.31353 7.4428 8.21475 7.97185 8.48012 8.35908C8.7455 8.74632 9.27455 8.8451 9.66178 8.57972C10.3328 8.11987 11.1328 7.85 11.9985 7.85C13.9784 7.85 15.6409 9.23688 16.0688 11.1032C15.7978 11.0337 15.4983 11.0992 15.2781 11.3038C14.9342 11.6233 14.9145 12.1611 15.234 12.505L16.3053 13.658C16.4661 13.8311 16.6917 13.9294 16.928 13.9294C17.1643 13.9294 17.3899 13.8311 17.5507 13.658L18.622 12.505C18.9415 12.1611 18.9218 11.6233 18.5779 11.3038C18.3611 11.1023 18.0672 11.0357 17.7995 11.1002ZM7.0713 10.0712C7.30741 10.0712 7.53288 10.1694 7.69368 10.3423L8.76498 11.494C9.08471 11.8378 9.06524 12.3756 8.72151 12.6953C8.50134 12.9001 8.20152 12.9658 7.9304 12.8962C8.35816 14.7627 10.0208 16.1497 12.0008 16.1497C12.8675 16.1497 13.6683 15.8805 14.337 15.4216C14.724 15.1559 15.2531 15.2544 15.5188 15.6414C15.7844 16.0284 15.686 16.5576 15.299 16.8232C14.3613 17.4668 13.2277 17.8497 12.0008 17.8497C9.07394 17.8497 6.65259 15.704 6.19968 12.8993C5.93189 12.9637 5.63788 12.897 5.42109 12.6953C5.07736 12.3756 5.05789 11.8378 5.37762 11.494L6.44892 10.3423C6.60972 10.1694 6.83519 10.0712 7.0713 10.0712Z" fill="#AAB4BF"/>
</g>
</svg>
