<svg width="24" height="24" viewBox="0 0 24 24" fill="none" xmlns="http://www.w3.org/2000/svg">
<path fill-rule="evenodd" clip-rule="evenodd" d="M2 12C2 6.47715 6.47715 2 12 2C17.5228 2 22 6.47715 22 12C22 17.5228 17.5228 22 12 22C6.47715 22 2 17.5228 2 12ZM12 13.4336C15.3513 13.4336 18.1904 14.245 18.1904 15.5332C18.1904 16.558 16.0748 19.1479 11.9999 19.1479C7.92503 19.1479 5.80948 16.558 5.80948 15.5343C5.80948 14.245 8.6486 13.4336 12 13.4336ZM12 5.88151C13.5785 5.88151 14.8571 7.16008 14.8571 8.73865C14.8571 10.3172 13.5785 11.5958 12 11.5958C10.4214 11.5958 9.14281 10.3172 9.14281 8.73865C9.14281 7.16008 10.4214 5.88151 12 5.88151Z" fill="#AAB4BF"/>
</svg>
