<svg width="24" height="24" viewBox="0 0 24 24" fill="none" xmlns="http://www.w3.org/2000/svg">
<path fill-rule="evenodd" clip-rule="evenodd" d="M9.37555 5.09686L9.37556 5.10034V12.0016C9.37556 12.2778 9.59941 12.5016 9.87556 12.5016C10.1517 12.5016 10.3756 12.2778 10.3756 12.0016V2.97231C10.3756 2.37336 10.8679 1.87891 11.4842 1.87891C12.1005 1.87891 12.5928 2.37336 12.5928 2.97231V5.09686V12.0016C12.5928 12.2778 12.8166 12.5016 13.0928 12.5016C13.3689 12.5016 13.5928 12.2778 13.5928 12.0016V5.09686C13.5928 4.4979 14.0851 4.00345 14.7014 4.00345C15.3177 4.00345 15.81 4.4979 15.81 5.09686V7.21442L15.81 7.2214L15.81 7.22482V12.0016C15.81 12.2778 16.0338 12.5016 16.31 12.5016C16.5861 12.5016 16.81 12.2778 16.81 12.0016V7.2164C16.8127 6.61969 17.304 6.12799 17.9186 6.12799C18.5349 6.12799 19.0272 6.62244 19.0272 7.2214V16.2507C19.0272 19.4905 16.3751 22.1243 13.0928 22.1243H11.1742C9.1882 22.1243 7.3356 21.1407 6.23559 19.5068L6.23555 19.5067L2.4693 13.9107L2.4692 13.9106C2.16296 13.4559 2.2226 12.8501 2.61441 12.462C3.07049 12.0102 3.81174 12.0102 4.26782 12.462L6.30646 14.4814C6.44983 14.6234 6.66451 14.6653 6.85077 14.5876C7.03702 14.51 7.15833 14.328 7.15833 14.1262V5.09686C7.15833 4.4979 7.65064 4.00345 8.26694 4.00345C8.88323 4.00345 9.37555 4.4979 9.37555 5.09686Z" fill="#AAB4BF"/>
</svg>
