<svg width="24" height="24" viewBox="0 0 24 24" fill="none" xmlns="http://www.w3.org/2000/svg">
<path fill-rule="evenodd" clip-rule="evenodd" d="M12 22C17.1604 20.8303 21 16.0128 21 10.8607V6.81372C21 5.89244 20.4476 5.06307 19.6016 4.71362L13.9766 2.39228C12.7099 1.86924 11.2901 1.86924 10.0234 2.39228L4.39838 4.71362C3.55238 5.06193 3 5.89244 3 6.81372V10.8607C3 16.0128 6.83963 20.8303 12 22ZM15.9571 10.8321C16.3476 10.4416 16.3476 9.80842 15.9571 9.41789C15.5666 9.02737 14.9334 9.02737 14.5429 9.41789L11.5 12.4608L9.95711 10.9179C9.56658 10.5274 8.93342 10.5274 8.54289 10.9179C8.15237 11.3084 8.15237 11.9416 8.54289 12.3321L10.7929 14.5821C11.1834 14.9726 11.8166 14.9726 12.2071 14.5821L15.9571 10.8321Z" fill="#AAB4BF"/>
</svg>
