<svg width="24" height="24" viewBox="0 0 24 24" fill="none" xmlns="http://www.w3.org/2000/svg">
<path d="M3.22615 10.8348L15.1395 5.83576C16.3155 5.31503 20.3036 3.64869 20.3036 3.64869C20.3036 3.64869 22.1443 2.91966 21.9909 4.69015C21.9398 5.41918 21.5307 7.97076 21.1217 10.7306L19.8435 18.9061C19.8435 18.9061 19.7412 20.1038 18.872 20.3121C18.0028 20.5204 16.5711 19.5831 16.3155 19.3748C16.111 19.2186 12.4807 16.8753 11.1513 15.7297C10.7934 15.4172 10.3844 14.7923 11.2025 14.0633C13.0431 12.3449 15.2417 10.2099 16.5711 8.85601C17.1847 8.23113 17.7982 6.77308 15.2417 8.54357L8.03238 13.4905C8.03238 13.4905 7.2143 14.0113 5.6804 13.5426C4.14649 13.0739 2.35694 12.4491 2.35694 12.4491C2.35694 12.4491 1.12981 11.668 3.22615 10.8348Z" fill="#AAB4BF"/>
</svg>
