<svg width="24" height="24" viewBox="0 0 24 24" fill="none" xmlns="http://www.w3.org/2000/svg">
<path fill-rule="evenodd" clip-rule="evenodd" d="M19.7361 16.6519C19.8483 16.4227 19.6268 16.1786 19.379 16.2395C16.6078 16.9205 13.5244 16.2522 11.3506 14.0437C8.58614 11.2351 8.22783 6.83209 10.1768 3.54981C10.3078 3.32906 10.1362 3.04417 9.88312 3.08706C5.40663 3.84554 2 7.74014 2 12.5C2 17.725 6.20779 22 11.3506 22C14.984 22 18.2026 19.7872 19.7361 16.6519Z" fill="#AAB4BF"/>
<path d="M16.0358 9.49104C16.7524 9.3119 17.3119 8.7524 17.491 8.03583L17.806 6.77611C17.8565 6.57412 18.1435 6.57412 18.194 6.77611L18.509 8.03583C18.6881 8.7524 19.2476 9.3119 19.9642 9.49104L21.2239 9.80597C21.4259 9.85647 21.4259 10.1435 21.2239 10.194L19.9642 10.509C19.2476 10.6881 18.6881 11.2476 18.509 11.9642L18.194 13.2239C18.1435 13.4259 17.8565 13.4259 17.806 13.2239L17.491 11.9642C17.3119 11.2476 16.7524 10.6881 16.0358 10.509L14.7761 10.194C14.5741 10.1435 14.5741 9.85647 14.7761 9.80597L16.0358 9.49104Z" fill="#AAB4BF"/>
<path d="M11.8358 5.29104C12.5524 5.1119 13.1119 4.5524 13.291 3.83583L13.306 3.77611C13.3565 3.57412 13.6435 3.57412 13.694 3.77611L13.709 3.83583C13.8881 4.5524 14.4476 5.1119 15.1642 5.29104L15.2239 5.30597C15.4259 5.35647 15.4259 5.64353 15.2239 5.69403L15.1642 5.70896C14.4476 5.8881 13.8881 6.4476 13.709 7.16417L13.694 7.22389C13.6435 7.42588 13.3565 7.42588 13.306 7.22389L13.291 7.16417C13.1119 6.4476 12.5524 5.8881 11.8358 5.70896L11.7761 5.69403C11.5741 5.64353 11.5741 5.35647 11.7761 5.30597L11.8358 5.29104Z" fill="#AAB4BF"/>
</svg>
