<svg width="320" height="320" viewBox="0 0 320 320" fill="none" xmlns="http://www.w3.org/2000/svg">
<path fill-rule="evenodd" clip-rule="evenodd" d="M54.2 125.548L161.401 125.649L154.745 114.324L161.401 103H54.2L47.5437 114.223L54.2 125.548ZM201.893 103L140.885 205.954H154.298L160.954 217.281L221.962 114.327L215.306 103H201.893ZM238.924 205.959L299.931 103.004H313.344L320 114.331L258.993 217.286L252.336 205.959H238.924ZM216.773 205.965L253.207 144.304H239.794L233.138 132.978L196.704 194.638L203.36 205.965H216.773ZM113.807 205.956H6.65627L0 194.733L6.65627 183.408H113.857L107.201 194.733L113.807 205.956ZM103.446 143.166H30.5278L37.1841 154.491L30.5278 165.815H103.446L110.102 154.491L103.446 143.166Z" fill="black"/>
</svg>
