<svg width="42" height="42" viewBox="0 0 42 42" fill="none" xmlns="http://www.w3.org/2000/svg">
<path fill-rule="evenodd" clip-rule="evenodd" d="M11.7425 17.9729L21.1226 17.9818L20.5402 16.9909L21.1226 16H11.7425L11.1601 16.982L11.7425 17.9729ZM24.6656 16L19.3275 25.0085H20.5011L21.0835 25.9996L26.4217 16.9911L25.8392 16H24.6656ZM27.9058 25.0089L33.244 16.0004H34.4176L35 16.9915L29.6619 26L29.0794 25.0089H27.9058ZM25.9676 25.0094L29.1556 19.6141H27.982L27.3996 18.623L24.2116 24.0184L24.794 25.0094H25.9676ZM16.9581 25.0086H7.58242L7 24.0266L7.58242 23.0357H16.9625L16.3801 24.0266L16.9581 25.0086ZM16.0515 19.5145H9.67118L10.2536 20.5054L9.67118 21.4963H16.0515L16.634 20.5054L16.0515 19.5145Z" fill="white"/>
</svg>
