<svg width="42" height="42" viewBox="0 0 42 42" fill="none" xmlns="http://www.w3.org/2000/svg">
<path fill-rule="evenodd" clip-rule="evenodd" d="M14.8728 13.0001L27.2239 13C27.6609 13 28.0975 13.0642 28.5538 13.2769C29.1008 13.5319 29.3909 13.9338 29.5941 14.231C29.6099 14.2541 29.6247 14.2779 29.6384 14.3023C29.8773 14.7276 30.0005 15.1869 30.0005 15.6808C30.0005 16.1502 29.8888 16.6616 29.6384 17.1073C29.636 17.1116 29.6336 17.1158 29.6311 17.12L21.8279 30.5243C21.6558 30.8199 21.3391 31.0012 20.9971 31C20.655 30.9988 20.3396 30.8152 20.1696 30.5184L12.5097 17.1427C12.5075 17.1391 12.5053 17.1355 12.5031 17.1318C12.3278 16.8429 12.0567 16.3962 12.0093 15.8197C11.9657 15.2896 12.0849 14.7584 12.3512 14.2978C12.6176 13.8372 13.0186 13.469 13.501 13.2436C14.0182 13.0019 14.5423 13.0001 14.8728 13.0001ZM20.043 14.9149H14.8728C14.5331 14.9149 14.4027 14.9358 14.3116 14.9785C14.1855 15.0373 14.0797 15.1341 14.0089 15.2565C13.9381 15.3789 13.9061 15.5208 13.9177 15.6628C13.9244 15.7442 13.9576 15.8374 14.1534 16.1602C14.1574 16.167 14.1615 16.1738 14.1654 16.1807L20.043 26.444V14.9149ZM21.9579 14.9149V26.4948L27.9717 16.1644C28.0395 16.0411 28.0856 15.8628 28.0856 15.6808C28.0856 15.5332 28.055 15.405 27.9865 15.2729C27.9147 15.1696 27.871 15.115 27.8344 15.0775C27.8031 15.0455 27.7789 15.0284 27.7448 15.0125C27.6026 14.9462 27.4571 14.9149 27.2239 14.9149H21.9579Z" fill="white"/>
</svg>
