<svg width="320" height="320" viewBox="0 0 320 320" fill="none" xmlns="http://www.w3.org/2000/svg">
<path fill-rule="evenodd" clip-rule="evenodd" d="M71.4892 30.0011L249.894 30C256.205 30 262.512 30.927 269.104 33.9999C277.005 37.6829 281.194 43.4879 284.13 47.7809C284.358 48.1149 284.572 48.4591 284.769 48.8113C288.221 54.9549 290 61.5881 290 68.7234C290 75.5031 288.386 82.8895 284.769 89.3273C284.735 89.3898 284.7 89.45 284.665 89.5113L171.952 283.128C169.466 287.398 164.891 290.017 159.951 290C155.01 289.983 150.454 287.33 147.999 283.043L37.3554 89.8396C37.3236 89.7874 37.2918 89.7351 37.26 89.6817C34.7278 85.5091 30.8119 79.0566 30.1269 70.7296C29.4976 63.0717 31.2186 55.399 35.0663 48.7465C38.914 42.0929 44.7065 36.7741 51.6737 33.5182C59.1442 30.0273 66.7146 30.0011 71.4892 30.0011ZM146.17 57.6597H71.4892C66.5828 57.6597 64.6993 57.9619 63.3826 58.5776C61.5616 59.4274 60.0325 60.8258 59.0101 62.5934C57.9877 64.3622 57.5253 66.4116 57.6935 68.4632C57.79 69.639 58.2694 70.984 61.097 75.6474C61.1561 75.7451 61.214 75.8439 61.2708 75.9428L146.17 224.192V57.6597ZM173.829 57.6597V224.924L260.695 75.7076C261.675 73.9263 262.34 71.3521 262.34 68.7234C262.34 66.5911 261.898 64.7394 260.91 62.8309C259.872 61.3393 259.241 60.5497 258.713 60.009C258.259 59.5466 257.91 59.299 257.417 59.0695C255.364 58.1119 253.262 57.6597 249.894 57.6597H173.829Z" fill="black"/>
</svg>
