<svg width="320" height="320" viewBox="0 0 320 320" fill="none" xmlns="http://www.w3.org/2000/svg">
<path fill-rule="evenodd" clip-rule="evenodd" d="M252.233 41.2765L53.3058 114.88C35.4023 121.842 35.4023 146.708 54.3004 152.676L108.011 170.579C117.957 173.563 128.898 171.574 137.85 165.606L230.351 90.0138L154.759 182.515C147.796 190.472 145.807 201.413 149.786 212.354L167.689 266.065C173.657 283.968 199.518 284.963 205.485 267.059L278.094 69.1264C284.062 51.2229 268.148 35.3087 252.233 41.2765ZM80.1612 187.489C84.1398 191.467 84.1398 196.441 80.1612 200.419L67.2309 213.35C63.2524 217.328 58.2792 217.328 54.3006 213.35C50.3221 209.371 50.3221 204.398 54.3006 200.419L67.2309 187.489C71.2095 183.51 76.1827 183.51 80.1612 187.489ZM106.022 200.418C110.001 196.439 114.974 196.439 118.952 200.418C121.936 204.396 121.936 210.364 117.958 214.343L80.1614 252.139C76.1829 256.117 71.2097 256.117 67.2311 252.139C63.2526 248.16 63.2526 243.187 67.2311 239.209L106.022 200.418ZM106.021 252.141L118.951 239.211C121.935 235.232 127.903 235.232 131.882 239.211C135.86 243.19 135.86 248.163 131.882 252.141L118.951 265.072C114.973 269.05 110 269.05 106.021 265.072C102.042 261.093 102.042 256.12 106.021 252.141Z" fill="black"/>
</svg>
