<svg width="320" height="320" viewBox="0 0 320 320" fill="none" xmlns="http://www.w3.org/2000/svg">
<path d="M114.1 247.8C124.9 250.9 134.1 252.2 140.8 252.8C157.5 254.3 170.6 252.6 180.8 251.1C191.1 249.7 199.7 247.7 205.8 246.1C205.6 250.3 204.3 261.8 195.8 272.8C186.6 284.6 174.7 288.4 170.8 289.5C170.2 293.3 169.6 297.2 169.1 301.2C168.4 306.3 167.9 311.3 167.4 316.2C167.2 316.5 164.8 319.5 160.7 319.5C160.3 319.5 156.5 319.4 154 316.2C153.7 311 153.2 305.4 152.3 299.5C151.8 296 151.2 292.7 150.6 289.5C146.6 288.6 135.1 285.3 125.6 274.5C116.3 263.7 114.5 251.9 114.1 247.8V247.8Z" fill="black"/>
<path d="M139.1 57.5999C137.8 55.3999 137.5 53.1999 137.4 52.5999C136.5 45.7999 131.3 32.8999 122.4 27.5999C122.2 27.4999 122.4 27.5999 112.4 22.5999C107.9 20.2999 106.4 19.3999 105.7 17.5999C104.6 14.6999 106.3 10.3999 109 9.29995C109.9 8.89995 111.7 8.59995 120.7 14.2999C125 17.0999 128.2 18.9999 132.4 22.5999C136.4 26.0999 139.2 28.5999 142.4 32.5999C147.4 38.9999 149.1 44.7 152.4 56C152.6 56.6 153 57.9999 152.4 59.2999C151.5 61.5999 148.4 62.7999 145.7 62.5999C142 62.2999 139.6 58.3999 139.1 57.5999V57.5999Z" fill="black"/>
<path d="M182.5 57.5999C183.8 55.3999 184.1 53.1999 184.1 52.5999C184.9 45.7999 190.1 32.8999 198.8 27.5999C199 27.4999 198.8 27.5999 208.6 22.5999C213.1 20.2999 214.5 19.3999 215.1 17.5999C216.1 14.6999 214.5 10.3999 211.8 9.29995C210.9 8.89995 209.2 8.59995 200.4 14.2999C196.1 17.0999 193.1 18.9999 189 22.5999C185.1 26.0999 182.3 28.5999 179.2 32.5999C174.3 38.9999 172.6 44.7 169.4 56C169.2 56.6 168.9 57.9999 169.4 59.2999C170.3 61.5999 173.4 62.7999 175.9 62.5999C179.8 62.2999 182.1 58.3999 182.5 57.5999V57.5999Z" fill="black"/>
<path d="M286 201.1C280.4 173.7 250.8 158.6 239.3 152.7C231.6 148.8 219.9 143.8 204.3 141C203.4 138.3 201.6 133.7 197.6 129.3C194.6 126 191.5 123.9 189.3 122.6C189.9 118.7 190.4 114.8 191 110.9C193.5 110 197.6 108.2 201 104.2C209.1 94.9999 206.4 82.6999 206 80.7999C203.7 70.6999 196.4 65.1999 192.7 62.3999C180.8 53.4999 167.3 53.8999 159.3 54.0999C153 54.2999 144.9 54.5999 135.9 59.0999C131.2 61.4999 118.6 67.8999 115.9 80.7999C113.7 91.0999 118.5 99.4999 119.2 100.8C122.5 106.4 126.9 109.4 129.2 110.8C129.8 114.7 130.3 118.6 130.9 122.5C128.7 123.8 125.5 125.8 122.6 129.2C118.7 133.6 116.8 138.1 115.9 140.9C103.2 144.7 93.1 149.1 85.9 152.6C68.6 160.9 54.7 167.8 44.2 182.6C39.9 188.6 34.5 196.4 34.2 207.6C34.1 210.2 33.7 224.4 44.2 234.3C54.3 243.8 67.8 243 72.6 242.6C101.4 240.7 117.7 210.7 119.3 207.6C122 209.1 126 211 131 212.6C142.2 216.3 151.3 216.1 161 215.9C168.6 215.7 179.5 215.4 192.7 210.9C196.2 209.7 199.1 208.5 201 207.6C217.5 233 242 246.2 261.1 241C263.1 240.4 278.2 236.3 284.5 222.6C288.4 213.8 286.8 205.1 286 201.1V201.1ZM159.2 184.4C147.8 184.2 138.6 181.6 132.5 179.4C132.6 176.7 133.1 173.2 134.2 169.4C135.2 166 136.4 163.3 137.5 161.1C143.4 163.1 148.6 164 152.5 164.4C155.8 164.8 161.6 165.4 169.2 164.4C174.8 163.6 179.3 162.3 182.5 161.1C185.5 164.3 186.8 167.3 187.5 169.4C188.9 173.6 189.2 179.4 189.2 179.4C182.7 181.7 172.3 184.7 159.2 184.4Z" fill="black"/>
</svg>
