<svg width="320" height="320" viewBox="0 0 320 320" fill="none" xmlns="http://www.w3.org/2000/svg">
<path d="M275.8 65.3C275.2 63.3 271.1 62.4 267.9 62.7C264.5 63 260.9 64.8 252.1 75.8C248.5 80.3 248.9 80.3 237.7 96.8C236.3 98.9 233.2 103.4 229.8 109.9C229.2 111 228.8 111.9 228.5 112.5C228.1 112.9 227.6 113.4 227.2 113.8C226.6 114.1 225.7 114.5 224.6 115.1C212.9 121.5 207.2 132.8 204.9 137.4C203 141.2 201.2 145.6 201.2 145.6C200.2 148.1 199.9 149.2 198.3 153.1C197 156.5 196.3 158.2 195.7 159.7C193.4 165 190.6 168.5 185.2 175.5C185.1 175.6 185.2 175.5 179.9 182.1C179.6 182.4 174.9 188.3 174.6 188.7C175 182.6 175.5 176.4 175.9 170.3C175.9 170.3 182.2 146 173.3 120.4C163.7 93 138.1 79.5 130 75.8C102.7 63.1 77.8 68.9 70.9 70.5C63 72.4 35.2 79.3 18.4 106C1.79999 132.4 5.59999 165.7 14.5 183.5C19.8 194 24.7 201.1 31.6 208.4C32.1 208.9 32.6 209.5 33.2 210.1C38.2 210.5 43.5 209.7 52.6 208.4C54.6 208.1 63 206.9 73.6 203.1C79.6 201 87.2 198.3 95.9 192.6C102 188.6 111.6 182.3 116.9 171.6C118.8 167.7 119.5 164.6 120.8 158.5C121.7 154.2 121.8 152.3 120.8 150.6C119.5 148.5 117.1 147.6 114.2 146.7C113.5 146.5 111.5 145.8 107.6 145.4C103.5 145 100.7 144.6 97.1 145.4C94.5 146 88.9 147.1 87.9 150.7C87.5 152.2 88.1 153.5 89.2 156C91.5 161.1 93.9 161.7 94.5 165.2V165.5C94.7 167.5 94.9 168.4 94.5 169.1C93.8 170.2 92 170.3 90.6 170.4C90.1 170.4 89.6 170.4 89.3 170.4C86.2 170.1 84.2 164.2 84 163.8C83.4 161.1 83 158.9 82.7 157.2C81.2 148.6 81.8 146.6 82.7 145.4C83.4 144.4 84.4 143.5 85.3 142.8C85.5 142.6 87.1 141.1 89.2 140.2C91.2 139.3 96.4 137.8 98.4 137.6C111.2 136.4 130.3 142 131.2 149.4C131.3 149.9 131.2 150.6 131.2 152C131.1 155.2 130.6 158.1 129.9 161.2C129.4 163.2 128.3 166.5 126 173C124.7 176.8 123.4 180.1 121.1 184.2C120.9 184.5 120.8 184.7 120.8 184.8C115.6 193.5 101.1 201.9 101.1 201.9C92.8 206.7 85.7 209.5 81.4 211.1C75.8 213.1 71.5 214.2 63 216.4C62.1 216.6 52 218.6 37.8 220.9C36.9 222.7 34.9 222.7 30.1 226.9C26.8 229.9 24.1 232.3 23.5 236.1C23.3 237.2 23.1 240.2 24.8 242.7C27.1 245.9 31.4 246.2 35.3 246.6C49.8 248.1 38.7 248.6 60.2 250.5C67 251.1 71.2 251.5 78.6 251.8C91.5 252.3 101 251.9 114.1 251.8C127.8 251.7 146.4 250.9 183.7 249.2C183.7 249.2 188 249 198.1 247.9C199.8 247.7 202.5 247.4 206 246.6C210.6 245.5 212.8 245 213.9 244C217.4 240.6 213.7 235.3 217.8 229.6C219.2 227.6 219.5 228.2 221.7 225.7C226.1 220.8 227.8 215.5 229.6 209.9C230.5 207 231.7 203.2 232.2 198.1C232.3 196.9 232.4 195.5 232.2 186.3C232 175.6 231.8 175.2 232.2 173.2C232.6 171.3 232.8 171.3 237.5 161.4C241.3 153.2 241.5 152.6 242.8 150.9C244.9 148.1 245.6 148.3 250.7 143C254.5 139.1 256.4 137.1 257.3 135.1C257.7 134.2 260.6 127.5 257.3 122C255.2 118.4 251.2 116.7 248.1 115.4C246.5 114.7 245.1 114.3 244.2 114.1C246.8 104.5 250.5 97.6 253.4 93.1C261 81.1 267.8 74.7 267.8 74.7C272.6 70.1 276.5 67.6 275.8 65.3V65.3Z" fill="black"/>
<path d="M252.2 112.6C252.7 113.4 253.7 113.7 254.8 113.9C255.6 114.1 256.5 114.3 257.4 113.9C258.1 113.6 260 111.3 261.3 108.6C262.6 106 264.6 103.8 269.2 98.0999C271.9 94.6999 274.9 91.4999 281 84.9999C283.7 82.0999 284.2 81.5999 284.9 81.0999C288.3 78.4999 290.5 78.1999 291.5 75.7999C291.6 75.4999 292.4 73.5999 291.5 71.8999C290.3 69.3999 286.5 69.2999 286.2 69.2999C283.5 69.1999 281.4 70.6999 273.1 79.7999C270 83.1999 267.5 85.9999 263.9 90.2999C260.2 94.7999 258.2 97.2999 256 100.8C253.6 105.5 252.6 107.5 252.1 110C251.8 111.5 251.9 112.1 252.2 112.6V112.6Z" fill="black"/>
</svg>
