<svg width="320" height="320" viewBox="0 0 320 320" fill="none" xmlns="http://www.w3.org/2000/svg">
<path d="M263.9 108C277.5 102.4 285.6 86.7 284.9 71.3C284.2 54.9 271.6 40.4 252.6 41.9C233.2 43.6 220.2 60.7 203.3 60.7C196.3 59.6 189.9 59.3 185.2 59.3C172.9 59.3 148.7 59.3 136.5 59.3C131.7 59.3 125.5 59.5 118.4 60.7C101.5 60.7 88.5 43.5 69.1 41.9C50.1 40.3 37.4 54.8 36.7 71.3C36.1 86.7 44.2 102.4 57.7 108C56.1 111.5 54.7 115.3 53.4 119.3C34.9 175.7 33.3 210.5 44.6 228.3C54.1 243.3 98.5 258.3 105.5 264.7C118.4 276.4 133.6 283.9 160.5 283.9C187.5 283.9 202.6 276.3 215.5 264.7C222.5 258.3 267.1 243.2 276.5 228.3C287.9 210.4 286.2 175.7 267.6 119.3C267 115.3 265.6 111.5 263.9 108V108ZM125 176.5C117.1 177.9 109.2 175.9 105.1 171.1C101 166.3 99.7 150.2 113.8 155.4C124.2 159.3 132.6 162 134.6 166.8C136.7 172.4 130.6 175.5 125 176.5ZM181.9 236.3C176.6 244.1 172.5 244.2 169.3 244.2C167.2 244.2 155.5 244.2 153.4 244.2C150.2 244.2 146 244 140.8 236.3C135.6 228.6 134.6 225.4 137 219.9C139.4 214.4 141.9 212.9 145.4 212.9H177.2C180.6 212.9 183.2 214.4 185.6 219.9C188 225.3 187.1 228.4 181.9 236.3V236.3ZM216.9 171.1C212.7 176 204.8 177.9 197 176.5C191.5 175.6 185.4 172.4 187.6 166.8C189.5 162 197.8 159.3 208.4 155.4C222.4 150.2 221.2 166.1 216.9 171.1Z" fill="black"/>
</svg>
