<svg width="320" height="320" viewBox="0 0 320 320" fill="none" xmlns="http://www.w3.org/2000/svg">
<path d="M278 133.9C267.6 132.8 249.6 133.9 239.6 142.5C225.1 155.1 218.7 178.2 210.1 175.1C207.9 174.3 205.9 148.1 231.6 125.6C251.5 108.2 260.8 91.2 258.9 66.8C257.2 45.1 246.9 27.1 233.8 18.4C231.8 17.1 229 16.7 230.7 19.7C234.8 26.7 241.6 41.1 240.7 58.5C238.2 109.2 172.6 108.1 172.6 158.4C172.6 163.7 168.4 166.2 159.9 166.2C151.5 166.2 147.2 164 147.2 158.4C147.2 108.1 81.7 109 79.1 58.5C78.3 41.1 85 26.6 89.1 19.7C90.9 16.7 87.9 17.1 86 18.4C72.9 27 62.5 45.1 60.9 66.7C59 91.2 68.2 108 88.2 125.5C114 148.1 112 174.2 109.7 175C101.1 178.2 94.7 155 80.2 142.4C70.3 133.8 52.2 132.7 41.8 133.8C34.7 134.5 34.5 140.8 35.5 146.3C37.4 156.2 41.9 169.5 55.8 182.1C77.4 201.7 96.4 202.9 96.4 202.9C96.4 202.9 93.2 226.4 107.5 235.8C107.5 235.8 105.1 248.1 109.3 263.7C112.4 275.4 121.8 275.1 128.2 285C133.3 293 130.7 296.7 135.4 302.8C138.8 307.4 141.3 307.5 143.7 310.2C146.1 312.9 147.4 318.8 159.2 318.8H160.1H160.3H161.2C172.9 318.8 174.3 312.9 176.7 310.2C179.1 307.5 181.5 307.2 185 302.8C189.7 296.5 187.1 292.9 192.2 285C198.5 275.1 207.9 275.3 211.1 263.7C215.2 248.1 212.9 235.8 212.9 235.8C227.2 226.4 224 202.9 224 202.9C224 202.9 243 201.7 264.6 182.1C278.5 169.5 283 156.2 284.9 146.3C285.5 140.9 285.1 134.8 278 133.9V133.9ZM128.2 227.3C125.7 230.4 122.9 230.8 118.8 228.1C111.5 223.5 110.8 217.6 111.6 213.9C112.4 210.2 115 210 116.4 210.2C119.5 210.7 124.5 214.3 128.2 218.7C129.9 220.6 129.7 225.5 128.2 227.3V227.3ZM175 292C171.7 293.7 168.9 294.8 167.3 297.1C165.7 299.4 165.5 301.2 160.8 301.2H160.1C155.3 301.2 155 299.3 153.5 297.1C152 294.9 149.1 293.8 145.8 292C142.5 290.3 139.4 287.4 142.7 284.6C146 281.8 156.7 286.7 160.1 286.7H160.8C164.1 286.7 174.7 281.6 178 284.6C181.4 287.5 178.3 290.2 175 292V292ZM201.3 228.2C197.3 230.8 194.6 230.4 192.2 227.4C190.9 225.6 190.7 220.8 192.2 218.9C195.7 214.4 200.6 210.9 203.5 210.4C204.9 210.2 207.4 210.4 208.2 214.1C209 217.7 208.4 223.5 201.3 228.2V228.2Z" fill="black"/>
</svg>
