<svg width="320" height="320" viewBox="0 0 320 320" fill="none" xmlns="http://www.w3.org/2000/svg">
<path d="M252.7 105.4C279.6 82.6 278.5 48.1 253.1 29.9C256.1 45.1 254.6 55.7 244.4 63.7C228.8 75.8 123 66 108.2 72.4C97.2 77.3 97.6 80.7 94.9 86.8C69.9 87.6 44.4 95.1 40.3 101.2C35 108.8 36.5 139.1 38 163.8C41 156.6 45.6 148.2 52 142.6C55.4 139.6 68.3 135 89.9 136.5C108.9 138 121.8 165 117.2 189.2C63 204.4 51.2 257.5 56.5 282.1C67.1 273.4 72.8 268.1 88.7 263.5C106.5 258.2 146.7 265.8 166.8 262.4C189.6 258.6 192.6 254.4 203.2 246.1C194.5 260.5 178.5 270.4 162.6 277.6C233.5 282.2 268.1 256 275.6 239.3C296.3 194.6 272.4 133.1 252.7 105.4V105.4ZM140.8 118.3C125.2 117.5 122.6 103.1 127.9 97.8C132.5 98.9 152.9 99.3 163.6 99.3C163.5 106.9 162.4 119.5 140.8 118.3V118.3Z" fill="black"/>
</svg>
