<svg width="320" height="320" viewBox="0 0 320 320" fill="none" xmlns="http://www.w3.org/2000/svg">
<path d="M275 54.6C275.2 52.2 272.8 50.1 265.9 45.1C261.9 42.2 258.7 39.9 256.6 38.5C256.3 37.2 255.7 35.3 254.6 33.2C251.3 26.6 244.6 20.1 235.4 18C225.1 15.6 216.8 19.9 214.2 21.3C206 25.8 202.2 32.5 199.6 37.2C194.5 46.5 193.6 55.2 193 61.7C192.3 68.6 192.7 76.6 192.7 77.8C192.8 79.1 192.8 80.3 193 81.5C193.4 85.8 194.3 89.4 195 92.1C193.5 94.7 191.5 97.7 189 100.7C185.8 104.6 182.6 107.7 179.7 110C177.3 110.7 173.5 111.9 169.1 114C151.7 122 141.1 134.9 133.4 144.4C128.2 150.9 123.3 156.9 118.2 165.6C116.5 168.5 114.8 171.6 111.6 175.5C110.4 177 109.3 178 109.1 178.3C106.3 181.2 103.1 186.6 101.5 189.1C98.6 193.5 95.7 196.2 91.2 200.5C89.7 201.9 85.1 206.1 77.8 210.8C71.1 215.1 65.7 217.5 55 222.2C47.7 225.4 42.3 226.8 33.3 231.5C25.5 235.6 23.7 237.4 23.9 239C24.3 242.6 34.4 244 35 244C41.4 244.8 46.4 243.3 54.1 241C55.7 240.5 61.8 238.6 69.2 235C73.9 232.7 77.3 230.6 78.3 230C80.6 228.5 85.2 225.5 90.4 220.9C92.5 219 94.1 217.5 99.5 211.8C102.8 208.4 107.2 203.7 112.4 198C112.7 198.5 113.1 199.2 113.7 200C118.2 206.2 123.9 209 125.6 209.9C127.6 211 129.3 212.3 145.4 235C148.9 239.9 153.2 245.9 158 252.9C154.8 252.7 152.1 252.8 150.1 252.9C145.2 253.2 143.8 253.9 142.8 254.9C142.5 255.2 141.3 256.5 141.5 258.2C141.6 259.7 142.8 261.1 144.1 261.5C145.2 261.9 146 261.1 147.3 261.1C150.5 261 153 262 167.9 262.2H182.5H189.8C192.6 262.3 193.5 262.4 195.1 262.2C198 261.9 200.2 261 201.7 260.2C198.1 256.5 194.8 254.9 192.4 254.2C188.7 253.1 186.2 253.7 179.2 253.5C174.9 253.4 171.5 253.1 169.3 252.8C166.2 246.4 162.3 239.5 157.4 232.3C155 228.7 152.5 225.4 150.1 222.4C154.6 220.8 161.7 218.3 170.6 215.8C191.1 209.9 197.4 210.1 211.6 204.6C222 200.6 228.3 198.1 235.4 192C245.1 183.8 250.2 174 252.8 167.4C253.5 161.1 254.7 150.7 250.6 138.5C248.1 131.2 244.9 126.7 243.3 124.6C241.5 122.3 236.6 116.3 228.1 112C225.1 110.5 221.1 108.5 215.5 108C211.6 107.7 208.4 108.2 206.2 108.7C209.2 107.5 213 106.2 217.4 105.4C223.7 104.2 229.2 104.3 233.3 104.7C236.4 106.2 240.8 108.6 245.2 112.6C250.5 117.5 253.4 122.3 256.2 127.3C255.5 118.1 254.1 111 253.2 106C251.1 95.3 249.1 89.5 245.3 70.9C244.7 68.1 244.3 65.8 244 64.3C245.8 63.2 248.4 61.3 250.6 58.3C251.8 56.7 251.7 56.4 252.6 55.7C255.9 52.7 261.4 53.8 264.5 54.4C266.5 54.8 269.6 55.6 273.1 57.7C274 56.9 274.9 55.9 275 54.6V54.6ZM239.4 36.4C239.3 36.9 239.2 38.4 238.1 39.7C236.9 41.1 234.9 42.1 232.8 41.7C230.9 41.4 229.8 40.1 229.5 39.7C228.4 38.3 228.2 36.8 228.2 36.4C228 33.8 229.5 30.8 232.2 29.8C232.7 29.6 234.4 29.1 236.2 29.8C238.7 30.9 239.7 34.2 239.4 36.4V36.4Z" fill="black"/>
</svg>
