<svg width="320" height="320" viewBox="0 0 320 320" fill="none" xmlns="http://www.w3.org/2000/svg">
<path d="M289.6 86.3C286.6 69 276.2 58.1 273.2 55.2C263.6 45.7 253.2 42 247.8 40.4C250.6 40.4 254 40.6 257.6 41.2C263.8 42.3 268.8 44.3 272.4 46.1C267 39.6 257.5 30 242.9 23.2C236.4 20.2 219.8 12.6 199.5 15.8C192 17 186.4 19.2 180.6 21.5C167.8 26.6 158.2 33 151.9 37.9C129.2 52.3 114.8 66.6 110.9 73.1C106.1 81.2 105.2 87 105.2 87C104.8 89.4 105 90 104.4 91.9C102.5 97.4 97.7 101.3 96.2 102.6C91.4 106.3 87.3 110.8 82.3 114.1C74.3 119.2 67.1 127.3 39.7 157.5C33.5 164.3 22 176.9 6 194.4C29.7 187.1 47.3 178.3 59.3 171.5C72.7 163.8 84.5 155.3 110.9 140.4C117.8 136.5 123.5 133.4 127.3 131.4C129.1 132 131.7 132.7 134.7 133C136.4 133.2 140.1 133.6 145.4 133C151.9 132.3 156.8 130.6 159.3 129.7C173.4 124.8 179.1 121.2 191.3 116.6C194.6 115.4 199.6 113.5 206.1 111.7C208.3 115 211.3 120 214.3 126.5C217.5 133.5 219.1 137 219.2 141.3C219.5 151.6 212.5 159.3 210.2 161.8C209.3 162.8 207.6 164.5 199.5 170C187.9 177.9 184.5 179 177.4 183.9C175.4 185.3 167.6 190.8 159.4 199.5C156.4 202.6 149 210.6 143 221.6C131 243.8 131.8 265.8 132.3 277.3C132.7 285.6 134.1 297.7 138.9 311.7C152.3 312.9 163 311 170 309.2C186.4 305.1 197.5 297.4 205.2 292C215.3 284.9 222.9 277.5 228.1 271.5C220.7 260.4 216.7 250.4 217.4 245.3C217.6 243.7 218.1 242.2 218.1 242.2C219.7 237 223.1 233.9 224 233C230.1 227.1 252.9 199.2 263.3 182.2C275.6 162.1 278.8 143.8 280.5 133.8C283 119.2 282.1 110.3 280.5 103.5C278.3 94 274.4 86.8 271.5 82.2C277.8 87.4 284.1 92.6 290.4 97.8C290.5 94.9 290.4 90.9 289.6 86.3V86.3ZM154.3 85.4C152.2 90.1 148.2 92.4 146.1 93.6C143.7 94.9 140.8 96.6 137.1 96.1C136 95.9 133.6 95.6 132.2 93.6C130.7 91.5 131.2 88.9 131.4 87.9C131.7 86.5 132.4 84.6 134.7 82.2C135.3 81.6 143.6 73 151.1 75.6C151.8 75.8 154.2 76.7 155.2 78.9C156.2 81.2 155.1 83.8 154.3 85.4Z" fill="black"/>
</svg>
