<svg width="320" height="320" viewBox="0 0 320 320" fill="none" xmlns="http://www.w3.org/2000/svg">
<path d="M144.824 278.934C145.845 285.334 150.439 288.532 154.129 293.202C149.218 294.183 145.804 292.766 142.716 290.516C136.835 286.229 132.925 280.533 130.371 273.669C127.252 265.289 122.58 258.082 113.922 254.142C102.177 248.797 92.4999 240.794 85.2409 230.103C74.3089 214 77.8739 193.827 93.3659 182.823C101.249 177.223 109.928 176.051 119.046 178.552C122.524 179.506 125.724 179.886 129.811 178.315C129.279 176.375 128.879 174.399 128.201 172.525C122.161 155.839 113.597 140.501 102.772 126.493C85.9429 104.716 67.0949 85.007 43.4259 70.442C41.7979 69.44 40.0469 68.63 38.4619 67.568C35.6729 65.699 34.8449 63.205 36.0179 60.715C37.2919 58.01 40.1309 56.861 43.3059 58.01C44.9059 58.589 46.4039 59.504 47.8639 60.404C60.6129 68.265 72.436 77.301 83.1049 87.853C104.776 109.284 123.587 132.747 135.464 161.153C137.524 166.081 139.258 171.145 141.108 176.055H178.82C178.918 175.869 179.478 175.107 179.742 174.255C185.655 155.225 195.023 137.947 206.922 122.09C223.081 100.556 241.295 81 263.772 65.813C267.571 63.246 271.432 60.728 275.465 58.562C279.138 56.59 282.337 57.562 283.875 60.552C285.305 63.33 284.308 65.895 280.659 68.014C252.612 84.291 230.988 107.332 212.274 133.327C203.866 145.007 197.215 157.734 192.225 171.276C191.445 173.393 190.83 175.57 190.041 178.022C193.384 179.79 196.434 180.017 199.639 178.944C224.821 170.518 246.293 196.212 240.049 217.897C237.974 225.103 234.518 231.271 229.576 236.74C222.953 244.07 215.279 250.052 206.231 254.059C197.528 257.913 192.801 265.095 189.681 273.491C187.204 280.156 183.501 285.788 177.883 290.072C174.685 292.511 171.151 294.32 166.208 293.13C169.25 288.46 174.219 285.479 175.094 279.111C173.55 280.264 172.46 281.073 171.375 281.889C168.781 283.843 166.216 285.837 163.589 287.746C161.122 289.539 158.616 289.481 156.179 287.63C153.593 285.666 151.014 283.692 148.434 281.72C147.441 280.961 146.457 280.195 144.824 278.934V278.934ZM135.344 222.04C135.344 219.937 135.553 217.809 135.31 215.735C133.91 203.805 127.806 195.057 117.099 189.641C111.913 187.018 106.499 186.525 101.02 188.893C90.6379 193.381 84.7519 206.28 89.1889 216.739C94.7859 229.935 104.375 239.652 117.859 244.948C125.678 248.019 130.484 245.766 132.996 237.815C134.59 232.771 135.595 222.077 135.344 222.04V222.04ZM183.827 221.25C183.832 227.121 185.233 231.871 186.699 236.961C189.245 245.802 194.35 248.249 202.893 244.676C215.824 239.268 225.069 229.781 230.693 217.042C234.363 208.729 231.181 197.924 224.092 192.079C216.958 186.197 208.744 185.774 200.142 191.145C189.095 198.045 184.259 208.311 183.827 221.25Z" fill="black"/>
<path d="M113.191 191.795C113.234 188.402 115.728 185.746 118.943 185.667C122.223 185.586 124.696 188.194 124.642 191.675C124.589 195.06 122.042 197.803 118.913 197.845C115.677 197.889 113.147 195.214 113.191 191.795V191.795Z" fill="black"/>
<path d="M205.603 192.027C205.53 195.42 202.856 198.028 199.64 197.844C196.531 197.666 194.072 194.806 194.137 191.443C194.204 187.984 196.813 185.446 200.077 185.663C203.267 185.877 205.676 188.65 205.603 192.027Z" fill="black"/>
</svg>
