<svg width="320" height="320" viewBox="0 0 320 320" fill="none" xmlns="http://www.w3.org/2000/svg">
<path d="M276.3 104C261.8 93.3 249.9 102 237.6 88.6C228.9 79.1 239.9 65.9 231.8 47C222.4 25.1 203.5 28.7 198.9 32.9C198.9 32.9 193 0.800014 157.1 0.600014C126.9 0.500014 126.7 27 126.7 27C126.7 27 101.1 16.4 91.4 44.2C84.3 64.9 105.9 79 105.9 79C105.9 79 86.8 91.3 75 114.5C61 142 48.7 186.1 10.6 223.4C10.6 223.4 30.1 280 94.2 306.8C161.2 334.8 222.6 303.5 222.6 303.5C208.6 274.8 209.6 225.3 214.5 201C230.9 118.9 277.3 128.5 291.7 131.3C291.8 131.3 290.8 114.9 276.3 104V104ZM206.7 120.8C204 124.2 199.5 127.6 192.6 127.6C182.8 127.6 176.1 120.6 173.3 117.1C172.4 115.9 172.4 113.9 173.4 111.9C176.1 106.9 182.3 98.1 192.6 98.1C201.2 98.1 205.9 104.3 208.2 109.1C209.6 112.2 209.2 117.7 206.7 120.8V120.8Z" fill="black"/>
</svg>
