<svg width="320" height="320" viewBox="0 0 320 320" fill="none" xmlns="http://www.w3.org/2000/svg">
<path d="M310 104.1C305.9 92.2 285.4 100.5 285.4 100.5C285.4 100.5 288.2 95.5 275.4 82.3C255.8 62.3 197.6 56.4 160.2 56.4C160.1 56.4 160.1 56.4 160 56.4C159.9 56.4 159.9 56.4 159.8 56.4C122.4 56.4 64.2 62.3 44.6 82.3C31.8 95.5 34.6 100.5 34.6 100.5C34.6 100.5 14.1 92.3 10 104.1C3.1 125 20.9 137.4 28.4 144.6C31.6 187.9 18.8 215.6 60.2 246.6C88 267.9 116.2 272.5 159.9 272.5H160H160.1C203.8 272.5 232 267.9 259.8 246.6C301.2 215.6 288.5 187.9 291.6 144.6C299.1 137.4 316.8 125 310 104.1ZM69.2 157.8C59.2 143.7 69.6 120.4 76.9 120.4C82.8 120.4 97.8 133.1 97.8 147.3C97.4 156 77.4 169.2 69.2 157.8ZM160 221.8C158.3 214.7 145 199.9 130.2 197.7C133.4 188.5 143.8 169.7 160 159.1C176.2 169.6 186.7 188.5 189.8 197.7C175 200 161.7 214.8 160 221.8ZM250.8 157.8C242.6 169.2 222.6 156 222.1 147.3C222.1 133.2 237.1 120.4 243 120.4C250.4 120.4 260.8 143.7 250.8 157.8V157.8Z" fill="black"/>
</svg>
