<svg width="320" height="320" viewBox="0 0 320 320" fill="none" xmlns="http://www.w3.org/2000/svg">
<path d="M271 240.6C267.2 229.3 256.1 203.6 254.9 197.8C251.1 179.6 255.7 161.1 253.6 146.4C251.5 131.7 247.5 126.4 229.6 104.1C211.7 81.8 203.4 70.6 187.5 70.2C187.5 70.2 205.3 62.1 216 42.2C226.7 22.3 222.5 13.3 218.2 11.3C214 9.09996 203.4 18.7 183.8 26.4C164.2 34.1 145.5 47.5 149.6 76.7C149.6 76.7 137.3 61.8 148.7 28.9C148.7 28.9 110.1 31.2 74.1 65.3C74.1 65.3 30.8 98.2 35.1 165.3C39.8 236.9 91.7 273 91.7 273C91.7 273 127 235.7 136.9 229.6C142.7 226 144.1 228.3 151.2 233.8C158.3 239.3 173.6 246.1 181.4 252.8C189.1 259.6 203.8 272.8 203.8 272.8C203.8 272.8 201.5 276 205.1 283.7C208.3 290.7 218 290.2 220.6 290.5C223.1 291 222.3 295.5 227.9 294.9C233.5 294.4 232.3 289.3 232.3 289.3C233.3 294.4 240 296.7 243.9 293.1C247.8 289.5 261.6 281.1 262.7 277.7C264 274.3 263.5 270.3 268.2 265.4C272.6 260.8 274.9 251.9 271 240.6V240.6ZM221.4 178.9C208.1 176.7 207.6 166.4 213.3 164.7C218.9 163.1 231.3 162 232 166.5C232.4 171.1 230.4 180.3 221.4 178.9V178.9ZM263 255.1C261 262.7 257.6 263.4 255.9 263.2C254.2 263 254.4 260.7 254.4 257.4C254.4 254 253.7 252.5 252.8 248.1C251.9 243.7 255.6 240.8 258 240.8C262.4 240.8 265 247.4 263 255.1Z" fill="black"/>
</svg>
