<svg width="320" height="320" viewBox="0 0 320 320" fill="none" xmlns="http://www.w3.org/2000/svg">
<path d="M276.7 240.7C275.7 239.7 274.3 239.3 273.1 239.5C273.1 239.5 273.1 239.5 273 239.5C272.8 239.5 272.5 239.6 272.3 239.7C269.9 240.4 269.5 242.5 267.3 243.4C265.1 244.3 264.8 241.4 262.1 239.9C261.9 236.1 261.9 231.6 262.1 227.3C263.1 215.4 258.6 213.7 254.3 213.4C249 213 243.7 215.1 235.9 214.8C244.1 196.6 250.1 188.6 256.9 169.7C264.3 149.5 265.8 110.4 231.9 85.3C226.1 81 221 79 216.3 77.1C218.9 76.7 222 76.4 225.5 75.5C243.1 71.7 249.4 67 248.9 62.4C248.5 59.9 247.2 54.5 246.1 50.3C246.8 49.6 247.5 48.6 247.8 47.5C247.8 47.4 247.8 47.4 247.9 47.3C248.9 45.6 250 46.4 251.4 47.7C251.8 48.4 252.3 48.9 252.9 49.4C253.4 49.8 254 49.9 254.6 50C256.1 50.1 257.7 49.5 258.6 48.1C259.8 46.1 259.2 43.6 257.2 42.4C256.6 42 256 41.8 255.2 41.8C252.8 41.4 248.8 44.2 247.9 42.2C247.9 42.1 247.8 42 247.8 41.8C247.3 39 252 38.8 253.4 37C253.4 37 253.4 37 253.4 36.9C253.6 36.7 253.9 36.4 254.1 36C255.3 34 254.7 31.5 252.7 30.3C250.7 29.1 248.2 29.7 247 31.7C245.9 32.9 246.3 38.6 242.7 36.9C239.2 35.2 244.1 33.3 242.6 29.4C242.6 28 241.9 26.8 240.6 26.1C238.6 24.9 236.1 25.5 234.9 27.5C234 28.9 234.2 30.5 234.9 31.8V31.9C235.9 33.6 238.4 36 236.6 37.1C236.2 37.2 236 37.3 235.7 37.5C233.2 38.2 232.1 36.1 231.7 35.1C231.7 35 231.6 34.9 231.6 34.6C231.6 34.5 231.6 34.5 231.6 34.5C231.4 33.8 230.7 33 230 32.5C228.1 31.3 225.5 31.9 224.3 33.7C223.1 35.6 223.7 38.2 225.5 39.4C225.7 39.5 226 39.6 226.2 39.8C226.4 39.9 226.8 39.9 227.1 40C229.5 40.6 231.1 41.6 231.3 43.2C231.2 43.6 231.2 44.1 231.2 44.4C230.2 47.6 227.1 46.8 224.3 47.6C224.2 47.6 224.1 47.7 223.9 47.7C222.9 47.9 222 48.6 221.4 49.4C220.2 51.3 220.8 53.9 222.6 55.1C224.1 56 225.8 56 227.2 55C229.2 53.8 229.3 51.7 231 50.4C232.9 49 233.8 51.6 236.6 52.5C236.5 55.5 236.2 58.3 235.6 58.8C234.4 59.9 225.5 61.9 215.2 62.5C204.9 63.1 205.7 71.7 199.7 67.9C198.1 66.3 197 63.6 196.5 61.8C196.1 59.4 196.1 56.6 196.7 53.3C197.9 46.7 192.4 36.3 171.8 27.7C140.7 14.7 117.6 15 109.3 25.1C100.5 35.7 107.4 67.8 135.7 94.5C156.7 114.4 163.7 97.5 172 100.8C172.4 101.2 173.9 102.4 173.1 104.8C171.9 109 168.1 106.4 167 116.7C165.8 126.8 163.4 135.8 162.2 136.9C161.7 137.4 158.9 137.5 155.9 137.5C155.2 134.7 152.7 133.7 154 131.8C155.5 129.9 158 130.4 159.2 128C160.4 125.6 159.2 128 159.2 127.9C159.7 126.8 159.7 125.3 159.1 124.2C158 122.2 155.5 121.5 153.5 122.6C152.9 123 152.5 123.3 152.1 124C152 124.1 151.9 124.2 151.9 124.5V124.6C151.8 125 151.7 125.2 151.7 125.6C151.1 128.2 151 131 148.1 131.8C147.7 131.8 147.4 131.8 147 131.9C145.4 131.7 144.4 130 143.9 127.6C143.9 127.4 143.8 127 143.8 126.7C143.7 126.5 143.6 126.2 143.4 126C142.3 124 139.8 123.3 137.8 124.4C135.8 125.5 135.1 128 136.2 130C136.7 130.7 137.3 131.4 138.1 131.7H138.2C138.3 131.7 138.4 131.8 138.7 131.8C139.7 132.3 141.8 133.4 140.9 135.9C140.8 136.1 140.5 136.5 140.4 136.8C139.2 138.4 136.9 135.8 135.2 134.7C135.2 134.7 135.2 134.7 135.1 134.7C133.9 133.8 132.3 133.7 130.9 134.5C128.9 135.6 128.2 138.1 129.3 140.1C130 141.3 131.2 142.1 132.5 142.2C136.3 143.8 138.4 139.1 140 142.7C141.6 146.4 135.9 145.7 134.6 146.8C132.6 147.9 131.9 150.4 133 152.4C134.1 154.4 136.6 155.1 138.6 154C139 153.8 139.2 153.5 139.5 153.3H139.6C141.5 151.9 142 147.2 144.7 148C144.8 148 144.9 148.1 145.1 148.1C147 149.1 144.1 153.1 144.2 155.4C144.2 156 144.3 156.8 144.7 157.4C145.8 159.4 148.3 160.1 150.3 159C151.7 158.3 152.5 156.8 152.4 155.2C152.4 154.6 152.2 154 151.9 153.5C151.5 152.8 150.9 152.3 150.3 151.9C149.1 150.4 148.2 149.3 150.1 148.4C150.2 148.4 150.2 148.4 150.3 148.3C151.4 147.9 152.4 147.4 153.3 146.7C157.5 148.1 162.8 149.8 165.3 150.2C169.3 150.9 173.6 146.2 177.9 133.5C178.4 138.6 179.8 144.9 182.4 152.8C189.1 173.6 200.1 175 196.9 203.3C188.4 196.6 186.1 189.9 181.6 185.5C178.4 182.5 174.2 180.4 166.1 189.2C163.3 192.3 159.9 195.4 156.9 197.9C153.9 196.9 151.7 198.8 150.8 196.5C149.9 194.1 151.4 192.3 149.8 189.8C149.8 189.8 149.8 189.7 149.7 189.7C149.6 189.7 149.7 189.7 149.7 189.6C149 188.5 147.7 187.9 146.4 187.9C144 187.9 142.2 189.8 142.2 192C142.2 193.2 142.7 194.2 143.4 195C145.4 197.4 148.5 198.5 147.5 201.7C147.3 202.1 147.1 202.3 147 202.7C146 204.1 144 204.1 141.6 203.2C141.4 203.1 141.1 203 140.7 202.8C140.5 202.7 140.1 202.7 139.8 202.7C137.4 202.7 135.6 204.6 135.6 206.8C135.6 209.2 137.5 211 139.7 211C140.6 211 141.4 210.8 142.2 210.3C143 209.8 142.2 210.3 142.3 210.2C142.4 210.1 142.5 210 142.7 210C143.6 209.4 145.7 208.1 147.4 210.2C147.5 210.4 147.8 210.8 147.9 211.1C148.6 213.1 145.3 213.7 143.4 214.6C143.4 214.6 143.4 214.6 143.3 214.6C141.9 215.2 140.9 216.6 140.9 218.3C140.9 220.7 142.6 222.5 145 222.6C146.5 222.6 147.7 222 148.5 220.9C152 218.4 148.9 214 152.8 214.5C156.9 215 153.3 219.7 153.7 221.4C153.7 223.8 155.4 225.6 157.8 225.7C160.2 225.7 162 224 162.1 221.6C162.1 221.2 162.1 220.9 162 220.4C162 220.4 162 220.4 162 220.3C161.8 217.9 157.9 215.1 159.9 213C160 212.9 160.1 212.9 160.1 212.8C162 211.7 163.7 217.1 166.5 217.8C167.1 218 167.7 218.3 168.4 218.3C170.8 218.3 172.6 216.6 172.7 214.2C172.7 212.1 171.2 210.4 169.2 210C165.7 209.1 162.6 211.9 162.8 208.5C162.8 208.4 162.8 208.4 162.9 208.3C163 207.6 163.1 206.8 163.1 206.2C167.9 203 172.6 199.1 173.6 199.4C176.7 200.1 176.4 207.9 180.2 216.9C183 223.8 189.4 227.2 192 228.3C186.3 248.8 175.8 267.4 150.7 279.7C113.7 297.8 70.5 280.9 41 240.3C24.8 216.9 14.5 196 7.59996 171.8C7.59996 171.8 2.89996 201.9 29.8 247.4C51.2 283.7 95.1 318.3 140.3 312C189.9 305.2 213.8 263.9 226.2 236.5C228.1 236.4 230.2 236.1 232.3 235.3C241.3 231.8 246.9 226.4 249.5 228.1C250.4 228.7 250.7 234.7 251.7 240.4C251.2 240.9 250.7 241.4 250.3 242C250.3 242.1 250.2 242.1 250.2 242.2C247.7 244.8 247.6 239.1 243.8 237.7C242.3 237.1 240.5 237.3 239.1 238.6C237.5 240.2 237.4 242.9 239 244.5C239.4 244.9 239.9 245.2 240.4 245.4C243.7 247.6 248.6 245 248.9 247.1V247.5V247.6C248.8 250.4 244.1 249.6 242.2 251.1C242.2 251.1 242.2 251.1 242.1 251.1C241.7 251.2 241.5 251.5 241.1 251.8C239.5 253.4 239.4 256.1 241 257.7C242.6 259.3 245.3 259.4 246.9 257.8C248.4 256.9 249.4 251.1 252.5 253.7C255.6 256.2 250.3 257 250.8 261.2C250.6 262.6 250.9 263.9 251.9 264.9C253.5 266.5 256.2 266.6 257.8 265C258.9 263.9 259.3 262.2 258.9 260.8C258.9 260.8 258.9 260.8 258.9 260.7C258.3 258.7 256.4 255.9 258.4 255C258.8 255 259 254.9 259.4 254.8C262 254.7 262.6 257 262.7 258.1V258.6V258.7C262.8 259.6 263.2 260.3 263.8 261.1C265.4 262.8 268.1 262.8 269.7 261.2C271.4 259.6 271.4 256.9 269.8 255.3C269.6 255.1 269.3 254.9 269.2 254.7C269 254.6 268.6 254.3 268.3 254.3C266.1 253.1 264.7 251.7 265 250.1C265.1 249.7 265.4 249.4 265.4 249C267.1 246 270 247.6 273.1 247.4C274.2 247.4 275.3 247 276.2 246.3C278.2 245 278.3 242.4 276.7 240.7V240.7ZM178.5 37.7C186 42.4 189.4 50.4 186.2 55.6C186.1 55.7 186 56 185.8 56.1C175.8 43.8 166 38.2 161.5 36C165.7 33.5 172.5 34 178.5 37.7V37.7ZM139.7 88C135.1 83.3 133.1 77.5 134.3 72.9C143.2 83.2 153.5 89.1 158.8 91.7C154.3 95.9 145.8 94.3 139.7 88Z" fill="black"/>
</svg>
