<svg width="320" height="320" viewBox="0 0 320 320" fill="none" xmlns="http://www.w3.org/2000/svg">
<path d="M231.3 143.3C191.7 104.2 171.8 106.7 171.8 106.7C171.8 106.7 170.9 103.3 168.4 100.6C170 94 176.7 71.6 197.3 52.5C221 30.6 227.2 28.2 222.7 25.9C218.3 23.6 174.8 53.1 165.9 98.7C164.6 98 163.1 97.5 161.2 97.5H160.6C158.7 97.5 157.2 98 155.9 98.7C147 53.1 103.5 23.5 99.1 25.9C94.7 28.3 100.9 30.6 124.5 52.5C145.1 71.5 151.8 94 153.4 100.6C150.8 103.3 150 106.7 150 106.7C150 106.7 130.2 104.2 90.5 143.3C50.9 182.4 21.3 225 22.5 236.2C23.7 247.4 40.4 248 40.4 248C40.4 248 47.1 254.3 60.5 255.5C73.9 256.7 84.2 248.8 84.2 248.8C84.2 248.8 93.3 253.1 108.7 253.9C124.1 254.7 126.8 249.2 126.8 249.2C126.8 249.2 135.5 252.7 141.4 249.6C145.4 247.5 146.9 220.2 148.1 202.9C148.7 194.8 149.9 195 150.4 202.9C151.2 216.3 153.6 234.6 160.6 234.6H161.2C168.2 234.6 170.6 216.6 171.4 203.2C171.9 195.2 173.2 194.8 173.8 203.1C175 220.4 176.4 247.5 180.4 249.6C186.3 252.8 195 249.2 195 249.2C195 249.2 197.8 254.7 213.1 253.9C228.5 253.1 237.6 248.8 237.6 248.8C237.6 248.8 247.9 256.7 261.3 255.5C274.7 254.3 281.4 248 281.4 248C281.4 248 298.2 247.4 299.3 236.2C300.5 225 270.9 182.4 231.3 143.3V143.3Z" fill="black"/>
</svg>
