<svg width="320" height="320" viewBox="0 0 320 320" fill="none" xmlns="http://www.w3.org/2000/svg">
<path d="M313 167.4C307.8 131.3 289.6 117 289.6 117C300.5 144 310 223.1 261.4 223.1C212.8 223.1 209.5 167.1 217.8 159.5C226.1 151.9 224.2 138.8 224.2 138.8C238.5 141.8 246.1 135 255 134.3C264 133.5 274.4 142.6 274.4 142.6C279.5 107.6 257.5 56.9001 243.4 54.6001C229.3 52.3001 218.5 68.2001 214.1 63.1001C209.6 58.0001 216.4 31.5001 201.2 25.8001C186 20.1001 176.3 25.8001 160.6 25.8001H159.8C144 25.8001 134.4 20.2001 119.2 25.8001C104 31.4001 110.7 58.0001 106.3 63.1001C101.8 68.2001 91.1 52.3001 77 54.6001C62.9 56.9001 40.7 107.6 45.9 142.5C45.9 142.5 56.2 133.5 65.3 134.2C74.3 135 81.9 141.7 96.1 138.7C96.1 138.7 94.3 151.8 102.5 159.4C110.8 166.9 107.3 223 58.9 223C10.5 223 19.8 144 30.7 116.9C30.7 116.9 12.5 131.2 7.29996 167.3C2.09996 203.4 16.7 241.1 44.9 248.1C78.9 256.7 110 240.7 126.1 216.2C126.1 216.2 123.7 248.3 132.3 269.3C143.2 295.8 160.1 298.5 179.8 296C202.6 293.1 212.2 269 214.5 261.2C216.8 253.4 211.2 250.6 208.3 249.9C205.5 249.1 203 251.2 200.8 257.4C198.5 263.6 191.9 273.5 183 271.8C171.2 269.6 177.7 248.7 183.2 239.6C191.8 225.3 193.8 213.1 193.8 213.1C210 237.6 241.4 256.6 275.5 248C303.6 241.2 318.1 203.5 313 167.4V167.4ZM126.5 128C115.9 132.7 106.7 116 111.8 111.6C122 102.9 130.3 126.4 126.5 128ZM193.7 128C189.9 126.3 198.2 102.9 208.4 111.6C213.5 116.2 204.3 132.8 193.7 128Z" fill="black"/>
</svg>
