<svg width="320" height="320" viewBox="0 0 320 320" fill="none" xmlns="http://www.w3.org/2000/svg">
<path d="M208 88C205 86 200.7 83.5 195.2 81.2C183.1 76.1 172.9 75.5 165 75C165 75 141 73.7 124.5 81.2C124.4 81.2 124.2 81.3 124 81.4C121.5 82.5 112 86.8 111 87C107.1 85.4 74.2 59.1 71 57C58.5 48.8 52.2 44.6 48 47C45.9 48.2 44.7 51 44 65C43.2 81.2 44 92 44 92C44 92 46.9 131.7 55 145C58.4 150.5 63.1 153.3 63.1 153.3C64.9 154.7 66.5 155.7 67.7 156.4C67.2 158.4 66.6 160.4 66.2 162.5C65.6 165.2 65.1 167.7 64.7 170.2C63.8 174.9 63.4 181.7 66.2 188.6C68.6 194.4 72.3 197.8 73.9 199.3C79.8 205.2 91.7 221.7 115.4 254.6C125.4 268.5 127.5 272.2 129.2 277.6C131.3 284.4 131.2 288.6 135.3 294.5C136.8 296.6 141 302.4 149.1 305.2C157.6 308.2 165 306.1 167.5 305.2C175.8 302.4 180.2 296.4 182.9 292.9C186.4 288.2 187 285.4 190.6 277.5C192.7 273.1 196.2 265.9 201.3 257.5C206.7 248.7 212.8 240.4 238.1 209.9C245.4 201.1 256.4 187.9 256.5 177.7C256.6 170.1 255 162.3 255 162.3C254.5 159.8 253.9 157.6 253.5 156.2C255.1 155.4 257.4 154 259.6 151.6C262.2 148.8 263.5 145.8 264.2 143.9C275 115.6 277 80 277 80C277 56.3 277.2 51.6 274 50C269.7 47.8 262.9 51.9 253 58C245.2 62.8 229.4 74.4 219 81C214.3 83.9 210.5 86.4 208 88V88ZM129.2 191.7C127.9 193.6 125.8 194.4 124.6 194.8C114.7 198.2 103.9 189.3 103.1 188.7C101.4 187.2 97.4 183.8 95.4 178C94.6 175.5 92.9 170.6 95.4 167.3C97.1 165.1 99.9 164.7 103.1 164.2C106.5 163.7 113.3 162.8 120 167.3C126.3 171.5 128.2 177.6 129.2 181.1C130.1 184.1 131.4 188.4 129.2 191.7V191.7ZM178.3 271.5C177.9 273.1 176.8 274.5 176.8 274.6C176.1 275.5 175.4 276 175.3 276.1C173.9 277.2 173.1 277 172.2 277.6C171.1 278.5 171.5 279.7 170.7 282.2C169.6 285.5 169.1 287.2 167.6 288.3C166.2 289.4 164.6 289.5 161.5 289.8C160 289.9 158.4 289.9 156.9 289.8C153.7 289.5 152.1 289.3 150.8 288.3C149.3 287.1 148.7 285.3 147.7 282.2C146.9 279.7 147.3 278.5 146.2 277.6C145.3 276.9 144.6 277.1 143.1 276.1C142.9 276 142.3 275.4 141.6 274.6C140.8 273.5 140.3 272.3 140.1 271.5C139.4 268.8 141 266.3 141.6 265.4C143.9 261.7 147.8 260.3 150.8 259.3C151.8 258.9 155.3 257.8 160 257.8C162.4 257.8 165.5 257.8 169.2 259.3C170.9 260 174.6 261.6 176.9 265.4C177.5 266.6 178.9 269 178.3 271.5ZM224.8 177.9C222.9 183.8 219 187.2 217.3 188.6C216.5 189.3 206 198.1 196.3 194.7C195.1 194.3 193.1 193.6 191.8 191.6C189.6 188.3 190.9 184 191.8 180.9C192.8 177.4 194.6 171.3 200.8 167.1C207.3 162.7 214 163.6 217.3 164C220.4 164.4 223.2 164.8 224.8 167.1C227.2 170.4 225.6 175.4 224.8 177.9Z" fill="black"/>
</svg>
