<svg width="320" height="320" viewBox="0 0 320 320" fill="none" xmlns="http://www.w3.org/2000/svg">
<path d="M84.7001 35.1C87.9001 37.7 90.6001 37.5 95.2001 38.9C97.7001 39.6 106.8 42.3 114 48.7C117.4 51.7 118.9 54.4 120.3 56.2C114.7 62.5 110.7 69.7 109.5 75.8C109.3 76.8 108.8 79.5 107.6 82.9C126.5 77.4 142.5 75.5 153.9 74.9C165.8 74.3 174.5 74.9 176.5 75.1C192.4 76.3 205.8 79.7 215.7 83.1C214.7 80.1 214.3 77.9 214 76.5C212.5 69.9 208.7 62.9 203.6 56.9C205.1 55 206.4 52.1 210.2 48.7C217.1 42.3 225.9 39.6 228.3 38.9C232.8 37.5 235.4 37.8 238.4 35.1C240.9 32.9 243.9 28.8 242.7 26.1C241.2 22.5 233.6 22.9 230.4 23.1C223.7 23.5 218.7 25.9 215.2 27.6C213.8 28.3 207.5 31.5 200.7 38.1C197.4 41.3 194.9 44.5 193 47.1C179.4 37.5 165.1 37.2 160.4 37.3C155.8 37.4 143.3 38.2 131 46.4C129.1 43.9 126.7 41 123.5 38C116.5 31.4 109.9 28.1 108.5 27.5C104.9 25.8 99.7001 23.4 92.7001 23C89.4001 22.8 81.4001 22.4 79.9001 26C79.0001 28.9 82.1001 33 84.7001 35.1V35.1Z" fill="black"/>
<path d="M312.4 148C311.6 145.6 308.5 144.7 306.6 144.2C303.4 143.4 300.3 143.4 292.8 145C290 145.6 274.5 148.9 271.8 152.5C271.6 152.8 270.7 154 269.6 154C268.9 154 268.3 153.4 268.2 153.2C266.3 151.3 259.7 153 255.9 154C250.8 155.3 248 156.1 246.3 156.8C244.1 142.3 238.4 126.5 232.9 114.7C235.2 113.7 238 112.2 241.4 110.4C244.5 108.8 251.9 104.9 257.3 99.9C257.9 99.3 260 97.4 263.1 94.6C265.5 92.5 267 91.2 267.4 90.8C274.6 84.6 277.6 70.3 279 63.7C280.1 58.4 280.5 54.2 278.3 51.7C277.8 51.1 277.1 50.4 276.1 50.2C270.8 49.1 263.3 65 261 72C258.6 79.4 257.4 83 257.4 83.3C257.4 83.6 257.3 84.6 256.7 85.6C256 86.6 254.9 87 254.5 87.1C250.3 88.6 246.8 91.6 242.9 93.9C238.8 96.2 239.3 96.3 235.7 98.4C233.3 99.8 230.3 101.4 226.8 103C226.1 101.8 225.4 100.8 224.7 99.9C224.1 99.1 222.7 97.3 221.1 94.7C208.9 90.2 193.4 86.1 175 85C174 84.9 170.9 84.8 166.5 84.7C165.7 86.3 164.9 87.9 164 89.5C165.7 146.4 167.4 203.2 169.1 260.1C173 259.8 183 258.9 191.5 256.4C200.5 253.8 212.5 247.2 223.2 236.5C226.4 240.5 229.2 243.8 233.5 247.4C235.1 248.7 235 248.5 236.4 249.7C245.8 257.4 245.1 262.2 251.6 267C251.6 267 259.3 272.7 269.7 270.8C273.3 270.2 273.9 269.1 274 268.5C274.1 268 274.5 266.2 266.8 259.5C263.6 256.7 263.2 256.7 260.3 254.2C254 248.9 250.9 246.2 248.7 242.2C246.8 238.6 246.2 235.3 243.6 234.7C242.3 234.4 241.6 235 240 234.7C237.3 234.1 235.7 231.5 234.9 230.2C234.2 229.1 233.3 227.6 232.2 226.1C235.3 221.9 238 217.2 240.4 212.2C247.6 196.7 248.5 182 247.9 171C253.3 169.4 258.8 167.2 262.4 166.4C265.2 165.7 268 165.7 268.2 165.6H269.6C274.5 165.7 284.1 162.6 284.1 162.6C292.2 159.9 296.8 158.5 302.9 157.3C305.5 156.8 308.8 156.3 310.9 153.5C311.4 152.7 313.2 150.3 312.4 148V148ZM179 99.8C182.7 96.6 187.9 96.1 192.1 97.5C197 99.1 201 103.5 201.4 108.8C201.8 114.4 197.9 118.2 196.8 119.3C195.4 120.7 191.9 124.2 186.8 123.8C181.2 123.4 178.1 118.6 177.5 117.8C174.2 112.9 173.5 104.5 179 99.8ZM188.2 193.9C187.4 194.1 186 194.3 184.3 193.9C180.7 193 179 189.5 178.1 187.9C176.1 184 176.4 180.3 176.6 178.1C176.8 175.6 177.2 171.3 180.5 167.6C181.6 166.4 184.1 163.5 188.2 163.1C188.4 163.1 192.6 162.7 195.9 165.4C202 170.3 200.9 182.3 195.9 188.7C195 189.7 192.5 193 188.2 193.9ZM217.5 221.7C217.1 224.9 216.3 230 212.1 233.7C208.1 237.3 200.6 239.9 196.7 236.7C193.5 234.1 194.1 228.9 194.4 226.2C195.3 218.5 200.7 213.8 202.9 211.9C205.4 209.7 207.7 207.8 210.6 208.1C214.4 208.6 216.4 212.7 216.8 213.4C218.2 216.4 217.9 219.2 217.5 221.7V221.7ZM231.4 151C229.4 153 226.1 154.4 222.9 154C217.6 153.4 214.8 148.4 212.9 145C211.1 141.9 207 134.5 210.6 128.4C210.8 128.1 213.5 123.7 218.3 123.1C225.7 122.2 230.9 131.2 231.4 132.1C234.3 137.2 236.3 146.1 231.4 151V151Z" fill="black"/>
<path d="M101.4 95C101.3 95.1 101.2 95.2001 101.2 95.3001C100 97.0001 98.4001 99.6001 96.7001 102.8C93.1001 101.2 90.1001 99.7001 87.7001 98.3001C84.0001 96.2001 84.4001 96.1001 80.2001 93.8001C76.2001 91.6001 72.5001 88.5 68.2001 87C67.8001 86.9 66.7001 86.5 65.9001 85.5C65.2001 84.6 65.2001 83.5 65.1001 83.2C65.1001 83 63.8001 79.3 61.3001 71.9C59.0001 65 51.2001 49.1 45.6001 50.2C44.5001 50.4 43.9001 51.1 43.3001 51.7C40.9001 54.3 41.4001 58.4 42.5001 63.7C43.9001 70.3 47.1001 84.6001 54.5001 90.8001C55.0001 91.2001 56.6001 92.5 59.0001 94.6C62.2001 97.3 64.4001 99.3001 65.0001 99.9001C70.7001 105 78.4001 108.8 81.6001 110.4C85.3001 112.2 88.2001 113.7 90.7001 114.8C85.7001 125.6 80.5001 138.7 77.9001 150.3C77.5001 152.1 77.0001 154.3 76.5001 156.8C74.8001 156.1 71.9001 155.4 66.6001 154.1C62.7001 153.1 55.8001 151.5 53.8001 153.3C53.6001 153.5 53.1001 154 52.3001 154.1C51.1001 154.1 50.3001 152.9 50.0001 152.6C47.2001 148.9 31.1001 145.7 28.2001 145.1C20.5001 143.5 17.2001 143.5 13.9001 144.3C11.9001 144.8 8.70006 145.6 7.90006 148.1C7.10006 150.4 8.90006 152.8 9.40006 153.4C11.5001 156.1 14.9001 156.7 17.7001 157.2C24.0001 158.4 28.8001 159.8 37.3001 162.5C37.3001 162.5 47.3001 165.6 52.3001 165.5H53.8001C54.0001 165.5 56.9001 165.6 59.8001 166.3C63.4001 167.1 69.1001 169.2 74.6001 170.9C73.9001 180.8 74.7001 192.7 79.4001 205.5C79.8001 206.7 83.4001 215.9 91.1001 226.4C90.0001 227.9 89.1001 229.3 88.5001 230.3C87.7001 231.6 86.0001 234.2 83.2001 234.8C81.5001 235.1 80.8001 234.5 79.4001 234.8C76.7001 235.4 76.1001 238.7 74.1001 242.3C71.9001 246.4 68.6001 249 62.1001 254.3C59.1001 256.7 58.7001 256.7 55.3001 259.6C47.3001 266.4 47.6001 268.1 47.8001 268.6C48.0001 269.1 48.6001 270.2 52.3001 270.9C63.1001 272.8 71.1001 267.1 71.1001 267.1C77.9001 262.3 77.1001 257.5 86.9001 249.8C88.4001 248.6 88.3001 248.8 89.9001 247.5C94.2001 244.1 97.1001 240.9 100.3 237C106 242.7 113 248 121.5 252C136.6 259.1 152.8 260.1 155.4 260.3H155.7C156 203.4 156.2 146.4 156.5 89.5C155.8 88 155.1 86.6 154.4 85.1C141.1 85.6 122.9 88 101.4 95V95ZM99.7001 154C96.6001 154.4 93.4001 153 91.4001 151C86.6001 146.1 88.6001 137.2 91.4001 132.2C91.9001 131.3 97.0001 122.3 104.2 123.2C108.9 123.8 111.5 128.1 111.7 128.5C115.2 134.6 111.2 141.9 109.4 145.1C107.6 148.4 104.9 153.4 99.7001 154ZM125.3 236.8C121.5 240 114.2 237.4 110.3 233.8C106.2 230 105.5 224.9 105 221.8C104.7 219.3 104.3 216.5 105.8 213.5C106.1 212.8 108.1 208.7 111.8 208.2C114.6 207.8 116.9 209.8 119.3 212C121.5 213.9 126.7 218.6 127.6 226.3C127.9 229 128.4 234.2 125.3 236.8ZM143.4 187.9C142.6 189.6 140.9 193 137.4 193.9C135.8 194.3 134.4 194.1 133.6 193.9C129.4 193 126.9 189.8 126.1 188.6C121.2 182.2 120.1 170.2 126.1 165.3C129.3 162.7 133.4 163 133.6 163C137.6 163.4 140.1 166.3 141.1 167.5C144.3 171.2 144.7 175.5 144.9 178C145 180.3 145.3 183.9 143.4 187.9V187.9ZM143.4 118.7C142.9 119.5 139.8 124.3 134.4 124.7C129.4 125.1 126 121.6 124.6 120.2C123.5 119 119.7 115.2 120.1 109.7C120.5 104.5 124.4 100.1 129.1 98.4001C133.2 97.0001 138.3 97.5 141.9 100.7C147.2 105.3 146.5 113.7 143.4 118.7V118.7Z" fill="black"/>
</svg>
