<svg width="320" height="320" viewBox="0 0 320 320" fill="none" xmlns="http://www.w3.org/2000/svg">
<path d="M141.3 14.7C102.3 15.6 73.3999 36 64.0999 56.8C57.3999 57.2 41.4999 59.5 28.1999 71C16.1999 81.2 17.5999 102.5 21.4999 113.1C23.2999 105.1 26.7999 99.4 30.7999 98.5C39.1999 96.3 78.2999 97.6 92.3999 106C125.2 126.4 134.1 144.1 141.2 162.3C136.8 175.2 105.7 227.1 111.9 312.6C127.4 256.3 175.3 195.1 230.3 173.3C217 183.9 182 215.9 165.1 264.2C205.9 213.2 266.7 185.7 319 174.6C312.5 90 219.8 12.4 141.3 14.7V14.7ZM114.3 83.8C105.9 86.9 95.1999 84.7 93.4999 74C92.5999 68.7 96.1999 62 101.5 57.1C104.2 54.4 107.3 51.8 109.9 51.3C117.9 50.4 124.1 55.7 125 62.8C127.1 74.5 120.9 81.2 114.3 83.8V83.8Z" fill="black"/>
</svg>
