<svg width="320" height="320" viewBox="0 0 320 320" fill="none" xmlns="http://www.w3.org/2000/svg">
<path d="M220 217.9C218.3 207.7 214.1 169.6 213.8 168.1C213.4 166.3 212.5 164.7 210.9 163.8C206.3 160.8 199 155.4 191.9 150C200.4 152.9 210.1 155.1 219.6 155.1C224.9 155.1 231.8 154.7 236.5 153.7C261.5 148 271.5 136.9 273.3 128.6C275 120.9 272.3 115.7 267.7 111.1C263.3 106.9 253.4 104.2 212 113.1C194.6 116.8 180.6 122.7 173.8 125.4C173.8 125.2 173.8 124.9 173.8 124.8C174.3 124.6 174.6 124.4 175.1 124.1C179.8 120.7 203.5 104 207.2 100.6C208.4 99.5 209.1 98.1 209.4 96.5C210.8 85.6 214.3 63.6 216 57.3C216 57.3 245.1 23.8 244.1 23.5C238.5 22.1 209.3 53.6 209.3 53.6C208.6 54.3 208 55.2 207.7 56.1C205.5 62.3 202.9 88 201.7 96.6C197 100.2 183.7 107.4 174.3 113.5C174.2 108.8 169.4 105.2 169.4 105.2C169.4 105.2 175.3 102 176.5 98C177.7 94.2 174 84 163.3 83.3C162.2 76.8 163.5 30.8 163.5 23.5C163.5 15.7 162.4 12.4 160.9 12.4H160.5C158.9 12.4 157.9 15.8 157.9 23.5C157.9 30.8 159.3 76.8 158.1 83.3C147.4 84 143.7 94.2 144.9 98C146.1 102 152 105.2 152 105.2C152 105.2 147.1 108.8 147.1 113.6V113.8C137.6 107.6 123.9 100.1 119.1 96.6C117.9 88 115.3 62.5 113.1 56.1C112.7 55.1 112.3 54.3 111.5 53.6C111.5 53.6 82.2999 22.1 76.6999 23.5C75.6999 23.7 104.8 57.3 104.8 57.3C106.5 63.5 109.9 85.6 111.4 96.5C111.6 98.1 112.4 99.5 113.6 100.6C117.3 103.8 141 120.7 145.7 124.1C146.3 124.6 147 124.8 147.6 125.1V125.9C141 123.3 126.8 116.9 108.7 113.1C67.2999 104.1 57.3999 106.9 52.9999 111.1C48.1999 115.7 45.5999 120.9 47.3999 128.6C48.9999 137 58.9999 147.9 83.9999 153.7C88.6999 154.8 95.5999 155.1 100.9 155.1C110.1 155.1 119.3 153.2 127.5 150.8C120.7 155.9 113.8 161 109.5 163.7C107.9 164.7 107 166.2 106.6 168C106.4 169.7 102 207.6 100.4 217.8C79.0999 234.2 43.8999 253.1 43.8999 256C43.8999 259 68.6999 250.4 107.3 223.5C108.4 222.8 108.7 221.3 108.9 220C109.6 215.3 114 181.1 115.7 171.5C123.1 166.1 134.9 155.9 142.9 148.7C135.4 165.1 127.3 181.6 125.5 184C124.5 185.2 124.1 186.8 124.2 188.3C124.2 188.3 126.1 224.8 127 241C113.7 269.6 86.0999 301.5 86.0999 301.5C87.2999 303.8 111.5 291.8 137 246.8C137.5 245.8 137.6 244.8 137.6 243.8C136.9 230.7 133.9 195.8 133.4 187.5C137.4 180.8 146.3 164.5 151.7 154C151.2 164.1 149.9 189.4 149.7 198.1C149.5 208.9 152.2 219.7 159.2 219.7H162C168.9 219.7 171.8 208.9 171.5 198.1C171.3 189.8 170.2 166.2 169.6 155.5C175.1 166 183.5 181.2 187.2 187.7C186.7 196 183.7 230.8 183 244C183 245.1 183 246.2 183.6 247C209.2 292 233.2 303.8 234.4 301.6C234.4 301.6 206.8 269.8 193.5 241.1C194.3 224.9 196.3 188.4 196.3 188.4C196.4 186.8 195.9 185.3 195 184.1C193.2 181.7 185.2 165.2 177.6 148.8C185.6 156 197.4 166.2 204.8 171.6C206.5 181.2 211 215.4 211.6 220.1C211.8 221.4 212.2 222.9 213.2 223.6C251.9 250.3 276.6 258.9 276.6 256.1C276.5 253.3 241.3 234.3 220 217.9V217.9ZM211.5 120.9C228.5 117.2 258.6 111.3 264.4 119.5C272.5 131 248.2 142.6 238.9 144.9C218.4 149.8 186.3 141.3 173.2 134.5C173.2 134.4 173.2 134.4 173.2 134.3C183.1 131.2 199.2 123.7 211.5 120.9ZM79.4999 143.8C69.9999 141.9 49.9999 128.6 55.8999 120.9C63.6999 110.7 92.1999 117.2 109.2 120.9C121.7 123.7 137.3 131.3 147.4 134.3C134.5 141.2 106.9 149.3 79.4999 143.8V143.8Z" fill="black"/>
</svg>
