<svg width="320" height="320" viewBox="0 0 320 320" fill="none" xmlns="http://www.w3.org/2000/svg">
<path d="M313.6 131.9C313 98.9999 297.4 77.7999 285.4 66.3999C277.9 59.2999 275.5 60.5999 279 69.6999C282.3 78.6999 285.4 91.9999 284.2 109.2C281.9 143.4 267.1 160.7 241.3 155.5C246.5 149.3 252.8 139.6 255.8 125.5C257.3 118.8 255.6 116.4 250.3 121.2C239.6 131.1 218.3 146.3 204.2 137.6C204.2 137.6 204.1 137.6 204.1 137.5C204 137.4 203.7 137.3 203.6 137.1C162.5 107.8 141.2 69.4999 121.6 52.0999C129.5 50.6999 139.6 46.8999 146.4 36.5999C152.8 26.6999 153.9 18.5999 153.4 13.0999C153 8.0999 150.1 7.8999 145.4 11.5999C136.3 18.6999 120.9 24.2999 109.1 27.3999C101.8 29.3999 97.2 33.6999 94.2 37.5999C94 37.9999 93.7 38.2999 93.5 38.6999C91.3 41.4999 84.4 45.5999 77.2 47.1999C51.6 53.3999 37.4 58.1999 37.4 58.1999C37.4 58.1999 1.7 100.4 1.7 163.7C1.7 215.4 33.4 253.3 33.4 253.3L59.9 239.9C62.6 241.7 76 254.2 109.3 263.5C142.6 272.9 160.2 270.9 172.2 273.7C184.3 276.5 201.5 282.7 220.6 287.4C243.1 292.9 254.2 279.9 259.5 275.3C261.3 273.7 263.6 273 265.5 272.6C269.1 272 273.1 272.8 277.7 267.4C284.6 259.5 288.9 249.9 290.3 238.3C291.8 225.6 293.9 213.4 299.8 201.2C306.1 188.5 314.2 163.8 313.6 131.9V131.9ZM169.8 178.5C167.6 184.8 158.1 186.5 149.8 184C138 180.4 134.3 172.5 132.9 166.8C132.2 163.6 134.1 159.8 137.7 159.8C142.1 159.7 148.8 160.4 156.5 163.7C164 167 171.6 173.4 169.8 178.5V178.5Z" fill="black"/>
</svg>
