<svg width="320" height="320" viewBox="0 0 320 320" fill="none" xmlns="http://www.w3.org/2000/svg">
<path d="M58.304 134.25C44.563 128.168 36.724 117.93 33.16 104.207C31.142 96.4361 32.301 89.0881 36.065 82.1241C41.036 72.9271 50.114 67.8101 60.332 69.9111C67.41 71.3671 74.376 74.1951 80.867 77.4561C88.102 81.0921 94.947 85.6221 101.57 90.3171C106.17 93.5781 109.944 93.9741 115.202 91.4011C133.207 82.5901 152.058 76.0791 172.152 74.1211C183.117 73.0531 194.143 72.3361 205.155 72.1021C227.023 71.6391 248.589 69.0061 269.932 64.3261C271.98 63.8771 274.067 63.5841 276.146 63.2961C285.181 62.0451 290.944 66.2701 291.909 75.3431C292.291 78.9411 292.058 82.7291 291.383 86.2941C286.75 110.772 275.545 131.662 257.235 148.747C235.426 169.097 210.681 184.48 182.379 194.068C178.657 195.329 175.079 197.006 171.405 198.414C129.101 214.618 114.303 275.128 142.772 309.845C143.564 310.81 144.152 311.942 145.132 313.452C120.75 314.257 102.023 308.282 91.409 301.849C65.039 285.865 43.202 265.673 31.429 236.23C21.621 211.703 23.297 187.804 35.775 164.89C40.497 156.219 47.162 148.599 53.014 140.554C54.514 138.493 56.29 136.634 58.304 134.25V134.25ZM168.795 126.895C177.014 126.83 183.973 119.545 183.924 111.056C183.877 102.993 176.972 96.3711 168.673 96.4281C160.823 96.4831 154.162 103.49 154.047 111.817C153.932 120.1 160.642 126.959 168.795 126.895V126.895Z" fill="black"/>
</svg>
