<svg width="320" height="320" viewBox="0 0 320 320" fill="none" xmlns="http://www.w3.org/2000/svg">
<path d="M252.1 202.9C250 169.4 215 90.2001 214.2 88.0001C212.5 82.9001 212.6 78.0001 216.1 75.4001C219.8 72.8001 228.6 75.9001 238 57.6001C246.4 41.5001 245 17.1001 239.8 14.6001C234.6 12.1001 222.7 16.9001 208.7 26.9001C190.4 40.0001 193.1 51.5001 191.1 56.1001C188.7 61.6001 183.5 62.4001 177.9 61.2001C173.6 60.3001 165.8 59.1001 160.4 59.1001H159.6C154.2 59.1001 146.4 60.3001 142.1 61.2001C136.5 62.4001 131.3 61.6001 128.9 56.1001C126.9 51.5001 129.6 40.0001 111.3 26.9001C97.3001 17.0001 85.5001 12.2001 80.2001 14.6001C75.0001 17.1001 73.6001 41.4001 82.0001 57.6001C91.5001 75.9001 100.3 72.7001 103.9 75.4001C107.4 77.9001 108.6 81.4001 105.8 88.0001C103.8 92.7001 70.1001 169.4 67.9001 203C65.6001 238.4 108.9 247.1 119 259.4C131.3 274.4 131.4 305 159.6 305H160.4C188.6 305 188.6 274.4 201 259.4C211.2 247 254.4 238.4 252.1 202.9V202.9ZM117.1 203.9C101.5 200.4 92.0001 180.7 100.8 174.9C108.9 169.6 115.3 173.8 119.2 182C123.1 190.1 132.6 207.4 117.1 203.9ZM203 203.9C187.5 207.4 197 190.1 200.9 182C204.8 173.9 211.1 169.6 219.3 174.9C228.1 180.7 218.5 200.4 203 203.9Z" fill="black"/>
</svg>
