<svg width="320" height="320" viewBox="0 0 320 320" fill="none" xmlns="http://www.w3.org/2000/svg">
<path d="M247.3 132.4C249.3 129.8 252.2 125.7 254.9 120.2C266.1 97.8001 263.1 76.4001 261 62.4001C258.9 49.0001 256.1 30.1 245.8 27.4C242.2 26.4 239.1 27.9 233.6 30.4C230.6 31.8 222.1 36.2001 207.8 54.7001C205 58.3001 201.2 63.5001 197.2 69.9001C194 68.5001 189.3 66.6001 183.5 65.3001C176.7 63.8001 171.2 63.8 160.7 63.8C152.1 63.8 145.4 63.9001 136.4 65.3001C130.7 66.2001 126 67.4001 122.7 68.3001C120.5 65.6001 115.5 59.5 109 51.6C99.7999 40.5 95.0999 34.8 87.6999 30.3C82.0999 26.9 79.0999 25.1001 75.4999 25.7001C64.7999 27.6001 60.6999 49.3 58.7999 59.1C56.6999 70 52.0999 96.2001 66.3999 121.4C68.6999 125.4 70.8999 128.5 72.4999 130.5C66.2999 140.8 57.9999 158.5 58.7999 180.7C59.0999 188.5 59.8999 212.9 73.9999 220.2C78.3999 222.5 79.0999 220.5 86.1999 223.2C96.4999 227.2 102.8 234.3 110.5 243C113.3 246.2 117.1 250.7 121.1 256.7C120.8 260.8 121 267.5 124.1 274.9C125.6 278.4 129.1 286.5 137.8 291.6C143.6 295.1 149 295.6 154.5 296.2C159.6 296.7 166.4 297.4 174.3 294.7C176.9 293.8 189.5 289.5 195.6 276.5C198.8 269.6 198.9 263.2 198.6 259.8C199.8 257.2 201.8 253.4 204.7 249.2C213.4 236.6 224.3 229.7 230.5 226.4C240 221.4 240.4 223.9 245.7 220.3C262.6 209.1 262.5 181.6 262.4 176.2C262.1 156.1 253.1 140.6 247.3 132.4V132.4ZM136.3 176.5C136.1 178.8 135.2 180.4 134.8 181.1C132.1 185.6 126.7 186.7 124.2 187.2C120.6 187.9 117.4 187.6 116.1 187.4C116.1 187.4 115.5 187.3 115.1 187.2C110.9 186.4 105.6 183.2 101.4 178.1C98.8999 175.1 97.6999 172.5 96.7999 170.5C95.8999 168.5 95.2999 166.7 95.2999 164.4C95.2999 163.3 95.2999 160.8 96.7999 158.3C98.3999 155.7 100.8 154.6 102.9 153.7C106.7 152 110.3 152 112 152.2C116.1 152.5 119 154.1 121.1 155.2C128 159 131.4 164.4 133.3 167.4C136.2 171.8 136.5 174.5 136.3 176.5ZM172.8 270.8C169.4 276.2 167.6 278.9 164.3 279.9C161.7 280.7 159.4 280.1 158.5 279.9C154 278.7 151.6 275.3 148.5 270.8C145.8 266.8 143.9 264.1 143.9 260.2C143.9 259.1 143.9 256.6 145.4 254.1C148.3 249.4 154.2 248.5 157 248C159.5 247.6 162.1 247.8 162.1 247.8C162.8 247.8 163.5 247.9 164.2 248C167.3 248.5 173.1 249.4 175.8 254.1C177.2 256.6 177.3 259 177.3 260.2C177.4 263.6 175.8 266 172.8 270.8V270.8ZM226 164.4C226 166.7 225.4 168.4 224.5 170.5C223.6 172.5 222.4 175.1 219.9 178.1C215.7 183.2 210.4 186.4 206.2 187.2C205.7 187.3 205.2 187.4 205.2 187.4C204 187.6 200.7 188 197.1 187.2C194.6 186.7 189.2 185.6 186.5 181.1C186.1 180.4 185.2 178.8 185 176.5C184.8 174.4 185.2 171.8 188 167.4C189.9 164.5 193.2 159 200.1 155.2C202.3 154 205.1 152.5 209.2 152.2C211 152.1 214.5 152 218.3 153.7C220.4 154.6 222.8 155.7 224.4 158.3C226 160.7 226 163.3 226 164.4Z" fill="black"/>
</svg>
