<svg width="320" height="320" viewBox="0 0 320 320" fill="none" xmlns="http://www.w3.org/2000/svg">
<path d="M63.31 182.331C60.951 181.657 58.789 181.069 56.645 180.423C44.037 176.627 34.538 168.966 28.354 157.338C23.347 147.922 20.197 137.963 19.682 127.204C18.853 109.892 20.797 92.95 26.677 76.629C28.67 71.098 31.313 65.66 34.519 60.74C39.378 53.284 46.12 52.274 53.103 57.613C56.201 59.982 59.082 62.888 61.32 66.072C65.096 71.445 68.34 77.199 71.694 82.86C73.875 86.541 75.701 90.438 77.985 94.05C79.146 95.887 80.968 97.306 82.499 98.923C83.777 98.14 84.763 97.783 85.41 97.102C98.214 83.644 114.648 76.879 132.208 73.1C157.561 67.644 182.656 69.212 206.915 79.062C216.761 83.06 225.853 88.308 233.359 96.005C234.263 96.932 235.316 97.712 236.798 98.99C238.296 97.726 240.084 96.796 241.014 95.323C243.645 91.154 245.785 86.676 248.374 82.478C252.343 76.043 256.228 69.517 260.742 63.473C263.032 60.407 266.36 57.878 269.683 55.878C274.34 53.074 279.472 54.017 283.17 58C285.158 60.141 286.771 62.709 288.191 65.284C293.17 74.315 296.141 84.05 297.905 94.181C300.002 106.227 301.295 118.275 299.952 130.555C298.819 140.92 295.559 150.505 290.374 159.404C284.512 169.464 275.853 176.304 264.743 179.924C262.246 180.737 259.688 181.364 256.534 182.252C256.534 184.369 256.515 186.598 256.537 188.827C256.811 216.237 246.519 238.108 222.905 252.996C220.397 254.577 217.906 256.188 215.362 257.708C210.771 260.45 206.781 263.809 203.907 268.392C203.208 269.506 202.374 270.535 201.597 271.599C195.847 279.469 188.506 282.795 178.488 281.413C166.065 279.699 153.45 279.757 141.011 281.444C131.432 282.743 123.845 279.872 118.795 271.985C113.415 263.584 105.748 258.241 97.504 253.294C80.519 243.102 69.695 228.292 65.366 208.989C64.081 203.259 63.861 197.277 63.355 191.393C63.103 188.48 63.31 185.526 63.31 182.331V182.331ZM160.247 269.708C166.628 269.961 174.184 270.489 181.74 270.499C189.533 270.509 193.158 267.629 194.876 259.927C197.472 248.294 194.621 237.586 187.363 228.419C182.265 221.979 177.086 215.754 172.828 208.621C166.605 198.196 153.181 198.329 146.92 208.805C142.834 215.642 138.085 221.776 132.988 227.825C125.374 236.861 122.798 247.619 124.872 259.204C126.356 267.497 130.117 270.499 138.382 270.51C145.283 270.517 152.183 270.024 160.247 269.708V269.708ZM230.54 120.026C230.688 118.188 231.243 116.579 230.855 115.246C228.72 107.91 223.528 102.87 217.474 98.717C209.546 93.279 200.81 89.441 191.529 86.989C170.407 81.408 149.238 81.444 128.125 87.047C118.842 89.51 110.115 93.386 102.218 98.86C96.2 103.031 90.959 108.057 89.026 115.494C88.688 116.792 89.383 118.359 89.617 119.911C99.191 116.521 107.926 112.632 117.067 110.414C126.271 108.181 135.843 107.083 145.317 106.455C155.142 105.805 165.079 105.803 174.903 106.466C184.377 107.105 193.947 108.226 203.147 110.477C212.269 112.709 220.98 116.616 230.54 120.026ZM85.611 165.737C85.292 172.03 86.629 178.414 89.303 184.542C92.226 191.241 97.068 195.96 104.045 198.172C110.78 200.307 117.69 200.464 124.45 198.357C132.256 195.923 137.124 190.559 139.373 182.637C141.664 174.564 140.667 166.818 136.626 159.738C131.276 150.365 123.523 143.284 113.506 139.01C108.632 136.93 103.473 135.986 98.101 136.142C94.345 136.251 91.855 137.854 90.545 141.323C87.624 149.061 85.357 156.938 85.611 165.737V165.737ZM234.217 165.589C234.498 158.568 233.006 151.857 230.745 145.272C227.767 136.599 226.047 135.433 217.101 136.303C215.473 136.461 213.858 136.823 212.259 137.186C201.449 139.634 193.506 146.287 186.634 154.577C182.269 159.843 180.075 165.945 179.444 172.632C178.026 187.642 187.967 199.023 202.935 199.617C204.904 199.695 206.889 199.655 208.854 199.512C219.344 198.753 226.725 193.564 230.888 183.876C233.397 178.036 234.47 171.927 234.217 165.589Z" fill="black"/>
<path d="M171.023 225.162C177.126 227.699 178.735 233.671 174.631 238.9C165.491 250.548 153.876 250.132 145.137 238.702C141.12 233.449 142.86 227.64 149.042 225.071C152.296 223.719 167.481 223.69 171.023 225.162Z" fill="black"/>
<path d="M130.331 170.676C131.569 179.423 129.564 184.244 123.483 187.735C118.061 190.847 110.722 190.25 105.912 186.255C103.303 184.089 101.64 181.329 100.781 178.03C99.92 174.725 99.605 171.549 102.349 168.251C111.766 165.925 121.273 166.262 130.331 170.676V170.676Z" fill="black"/>
<path d="M188.857 171.124C197.532 166.325 206.291 166.35 215.185 167.655C218.083 168.08 219.611 170.118 219.757 173.132C220.14 181.033 214.44 188.284 206.907 189.478C198.479 190.814 190.8 185.949 188.93 177.805C188.443 175.686 188.857 173.361 188.857 171.124Z" fill="black"/>
</svg>
