<svg width="320" height="320" viewBox="0 0 320 320" fill="none" xmlns="http://www.w3.org/2000/svg">
<path d="M227.7 212C242.9 186.4 222.4 169.7 222.4 169.7C237.6 154.1 237 138.1 229.6 124.4C222.4 111 210.6 113.6 209.8 105.9C208.7 94.8001 227.1 88.9001 231.8 64.0001C237.6 34.0001 229.9 12.8001 215.5 10.6001C201 8.40006 208.6 41.0001 200.7 65.1001C195.3 81.5001 182.4 90.7001 182.4 90.7001C168.3 82.2001 160.3 88.5001 160.3 88.5001H159.7C159.7 88.5001 151.7 82.2001 137.6 90.7001C137.6 90.7001 124.8 81.5001 119.3 65.1001C111.3 41.0001 118.9 8.30006 104.5 10.6001C90 12.8001 82.4 34.0001 88.2 64.0001C93 88.9001 111.3 94.8001 110.2 105.9C109.4 113.7 97.6 111.1 90.4 124.4C83 138 82.4 154.1 97.6 169.7C97.6 169.7 77 186.4 92.3 212C92.3 212 79.7 222.8 85.3 243.2C88.7 255.5 100.6 259.5 100.6 259.5C100.6 259.5 93.3 273.6 101.9 286.6C110.5 299.6 128.7 294.8 128.7 294.8C128.7 294.8 133.3 309.6 159.5 309.6H160.1C186.4 309.6 190.9 294.8 190.9 294.8C190.9 294.8 209.1 299.6 217.7 286.6C226.3 273.6 219 259.5 219 259.5C219 259.5 231 255.5 234.3 243.2C240.3 222.8 227.7 212 227.7 212V212ZM125.1 154.9C124.7 156.7 117.7 162 108.7 160C99.7 158.1 98.3 141.2 104 140.2C114.3 138.4 125.5 153 125.1 154.9V154.9ZM160.5 222.3H160C142.2 228.9 136.9 213 136.9 213C141 216.5 149.5 219.8 155 214.8C159.4 210.8 157.9 195.2 157.9 195.2C149.6 195.2 147.6 182.1 142.9 181.1C138.3 180 134.7 174.9 141.2 171.2C147.7 167.4 156.6 174.4 159.9 174.4H160.3C163.5 174.4 172.5 167.5 179 171.2C185.5 175 181.9 180.1 177.3 181.1C172.7 182.2 170.7 195.2 162.3 195.2C162.3 195.2 160.8 210.8 165.2 214.8C170.8 219.8 179.2 216.5 183.3 213C183.5 213 178.2 228.9 160.5 222.3ZM211.3 160C202.3 161.9 195.3 156.7 194.9 154.9C194.5 153.1 207.2 139 216 140.3C221.8 141.1 220.3 158.1 211.3 160Z" fill="black"/>
</svg>
