<svg width="320" height="320" viewBox="0 0 320 320" fill="none" xmlns="http://www.w3.org/2000/svg">
<g clip-path="url(#clip0_1_234)">
<path d="M251.7 151C248.9 142.1 244.6 134.4 242.7 130.8C240 125.8 238.2 122.7 235.8 119.7C223.9 105 203.5 103 196.9 102.3C186.1 101.2 177.3 102.9 171.9 104.4C169 105.2 165.7 106.3 162.2 107.9C160.2 108.8 158.3 109.7 156.6 110.7C156.3 107.7 156 103.1 155.9 97.4999C155.9 92.2999 156.1 90.3999 155.9 86.3999C155.7 82.5999 155.5 77.4999 153.8 72.4999C149.8 60.1999 139.3 53.8999 137.8 52.9999C129.8 48.2999 122.2 48.0999 120.4 48.0999C117.6 48.0999 115.2 48.3999 113.5 48.7999C114.8 47.1999 116.9 44.8999 119.8 42.4999C121.8 40.7999 126 37.6999 135.1 34.1999C145 30.2999 154.7 28.2999 158 23.7999C158.4 23.2999 159.6 21.6999 159.4 19.5999C159.4 19.1999 159.2 16.9999 157.3 16.0999C156.1 15.4999 154.9 15.9999 154.5 16.0999C154.3 15.3999 154 14.6999 153.8 13.9999C154.6 13.8999 155.9 13.5999 157.3 12.5999C158.1 11.9999 159.5 10.9999 159.4 9.79994C159.2 8.09994 156 7.29994 154.5 6.99994C152 6.59994 150 7.29994 148.9 7.69994C148.4 6.49994 148 5.39994 147.5 4.19994C148.1 4.09994 148.8 3.89994 148.9 3.49994C149.1 2.49994 146 0.599942 143.3 -5.76526e-05C138.6 -1.00006 134.3 2.09994 131.5 4.19994C127.1 7.39994 124.6 10.8999 121.1 15.9999C115.6 24.0999 112 30.2999 109.3 34.7999C106.8 38.8999 103.1 44.8999 98.2 52.1999C96 52.8999 93.0001 53.9999 89.8001 55.7999C87.3001 57.1999 78.6001 62.2999 73.8001 73.1999C70.3001 81.0999 70.6 88.3999 71 91.9999C66.8 97.0999 64.3001 101.8 62.7001 105.2C61.1001 108.5 55.4001 120.6 59.2001 124.7C59.4001 125 60.6 126.2 62 126.1C63.4 126 64.3 124.8 65.5 123.3C66.5 122 67.2 120.8 67.6 119.8C69.8 117.8 72.3 115.7 75.2 113.5C79.4 110.5 83.5 108.2 87 106.6C91.1 106.5 96.7 106 103 103.8C106.6 102.6 109.6 101.1 112 99.5999C109.2 106.9 107.1 113.1 105.7 117.7C105.7 117.7 96.4 148 100.1 165C101 169.1 102.9 171.9 102.9 171.9C103.4 172.7 104.1 173.6 105 174.7C106.4 176.5 107.6 177.9 108.5 178.9C110.4 182.7 113.1 187 116.8 191.4C125.3 201.4 134.9 206.7 141.1 209.5C142.3 210.1 144.2 211.1 146.7 212.3C133.6 223.8 121.1 231.8 111.3 237.3C103.8 241.5 90.8001 248.6 72.4001 254C65.2001 256.1 58.9 257.4 54.3 258.2C54.7 262.6 56.1 265.6 57.1 267.2C60.3 272.7 65.4001 275.2 68.9001 276.9C72.0001 278.4 74.7 279.2 76.5 279.7C76.8 282.2 77.6 286.1 80 290.1C84.4 297.6 91.2001 300.7 95.3001 302.6C99.4001 304.4 108.7 308.7 118.9 305.4C122 304.4 124.3 303 125.8 301.9C132.3 307.6 138.5 309.5 141.8 310.2C152.7 312.7 162.1 309.2 166.8 307.4C169.5 306.4 171.6 305.4 173.1 304.6C174.3 305.5 176.2 306.7 178.7 307.4C184.5 309.1 189.5 307.2 194.7 305.3C198.5 303.9 202.6 302.3 206.5 298.4C209 295.9 210.5 293.3 211.4 291.5C212.6 290.8 213.7 290.1 214.9 289.4C214.6 290.4 214.2 292.1 214.9 293.6C216.6 297.1 222.9 296.4 223.2 296.4C226.2 296.1 230.5 294.2 235.7 286C241.7 276.6 243 267.9 245.4 251.9C247.5 237.9 247.6 228.3 247.5 223.4C247.4 218.4 247.1 214.1 246.8 210.9C247.5 209.7 248.5 207.8 249.6 205.3C260.5 180.6 253.3 156 251.7 151V151ZM91.7 90.4999C91 90.9999 89.4001 92.1999 87.3001 91.9999C84.6001 91.5999 83.3001 89.0999 82.9001 88.3999C82.5001 87.5999 81.6 85.9999 82.2 83.9999C82.9 81.5999 85.2001 80.5999 85.8001 80.3999C88.7001 79.2999 91.3 80.8999 91.6 81.0999C92.1 81.3999 94.3 82.8999 94.5 85.4999C94.8 88.1999 92.4 89.9999 91.7 90.4999V90.4999Z" fill="black"/>
</g>
<defs>
<clipPath id="clip0_1_234">
<rect width="320" height="320" fill="white"/>
</clipPath>
</defs>
</svg>
