<svg width="320" height="320" viewBox="0 0 320 320" fill="none" xmlns="http://www.w3.org/2000/svg">
<path d="M218 108C217.6 107.5 217.2 107 216.8 106.5C217.3 106.2 217.8 105.8 218.3 105.5C212.2 103.1 206.7 102.3 202.3 96.4C200.8 94.3 200.2 92.7 199.8 91.2C188.6 87 176.1 91.8 169.7 94.9C167.8 94.9 166 94.9 164.1 94.9C156.6 92.1 144.2 88.8 133.4 92.2C130 95.1 125.3 98.8 117 104C115.6 104.9 114.5 105.6 113.4 106.2C113.6 106.4 113.9 106.5 114.1 106.7C111.3 109.6 105.4 115.8 101.3 121.7C92 135.2 90.3 149.4 89.2 158.9C88.2 167.4 86 187.2 95.2 206C101 217.9 109.5 225.8 113.9 227.3C114 227.3 114.1 227.4 114.3 227.4C116.8 229.3 122.9 234.7 125.2 237.6C131.2 245.4 130.8 262.6 131 270.3C130.8 271 130.5 271.7 130.4 272.5C128 284.2 139.1 294.5 141.1 296.3C143.9 299 152.5 306.8 165.3 306.3C176.7 305.7 183.9 298.8 186.9 296C188.5 294.5 199.9 283.4 197.2 271.4C197.1 270.9 197 270.5 196.8 270.2C197 262.8 196.7 246.9 201.7 238.7C202.1 238.2 202.5 237.7 203 236.9C205.7 233.5 212 227.9 213.6 226.8C213.9 226.6 214.1 226.5 214.3 226.3C214.8 226.1 216.4 225.4 217.8 224.5C220.9 222.8 226.9 217.5 230 213C235.1 205.8 239.7 191.1 240.2 171.7C240.5 157.8 240.9 143.8 233 128.7C229.7 122.4 225.9 117.6 218 108V108ZM136.9 190.5C135.6 193.4 132.2 194.6 130.1 195.2C124.8 196.9 120 195.7 118.3 195.2C112.4 193.6 109.1 190 108.4 189.2C107.7 188.4 102.5 182.6 103.5 174.9C103.7 173.1 104 170.7 105.9 168.9C108.7 166.2 113.2 166.8 115.2 167.1C118.7 167.6 121.1 169 123.8 170.7C127.2 172.8 133.4 176.7 136.1 183.9C137 185.9 137.8 188.2 136.9 190.5V190.5ZM183.2 272.9C182.2 273.9 181.1 274.9 180.1 275.9C178 277.9 177 278.9 177 278.9C173.1 282.7 172.8 283.2 170.8 284.9C168.9 286.5 167.4 287.7 165.2 287.9C164.6 288 164.2 287.9 163.9 287.9C161.5 287.7 159.8 286.6 158.3 285.5C156.6 284.2 156.6 283.9 152.7 280.1C149.2 276.6 146.5 273.9 145.3 272.9C144.3 272 143.4 271.5 142.9 271.1C143.4 270.2 144.8 268 147.2 267.5C148.6 267.2 149.8 267.6 150.9 268.1C156.2 270.5 163.1 277.4 164.5 278.8C165.2 278 173.4 268.8 178.7 267.4C179.4 267.2 180.9 266.8 182.4 267.4C184.3 268.1 185.1 269.7 185.5 270.4C184.8 271.4 183.9 272.1 183.2 272.9V272.9ZM220.3 189.8C219.7 190.6 216.5 194.2 211 195.8C209.4 196.3 204.9 197.5 199.9 195.8C197.9 195.1 194.6 194 193.4 191.1C192.5 188.8 193.2 186.5 194 184.6C196.6 177.5 202.4 173.6 205.7 171.4C208.2 169.7 210.5 168.3 213.9 167.8C215.8 167.6 220 167 222.6 169.6C224.5 171.4 224.8 173.8 225 175.6C225.9 183.2 221 189.1 220.3 189.8V189.8Z" fill="black"/>
<path d="M210 119.1C221.1 110.4 229.3 97.9 235.9 83.8C238.7 77.8 242.3 69.4 245.5 58.6C246.2 65.6 246.5 75.9 243.2 87.5C240 99.2 234.7 107.1 231.2 112.2C227.8 117.2 224.4 121.1 221.8 123.8C223.1 125.4 224.5 127 225.8 128.6C227.1 127.8 229.1 126.6 231.5 125.2C234.9 123.3 236.8 122.3 237.7 121.8C242.5 119.1 245 113.7 247.6 109.1C253.9 98 255.7 88.1 258.5 74.1C258.5 74.1 260.4 63.9 260.5 55C260.3 52.7 260.2 49.8 260.2 49.8C260.1 47.6 260 45.3 259.5 42.2C259.4 41.2 259.2 40.2 259 38.9C258.5 36.6 257.9 34.8 257.4 33.5C256.1 34.1 254.1 35.1 251.6 36.4C241.1 41.8 231.2 47 223 56C221.6 57.5 219.6 60 214.6 68.2C209.3 76.9 202.2 89.3 194.9 105.6L197.5 109.7L210 119.1Z" fill="black"/>
<path d="M115.7 116.7C103.9 108.7 94.8999 96.8 87.2999 83.1C84.0999 77.3 79.8999 69.1 76.0999 58.5C75.7999 65.5 76.1999 75.8 80.1999 87.2C84.1999 98.6 89.9999 106.2 93.8999 111.1C97.6999 115.9 101.3 119.6 104.1 122.1C102.9 123.8 101.6 125.5 100.4 127.1C98.9999 126.4 96.9999 125.3 94.3999 124.1C90.7999 122.4 88.7999 121.5 87.8999 121.1C82.8999 118.8 80.0999 113.5 77.0999 109C70.0999 98.3 67.5999 88.6 63.8999 74.7C63.8999 74.7 61.2999 64.7 60.6999 55.8C60.7999 53.5 60.6999 50.6 60.6999 50.6C60.5999 48.4 60.5999 46.1 60.8999 43C60.9999 42 61.0999 41 61.1999 39.7C61.4999 37.4 62.0999 35.5 62.4999 34.2C63.8999 34.8 65.8999 35.6 68.4999 36.7C79.4999 41.5 89.7999 46 98.5999 54.5C100.1 55.9 102.3 58.3 107.8 66.1C113.7 74.4 121.6 86.4 130 102.2L127.6 106.4L115.7 116.7Z" fill="black"/>
</svg>
