<svg width="320" height="320" viewBox="0 0 320 320" fill="none" xmlns="http://www.w3.org/2000/svg">
<path d="M254.4 132.5C252.3 131.1 248.6 132.9 246.8 134C249.3 128.4 252.8 120 256 109.5C259.8 96.9 265.6 77.2 259.1 72.8C257.8 71.9 255.6 71.4 251.5 72.8C251.2 70.6 250.4 67.2 248.4 63.6C246.9 60.9 245.2 58.9 243.8 57.5C243.3 46.3 238 36.7 230 33C228.2 32.2 222.7 29.7 216.2 31.5C213.4 32.3 211.4 33.6 210.1 34.6C207.2 32.6 203.6 30.5 199.4 28.5C194.9 26.4 190.8 24.9 187.2 23.9C185.6 20 182.4 14 176.5 8.59999C172.5 4.99999 168.6 1.39999 162.7 0.999993C155.4 0.499993 149.8 5.29999 145.9 8.59999C139.9 13.8 136.8 19.8 135.2 23.9C131.8 25.3 128.2 26.8 124.5 28.5C120.1 30.5 116.1 32.6 112.3 34.6C111.4 33.6 109.8 32.3 107.7 31.5C101.2 29.1 94.6 33.2 92.4 34.6C81.6 41.3 80.3 55.3 80.2 57.5C78.7 59.2 77.1 61.2 75.6 63.6C73.5 66.9 72 70.1 71 72.8C69.2 72.2 66.9 71.7 64.9 72.8C57 77 62 100.8 63.4 104.9C66.9 115.5 70.6 121.8 75.6 133.9C73.8 132.7 69.6 131.4 68 132.4C64.9 134.3 67.2 141.9 68 144.6C72.4 159.8 83 166.1 92.5 178.2C100 187.7 103.1 196.1 107.8 208.8C113.8 224.9 117 247 117 263.8C117 267.7 115.2 271.5 115.5 277.6C115.7 281.3 116.4 293 124.7 303.6C136.7 318.9 157.7 318.9 161.4 318.9C164.9 318.9 184.5 318.7 198.1 303.6C198.4 303.3 198.8 302.8 199.3 302.2C200.2 301.1 207.4 292.2 208.8 280.6C209.6 273.7 207.7 268.6 207.3 265.3C204.2 242.4 211.2 216.9 214.9 207.2C218 199.2 222.7 187.2 233.2 175.1C241.6 165.5 250.6 159.6 254.6 146.1C255.1 143.9 257.8 134.8 254.4 132.5V132.5ZM119.6 164C111.3 163.5 105.6 157.7 103.6 155.7C99.3 151.3 97.8 147 96.5 143.5C95.7 141.3 95.2 139.2 96 137.1C96.5 135.6 97.7 134.3 98.8 133.7C103.9 130.8 111.3 140.3 124.4 147.7C125.2 148.1 127.5 149.4 129.3 152.1C129.9 152.9 132.6 156.9 131.5 159.9C129.8 164.6 120.4 164.1 119.6 164ZM145.8 303.7C145.1 304.4 143.4 303.9 142.7 303.7C138.1 302.2 132.3 293.1 130.5 289.9C130.7 289.4 131.6 287.3 133.6 286.8C135.3 286.4 136.7 287.3 138.2 288.3C143.2 291.7 144.6 296.5 145.8 300.5C146.2 301.7 146.5 303.1 145.8 303.7V303.7ZM179.7 303.7C179.1 303.9 177.5 304.4 176.7 303.7C176.1 303 176.4 301.7 176.7 300.6C177.9 296.6 179.3 291.7 184.1 288.4C185.5 287.4 187 286.4 188.6 286.9C190.5 287.4 191.4 289.4 191.6 290C189.8 293.1 184.2 302.2 179.7 303.7ZM226.2 143.4C225 146.9 223.5 151.2 219.3 155.6C217.3 157.7 211.9 163.4 203.8 163.9C203.1 163.9 193.9 164.4 192.2 159.8C191.1 156.7 193.7 152.8 194.3 152C196.1 149.3 198.4 148 199.1 147.6C211.9 140.2 219 130.7 224 133.6C225.1 134.2 226.2 135.5 226.7 137C227.5 139.2 227 141.2 226.2 143.4Z" fill="black"/>
</svg>
