<svg width="320" height="320" viewBox="0 0 320 320" fill="none" xmlns="http://www.w3.org/2000/svg">
<path d="M227.192 184.315C222.502 182.572 218.499 180.514 214.251 179.607C197.823 176.096 191.337 180.256 188.664 194.762C186.875 204.474 187.589 218.949 191.699 228.038C193.022 230.963 194.422 233.922 191.971 237.987C190.369 235.905 189.206 234.333 187.98 232.81C182.102 225.506 175.686 225.539 170.192 233.23C167.758 236.637 165.813 240.455 164.072 244.279C162.43 247.886 161.346 251.746 159.685 256.43C158.798 254.284 158.184 252.754 157.536 251.237C155.151 245.65 153.326 239.726 150.237 234.558C144.582 225.094 137.432 225.028 130.852 233.759C129.933 234.979 128.984 236.176 127.596 237.969C125.12 234.115 126.438 231.183 127.738 228.252C131.348 220.109 132.467 206.64 131.297 197.779C127.953 172.473 114.28 173.259 95.847 183.082C94.874 183.601 93.904 184.126 92.603 184.826C84.378 160 67.873 147.717 41.314 150.882C38.014 134.499 26.191 127.71 12.276 123.197C10.14 122.504 7.956 121.956 4.998 121.115C21.749 110.706 63.613 96.135 92.642 90.609C98.316 89.529 102.901 90.806 106.397 95.457C109.16 99.132 112.14 102.687 114.519 106.601C121.4 117.923 134.016 126.745 139.239 125.151C140.186 120.277 139.789 113.107 134.811 108.489C125.471 99.826 124.885 82.96 132.483 73.874C142.192 78.389 148.346 86.467 153.421 95.574H167.146C171.941 86.657 178 78.385 187.785 73.7C195.241 83.693 194.107 98.952 185.461 108.967C180.667 114.521 179.576 117.318 181.293 125.203C185.814 126.77 198.139 118.103 204.984 106.759C207.157 103.158 209.834 99.862 212.288 96.432C216.365 90.732 221.797 89.132 228.487 90.867C240.373 93.95 252.401 96.538 264.167 100.02C279.458 104.545 294.345 110.262 308.631 117.432C310.455 118.347 312.214 119.392 315.001 120.925C310.999 122.14 308.04 122.724 305.354 123.922C300.472 126.099 295.496 128.243 291.023 131.121C284.148 135.545 279.741 141.955 278.532 150.678C266.868 150.009 255.569 150.461 245.759 157.344C236.241 164.019 230.777 173.602 227.192 184.315V184.315Z" fill="black"/>
</svg>
