<svg width="320" height="320" viewBox="0 0 320 320" fill="none" xmlns="http://www.w3.org/2000/svg">
<path d="M296.8 87.5001C295.4 72.2001 287.1 58.8001 275.1 52.7001C269.4 49.8001 263.2 48.3001 256.7 48.3001C252.8 48.3001 249.2 48.8001 246 49.6001C243.3 45.3001 239.6 40.3001 234.3 35.3001C212.8 14.9001 183.3 10.6001 162.3 10.6001H158C120 10.6001 97.9 24.4001 85.9 36.0001C80.9 40.8001 77.3 45.7001 74.6 50.0001C71.2 49.0001 67.3 48.3001 63.1 48.3001C56.9 48.3001 50.9 49.8001 45.3 52.7001C33.3 58.9001 25 72.4001 23.6 87.7001C22.4 101.4 27 114.7 36.1 124.3C34.4 141.3 30.7 184.4 36 207.2C41.1 229.6 67.5 250.6 86.7 266C92.8 270.8 99.6 276.3 101.5 278.7C103 280.6 104.6 282.9 106.2 285.2C109.9 290.6 114.1 296.8 120.4 301.8C128.1 307.9 137.2 310.9 148.1 310.9H172.2C183.1 310.9 192.2 307.9 199.9 301.8C206.2 296.8 210.4 290.6 214.1 285.2C215.7 282.8 217.2 280.6 218.8 278.7C220.7 276.3 227.6 270.9 233.6 266C252.8 250.6 279.2 229.6 284.3 207.2C289.5 184.3 285.9 141.3 284.2 124.3C293.4 114.6 298 101.3 296.8 87.5001V87.5001ZM270.9 119.2C270.9 119.2 277.9 178.5 272 204.3C266.1 230.1 218.1 259.3 209 270.6C199.8 281.9 194.6 298.1 172.4 298.1H148.3C126 298.1 120.8 281.9 111.7 270.6C102.6 259.3 54.6 230.2 48.7 204.3C42.8 178.4 49.8 119.2 49.8 119.2C29.1 103.6 34.3 72.8001 51.2 64.0001C55.4 61.8001 59.4 61.0001 63.1 61.0001C66.4 61.0001 69.4 61.6001 71.9 62.5001C81.5 66.1001 96 76.2001 114.2 102.7C154.1 160.7 134.8 236.1 158.5 236.1C186.9 236.1 163.8 160.7 202.9 102.7C220.3 76.9001 235.4 66.7001 246 62.8001C248.9 61.8001 252.5 61.0001 256.6 61.0001C260.5 61.0001 264.8 61.8001 269.1 64.0001C286.3 72.7001 291.3 103.6 270.9 119.2V119.2Z" fill="black"/>
<path d="M208.7 175.5C199.7 183.9 194.8 200.5 201.2 208.4C206.2 214.5 225.9 204 230.9 189.6C236 175.3 221.3 163.8 208.7 175.5Z" fill="black"/>
<path d="M108.3 175.5C95.7 163.8 81 175.3 86 189.6C91 204 111.1 213.9 116.1 207.8C122.6 200 117.3 184 108.3 175.5Z" fill="black"/>
<path d="M164.1 250.7H152C145.5 250.7 135.8 251.2 134.9 255.9C134 260.6 141 274.8 156.6 274.8H159.4C175 274.8 182 260.6 181.1 255.9C180.3 251.2 170.6 250.7 164.1 250.7V250.7Z" fill="black"/>
</svg>
