<svg width="320" height="320" viewBox="0 0 320 320" fill="none" xmlns="http://www.w3.org/2000/svg">
<path d="M122.071 269.999C130.095 262.331 136.12 253.954 137.032 242.278C115.15 238.76 94.076 231.98 71.973 230.963C57.516 230.298 43.4 232.373 29.573 236.572C27.442 237.219 25.284 237.775 21.74 238.763C33.041 217.25 49.658 202.716 68.117 189.033C66.625 189.033 65.104 188.841 63.646 189.062C47.657 191.485 32.73 196.955 18.682 204.903C16.904 205.909 15.131 206.927 12.206 208.595C13.067 204.995 13.458 202.407 14.301 199.975C28.492 158.997 51.972 124.317 85.174 96.379C101.701 82.472 120.37 72.719 142.138 70.356C164.611 67.917 185.999 71.873 205.806 83.103C212.531 86.916 217.648 92.195 219.575 99.977C220.349 103.101 222.582 104.835 225.227 106.225C234.598 111.15 243.921 116.168 253.355 120.968C267.262 128.044 280.878 135.581 293.036 145.457C302.352 153.024 310.099 161.908 314.433 173.282C315.799 176.866 316.388 180.746 317.43 184.873C317.756 186.416 315.386 185.215 314.914 185.058C290.241 176.867 264.692 173.983 238.91 172.86C228.35 172.4 217.747 172.967 207.164 172.951C202.846 172.944 199.425 174.636 197.058 178.089C194.49 181.835 191.735 185.594 189.996 189.739C186.146 198.918 182.744 208.293 179.413 217.678C175.069 229.918 169.217 241.334 161.143 251.504C151.265 263.952 138.205 270.074 122.071 269.999V269.999ZM181.791 105.517C173.486 105.593 169.732 111.796 172.78 118.978C176.568 127.902 189.981 130.57 197.024 123.799C200.705 120.26 200.715 115.451 196.718 111.84C192.281 107.829 186.928 105.783 181.791 105.517Z" fill="black"/>
</svg>
