<svg width="320" height="320" viewBox="0 0 320 320" fill="none" xmlns="http://www.w3.org/2000/svg">
<path d="M255.5 38.1999C251.8 39.3999 247 41.0999 240.7 43.3999C218.9 51.2999 205.2 74.1999 205.2 74.1999C205.2 74.1999 179.7 59.7999 160.2 59.7999C137.5 59.7999 114.5 75.3999 114.5 75.3999C114.5 75.3999 101.5 51.2999 79.7 43.3999C72.9 40.9999 67.9 39.1999 64.2 37.9999C55.8 35.1999 54.5 38.5999 55.1 43.8999C56.2 52.7999 57.8 66.6999 59.2 77.6999C61.3 95.2999 71.1 116.6 92.5 123.3C92.5 123.3 85.6 139.2 74.5 162.2C63.4 185.2 66.8 212.8 76.6 225.8C86.4 238.8 110.8 253.4 115.8 263.5C115.8 263.5 103.9 265.5 90.2 261.5C76.5 257.5 67.6 249.8 63.3 238.5C63.3 238.5 58.6 247.9 66.7 264.1C74.8 280.3 123.5 287 123.5 287C123.5 287 126.9 291.2 126.9 295.3C126.9 299.4 122.2 301.6 122.6 307C123 312.4 138 316.6 155.1 316.6H164.9C182 316.6 196.9 312.4 197.4 307C197.8 301.6 193.1 299.4 193.1 295.3C193.1 291.2 196.5 287 196.5 287C196.5 287 243.2 284 253.3 264.1C261.4 248 256.7 238.5 256.7 238.5C252.4 249.8 243.4 257.3 229.8 261.5C216.2 265.7 204.2 263.5 204.2 263.5C209.4 253.5 233.7 238.8 243.4 225.8C253.2 212.8 256.7 185.2 245.5 162.2C234.3 139.2 227.5 123.3 227.5 123.3C248.9 116.6 258.6 95.2999 260.8 77.6999C262 67.7999 263.5 55.4999 264.5 46.5999C265.7 39.8999 264.4 35.2999 255.5 38.1999V38.1999ZM125.7 194.4C125.7 194.4 110.5 195.6 104.6 184C98.7 172.4 102.8 161.6 102.8 161.6C128.1 171.9 125.7 194.4 125.7 194.4ZM215.9 184.1C210 195.7 194.8 194.5 194.8 194.5C194.8 194.5 192.2 172.1 217.7 161.8C217.8 161.7 221.8 172.5 215.9 184.1Z" fill="black"/>
</svg>
