<svg width="320" height="320" viewBox="0 0 320 320" fill="none" xmlns="http://www.w3.org/2000/svg">
<path d="M55.519 278.173C63.661 267.167 71.561 256.621 79.31 245.964C84.316 239.08 86.937 231.483 86.87 222.75C86.816 215.614 87.825 208.457 88.571 201.331C89.259 194.761 92.065 189.214 96.557 184.247C108.385 171.171 122.659 161.502 138.153 153.433C140.788 152.061 143.937 151.246 144.097 147.927C138.516 142.037 133.164 136.389 127.582 130.498C123.602 133.353 121.338 138.219 119.091 142.87C113.62 154.196 106.162 164.125 98.225 173.73C88.196 185.867 76.067 195.215 61.227 200.843C47.506 206.047 33.909 205.599 20.444 199.988C12.429 196.648 6.62502 190.972 3.16102 182.972C-0.680982 174.099 -0.396982 165.466 4.22902 156.857C8.46802 148.969 14.329 142.645 22.14 138.483C29.769 134.418 37.629 130.674 45.675 127.525C59.708 122.032 73.967 117.114 88.121 111.928C90.931 110.898 93.697 109.747 97.613 108.207C94.361 106.785 92.197 105.487 89.854 104.882C83.736 103.301 78.915 99.99 75.207 94.939C74.762 94.333 74.216 93.802 73.722 93.231C56.494 73.369 38.66 64.983 35.945 62.736C39.456 62.736 40.832 62.517 42.115 62.77C54.618 65.239 66.019 69.707 73.791 80.605C74.226 81.215 74.879 81.674 75.291 82.296C84.353 95.998 98.11 98.089 114.028 97.948C110.316 92.404 103.872 91.276 100.75 85.655C101.279 78.403 101.444 70.485 102.529 62.695C103.881 52.989 101.032 44.893 94.937 37.575C92.525 34.679 86.83 26.014 86.34 24.944C87.861 22.801 101.18 34.979 106.026 40.714C109.472 44.792 111.138 49.895 111.099 55.408C111.067 59.933 111.349 64.469 111.127 68.983C110.926 73.074 110.232 77.142 109.736 81.395C117.075 86.485 124.992 89.97 132.898 93.406C136.946 95.165 137.645 94.729 147.26 89.625C145.438 88.521 144.115 87.335 142.574 86.869C139.706 86 136.661 85.724 133.779 84.891C126.766 82.864 123.38 77.872 122.731 70.79C121.799 60.626 129.223 47.317 138.016 43.745C141.415 42.364 144.469 40.045 147.531 37.936C155.657 32.337 164.542 32.429 172.767 38.152C175.816 40.274 178.932 42.478 182.333 43.88C190.317 47.172 198.857 60.339 197.135 72.254C196.248 78.389 192.985 82.752 187.004 84.639C183.791 85.653 180.382 86.027 177.113 86.89C175.808 87.235 174.646 88.118 172.777 89.09C178.76 94.163 184.17 95.544 190.656 91.979C197.187 88.39 204.304 85.849 209.614 81.933C209.367 72.278 208.766 63.646 209.093 55.048C209.244 51.071 210.508 46.763 212.485 43.302C217.188 35.068 223.869 28.495 231.342 23.093C231.418 27.015 226.097 36.51 222.9 40.714C218.617 46.347 216.59 52.518 217.35 59.724C218.258 68.335 218.686 76.997 219.306 85.411C216.731 91.099 210.221 92.158 206.551 97.19C209.607 98.778 212.517 97.967 215.259 97.675C219.003 97.277 222.688 96.343 226.429 95.9C230.788 95.384 234.298 93.382 237.235 90.287C241.13 86.183 245.137 82.16 248.735 77.805C257.285 67.452 271 63.5 281.741 63.877C268.75 68.625 255.288 81.249 246.858 92.66C241.966 99.281 235.89 103.942 227.673 105.605C226.264 105.89 224.988 106.834 222.612 107.971C225.657 109.365 227.782 110.517 230.028 111.338C244.895 116.769 259.86 121.939 274.641 127.591C282.014 130.41 289.225 133.766 296.222 137.427C303.668 141.322 309.664 146.957 314.307 154.128C326.859 173.514 314.606 194.208 299.341 200.151C285.744 205.445 272.245 206.002 258.537 200.738C244.844 195.479 233.367 187.091 223.854 176.065C215.221 166.059 207.129 155.639 201.374 143.595C199.111 138.86 196.433 134.324 192.234 129.776C189.565 133.29 187.438 136.64 184.757 139.462C182.188 142.165 179.043 144.32 176.106 146.752C175.669 149.902 177.669 151.2 180.13 152.607C187.978 157.094 196.071 161.305 203.32 166.641C210.562 171.972 216.976 178.449 223.611 184.578C228.228 188.843 230.669 194.364 231.32 200.547C232.148 208.419 233.039 216.315 233.229 224.216C233.398 231.268 235.38 237.472 239.049 243.394C245.828 254.334 253.562 264.533 262.099 274.144C263.086 275.256 263.969 276.46 264.885 277.604C262.922 279.722 245.037 264.596 238.852 256.947C224.219 238.85 225.594 244.753 222.617 216.278C222.147 211.778 221.994 207.244 221.529 202.744C221.04 198.011 219.238 194.279 214.49 192.038C209.738 189.795 205.368 186.749 200.789 184.128C200.189 183.785 199.338 183.879 197.974 183.678C197.974 185.458 197.85 187.158 197.997 188.834C198.456 194.083 199.362 199.316 199.471 204.568C199.754 218.208 197.972 231.669 194.907 244.938C193.111 252.712 189.89 259.958 185.449 266.603C180.694 273.717 176.058 277.712 165.641 283.892C164.173 287.574 162.086 292.402 160.002 297.628C158.29 295.461 154.775 286.446 153.808 283.56C137.009 274.804 128.469 260.192 124.632 242.496C121.589 228.462 119.83 214.224 120.669 199.814C120.972 194.613 121.846 189.446 122.574 183.296C113.808 186.025 107.535 191.341 100.668 195.253C98.279 200.825 98.075 206.48 97.598 212.11C96.993 219.246 96.463 226.412 95.319 233.47C94.733 237.086 93.601 241.027 91.475 243.906C82.503 256.05 57.928 279.611 55.519 278.173V278.173ZM192.821 109.681C192.388 110.185 191.955 110.689 191.522 111.193C193.18 113.16 194.674 115.299 196.525 117.062C202.614 122.859 207.389 129.618 211.029 137.116C216.178 147.723 223.094 157.099 230.487 166.169C236.236 173.223 242.822 179.384 250.446 184.407C260.252 190.868 271.106 193.352 282.7 192.742C288.812 192.421 294.594 190.704 299.618 187.067C308.087 180.936 310.166 172.688 305.862 163.243C302.612 156.11 297.453 150.652 290.669 147.013C283.717 143.284 276.607 139.703 269.237 136.931C246.682 128.446 223.977 120.362 201.31 112.176C198.541 111.176 195.654 110.505 192.821 109.681V109.681ZM129.685 109.626C126.352 110.127 125.216 110.112 124.217 110.474C97.299 120.219 70.329 129.831 43.535 139.908C37.258 142.269 31.411 145.952 25.675 149.523C19.748 153.213 16.03 158.85 13.321 165.292C10.695 171.535 11.739 177.045 15.577 182.3C18.575 186.405 22.659 189.014 27.376 190.688C34.293 193.142 41.383 193.291 48.59 192.314C61.079 190.62 71.314 184.534 80.224 176.021C90.93 165.792 99.965 154.198 106.836 141.071C111.768 131.648 117.204 122.697 125.139 115.449C126.474 114.228 127.413 112.572 129.685 109.626V109.626ZM132.538 221.136C132.716 223.952 132.982 225.737 132.915 227.51C132.563 236.753 137.929 240.944 146.103 242.989C150.818 244.168 155.418 245.805 159.97 247.206C165.081 245.677 170.144 244.288 175.113 242.621C177.582 241.793 180.033 240.688 182.201 239.264C183.671 238.298 185.313 236.722 185.691 235.136C186.704 230.877 187.871 226.521 187.259 221.343C180.511 222.768 174.348 223.886 168.292 225.427C165.421 226.158 162.755 227.697 159.977 228.878C151.647 224.432 142.33 223.832 132.538 221.136V221.136ZM132.309 193.71C131.495 199.212 130.593 203.558 132.49 207.594C140.895 213.98 151.486 213.164 160.091 218.216C168.84 212.836 180.098 214.192 187.854 207.185C188.505 199.756 188.505 199.756 186.497 194.014C177.19 196.281 167.342 196.961 159.763 204.061C152.138 196.437 142.39 196.4 132.309 193.71V193.71ZM140.87 253.9C141.269 259.033 144.348 262.372 147.378 265.462C149.949 268.084 153.034 270.338 156.226 272.174C158.936 273.733 162.09 273.134 164.928 271.861C170.744 269.253 176.295 262.228 179.358 253.268C172.442 254.31 165.819 254.527 160.039 257.795C153.894 254.87 147.772 253.669 140.87 253.9V253.9ZM139.04 181.038C146.759 184.456 153.493 187.438 159.798 190.23C165.536 187.916 171.064 185.765 176.516 183.435C177.959 182.818 179.165 181.648 180.652 180.612C168.697 170.644 150.456 170.968 139.04 181.038Z" fill="black"/>
</svg>
