<svg width="320" height="320" viewBox="0 0 320 320" fill="none" xmlns="http://www.w3.org/2000/svg">
<path d="M69.875 125.204C65.624 119.601 61.451 114.609 57.836 109.241C46.987 93.13 44.124 75.251 47.334 56.382C50.586 37.269 67.058 26.617 86.338 30.152C98.251 32.336 107.792 38.062 115.513 47.159C117.24 49.193 118.879 51.302 120.796 53.671C122.723 53.313 124.627 53.211 126.35 52.601C148.932 44.598 171.458 44.656 193.97 52.865C195.039 53.255 196.194 53.411 197.953 53.829C199.565 52.157 201.528 50.415 203.146 48.396C211.434 38.051 221.977 31.886 235.165 29.779C251.068 27.238 266.341 36.09 271.078 51.501C274.661 63.156 274.15 75.012 271.605 86.792C269.035 98.688 263.088 108.913 255.399 118.196C253.696 120.252 251.866 122.203 249.541 124.827C251.457 128.815 253.375 132.933 255.398 137C265.552 157.411 272.246 178.901 276.362 201.321C282.934 237.118 266.673 262.684 237.033 279.613C230.754 283.199 223.883 286.085 216.936 288.075C209.557 290.189 203.918 294.03 199.017 299.746C193.738 305.904 187.311 310.717 179.954 314.346C166.652 320.908 153.507 321.059 140.133 314.532C132.401 310.759 125.659 305.734 120.187 299.227C115.555 293.719 109.978 290.444 103.155 288.255C87.291 283.166 72.433 276.057 61.206 263.157C57.438 258.828 53.821 254.305 50.664 249.521C45.272 241.351 42.566 232.254 42.248 222.392C41.874 210.79 43.266 199.433 45.941 188.166C50.394 169.414 56.85 151.416 65.639 134.254C67.194 131.218 68.537 128.076 69.875 125.204V125.204ZM156.848 272.436C157.438 273.062 157.324 274.593 157.41 275.713C157.498 276.851 157.486 278.017 157.348 279.15C156.774 283.834 154.546 285.818 149.826 286.009C144.65 286.219 140.156 284.173 135.659 281.965C134.585 281.438 131.792 279.374 131.167 280.083C130.228 281.147 136.773 291.124 140.967 295.043C151.838 305.201 167.477 305.39 178.322 295.307C186.167 287.833 189.187 279.292 187.811 280.021C186.435 280.749 183.805 282.233 181.724 283.136C179.625 284.046 177.462 284.896 175.246 285.438C166.062 287.688 162.381 284.773 162.453 275.38C162.462 274.276 162.47 272.754 163.089 272.249C163.708 271.744 164.411 271.203 165.062 270.937C176.905 266.108 179.556 255.769 179.614 244.52C179.648 237.802 175.626 233.942 168.804 233.576C162.701 233.248 156.548 233.249 150.45 233.627C144.254 234.012 140.399 237.765 140.005 243.797C139.463 252.116 141.558 259.883 147.443 265.984C149.998 268.633 156.258 271.81 156.848 272.436V272.436ZM135.325 165.536C135.443 158.902 132.352 152.959 126.575 148.438C120.62 143.777 112.691 143.532 106.091 147.574C98.891 151.984 95.482 159.391 97.107 167.09C99.411 178.001 108.335 184.167 120.216 183.058C130.056 182.141 135.462 176.167 135.325 165.536ZM202.283 183.17C203.029 183.106 204.568 183.055 206.082 182.832C215.091 181.507 221.464 175.121 222.69 166.245C223.895 157.527 219.092 149.41 210.764 146.087C202.581 142.822 193.918 145.414 188.586 153.258C186.708 156.02 185.353 159.408 184.718 162.695C182.371 174.855 189.171 182.954 202.283 183.17V183.17Z" fill="black"/>
</svg>
