<svg width="320" height="320" viewBox="0 0 320 320" fill="none" xmlns="http://www.w3.org/2000/svg">
<path d="M175.273 189.905C190.548 185.805 199.61 176.594 206.876 164.436C209.67 168.473 212.703 171.506 216.641 174.065C214.028 181.254 210.675 187.749 207.26 194.231C204.93 198.654 202.81 203.189 200.669 207.709C198.941 211.357 198.733 224.949 200.815 228.724C204.226 234.912 203.632 241.062 200.188 247.238C198.497 250.271 197.239 253.7 196.548 257.105C194.864 265.405 189.46 269.693 181.809 271.797C179.545 272.42 177.199 272.845 174.862 273.079C162.806 274.286 150.755 274.576 138.791 272.171C129.871 270.378 124.025 265.455 122.084 256.168C121.376 252.779 119.927 249.46 118.329 246.36C115.414 240.703 114.848 234.989 117.913 229.439C120.33 225.065 120.044 210.967 118.018 206.773C115.97 202.532 113.782 198.36 111.73 194.121C109.422 189.353 106.992 184.63 104.992 179.733C103.891 177.037 102.388 173.215 102.388 173.215C102.388 173.215 105.264 171.268 108.443 168.342C114.13 179.756 118.139 192.449 131.624 198.756C132.902 194.785 130.62 175.013 136.77 165.748C140.193 179.941 152.136 195.012 167.465 196.657C163.51 185.724 162.873 171.218 168.908 161.434C171.656 156.979 175.643 151.033 178.391 144.682C182.467 157.383 181.804 175.391 175.273 189.905V189.905ZM159.222 267.525C159.225 267.68 159.219 267.37 159.222 267.525C163.335 267.295 167.473 267.274 171.554 266.782C176.662 266.166 180.241 263.385 181.742 258.292C182.408 256.034 183.036 253.766 183.667 251.499C184.858 247.221 186.224 243.378 190.537 240.744C194.588 238.27 194.165 233.125 190.262 230.442C186.926 228.148 183.3 227.333 179.439 229.335C176.837 230.685 174.333 232.615 171.561 233.176C161.355 235.243 151.143 236.06 141.611 230.315C140.362 229.562 138.972 228.96 137.57 228.562C133.298 227.351 128.364 229.552 126.29 233.433C125.196 235.48 125.421 237.455 126.751 239.232C127.435 240.147 128.352 241.037 129.363 241.529C132.313 242.965 133.524 245.521 134.337 248.442C135.125 251.275 136.051 254.072 136.772 256.921C138.452 263.561 142.859 266.749 149.505 267.036C152.734 267.175 155.985 267.525 159.222 267.525V267.525Z" fill="black"/>
<path d="M240.686 117.947C265.944 111.065 283.07 100.227 292 69.7171C259.815 88.1351 241.94 89.0171 225.21 89.0171L225.19 89.0091C219.501 81.9871 209.01 55.0181 160.61 55.0181C112.21 55.0181 100.998 82.0061 94.79 89.0161C78.003 89.0161 60.185 88.1341 28 69.7161C36.93 100.226 54.055 111.064 79.314 117.946C70.122 117.946 54.708 125.304 50.8 128.34C39.147 137.394 36.29 155.573 46.524 170.163C48.145 163.273 57.276 155.464 61.055 156.065C61.317 159.321 62.128 161.145 64.097 162.748C66.89 154.559 82.663 143.07 91.332 142.43C94.758 146.684 95.482 151.455 95.953 156.032C96.409 160.465 95.698 165.018 95.468 170.237C103.785 166.271 106.21 158.226 111.309 151.504C112.988 158.725 114.088 165.042 115.973 171.114C117.878 177.251 120.84 182.969 127.003 188.85C125.316 173.116 134.415 150.558 140.565 147.773C141.663 167.015 147.182 179.045 159.03 187.167C155.172 175.865 159.607 164.898 165.255 156.807C166.267 155.357 167.222 153.865 168.183 152.38C171.754 146.855 174.604 138.995 175.569 131.786C187.873 141.269 190.053 165.723 183.953 181.223C195.361 176.055 203.228 160.321 205.848 149.901C209.821 156.332 214.791 163.638 223.802 168.985C223.19 160.616 223.328 152.258 228.393 144.602C233.368 145.179 246.334 154.078 251.805 163.729C254.617 161.145 254.769 158.334 254.854 155.82C263.312 156.727 266.016 163.045 269.735 169.804C271.294 167.808 272.688 166.485 273.527 164.873C279.711 152.981 276.107 137.04 264.82 128.314C260.905 125.287 250.05 118.209 238.77 118.209L240.686 117.947Z" fill="black"/>
</svg>
