<svg width="320" height="320" viewBox="0 0 320 320" fill="none" xmlns="http://www.w3.org/2000/svg">
<path d="M267.6 46.7C267.6 46.7 266.9 43.8 263.6 39C255.7 27.3 240 38.5 240 38.5C240 38.5 201.6 63.7 198.8 65.6C196.1 67.4 191.1 71.3 185.4 70C181.2 69.1 164.2 68.2 160 68.4C156 68.4 138.8 69.1 134.6 70C128.9 71.3 124 67.4 121.2 65.6C118.5 63.8 80.2 38.5 80.2 38.5C80.2 38.5 64.5 27.3 56.6 39C53.3 43.9 52.6 46.7 52.6 46.7C52.6 46.7 37.4 92.9 50 153.3C50 153.3 47.1 217 86.2 252.6C86.2 252.6 94.4 262.7 95 263.4C95.5 263.9 105.1 275.1 110.2 283C115.3 290.9 131.2 312.1 141.5 316.1C141.5 316.1 150.3 320.1 160.2 319.9C169.5 319.7 178.3 316.1 178.3 316.1C191.1 311 204.3 290.3 209.4 282.6C214.5 274.7 223.7 263.6 224.2 262.8C224.7 262.3 233.7 252.4 233.7 252.4C270.8 216.5 270.1 153.1 270.1 153.1C282.8 92.9 267.6 46.7 267.6 46.7V46.7ZM99.3 196C86.3 188.9 86.1 177.5 91.1 171.7C94.8 167.3 101.9 166.2 109.2 166.2C130.2 166.2 133.4 180.5 133.9 184.3C135.5 199.8 117.7 206 99.3 196V196ZM159.4 298.8C141.5 298.3 128.1 286.2 134 268.8C138.6 255.4 160 255.8 160 255.8C160 255.8 179.9 255.8 185.1 267C192.2 281.9 179.6 299.3 159.4 298.8ZM220.6 196C201.8 205.3 184.4 200.4 186 184.8C186.4 180.4 188.4 166.3 209.4 166.3C216.7 166.3 225.1 167 229.2 172C235.4 179.3 231.7 190.5 220.6 196V196Z" fill="black"/>
</svg>
