<svg width="320" height="320" viewBox="0 0 320 320" fill="none" xmlns="http://www.w3.org/2000/svg">
<path d="M280.1 52.8C276.6 49.5 265.2 38.8 253.7 41.4C248.7 42.6 244.3 46.1 243 47.1C237.9 51.2 235.6 55.5 233 59.9C225 73.5 219.4 83 210.3 86.2C204.9 88.2 200.1 87.2 194.6 86.2C180.3 83.4 171.3 73.9 167.5 69.8C163.2 65.1 160.5 60.7 158.9 57.7C156.3 64.5 152.8 69.2 150.3 72C148.2 74.4 138.4 84.9 122.5 87C117.9 87.6 113.4 88.2 108.2 86.3C101.8 83.9 97.7 78 89.7 66.3C84.9 59.3 81.8 53.7 74.7 46.3C70.5 41.9 68.9 41.1 67.6 40.6C58.3 37.4 47.1 47.3 43.4 50.6C24.2 67.6 21.2 93.5 20.6 99.8C20.1 105.5 17.2 137.2 39.1 160.4C44.7 166.3 50.5 170.1 54.8 172.5C54.9 177.6 55.1 184.9 55.5 193.9C56.2 208.8 56.6 216.3 57.6 220.3C62.6 239.3 77.4 251.8 79 253.1C85.9 258.5 92.3 264.5 99 270.2C99.9 271 101.2 272.1 102.6 273.8C107.3 279.6 106.4 284 109 290.2C112.9 299.7 121.2 304.4 122.5 305.2C127.5 308 132.3 308.6 135.3 308.8C139.1 311.7 142.7 313.4 145.3 314.5C147.4 315.3 151 316.8 155.9 317.2C158.1 317.4 159.7 317.3 160.2 317.3C163.5 317.2 166.3 316.5 170.2 315.2C173.6 314 178.6 312.1 184.5 308.8C187.8 308.5 191.8 307.5 195.9 305.2C201.5 302.1 204.7 297.8 206.6 295.2C208.3 292.8 209.5 290.7 210.4 288.8C213.9 281.3 212.9 277.7 216.6 273.1C217.6 271.9 218.1 271.6 221.6 268.8C224.9 266.2 229.5 262.4 235.1 257.4C243.9 250.8 254.1 238.4 259.3 225.3C261.7 219.2 262.1 213.2 262.9 201.1C263.6 189 263 178.9 262.2 171.9C265.3 170.6 269.7 168.4 274.3 164.8C295.6 148.2 297.9 120.5 298.5 112.8C299.1 107.4 301.9 73.3 280.1 52.8V52.8ZM132.6 194.6C131.5 199.4 128.1 202.2 126.9 203.2C120.6 208.3 112.8 207.1 110.5 206.8C109.2 206.6 104.2 205.7 99.1 201.8C93.1 197.1 90.7 191 89.8 187.5C89 184.5 86.5 174.7 91.9 169.7C95 166.8 99.2 166.9 103.3 166.8C110.6 166.8 115.9 169.7 118.3 171.1C120.5 172.3 124.3 174.5 127.6 178.9C129.8 181.8 134.3 187.6 132.6 194.6V194.6ZM183.9 263C183.2 265.5 181.6 265.5 180.3 269.4C179.7 271.3 178.8 274 179.6 276.5C179.8 277 180.1 278 180.3 279.4C180.5 280.8 180.4 281.9 180.3 282.3C179.8 285.6 174.5 287.7 173.9 288C170.3 289.4 168.7 288.8 160.4 288.7C152 288.7 150.5 289.3 146.9 288C144.7 287.2 140.8 285.8 139.8 282.3C139.1 279.9 140 277.6 140.5 276.6C140.9 274.9 141.3 272.3 140.5 269.5C139.3 265.2 136.4 264.4 136.2 260.9C136 257.3 139 254.6 139.8 253.8C140.7 252.9 142.5 251.5 147.6 250.2C149.8 249.6 154.1 248.7 160.4 248.8C165.4 248.8 170.3 249.4 175.4 250.9C178.9 252 180.1 252.8 181.1 253.8C183.3 255.9 184.8 259.7 183.9 263V263ZM229 187.4C228.1 190.8 225.8 197 219.8 201.7C214.8 205.6 209.7 206.5 208.4 206.7C206.1 207.1 198.4 208.2 192.1 203.1C190.9 202.1 187.5 199.3 186.4 194.5C184.8 187.6 189.2 181.7 191.4 178.8C194.7 174.4 198.5 172.2 200.6 171C202.9 169.7 208.2 166.7 215.5 166.7C219.6 166.7 223.8 166.7 226.9 169.6C232.3 174.7 229.8 184.5 229 187.4V187.4Z" fill="black"/>
</svg>
