<svg width="320" height="320" viewBox="0 0 320 320" fill="none" xmlns="http://www.w3.org/2000/svg">
<path d="M81 210.2C74.7 187.2 80.2 167.4 82.7 157.9C86.3 144.7 93.4 118.9 117.6 103.9C136 92.3999 155 93.0999 162.9 93.3999C171.1 93.6999 188.1 94.4999 204.7 105.6C229 121.8 235.2 148.5 237.8 159.6C239.8 168 245 191.9 234.3 218.9C219.8 255.5 187.1 270 180.3 272.9C179 275.2 176.8 278.4 173.3 281.6C169.5 285.1 166 288.3 161.1 288.6C155.3 288.9 150.7 284.8 147.2 281.6C143.7 278.4 141.5 275.1 140.2 272.9C134 270.4 92.5 252.5 81 210.2V210.2Z" fill="black"/>
<path d="M27 189.3C26 188.9 25.5 188 25.3 187.6C19.9 177.3 20.1 166.7 20.1 166.7C20.2 164.1 20.5 156.2 23.6 145.8C24.4 143.3 27.3 134 34.1 123.1C36.3 119.5 39.4 114.5 44.6 109.2C52.1 101.4 61.7 91.3001 74.2 91.8001C87.9 92.3001 96.9 105 98.6 107.5C97.7 108.3 96.5 109.4 95.1 111C92.1 114.4 90.5 117.2 88.1 121.5C81.4 133.3 82.3 131.3 81.1 133.7C77.8 140.4 75.8 146.2 74.1 145.9C73.5 145.8 73.5 144.9 72.4 144.2C70.9 143.2 68.8 143.6 67.2 144.2C64.4 146.8 60.6 150.8 56.7 156.4C53.3 161.3 53.8 162 49.7 168.6C49.7 168.6 43 179.7 32.3 187.8C30.9 188.5 28.8 190 27 189.3V189.3Z" fill="black"/>
<path d="M126.3 274.7C121.4 272.6 115.2 269.3 108.9 264.2C100.4 257.5 94.9 250.3 91.5 245C91 246.7 90.3 249.1 89.8 252C88.1 261.1 89.1 268.3 89.8 272.9C91.3 282.9 94.3 289.9 96.8 295.6C97.2 296.5 100.9 304.8 107.3 309.5C108.7 310.6 110.6 311.7 112.5 311.2C114.2 310.8 115.2 309.1 116 307.7C119 302.4 123 286.8 129.9 276.3C129 276 127.8 275.3 126.3 274.7V274.7Z" fill="black"/>
<path d="M133.3 89.9C133.2 85.7 133.2 79.7 133.3 72.5C133.5 63.2 134.1 49.2 136.8 32.4C138 25 139.4 18.4 143.8 11.5C147.7 5.29998 151.1 3.49998 152.5 2.79998C153.5 2.29998 160.7 -1.00002 168.2 2.79998C174.5 5.99998 176.5 12 176.9 13.3C179.4 20.2 181 26.2 182.1 30.7C186.4 48.4 187 62.8 187.3 72.5C187.6 79.8 187.4 85.8 187.3 89.9C180.3 86.5 174.1 85.2 169.9 84.7C164.1 84 159.6 84.4 156 84.7C154.4 84.8 147.4 85.5 138.6 88.2C136.3 88.8 134.6 89.5 133.3 89.9V89.9Z" fill="black"/>
<path d="M293.5 189.3C294.5 188.9 295 188 295.3 187.6C300.8 177.3 300.6 166.7 300.6 166.7C300.5 164.1 300.2 156.2 297.1 145.8C296.3 143.3 293.4 134 286.5 123.1C284.2 119.5 281.1 114.5 275.9 109.2C268.3 101.4 258.6 91.3001 245.8 91.8001C231.9 92.3001 222.8 105 221 107.5C221.9 108.3 223.1 109.4 224.5 111C227.5 114.4 229.1 117.2 231.6 121.5C238.4 133.3 237.5 131.3 238.7 133.7C242.1 140.4 244.1 146.2 245.8 145.9C246.5 145.8 246.4 144.9 247.6 144.2C249.2 143.2 251.3 143.6 252.9 144.2C255.7 146.8 259.6 150.8 263.5 156.4C266.9 161.3 266.5 162 270.6 168.6C270.6 168.6 277.4 179.7 288.3 187.8C289.5 188.5 291.7 190 293.5 189.3V189.3Z" fill="black"/>
<path d="M192.6 274.7C197.6 272.6 203.8 269.3 210.3 264.2C218.9 257.5 224.5 250.3 228 245C228.6 246.7 229.2 249.1 229.8 252C231.5 261.1 230.5 268.3 229.8 272.9C228.3 282.9 225.3 289.9 222.7 295.6C222.3 296.5 218.5 304.8 212.1 309.5C210.7 310.6 208.7 311.7 206.8 311.2C205 310.8 204.1 309.1 203.3 307.7C200.2 302.4 196.2 286.8 189.1 276.3C189.9 276 191.1 275.3 192.6 274.7V274.7Z" fill="black"/>
</svg>
