<svg width="320" height="320" viewBox="0 0 320 320" fill="none" xmlns="http://www.w3.org/2000/svg">
<path d="M71.148 128.66C68.685 127.168 66.404 125.891 64.231 124.452C58.258 120.495 52.776 115.934 47.835 110.739C45.693 108.487 43.768 106.063 42.633 103.127C42.299 102.263 42.111 101.324 41.982 100.402C41.367 96.001 45.218 93.699 48.698 94.282C49.413 94.402 50.123 94.554 51.03 94.371C50.558 93.966 50.088 93.559 49.614 93.156C46.127 90.186 42.551 87.313 39.182 84.215C36.81 82.034 34.663 79.597 32.525 77.177C31.232 75.713 30.345 73.967 29.8 72.062C29.002 69.275 29.811 66.575 32.062 64.844C34.192 63.206 36.575 62.277 39.305 62.167C48.017 61.815 56.227 63.781 64.106 67.373C73.587 71.695 82.065 77.604 90.302 83.898C95.431 87.818 100.553 91.753 106.113 95.059C110.903 97.907 116.088 99.627 121.624 100.258C124.226 100.555 126.837 100.98 129.444 100.986C132.734 100.993 136.024 100.622 139.315 100.431C142.474 100.248 145.632 99.973 148.793 99.942C156.274 99.87 163.759 99.789 171.236 99.963C176.815 100.093 182.383 100.657 187.96 100.937C189.832 101.031 191.726 100.933 193.595 100.764C196.066 100.541 198.537 100.244 200.984 99.832C206.208 98.953 211.095 97.08 215.449 94.083C220.82 90.386 226.077 86.52 231.311 82.63C239.145 76.807 247.187 71.341 256.09 67.242C261.188 64.895 266.513 63.305 272.069 62.623C274.995 62.264 277.971 62.236 280.926 62.214C283.728 62.193 286.174 63.333 288.26 65.137C290.338 66.934 290.911 69.281 290.228 71.909C289.498 74.719 287.788 76.968 285.918 79.104C282.978 82.462 279.627 85.387 276.225 88.256C274.114 90.036 271.985 91.795 269.869 93.569C269.566 93.823 269.29 94.107 269.098 94.69C269.777 94.565 270.454 94.432 271.134 94.318C273.253 93.964 275.155 94.376 276.687 95.969C278.463 97.815 278.302 100.015 277.66 102.214C276.752 105.324 274.838 107.86 272.66 110.169C266.056 117.168 258.65 123.161 250.18 127.788C249.828 127.98 249.485 128.189 248.946 128.502C249.145 128.961 249.264 129.476 249.552 129.866C252.482 133.838 254.852 138.153 256.983 142.573C261.016 150.939 264.306 159.562 265.935 168.786C266.836 173.889 267.712 178.991 268.055 184.148C268.408 189.451 268.419 194.765 267.885 200.088C266.566 213.235 260.553 223.985 251.212 232.992C246.202 237.823 240.358 241.481 233.919 244.226C231.317 245.336 228.778 246.638 226.072 247.44C221.837 248.696 217.548 249.787 213.245 250.789C211.131 251.281 208.933 251.406 206.776 251.713C204.227 252.075 201.68 252.454 199.131 252.822C198.932 252.851 198.728 252.847 198.526 252.856C195.856 252.969 193.185 253.108 190.518 253.241C183.938 253.567 177.345 253.624 170.755 253.736C163.829 253.854 156.903 253.981 149.977 253.971C145.614 253.965 141.25 253.719 136.887 253.57C134.88 253.502 132.873 253.418 130.867 253.324C127.727 253.176 124.578 253.108 121.45 252.827C118.755 252.585 116.091 252.001 113.397 251.73C109.503 251.338 105.675 250.617 101.891 249.66C96.519 248.301 91.262 246.677 86.189 244.332C80.35 241.634 74.874 238.449 70.084 234.186C61.298 226.368 55.362 216.791 52.855 205.228C51.78 200.271 51.609 195.222 51.7 190.164C51.829 183.019 52.675 175.965 54.046 168.944C55.221 162.924 56.779 157.043 59.099 151.371C61.596 145.266 64.392 139.303 67.881 133.689C68.626 132.49 69.452 131.341 70.231 130.162C70.518 129.726 70.778 129.268 71.148 128.66V128.66ZM139.688 178.777C139.458 170.042 137.161 162.734 132.315 156.159C129.507 152.35 126.148 149.217 121.526 147.755C120 147.272 118.414 146.951 116.837 146.66C111.746 145.72 106.956 146.802 102.924 149.861C94.778 156.041 91.237 164.3 93.442 174.472C96.066 186.574 106.782 194.226 119.357 193.938C122.856 193.858 126.274 192.965 129.504 191.566C132.416 190.304 135.152 188.748 137.368 186.393C138.703 184.974 139.499 183.624 139.565 181.398C139.592 180.53 139.642 179.651 139.688 178.777V178.777ZM180.323 177.957C180.302 183.811 180.938 185.579 184.629 188.193C191.765 193.247 199.587 195.137 208.278 193.07C219.199 190.473 228.376 179.815 227.005 166.806C226.208 159.241 222.448 153.367 216.16 149.258C212.104 146.607 207.528 145.846 202.66 146.69C197.278 147.622 192.816 149.981 189.258 154.171C183.249 161.247 180.487 169.466 180.323 177.957V177.957ZM159.863 245.658C161.53 244.308 162.288 242.576 162.991 240.847C165.445 234.815 167.334 228.61 168.761 222.249C170.16 216.014 170.707 209.79 169.459 203.465C168.776 200.007 167.603 196.761 165.874 193.686C163.04 188.645 157.153 188.359 154.187 193.609C153.235 195.295 152.363 197.066 151.748 198.896C149.743 204.86 149.252 211.002 150.251 217.206C151.621 225.712 154.134 233.908 157.317 241.903C157.865 243.277 158.55 244.57 159.863 245.658Z" fill="black"/>
</svg>
