<svg width="320" height="320" viewBox="0 0 320 320" fill="none" xmlns="http://www.w3.org/2000/svg">
<path d="M95.636 157.821C83.669 154.023 73.794 148.646 71.681 134.291C70.336 125.158 69.214 115.777 74.703 107.431C87.184 108.861 91.217 111.965 109.002 133.691C109.673 132.45 109.218 118.883 108.331 112.777C118.167 104.741 135.217 101.715 147.609 104.401C148.571 107.692 148.92 110.934 150.005 114.644C156.287 116.042 162.508 115.623 169.183 114.971C170.249 111.418 171.282 107.972 172.308 104.554C182.688 101.228 199.891 105.081 212.243 113.211C212.243 113.211 211.202 123.81 212.125 132.51C212.959 131.768 213.338 130.65 213.884 129.775C217.635 123.768 222.268 118.548 227.842 114.218C232.582 110.536 237.664 107.474 243.676 106.946C249.875 116.031 250.367 127.515 245.956 141.791C242.286 153.671 233.475 155.793 223.907 157.136C222.178 166.49 220.643 175.636 218.751 184.708C217.645 190.013 215.299 193.797 210.844 197.22C208.14 199.297 206.159 201.744 204.778 204.953C203.616 207.652 201.767 210.154 199.827 212.403C190.967 222.673 189.044 228.623 189.262 241.555C189.323 245.199 189.411 248.845 189.587 252.485C189.73 255.449 189.453 258.598 190.372 261.325C192.106 266.47 190.761 270.646 187.194 274.09C183.758 277.408 181.117 280.985 179.57 285.569C177.7 291.111 173.325 294.395 167.725 295.108C162.492 295.775 157.058 295.891 151.828 295.271C145.876 294.565 141.2 291.204 139.231 285.225C137.832 280.977 135.511 277.515 132.378 274.385C128.845 270.854 127.533 266.701 128.985 261.583C129.778 258.788 129.545 255.679 129.615 252.708C129.677 250.049 128.931 247.236 129.561 244.75C132.275 234.045 128.445 230.677 125.295 220.893C124.604 218.746 123.181 216.707 121.685 214.973C118.397 211.164 115.433 207.226 113.363 202.577C112.594 200.85 111.084 199.271 109.551 198.098C103.872 193.755 101.348 188.842 100.146 182.059C98.701 173.908 97.122 165.779 95.636 157.821V157.821ZM159.851 253.296C156.566 250.86 153.944 248.907 151.311 246.969C149.98 245.989 148.708 244.886 147.264 244.112C145.119 242.962 142.352 243.927 141.249 245.993C140.061 248.218 140.462 251.01 142.368 252.266C143.735 253.167 145.255 253.918 146.805 254.447C154.161 256.954 158.959 261.171 157.865 269.804C157.658 271.441 157.543 273.191 159.953 273.145C162.363 273.099 161.506 270.697 161.367 269.456C160.519 261.866 164.364 257.615 171.054 255.127C173.211 254.324 175.338 253.296 177.253 252.029C179.124 250.791 179.415 248.795 178.535 246.729C177.523 244.354 174.972 242.976 172.887 243.883C171.392 244.533 170.014 245.509 168.693 246.485C166.038 248.446 163.457 250.508 159.851 253.296V253.296ZM114.277 174.191C109.705 174.183 107.066 176.039 107.044 178.369C106.996 183.4 110.356 188.393 114.95 190.114C117.528 191.08 120.586 190.303 122.306 188.245C125.807 184.056 124.582 177.829 119.648 175.663C117.59 174.759 115.27 174.452 114.277 174.191ZM206.51 174.203C198.382 174.118 194.36 178.21 195.733 185.169C196.552 189.317 200.508 191.543 204.436 190.042C208.288 188.569 210.589 185.677 211.904 181.864C213.443 177.398 211.246 174.253 206.51 174.203Z" fill="black"/>
<path d="M44.925 122.191C44.49 115.83 44.701 110.033 45.422 104.779C38.6 104.004 31.763 100.825 26.702 96.086C26.43 102.892 27.038 109.919 28.693 116.973C31.719 121.673 39.129 123.328 44.925 122.191Z" fill="black"/>
<path d="M91.673 72.805C94.953 74.944 98.014 77.858 100.69 81.57C108.585 73.067 121.513 67.534 133.55 66.765C128.512 57.614 122.009 49.894 113.888 44.338C101.698 46.533 93.625 60.945 91.673 72.805Z" fill="black"/>
<path d="M57.151 77.6119C59.768 74.831 62.67 72.677 65.733 71.149C61.005 60.626 60.788 46.919 65.954 36.45C57.766 38.549 50.091 43.756 43.731 51.096C41.523 61.275 48.631 71.6989 57.151 77.6119V77.6119Z" fill="black"/>
<path d="M36.459 61.433C32.487 68.406 29.521 76.419 27.936 85.017C31.222 91.626 39.325 96.54 46.917 97.147C48.25 92.052 50.128 87.617 52.416 83.861C44.728 78.488 38.587 70.323 36.459 61.433V61.433Z" fill="black"/>
<path d="M104.869 88.733C106.668 94.416 106.845 97.058 107.906 104.034C116.857 96.585 137.381 94.283 146.474 97.923C144.786 88.439 141.403 82.499 137.324 74.525C125.606 74.195 111.755 79.794 104.869 88.733V88.733Z" fill="black"/>
<path d="M105.011 39.446C96.744 35.865 87.138 34.224 76.106 35.012C68.43 43.465 68.412 58.558 73.236 68.702C76.95 68.099 80.74 68.342 84.421 69.428C86.988 57.354 94.239 45.11 105.011 39.446Z" fill="black"/>
<path d="M32.511 128.856C36.709 139.078 43.309 149.117 52.841 158.358C49.225 147.994 46.939 138.502 45.738 129.885C41.395 130.612 36.716 130.276 32.511 128.856V128.856Z" fill="black"/>
<path d="M275.671 122.191C276.106 115.83 275.895 110.033 275.174 104.779C281.996 104.004 288.833 100.825 293.894 96.086C294.166 102.892 293.558 109.919 291.903 116.973C288.877 121.673 281.468 123.328 275.671 122.191V122.191Z" fill="black"/>
<path d="M228.923 72.805C225.643 74.944 222.582 77.858 219.906 81.57C212.011 73.067 199.083 67.534 187.046 66.765C192.084 57.614 198.587 49.894 206.708 44.338C218.899 46.533 226.971 60.945 228.923 72.805Z" fill="black"/>
<path d="M263.446 77.6119C260.83 74.831 257.927 72.677 254.864 71.149C259.592 60.626 259.809 46.919 254.643 36.45C262.831 38.549 270.506 43.756 276.866 51.096C279.074 61.275 271.965 71.6989 263.446 77.6119Z" fill="black"/>
<path d="M284.137 61.433C288.109 68.406 291.075 76.419 292.66 85.017C289.374 91.626 281.271 96.54 273.679 97.147C272.346 92.052 270.468 87.617 268.18 83.861C275.868 78.488 282.01 70.323 284.137 61.433V61.433Z" fill="black"/>
<path d="M215.728 88.733C213.929 94.416 213.752 97.058 212.69 104.034C203.739 96.585 183.215 94.283 174.122 97.923C175.81 88.439 179.193 82.499 183.272 74.525C194.99 74.195 208.842 79.794 215.728 88.733Z" fill="black"/>
<path d="M215.585 39.446C223.852 35.865 233.458 34.224 244.49 35.012C252.166 43.465 252.184 58.558 247.36 68.702C243.646 68.099 239.856 68.342 236.175 69.428C233.608 57.354 226.358 45.11 215.585 39.446Z" fill="black"/>
<path d="M288.086 128.856C283.888 139.078 277.288 149.117 267.756 158.358C271.372 147.994 273.658 138.502 274.859 129.885C279.202 130.612 283.88 130.276 288.086 128.856Z" fill="black"/>
</svg>
