<svg width="320" height="320" viewBox="0 0 320 320" fill="none" xmlns="http://www.w3.org/2000/svg">
<path d="M238.9 153.1C234.3 143.9 219.9 126.3 224.6 119.6C232.5 108.9 239.8 92.9 238.3 71.3C235.3 27.2 215.3 6.80002 208.6 4.00002C201.9 1.20002 191.9 3.10002 188.8 24.1C186.8 37.9 183.3 77.8 181.1 103.6C180.1 112.9 180.1 115.3 173.5 114.4C168.8 113.6 151.1 113.6 146.4 114.4C139.8 115.3 139.8 112.9 138.8 103.6C136.6 77.8 133.1 37.8 131.1 24.1C128.1 3.20002 118 1.20002 111.3 4.00002C104.6 6.80002 84.7 27.2 81.6 71.3C80.1 92.9 87.5 108.9 95.3 119.6C100 126.3 85.5 143.8 81 153.1C61.2 193.3 45.3 240.2 62.2 273.8C79.1 307.4 127.6 316.7 159.2 316.7H160.6C192.2 316.7 240.7 307.4 257.6 273.8C274.6 240.2 258.7 193.3 238.9 153.1V153.1ZM102.8 234.2C99.8 241.2 92.3 240.8 88 234.6C84.3 229.3 81.5 221.6 83.4 211.2C85.8 198.8 91.4 189.5 96.8 185.3C100.8 182.2 106.2 185.3 106.9 189.7C108.6 199.4 110 217.2 102.8 234.2V234.2ZM177.6 284.4C173.1 286.8 168.8 289.5 167.4 292.2C166.1 294.9 164.2 297.3 159.9 297.3C155.6 297.3 153.8 294.9 152.4 292.2C151.1 289.5 146.8 286.8 142.2 284.4C137.7 282 133.6 277.4 137.9 276.4C142.2 275.3 177.5 275.3 181.8 276.4C186.2 277.5 182.2 282 177.6 284.4V284.4ZM232 234.6C227.7 240.8 220.1 241.2 217.2 234.2C210 217.2 211.4 199.3 213 189.8C213.8 185.4 219.1 182.3 223.1 185.4C228.6 189.6 234.2 198.8 236.5 211.3C238.6 221.6 235.7 229.3 232 234.6Z" fill="black"/>
</svg>
