<svg width="320" height="320" viewBox="0 0 320 320" fill="none" xmlns="http://www.w3.org/2000/svg">
<path d="M289.7 103.7C267.9 89.9 231.2 72.7 231.2 72.7C231.2 72.7 236.6 54 208.9 34.8C180.9 15.3 110.2 3.7 63.3 35.1C-6.00001 81.3 -3.10001 167.6 60 235.3C94.8 272.7 102.1 308.3 102.1 308.3C102.1 308.3 126.7 320.1 166.5 319.5C196.6 317 210.7 310.7 210.7 310.7C182.9 256 142.3 226.4 111.3 189.6C78.6 150.8 90.7 134.9 102.2 131.1C112 127.8 121.9 130.3 156.3 138C200.5 147.9 204.7 136.3 204.7 136.3C262.4 163.5 265.6 167.8 269.1 194.1C271.2 209.5 269.5 256.4 282.4 256.4C292.6 256.4 318.2 211.3 319.1 167.7C320 123.8 312.9 118.4 289.7 103.7V103.7ZM183.3 79.6C177.6 100.2 145.7 81.3 145.7 72.4C145.8 67.3 154.1 64.6 164 64.7C174.7 64.7 185.6 71.5 183.3 79.6V79.6Z" fill="black"/>
</svg>
