<svg width="320" height="320" viewBox="0 0 320 320" fill="none" xmlns="http://www.w3.org/2000/svg">
<path d="M159.996 284.696C129.678 284.97 99.699 282.154 70.711 272.815C61.412 269.82 52.286 265.807 43.769 261.033C37.75 257.659 32.605 252.505 27.632 247.578C25.169 245.138 23.326 241.615 22.308 238.247C14.466 212.316 9.48799 185.957 10.5 158.659C12.504 104.586 42.017 63.8531 93.175 45.5981C118.417 36.5911 144.538 32.1651 171.357 34.1641C197.794 36.1341 223.423 41.7811 246.962 54.6541C281.174 73.3651 301.069 102.229 307.513 140.561C312.182 168.34 308.587 195.545 301.942 222.546C301.124 225.868 299.945 229.115 299.329 232.469C297.426 242.827 291.082 250.107 283.143 256.296C273.911 263.495 263.358 268.145 252.346 271.812C226.96 280.267 200.742 283.758 174.114 284.671C169.414 284.834 164.703 284.696 159.996 284.696V284.696ZM164.323 260.192C169.959 259.876 180.446 259.566 190.879 258.64C208.594 257.067 226.19 254.453 243.026 248.507C250.637 245.819 257.951 242.156 265.129 238.417C269.96 235.9 273.454 231.842 275.05 226.339C281.653 203.588 285.828 180.491 284.25 156.705C281.643 117.404 263.3 88.4521 226.729 72.5511C198.92 60.4591 169.706 56.2701 139.492 60.1461C124.364 62.0871 109.583 65.4581 95.495 71.4191C70.54 81.9781 51.841 98.8591 42.179 124.73C37.872 136.263 35.844 148.26 35.373 160.511C34.543 182.119 38.573 203.048 44.018 223.845C45.972 231.309 50.104 236.299 56.544 239.963C65.353 244.976 74.778 248.394 84.511 251.016C109.06 257.629 134.142 259.905 164.323 260.192V260.192Z" fill="black"/>
<path d="M57.61 128.976C57.332 126.457 59.228 123.118 60.719 120.15C66.946 107.756 76.012 97.9652 88.325 91.4882C98.784 85.9862 109.567 85.3572 120.421 90.5982C124.083 92.3662 127.773 94.0762 131.414 95.8852C150.95 105.592 170.481 105.656 190.041 95.9542C193.875 94.0522 197.766 92.2672 201.627 90.4192C212.06 85.4262 222.517 85.9882 232.563 91.1292C246.836 98.4342 256.809 109.905 262.917 124.686C263.486 126.062 263.725 128.509 262.952 129.259C262.057 130.128 259.729 130.145 258.276 129.703C253.165 128.148 248.141 126.299 243.124 124.451C230.633 119.848 218.059 115.639 204.49 116.061C202.151 116.133 199.757 116.29 197.504 116.864C191.94 118.282 189.007 122.04 188.004 127.707C185.966 139.224 189.797 147.797 200.059 153.561C208.827 158.486 217.564 163.476 226.177 168.667C232.029 172.194 237.764 175.948 243.3 179.948C245.482 181.524 247.318 183.842 248.723 186.176C251.958 191.549 251.353 196.189 247.089 200.813C238.86 209.737 229.16 216.758 218.213 221.891C203.21 228.927 187.473 233.604 170.99 235.792C161.292 237.08 151.759 236.279 142.268 234.401C123.434 230.675 105.357 224.869 89.51 213.646C84.473 210.079 79.805 205.911 75.357 201.615C69.626 196.078 69.33 189.361 74.795 183.433C78.086 179.863 82.051 176.72 86.197 174.173C95.492 168.463 105.117 163.293 114.548 157.803C118.243 155.652 121.939 153.443 125.361 150.892C134.55 144.04 135.978 136.179 132.438 123.878C130.911 118.573 125.975 116.714 120.818 116.154C112.417 115.241 104.048 115.948 96.04 118.468C87.081 121.287 78.323 124.763 69.54 128.117C63.042 130.597 57.888 131.494 57.61 128.976V128.976ZM161.207 156.279C158.439 156.279 155.665 156.164 152.904 156.305C148.332 156.539 144.067 157.649 140.806 161.209C137.381 164.948 136.602 169.327 139.444 173.487C144.609 181.048 151.732 186.459 161.055 186.375C170.094 186.294 177.054 180.976 182.064 173.606C185.091 169.153 184.459 164.468 180.401 160.955C178.248 159.091 175.394 157.599 172.625 156.989C168.942 156.179 161.212 156.241 161.207 156.279V156.279Z" fill="black"/>
<path d="M114.842 132.068C118.981 132.884 119.994 134.955 118.855 139.028C117.247 144.773 112.506 148.954 106.592 149.637C99.506 150.456 93.532 148.218 89.125 142.537C85.592 137.983 86.58 134.469 92.082 133.011C96.349 131.88 111.738 131.456 114.842 132.068Z" fill="black"/>
<path d="M228.922 133.073C234.107 134.485 235.065 137.841 231.859 142.216C227.761 147.807 222.063 150.173 215.194 149.743C209.342 149.377 205.204 146.358 202.686 141.186C199.836 135.332 201.48 132.42 208.048 131.717C210.57 131.448 224.663 131.914 228.922 133.073Z" fill="black"/>
</svg>
