<svg width="320" height="320" viewBox="0 0 320 320" fill="none" xmlns="http://www.w3.org/2000/svg">
<path d="M273.9 48.4C271.9 46.1 267.5 46.3 266 47.1C255.4 52.4 252.8 55.3 243.5 65.6C229 81.8 224.8 82.2 209.1 101.3C206.9 104 205 106.3 203.8 107.9C195.3 103.7 179.3 97.3 158.8 97.3C153.9 97.3 139.7 97.7 123.1 103.9C119.2 105.3 116.1 106.8 113.8 107.9C107.4 98.5 101.4 91 96.6 85.4C88 75.3 90.4 79.8 72.8 61.6C69.3 58 62.9 51.3 53 48.4C49.2 47.3 47.4 47.5 46.4 48.4C42.8 51.6 48.3 63.2 50.4 66.9C52.3 70.3 54 72.2 55.7 73.5C57.7 75.1 58.7 75.2 59.7 76.1C62.7 78.9 61.1 84.4 59.7 92C56.9 107.3 57 120.7 57 127.2V129C57.1 138.1 57.6 162 72.9 174C73.7 174.6 75 175.6 76.9 176.6C72.6 181.1 66.9 188.1 62.3 197.8C61.5 199.6 59.8 203.2 58.3 208.1C56 215.5 55 223.5 54.4 234.9C54 242.9 54.2 254.3 57 268C58.9 266.5 61.6 264.6 64.9 262.7C67.7 261.1 71.6 258.9 76.8 257.4C79.9 256.5 85.6 255 92.7 256.1C100.2 257.3 105.4 260.9 109.9 264C114.8 267.4 117.6 270.4 119.2 271.9C131.7 283.9 153.5 283.8 158.9 283.8C166 283.8 187.1 283.7 201.2 270.6C205 267 209.6 261.4 218.4 258.7C223.6 257.1 228 257.3 231.6 257.4C243 257.7 251 261.8 252.8 262.7C256.3 264.5 259 266.5 260.7 268C261 267.4 261.5 266.5 262 265.4C266.5 255.5 266 246.3 264.6 235C262.2 214.3 261 204 256.7 195.3C252.4 186.7 247.2 180.6 243.5 176.8C245.2 175.4 247.6 173.2 250.1 170.2C263.7 154 264.4 133.9 264.7 125.2C265 114.1 265.2 102.6 262.1 89.5C261 85.1 259.3 79.2 262.1 73.6C264.4 68.9 267.7 69 271.4 63C273.7 59 276.7 51.7 273.9 48.4V48.4ZM132.3 196.6C131.5 201 128.2 203.6 127 204.5C125.4 205 116.9 207.7 108.5 203.2C103 200.3 100.2 195.7 99.2 193.9C97.5 190.8 97 188.1 96.6 186C95.8 182.1 94.6 175.6 97.9 172.8C99.1 171.8 100.3 171.7 101.9 171.5C103.5 171.3 108.2 171 116.5 175.5C121.3 178.1 125.2 180.2 128.4 184.8C130.3 187.5 133.2 191.6 132.3 196.6ZM173.3 247.7C172.7 249.5 167.3 255.5 165.4 257.8C164 259.4 161.9 261.7 158.8 264.1C156.1 261.8 153.9 259.7 152.2 257.8C149.5 254.9 144.8 249.2 144.3 247.7C143.9 246.4 143.4 244.5 144.3 242.7C145.3 240.6 147.5 239.7 149.6 238.9C153.2 237.5 156.3 237.6 158.9 237.6C162.7 237.7 165.5 238.5 166.8 238.9C170 239.9 172.3 240.6 173.4 242.7C174.2 244.5 173.8 246.3 173.3 247.7V247.7ZM222.7 186C222.3 188.2 221.8 190.8 220 193.9C219 195.7 216.2 200.2 210.7 203.2C202.2 207.7 193.7 205.1 192 204.5C190.8 203.6 187.5 200.9 186.7 196.6C185.7 191.6 188.7 187.5 190.7 184.7C194 180.2 197.8 178.1 202.7 175.4C211 170.9 215.8 171.2 217.4 171.4C219 171.6 220.2 171.8 221.4 172.7C224.7 175.6 223.5 182.1 222.7 186V186Z" fill="black"/>
</svg>
