<svg width="320" height="320" viewBox="0 0 320 320" fill="none" xmlns="http://www.w3.org/2000/svg">
<path d="M263.9 195.5C263.4 194.6 253.6 178.2 242.9 168.6C240.2 166.1 238.7 164.1 236.3 162C234.5 160.5 233.7 159.9 231.7 158.1C230.8 157.3 229 155.6 226.5 152.9C221.8 147.8 216.8 141.4 210.1 132.6C208.6 130.7 206.6 128 204.2 124.7C204.4 120.9 205.6 91.2 205.5 67.7C205.5 64.6 205.4 57.8 203.5 49.4C202.3 44 201.1 38.8 197.6 33C193.4 25.9 188.2 21.9 183.8 18.6C180.4 16 176.8 13.3 171.4 11.4C167.7 10.1 164.8 9.80002 161.6 9.40002C154.9 8.60002 149.4 9.10002 146.5 9.40002C146.5 9.40002 136.3 10.6 130.1 14C128.7 14.8 127.5 15.6 127.5 15.6C126.9 16 126.5 16.4 126.2 16.6C118.4 17.3 112 17.4 107.9 17.3C98.2001 17.1 86.0001 15.9 83.0001 19.9C81.9001 21.4 81.7 23.2 81.7 23.2C81.7 23.5 81.4001 25.9 83.0001 27.8C83.8001 28.7 84.6001 29 86.3001 29.8C88.3001 30.6 90.2 31.7 92.2 32.4C97 34.1 104.8 38.6 111.2 44.2C115.1 47.6 116.8 50 117.8 51.4C119.5 53.9 120.5 56.3 121.1 58C120.7 58.8 120.1 59.9 119.8 61.3C119.7 61.8 119 64.6 119.8 67.9C120.7 71.7 123.2 74.4 125 75.8C126.6 77 131.1 79.6 151.9 73.8C158.1 72.1 163.1 70.4 166.3 69.2C167.7 70.2 169.3 71.5 170.9 73.1C174 76.4 175.8 79.8 176.8 82.3C174.5 82.8 171 83.5 167 84.9C163.9 86 160.9 87.2 158.1 88.6C153 91.1 149.6 93.4 141.5 99.3C135.6 103.6 130.6 107.3 126.4 110.4C124.8 106.5 122.4 101.7 118.5 96.6C115.8 93.1 113.1 90.3 110.6 88.1C103.6 98.6 95.2 114.5 91.6 135.3C87.7 157.6 91.2 175.3 93.6 187.7C95.1 195.6 97.7 208.1 104.7 223.1C111.8 238.2 120.4 249.3 127 256.5C127 263.3 127.6 266.6 128.3 268.3C128.4 268.6 128.8 269.6 129 270.9C129.2 272.8 128.7 274.5 128.3 275.5C125.5 277.5 122.4 280 119.1 283.4C115.7 286.9 113.1 290.3 111.2 293.2C118.2 295.7 124.4 296.7 128.9 297.1C134.5 297.6 139.1 297.4 142 297.1C145.6 296.8 147.7 296.6 150.5 295.8C158.7 293.5 160.2 289.5 170.2 286C172.7 285.1 174.1 284.8 175.4 284.7C180.2 284.2 184.2 285.6 186.5 286.7C189.1 289.3 193.7 293.1 200.3 295.9C207.9 299.1 214.4 299.2 218.6 299.2C228.9 299.2 237.3 296.5 242.8 294C242.1 289.7 240.7 284.1 237.6 278.3C236.5 276.3 235.4 274.6 234.3 273.1C235.1 270.7 236 267.1 236.3 262.6C236.6 257.8 236.1 252.9 233 242.9C228.3 227.5 221.1 212 219.9 206.2C219.8 205.8 219.4 203.7 218.6 201C218.5 200.5 218 199.1 217.3 197.1C216.6 195.1 215.5 192.4 214 189.2C215.7 189.9 218.2 191 221.2 192.5C225.3 194.6 225.7 195.2 229.1 196.7C233.9 198.9 236.8 199.3 244.8 203.7C244.8 203.7 253.6 208.5 260.5 208.9H261.8C264 208.7 266.3 207.8 267 206.9C269 204.5 265.9 198.9 263.9 195.5V195.5ZM157.7 27.8C157.3 30.2 155.1 31.4 154.4 31.7C152.2 32.9 150 32.5 149.2 32.4C147.9 32.2 145.1 31.6 144 29.1C143.3 27.4 143.6 25.3 144.7 23.9C145.7 22.7 146.9 22.3 148 21.9C149 21.6 152.4 20.5 155.2 22.6C155.4 22.7 158.2 24.9 157.7 27.8Z" fill="black"/>
<path d="M83.1001 173.9C80.5001 180 78.6001 185.1 77.2001 189C76.9001 189.8 75.2001 194.5 73.3001 200.8C71.3001 207.3 70.3001 211.1 70.0001 215.9C69.6001 222.4 70.8001 224.3 72.0001 225.1C73.1001 225.9 74.5001 225.8 75.3001 225.8C75.9001 225.8 77.9001 225.6 81.9001 222.5C84.7001 220.3 87.2001 218.3 89.1001 214.6C89.8001 213.3 90.2001 212.1 90.4001 211.3C88.5001 206.3 86.5001 200.1 85.2001 193C83.6001 185.7 83.1001 179.2 83.1001 173.9V173.9Z" fill="black"/>
</svg>
