<svg width="320" height="320" viewBox="0 0 320 320" fill="none" xmlns="http://www.w3.org/2000/svg">
<path d="M22.5 124.1C40.3 136 53.7 144.9 74.2 151.8C80.1 153.8 97 159.2 119.9 160.8C134 161.8 146 161.1 155.1 160.1C144.9 139.1 142.3 120.9 141.6 109.9C139.5 76.8001 150.8 51.2001 156.6 38.0001C162.6 24.4001 164.1 25.9001 177 1.90015C167.8 6.70015 158 16.4001 155.1 19.3001C150.1 24.7001 145 31.0001 139.9 38.2001C137.2 42.0001 134.8 45.6001 132.7 49.2001C126.6 60.3001 116.1 79.6001 113.2 106.8C112.6 112.6 112.4 118.1 112.5 123.3C105.2 124.6 94.3 125.9 81.1 125.5C72.9 125.3 67.5 124.5 57.1 123.3C47.8 122.2 34.5 120.8 18.2 119.6C17.8 119.6 17.1 119.6 16.4 119.8C18.2 121.1 20.3 122.6 22.5 124.1V124.1Z" fill="black"/>
<path d="M73.4 245.3C68.8 249.4 64.7 254.1 59.9 258C59.4 258.4 55.8 261.4 52.4 266.2C52.1 266.7 51.8 267.1 51.5 267.5C72.3 261.1 85.5 256 100.3 245.2C108.4 239.3 132.7 221.2 146 188.3C149.1 180.5 150.9 173.7 152 168.8C144.8 169.3 134.7 169.6 122.8 168.8C108.2 167.8 79.9 165.6 48.7 150.1C33.8 142.7 22.7 134.4 12 125.3V126.1C12.6 137.7 30 152.3 30 152.3C37.3 159.7 48 168.5 62.5 175.2C65.6 176.6 75.5 181 89.2 183.7C97.1 185.3 104.1 185.8 109.4 185.9C107.1 195 104.2 202 101.9 206.9C101.2 208.3 90.7 230.1 73.4 245.3V245.3Z" fill="black"/>
<path d="M182.7 90.4001C181.3 77.8001 178.9 55.4001 183.4 28.3001C185.3 17.0001 188.4 5.2001 186.1 1.1001C183.3 8.1001 179.5 12.6001 178.9 13.4001C167.9 26.9001 160.4 46.9001 156.4 57.6001C152.9 67.0001 146.1 92.7001 151.9 125C154.2 137.8 157.9 148 160.9 154.9C166.8 149 175 141.5 185.6 133.9C213.9 113.7 240.4 106.2 249.2 104C272.5 98.0001 292.7 97.7001 307.8 98.7001C305.5 94.7001 296.1 92.3001 291.8 91.3001C287 90.1001 271.5 86.8001 244.6 91.3001C227.5 94.2001 215.9 98.5001 213.2 99.5001C202.1 103.7 193.1 108.7 186.3 113C185.3 107.8 183.7 100 182.7 90.4001V90.4001Z" fill="black"/>
<path d="M255.3 110.6C246.1 112.9 220.8 119.9 193.9 139C182.7 146.9 174.2 154.8 168.4 160.7C173.6 162.9 180.7 166.2 188.6 171.2C194.9 175.2 214.3 188.1 230.5 212.4C236.9 222 250.7 243.1 253.7 273C254 275.5 254.1 278 254.2 280.4C256.5 275.3 257.1 268 257.4 259.5C257.8 249.5 258.4 231.8 251.4 210.1C247.2 197 240.4 183.1 235.7 173.4C234.2 170.3 232.9 167.7 232 165.9C237.6 158.1 245 149.2 254.5 140.4C255.9 139.1 270.2 126 283.7 118.7C286 117.5 288.2 116.2 290.4 115C298.2 110.8 301.2 109.5 304.6 106C304.8 105.8 305.1 105.5 305.3 105.3C288.2 105.5 273.5 106.1 255.3 110.6V110.6Z" fill="black"/>
<path d="M247 287.6C246.6 279.3 245.4 269.5 242.6 258.8C234.3 227.5 216.4 207.5 211.9 202.7C193 182.4 172.3 173.1 161 169C160.4 171.6 159.4 175.2 158 179.5C155.3 187.7 146.2 213.4 125.8 235.6C101.8 261.7 73.4 270.8 54.7 276.8C54.5 276.9 54.4 276.9 54.2 276.9C55.4 277.2 56.6 277.4 57.7 277.5C75.3 279.6 88.4 275.3 88.4 275.3C102.2 271.3 112.7 266 119.8 261.8C144.2 247.3 158.3 228.2 165.5 218.4C168.8 213.8 171.3 209.9 173 207.2C177.4 210.8 183.7 216.2 191 222.9C201.2 232.3 206.3 237.1 211.2 243.1C220.4 254.4 228.1 268.2 229.2 270C234.5 279.6 238 287.6 244.2 288C245.1 288.1 246.1 287.9 247 287.6V287.6Z" fill="black"/>
</svg>
