<svg width="320" height="320" viewBox="0 0 320 320" fill="none" xmlns="http://www.w3.org/2000/svg">
<path d="M210.1 160.8C211.6 161.8 213.7 163.3 216.8 164.2C219.2 164.9 221.1 164.9 222.1 164.9C233.2 165 235.5 167.7 243.4 166.3C248.5 165.3 251.9 163.4 252.7 162.9C253.5 162.4 256.4 160.6 259.4 157.5C260.2 156.7 259.7 157.1 262.7 153.4C265.1 150.5 266.3 149.2 267.9 147.7C268.8 146.9 269.5 146.3 270 145.9C275.3 141.7 280.7 139.1 280.7 139.1C283 138 284.7 137.3 284.7 136.4C284.7 136.3 284.6 135.8 283.4 135C282.5 134.5 280.3 133.5 275.4 134.3C274 134.5 272.2 134.9 270.1 135.7C266.4 137.8 262.3 140.7 258.1 144.5C256.4 146.1 254.8 147.7 253.4 149.2C251.9 150 250.3 150.9 248.7 151.9C247.3 152.8 245.9 153.7 244.7 154.6C242 154.9 239.7 155.1 238 155.3C234.3 155.6 231 155.9 226.7 156C225.3 156 224.1 156 223.4 156C222.5 155.4 221 154.5 219.4 153.3C214 149.3 211.5 145.7 206.1 139.1C201.2 133.2 198.4 130.2 196.5 128.6C196.4 127.7 196.3 126.7 196.2 125.6C199.6 129.1 203.3 132.3 206.8 135.7C207.3 136.2 208.4 137.3 210.1 137.7C211.5 138.1 212.7 137.9 213.4 137.7C214.5 138.2 216.1 138.7 218.1 139.1C221.4 139.7 223.7 139.2 230.8 137.7C239.1 136 240.2 135.7 242.1 135C245.8 133.6 248.9 131.9 250.1 129.6C250.8 128.1 251.4 126.2 251.4 126.2C251.7 125.1 251.9 124.2 252.1 123.5C254.6 120.5 256.9 118 258.8 116C261.8 112.9 263.3 111.3 264.8 110.6C265.8 110.1 266.9 109.6 266.8 109.2C266.7 108.5 263.5 108.4 261.5 108.5C260.7 108.5 249.6 109.4 244.2 118.7C243.1 120.6 242.5 122.3 242.2 123.4C238.3 125 234.9 126.1 232.2 126.8C230.3 127.3 226.1 128.3 222.1 128.2C221.8 128.2 221.5 128.2 221.5 128.2C219.8 128.1 218.4 127.8 217.5 127.5C216.8 127.2 215.9 127 214.8 126.8C213.7 126.7 212.8 126.7 212.1 126.8C205.8 119.3 199.8 114.5 195.3 111.5C195.2 109.1 195.2 107.5 195.2 107.1C195.2 105 194.9 102.1 194.1 97.6999C194.6 97.8999 195 98.0999 195.5 98.2999C202.2 101.3 204.4 103.1 209.5 105.1C212.6 106.3 217.3 107.8 223.5 108.5C225.4 107.6 228.1 106.2 230.8 103.8C232.3 102.4 234 100.6 236.8 96.2999C239.5 92.1999 241.9 88.3999 244.1 82.6999C246.7 75.9999 247.8 69.5999 248.1 64.3999C248.3 64.0999 248.5 63.5999 248.8 62.9999C248.8 62.9999 249.2 61.9999 249.5 60.9999C251.3 53.3999 248.8 43.9999 248.8 43.9999C246.4 35.1999 241.9 28.6999 238.8 24.9999C235.7 20.9999 228.7 12.4999 216.8 8.69991C208.6 6.09991 202.2 7.09991 200.8 7.29991C198.1 7.79991 193.7 8.59991 189.5 11.9999C187.2 13.8999 185.7 15.9999 184.8 17.3999C190.2 17.7999 194.7 18.2999 198.1 18.7999C208.7 20.2999 212.1 21.6999 214.8 23.4999C217.2 25.1999 219.1 27.1999 219.5 27.5999C221.8 30.0999 223.3 32.5999 224.2 34.3999C220.7 32.5999 217.7 31.2999 215.5 30.2999C209.7 27.7999 206.7 26.5999 202.8 26.1999C200.5 25.9999 197.6 25.9999 194.1 26.8999C193.6 27.7999 193.1 28.8999 192.8 30.2999C191.9 33.9999 192.9 37.0999 193.5 38.3999C193.3 39.6999 193 41.5999 192.8 43.7999C192.6 46.6999 192.3 52.2999 194.1 58.6999C195.1 62.0999 196.9 68.3999 202.8 73.5999C204.4 75.0999 208.7 78.7999 215.5 79.6999C219.5 80.2999 222.8 79.5999 224.8 78.9999C224.4 80.3999 223.8 81.9999 222.8 83.6999C220.5 87.6999 217.4 89.9999 215.5 91.1999C213.6 90.4999 210.6 89.2999 206.8 87.7999C199.6 84.8999 194.4 82.6999 190.6 81.1999C190.9 80.1999 191.2 78.6999 191.1 76.9999C190.9 71.9999 187.8 68.4999 186.4 66.7999C185.3 65.4999 183.3 63.5999 180.3 62.0999C180.2 64.9999 179.8 68.4999 178.9 72.2999C178.3 74.7999 177.6 77.0999 176.9 79.0999C175.4 78.4999 173.3 77.8999 170.8 77.6999C167.7 77.4999 165.1 77.8999 163.3 78.3999C162.9 76.1999 162.4 73.8999 161.9 71.5999C161.3 68.5999 160.6 65.5999 159.9 62.7999C158.2 63.7999 155.9 65.4999 153.8 68.1999C152 70.4999 151 72.7999 150.3 74.7999C146.7 75.8999 140.1 78.7999 127.4 83.7999C123.6 85.2999 120.5 86.4999 118.6 87.1999C116.7 86.0999 113.5 83.7999 111.1 79.6999C110.1 77.9999 109.5 76.2999 109.1 74.9999C111.1 75.5999 114.5 76.1999 118.6 75.6999C125.4 74.7999 129.8 70.9999 131.5 69.5999C137.4 64.3999 139.3 57.9999 140.3 54.6999C142.2 48.2999 141.9 42.6999 141.7 39.7999C141.5 37.5999 141.3 35.6999 141 34.3999C141.6 32.9999 142.6 29.8999 141.7 26.2999C141.4 24.8999 140.8 23.7999 140.3 22.8999C136.8 22.0999 133.8 21.9999 131.5 22.1999C127.5 22.4999 124.5 23.7999 118.6 26.2999C116.4 27.1999 113.3 28.5999 109.8 30.3999C110.7 28.5999 112.2 26.0999 114.5 23.5999C114.9 23.1999 116.8 21.1999 119.2 19.4999C121.9 17.5999 125.3 16.1999 136.2 14.7999C139.7 14.2999 144.3 13.7999 149.8 13.3999C148.9 11.8999 147.4 9.89991 145.1 7.99991C140.8 4.49991 136.4 3.69991 133.6 3.29991C132.1 3.09991 125.7 2.09991 117.3 4.69991C105.1 8.49991 98 17.0999 94.8 20.9999C91.7 24.6999 87 31.1999 84.6 39.9999C84.6 39.9999 82 49.3999 83.9 56.9999C84.2 58.0999 84.6 58.9999 84.6 58.9999C84.8 59.5999 85.1 59.9999 85.3 60.3999C85.6 65.5999 86.7 71.9999 89.4 78.6999C91.6 84.3999 94.2 88.1999 96.9 92.2999C99.8 96.5999 101.5 98.3999 103 99.7999C105.8 102.2 108.5 103.7 110.5 104.5C116.8 103.8 121.6 102.3 124.7 101.1C129.8 99.0999 132.2 97.2999 138.9 94.2999C141.2 93.2999 143.4 92.4999 145.2 91.7999C143.7 94.4999 143.1 94.1999 141.6 96.9999C140.1 99.7999 139.5 103 139.2 107.4C134.6 110.4 128.4 115.2 122 122.7C121.3 122.6 120.4 122.6 119.3 122.7C118.2 122.8 117.3 123.1 116.6 123.4C115.6 123.7 114.2 124 112.5 124.1C112.5 124.1 112.2 124.1 111.9 124.1C107.9 124.2 103.6 123.2 101.7 122.7C99 122 95.5 120.9 91.5 119.3C91.2 118.2 90.6 116.4 89.5 114.6C83.9 105.3 72.7 104.5 71.9 104.4C69.8 104.3 66.6 104.4 66.5 105.1C66.4 105.5 67.5 106 68.5 106.5C70.1 107.3 71.6 108.8 74.6 111.9C76.5 113.8 78.8 116.3 81.4 119.4C81.5 120.1 81.7 121 82.1 122.1C82.1 122.1 82.7 124 83.5 125.5C84.7 127.9 87.9 129.5 91.6 130.9C93.6 131.6 94.7 131.9 103.1 133.6C110.3 135.1 112.6 135.5 116 135C118 134.7 119.6 134.1 120.7 133.6C121.4 133.8 122.7 134 124.1 133.6C125.8 133.2 127 132.1 127.5 131.6C131.1 128.2 134.9 125 138.4 121.4C138.7 121.1 138.9 120.9 139.1 120.7V121.4V123.7C137.1 125 134.1 127.9 128.2 134.9C122.6 141.5 120.1 145.1 114.6 149.1C112.9 150.3 111.5 151.2 110.5 151.8C109.7 151.8 108.5 151.8 107.1 151.8C102.7 151.7 99.3 151.5 95.6 151.1C93.9 150.9 91.6 150.7 88.8 150.4C87.5 149.5 86.2 148.6 84.7 147.7C83.1 146.7 81.5 145.8 80 145C78.6 143.4 77 141.9 75.3 140.3C71.1 136.5 66.8 133.6 63.1 131.5C60.9 130.7 59 130.4 57.7 130.1C52.7 129.3 50.5 130.3 49.6 130.8C48.3 131.5 48.2 132 48.2 132.2C48.2 133.2 49.9 133.8 52.3 134.9C52.3 134.9 57.7 137.5 63.2 141.7C63.7 142.1 64.4 142.7 65.3 143.5C67 145 68.2 146.3 70.6 149.2C73.7 152.9 73.2 152.4 74 153.3C77 156.5 79.9 158.2 80.8 158.7C81.6 159.2 85.1 161.1 90.3 162.1C98.3 163.6 100.7 160.8 112 160.7C113 160.7 115 160.7 117.4 160C120.5 159.1 122.6 157.6 124.2 156.6C130.6 152.4 136 146.9 139.1 143.3V143.7V144.1C138.7 144.6 138.5 144.9 138.4 145.1C137.9 145.8 137.6 146.6 136.4 148.5C135.7 149.5 135.2 150.3 135 150.5C132.9 153.5 128.7 160.2 127.5 162C125.5 165.1 122.5 169.4 118 174.9C117.4 176 116.7 177.2 115.8 178.5C114.5 180.4 113.1 181.9 111.9 183.1C110.5 183.1 108.1 183.3 105.1 183.8C98.3 185 96.9 186.8 92.2 186.5C90.5 186.4 88.6 186 84.7 185.1C82.4 184.6 80.6 184.1 79.3 183.7C78.4 182.6 76.9 180.8 74.6 179C64.9 171.4 50.5 170.3 49.5 172.9C49.5 173 49.4 173.1 49.5 173.6C50.1 176.6 54.9 177 61.7 180.4C66.1 182.6 69.4 185.1 71.2 186.5C73.3 188.1 74 188.9 75.3 189.9C77.4 191.7 82.9 196.2 90.2 197.4C93.2 197.4 95.5 197 97 196.7C97 196.7 107.1 194.8 109.9 193.3C109.9 193.3 110 193.2 110.1 193.2C110.6 193 111 192.8 111.3 192.6C112.5 192.4 114.1 192.1 116 191.2C118.7 190 120.8 188.5 123.5 185.8C130 179.1 134.6 172.4 137.1 168.8C139.2 165.7 139 165.7 140.5 163.4C140.7 165.1 140.9 167.1 141.2 169.5C141.9 175.2 142.4 178.8 142.8 181C142 183.4 141.2 185.4 140.5 187.1C136.6 196.7 132.4 203.2 131 205.4C130.4 206.3 130 207 129.6 207.4C128.8 207.2 127.7 206.9 126.2 206.7C118.3 205.6 111.8 207.7 108.6 208.7C105.4 209.8 102.4 211.2 100.5 212.1C98.8 212.9 97.4 213.6 96.4 214.1C95.6 213.5 94.2 212.5 92.3 211.4C88.4 209.1 82.4 205.6 76 206.7C75 206.9 72.3 207.3 71.9 208.7C71.6 209.9 73 211.2 73.9 212.1C75.7 213.8 77.5 214.6 78 214.8C82.4 216.8 80.6 216.6 89.5 220.9C92.9 222.5 94.3 223.1 96.3 222.9C98.1 222.8 99.1 221.9 100.4 221.5C106.2 219.6 109.1 218.7 112.6 218.1C117.4 217.3 118.4 217.9 123.5 216.7C125.5 216.2 127.2 215.7 128.2 215.3C128.8 215.4 129.8 215.4 130.9 215.3C133.6 215 137.4 213.5 143.8 204.4C145.1 202.5 146.3 200.9 147.3 199.4C149.5 207.8 149.6 207.9 149.9 209.1C153.9 221.5 156.3 223.7 158.7 224.7C160.3 225.3 161.7 225.4 162.8 225.4C162.2 225.8 161.5 226.5 160.8 227.4C158.3 230.7 158.5 234.6 158.8 239.6C158.9 241.4 159.3 245.4 160.8 250.5C161.7 253.3 162.7 255.6 163.5 257.3C162.8 257.9 161.9 258.8 160.8 260C157.8 263.2 155.2 266 153.3 270.2C152.4 272.2 150.7 276.1 151.3 281.1C151.4 282.5 151.7 283.7 152 284.5C151.5 284.5 150.8 284.5 150 284.5C148 284.5 144.7 284.6 141.9 285.2C139.4 285.7 135.3 286.6 132.4 289.9C130.7 291.9 130 294 129.7 295.3C129.2 294.6 128.6 293.6 127.7 292.6C126.6 291.3 124.2 288.6 120.2 286.5C118.9 285.8 114.9 283.9 109.3 283.8C106.8 283.8 104.7 284.1 103.2 284.5C103.2 282.9 103.2 281.3 103.2 279.8C103.2 278.4 103.2 277.1 103.2 275.7C103.8 275.7 104.5 275.8 105.2 275.7C106.6 275.6 107.7 275.3 108.6 275C110.3 274.4 113.7 272.9 116.7 269.6C119.8 266.2 121 262.6 121.4 260.8C118.5 256 117.6 251.8 117.3 249.3C117 246.8 116.7 244.4 118 241.8C118.3 241.1 119.7 238.4 122.7 237.1C124.4 236.4 125.8 236.4 127.4 236.4C129 236.4 131.4 236.7 134.2 237.8C132.4 235.2 127.7 229.4 120 227.6C115.5 226.5 111.2 227.2 108.5 227.6C107.5 227.7 103.7 228.4 99 230.3C96.1 231.5 92.8 232.9 89.5 235.7C84.1 240.3 82.1 245.9 81.4 247.9C81.4 247.9 78.8 255.2 80 262.8C80.2 264.1 80.6 266.4 82 268.9C82.5 269.8 83 270.5 83.4 270.9C82.9 271.4 82.3 272.3 82 273.6C81.8 274.5 81.9 275.2 82 275.6C83 281.8 85.4 285.8 85.4 285.8C87.7 289.7 89.6 292.8 92.9 293.3C94.6 293.6 96 293.1 97 292.6C97.1 293.9 97.4 295.8 98.4 298C101.5 304.8 108.4 307 109.9 307.5C114.7 308.9 118.9 308 120.8 307.5C124.4 306.5 126.9 304.6 128.3 303.4C128.5 304 128.8 305.1 129.7 306.1C130 306.4 130.7 307.3 132.4 308.1C134.2 309 136.1 309.4 137.8 309.5C144.6 309.9 150 306.8 150 306.8C151.1 306.2 155.9 303.3 158.8 297.3C160.1 294.6 160.6 292.2 160.8 290.5C165.3 289.2 168.1 287.1 169.6 285.8C173.6 282.2 175.5 277.8 176.4 275.6C177.1 273.9 177.1 273.4 178.4 270.2C179.1 268.5 179.5 267.6 179.8 266.1C180.1 264.4 180 263 179.8 262C181.9 259.8 183.3 257.6 184.2 256C185.6 253.5 186.3 251.3 186.6 250.2C186.6 250.2 187 249 187.3 247.8C189.4 238.9 185.9 230.8 185.9 230.8C185.4 229.7 184.8 228.5 184 227.1C182.8 225.2 181.6 223.7 180.5 222.6C181 221.9 181.8 220.7 182.5 219.2C184 216.2 184.3 214.1 185.9 208.3C186.6 205.8 186.4 206.5 187.3 203.6C187.3 203.4 187.4 203.3 187.4 203.1C188.4 204.7 189.6 206.4 191 208.4C197.3 217.4 201 218.9 203.7 219.3C204.8 219.4 205.7 219.4 206.4 219.3C207.5 219.7 209.1 220.2 211.1 220.7C216 221.9 217 221.2 221.8 222.1C225.3 222.7 228.1 223.6 233.8 225.5C235 225.9 236.1 226.7 237.8 226.9C239.7 227.1 241.2 226.5 244.5 224.9C253.3 220.6 251.5 220.8 255.8 218.8C256.3 218.6 258.1 217.8 259.8 216.1C260.7 215.2 262.1 213.9 261.8 212.7C261.5 211.3 258.8 210.8 257.8 210.7C251.5 209.7 245.6 213.2 241.8 215.4C240 216.5 238.6 217.5 237.8 218.1C236.9 217.6 235.5 216.9 233.8 216.1C231.9 215.2 229 213.8 225.8 212.7C222.6 211.6 216.2 209.5 208.5 210.7C207.1 210.9 205.9 211.2 205.2 211.4C204.9 210.9 204.4 210.2 203.9 209.4C202.5 207.2 198.4 200.6 194.6 191.1C193.9 189.3 193 187.1 192.2 184.6C192.2 184.5 192.2 184.4 192.3 184.3C193.3 179.5 193.8 177.1 194.1 174.1C194.4 171.6 194.5 169.5 194.6 167.4C196.1 169.7 195.9 169.7 197.9 172.8C200.3 176.4 204.9 183.1 211.2 189.8C213.8 192.6 215.9 194.1 218.5 195.2C220.4 196 222 196.4 223.2 196.6C223.5 196.7 223.9 196.9 224.3 197.2C224.4 197.3 224.5 197.3 224.5 197.3C227.2 198.8 237.2 200.7 237.2 200.7C238.7 201 240.9 201.4 243.9 201.4C251.1 200.2 256.5 195.7 258.6 193.9C259.8 192.9 260.6 192.1 262.6 190.5C264.4 189.1 267.6 186.6 271.9 184.4C278.5 181 283.3 180.6 283.9 177.6C284 177.2 283.9 177 283.9 176.9C282.9 174.3 268.8 175.4 259.2 183C256.9 184.8 255.4 186.7 254.5 187.7C253.2 188.1 251.4 188.6 249.2 189.1C245.4 189.9 243.6 190.4 241.9 190.5C237.3 190.7 235.9 189 229.2 187.8C226.3 187.3 223.9 187.2 222.5 187.1C221.3 185.9 219.9 184.4 218.6 182.5C217.7 181.2 217 180 216.5 178.9C212.1 173.4 209.1 169.1 207.2 166C206 164.1 201.9 157.5 199.9 154.5C199.7 154.3 199.2 153.5 198.6 152.5C197.9 151.4 197.5 150.6 197.2 150.1C197.2 149.7 197.3 149.3 197.3 148.9C200 152.5 204.7 157.1 210.1 160.8V160.8Z" fill="black"/>
</svg>
