<svg width="320" height="320" viewBox="0 0 320 320" fill="none" xmlns="http://www.w3.org/2000/svg">
<path d="M268.5 46.1C266 44.9 262.7 44.1 252.8 47.1C235.6 52.3 223.4 60.9 219.3 63.9C207.5 72.5 200.2 79.7 198.3 81.7C194.2 86.1 191.1 90.1 188.9 93.2C186.6 92.6 183.3 91.8 179.5 91.1C170.7 89.5 163.7 89.1 160.6 89C155.2 88.8 148.4 88.6 139.6 90C134.8 90.8 130.8 91.8 127.9 92.7C126.8 91.9 116.3 78.9 110.1 72.7C101.7 64.2 93.2 58.3 86.4 54.1C86.4 54.1 69 43.4 54.8 43.7C54.4 43.7 53.9 43.8 53.9 43.8C53.8 43.8 53.7 43.8 53.6 43.9C50.7 44.5 46.8 47.8 43.1 65.9C41.5 73.9 40 81.3 40 92.2C40 98.5 40 110.3 44.2 123.6C45.8 128.8 47.9 135.3 52.3 142.4C53.2 143.8 54.4 146.2 57.3 150.6C58.5 152.5 65.1 156.5 62.4 160.9C59.8 165.2 58.5 168.9 56.4 172C53 177.1 47.7 189.6 46.1 194.3C44.4 199.4 42.4 204.4 42.7 213.2C45.5 216.5 50.3 222.3 56.4 226.9C63.3 232 81.6 241.4 90.7 247.5C95.8 250.9 109.8 262.7 113.9 270.7C117.2 277.2 119.9 283.6 124.2 291.3C127.8 297.9 133.9 299.9 135.3 300.7C143.1 305.1 150.2 305.6 154.2 305.8C157.8 306 167.1 306.5 177.4 301.5C185 297.8 189.6 292.9 191.1 291.2C196.5 285.1 196.7 281.1 201.4 272.3C203 269.4 208.2 259.6 216.8 251.7C221.1 247.8 230.3 243.1 248.5 233.7C253 231.4 258.2 228.8 263.9 223.4C268 219.5 270.8 215.7 272.5 213.1C272.2 200.6 269.3 192.1 266.5 186.5C259.7 172.9 256.3 166.1 256.2 165.9C255.6 165 253.8 162.9 253.6 159.9C253.5 158.1 254.2 156.5 255.5 153.2C255.8 152.4 256.7 150.2 258.4 147.1C259.3 145.4 260.6 143.3 262.1 141C262.1 141 265.2 135.9 268.3 129.7C268.6 129 268.8 128.7 269 128.2C269 128.2 270.3 125.5 271.4 122.3C275.3 111.2 276.6 99.2 276.6 99.2C277.6 84.8 276.7 73.1 275.6 64.6C274.1 52 272 47.8 268.5 46.1V46.1ZM133.6 201.3C130.9 206.1 123.1 206.3 120.1 206.4C108.7 206.7 101 199.1 99.8 198C92.7 190.9 91.6 182.2 91.3 179.5C91 176.8 91.1 174.4 91.3 172.8C94.6 171.9 101.6 170.6 109.9 172.8C113.5 173.8 121 176.3 126.8 182.9C128.3 184.4 137.3 194.7 133.6 201.3V201.3ZM174.6 269.9C173.8 273.8 171 276 167.8 278.5C166.1 279.8 164.1 281.3 161 281.9C159.9 282.1 158.1 282.3 155.9 281.9C152.1 281.2 149.7 278.9 147.4 276.8C144.5 274.1 142.9 272.6 142.3 269.9C141.4 265.9 143.2 262.5 144 261.3C146 258.2 148.9 257 150.8 256.2C151.7 255.8 158.6 253 166.1 256.2C168.1 257.1 170.9 258.2 172.9 261.3C173.3 262 175.4 265.5 174.6 269.9ZM226.5 179.4C226.2 182.2 225.1 190.8 218.1 197.9C216.9 199.1 209.2 206.6 197.8 206.3C194.7 206.2 186.9 206.1 184.3 201.2C180.6 194.5 189.7 184.3 191.1 182.7C196.9 176.1 204.4 173.5 208 172.6C216.3 170.4 223.3 171.7 226.6 172.6C226.6 174.3 226.8 176.7 226.5 179.4V179.4Z" fill="black"/>
</svg>
