<svg width="320" height="320" viewBox="0 0 320 320" fill="none" xmlns="http://www.w3.org/2000/svg">
<path d="M292.2 76.5C292 73.8 291.6 70.3 289.1 68.7C287.5 67.6 285.5 68.1 281.3 68.7C275.3 69.6 271.2 72.3 267.2 75C254.4 83.7 248 88 243.7 92.2C239.6 96.2 234.5 101.9 229.6 109.4C228 108.4 226.5 107.3 224.9 106.3C225.3 105.6 225.8 104.5 226.5 103.2C234.4 86.3 233.2 70.2 232.8 65.7C232.5 62.6 231.5 52.4 226.5 40.7C225.2 37.7 224.1 35.6 221.8 31.3C218.1 24.4 214.6 19.9 207.7 11C206.9 10 204.9 7.4 201.4 6.3C200.5 6 197.9 5.2 196.7 6.3C195 7.9 197.1 12.5 198.3 15.7C200.2 20.8 200.6 26.4 201.4 37.6C202 45.4 200.7 51.7 198.3 64.2C196.8 71.9 194.4 82.1 190.5 93.9C189 93.5 186.9 92.9 184.2 92.3C177.1 90.7 168.4 88.7 157.6 89.2C149.7 89.5 143 91 137.3 92.3C134.7 92.9 132.6 93.4 131 93.9C127.1 82.6 124.7 72.9 123.2 65.8C121.3 56.6 120 50.6 120.1 42.3C120.1 33 121.8 25.5 123.2 20.4C124.6 15.4 127.3 8.2 124.8 6.3C123.4 5.3 120.8 6.1 120.1 6.3C117.7 7 116.2 8.5 115.4 9.4C101.9 24.5 96.6 37.5 96.6 37.5C93 46.2 91.3 53.8 90.3 59.4C88.8 68.8 86.9 80.7 91.9 93.8C93.4 97.9 95.2 101 96.6 103.2C95 104.8 93.5 106.3 91.9 107.9C85.7 99.5 79.5 93.4 74.8 89C73.1 87.5 64.4 79.6 52.9 73.4C50.7 72.2 46.7 71 38.8 68.7C36.8 68.1 34.2 67.4 32.5 68.7C30.9 69.9 31.2 72.4 30.9 73.4C30.4 75.3 28.3 82.9 29.3 93.7C30 100.8 31.1 113.7 40.2 125C45.5 131.5 52.2 135.8 57.4 139.1C57.9 139.4 60.4 140.8 64 142.9C67.2 144.7 67.5 144.9 68.3 145.4C70.4 146.5 73.4 147.8 77.7 148.5C77 151.2 76.3 154.9 76.1 159.4C75.7 168.9 78 176.1 79.2 179.7C83.3 192.2 90.3 200 91.7 201.6C95.4 205.7 95.9 205 98 207.9C102.7 214.5 101.1 219.7 102.7 231.4C103.8 239 105 247.9 110.5 256.4C114.8 263 116.5 261.5 121.4 268.9C126.4 276.3 128.6 283.7 130.8 290.8C133.6 300.1 133.4 303.2 137.1 308C137.9 309 141 312.9 146.5 315.8C155.1 320.3 165.9 320.4 174.6 315.8C176.4 314.8 180.6 312.6 184 308C188.6 301.7 186.6 298 190.3 287.7C192.8 280.8 196 276.1 199.7 270.5C205.4 262 206.7 262.7 210.6 256.4C217.4 245.6 219.7 234.4 220 231.4C220.6 224.9 219.9 217.6 224.7 209.5C226.1 207.1 226.3 207.5 229.4 203.2C231.5 200.4 236 193.6 240.3 184.4C244.5 175.6 247 169.3 246.6 160.9C246.3 155.5 244.7 151.2 243.5 148.4C244.7 148 246.3 147.5 248.2 146.8C248.2 146.8 252.4 145.3 256 143.7C259.9 141.9 266.5 138.1 271.6 134.3C286.3 123.6 291.1 102.4 291.9 98.3C293.5 91.9 293 86.7 292.2 76.5V76.5ZM128 189.1C127.7 190.6 126.8 195 123.3 196.9C119.2 199.1 114 196.4 109.2 193.8C106.6 192.4 102.1 189.6 98.3 184.4C96.5 182.1 94.5 179.3 93.6 175C93.1 172.7 92 167.2 95.2 164.1C98.1 161.2 102.9 162 106.1 162.5C116.5 164.2 122.4 172.3 123.3 173.4C125.1 176 129.4 182 128 189.1ZM176.4 281.4C175.8 283.1 175 284.1 173.3 286.1C171.3 288.4 170.3 289.6 168.6 290.8C166.7 292.1 164.2 293.9 160.8 293.9C157.4 293.9 154.9 292.1 153 290.8C151.1 289.5 150 288.1 148.3 286.1C146.6 284.1 145.8 283.1 145.2 281.4C144.8 280.4 143.6 277.1 145.2 275.1C145.8 274.4 146.8 273.7 149.9 273.5C155.5 273.2 156.3 275.1 160.8 275.1C165.3 275.1 166.2 273.2 171.7 273.5C174.8 273.7 175.8 274.3 176.4 275.1C178 277.1 176.8 280.4 176.4 281.4ZM227.3 176.4C226.1 180.6 223.9 183.2 222 185.4C217.9 190.2 213.3 192.7 210.7 193.9C205.9 196.1 200.7 198.4 197 195.9C193.8 193.7 193.3 189.2 193.2 187.7C192.4 180.5 197.1 174.9 199 172.5C199.9 171.4 206.3 163.9 216.4 163C219.5 162.7 224.2 162.3 226.7 165.5C229.4 168.8 227.9 174.2 227.3 176.4V176.4Z" fill="black"/>
</svg>
