<svg width="320" height="320" viewBox="0 0 320 320" fill="none" xmlns="http://www.w3.org/2000/svg">
<path d="M87.5 30.8C95.8 40.2 94.7 61.3 99.1 63.9C99.3 64 100.3 64.5 100.8 65.6C101.4 66.9 100.9 68.2 100.8 68.9C100.4 72.1 108.7 74 117.3 80.5C119.9 82.5 124.5 86.3 128.9 90.4C129 90.5 129.2 90.7 129.4 90.9C129.2 91.3 129 91.7 128.9 92.1C127.9 94.5 123.7 104.4 127.2 110.3C127.7 111.2 129.4 113.7 130.5 116.9C131.9 120.7 131.5 122.1 132.2 123.5C134.3 128 143.5 126.8 158.7 126.8C174.9 126.8 184.3 128.3 186.8 123.5C187.2 122.7 187 122.5 188.5 118.5C190.1 114.1 191.4 111.2 191.8 110.2C194.1 104.8 192.8 97 190.5 91.3C191 91 191.4 90.6 191.6 90.3C195.9 86.2 200.4 82.3 203 80.4C211.4 73.9 219.6 72 219.2 68.8C219.1 68.1 218.6 66.8 219.2 65.5C219.7 64.5 220.6 64 220.8 63.8C225.1 61.3 224 40.1 232.2 30.7C233 29.8 235.2 27.4 235.4 24.1C235.4 23.6 235.6 20.4 233.8 19.1C231.4 17.4 227.2 19.9 225.7 20.8C216 26.5 214.8 43.1 214.4 47.6C214.4 47.7 213.8 50.9 212.7 57.2C212.3 59.6 212 60.9 211.1 62.2C209.4 64.5 206.7 64.9 204.6 65.5C200.1 66.8 196.8 70.2 190 77.1C187.7 79.4 186.2 81.2 185.3 82.6C182.3 78.9 177.8 74.9 172 73.8C169.5 73.3 170.2 74 160.4 73.8C151.7 73.6 150.2 73 147.2 73.8C142.1 75.1 138.8 78.6 135.6 82.1C135.5 82.2 135.4 82.3 135.3 82.4C134.3 81 132.8 79.3 130.6 77.1C123.7 70.2 120.2 66.8 115.7 65.5C113.5 64.9 110.9 64.5 109.1 62.2C108.1 60.9 107.9 59.6 107.4 57.2C106.3 50.9 105.7 47.7 105.7 47.6C105.3 43.1 104 26.5 94.2 20.8C92.7 19.9 88.3 17.4 85.9 19.1C84.1 20.4 84.2 23.5 84.2 24.1C84.4 27.5 86.7 29.9 87.5 30.8V30.8Z" fill="black"/>
<path d="M284.2 204.5C283 201.3 277.1 203 266.3 199.5C262.3 198.2 259.6 196.9 254.9 194.5C244.9 189.5 239.9 186.9 237 182.9C236 181.5 234.8 179.4 232.1 177.9C229.9 176.7 227.7 176.5 225.6 176.2C222.5 175.9 220.1 176.1 219.1 176.2C216.5 176.4 213 176.4 206.1 176.2C192.7 175.9 186.1 175.8 181.7 174.5C180.6 174.2 178.6 173.6 176.8 174.5C175.5 175.1 174.5 176.5 173.8 178C173.6 177.1 173.4 176 173.4 174.5C173.4 172.7 173.3 170.5 174 168.4C176.4 168.3 179.8 166.3 183.3 162.9C186 162.3 188.7 161.8 191.4 161.2C193.4 160.6 196.3 159.6 199.5 157.9C201.1 157 209.1 152.4 215.7 143C219.1 138.2 219.7 135.3 218.9 133.1C221.8 133.8 224.8 130.5 227 128.1C241.3 112.7 247.2 109.3 246.5 103.3C246.4 102.6 246.2 100.7 244.9 100C243.2 99 240.5 100.6 236.8 103.3C232.2 106.7 226.2 111.7 218.9 121.5C216.6 124.6 214.9 127.2 215.7 129.8C215 129.7 214.1 129.9 212.5 131.5C211.2 132.7 209.2 134.8 207.6 138.1C204.6 140.9 199.7 144.5 193 146.4C190.7 147 189.5 147.1 188.3 147.3C188.3 147 188.3 146.7 188.3 146.4C187.3 136.9 175.5 129.7 168.5 131.5C165.3 132.3 164.1 134.8 160.2 134.8C156.4 134.8 155.1 132.4 151.9 131.5C144.8 129.5 133.2 136.4 132.1 144.7C132 145.5 132 146.4 132.1 147.2C130.8 147 129.5 147 127.2 146.3C120.4 144.4 115.4 140.8 112.3 138C110.7 134.6 108.7 132.6 107.3 131.4C105.6 129.9 104.7 129.7 104 129.7C104.8 127.1 103 124.5 100.7 121.4C93.3 111.7 87.2 106.6 82.5 103.2C78.7 100.5 76 98.9 74.2 99.9C72.9 100.6 72.6 102.5 72.5 103.2C71.7 109.2 77.8 112.6 92.3 128C94.6 130.4 97.6 133.7 100.6 133C99.8 135.2 100.5 138.1 103.9 142.9C110.6 152.3 118.8 156.9 120.4 157.8C123.7 159.5 126.6 160.5 128.7 161.1C131.5 161.7 134.2 162.2 137 162.8C140.3 165.9 143.4 167.8 145.8 168.2C146.1 170.2 145.6 172.1 145.2 174.4C145.1 174.8 145.1 175.2 145 175.6C144.5 175.1 144.1 174.7 143.5 174.4C141.6 173.5 139.7 174.1 138.5 174.4C134.1 175.6 127.3 175.8 113.7 176.1C106.6 176.3 103.1 176.3 100.5 176.1C99.4 176 97 175.8 93.9 176.1C91.8 176.3 89.5 176.6 87.3 177.8C84.6 179.3 83.3 181.4 82.3 182.8C79.4 186.8 74.3 189.3 64.1 194.4C59.3 196.7 56.6 198.1 52.5 199.4C41.5 202.8 35.6 201.2 34.3 204.4C33.3 207 36 211.1 39.3 212.7C41.4 213.7 43.7 213.6 50.9 211C57.2 208.7 62.1 206.3 65.8 204.4C72.6 200.8 77.6 198.2 82.3 194.5C83.1 193.8 85.5 191.9 88.9 189.5C91 188.1 92.7 186.9 93.9 186.2H102.2C110.5 186.2 118.7 186.1 127 186.2C137.9 186.3 142.6 186.7 145 185.9C145.1 186.5 145.1 187.2 145.2 187.8C145.4 188.4 145.6 189.1 145.9 189.7C145.2 190.1 144.4 190.6 143.5 191.1C141.5 192.3 140.7 193 138.5 194.4C134.7 197 132 198.4 130.2 199.4C122.5 203.8 120.9 207.1 112 212.6C102 218.9 94.2 220.9 93.8 225.8V227.9V230.8V234.1C93.8 238.2 101.1 265.7 103.7 277.1C106.8 290.9 108.4 297.7 107 301.9C106.7 302.7 105.6 305.9 107 308.5C107.9 310.3 109.9 311.8 112 311.8C115.8 311.9 118.3 307.4 118.6 306.8C120.8 302.8 119.4 299.2 116.9 288.6C115.3 281.7 113.3 272.4 111.9 265.4C110.4 257.5 109.1 253.6 108.6 252.2C106.9 246.8 105.3 240 105.3 235.7C105.3 234.9 105.2 229.4 105.3 229.2V229.1C105.7 227.9 108.6 227.4 108.6 227.4C109.1 227.3 112.3 225.7 118.5 222.4C123.6 219.7 124.9 217.6 130.1 214.1C132.5 212.5 134.7 211.2 136.6 210.2C134.1 214.1 132.6 216.5 131.8 219.1C130.9 221.9 129.4 226.4 130.1 232.3C130.7 236.8 132.3 240.2 133.4 242.2V253.8C134 257.5 135.7 265 141.7 272C144.7 275.6 149.3 280.9 156.6 281.9C166.1 283.2 173.6 276.3 176.4 273.6C178.3 271.8 185.6 264.9 186.3 253.8C186.6 248.7 185.5 244.6 184.6 242.2C185.6 240.4 187 237.6 187.9 233.9C188.5 231.5 189.8 225.8 187.9 219C187.5 217.7 187.2 216.9 182.9 210.1C184.8 211.1 187 212.4 189.4 214C194.5 217.5 195.7 219.6 200.8 222.3C207 225.6 210 227.2 210.5 227.3C210.5 227.3 213.4 227.7 213.7 229V229.1V235.6C213.7 239.9 212.1 246.7 210.5 252.1C210 253.6 208.8 257.4 207.3 265.3C206 272.3 204 281.5 202.4 288.5C199.9 299.1 198.6 302.7 200.8 306.7C201.1 307.3 203.5 311.7 207.3 311.7C209.3 311.7 211.3 310.2 212.2 308.4C213.6 305.7 212.5 302.6 212.2 301.8C210.9 297.6 212.4 290.7 215.4 277C217.9 265.6 225.1 238.1 225.1 234C225.1 233.9 225.1 232.6 225.1 230.7C225.1 229.7 225.1 228.8 225.1 227.8C225.1 225.8 225.1 225.8 225.1 225.7C224.7 220.7 217 218.7 207.2 212.5C198.5 206.9 196.9 203.7 189.3 199.3C187.6 198.3 184.9 196.9 181.2 194.3C179.1 192.9 178.3 192.2 176.3 191C175.2 190.4 174.3 189.8 173.5 189.3C174 187.9 174.3 186.5 174.4 185.6C176.5 186.6 181.1 186.2 192.5 186C200.6 185.9 208.7 186 216.9 186H225C226.1 186.7 227.8 187.9 229.9 189.3C233.3 191.7 235.6 193.6 236.4 194.3C241 198 245.9 200.6 252.6 204.2C256.2 206.1 261 208.5 267.2 210.8C274.2 213.4 276.5 213.4 278.6 212.5C282.5 211.2 285.2 207.1 284.2 204.5V204.5Z" fill="black"/>
</svg>
