<svg width="320" height="320" viewBox="0 0 320 320" fill="none" xmlns="http://www.w3.org/2000/svg">
<path d="M280.4 75.2999C279.9 73.0999 278.4 66.6999 273.5 58.9999C267.3 49.2999 248.8 26.5999 230.9 21.5999C230.4 20.6999 229.9 19.6999 229.2 18.6999C228.5 17.6999 227.2 15.8999 225.1 13.9999C221.6 10.7999 218.2 9.39994 215.1 8.09994C209.4 5.79994 204.6 5.09994 201 4.59994C197.4 4.09994 194.2 3.69994 189.8 3.99994C183.7 4.49994 179.1 6.19994 177.4 6.89994C174.6 8.09994 168.2 11.0999 162.7 17.4999C155.5 25.7999 154 34.7999 152.7 42.1999C151.1 51.1999 151.8 59.1999 152.1 62.1999C152.5 66.3999 153.1 69.7999 153.6 71.9999C154.8 78.0999 156.2 83.1999 157.4 86.8999C154.8 91.2999 150.9 97.7999 146.2 105.7C127.9 136.6 118.7 152.2 112.7 163.4C107.5 173.1 107.3 174 94.5 198.1C87.8 210.8 85.4 215.2 82.7 219.9C74.7 234.1 70.7 241.2 68 245.2C68 245.2 62.4 252.9 58 262.3C57.4 263.6 56.3 266 55.6 269.4C55.1 272.1 55 274.3 55 275.9C63.6 270.8 69.8 265.9 73.8 262.4C75.6 260.8 102.8 237.3 113.2 224.1C114.1 223 117.2 219 121.4 218.8C122.1 218.8 124 218.7 125.5 220C127.1 221.4 127.2 223.5 127.3 224.7C127.5 228.1 125.7 230.7 124.9 231.8H125.3C125 232.7 124.9 233.5 124.9 234.4C125.1 239.6 131.6 241.3 137 253.2C138.5 256.5 139.4 259.4 139.9 261.4C139.5 262.1 138.9 263.1 137.9 264C137.4 264.4 136.3 265.3 133.9 266C130.8 266.9 130.4 266.2 127.9 267C126.7 267.4 124.6 268.2 122.9 270C122.4 270.5 120.3 272.7 120.9 274C121.1 274.5 121.7 274.7 123.9 275C129.1 275.7 132.9 275.6 134.5 275.6H135.1H151.3H160.1C186.7 275.8 194.3 277 194.8 274.4C195.3 271.8 188.1 267.1 183.2 265C181.1 264.1 177.4 262.5 172.6 262.6C167.6 262.7 165.5 264.5 160.8 263.8C158 263.4 155.8 262.3 154.3 261.4C151.6 257.8 149.9 254.5 148.8 252C147.5 249 146.3 246.4 145.8 242.6C145.5 240.2 145.6 238.3 145.8 235.5C146.2 230.5 146.9 227.1 147.4 224.7C149.8 223.3 152.3 221.6 155.5 219.4C166.5 211.9 170.1 208.8 177.9 203.5C185.4 198.3 191.7 194.6 195.6 192.3C205.4 185.2 212.5 178.8 217.4 174.1C219.1 172.4 221.6 169.9 224.5 166.4C228.5 161.6 232.5 156.6 234.5 149.3C235.3 146.6 235.5 144.3 235.7 142.8C235.9 142.1 236.2 141.1 236.6 139.9C236.7 139.6 236.8 139.3 236.8 139.3C239.7 131.6 229.7 110.5 229.7 110.5C221 92.0999 220.6 91.9999 218.5 86.3999C215.3 77.7999 213.5 72.5999 213.2 65.1999C213.1 63.1999 213.1 60.4999 213.4 57.3999C215.4 57.3999 217.7 57.4999 220.4 57.7999C233.9 59.6999 243.7 66.1999 252.1 71.7999C261.5 77.9999 268.7 85.0999 273.7 89.8999C276.4 92.4999 278.5 94.6999 280 96.2999C281 91.9999 282.3 84.4 280.4 75.2999V75.2999ZM213.9 38.2999C213.7 40.9999 212.1 43.9999 209.2 45.3999C208.7 45.5999 205.8 46.8999 202.7 45.3999C199.1 43.5999 198.6 39.4999 198.6 38.8999C198.3 35.3999 200.2 31.2999 203.9 30.0999C206.2 29.2999 208.9 29.6999 211 31.2999C214.1 33.5999 213.9 37.5999 213.9 38.2999V38.2999Z" fill="black"/>
</svg>
