<svg width="320" height="320" viewBox="0 0 320 320" fill="none" xmlns="http://www.w3.org/2000/svg">
<path d="M286.4 80.9C280.3 71.6 251.7 52.2 221.8 49.4C177.3 9.80001 115.5 11 79.1 26.8C38.7 43.8 24.1 73.3 20.5 95.5C18.1 111.3 27.4 129.8 35 130.7C24.5 146.5 9.89999 166.7 27.7 169.9C40.2 172.3 67.7 145.3 102 130.7C115.7 125 126.2 125.4 135.9 125.9C147.2 151 155.3 174.8 158.9 182.1C160.5 185.3 164.2 189.4 166.2 182.9C169.8 170.8 172.3 146.9 169 140.1C167.4 136.5 165 133.2 162.1 129.6C163.3 130 164.1 130 164.9 130.4C206.5 144.5 236 200.7 200.1 248.8C194.4 247.6 188.4 247.2 182.7 247.6C160.9 248.4 150.4 259.3 146.7 262.5C143.1 266.1 145.9 266.9 148.3 266.1C151.1 265.3 158 265.7 170.5 268.5C179 270.5 183.4 276.2 191.1 277C200 277.4 200 274.2 203.6 271.7C204 277.4 206.4 281 211.3 283.8C217.4 287 223 285.4 233.1 288.6C236.7 289.8 241.2 291 244 293C249.3 296.6 249.3 292.2 247.6 285.7C246.4 279.6 243.6 273.6 237.1 266.7C233.1 262.7 227.8 258.6 221.7 255.8C241.5 240.9 283.9 183.9 264.1 118.4C261.3 109.1 258 100.6 254 92.9C264.5 90.1 276.2 93.3 283.1 94.1C288.8 94.3 291.3 88.2 286.4 80.9V80.9Z" fill="black"/>
</svg>
