<svg width="320" height="320" viewBox="0 0 320 320" fill="none" xmlns="http://www.w3.org/2000/svg">
<path d="M306.7 131.1C304.4 118.2 300.5 97.3999 286.9 73.3999C279.5 60.1999 268.8 41.7999 247.4 27.2999C238.9 21.4999 220.6 9.09995 198 10.7999C188.7 11.4999 179.2 12.1999 171.6 18.9999C166.5 23.5999 164.3 29.0999 160.1 28.8999C156 28.6999 154.6 23.4999 150.2 18.9999C142.8 11.3999 131.9 11.0999 122.2 10.7999C103.1 10.1999 88.6 18.0999 81 22.2999C59 34.5999 47.4 51.7999 39.7 63.4999C36.4 68.4999 24.6 87.1999 18.3 114.6C14.9 129.5 14.9 141.6 15 165.7C15 174.1 15.7 178.7 18.3 183.8C19.8 186.8 21.3 188.7 24.2 192.4C26.8 195.6 28.1 197.2 29.8 198.7C32.9 201.3 35.9 202.8 38 203.6C37.9 205.2 37.9 207.5 38 210.2C38.5 221 41.4 229.1 42.9 233.3C48 247.2 56.1 257.5 61 263C61 263 71.5 274.9 98.9 289.4C113.7 297.2 114.5 295 126.9 302.6C140.8 311.1 147.3 318.4 159.9 319.1C166.1 319.4 171.1 318 173.1 317.5C183.2 314.6 188.4 309.1 194.5 304.3C205.2 296 208.4 298.3 225.8 289.5C240.1 282.3 251.2 276.5 262.1 264.8C272.8 253.2 280.8 238.2 281.9 228.5C282 227.5 282.5 222.4 283.5 215.3C284.1 211 284.8 207.5 285.1 205.4C287.1 203.9 290 201.7 293.3 198.8C296.7 195.8 299.5 193.3 301.5 190.6C305.5 185.2 306.1 179.2 306.4 174.1C308.1 155 309.2 145.4 306.7 131.1V131.1ZM66.1 109.7C63.6 106.6 58.8 99.6999 57.9 89.8999C57.6 87.1999 56.3 73.3999 66.1 63.4999C72.2 57.3999 79.5 55.7999 82.6 55.2999C95.3 52.8999 105.6 58.2999 109 60.1999C109.4 60.7999 111.3 63.4999 110.6 66.7999C109.7 71.3999 104.9 73.0999 104 73.3999C101.1 74.3999 98.5 73.6999 97.4 73.3999C95.5 72.1999 91.4 69.8999 85.9 70.0999C84.5 70.1999 77.3 70.3999 74.4 74.9999C73.8 75.9999 73.4 77.0999 73.2 77.5999C72.6 79.5999 72.5 81.7999 72.7 84.8999C73 88.1999 73.2 89.9999 74.3 91.4999C74.9 92.2999 75.5 92.7999 75.9 93.0999C76 94.7999 75.9 97.8999 74.3 101.3C71.9 106.6 67.5 109 66.1 109.7ZM245.7 175.6C239.1 187.4 233.2 189.6 225.9 200.3C220.7 207.9 218.5 214.3 214.4 226.7C213.6 229.2 208.5 244.4 202.9 259.7C202.2 261.7 201.3 263.8 199.6 266.3C194.3 273.7 186 276.1 179.8 277.8C164.9 281.9 152.5 279.1 146.8 277.8C146.8 277.8 131.2 274.1 125.4 266.3C124.9 265.6 124.4 264.9 124.4 264.9C123.3 263.2 122.3 261 120.4 256.4C116.5 246.7 113.7 236.7 110.5 226.7C106.5 214.5 103.9 206.2 97.3 197C91 188.2 86.1 185.5 79.2 173.9C76 168.6 73.9 163.9 72.6 160.7C73.9 137.8 79.7 121.2 84.1 111.3C88.8 100.8 92.8 95.5999 97.3 91.4999C107.1 82.7999 118 80.6999 122 79.9999C126.7 79.1999 136 77.5999 146.7 81.5999C151.9 83.5999 155.8 86.1999 158.2 88.1999H168.1C169.5 86.8999 171.6 84.9999 174.7 83.2999C187.6 75.9999 201.9 79.9999 207.7 81.6999C211.6 82.7999 220.6 85.3999 229.1 93.1999C232.1 95.9999 236.9 101.2 242.3 113C246.3 121.8 252 137.4 252.2 159.1C251.3 163 249.4 169 245.7 175.6V175.6ZM265.6 87.4999C265.2 96.9999 260.9 103.9 258.7 107.1C257.3 106.5 253 104.4 250.4 99.4999C248.7 96.2999 248.4 93.1999 248.4 91.5999C248.8 91.1999 249.4 90.6999 249.9 89.8999C250.9 88.3999 251 86.5999 251.1 83.3999C251.2 80.3999 251 78.2999 250.3 76.2999C250.1 75.7999 249.7 74.7999 249 73.8999C245.9 69.5999 239.1 69.6999 237.7 69.6999C232.4 69.7999 228.5 72.1999 226.8 73.4999C225.8 73.8999 223.3 74.5999 220.5 73.7999C219.6 73.5999 214.9 72.0999 213.8 67.6999C213 64.4999 214.6 61.8999 215 61.1999C218.1 59.0999 227.7 53.3999 240.1 55.0999C243.1 55.4999 250.2 56.5999 256.4 62.1999C266.3 71.3999 265.7 84.8999 265.6 87.4999V87.4999Z" fill="black"/>
<path d="M137 233.3C136.8 240.6 145 245.9 148.5 248.1C151.9 250.2 156.7 253.3 163.3 253C168.5 252.8 172 250.7 176.5 248.1C181.6 245.1 189.8 240.2 189.7 233.3C189.7 232.2 189.6 229.8 188.1 228.4C183.7 224.2 175 233.9 161.7 233.3C149.9 232.8 142.6 224.7 138.6 228.4C137.1 229.7 137 231.9 137 233.3Z" fill="black"/>
<path d="M112.2 162.4C109.9 161.5 104.4 159.5 100.7 154.2C99.9 153 97.9 150.1 97.4 146C97.2 144.6 97.1 143.7 97.4 142.7C98.7 137.9 106.1 136.4 107.3 136.1C113.2 134.9 118 136.7 120.5 137.7C121.2 138 132.2 142.6 135.3 152.5C136.6 156.6 135.6 158.6 135.3 159.1C134.3 160.8 132.7 161.5 130.4 162.4C128.8 163 125.3 164.2 120.5 164C119 164 115.9 163.8 112.2 162.4V162.4Z" fill="black"/>
<path d="M214.5 162.4C216.8 161.5 222.1 159.5 225.8 154.2C226.6 153 228.6 150.1 229 146C229.2 144.6 229.3 143.7 229 142.7C227.7 137.9 220.5 136.4 219.3 136.1C213.6 134.9 208.8 136.7 206.4 137.7C205.7 138 194.9 142.6 191.9 152.5C190.6 156.6 191.6 158.6 191.9 159.1C192.8 160.8 194.4 161.5 196.7 162.4C198.2 163 201.7 164.2 206.4 164C207.9 164 211 163.8 214.5 162.4V162.4Z" fill="black"/>
</svg>
