<svg width="320" height="320" viewBox="0 0 320 320" fill="none" xmlns="http://www.w3.org/2000/svg">
<path d="M318.3 156.9C316.9 142.7 292.5 115.6 283.5 103.5C274.5 91.4 265.4 81.8 255.1 84C246.2 86 241.7 92.7 213.5 131.7C209.5 128.6 204.6 125.8 200.2 123.3C205.2 116.5 217.2 100.4 221.2 92.9C224.7 86.5 223.3 64 223.3 51.2C223.3 38 204.8 24.2 196.5 21.9C188.1 19.5 182.2 21.4 175.4 26.8C175.4 26.8 181.8 25.5 188.1 29.4C193.3 32.5 199.7 39.3 200.3 42C201.6 47.4 200.2 49.8 197.3 49.5C188.1 48.6 176.2 35.1 174.1 30.8C174.1 30.8 172.1 36.1 175.1 43.9C180.3 57.2 190.8 60.2 193.6 62.5C195.1 63.8 194.6 65.6 196.7 89C197.1 92.8 189.9 105.8 186.1 112.6C178.9 104.4 173.3 94 160.6 94H160.1C147.4 94 141.8 104.4 134.6 112.6C130.7 105.8 123.7 92.8 124 89C126.1 65.6 125.6 63.8 127.1 62.5C129.9 60.2 140.3 57.1 145.6 43.9C148.6 36.1 146.6 30.8 146.6 30.8C144.5 35.1 132.5 48.6 123.4 49.5C120.5 49.8 119.1 47.4 120.4 42C121 39.4 127.6 32.6 132.6 29.4C138.9 25.5 145.3 26.8 145.3 26.8C138.6 21.4 132.6 19.5 124.2 21.9C115.8 24.3 97.3999 38.1 97.3999 51.2C97.3999 64 95.8999 86.5 99.4999 92.9C103.6 100.4 115.5 116.5 120.5 123.3C116.1 125.8 111.3 128.6 107.2 131.7C79.0999 92.7 74.5999 86.1 65.6999 84.1C55.2999 81.7 46.1999 91.5 37.2999 103.6C28.2999 115.7 3.89994 142.8 2.49994 157C1.09994 171.2 10.1999 182 10.1999 182C10.1999 182 8.79994 163.4 14.5999 154C20.3999 144.6 46.4999 113.2 50.3999 108.5C55.8999 101.7 61.4999 96.8 65.8999 102.8C68.7999 106.7 86.2999 129.3 98.0999 144.6C97.7999 145.6 97.6999 146.7 97.6999 147.9C97.6999 151.9 98.0999 157.2 98.9999 163C83.8999 158.5 56.3999 150.6 44.9999 148.9C28.8999 146.8 25.6999 161.3 23.7999 171C21.8999 180.7 21.6999 235.8 31.7999 250.1C41.9999 264.3 54.3999 268.2 54.3999 268.2C54.3999 268.2 41.1999 252.5 39.5999 242.4C37.9999 232.3 38.0999 186 38.6999 176.5C39.2999 167 41.0999 164.9 44.8999 165.3C51.1999 166.1 87.6999 176.5 102.8 180.8C104.1 184.8 105.4 188.8 107.2 192.6C91.6999 197.5 54.7999 209.6 51.7999 213.5C47.8999 218.4 48.2999 225.3 51.7999 234.1C55.2999 242.9 74.6999 280.7 96.9999 291.4C114.8 299.9 127.9 292.8 127.9 292.8C127.9 292.8 111.4 291.4 101 283.5C90.5999 275.6 66.9999 235.1 65.7999 230.1C64.6999 224.9 64.4 222.8 91.7999 214C101 211.1 110 208.1 115.9 206.3C117.2 207.7 118.5 208.8 119.9 209.9C135.2 221.5 153.3 223.1 160.3 223.1H160.8C167.8 223.1 185.8 221.6 201.2 209.9C202.6 208.9 204 207.6 205.2 206.3C211 208.2 220.1 211.1 229.3 214C256.7 222.8 256.4 225.1 255.3 230.1C254.2 235.1 230.6 275.6 220.1 283.5C209.7 291.4 193.2 292.8 193.2 292.8C193.2 292.8 206.4 300 224.1 291.4C246.5 280.7 265.8 242.9 269.3 234.1C272.8 225.3 273.2 218.5 269.3 213.5C266.3 209.6 229.4 197.5 213.9 192.6C215.7 188.8 217 184.9 218.3 180.8C233.2 176.5 269.9 166 276.2 165.3C280.1 164.8 281.9 166.9 282.4 176.5C282.9 186 283.2 232.4 281.5 242.4C279.9 252.4 266.7 268.2 266.7 268.2C266.7 268.2 279.1 264.3 289.3 250.1C299.5 235.9 299.2 180.6 297.3 171C295.4 161.4 292.1 146.8 276.1 148.9C264.7 150.4 237.2 158.4 222.1 163C223 157.2 223.4 151.9 223.4 147.9C223.4 146.8 223.3 145.6 223 144.6C234.8 129.3 252.3 106.7 255.2 102.8C259.6 96.8 265.1 101.7 270.7 108.5C274.5 113.1 300.7 144.6 306.5 154C312.3 163.4 310.9 182 310.9 182C310.9 182 319.7 171.1 318.3 156.9V156.9Z" fill="black"/>
</svg>
