<svg width="320" height="320" viewBox="0 0 320 320" fill="none" xmlns="http://www.w3.org/2000/svg">
<path d="M280.4 111.8C311 146.4 305.2 212.6 260.4 246.8C206.4 288 134.6 278.7 94.3 248.8C54.1 219 64.3 180.2 78.2 166.2C76.4 173.3 74.1 184.6 76.7 189C80.7 195.6 101.6 193 118.6 197C126.6 199.7 133.2 204.9 135.6 210.2C138.1 215.5 140 213.6 137.8 207.5C135.6 201.4 133 200.3 135 199.7C137 199.1 144.3 204.7 147.6 213.3C150.1 219.9 151.3 216.1 150.1 212.1C148.9 208 144.8 200.5 141.2 197.1C137.6 193.7 144.1 195.3 148.5 197.4C152.2 199.2 156.6 202.7 158.8 206.2C160.5 209 162.1 207.4 158.8 201.9C153.4 193 137.4 187.8 125.8 185.2C125.6 185.2 125.4 185.1 125.2 185.1C122.2 184.2 118.8 183.4 115.2 182.6C114.5 182.5 113.9 182.3 113.2 182.1C107.8 180.7 104 179.5 103.4 179.3C97.7 177.3 94.6 175 94.8 172.5C95.1 169.2 99.9 157.8 104.1 152.4C114.9 148.1 127.7 143.7 140.2 139.6C139.9 145.3 140.5 152.1 144 154.3C149.9 158 171.5 156.6 183.1 160C188.5 162.1 194.3 171 196.3 176.9C198.3 182.8 200.6 181 198.9 174.3C197.3 167.6 195.6 164.5 197.9 164.1C200.1 163.7 207.5 174.1 208.7 181.6C209.9 189.1 212.4 185.1 211.5 180.6C210.7 176.1 207.4 166.7 204 162.7C200.5 158.7 207.6 160.5 211.7 163.7C215.8 167 220.3 172 221.5 175.3C222.7 178.6 224.1 175.9 221.5 169.6C218.9 163.3 200.7 153.3 188.6 149.2C181 146.4 170.4 143.8 166.3 140.1C164.7 138.7 164.2 135.5 164.1 131.7C166.9 130.8 169.6 129.9 172.2 129C200.9 119.2 193.3 100.9 211 92.4C228.7 83.9 249.5 82.3 258.8 78C268.2 73.7 274.8 65.5 274.8 55.9C274.8 46.3 269.9 45.1 262.2 40.6C254.5 36.1 249.2 32.3 239.2 25.7C231.5 20.7 223.5 19.1 216.2 19.1C206.6 19.1 200.9 9 190.7 10.2C190.7 10.2 206.3 21.2 192.4 23.5C187.7 24.3 180 19.7 180 19.7C173.3 15.8 164.8 10.7 154.2 10.2C154.2 10.2 181.9 27.9 169.9 33.8C169.6 33.9 169.3 34.1 169 34.2C156.7 38.8 143.2 20.6 131.8 19.1C131.8 19.1 153.5 40.9 140.2 45C126.9 49.2 116.6 27.8 105.2 27.9C105.2 27.9 124.6 49.9 110.6 53.4C95.4 57.2 94.2 37.5 76.3 36.9C76.3 36.9 97.9 55 83.7 59.9C70.7 64.3 65.9 48.7 50.1 50.6C50.1 50.6 72.9 63.2 62.9 68.8C54.7 73.2 43 63 31.8 66.7C31.8 66.7 53.5 72.3 45.5 79.8L45.4 79.9C45.1 80.1 44.9 80.3 44.6 80.5C37.8 85.6 27.8 79.1 21.2 83.7C21.2 83.7 35 88.2 31.8 93.2C26.5 101.6 16.7 97.1 12.7 103.2C12.7 103.2 25.1 103 22.2 110.1C22.1 110.3 22.1 110.5 22.2 110.7C3.2 154.5 -6.8 243.5 85.7 289.5C189.1 340.9 293.2 275.2 305.4 204.7C317.1 137.7 280.4 111.8 280.4 111.8V111.8ZM228.3 31.6C233.1 34.1 237.4 39.3 231.9 40.7C226.4 42.1 217.5 40.7 216.4 36.7C215.4 32.6 222.9 28.7 228.3 31.6Z" fill="black"/>
</svg>
