<svg width="320" height="320" viewBox="0 0 320 320" fill="none" xmlns="http://www.w3.org/2000/svg">
<path d="M285.1 170.4C282.4 158.2 278.6 147.5 273.9 138.3C276.3 128 292.8 53 268.1 41.8C241.2 29.7 206.1 79.7 195.2 81.4C181.2 78.7 168.8 78.3 161 78.3H159C151.2 78.3 138.9 78.6 124.8 81.4C113.9 79.7 78.8 29.7 51.9 41.8C27.1 53 43.6 128 46 138.4C41.3 147.6 37.5 158.2 34.8 170.5C17.8 248.5 92 280 159 280H161.1C228 280 302.2 248.5 285.1 170.4ZM130.5 203.3C124.1 213.1 96.9 214.4 87.7 197.9C77.2 179.1 91.7 163 105.1 163C134.3 163.1 136.8 193.5 130.5 203.3ZM177.7 225.1C176.3 229.5 166 238.3 159.7 238.3H158.8C152.5 238.3 142.2 229.5 140.8 225.1C139.4 220.7 147.8 218.5 158.8 218.5H159.7C170.8 218.5 179.1 220.7 177.7 225.1ZM230.9 197.9C221.7 214.4 194.5 213.1 188.2 203.3C181.8 193.5 184.4 163.1 213.5 163C226.9 163 241.4 179.1 230.9 197.9V197.9Z" fill="black"/>
</svg>
