<svg width="320" height="320" viewBox="0 0 320 320" fill="none" xmlns="http://www.w3.org/2000/svg">
<path d="M266.4 61.4C266.4 61.4 263.1 3 154.8 3C46.5 3 10.5 104.9 36.6 195.8C62 280 68.6 289.3 68.6 289.3C68.6 289.3 121 329.3 188.3 316.3C188.3 316.3 151.7 248.1 133.4 200.3C115.1 152.5 117.7 136.2 127 120.5C129 117.1 131.3 114.2 133.8 111.8C138.8 126.5 144.8 142 149.5 156.8C155.8 176.6 172.3 192.3 189.5 195.3V221C189.5 238.4 186.9 242.4 186.9 242.4C192.5 240.3 195.6 235.1 196.4 228.6C197.3 235 200.4 240 205.9 242.1C205.9 242.1 203.3 238.1 203.3 220.7C203.3 211.7 203.3 202.3 203.3 195.3C219.8 192.7 231.7 180.9 239.4 155.8C250.2 121.4 272 82.2 266.4 61.4V61.4ZM161 117C159.7 130.1 144.9 125.1 143.8 98C143.7 95.4 146.7 91.9 150.1 95.1C155.3 100.2 161.8 108.3 161 117V117ZM231.1 117C230.2 108.3 236.8 100.2 242.1 95.2C245.5 91.9 248.5 95.6 248.4 98.1C247.2 125.3 232.4 130.1 231.1 117Z" fill="black"/>
</svg>
