<svg width="320" height="320" viewBox="0 0 320 320" fill="none" xmlns="http://www.w3.org/2000/svg">
<path d="M315.932 173.174C311.108 176.949 305.69 178.884 300.319 180.547C270.909 189.651 241.054 196.276 210.003 195.742C206.084 195.675 202.07 195.445 198.258 196.148C193.055 197.108 187.66 198.185 182.956 200.466C172.458 205.556 166.955 214.191 166.958 226.158C166.96 234.169 168.909 241.714 171.835 249.035C177.261 262.61 182.992 276.064 188.327 289.674C190.794 295.968 195.376 309.624 195.143 315.794C193.058 314.465 191.878 313.76 190.746 312.984C174.87 302.094 159.23 290.839 143.068 280.394C125.806 269.238 106.414 263.032 86.562 258.26C72.343 254.842 58.097 251.446 44.595 245.746C38.067 242.99 25.918 237.083 21.603 232.283C22.05 230.031 22.312 227.929 22.889 225.918C28.91 204.951 29.788 183.806 25.633 162.371C23.802 152.926 22.17 143.404 21.188 133.841C18.094 103.705 26.273 76.528 44.437 52.545C56.485 36.637 71.67 24.223 90.657 17.338C127.445 3.998 161.512 9.056 192.354 33.474C202.167 41.243 211.216 49.875 219.026 59.688C222.426 63.961 226.488 67.134 231.163 69.927C260.146 87.244 283.909 109.977 301.65 138.823C307.089 147.668 311.459 157.031 314.721 166.888C315.371 168.85 315.523 170.977 315.932 173.174V173.174ZM146.243 50.645C146.243 54.61 146.261 57.053 146.24 59.497C146.096 75.964 138.423 88.035 124.503 96.335C116.684 100.997 108.018 103.153 99.028 103.637C68.5 106.125 49.774 116.07 44.968 116.43C52.232 105.105 59.499 93.699 66.86 82.355C68.604 79.668 70.553 77.093 72.603 74.628C87.332 56.915 105.535 44.228 127.537 37.238C142.798 32.39 157.081 34.79 170.402 43.602C179.776 49.804 187.332 57.783 193.613 67.008C206.157 85.43 212.981 105.893 214.405 128.046C215.622 146.979 207.666 175.333 200.451 184.77C205.801 184.89 210.667 185.005 215.534 185.107C233.455 185.484 245.887 176.682 254.806 161.81C257.967 156.54 258.565 151.103 256.649 145.391C255.404 141.678 254.013 137.995 252.416 134.42C242.758 112.802 230.123 92.941 215.573 74.373C204.55 60.306 191.969 47.621 177.405 37.084C168.076 30.335 158.011 25.082 146.655 22.668C129.791 19.083 113.287 21.047 97.124 26.42C80.41 31.976 66.868 42.219 55.734 55.68C37.101 78.209 29.025 104.121 31.876 133.224C32.778 142.435 34.431 151.593 36.147 160.698C39.83 180.237 41.164 207.164 34.142 228.499C39.362 232.619 44.983 234.908 50.713 236.705C62.605 240.433 74.475 244.397 86.605 247.167C118.034 254.343 146.718 267.137 172.227 286.934C172.763 287.35 174.997 288.914 177.664 291.581C178.018 291.653 169.002 270.768 165.646 262.63C156.111 239.51 153.997 227.747 157.377 211.478C142.164 211.497 121.774 206.983 107.669 198.703C90.79 188.795 76.664 175.953 65.75 159.649C59.401 150.164 53.02 140.702 46.681 131.21C45.565 129.539 44.588 127.774 43.682 126.276C50.873 119.997 74.736 111.815 87.915 110.467C99.958 109.235 112.094 108.781 124.202 108.36C133.506 108.037 142.751 107.411 151.728 104.917C160.969 102.35 165.177 96.493 165.283 86.888C165.418 74.831 158.026 60.038 146.243 50.645V50.645Z" fill="black"/>
</svg>
