<svg width="320" height="320" viewBox="0 0 320 320" fill="none" xmlns="http://www.w3.org/2000/svg">
<path d="M286.5 67.8C283.5 59.6 255.6 61 255.6 61C255.6 61 250.9 53.4 213.5 47.4C206.7 46.3 198.8 45.9 190.2 46.1C185 46.3 172.2 10.6 147.2 1C147.2 1 153.2 22.4 129.4 18.5C129.4 18.5 135.1 38.6 112.9 35C112.9 35 118.2 54.3 94.9 48.9C94.9 48.9 98.3 67.5 76.5 63.2C76.5 63.2 81.1 78 66.1 78.1C66.1 78.1 70 84.7 64.4 89.6C21.5 124.2 6.39999 207.6 67.9 256.5C67.9 256.5 88.2 303.1 147.4 318.1C127.1 300.5 141.4 281 141.4 281C121.2 261.3 143.4 244.5 143.4 244.5C132.1 228.2 146.5 206.5 146.5 206.5C124.4 224.8 87.8 226.4 87.8 226.4C87.8 226.4 65.8 210.6 80.4 188.2C93.2 168.6 133.2 176.9 176.3 171.7C179.1 171.4 181.8 171 184.4 170.6C171.1 173.1 155.8 204.1 182.2 199.2C203.8 195.2 201.6 167.2 210.5 164.9C231.2 158.9 241.9 152.1 241.9 152.1C241.9 152.1 265.1 160.2 275.6 154C286 147.8 267.1 124.7 267.1 124.7C267.1 124.7 291.9 82.9 286.5 67.8V67.8ZM233.5 94.7C226.3 99.9 216.6 94.1 216.6 87.4C216.6 80.7 222.7 75.4 231.3 79.7C239.2 83.5 238 91.4 233.5 94.7V94.7Z" fill="black"/>
</svg>
