<svg width="320" height="320" viewBox="0 0 320 320" fill="none" xmlns="http://www.w3.org/2000/svg">
<path d="M211.185 87.2181C215.104 87.4411 218.412 86.6151 221.914 85.7371C231.466 83.3431 240.055 78.8981 247.386 72.3721C250.863 69.2771 254.069 65.6681 256.605 61.7751C261.069 54.9241 259.893 48.2601 253.98 42.7151C249.645 38.6501 244.479 36.2361 238.641 35.3971C230.795 34.2701 223 34.6641 215.263 36.4951C203.994 39.1631 193.36 43.5641 182.997 48.5661C166.278 56.6361 149.751 65.1041 133.073 73.2631C118.51 80.3871 103.96 87.5541 89.1999 94.2541C77.7519 99.4511 65.6809 102.965 53.3469 105.485C52.3459 105.689 51.3049 105.692 48.3479 105.97C51.4159 104.506 52.7589 103.609 54.2369 103.201C67.1799 99.6261 79.1119 93.6891 91.0629 87.7481C119.631 73.5461 148.226 59.3981 176.864 45.3381C189.794 38.9901 203.095 33.5561 217.127 30.0611C226.663 27.6861 236.224 27.1061 245.897 29.1431C252.733 30.5821 258.643 33.7471 263.775 38.4361C272.446 46.3571 273.132 58.4831 267.874 66.2951C265.114 70.3951 262.101 74.4401 258.606 77.9101C248.526 87.9191 237.349 96.5141 224.341 102.494C222.22 103.469 220.083 104.154 219.045 106.717C213.9 119.428 204.77 129.118 194.794 138.121C191.911 140.723 188.908 143.193 184.537 146.946C189.883 145.87 193.352 145.039 196.866 144.506C199.696 144.076 202.586 143.771 205.44 143.835C208.794 143.91 210.474 146.593 209.476 149.879C209.099 151.12 208.534 152.319 207.938 153.477C202.279 164.464 196.745 179.5 194.372 189.176C192.183 180.063 193.308 167.625 196.313 155.417C188.88 158.633 172.756 165.951 171.51 166.784C173.526 166.784 180.419 166.295 182.456 166.528C185.786 166.909 187.515 169.558 186.506 172.73C185.802 174.943 184.783 177.125 183.527 179.078C180.981 183.036 178.132 186.798 175.493 190.699C171.097 197.198 166.775 203.746 162.405 210.262C161.724 211.278 160.951 212.232 159.224 214.554C161.308 202.148 166.266 192.436 170.442 181.599C161.33 183.489 130.689 194.592 122.81 196.943C128.933 197.437 141.058 201.124 145.055 204.151C131.729 206.105 112.933 209.562 103.183 218.874C111.121 217.249 122.717 215.666 132.163 219.678C129.561 220.774 127.776 221.582 125.95 222.284C118.595 225.112 111.581 228.582 105.184 233.222C100.44 236.662 96.6109 240.896 94.1529 246.261C92.7129 249.406 93.1349 250.973 95.9479 252.98C101.253 256.765 107.343 258.139 113.707 258.376C121.106 258.651 128.371 257.513 135.294 254.972C141.173 252.814 146.826 250.047 152.605 247.612C155.623 246.341 157.715 244.214 159.464 241.461C163.532 235.059 167.496 228.548 172.105 222.544C176.87 216.337 186.943 201.91 194.01 200.537C201.077 199.164 198.827 209.081 196.739 213.206C198.965 211.779 209.522 203.284 214.3 206.974C219.078 210.664 208.221 221.809 206.099 224.177C213.744 223.248 210.911 233.665 196.216 242.874C188.864 247.852 181.216 252.41 173.539 256.881C170.591 258.598 167.721 260.284 165.162 262.584C155.9 270.91 145.372 277.099 133.494 280.953C129.783 282.157 126.475 283.415 124.148 287.337C121.427 291.922 116.083 292.855 110.967 292.896C102.812 292.962 94.7939 291.828 86.9769 289.453C84.9809 288.847 83.0379 288.068 80.6289 287.211C74.4619 291.003 68.4159 289.119 62.4829 285.681C52.1969 279.72 45.6389 270.998 42.8519 259.129C42.1879 258.635 41.4239 257.91 40.5299 257.428C35.9309 254.947 34.1689 250.823 33.3899 245.917C31.6519 234.972 33.5289 224.568 37.7359 214.473C38.3339 213.038 39.1089 211.677 39.7399 210.408C36.1759 202.691 36.0809 200.898 38.7219 193.018C40.4019 188.006 42.7839 183.335 46.1879 179.305C51.4059 173.128 56.8209 167.118 62.5259 160.611C63.6499 151.612 64.6389 149.746 71.9719 143.306C81.1979 135.204 85.3669 132.751 99.7399 127.028C101.481 118.799 107.64 113.989 114.442 109.802C129.348 100.626 145.725 95.4451 162.77 92.0221C177.889 88.9861 210.931 80.8711 226.67 74.2551C222.25 79.9381 213.436 85.7771 211.185 87.2181V87.2181ZM182.629 117.509C189.456 117.575 195.09 112.353 195.026 106.02C194.964 99.9291 189.572 95.0181 183.034 95.0981C176.617 95.1761 171.353 100.111 171.122 106.265C170.887 112.491 175.957 117.445 182.629 117.509Z" fill="black"/>
</svg>
