<svg width="320" height="320" viewBox="0 0 320 320" fill="none" xmlns="http://www.w3.org/2000/svg">
<path d="M305.5 183.4C304 182.4 302.4 182.1 301.4 182C300.8 181.4 299.8 180.4 298.7 179.3C292.4 173.3 287.1 170.3 281.6 167C268.2 158.9 261.1 153.9 256.9 150.5C255 149 251.9 146.3 248.7 142.3C247.9 141.2 247 140 245.3 137.5C240.2 130 239.1 127.3 238.4 125.2C238.2 124.4 237.9 123.3 237.7 122.5C237 119.3 236.6 117.2 236.3 115.6C236.3 115.6 235.6 111.8 234.2 107.4C233.5 105.1 231.1 99.2999 220.5 92.2999C220.6 91.8999 220.7 91.3999 220.9 90.6999C221.6 88.0999 222.3 85.5999 223.1 83.3999C225.1 77.8999 230 68.3999 230 68.3999C232.6 63.4999 231.6 64.4999 238.2 49.1999C248.1 26.2999 247.7 24.9999 247.1 24.4999C245.2 22.8999 238.3 28.0999 231.3 33.3999C221.6 40.6999 215.9 46.6999 207.3 54.6999C203.4 58.2999 197.6 63.5999 190.2 69.7999C189.1 70.6999 187.9 71.5999 186.8 72.4999C182.8 67.9999 175.4 60.8999 164.2 56.6999C144.3 49.3999 126.2 56.4999 116.9 60.0999C94 69.0999 81.5 85.7999 76.4 93.6999C70.1 103.5 67 112.7 65.4 119.1C70.6 114.2 75.5 110.9 79.1 108.8C85.4 105.1 90.8 103.2 96.2 101.3C100.7 99.6999 104.5 98.5999 107.2 97.8999C104.5 100.3 99.9 104.5 94.2 109.6C83.6 119.1 80.5 121.4 75.7 126.7C71 131.9 67.5 136 64.7 142.5C62.6 147.5 62.9 149.4 61.3 156.2C60.3 160.2 57.7 170 51.7 180.9C49.3 185.2 44.5 193.2 36.6 201.5C35.2 202.9 34 204.1 33.2 204.9C36 206 40 207.2 44.9 207.6C52.1 208.2 57.9 206.7 61.4 205.5C57.8 209.8 53.9 214.1 49.7 218.5C41.8 226.9 34 234.4 26.4 241.1C30.4 245 34.1 247.7 36.7 249.3C42 252.8 54.3 260.7 70.3 260.3C73.3 260.2 75.7 259.9 77.2 259.6C77.5 261.6 78.1 264.5 79.3 267.8C79.3 269.1 82.1 276 87.5 281.5C88.5 282.5 89.5 283.4 96.4 287.7C102.7 291.6 105.8 293.6 110.1 295.9C117.2 299.8 128.2 305.9 143 311C156.5 315.7 163.3 318 171.1 317.2C174.2 316.9 189.8 315.2 196.5 303.5C200.7 296.1 199.3 288 198.6 283.6C198.2 281.1 197.3 277.6 189.7 263.7C186.3 257.4 182.5 250.9 175.3 239C168.2 227.2 167.5 226.2 166.4 223.2C162.8 213.5 163.4 204.5 164.3 198.5C165.9 201.7 169 206.9 174.6 211.5C176.9 213.5 183.7 219 193.1 220.4C200.8 221.5 202.1 218.7 221.9 214.2C237.3 210.8 242 211.2 245.9 213.5C250.1 216 249.4 218.3 254.1 221.7C262.7 227.8 273.5 226.2 276 225.8C290.2 223.7 297.9 213.3 299.3 211.4C302.5 207 304 202.6 304.8 199.7C307.3 198.6 308.5 197 308.9 196.3C311.4 192.2 309.5 186 305.5 183.4V183.4ZM209.5 151.8C209.2 152.3 208.3 153.6 206.8 154.5C201.7 157.5 193.8 153.3 189.7 149.7C188.1 148.4 186 146.2 184.2 142.8C184.2 142.8 180.4 136.3 181.5 132.5C181.7 131.7 182.2 131.1 182.2 131.1C182.8 130.3 183.7 129.9 184.3 129.7C187.8 128.4 190.5 128.3 190.5 128.3C192.5 128.2 196.4 128.2 200.8 130.4C203.9 132 205.7 133.9 206.3 134.5C209.3 137.8 210.2 141.2 210.4 142C210.7 144.3 211.7 148.3 209.5 151.8V151.8ZM290.4 195.7C290.2 196.1 289.2 198.7 286.3 199.8C283.6 200.9 281.3 200 280.8 199.8C281 199 281.9 195.6 280.1 192.3C279.7 191.6 278.6 189.4 276 188.2C275.2 187.8 274.5 187.6 273.9 187.5C274.1 186.8 274.5 185.2 276 184.1C278.2 182.4 281.1 183.1 282.2 183.4C285.8 184.4 287.8 187.3 288.4 188.2C290.4 191.3 290.5 194.4 290.4 195.7V195.7Z" fill="black"/>
</svg>
