<svg width="320" height="320" viewBox="0 0 320 320" fill="none" xmlns="http://www.w3.org/2000/svg">
<path d="M201.2 127.7C192.9 96.9 180.3 97.7 180.3 70.8C180.3 60 187.8 56.9 191.6 47.4C194.2 43.2 203.8 42.5 202.6 30.5C201.3 17.4 191.2 19.3 187.2 15.5C187 15.3 186.8 15 186.6 14.8C180.8 8.59995 171.8 5.19995 160.6 5.19995H160C148.8 5.19995 139.8 8.49995 134 14.8C133.8 15 133.6 15.3 133.4 15.5C129.4 19.3 119.2 17.4 118 30.5C116.8 42.5 126.4 43.3 129 47.4C132.8 56.9 140.3 60 140.3 70.8C140.3 100.6 127.7 96.9 119.4 127.7C112.3 154 115.1 208.7 117.5 236.9C117.9 259.3 107.6 272.4 97.4999 280.4C88.2999 287.7 75.9999 289.9 73.1999 284C71.5999 280.6 73.7999 276.8 75.9999 274.3C77.5999 272.4 77.2999 272 75.0999 273.4C69.7999 276.8 63.7999 283.6 70.7999 292C78.1999 300.9 104.4 302.7 124.5 280.7C127 290.9 129.1 298 128.9 300.8C128.5 305.9 122.8 304 122 307.7C121.2 311.5 123.2 313.6 129.1 313.6H144.9C148.9 313.6 150.6 307.9 150 299.6C149.4 291.3 146.4 277.5 148.6 267.2C150 260.4 153.5 257 158 256.3C158.9 256.2 159.7 256.1 160.6 256.1C166.1 256.1 170.4 259.4 172.1 267.2C174.2 277.4 171.3 291.3 170.7 299.6C170.1 307.9 171.9 313.6 175.8 313.6H191.6C197.5 313.6 199.5 311.4 198.7 307.7C197.9 303.9 192.2 305.9 191.8 300.8C191.4 295.7 198.9 275.9 202 248.9C204.2 228.3 209.5 158.5 201.2 127.7V127.7ZM178.3 22.2999C183 21.8999 185.7 24.7 186.4 28C187.1 31.3 186.1 36.2 182.9 37.4C179.7 38.5 175.2 37.9999 173.6 32.7999C172 27.5999 174.2 22.5999 178.3 22.2999V22.2999ZM142.1 22.2999C146.3 22.5999 148.5 27.5999 146.8 32.7999C145.2 37.9999 140.7 38.5 137.5 37.4C134.3 36.3 133.3 31.3 134 28C134.7 24.7 137.3 21.8999 142.1 22.2999V22.2999ZM135 116.2C133.6 138.3 145.2 143.8 149.2 157.6C152.8 170 155.9 202.9 146.2 202.8C133.4 202.7 140.6 191 136.9 175.6C132.5 157.4 124.9 154.8 123.9 144.5C122.4 129.7 128.9 120.4 135 116.2V116.2ZM160.6 44.4H160.2C156.6 44.4 152.6 40.8 153 37.9C153.4 34.9 156.3 33.2999 160.2 33.2999H160.6C164.5 33.2999 167.4 35 167.8 37.9C168.2 40.8 164.2 44.4 160.6 44.4ZM197 144.6C196 154.8 188.4 157.5 184 175.7C180.3 191.1 185.1 202.8 174.7 202.9C163.6 202.9 168.1 170.1 171.7 157.7C175.7 143.9 187.3 138.4 185.9 116.3C191.9 120.4 198.4 129.7 197 144.6V144.6Z" fill="black"/>
</svg>
