<svg width="320" height="320" viewBox="0 0 320 320" fill="none" xmlns="http://www.w3.org/2000/svg">
<path d="M281.4 185.9C290.8 164.6 295.4 125.8 275.9 108.7C285.3 102.7 295 98.5 292.4 70.5C251.6 42 141.2 41.1 89.3 79.4C44.1 112.7 26.7 145.9 32.2 177.4C10 191.9 10 226.8 24.5 243.5C26.2 236.6 36.4 220.5 68 220.9C95.2 221.3 125.9 228.2 156.2 240.1C186.1 252 250.8 282.3 272.1 270C301 252.8 301.4 221.7 281.4 185.9V185.9ZM108.9 186.8C98.2 194.5 70.2 190.6 72.7 166.3C76.9 162.9 79.6 161.7 82.1 157.8C84.6 154 89.8 148 99.1 148C108.4 148 112.3 152.2 116.1 158.7C120.9 165.9 116.5 181.3 108.9 186.8V186.8Z" fill="black"/>
</svg>
