<svg width="320" height="320" viewBox="0 0 320 320" fill="none" xmlns="http://www.w3.org/2000/svg">
<path d="M103.423 258.389C106.471 268.94 112.755 278.867 120.115 289.284C102.019 282.932 81.653 261.591 71.422 240.817C65.726 229.25 63.673 216.682 61.967 204.051C60.484 193.064 59.762 181.915 55.887 171.395C53.664 165.359 51.054 159.466 48.303 152.737C56.415 155.236 62.433 160.291 68.881 165.358C62.406 147.444 58.608 129.304 61.891 108.799C69.901 122.236 79.79 131.63 94.572 135.111C91.195 130.873 87.457 126.866 84.541 122.332C81.506 117.613 78.753 112.572 76.818 107.324C74.812 101.885 73.44 96.094 72.708 90.34C72.002 84.795 72.169 79.082 72.503 73.476C72.833 67.936 73.851 62.436 74.602 56.655C79.198 66.614 93.616 86.076 111.186 91.121C119.1 93.393 127.161 94.941 135.982 96.039C132.484 86.828 129.468 78.375 131.324 67.991C132.828 69.873 133.663 70.867 134.444 71.903C142.677 82.822 153.258 90.672 165.911 95.708C172.281 98.243 178.786 100.436 185.204 102.853C190.862 104.984 196.576 106.999 202.103 109.435C218.245 116.55 229.167 128.849 236.027 144.831C237.43 148.101 239.253 150.066 242.553 151.202C250.305 153.872 254.561 159.591 256.351 167.474C258.886 178.639 255.141 188.704 251.768 199.554C249.567 194.974 248.281 190.903 245.904 187.623C239.643 178.984 230.11 175.95 220.158 174.652C211.335 173.501 202.423 173.737 193.829 176.793C177.187 182.711 170.821 197.978 178.697 213.845C182.222 220.945 187.352 226.914 193.224 232.287C200.663 239.092 208.233 245.806 215.134 253.136C222.68 261.152 228.235 270.507 230.636 281.489C233.749 295.727 227.654 305.919 213.437 309.124C203.246 311.421 192.867 310.936 182.832 308.259C159.469 302.026 138.322 291.607 120.905 274.35C115.191 268.685 109.025 263.479 103.423 258.389V258.389ZM203.451 138.396C205.157 146.172 208.805 150.787 214.755 152.316C218.252 153.215 221.94 153.742 224.353 149.946C220.384 141.557 213.294 137.584 203.451 138.396V138.396Z" fill="black"/>
<path d="M100.282 12.588C104.752 14.699 107.142 17.291 109.138 20.282C113.075 26.18 114.723 32.755 114.529 39.792C114.401 44.429 114.086 49.06 113.887 53.695C113.475 63.317 114.506 72.636 120.803 81.862C118.389 81.208 117.073 81.044 115.927 80.513C99.533 72.917 92.046 56.904 96.787 39.423C99.086 30.942 102.032 22.593 100.282 12.588V12.588Z" fill="black"/>
</svg>
