<svg width="320" height="320" viewBox="0 0 320 320" fill="none" xmlns="http://www.w3.org/2000/svg">
<path d="M264 196.1C258.2 183.2 246.1 167.4 227.9 163.1C221.6 161.6 216.1 161.9 212.4 162.5C211 160.9 209.8 159.4 208.6 158.1C219.6 154.1 234.2 145 245.2 124.4C269.3 79.7 292.3 79.3 290 75.3C286.9 70 257.1 80.8 236 119.4C225.6 138.5 211.3 144.9 201.9 147C201.7 142.7 201 138.9 200.3 135.5C211.2 127.9 231.9 110.5 231.9 86.6C231.9 69.3 226.9 59.6 221.7 50.4C209.2 28.3 208.9 7.5 205.2 7.5C201.5 7.5 201.5 35.7 212.1 56.6C216.4 65.2 220.7 72.5 220.7 86.5C220.7 102.7 205.4 115.8 195.4 122.7C188.5 110.3 178.7 107.4 178.7 107.4C195.1 104.7 207 94 202 78.6C196.8 62.3 179.7 52.9 162.2 52.9H158C140.5 52.9 122.8 62.3 118.2 78.6C113.7 94.3 123.4 104.6 139.8 107.4C139.8 107.4 130.9 110.3 124.4 122.6C114.5 115.7 99.5 102.7 99.5 86.7C99.5 72.7 103.6 65.5 108.1 56.8C118.8 35.8 118.8 7.7 115 7.7C111.3 7.7 111 28.5 98.5 50.6C93.3 59.8 88.3 69.5 88.3 86.8C88.3 110.6 108.9 128 119.8 135.7C119.1 139.1 118.4 143.1 118.2 147.3C109.3 145.2 95.7 138.8 85.6 120.1C64.4 81.5 33.1 70.2 30 75.5C27.6 79.5 50.7 79.9 74.8 124.6C85.8 145.2 100.4 154.3 111.4 158.3C110.2 159.6 108.9 161.1 107.6 162.7C103.9 162.1 98.4 161.7 92.1 163.3C73.9 167.6 61.8 183.4 56 196.3C32.7 247.8 23.4 243.4 25.5 246.5C26.9 248.5 39.5 248.3 67.3 198.3C78.2 178.7 90.1 174.6 98.3 174.6C88.5 187.8 77.7 205.1 70.6 224.5C65.8 237.7 63.2 250.6 62.9 261.8C62.7 274.5 65.9 284.6 72.1 291C77.9 296.9 85.5 300.1 93.4 300.1C96.6 300.1 100 299.6 103.3 298.5C109.8 296.4 116 292.4 121.7 286.5C122.1 288.8 127.4 316.4 157.9 316.4H162.1C190.5 316.4 197.7 288.7 198.3 286.5C204 292.4 210.2 296.4 216.7 298.5C220 299.6 223.3 300.1 226.6 300.1C234.5 300.1 242.1 296.9 247.9 291C254.1 284.6 257.2 274.6 257.1 261.8C257 250.6 254.2 237.8 249.4 224.5C242.3 205.1 231.7 188 221.9 174.7C230 174.8 242 179.1 252.8 198.6C280.6 248.6 293.3 248.5 294.6 246.4C296.6 243.3 287.3 247.6 264 196.1V196.1ZM99.5 287.1C92.9 289.2 86.8 287.7 82.3 283.1C74.6 275.3 74.9 252.5 83.4 228.9C92.7 203.4 109.3 181.5 120.2 168.6C124.9 186.5 135.7 198.6 140 203H139.6C130.1 270.5 106.5 284.9 99.5 287.1ZM240.4 282.7C235.8 287.4 229.7 288.8 223.2 286.7C216.1 284.4 189.8 270.5 180.3 203.1H179.9C184.2 198.8 194.9 186.6 199.7 168.7C210.7 181.6 227.2 203.5 236.5 229C245.2 252.5 248.1 274.8 240.4 282.7Z" fill="black"/>
</svg>
