<svg width="320" height="320" viewBox="0 0 320 320" fill="none" xmlns="http://www.w3.org/2000/svg">
<path d="M291.7 99C258.4 79.8 222.7 76 215.1 72.6C207.5 69.2 209.1 58.6 179.9 50.1C150.7 41.6 87.5 43.1 71.5 75.9C67.3 84.4 29.5 165.1 4 182.8C4 182.8 6.9 243.8 64.7 285.7C112.9 325 180.3 317.9 180.3 317.9C196.9 289.9 193.2 225.9 193.9 202C195.6 144.4 214.6 141.9 227.3 138.5C240 135.1 288.3 131.3 301.4 132.1C314.5 133 316.9 134.6 316.9 134.6C316.9 134.6 317.9 114.1 291.7 99V99ZM166.5 107.1C155.4 102.8 150.7 88.7 160.3 89.6C179.6 91.4 186 89.5 186 96.7C186 106.1 176.1 110.9 166.5 107.1Z" fill="black"/>
</svg>
