<svg width="320" height="320" viewBox="0 0 320 320" fill="none" xmlns="http://www.w3.org/2000/svg">
<path d="M272.7 106.3C299.2 90.5 290.6 60.8 279 54.8C267.4 48.7 251.8 69.1 248 64.2C228.2 39.8 202.8 37.5 160.4 37.5H159.4C117 37.5 91.6 39.8 71.8 64.2C68 69.2 52.3 48.6 40.7 54.8C29.1 61 20.5 90.6 47 106.3C34.7 132.7 25.2 161.8 26.4 176.4C28.1 197.1 42.5 220.9 83.7 245.6C108.8 260.7 125 279.2 159.3 279.2H160.3C194.7 279.2 210.7 260.7 235.9 245.6C277.1 220.9 291.5 197.2 293.2 176.4C294.6 161.7 285.1 132.6 272.7 106.3V106.3ZM69.7 95.9C68 87.8 71.5 78.8 81.8 80.1C88.9 81.1 93.2 87.3 95.1 91.1C95.9 92.8 95.1 95.6 94.4 96.3C82 109.2 70.7 100.9 69.7 95.9V95.9ZM224.6 171.7C218.2 202.1 193.4 249.2 160.4 249.2H159.4C126.4 249.2 101.7 202.3 95.2 171.7C88.8 141.3 99.8 106.5 113.8 89.5C127.7 72.6 159.3 73.3 159.3 73.3H160.3C160.3 73.3 191.8 72.7 205.8 89.5C220 106.5 231.1 141.3 224.6 171.7ZM225.6 96.4C225 95.8 223.9 92.8 224.9 91.2C226.8 87.4 231.1 81.2 238.2 80.2C248.7 78.8 252 87.9 250.3 96C249.4 100.9 238.1 109.2 225.6 96.4V96.4Z" fill="black"/>
<path d="M160.5 98H159.5C143.1 98 132.4 99.8 129.7 108.5C127.1 117.1 135.4 145.8 159.5 145.8H160.5C184.4 145.8 192.8 117.1 190.3 108.5C187.7 99.8 177 98 160.5 98V98Z" fill="black"/>
<path d="M159.5 169.2C159.5 169.2 145.6 178.6 138 182.4C138 182.4 142.2 220.4 144.4 223.6C146.6 226.8 153.4 229.7 159.4 229.7H160.4C166.5 229.7 173.3 226.8 175.4 223.6C177.5 220.4 181.8 182.4 181.8 182.4C174.3 178.5 160.3 169.2 160.3 169.2H159.5Z" fill="black"/>
</svg>
