<svg width="320" height="320" viewBox="0 0 320 320" fill="none" xmlns="http://www.w3.org/2000/svg">
<path d="M239.6 253.8C236.8 231.6 228.3 210.3 228.3 210.3C235.5 197.8 236.5 183.2 233.9 171.6C231.4 159.8 220.3 144.3 209.6 134.1C215.6 129.2 221.4 121.4 220.3 109.5C218 85 221.6 81 229.9 47.8C233.7 32.8 236.3 17.8 233.1 10.7C229.7 3.3 223.7 6.2 220.1 10.9C212.9 20.3 207.8 28.5 198.9 43C188.9 59.4 180.7 79.4 181 98.7C181.2 110.7 181.2 118.4 181.3 123.2C174.1 124.1 167.1 126.3 161.5 126.3H160.6C155 126.3 148 124.1 140.8 123.2C140.8 118.4 140.9 110.6 141.1 98.7C141.4 79.4 133.2 59.4 123.2 43C114.4 28.5 109.2 20.2 102 10.9C98.4 6.2 92.4 3.4 89 10.7C85.8 17.7 88.4 32.8 92.2 47.8C100.5 80.9 104.1 85 101.7 109.4C100.6 121.2 106.4 129.1 112.4 134C101.7 144.2 90.7 159.7 88.1 171.5C85.6 183.2 86.5 197.7 93.7 210.2C93.7 210.2 85.3 231.5 82.4 253.7C79.6 275.9 96.5 289 112.7 294.8C128.9 300.6 139.4 313.1 160.6 313.1H161.5C182.6 313.1 193.2 300.7 209.4 294.8C225.6 288.9 242.4 276 239.6 253.8V253.8ZM128.9 215.4C128.7 217.8 125.8 218.7 124.6 218.3C116.1 215.8 109.5 209.5 106.8 198.6C104 187.4 104.6 170.7 113.9 173.1C130.5 177.3 129.8 205.2 128.9 215.4V215.4ZM183.2 281.2C174.8 285.4 173 294.8 161.4 294.8H160.5C148.9 294.8 147.2 285.4 138.7 281.2C130.3 277 134.4 269.2 138.5 270.3C144.1 271.8 154 273.6 160.4 273.6H161.3C167.7 273.6 177.6 271.8 183.2 270.3C187.5 269.2 191.7 277 183.2 281.2ZM215.2 198.6C212.5 209.4 206.1 215.7 197.8 218.2C196.4 218.6 193.3 217.7 193.1 215.2C192.2 204.8 191.6 177.3 208.2 173C217.4 170.7 218 187.4 215.2 198.6Z" fill="black"/>
</svg>
