<svg width="320" height="320" viewBox="0 0 320 320" fill="none" xmlns="http://www.w3.org/2000/svg">
<path d="M270.7 107.1C275.8 103.9 279.6 99.9 282.1 95.1C287.6 84.5 286.1 70.5 277.9 54.6C270.3 39.9 249.1 22.9 227.5 33.1C220.3 36.5 215.5 41.5 212.3 46.7C192.4 37.1 172.7 33.6 160.5 33.6H159.5C147.3 33.6 127.6 37 107.7 46.7C104.5 41.4 99.7 36.5 92.5 33.1C82.1 28.2 70.5 29.1 59.9 35.6C51 41.1 44.7 49.3 42.1 54.6C33.8 71.3 32.5 85 38 95.4C40.5 100.1 44.3 104 49.3 107.1C27.5 154 28.1 190.4 39.3 209.8C51.1 230.3 85 241.7 95.6 260.8C106.2 279.9 130.2 285.4 159.5 285.4H160.5C190.1 285.4 213.8 279.9 224.4 260.8C235 241.7 268.9 230.3 280.7 209.8C291.9 190.5 292.5 154.1 270.7 107.1V107.1ZM233.3 45.5C248.3 38.4 262.3 54.3 265.7 60.9C269.9 69.2 274.1 80.7 269.9 88.9C268.7 91.2 266.9 93.2 264.5 94.9C254 76.2 239.6 62.8 224.3 53.4C226.4 50.3 229.3 47.4 233.3 45.5V45.5ZM54.3 60.8C57.5 54.4 71.6 38.3 86.7 45.5C90.4 47.3 93.4 49.9 95.7 53.4C80.5 62.8 65.9 76.3 55.5 95C53.1 93.3 51.3 91.4 50.1 89.2C46.7 82.7 48.1 73.2 54.3 60.8V60.8ZM102.6 206.7C91.2 206.2 69.8 204.9 70.7 174.4C71.6 143.9 102.1 107 129 116.6C142.1 121.3 139.5 142.7 137.6 150.8C135.8 158.9 129.1 164.8 125.9 175.3C122.8 185.7 114 207.1 102.6 206.7V206.7ZM183.1 225.7C174 229.8 170.8 238.9 160.5 238.9H159.5C149.1 238.9 146 229.8 136.9 225.7C127.8 221.6 117.6 214.3 124.8 208C132 201.7 150.3 208 159.5 208H160.5C169.7 208 187.9 201.6 195.2 208C202.5 214.3 192.2 221.6 183.1 225.7V225.7ZM217.4 206.7C206 207.2 197.3 185.8 194.1 175.3C190.9 164.8 184.2 158.9 182.4 150.8C180.6 142.7 178 121.2 191 116.6C217.9 107 248.3 143.9 249.3 174.4C250.1 204.8 228.7 206.2 217.4 206.7V206.7Z" fill="black"/>
<path d="M107.5 147.1C94.6 140 92.5 159.4 105.5 166.7C113.7 171.3 121.9 165.6 122.4 157.8C122.8 150.1 116.6 152.1 107.5 147.1Z" fill="black"/>
<path d="M212.5 147.1C203.4 152.1 197.2 150.1 197.7 157.8C198.2 165.5 206.4 171.3 214.6 166.7C227.5 159.4 225.4 140 212.5 147.1Z" fill="black"/>
</svg>
