<svg width="320" height="320" viewBox="0 0 320 320" fill="none" xmlns="http://www.w3.org/2000/svg">
<path d="M304.6 100.4C290.6 82.7001 275.4 85.7001 275.4 85.7001C275.4 85.7001 275.4 67.4001 265.5 59.0001C255.6 50.6001 240 53.7001 240 53.7001C240 53.7001 236.7 39.2001 224.4 33.1001C212.1 27.0001 193.2 33.1001 193.2 33.1001C193.2 33.1001 188.3 11.7001 160.5 11.7001H157.6C129.9 11.6001 125 33.0001 125 33.0001C125 33.0001 106.1 26.9001 93.8 33.0001C81.5 39.1001 78.1 53.6001 78.1 53.6001C78.1 53.6001 62.5 50.6001 52.7 59.0001C42.8 67.4001 42.8 85.7001 42.8 85.7001C42.8 85.7001 27.6 82.6001 13.6 100.4C1.40001 115.9 -10.7 163.7 98.7 253.9C98.7 253.9 85.8 262.4 92.1 277.2C98.6 292.3 117.2 290.6 117.2 290.6C117.2 290.6 124.7 310.5 157.7 310.5H160.6C193.6 310.5 201.1 290.6 201.1 290.6C201.1 290.6 219.7 292.3 226.2 277.2C232.6 262.4 219.6 253.9 219.6 253.9C328.9 163.7 316.8 115.8 304.6 100.4V100.4ZM206.5 250C206.5 250 179 245.4 160.6 245.4H158C139.7 245.4 112.1 250 112.1 250C112.1 250 113.6 247.9 128.5 240.4C104.9 211.4 70.4 142 55.8 111.5C51.4 102.3 51.8 102 56.8 110.6C75.2 142 120.5 217.2 141.2 232.9C132.9 181 129.3 104.6 128 69.8001C127.6 58.3001 128.3 58.6001 129.8 70.1001C135.9 116.4 151.8 232.6 158.9 232.6H159.5C166.5 232.6 182.2 118.8 188.4 71.5001C190 59.1001 190.8 59.0001 190.4 71.5001C189.1 107 185.5 181.8 177.3 232.8C197.9 217.1 243.1 142.2 261.6 110.7C266.7 102.1 267.1 102.4 262.7 111.6C248 142.2 213.6 211.5 190 240.4C205 248 206.5 250 206.5 250V250Z" fill="black"/>
</svg>
