<svg width="320" height="320" viewBox="0 0 320 320" fill="none" xmlns="http://www.w3.org/2000/svg">
<path d="M300 172.4C298.4 153.2 288 107.9 270.8 76.2C277.2 69.1 279.4 62 279.5 56.1C279.6 50.9 272.4 43.2 243.1 45C209.4 29 182.2 40.2 162.2 40.2H160.8C140.8 40.2 113.5 29 79.9 45C69 45.7 43 42.6 43 54.9C43 60.8 45.7 69.1 52.1 76.2C34.9 107.9 24.6 153.2 22.9 172.4C20.5 200.4 25 233.2 44.5 250.1C68.7 271.1 87 256.5 107 270.1C116.9 276.9 132.6 294.1 160.7 294.1H162.1C190.1 294.1 205.8 276.8 215.8 270.1C235.8 256.5 253.3 271.1 278.3 250.1C298.1 233.5 302.4 200.5 300 172.4V172.4ZM108.9 185.6C96.6 185.5 96.9 173.8 98.3 168C99.7 162.2 105.7 153.4 114.3 156.8C122.8 160.1 121.9 185.7 108.9 185.6V185.6ZM174.4 245.9H174.3C173.6 246.1 172.9 246.3 172.2 246.5C168.4 247.8 168 250.7 167.6 258C167.2 266.6 175.2 267 179.2 267C183.2 267 189.6 264.2 190.4 267C191.2 269.8 182.5 271.2 163.7 271.2H162.3C143.5 271.2 134.8 269.8 135.6 267C136.4 264.2 142.8 267 146.8 267C150.8 267 158.8 266.6 158.4 258C158.1 250.6 157.8 247.8 153.9 246.5C153.2 246.4 152.6 246.2 151.9 246H151.8C137 241.7 131.9 227.9 136.4 212.5C141.8 193.9 153 185.7 162.4 185.7H163.4C172.8 185.7 184 193.9 189.4 212.5C194 227.8 189 241.5 174.4 245.9V245.9ZM219.5 185.6C206.5 185.7 205.7 160.1 214.1 156.8C222.7 153.4 228.7 162.2 230.1 168C231.4 173.8 231.7 185.6 219.5 185.6V185.6Z" fill="black"/>
</svg>
