<svg width="320" height="320" viewBox="0 0 320 320" fill="none" xmlns="http://www.w3.org/2000/svg">
<g clip-path="url(#clip0_1_247)">
<path d="M311.4 135.1C311.3 135 311.1 134.9 311 134.9C289.6 143.6 247.3 161.1 241.9 166.2C238.8 169.2 238.2 171.4 238.2 171.4C238 172.1 237.7 172.9 237.5 173.6C234.3 175.8 232.9 175.4 232.3 175.1C230.1 173.8 231.1 167.6 233 163.3C235.5 157.9 239.9 155 241.9 153.7C251.1 147.8 259.3 145.1 269.2 141.1C280 136.8 288 133.6 293.7 131.3C293.9 131.1 294.1 131 294.3 130.7C297.3 127.1 291.1 115.2 282.5 106.3C275.5 99.1 268.7 95.7 260.3 91.5C254.5 88.6 245.6 84.2 233 81.9C224.7 80.4 217.5 80.2 212.3 80.4C207.8 74.3 200.3 65.7999 188.6 58.9999C183.5 55.9999 174.3 50.8 161.3 49.4C152.2 48.4 144.7 49.7 139.9 50.9C143.9 55.5 148.5 61.7999 152.5 70.0999C154.9 75.1999 156.6 79.9999 157.7 84.0999C141.7 88.2999 129 93.3 120 97.4C112.1 101 105.1 104.6 98.6 110.7C92.5 116.3 89.2 121.7 88.3 123.3C86.4 126.5 85.4 128.1 84.6 130.7C82.7 136.6 83.2 142.8 80.2 145.5C79.5 146.1 78.7 146.2 78.7 146.2C77.4 146.5 76.2 145.8 75.7 145.5C74.4 141.5 72.6 136.7 69.8 131.5C66.5 125.3 63.2 120.8 61.7 118.9C57.4 113.5 49.6 103.7 35.8 97.5C31.6 95.6 25.1 93.2 16.6 92.3C18.7 95.5 21.6 100.1 24.7 105.6C27.3 110.3 29.5 114.5 30.6 116.7C39.3 134.5 40.2 150.7 40.2 150.7C40.9 163.6 38 177.9 34.3 185.4C27.6 199.2 24.7 203.1 24.7 203.1C23 206 21.3 209 19.5 212C18 214.5 16.5 217 15.1 219.4C18.5 219.5 23.8 219.3 29.9 217.2C30.9 216.8 35.7 215.1 41 211.3C46.7 207.1 50.1 202.6 53.6 198C55.9 194.9 57.5 192.5 58 191.3C58.4 190.5 60 187.8 61.7 183.9C62.3 182.4 62.8 181.1 63.2 180.2C64.5 180 66.4 180 68.4 180.9C71.2 182.3 72.5 184.9 73.6 187.6C75.4 191.9 77.4 196.8 79.5 202.4C81.5 209.9 86.7 224.9 100.2 238.6C117.8 256.6 138.6 261 146 262.3C146.2 265.6 146.2 271.3 143.8 277.8C141.9 283 139.1 286.6 137.1 288.9C145.6 290.4 151.8 289.2 155.6 288.2C165.8 285.3 172.9 278.5 184.4 267.5C187.3 264.7 189.6 262.4 191.1 260.8C196 260.6 202.8 260.3 211.1 259.3C232.2 256.9 249.1 254.9 265.8 246C288.7 233.8 299.9 214.5 306.5 203.1C311.5 194.5 322.7 174.7 319.8 152.8C318.9 147.6 317.7 138.9 311.4 135.1V135.1ZM225.7 134.3C225.5 134.2 219.7 131.8 219 126.2C218.4 121 222.5 116.7 226.4 115.1C230.7 113.3 234.7 114.9 235.3 115.1C236 115.4 241.1 117.5 242 122.5C242.9 127.7 238.3 131.5 237.6 132.1C237 132.5 231.7 136.8 225.7 134.3Z" fill="black"/>
</g>
<defs>
<clipPath id="clip0_1_247">
<rect width="320" height="320" fill="white"/>
</clipPath>
</defs>
</svg>
