<svg width="320" height="320" viewBox="0 0 320 320" fill="none" xmlns="http://www.w3.org/2000/svg">
<path d="M185.5 50.4C145.7 35 102 38.9 86.2 45.8C68.6 53 67.2 69.1 67.2 69.1C54.5 68.3 25.9 69.9 17.8 86.7C9.70001 103.5 15.5 131.1 15.5 131.1C15.5 131.1 19 113.5 33.1 114.3C47.2 115.1 92.5 110.8 102 150.3C70.1 176 38.4 223.5 59.8 274.4C64.1 250.4 80.9 233.5 99.6 222.4C110.7 235.5 159 262.6 207.3 255.7C195.4 245 190.8 238.9 181.6 221.6C217.6 231.6 258.2 268.4 268.9 277.2C280.5 202.1 245.6 74.2 185.5 50.4V50.4ZM123.4 95.9C101.2 99.8 98.9 78.3 105 77.9C111.1 77.5 117.7 76.7 123.4 75.2C127.9 74 133 72.5 136.1 72.9C143.4 73.8 141.8 92.9 123.4 95.9V95.9Z" fill="black"/>
</svg>
