<svg width="320" height="320" viewBox="0 0 320 320" fill="none" xmlns="http://www.w3.org/2000/svg">
<path d="M156.3 270.7C150 269.5 139.6 266.7 128.8 259.4C118.4 252.3 112.6 244.4 109.4 240C96.7 222.4 94.2 204.7 93.2 198C92.2 190.9 90.3 175.5 96.4 157.6C98 152.8 99.8 149 101.2 146.3C107.2 149.6 115.3 153.4 125.4 156C137.7 159.2 148 159.2 156.1 159.2C156.3 196.4 156.3 233.5 156.3 270.7V270.7Z" fill="black"/>
<path d="M99.7 139.2C99.9 135.2 100.4 130.7 101.3 126C103.8 113.4 108.5 103.3 112.6 96.3C111.5 94.6 110.1 91.8 109.4 88C108.1 81.5 109.9 76.3 111 73.1C113.1 66.9 116.6 62.5001 119.1 59.9001C117.4 58.6001 114.9 56.5 112.6 53.3C107.7 46.3 104 34.4001 109.4 25.2001C110.4 23.5001 112.3 20.9 115.9 18.6C117 21.9 118.9 26.7 122.4 31.8C125.6 36.6 131.7 45.5 141.8 48.3C142.4 48.5 142.9 48.6 143.4 48.6C146.4 49 148.8 48.6001 149.6 48.4001C150.2 48.3001 154.4 48.3001 162.8 48.2001H172.5H177.3H178.9C181.6 48.2001 191.7 43.7001 198.3 31.7001C200 28.6001 202.2 23.6 203.1 16.8C204.8 17.9 207.4 20 209.6 23.4C214.8 31.8 213.9 43.7 208 51.5C205.4 54.9 202.3 56.9 199.9 58.1C202.5 60.6 207.5 66.1 209.6 74.6C210.3 77.6 211.6 83.1 209.6 89.5C208.7 92.4 207.4 94.7001 206.4 96.1001C211.1 103.5 216.5 114 219.3 127.5C220.1 131.6 220.6 135.5 220.9 139.1C206.7 145.6 194.3 149 185.4 151C178.1 152.6 170.2 154.2 159.5 154.2C147.6 154.2 138.8 152.2 132 150.7C123.8 148.9 112.4 145.5 99.7 139.2V139.2Z" fill="black"/>
<path d="M109.4 296.5C107.4 296.9 102.5 297.7 99.7 294.9C98.2 293.4 97.5 291.2 98.1 282C98.7 273.3 99.7 267.5 99.7 267.5C100.7 262.2 102.2 255 104.5 246.5L127.1 269.1C127.6 273.4 127.8 282.2 122.3 288.5C121.8 289 121.3 289.6 120.7 290.1C121.8 295.5 123.9 299.1 125.5 301.4C128 304.8 130.5 306.5 130.3 309.5C130.2 311.6 128.8 313.4 127.1 314.3C124.3 315.8 120.9 314.7 119 312.7C117.9 311.5 117.5 310.2 117.4 309.5C114.8 305.1 112.1 300.8 109.4 296.5V296.5Z" fill="black"/>
<path d="M94 131.2C89.6 129 82.8 124.8 77.4 117.2C75.5 114.6 74.1 112 73.1 109.6C72.1 108.5 70.8 107 69.2 105.2C66.2 101.7 64.9 99.8 61.3 94.9C54.8 86.2 52.6 83.6 52.7 79.8C52.7 78 53.2 77 53.9 76.4C55.4 74.8 58.3 74.8 60.3 75.5C63.3 76.6 63.1 78.8 68.2 85.8C70.4 88.7 72.6 91.3 74.1 93.1C75.7 94.9 77 96.4 78 97.5C79.6 97.6 81.3 97.9 83 98.4C92.2 101.3 96.7 109.8 98 112.6C97.3 115.3 96.6 118.1 95.9 121C95.1 124.6 94.5 128 94 131.2V131.2Z" fill="black"/>
<path d="M111 70.3C111.3 70.3 116.9 69.9 117.5 67.1C117.8 65.5 116.5 63.6 114.3 62.3C110.2 60.1 106.4 57.9 103 55.8C103 55.8 95.6 51.3 94.9 47.7C94.7 46.9 94.9 46.1 94.9 46.1C96.5 44 96.7 42.4 96.5 41.3C96.1 38.3 92.9 37.2 93.3 34.8C93.5 33.2 95 33 94.9 31.6C94.8 30.2 93.3 28.7 91.7 28.4C90.3 28.1 89.6 29 88.5 28.4C87.5 27.9 87.7 27.1 86.9 26.8C85.2 26.1 82.8 29 82.1 28.4C81.5 28 82.8 26.2 82.1 25.2C81.3 23.9 77.9 24.2 75.6 25.2C70.7 27.4 69.4 33.6 69.1 34.9C70.2 37.7 71.4 39.8 72.3 41.4C75.6 46.7 79.5 50.4 81.6 52.4C81.8 52.5 81.9 52.7 82 52.7C84.9 55.3 89.9 58.8 99.8 65.6C104.4 68.7 107.2 70.5 111 70.3Z" fill="black"/>
<path d="M250.9 207.7C247.8 206.2 247.6 206.1 247.6 206.1C245.9 205.2 242.6 202.2 236 193.2C236.2 188.1 236.2 182.1 235.5 175.4C234.8 168.6 233.6 162.7 232.3 157.6C244 164.3 251.6 171.7 256.4 177.2C260.4 181.8 271.1 194 267.6 199.6C267.2 200.2 266.7 200.8 265.9 201.2C268.7 206.6 271.4 212 274.2 217.4C274.2 217.7 273.7 220.7 270.9 222.2C267.7 224 264.4 222.3 264.2 222.2C260.9 217.9 257.5 213.6 254.2 209.3L250.9 207.7V207.7Z" fill="black"/>
<path d="M209.4 296.5C211.4 296.9 216.5 297.7 219.4 294.9C221 293.4 221.7 291.2 221.1 282C220.5 273.3 219.4 267.5 219.4 267.5C218.4 262.2 216.8 255 214.4 246.5C206.6 254 198.9 261.6 191.1 269.1C190.6 273.4 190.4 282.2 196.1 288.5C196.6 289 197.1 289.6 197.8 290.1C196.6 295.5 194.5 299.1 192.8 301.4C190.2 304.8 187.6 306.5 187.8 309.5C187.9 311.6 189.4 313.4 191.1 314.3C193.9 315.8 197.5 314.7 199.4 312.7C200.5 311.5 200.9 310.2 201.1 309.5C203.8 305.1 206.6 300.8 209.4 296.5V296.5Z" fill="black"/>
<path d="M226 131.6C230.4 129.3 237.3 124.9 242.7 117.2C244.6 114.5 245.9 111.9 246.9 109.5C247.9 108.4 249.2 106.9 250.7 105C253.6 101.4 255 99.5001 258.6 94.5001C265 85.6001 267.2 83.0001 267 79.2001C266.9 77.4001 266.4 76.4001 265.7 75.8001C264.1 74.2001 261.1 74.3001 259.1 75.1001C256.1 76.2001 256.3 78.5001 251.2 85.6001C249.1 88.6001 246.9 91.2001 245.4 93.1001C243.8 95.0001 242.5 96.5001 241.6 97.6001C240 97.7001 238.3 98.1001 236.5 98.7001C227.1 101.8 222.8 110.5 221.5 113.3C222.3 116 223.2 118.8 223.9 121.7C224.7 125.1 225.4 128.4 226 131.6V131.6Z" fill="black"/>
<path d="M207.7 70.3C207.4 70.3 201.6 69.9 201 67.1C200.7 65.5 202.1 63.6 204.3 62.3C208.5 60.1 212.4 57.9 215.9 55.8C215.9 55.8 223.5 51.3 224.2 47.7C224.4 46.9 224.2 46.1 224.2 46.1C222.6 44 222.4 42.4 222.5 41.3C222.9 38.3 226.2 37.2 225.8 34.8C225.6 33.2 224.1 33 224.1 31.6C224.2 30.2 225.8 28.7 227.4 28.4C228.8 28.1 229.6 29 230.7 28.4C231.7 27.9 231.5 27.1 232.4 26.8C234.2 26.1 236.6 29 237.4 28.4C238 28 236.7 26.2 237.4 25.2C238.3 23.9 241.8 24.2 244.1 25.2C249.2 27.4 250.5 33.6 250.8 34.9C249.7 37.7 248.4 39.8 247.5 41.4C244.1 46.7 240.1 50.4 237.9 52.4C237.7 52.5 237.6 52.7 237.5 52.7C234.5 55.3 229.4 58.8 219.2 65.6C214.6 68.7 211.7 70.5 207.7 70.3V70.3Z" fill="black"/>
<path d="M70.4 207.7C73.4 206.2 73.6 206.1 73.6 206.1C75.3 205.2 78.4 202.2 84.8 193.2C84.6 188.1 84.6 182.1 85.3 175.4C86 168.6 87.1 162.7 88.4 157.6C77.2 164.3 69.8 171.7 65.2 177.2C61.4 181.8 51 194 54.4 199.6C54.8 200.2 55.3 200.8 56 201.2C53.3 206.6 50.7 212 48 217.4C48 217.7 48.5 220.7 51.2 222.2C54.3 224 57.4 222.3 57.6 222.2C60.8 217.9 64 213.6 67.2 209.3L70.4 207.7V207.7Z" fill="black"/>
<path d="M162.7 270.7C168.9 269.5 179.1 266.7 189.7 259.4C200 252.3 205.7 244.4 208.8 240C221.2 222.4 223.8 204.7 224.7 198C225.6 190.9 227.5 175.5 221.5 157.6C219.9 152.8 218.1 149 216.7 146.3C210.8 149.6 202.8 153.4 192.9 156C180.8 159.2 170.6 159.2 162.7 159.2V270.7Z" fill="black"/>
</svg>
