<svg width="320" height="320" viewBox="0 0 320 320" fill="none" xmlns="http://www.w3.org/2000/svg">
<path d="M281.9 166C274.2 136.8 257.3 107 257.3 107C257.3 107 266.2 91.8001 262.9 77.5001C259.7 63.1001 244.4 54.2001 244.4 54.2001C233.5 20.1001 199.8 5.1001 161.4 5.1001H160.5C122.1 5.1001 88.4 20.1001 77.5 54.2001C77.5 54.2001 62.2 63.2001 59 77.5001C55.8 91.9001 64.6 107 64.6 107C64.6 107 47.7 136.7 40 166C32.3 195.2 38.4 227.1 65 239.9C71 242.8 77.5 245 84.5 246.7C88.9 272.9 96.5 299.3 109.8 309.8C112.3 311.8 115.1 312.8 117.8 312.8C119.5 312.8 121.1 312.4 122.7 311.7C129.3 308.5 135.8 298.7 139 252.5C146.5 252.6 153.7 252.7 160.5 252.7H161.4C167.9 252.7 174.8 252.7 182 252.6C185.2 298.8 191.7 308.5 198.3 311.7C199.9 312.5 201.5 312.8 203.2 312.8C205.9 312.8 208.7 311.8 211.2 309.8C224.5 299.3 232.1 273 236.5 246.9C243.8 245.1 250.7 242.9 256.9 239.9C283.5 227.1 289.6 195.2 281.9 166ZM176.7 116C183.1 110.7 194.4 114 192.8 120.6C191.2 127.2 183.7 123.2 178.9 128.9C174.1 134.6 170.4 133.8 170 130C169.7 126.2 171.9 120 176.7 116V116ZM144.4 116C149.2 120 151.5 126.2 151.1 130C150.7 133.8 147.1 134.6 142.2 128.9C137.4 123.2 129.9 127.2 128.3 120.6C126.7 114 138 110.7 144.4 116V116ZM90.7 72.5001C105 78.7001 107.2 92.8001 104.8 96.8001C102.4 100.8 94.5 104.4 86.5 103.2C78.4 102 76.4 97.4001 76 89.6001C75.6 81.9001 81.3 68.5001 90.7 72.5001ZM160.6 164.6H160C160 164.6 151.1 180.9 126.4 186.4C126.5 197.3 126.4 215.8 125.5 234.9C123.7 276.1 119.7 298.6 117.6 298.7C114.6 298.8 108.6 285.9 107.1 282.2C101.7 268.4 98.2 248.9 96.1 229.1C96.1 228.9 96.1 228.8 96 228.6C95.9 227.4 95.7 226.2 95.6 224.9C92.9 197.7 91.9 178.4 109.2 178.4C137.5 178.4 151.7 159.3 157 151.2C158.7 148.6 161.7 148.6 163.4 151.2C168.7 159.3 182.9 178.4 211.2 178.4C225.9 178.4 227.6 190.6 226.5 208.9L226.6 209C226.3 214.2 225.8 219.4 225.3 224.8V225C223.2 246.4 219.6 268.2 213.7 283C212.2 286.8 206.4 298.5 203.4 298.3C201.3 298.2 194.9 278.8 195.5 234.9C195.7 215.9 195.4 197.5 195 186.6C169.6 181.4 160.6 164.6 160.6 164.6V164.6ZM245.1 89.7001C244.7 97.5001 242.7 102.1 234.6 103.3C226.5 104.5 218.7 100.9 216.3 96.9001C213.9 92.9001 216.1 78.7001 230.4 72.6001C239.9 68.5001 245.5 81.9001 245.1 89.7001V89.7001Z" fill="black"/>
</svg>
