<svg width="320" height="320" viewBox="0 0 320 320" fill="none" xmlns="http://www.w3.org/2000/svg">
<path d="M265.7 142.2C273.4 141.7 281.7 142.5 290.7 145C290.7 145 291.1 131.7 279.2 121C267.3 110.3 249.3 110.5 249.3 110.5C249.3 110.5 266.5 102 261.5 71.2C256.5 40.4 226.1 33.9 203.3 30.6C180.4 27.4 157.6 36.2 130.1 2.09998C130.1 2.09998 121.7 13.7 127 29.4C127 29.4 105 32.7 92.3 14.1C92.3 14.1 79.9 27 90.3 46.9C90.3 46.9 82.5 54.1 53.4 46.8C53.4 46.8 51.9 93.4 114.1 102.8C114.1 102.8 90.6 122.1 72.3 147C54 171.9 29.3 199.1 8.19995 210.5C8.19995 210.5 24.2 268.4 81.8 299.3C162 342.6 234.2 299.3 234.2 299.3C234.2 299.3 232.9 284 222 256.3C214.1 236.3 210.7 220.4 210.4 207.4C210.5 205.7 211 192.7 218.1 193.1C221.8 193.2 221.4 201.4 222.6 212.5C223.6 224.9 231.3 234.4 247 233.9C259.4 233.5 269.2 223.8 269.9 211.7C270.4 206 268.7 199.2 264.6 191.4C250.9 164.1 249.6 145.6 265.7 142.2V142.2ZM183.6 112.7C187.6 109.9 193.4 106.8 199.7 106.6C211 106.2 217 111.8 217.9 116.6C218.6 120.9 212 128.1 198.6 127.3C192 126.9 186.9 124.4 183.6 122C179.8 119.6 180.2 115 183.6 112.7V112.7Z" fill="black"/>
</svg>
