<svg width="320" height="320" viewBox="0 0 320 320" fill="none" xmlns="http://www.w3.org/2000/svg">
<path d="M313.3 125C306.5 107.6 294 97.4999 289.9 94.1999C284.1 89.5999 278.2 86.0999 278.2 86.0999C269.2 80.7999 263.3 79.2999 257 72.1999C255.8 70.8999 255 69.7999 254.1 68.4999C250 62.9999 245.6 57.0999 245.3 49.4999C245.2 48.0999 245.3 45.7999 246 42.8999C242.9 43.9999 236.6 46.7999 233.5 53.1999C230.7 59.0999 232 65.2999 233.5 72.1999C234.4 76.2999 235.5 79.5999 236.4 81.6999C233 83.1999 227.8 85.9999 223.2 91.1999C216.4 98.8999 214.6 107.7 213.7 112.4C211.7 122.4 214.1 125.1 211.5 132.9C209.3 139.4 205.5 144 202.7 146.8C199.3 146.1 194.6 145.3 188.8 145.3C171.1 145.3 158.1 152.6 152.9 155.6C136.4 165.1 127.3 178.3 119.2 190C116 194.7 113.5 198.8 111.9 201.7C110.9 200.3 109.5 198.1 109 195.1C108.7 193.5 107.9 187.4 118.5 173.9C121 170.7 125.9 164.5 133.9 157.8C140.4 152.4 143.6 151.1 147.8 145.3C151.4 140.5 153 136.1 153.7 134.3C155.3 129.8 155.6 126.2 155.9 121.8C157 106.6 153.3 95.8999 152.3 93.0999C152.2 92.8999 151.9 91.9999 151.5 90.9999C149.5 86.0999 144 72.6999 130.3 62.3999C117.9 53.1999 104.9 51.0999 98.1 50.6999C85.5 49.7999 76 53.1999 66.6 56.5999C62 58.1999 53.2 61.3999 43.2 68.2999C38.1 71.7999 21.8 83.6999 11.7 104.9C10.2 107.9 8.10001 112.4 6.60001 118.8C3.60001 131 4.80001 141.2 5.90001 146.6C7.20001 153.3 8.90001 162.4 16.2 170.8C18.4 173.4 27.6 183.9 37.4 181.8C40 181.2 41.8 180 43.3 178.9C47.7 175.7 50.2 169.4 55 156.9C55 156.9 60.6 142.5 64.5 135.7C66 133.2 67.3 131.2 68.2 129.8C70.6 131.3 73.4 133.7 74.1 137.1C74.8 140.9 72.6 144.2 71.9 145.2C65.2 155.5 53.5 186.7 52.1 201.6C52.1 201.8 52 202.7 51.9 203.8C51.5 209 50.9 219.8 54.3 231.6C57.8 243.7 64 251.6 66.8 255C78.3 269.3 92.4 275.8 99.8 278.4C100.8 279.9 102.2 282 104.2 284.3C106.2 286.6 107.4 288.1 109.3 289.4C111.9 291.2 114.4 291.8 117.4 292.3C121.5 293.1 127.2 294 134.2 294.5C160.2 293.6 181.6 292.8 197.2 292.3C224 291.4 229.2 291.2 232.4 291.6C234.3 291.9 236.6 291.8 241.2 291.6C243.8 291.5 244.4 291.4 244.9 290.9C246.6 288.9 242.8 282.8 239.8 279.2C238.1 277.2 231.9 269.9 221.5 268.9C217.7 268.5 214.6 269.1 212.7 269.6C212.9 268.5 213.1 266.7 213.4 264.5C214.3 258.1 214.7 256.4 214.9 253.5C215 252 215.1 249.7 214.9 246.9C218.7 244.2 221.6 241.6 223.7 239.6C226.4 237 228.8 234.6 231 230.8C232 229.1 232.7 227.5 233.2 226.4C236.5 226.4 241.9 226 247.9 223.5C250.6 222.4 254.5 220.7 258.2 216.9C259.6 215.5 265.5 209.3 264.8 201.5C264.7 200.1 264.2 195.1 261.1 194.2C258.4 193.4 255.6 196.1 255.2 196.4C256.1 192.6 256.8 189.6 257.4 187.6C258.8 182.7 260.3 177.5 261.1 173.7C262.2 168.4 261.9 167.5 262.2 166.8C262.2 166.8 262.3 166.6 262.5 166.3C264.3 164.2 275 166.3 275 166.3C275 166.3 281.3 167.5 287.5 167.8C292.2 168 298.7 168.2 305.1 164.9C306.2 164.3 313.3 160.5 316.8 152.4C320.4 143.2 316.7 133.8 313.3 125V125ZM292 133.8C291.7 134.3 291.1 135.3 289.8 136C287.7 137.1 285.4 136.4 283.9 136C280.5 135 278.5 132.9 275.8 130.1C274.6 128.9 274.1 128.1 273.6 127.2C273.1 126.2 272.2 124.2 272.9 122.1C273.5 120.2 275.2 119.2 276.6 118.4C277.4 117.9 279.4 116.8 281.7 116.9C285.9 117.1 288.6 121 289.8 122.8C290.3 123.6 294.4 129.6 292 133.8V133.8Z" fill="black"/>
</svg>
