<svg width="320" height="320" viewBox="0 0 320 320" fill="none" xmlns="http://www.w3.org/2000/svg">
<path d="M202.2 141.4C190.1 143.2 183.1 135.3 183.5 126.3C183.5 107.7 227.6 58.4 298.3 83C299.6 83.4 300.1 82.1 299.2 81.2C210.9 19.4 50.5 39 2.20001 186.3C10.9 200.5 25.1 216.1 43.4 230.3C88 240.7 147.4 199.6 115.7 132.6C147.3 173.7 132.6 235.5 67.6 247.2C106.6 270.5 157.3 285.6 208.8 275.7C209.2 275.7 209.2 274.8 208.8 274.8C175.5 272.6 164.7 229.5 201.4 215.6C213.5 234.6 226.5 237.6 247.3 239.8C248.2 239.8 249.1 238.5 248.2 238C213.5 198.3 236.4 126.9 294.5 111.8C295.4 111.8 295.4 110.5 294.5 110C254.7 104.2 218.2 118.5 202.2 141.4V141.4ZM54.1 185.8C45.8 185.8 38.9 178.9 38.9 170.7C38.9 162.4 45.8 155.6 54.1 155.6C62.4 155.6 69.3 159.9 69.3 168C69.3 176.2 62.3 185.8 54.1 185.8V185.8Z" fill="black"/>
</svg>
