<svg width="320" height="320" viewBox="0 0 320 320" fill="none" xmlns="http://www.w3.org/2000/svg">
<path d="M286.2 102.4C277.4 94 262.9 102.1 250.5 108.1C238.1 114.1 234.5 126.5 224.5 130.5C222.1 131.5 218 131 218.4 124.2C219.2 111 233.9 104 242.7 98C257.1 88 269.4 73.2 255.8 52.5C250 43.7 236 31.9 230.3 17.9C229.3 15.5 226.2 12.3 225.1 16.2C223.8 21.1 223.1 29.7 230.5 42.1C243.1 63.2 243.9 70.8 239.2 75.2C234 80 227.2 77.5 221.7 70.4C215.1 61.9 216.1 53.3 216.1 53.3C216.1 53.3 209.2 58.2 212.2 70.5C214.7 80.6 220.5 83.1 215.4 88.6C209.7 94.8 195.4 102.2 188.7 118.5C188.7 118.5 175.8 114.7 160.7 114.7H160.1C145 114.7 132.1 118.5 132.1 118.5C125.4 102.2 111 94.8 105.4 88.6C100.4 83.1 106.2 80.6 108.6 70.5C111.6 58.2 104.7 53.3 104.7 53.3C104.7 53.3 105.7 61.8 99.1 70.4C93.6 77.5 86.8 79.9 81.6 75.2C76.9 70.9 77.7 63.3 90.3 42.1C97.7 29.7 97 21 95.7 16.2C94.6 12.2 91.5 15.5 90.5 17.9C84.8 31.9 70.8 43.7 65 52.5C51.5 73.1 63.8 88 78.2 97.9C87 104 101.7 110.9 102.5 124.1C102.9 130.9 98.8 131.4 96.4 130.4C86.4 126.4 82.8 114 70.4 108C58 102 43.5 93.9 34.7 102.3C25.9 110.7 33.3 138.7 46.1 153.8C58.9 169 80.5 160.9 89.4 170.8C96 178.1 90 192.9 95.7 207.6C100.9 221.1 107.7 225.6 112.7 243.3C116.2 255.7 124.4 279.5 140.1 297.9C145.6 304.3 156.2 303.8 160.1 303.8H160.7C164.6 303.8 175.3 304.3 180.7 297.9C196.4 279.6 204.7 255.8 208.1 243.3C213 225.6 219.8 221.1 225.1 207.6C230.8 192.9 224.8 178.1 231.4 170.8C240.3 160.9 261.9 169 274.7 153.8C287.6 138.8 295 110.8 286.2 102.4V102.4ZM113.6 209.3C107.2 204.6 107.5 191 112.6 187.4C117.7 183.8 135 191.5 136.5 200.6C137.9 209.2 120 214 113.6 209.3V209.3ZM177.7 280.8C177.4 286.5 167.9 288.6 161 288.6H160C153.1 288.6 143.6 286.6 143.3 280.8C143 275.1 134.9 270 138.6 264.6C142.3 259.2 148.1 266.3 160.1 266.3H161.1C173.1 266.3 178.9 259.2 182.6 264.6C186.1 270 178 275.1 177.7 280.8V280.8ZM207.3 209.3C200.9 214 183 209.2 184.4 200.6C185.9 191.5 203.2 183.8 208.3 187.4C213.4 191 213.6 204.6 207.3 209.3V209.3Z" fill="black"/>
</svg>
