<svg width="320" height="320" viewBox="0 0 320 320" fill="none" xmlns="http://www.w3.org/2000/svg">
<path d="M279.7 183.2C275.5 182.7 271.6 185.8 271.1 190C268.9 208.2 261.6 221.3 249.7 227.8C236.1 235.1 220.6 232.4 211.3 227.8C203 223.7 197 217.1 193.1 211.4C194.4 210.2 195.7 209.1 196.7 207.8C202.6 211.3 209.7 213.8 218 213.8C220.8 213.8 223.9 213.5 227.1 212.9C237.8 210.7 245.2 205.7 249.6 198C255.1 188.1 254.6 174.2 248.2 156.8C243.7 144.6 244.1 115.2 261 102.5C264.3 99.8999 265.1 95.0999 262.5 91.6999C259.9 88.2999 255.1 87.5999 251.7 90.1999C227.4 108.6 228.1 146.8 233.7 162.2C238.5 175 239.2 184.8 236 190.6C233.9 194.3 230 196.6 223.9 197.9C213.9 200 206.3 196.6 201.2 192.5C200.7 181.1 195.7 174.7 195.7 174.7C208.2 172.5 208.8 169.7 207.3 144.8C205.8 119.9 204.5 95.1999 204.5 95.1999C204.5 95.1999 218.9 96.6999 223.9 91.4999C228.9 86.2999 226.1 72.0999 218.6 51.5999C211.1 31.0999 194.2 24.4999 189.2 18.9999C181 9.8999 175.6 1.8999 159.8 1.8999C146.1 1.8999 139.8 8.9999 130.4 18.9999C125.3 24.4999 108.6 30.7999 101.1 51.4999C93.6 72.1999 90.8 85.9999 95.8 91.2999C100.8 96.5999 115.2 94.9999 115.2 94.9999C115.2 94.9999 113.9 119.7 112.4 144.6C110.9 169.5 111.5 172.3 124 174.5C124 174.5 119 180.8 118.5 192.3C113.4 196.4 105.9 199.7 95.8 197.7C89.8 196.4 85.8 194.1 83.7 190.4C80.5 184.6 81.3 174.9 86 162C91.6 146.6 92.3 108.5 68 89.9999C64.7 87.3999 59.8 88.0999 57.2 91.4999C54.6 94.7999 55.3 99.6999 58.7 102.3C75.5 115 76 144.4 71.5 156.6C65.1 174.1 64.6 187.9 70.1 197.8C74.3 205.5 81.9 210.5 92.6 212.7C95.8 213.3 98.8 213.6 101.7 213.6C110 213.6 117.2 211.2 123 207.6C124 208.9 125.2 210.2 126.6 211.2C122.6 217 116.6 223.4 108.4 227.6C99.2 232.2 83.6 234.9 70 227.6C58.1 221.2 50.7 208.1 48.6 189.8C48.1 185.6 44.2 182.6 40 183C35.8 183.5 32.8 187.4 33.2 191.6C36.7 221.3 51 234.9 62.6 241.2C70.4 245.4 79.5 247.5 88.8 247.5C97.9 247.5 107 245.4 115.3 241.3C127.1 235.4 135.2 226.1 140.5 218.3C141.3 218.6 142.2 218.8 142.9 218.9C142.5 224.5 141 232.3 136 238C131 243.8 122 255.7 117.9 269.8C113 286.5 116.4 301.6 127.4 313.6C128.9 315.3 131 316 133 316C134.9 316 136.7 315.4 138.3 313.9C141.4 311.1 141.6 306.2 138.8 303C131.4 294.9 129.4 285.4 132.8 273.9C136.1 262.5 143.6 252.6 147.8 247.7C155.4 239 157.7 228.1 158.5 220.1H162.2C163.1 227.7 165.4 238.2 172.1 247.2C187.4 267.9 197.8 285.1 181.3 302.9C178.5 306 178.6 310.9 181.8 313.8C183.3 315.2 185.1 315.9 187.1 315.9C189.2 315.9 191.2 315 192.7 313.5C219 284.9 197.5 255.7 184.5 238.3C179.9 232 178.1 224.3 177.6 218.7C178.4 218.6 179 218.3 179.8 218.1C184.9 225.9 193 235.2 205 241.1C213.2 245.2 222.3 247.3 231.5 247.3C240.7 247.3 249.9 245.2 257.7 241C269.3 234.8 283.6 221.1 287.1 191.4C286.9 187.6 283.9 183.7 279.7 183.2V183.2ZM128.2 193.1C128.2 186.9 132.4 181.9 137.6 181.9C142.7 181.9 141.7 187.8 141.7 194C141.7 200.2 142.7 204.3 137.6 204.3C132.3 204.4 128.2 199.3 128.2 193.1V193.1ZM182 181.9C187.1 181.9 191.4 186.9 191.4 193.1C191.4 199.3 187.2 204.3 182 204.3C176.8 204.3 177.9 200.2 177.9 194C177.9 187.8 176.8 181.9 182 181.9V181.9Z" fill="black"/>
</svg>
