<svg width="320" height="320" viewBox="0 0 320 320" fill="none" xmlns="http://www.w3.org/2000/svg">
<path d="M274.7 114.8C269.6 113.2 253 108.4 231.1 108C228.3 107.9 225.9 108 224.3 108C219.5 95.8 214.6 86.2 210.7 79.4C199.9 60.5 192.2 53.6 188.9 50.8C183.2 46 172.6 38.8 169.8 41.3C167.2 43.6 173.2 52.3 176.6 64.5C180.8 79.6 179.2 93.6 176.6 104.1C168 105.9 157.1 109.1 145.2 115C136.3 119.4 129.1 124.2 123.4 128.6C122.1 125.4 119.6 120.7 115.2 116.3C112.4 113.5 105.6 107.7 102.9 109.5C101.1 110.7 102.3 114.7 102.9 120.4C103.5 125.7 103.7 133.6 101.5 143.6C95.1 144.5 88.8 145.4 82.4 146.3C82.9 140.4 83.3 125.5 74.2 110.8C69.8 103.7 64.5 98.8 60.6 95.8C61.8 101.3 65.5 118.9 63.3 134C62.8 137.4 61.9 141.5 60.6 147.6C58.3 158 57.5 159.7 56.5 161.2C55.1 163.4 53.7 164.6 45.6 170.7C39.3 175.5 36.2 177.8 34.7 178.9C15 192.7 5.20003 197.1 6.00003 199.4C6.60003 201.2 13.6 200.4 21 199.4C40.6 196.9 53.8 190.5 57.8 188.5C61.9 186.4 65.2 184.4 67.3 183C72.5 186.4 76.7 189.2 79.6 191.2C88 197 91.1 199.6 97.3 203.5C102.4 206.7 106.8 208.9 109.6 210.3C108.1 213.7 106.6 216.5 105.5 218.5C104.4 220.6 101 225.9 96.7 232.4C95.2 234.7 93.6 236.9 91.9 239C90.3 240.9 89.2 242.6 88.2 244.4C87.3 246.1 87.2 246.8 86.4 248.6C85.7 250.3 84.4 252.7 82.3 255.4C87.5 253.8 95 251 104.1 245.9C104.6 245.6 105 245.4 105.4 245.1C110 242.5 121.1 235.8 134.1 225.4C137.6 222.6 140.5 220.2 142.3 218.6C148.8 221.6 159.4 225.4 172.3 225.4C178.5 225.4 187.6 225.3 196.9 219.9C198.7 218.9 200.1 217.9 201 217.2C205.1 221.9 210.1 227 216 232.2C223.2 238.5 230.3 243.4 236.5 247.2C236.3 244.7 235.9 241.5 235.1 237.7C234.8 236.4 233.8 231.5 231 224.1C229.2 219.4 226.6 213.3 222.8 206.4C227.7 206.7 234.9 206.8 243.3 205C251.6 203.3 257.1 200.7 265.1 196.8C277.8 190.7 284.3 187.6 289.7 180.4C293.9 174.9 295.7 169.2 296.5 165.4C283.3 163.7 272.7 164.4 265.1 165.4C251.2 167.3 235.3 171.6 225.5 174.9C220.6 176 214.8 177 214.6 176.3C214.3 175.3 223.2 171.8 225.5 170.8C242.2 164.2 256.9 161.2 265.1 159.9C269.6 159.2 280.7 157.5 295.1 157.2C299 157.1 302.2 157.1 304.6 157.2C306.8 155.5 310.1 152.4 312.8 147.7C315.6 142.8 316.5 138.2 316.9 135.4C307.2 128.5 293 120.4 274.7 114.8V114.8ZM242 144.8C239.8 146.4 237.2 146.2 236.5 146.2C230.4 145.7 227.2 138.5 227 138C231.8 136.3 235.6 136.4 237.9 136.6C240.6 136.9 244 137.3 244.7 139.3C245.4 141.2 243.6 143.6 242 144.8V144.8Z" fill="black"/>
</svg>
