<svg width="320" height="320" viewBox="0 0 320 320" fill="none" xmlns="http://www.w3.org/2000/svg">
<path d="M283.1 79.9C269.2 80.3 241.2 82.6 234.2 96.1C225.5 112.6 217 113.5 214 107.4C212.5 103.4 211.6 99.1 211.8 94.1C212.3 77.9 216.3 57.2 219.6 38.1C222.9 19 216.8 7.4 203.1 7C188.5 6.6 185.3 19.1 185.3 30.6C185.3 42.1 186.5 69.5 182.4 79.1C178.3 88.7 173.7 94 160.4 94H159.4C146.2 94 141.5 88.7 137.4 79.1C133.3 69.5 134.5 42.2 134.5 30.6C134.5 19 131.1 6.6 116.7 7C103 7.4 96.9 19.1 100.2 38.1C103.6 57.1 107.7 77.9 108 94.1C108.1 99.1 107.3 103.4 105.8 107.4C102.9 113.5 94.4 112.6 85.6 96.1C78.5 82.7 50.5 80.2 36.7 79.9C33.3 79.8 29.5 82.6 29.6 87C30 96.3 32.1 113.6 41.7 128.9C52.5 146.1 73.8 149.5 83.1 150.3C82.9 159.1 86.1 167.7 91.8 173.7C101.4 183.7 104.2 187.4 103.4 202.3C102.5 217.2 123.9 239.2 121.2 275.3C120 291.7 129.9 318.6 159.9 318.6C190.3 318.6 198.8 289.5 198.6 275.3C198 238.4 217.3 217.2 216.4 202.3C215.5 187.4 218.5 183.6 228 173.7C233.7 167.7 237.1 159.1 236.7 150.3C246 149.6 267.3 146.1 278.1 128.9C287.7 113.6 289.8 96.4 290.2 87C290.4 82.5 286.4 79.8 283.1 79.9ZM115 177C104.1 175.5 93.5 154.1 102.1 148.4C115.9 139.2 122.6 151.9 123.2 159.8C123.9 167.8 126.1 178.5 115 177V177ZM206.7 177C195.8 178.5 197.9 168 198.5 159.8C199.1 151.6 205.8 139 219.6 148.4C228.2 154.2 217.6 175.4 206.7 177Z" fill="black"/>
</svg>
