<svg width="320" height="320" viewBox="0 0 320 320" fill="none" xmlns="http://www.w3.org/2000/svg">
<path d="M286 231.2C284.6 230.4 283.2 230.5 282.4 230.6C282.4 230.6 277 231.1 268.7 229.4C264.3 228.5 261.2 226.9 260.4 226.4C257.8 225 256.7 223.7 252.1 220.5C249.6 218.7 247.5 217.3 246.2 216.3C246 215.8 245.8 215.2 245.6 214.5C245.4 213.3 245.5 212.2 245.6 211.5C248.3 207.3 251.8 201.3 255.1 193.7C258 187.1 260.5 181.3 261.6 174.1C262.4 168.7 263.1 158.8 258.6 146.2C258.6 146.2 257.3 140.4 255.6 135.5C253.8 130.2 253.2 130.1 252 126.6C249.5 118.9 249.9 112.1 250.2 107.6C250.5 102.9 251.3 99.0001 252 96.3001C256.1 95.3001 264.1 93.0001 271 88.6001C274.1 86.6001 277.4 84.0001 277.5 83.8001C280.1 81.7001 281.8 80.1001 284 77.9001C287.3 74.7001 287.8 73.8001 288.2 73.1001C287 71.6001 285.3 69.0001 282.2 67.2001C280.4 66.1001 278.7 65.6001 277.4 65.4001C278.8 63.7001 280.2 63.2001 281 63.0001C284 62.3001 287.3 64.1001 289.3 66.7001V66.6001C289.3 66.3001 288.6 62.1001 285.1 59.5001C281.8 57.1001 279.4 58.5001 270.2 57.7001C264.3 57.2001 261.3 56.8001 258.3 54.7001C255.2 52.5001 256 50.4001 252.4 47.6001C250.1 45.8001 247.8 45.1001 244.7 44.0001C240.8 42.7001 237.7 42.3001 237 42.2001C235.9 42.1001 231 41.5001 224.5 42.8001C222 43.3001 211.8 45.3001 204.3 51.7001C194.1 60.4001 192.8 74.0001 191.8 83.2001C190.6 94.7001 191.3 115.8 189.4 121.8C188.3 125.2 187 128.7 187 128.7C186.3 130.6 185.8 131.9 185.8 131.9C184.5 135.3 183.2 138.1 182.2 140.2C177.3 140.6 170.3 141.4 162 143.2C152.2 145.3 132.5 149.7 112.7 163.4C103.7 169.7 98.3 175.3 96.7 177.1C90.8 183.5 87.2 189.2 84.8 193.1C80.4 200.2 78.8 204.7 78.3 206.2C77 209.9 76.3 213 75.9 215.1C69.8 221.6 64 225.4 59.9 227.6C52.1 231.8 48.2 233.9 42.7 235.3C40.4 235.9 37.4 236.5 34.4 238.9C31.6 241.1 28.5 245.1 29.6 247.2C30.3 248.6 54.2 247.6 58.7 247.2C80.4 245.2 83.3 245.6 86.6 242.4C88.1 240.9 90.4 238.2 91.4 232.9C92.2 234.4 93.5 236.6 95.6 238.8C98.4 241.8 101.6 243.8 106.3 245.9C114.4 249.5 121.4 250.8 124.1 251.2C150.5 255.8 162.7 255.9 168.1 251.8C168.8 251.3 170.7 249.8 170.5 248.2C170.3 246.7 168.2 246.1 164 244C159.6 241.9 150.1 238.8 143.2 236.9C141.3 236.4 138.4 235.5 134.9 233.9C141.4 232.7 146.8 232 150.4 231.5C172.3 228.8 183.1 230.5 198.5 224.4C201.4 223.3 203.6 222.1 205 221.4C207.8 224.4 210 226.5 211.5 227.9C212.5 228.8 221 238.5 226.4 239.2C234.6 240.3 252 243 265.6 241.6C268.8 241.3 269 241.1 271.2 240.7C274.3 240.1 276.7 239.9 279.9 239.2C284.6 238.2 287.6 237.6 288.2 235.6C288.9 234.4 287.6 232.2 286 231.2V231.2ZM243.8 67.2001C240.9 69.0001 237.8 68.0001 237.3 67.8001C236.6 67.6001 233.5 66.6001 232.5 63.6001C232 62.0001 232.3 60.6001 232.5 60.0001C233.2 57.9001 234.8 56.8001 235.5 56.4001C239.1 54.4001 243.1 56.9001 243.2 57.0001C243.9 57.5001 247.1 59.7001 246.8 62.9001C246.5 65.5001 244.3 66.9001 243.8 67.2001V67.2001Z" fill="black"/>
</svg>
