<svg width="320" height="320" viewBox="0 0 320 320" fill="none" xmlns="http://www.w3.org/2000/svg">
<path d="M97.8801 187.495C95.4011 183.601 92.3611 180.493 89.0931 177.562C81.8351 171.054 73.7421 165.608 65.0371 161.008C61.9181 159.36 58.4621 158.284 55.1601 156.945C54.7511 156.779 54.3441 156.608 53.9151 156.431C55.7221 154.736 60.0981 153.193 69.0391 151.104C74.4481 149.84 79.9391 149.516 85.5021 149.662C90.9861 149.806 96.2781 150.926 101.621 152.212C101.484 151.111 100.719 150.668 100.019 150.153C96.6481 147.671 92.9871 145.65 89.2141 143.76C81.8081 140.049 74.4331 136.276 67.1501 132.355C64.1141 130.721 61.2391 128.772 58.4881 126.728C56.0671 124.929 54.3281 122.479 52.6051 120.069C49.3731 115.548 47.3151 110.545 46.2101 105.23C45.3411 101.05 45.2651 96.812 45.8711 92.551C46.5821 87.546 47.9501 82.702 49.5161 77.902C50.2411 75.681 51.1481 73.505 52.1001 71.359C54.7761 65.33 58.3631 59.792 62.2131 54.372C66.9281 47.735 71.955 41.278 75.936 34.196C76.988 32.325 78.045 30.4 78.659 28.38C79.248 26.438 79.2661 24.341 79.5691 22.056C82.3951 25.158 85.3071 32.683 86.0711 37.742C86.7001 41.908 85.9201 45.926 85.3131 49.972C84.4281 55.879 82.1601 61.46 80.5421 67.195C79.5381 70.753 78.7581 74.349 78.7731 78.07C78.7871 81.542 79.7171 84.79 81.2161 87.916C82.9021 91.431 85.7451 93.783 89.4241 95.399C92.9311 96.94 96.6381 97.72 100.394 98.352C103.708 98.909 107.037 99.09 110.426 98.915C113.503 98.756 116.543 98.632 119.73 97.539C119.775 97.048 119.998 96.408 119.856 95.851C119.114 92.936 119.715 90.051 120.107 87.193C120.51 84.252 121.339 81.386 122.63 78.64C124.23 75.238 126.402 72.224 128.975 69.432C131.147 67.075 133.647 65.059 136.232 63.141C137.284 62.36 138.467 61.71 139.664 61.135C142.655 59.698 149.658 57.136 150.153 57.107C150.197 58.769 146.311 66.07 145.496 68.633C144.792 70.85 144.346 73.172 144.089 75.478C143.775 78.288 143.711 81.128 143.657 83.958C143.548 89.692 144.826 95.223 146.83 100.585C148.257 104.403 150.625 107.598 154.521 109.655C158.621 111.819 162.885 111.631 166.717 109.033C170.28 106.618 172.421 103.336 173.673 99.44C174.959 95.439 176.098 91.386 176.362 87.214C176.575 83.832 176.457 80.411 176.184 77.029C175.968 74.36 175.466 71.684 174.779 69.085C173.911 65.798 170.323 57.923 170.323 57.381C170.9 57.421 178.157 60.024 181.049 61.649C187.508 65.278 192.551 70.27 196.223 76.425C198.411 80.094 199.47 84.166 199.964 88.361C200.254 90.827 200.569 93.28 200.051 95.758C199.94 96.287 200.085 96.864 200.11 97.371C202.09 98.624 204.256 98.879 206.394 98.972C209.539 99.108 212.722 99.275 215.84 98.973C221.653 98.41 227.39 97.421 232.56 94.551C236.174 92.544 238.256 89.518 239.741 85.897C241.781 80.922 241.747 75.902 240.432 70.866C239.197 66.137 237.632 61.486 236.281 56.783C235.694 54.739 235.113 52.671 234.824 50.578C234.349 47.144 233.78 43.674 233.85 40.229C233.976 34.031 236.474 25.787 240.614 21.901C240.618 25.284 241.876 30.106 243.571 33.131C246.937 39.139 250.987 44.733 255.077 50.321C259.288 56.076 263.407 61.921 266.548 68.306C269.491 74.287 271.686 80.472 273.083 86.965C273.757 90.101 274.383 93.215 274.496 96.391C274.633 100.219 274.264 104.014 273.235 107.759C271.92 112.55 269.777 116.949 266.847 121.028C263.493 125.698 258.98 129.117 253.843 131.874C250.198 133.829 246.594 135.854 242.918 137.755C238.651 139.962 234.336 142.087 230.023 144.214C226.504 145.949 223.051 147.775 219.982 150.185C219.295 150.724 218.587 151.24 218.038 152.028C230.96 148.733 243.697 148.541 256.348 152.536C259.636 153.574 263.142 154.145 266.272 156.194C265.738 156.514 265.414 156.803 265.031 156.924C258.232 159.077 252.085 162.452 246.104 166.092C243.409 167.732 240.978 169.757 238.389 171.559C234.51 174.258 231.016 177.361 227.782 180.713C225.976 182.585 224.413 184.667 222.76 186.669C222.109 187.457 222.449 188.27 222.759 189.09C223.638 191.42 224.587 193.733 225.32 196.104C226.201 198.955 226.94 201.848 227.64 204.744C228.095 206.625 227.533 207.642 225.768 208.635C221.511 211.028 217.414 213.621 213.791 216.849C211.015 219.323 208.042 221.608 205.373 224.179C202.596 226.855 200.236 229.889 198.061 233.033C193.761 239.248 190.377 245.845 188.924 253.205C188.431 255.703 188.116 258.237 187.813 260.765C187.111 266.627 185.317 272.144 181.754 277.012C179.417 280.205 176.874 283.278 174.231 286.252C171.638 289.169 168.866 291.951 166.044 294.674C164.589 296.079 162.881 297.256 161.237 298.476C160.453 299.058 159.573 299.055 158.77 298.397C156.734 296.729 154.579 295.174 152.678 293.379C147.321 288.32 142.39 282.902 138.226 276.908C135.061 272.351 133.171 267.316 132.443 261.894C132.048 258.952 131.643 256.01 131.14 253.084C130.302 248.212 128.336 243.689 125.941 239.355C123.128 234.266 119.925 229.372 115.662 225.241C112.421 222.101 108.922 219.198 105.512 216.215C102.143 213.268 98.3481 210.888 94.3671 208.744C92.5431 207.762 91.9471 206.292 92.5251 204.151C93.5231 200.455 94.6181 196.781 95.7661 193.125C96.3611 191.234 97.1571 189.401 97.8801 187.495V187.495ZM176.057 209.111C176.881 208.785 177.29 208.638 177.685 208.464C179.034 207.869 180.379 207.267 181.722 206.662C185.094 205.144 188.535 203.749 191.814 202.07C195.24 200.317 197.835 197.706 199.551 194.341C202.904 187.769 203.233 180.878 201.981 173.834C201.817 172.91 201.223 172.054 200.752 170.997C198.861 171.723 197.058 172.127 195.596 173.028C190.315 176.28 185.245 179.778 182.299 185.328C180.585 188.557 178.911 191.771 178.252 195.395C177.532 199.353 176.604 203.277 175.818 207.226C175.721 207.719 175.941 208.27 176.057 209.111ZM119.36 171.408C118.222 173.209 117.678 174.697 117.581 177.196C117.428 181.155 117.359 185.114 118.476 189.002C119.548 192.733 121.023 196.247 124.033 198.994C125.924 200.719 128.028 202.209 130.396 203.278C134.628 205.188 138.916 206.989 143.188 208.821C143.37 208.899 143.621 208.831 144.116 208.831C144.076 208.004 144.1 207.182 143.982 206.379C143.787 205.054 143.464 203.747 143.257 202.424C142.416 197.031 141.346 191.697 138.622 186.809C136.91 183.737 135.126 180.67 132.23 178.444C129.744 176.534 127.141 174.738 124.452 173.094C122.983 172.196 121.326 171.429 119.36 171.408V171.408ZM149.913 265.886C152.265 259.368 149.171 249.716 141.535 245.744C141.37 246.207 141.107 246.631 141.085 247.065C141.019 248.41 141.016 249.76 141.046 251.107C141.072 252.306 141.09 253.515 141.26 254.7C141.703 257.795 143.238 260.423 145.214 262.882C146.448 264.418 148.072 265.252 149.913 265.886V265.886ZM170.034 265.906C172.324 265.161 173.953 263.91 175.291 262.228C179.118 257.415 179.513 251.972 178.655 246.286C178.646 246.226 178.564 246.176 178.517 246.122C176.677 246.591 173.161 249.729 171.692 252.46C169.413 256.692 169.143 261.173 170.034 265.906V265.906Z" fill="black"/>
</svg>
