<svg width="320" height="320" viewBox="0 0 320 320" fill="none" xmlns="http://www.w3.org/2000/svg">
<path d="M266.8 110.6C274.4 106 277.5 92.3 279 83.1C281.5 68 278.8 61.2 274.4 51C272.8 47.2 268.3 41.1 260.8 38.9C256.2 37.6 252.1 38.3 249.9 38.8C247.7 39.2 243.2 40.1 239.2 43.4C235.1 46.8 228 54.5 223.9 57.2C220.4 59.5 217.9 61.8 216.3 63.3C214.7 61.6 194.9 54.1 161.3 54.1C137 54 123 57.6 117 58.6C114.8 59 103.2 62.3 101.7 63.2C100.5 61.6 98.5001 59.3 95.6001 57.1C92.2001 54.5 84.4001 47.7 78.8001 43.3C76.2001 41.3 73.2001 39.4 69.3001 38.8C69.2001 38.8 68.7001 38.7 68.1001 38.7C58.3001 37.8 51.1001 43.7 49.8001 44.8C39.5001 53.3 39.3001 67 39.0001 75.5C38.8001 81.1 38.2001 99.9 51.2001 110.7C54.0001 113 56.8001 114.4 58.8001 115.3C55.7001 121.2 51.3001 130.4 48.1001 141.3C45.9001 148.8 44.8001 155.4 47.3001 162.1C48.2001 165.2 49.2001 167.5 49.7001 168.8C57.2001 190.8 63.0001 201.9 74.2001 213.1C78.8001 217.8 85.9001 226.6 100.2 231.4C99.9001 238.3 99.6001 262.8 117 280.3C121 284.3 125.3 287.3 129.2 289.5C134 291.7 140.7 294.2 149.1 295.6C153.7 296.4 162.5 297.7 173.6 295.6C179 294.6 186.1 293.1 193.5 288C199.1 284.1 202.3 279.8 204.2 277.3C216.1 261.2 218.8 238.5 219.5 231.4C225 229.1 233.1 225 240.9 217.6C244.7 214 246.9 211.1 250.1 206.9C258 196.5 262 187.7 270 170.2C270.2 169.7 270.6 168.9 271 167.8C271 167.8 271.5 166.4 271.9 164.9C274.4 155.9 271.5 142.6 271.5 142.6C269 131.2 264.5 121.7 260.8 115.1C262.2 112.1 260.9 114.1 266.8 110.6V110.6ZM121.6 174.8C119.7 176.3 117.5 176.3 115.5 176.3C114.7 176.3 112.7 176.3 107.9 174.8C104.8 173.8 101.3 172.7 97.2001 170.2C95.0001 168.9 93.1001 167.7 91.1001 165.6C89.7001 164.1 87.4001 161.7 86.5001 158C86.1001 156.3 85.5001 154 86.5001 151.9C88.2001 148.3 93.5001 147.6 95.7001 147.3C108.3 145.5 118.5 156.1 120.2 158C122.1 160.1 123.3 162.6 123.3 162.6C124.1 164.2 124.7 165.5 124.8 167.2C124.7 167.5 124.9 172.2 121.6 174.8V174.8ZM169 248.2C165.5 252 163 255.8 161.4 258.9C159.9 258.9 158.3 258.9 156.8 258.9C155.4 256.2 153.4 253 150.7 249.7C145.4 243.4 139.5 239.6 135.4 237.5C135.5 236 136.1 230.9 140 228.3C144.3 225.4 151.4 226.6 155.3 229.8C157 231.2 158.2 233.1 159.9 232.9C161.4 232.7 161.8 231.1 163 229.8C166.4 226 175.3 225.3 179.8 229.8C182.3 232.3 182.8 235.6 182.9 237.4C179 239.5 173.9 242.9 169 248.2V248.2ZM232.1 158C231.2 161.7 228.9 164.1 227.5 165.6C225.4 167.7 223.6 168.9 221.3 170.2C217.1 172.7 213.7 173.8 210.5 174.8C205.6 176.3 203.6 176.3 202.8 176.3C200.7 176.3 198.6 176.2 196.6 174.8C193.2 172.2 193.5 167.5 193.5 167.2C193.6 165.5 194.3 164.2 195 162.6C195 162.6 196.2 160.2 198.1 158C199.8 156.1 210 145.5 222.8 147.3C225 147.6 230.3 148.2 232.1 151.9C233.1 154 232.5 156.3 232.1 158V158Z" fill="black"/>
</svg>
