<svg width="320" height="320" viewBox="0 0 320 320" fill="none" xmlns="http://www.w3.org/2000/svg">
<path d="M278.3 53.5C270.7 48.1 261.3 49.1 259.1 49.4C250.9 50.5 245.4 55.1 239.9 59.7C234.2 64.4 230.5 69.3 228.3 72.7C221.6 68.3 215.6 65.5 211.2 63.8C205.4 61.5 193.4 57 177.7 57.6C170.4 57.9 164.5 59.2 160.6 60.3C156.9 59 151.5 57.5 144.9 56.9C132.8 55.8 123.4 58.6 115.5 61C109.5 62.8 101.3 65.9 92.2 71.3C89.9 67.3 85.4 60.9 77.8 55.6C73 52.2 67.7 48.4 60 48.1C47.1 47.5 38.5 57.2 38.1 57.7C28.8 68.4 31.7 83.1 33.3 91.2C37.2 111.2 50.5 123.8 56.6 128.9C56.2 131.3 55.8 134.9 55.2 139.2C52.9 157.8 50.9 174 51.8 189.2C52.2 197.3 53.7 219.4 66.9 242.6C71.6 250.9 78.4 262.5 92.2 272C102.7 279.2 112.9 282.2 119.6 283.6C121.2 288.5 125.2 298.1 134.7 306.2C138.7 309.6 147.3 316.9 160 317.2C172.2 317.5 180.9 311.1 184.6 308.3C195.8 300 200.2 289 201.7 284.3C208.2 282.8 218.2 279.7 228.4 272.7C243.9 262.1 251.2 248.6 255.8 239.8C265.5 221.3 267.3 205 268.8 191.2C271.5 166.4 267.9 147 266.1 138.5C265.3 135.1 264.6 132.3 264 130.3C269.2 126.4 284.4 113.8 288 92.6C288.6 88.3 292.8 63.7 278.3 53.5V53.5ZM66.1 191.8C65.1 189.7 64.8 186.5 66.8 184.3C66.9 184.2 69.2 181.7 72.3 182.2C75.6 182.8 76.9 186.3 77.1 187C77.8 189.1 78 192.5 75.7 194.5C74.3 195.7 72.7 195.9 72.3 195.9C69.4 196 67.1 193.9 66.1 191.8V191.8ZM86.6 226C85.9 227.9 83.9 229.4 81.8 229.4C79.7 229.4 78.3 228 77.7 227.3C77.1 226.7 75.7 225 75.6 222.5C75.6 221.9 75.6 219.1 77.7 217.7C78.8 217 79.9 217 80.4 217C83.1 217.1 84.9 219.3 85.2 219.7C85.7 220.5 87.8 223.1 86.6 226V226ZM106.5 212.3C104.9 213.4 103.1 213.1 102.4 213C102.1 213 98.4 212.3 96.9 208.9C96 206.8 96.4 204.7 96.9 203.4C97.1 203 97.4 202.1 98.3 201.3C98.3 201.3 99.5 200.2 101 199.9C103.8 199.4 107.6 201.8 108.5 205.4C109.1 207.7 108.7 210.9 106.5 212.3V212.3ZM107.2 185C99.6 182.7 95.2 177.9 92.8 175.4C88.6 170.9 86.9 166.8 86 164.4C83.6 158.6 84.3 155.9 84.6 154.8C84.8 154.2 85.5 152.3 87.3 150.7C88.8 149.4 90.5 148.9 92.1 148.6C98.6 147.4 104.4 148.6 104.4 148.6C109.8 149.7 118.2 151.5 124.9 158.9C125.6 159.7 130.7 165.4 131.7 173.3C132.1 176.3 131.7 178.1 131 179.5C130.6 180.3 129.3 182.5 124.8 184.3C116.6 187.7 108.4 185.3 107.2 185V185ZM183.1 240.4C181.5 242.1 179.1 244.6 175.6 247.2C172.6 249.4 167.6 252.6 160.5 254.7C152.5 252.8 147.1 249.4 144.1 247.2C140.7 244.7 138.2 242 136.6 240.4C133.2 236.8 130.7 233.4 129.1 230.8C129.3 229.8 130 227.3 131.8 226.7C133.2 226.2 134.6 227 135.2 227.4C138.2 229.1 145.7 233.2 150.9 234.9C151.7 235.2 155.4 236.3 160.5 236.3C165.2 236.3 168.7 235.2 169.4 234.9C174.9 233.1 182.8 228.7 185.1 227.4C185.8 227 187.3 226.2 188.5 226.7C190.1 227.4 190.5 229.9 190.6 230.8C189 233.4 186.5 236.8 183.1 240.4V240.4ZM224.5 208.2C223.1 211.6 219.5 212.3 219.2 212.3C218.5 212.4 216.8 212.7 215.2 211.6C213.1 210.1 212.7 207 213.2 204.8C214.1 201.3 217.7 198.8 220.5 199.3C222 199.6 223.1 200.7 223.1 200.7C223.9 201.5 224.2 202.3 224.4 202.8C225 204 225.4 206.1 224.5 208.2ZM214.6 185C213.4 185.4 205.4 187.7 197.4 184.3C193.1 182.5 191.8 180.3 191.5 179.5C190.8 178.1 190.5 176.3 190.8 173.3C191.8 165.4 196.7 159.7 197.4 158.9C203.9 151.5 212 149.8 217.2 148.6C217.2 148.6 222.8 147.4 229.1 148.6C230.6 148.9 232.2 149.3 233.7 150.7C235.5 152.3 236.2 154.2 236.3 154.8C236.6 155.9 237.3 158.5 235 164.4C234.1 166.7 232.4 170.9 228.4 175.4C226.2 177.9 222 182.7 214.6 185V185ZM245 221.9C245 224.4 243.6 226.1 243 226.7C242.4 227.3 241 228.8 239 228.8C236.9 228.8 235.1 227.3 234.4 225.4C233.3 222.5 235.3 219.9 235.7 219.2C236 218.8 237.7 216.5 240.3 216.5C240.8 216.5 241.9 216.5 242.9 217.2C245.1 218.5 245 221.4 245 221.9ZM254.3 191.1C253.3 193.2 251.1 195.3 248.4 195.2C248 195.2 246.4 195.1 245.1 193.8C242.9 191.8 243.1 188.4 243.8 186.3C244 185.7 245.2 182.1 248.4 181.5C251.4 180.9 253.6 183.4 253.7 183.6C255.5 185.9 255.2 189.1 254.3 191.1V191.1Z" fill="black"/>
</svg>
