<svg width="320" height="320" viewBox="0 0 320 320" fill="none" xmlns="http://www.w3.org/2000/svg">
<path d="M289.1 165.8C269.5 140.7 265.7 129.9 263.9 123.3C261.5 114.5 261 106.8 261 101.7C264.4 98.7999 270.4 92.9999 274 83.6999C279.6 69.1999 275.4 56.3999 274 52.7999C271.7 46.5999 268.9 39.0999 262.5 36.9999C254.2 34.1999 245 42.1999 235.2 50.6999C229.4 55.6999 221.3 63.7999 213.6 75.8999C208.3 74.4999 200.9 72.7999 192 71.5999C181 70.0999 172.7 70.0999 163.2 70.1999C155.4 70.1999 146.3 70.2999 134.4 71.5999C124.5 72.7999 116.2 74.3999 109.9 75.8999C105.1 70.3999 97.8 62.1999 88.3 52.8999C70.3 34.8999 65.6 33.2999 61.7 34.0999C53 35.7999 48.9 48.5999 47.3 53.4999C42.9 67.1999 46.8 78.8999 48 82.2999C51.7 92.6999 58.1 99.2999 61.7 102.4C61.4 107.9 60.6 116.4 57.4 126.1C52.3 141.6 44.2 151.8 30.1 169.3C24.7 176 17 185 7 195.3C23 217.7 38.9 233.9 50.9 245C68.4 261.1 80.2 271.9 99.8 280.3C123.1 290.2 143.5 290.8 156.7 291.1C167.9 291.3 190.2 291.5 216.4 281.7C239.8 273 254.7 260.7 268.2 249.3C281 238.6 298.6 221.4 315 196C314.9 195.2 295.3 173.7 289.1 165.8V165.8ZM180.2 255C178 260.9 173.7 264 172.2 265.1C171 266 169.1 267.3 166.4 268C164.5 268.5 162.5 268.6 160.8 268.5C159.1 268.7 157.1 268.5 155.2 268C152.5 267.3 150.7 266 149.4 265.1C147.9 264 143.7 260.9 141.5 255C140.7 252.9 138.2 246.2 141.5 240.6C142.9 238.3 144.9 236.9 145.8 236.3C148.6 234.4 151.1 233.9 153.7 233.4C155.7 233 158 232.6 160.7 232.8C163.4 232.5 165.8 233 167.8 233.4C170.4 233.9 173 234.4 175.8 236.3C176.7 236.9 178.7 238.3 180.1 240.6C183.6 246.2 181 252.9 180.2 255V255ZM278.1 212.6C277.7 213.8 277.4 214.6 276.7 216.2C269.4 231.4 257.1 241.7 255 243.5C248.5 249.1 244.5 251.3 239.8 252.1C238.7 252.3 235 252.9 231.1 252.1C218.7 249.5 211.7 234.2 207.9 226.2C205.9 222 205.5 220 202.8 215.4C197.5 206.2 194.4 203.3 193.4 202.4C190.4 200 187.7 199 183.3 197.4C182.2 197 179 195.9 174.3 195.1C172.2 194.9 169.6 194.7 166.2 194.5C164.2 194.4 162.5 194.3 161 194.3C159.5 194.3 157.8 194.4 155.8 194.5C152.6 194.7 150 194.9 148 195C143.2 195.8 140 196.9 138.9 197.3C134.5 198.9 131.8 199.9 128.8 202.3C127.8 203.1 124.7 206.1 119.4 215.3C116.8 219.9 116.3 221.9 114.4 226.1C110.7 234.1 103.7 249.4 91.4 252C87.5 252.8 83.8 252.2 82.8 252C78.1 251.1 74.1 249 67.7 243.4C65.5 241.5 53.4 231.3 46.1 216.1C45.3 214.5 45 213.7 44.7 212.5C42.5 205.2 44.5 198.3 46.9 192.4C51.6 180.3 57.7 171.3 60.6 167.2C69.3 154.9 77.4 147.2 82.9 142C94.5 131.1 100.8 127.9 105.2 126.2C107.8 125.2 111 123.9 115.3 123.3C127.2 121.7 143.1 125.9 151.3 137C155.7 143 156.9 149.6 161.2 151.6C165.6 149.6 166.7 143 171.2 137C179.5 126 195.5 121.7 207.4 123.3C211.7 123.9 214.9 125.1 217.5 126.2C222 128 228.3 131.1 240 142C245.5 147.2 253.7 154.9 262.5 167.2C265.4 171.3 271.5 180.3 276.3 192.4C278.2 198.4 280.3 205.3 278.1 212.6V212.6Z" fill="black"/>
<path d="M114.9 166.5C109.1 163.9 105.8 162.4 101.9 163.6C98.6 164.7 96.7 167.2 96.1 167.9C95.7 168.5 92.9 172.4 93.9 177.3C94.7 180.9 97 183 99.7 185.2C103.2 188.3 106.8 189.5 109.1 190.2C111.8 191.1 113.7 191.7 116.3 191.6C116.9 191.6 122.8 191.3 127.1 186.6C128.3 185.3 130 183.4 130 180.8C130 179.3 129.4 177.7 127.1 175C125 172.6 121.4 169.4 114.9 166.5V166.5Z" fill="black"/>
<path d="M218.4 164.3C214.6 163.1 211.3 164.5 205.5 167.2C199.1 170.1 195.6 173.3 193.3 175.8C191 178.4 190.4 180 190.4 181.6C190.4 184.2 192.1 186 193.3 187.4C197.5 192.1 203.4 192.4 204 192.4C206.6 192.5 208.4 191.9 211.2 191C213.4 190.3 217 189 220.5 186C223.1 183.7 225.5 181.7 226.2 178.1C227.2 173.2 224.5 169.3 224.1 168.7C223.6 168 221.7 165.4 218.4 164.3Z" fill="black"/>
</svg>
