<svg width="320" height="320" viewBox="0 0 320 320" fill="none" xmlns="http://www.w3.org/2000/svg">
<path d="M5.52996 166.386C8.29096 164.375 15.289 174.071 19.343 178.183C19.769 177.878 18.917 178.488 19.343 178.183C18.277 176.293 17.128 174.444 16.161 172.504C13.995 168.162 11.671 163.873 9.87996 159.377C8.33996 155.512 9.67896 151.837 12.219 148.72C14.088 146.425 16.457 145.893 18.883 147.906C20.67 149.388 22.337 151.027 23.959 152.692C29.576 158.455 35.078 164.331 40.775 170.013C43.164 172.396 45.88 174.466 48.541 176.559C53.109 180.154 57.91 181.649 63.896 179.712C75.972 175.803 88.204 172.369 100.409 168.871C130.707 160.188 161.287 159.052 192.147 165.569C203.243 167.912 204.684 166.566 202.646 155.295C201.899 151.162 200.561 147.105 199.175 143.125C196.879 136.531 194.247 130.055 191.901 123.477C188.912 115.097 188.84 106.468 189.932 97.744C192.04 80.91 208.679 66.14 226.561 63.863C236.353 62.616 245.553 64.406 254.047 69.474C260.227 73.161 265.073 78.135 267.535 84.998C274.352 104.002 288.313 113.62 307.838 116.165C314.722 117.062 316.479 121.221 312.126 126.644C307.151 132.843 300.334 134.61 292.731 133.531C287.283 132.758 281.907 131.474 276.457 130.72C270.806 129.938 265.099 128.991 259.427 129.055C247.822 129.187 242.689 137.041 246.98 148.001C248.897 152.897 251.778 157.419 254.262 162.09C258.052 169.216 261.508 176.472 262.96 184.497C268.238 213.662 259.858 237.466 235.692 255.445C218.512 268.227 198.996 274.809 178.132 277.19C153.623 279.987 129.468 277.394 106.184 268.848C88.291 262.28 72.205 252.477 58.107 239.721C52.833 234.948 48.219 229.195 44.313 223.229C40.137 216.849 35.004 212.58 27.75 210.311C12.875 205.656 5.01696 194.734 2.09996 179.958C1.21896 175.496 0.612957 170.688 5.52996 166.386V166.386ZM248.834 101.908C253.135 102.031 256.953 98.387 257.049 94.069C257.144 89.797 253.455 85.919 249.193 85.808C245.068 85.701 240.911 89.635 240.882 93.673C240.851 97.909 244.594 101.786 248.834 101.908V101.908Z" fill="black"/>
</svg>
