<svg width="320" height="320" viewBox="0 0 320 320" fill="none" xmlns="http://www.w3.org/2000/svg">
<path d="M285.9 69.5C271.7 66.3 224.8 79.9 198.4 113.1C172 146.3 175 166 175 166C175 166 172 153.5 164.9 149.2C166.2 138.4 176.4 127.4 180.7 120.3C185.4 112.8 188.3 101.7 184.9 101.4C181.7 101.1 181.5 114.9 171 129.5C165.3 137.4 163.5 144.6 163 148.4C162.1 148.1 161 147.9 160 147.9H159.7C158.7 147.9 157.6 148.1 156.7 148.4C156.1 144.6 154.3 137.3 148.7 129.5C138.3 115 138 101.1 134.8 101.4C131.6 101.7 134.5 113 139 120.3C143.4 127.2 153.6 138.4 154.8 149.2C147.8 153.4 144.7 166 144.7 166C144.7 166 147.8 146.2 121.3 113.1C94.8 80 48.2 66.2 34 69.5C19.9 72.7 21 82.8 30.3 98.8C39.5 114.8 41.6 118.7 41.9 132.1C42.2 145.5 44 156.3 55.6 162.2C55.6 162.2 54.6 174.1 63.8 179.6C73 185 83 179.6 83 179.6C83 179.6 55.4 218.5 83.2 248.6C123.1 291.9 149.4 232.6 145.1 188.6C145.1 188.6 150.5 190.4 153.7 202.1C156.9 213.8 150.7 240.3 150.9 250.4C151.1 260.5 157.1 260.5 160 260.5H160.3C163.1 260.5 169 260.5 169.4 250.4C169.6 240.3 163.5 213.7 166.6 202.1C169.8 190.4 175.2 188.6 175.2 188.6C170.8 232.6 197 291.9 237.1 248.6C264.9 218.4 237.3 179.6 237.3 179.6C237.3 179.6 247.3 185 256.5 179.6C265.7 174.2 264.7 162.2 264.7 162.2C276.3 156.4 278 145.6 278.4 132.1C278.7 118.8 280.8 114.7 290 98.8C299 82.8 300.2 72.7 285.9 69.5V69.5Z" fill="black"/>
</svg>
