<svg width="320" height="320" viewBox="0 0 320 320" fill="none" xmlns="http://www.w3.org/2000/svg">
<path d="M79.601 196.701C60.426 195.523 58.976 194.626 50.003 178.552C45.148 179.342 40.195 180.282 35.204 180.93C25.621 182.176 16.395 180.459 7.54298 176.849C1.08098 174.213 0.186984 171.906 3.04298 165.691C8.07498 154.738 16.272 146.714 26.873 141.204C31.564 138.765 36.553 136.898 41.998 134.512C36.762 112.315 42.595 94.653 65.321 84.038C60.845 69.717 63.206 56.588 74.449 45.836C85.673 35.103 99.444 34.508 113.73 36.825C114.338 35.512 114.847 34.696 115.109 33.808C120.638 15.03 135.04 7.41904 152.733 4.45804C167.287 2.02304 180.455 5.87804 192.242 14.739C198.252 19.257 202.521 24.877 204.48 32.194C204.849 33.574 205.459 34.889 205.923 36.139C212.088 36.139 218.065 35.984 224.032 36.168C242.861 36.749 262.869 57.655 255.257 81.39C255.045 82.05 255.13 82.804 255.003 84.496C264.699 87.888 272.01 94.569 276.47 104.165C280.974 113.855 280.803 123.836 277.682 134.325C280.351 135.449 282.706 136.51 285.111 137.441C297.657 142.298 308.046 149.852 314.955 161.61C320.898 171.723 319.722 174.736 308.715 178.351C297.866 181.914 286.88 182.05 275.799 179.568C273.946 179.153 272.08 178.796 269.488 178.261C265.348 192.487 255.369 197.845 241.097 196.218C240.442 197.75 239.692 198.986 239.377 200.325C236.829 211.163 231.268 220.636 224.63 229.192C214.313 242.49 210.55 257.404 210.263 273.811C209.886 295.378 189.875 314.702 168.21 314.873C167.28 314.88 166.347 314.603 164.931 314.383C164.931 304.972 164.931 295.675 164.931 286.676C169.145 284.931 173.005 283.552 176.655 281.749C179.36 280.413 181.464 278.166 180.816 274.816C180.133 271.286 177.043 270.483 174.118 270.417C164.212 270.194 154.297 270.075 144.396 270.335C142.648 270.381 140.052 272.107 139.486 273.656C138.915 275.219 139.785 278.179 141.084 279.367C143.494 281.571 146.572 283.152 149.574 284.563C151.463 285.451 153.72 285.558 155.848 286.024V313.909C154.603 314.293 153.727 314.775 152.835 314.806C133.032 315.498 111.912 297.22 109.967 277.668C109.441 272.383 109.145 267.074 108.826 261.771C108.306 253.148 105.864 245.166 101.099 237.926C92.488 224.841 82.903 212.276 79.601 196.701V196.701ZM213.061 158.205C208.837 158.427 205.333 160.692 203.041 164.773C200.268 169.712 200.282 174.98 201.861 180.21C203.357 185.166 206.97 186.907 212.042 185.549C218.421 183.841 223.784 177.457 224.345 170.902C224.932 164.046 219.813 158.005 213.061 158.205V158.205ZM119.45 171.832C118.617 169.802 117.654 166.012 115.64 162.902C112.901 158.672 106.995 157.106 102.78 158.655C98.53 160.217 94.768 166.125 95.918 171.03C96.763 174.633 98.491 178.409 100.897 181.174C104.117 184.875 108.752 187.382 113.852 185.37C118.985 183.349 118.814 178.202 119.45 171.832V171.832Z" fill="black"/>
</svg>
