<svg width="320" height="320" viewBox="0 0 320 320" fill="none" xmlns="http://www.w3.org/2000/svg">
<path d="M91.8841 156.035C88.7881 157.225 86.3911 157.912 84.2121 159.025C74.2701 164.102 63.6281 165.114 52.7721 164.263C45.6131 163.702 39.2371 160.949 34.6701 155.088C30.9611 150.328 31.4331 147.318 36.3881 144.086C40.6271 141.322 44.9471 138.663 49.3571 136.183C60.3151 130.02 71.8931 128.206 84.1581 131.536C86.8781 132.274 89.6671 132.756 92.3491 133.34C94.7731 130.722 93.8091 128.595 91.9301 126.288C85.5411 125.246 78.9681 125.01 72.2931 125.441C63.1381 126.032 53.9551 126.222 44.7811 126.48C39.6441 126.625 34.6931 125.434 29.9741 123.527C20.4561 119.681 15.7891 112.199 16.2961 101.92C16.5991 95.763 18.3141 89.96 22.0761 85.102C26.5211 79.362 31.3481 73.906 36.2031 68.5C38.7341 65.682 41.7221 63.281 44.4311 60.617C52.4001 52.78 60.8351 43.665 66.3701 30.559C67.9421 36.352 68.2121 40.415 67.2221 46.062C65.8441 53.924 63.4081 61.419 59.1201 68.216C55.9121 73.302 52.5501 78.292 49.4091 83.418C47.4561 86.606 44.7791 90.085 47.2101 93.854C49.3901 97.235 53.4741 96.406 56.8521 96.121C61.8871 95.696 66.8721 94.725 71.8941 94.115C83.2091 92.739 94.5411 91.626 105.287 93.138C106.492 92.421 107.215 92.233 107.528 91.769C113.566 82.788 122.516 80.481 132.49 81.413C150.841 83.128 169.156 83.288 187.486 81.345C188.114 81.278 188.751 81.291 189.384 81.275C199.171 81.023 207.57 83.716 212.746 92.673C215.301 92.673 217.497 92.801 219.675 92.651C230.813 91.886 241.78 93.342 252.772 94.858C258.069 95.589 263.464 95.991 268.804 95.9C272.783 95.832 274.503 93.025 273.212 89.347C272.282 86.699 270.867 84.184 269.404 81.769C266.29 76.627 262.806 71.702 259.829 66.486C253.525 55.442 251.01 42.565 252.558 29.974C257.752 42.75 269.726 55.157 279.586 64.729C285.697 70.662 291.425 77.043 296.839 83.623C301.363 89.121 303.516 95.767 303.665 102.984C303.854 112.188 299.731 118.739 291.534 122.748C286.635 125.144 281.412 126.521 275.959 126.42C266.468 126.244 256.971 126 247.499 125.43C240.833 125.029 234.27 125.228 227.222 126.429C226.842 128.478 226.476 130.448 226.134 132.29C227.353 132.763 227.957 133.243 228.463 133.156C234.672 132.086 240.636 129.909 247.101 129.927C253.903 129.946 260.412 131.077 266.383 134.156C272.557 137.339 278.509 140.985 284.383 144.706C288.12 147.073 288.59 149.914 286.234 153.622C281.997 160.288 275.427 163.39 267.953 164.158C257.116 165.271 246.472 164.206 236.419 159.427C233.939 158.248 231.667 156.107 228.025 157.073C228.13 158.499 228.211 160.003 228.355 161.501C228.9 167.162 229.697 172.811 229.961 178.484C230.252 184.757 228.424 190.618 223.587 194.758C216.658 200.688 212.651 207.356 214.177 216.937C214.883 221.367 213.136 225.874 210.218 229.326C206.752 233.425 206.648 237.933 207.242 242.753C207.474 244.638 207.9 246.516 207.943 248.403C208.071 253.972 207.355 259.026 201.627 262.172C199.646 263.26 198.338 265.847 197.113 267.974C195.382 270.978 194.247 274.333 192.443 277.285C188.59 283.589 182.789 286.06 175.469 285.313C170.129 284.768 164.772 284.156 159.415 284.075C155.012 284.008 150.578 284.514 146.194 285.055C136.269 286.279 130.711 283.559 125.926 274.742C124.872 272.8 123.953 270.768 123.166 268.703C122.008 265.664 120.53 262.972 117.441 261.467C113.126 259.364 112.116 255.329 112.018 251.125C111.938 247.671 112.543 244.201 112.856 240.739C113.176 237.2 113.069 233.77 110.655 230.83C105.903 225.044 104.99 218.176 105.648 211.101C106.068 206.586 104.914 203.086 101.474 200.193C100.027 198.976 98.8491 197.445 97.4581 196.154C91.4211 190.552 89.2741 183.51 89.9301 175.518C90.3181 170.793 91.0291 166.096 91.5531 161.381C91.7131 159.906 91.7401 158.414 91.8841 156.035V156.035ZM160.202 276.651C160.202 276.615 160.202 276.58 160.202 276.544C163.046 276.544 165.891 276.501 168.734 276.552C178.23 276.722 179.964 275.534 183.159 266.482C183.579 265.292 183.95 264.075 184.226 262.845C185.571 256.844 187.811 251.519 193.289 247.893C194.946 246.796 196.116 244.501 196.809 242.511C198.018 239.04 195.612 235.785 192.086 236.201C189.011 236.564 186.002 237.654 183.022 238.606C178.531 240.041 174.195 242.345 169.608 243.021C158.872 244.602 148.219 244.308 138.131 239.231C135.096 237.704 131.639 236.733 128.267 236.23C124.236 235.629 121.624 239.147 123.233 242.982C124.162 245.196 125.792 247.438 127.709 248.849C131.813 251.87 133.892 255.772 134.972 260.617C135.723 263.985 137.045 267.248 138.342 270.466C140.042 274.686 143.091 276.926 147.882 276.692C151.978 276.492 156.094 276.651 160.202 276.651V276.651ZM198.685 179.674C204.71 180.314 209.621 179.001 211.885 173.855C214.084 168.855 213.53 163.573 209.516 159.284C200.002 163.057 198.235 166.29 198.685 179.674V179.674ZM121.714 178.835C121.738 173.122 121.383 168.119 118.24 163.862C116.331 161.276 113.832 159.397 110.387 159.456C107.412 161.575 107.268 164.824 107.003 167.922C106.728 171.125 107.138 174.289 109.84 176.505C113.087 179.169 116.61 180.985 121.714 178.835Z" fill="black"/>
</svg>
