<svg width="320" height="320" viewBox="0 0 320 320" fill="none" xmlns="http://www.w3.org/2000/svg">
<path d="M81.347 152.464C86.448 147.442 90.828 143.13 95.427 138.603C95.432 138.708 95.557 138.241 95.378 138.018C89.425 130.633 87.48 122.217 89.762 113.122C91.35 106.791 93.465 100.54 95.971 94.5141C97.269 91.3931 98.159 88.644 97.04 85.379C96.557 83.971 96.244 82.4511 96.169 80.9661C95.953 76.6681 95.302 72.279 95.89 68.074C97.676 55.302 108.173 49.8721 119.533 55.9451C123.914 58.2861 127.591 61.9431 131.786 65.1511C156.054 59.1801 164.422 59.2131 189.7 65.5771C190.814 64.1831 192.154 62.0931 193.893 60.4171C197.475 56.9621 201.707 54.6571 206.723 53.8321C213.271 52.7551 218.675 55.2701 221.794 61.0801C224.981 67.0171 224.879 73.362 224.059 79.782C223.917 80.895 223.657 82.0081 223.324 83.0811C221.857 87.8061 222.425 92.0391 224.994 96.4681C228.51 102.529 229.998 109.405 230.811 116.361C231.782 124.668 230.155 130.133 224.156 138.761C226.523 140.747 229.066 142.623 231.292 144.821C233.547 147.048 235.489 149.593 237.952 152.444C239.747 152.26 241.957 151.842 244.165 151.847C249.401 151.859 254.726 151.511 259.855 152.321C270.987 154.078 278.046 161.998 279.645 173.175C280.749 180.891 279.19 188.219 276.397 195.23C273.624 202.193 270.156 208.881 266.952 215.67C266.004 217.678 264.917 219.621 263.961 221.464C271.86 223.792 279.447 225.808 286.87 228.312C290.383 229.497 293.653 231.493 296.893 233.364C298.493 234.288 300.086 235.765 299.164 237.947C298.277 240.048 296.245 239.982 294.309 239.823C291.878 239.624 289.423 239.177 287.018 239.356C284.948 239.51 282.932 240.394 279.704 241.282C282.019 243.642 283.64 244.891 284.704 246.508C285.556 247.804 286.453 249.825 285.996 251.009C285.569 252.114 283.404 253.101 281.971 253.148C279.19 253.241 276.383 252.658 273.591 252.319C270.237 251.912 266.893 251.208 263.535 251.149C261.853 251.119 259.595 251.749 258.567 252.926C255.776 256.123 252.505 256.283 248.832 255.592C238.993 253.74 229.649 250.38 220.539 246.306C219.222 245.717 217.911 245.117 216.143 244.317C215.842 246.626 215.856 248.511 215.321 250.224C213.989 254.49 212.616 258.768 210.843 262.861C209.87 265.107 207.958 267.089 205.057 266.289C202.404 265.557 202.173 263.146 202.046 260.819C201.987 259.735 201.823 258.656 201.595 256.54C199.408 258.045 197.824 259.117 196.259 260.216C193.816 261.932 191.471 263.807 188.92 265.342C187.262 266.34 185.311 266.565 183.713 264.96C182.129 263.37 182.422 261.568 183.294 259.758C183.859 258.586 184.46 257.432 185.42 255.525C183.712 255.996 182.648 256.369 181.552 256.577C178.445 257.167 175.31 258.197 172.214 258.105C168.619 257.997 167.855 255.496 170.209 252.741C170.933 251.894 171.917 251.274 172.709 250.477C173.732 249.447 174.681 248.344 175.538 247.409C174.853 244.435 172.891 243.906 170.741 243.89C163.6 243.836 156.456 243.754 149.321 243.95C147.667 243.996 146.043 245.105 144.489 245.693C144.863 250.88 151.382 251.3 151.086 256.522C145.657 260.641 140.571 256.634 134.816 255.565C135.664 257.47 136.552 259.041 137.072 260.725C138.176 264.299 135.663 267.064 132.22 265.658C129.179 264.417 126.562 262.125 123.781 260.263C122.174 259.187 120.611 258.045 118.343 256.45C118.135 258.961 118.325 260.534 117.817 261.833C117.184 263.448 116.303 265.46 114.938 266.181C112.832 267.293 110.993 265.641 109.765 263.869C106.937 259.791 105.179 255.275 104.613 250.319C104.405 248.497 104.16 246.678 103.916 244.734C96.965 247.355 90.417 250.013 83.735 252.276C79.483 253.716 75.059 254.687 70.664 255.652C67.207 256.411 64.144 255.901 61.446 253.008C60.271 251.748 57.804 251.109 55.961 251.176C52.231 251.313 48.533 252.181 44.808 252.638C42.391 252.935 39.932 253.32 37.524 253.165C33.519 252.908 32.294 250.135 34.861 247.016C36.129 245.475 38.117 244.526 39.661 243.124C38.177 240.013 36.257 239.38 34.17 239.355C31.549 239.323 28.919 239.517 26.304 239.743C24.2 239.925 21.851 240.335 20.872 238.008C19.726 235.284 22.073 233.903 23.927 232.742C26.144 231.353 28.47 229.971 30.939 229.182C38.257 226.845 45.668 224.796 53.047 222.649C53.927 222.393 54.836 222.233 56.271 221.905C54.928 219.337 53.739 217.035 52.524 214.747C47.756 205.775 42.932 196.777 41.163 186.655C40.366 182.098 40.029 177.289 40.532 172.71C41.726 161.843 49.177 154.048 60.041 152.332C65.17 151.521 70.493 151.853 75.729 151.835C77.769 151.828 79.815 152.281 81.347 152.464V152.464ZM220.489 126.871C219.121 122.745 216.718 120.743 213.635 119.651C209.048 118.027 204.448 116.307 199.715 115.251C179.341 110.707 158.692 111.345 138.058 112.573C127.525 113.2 117.218 115.189 107.366 119.148C103.992 120.504 101.013 122.281 99.75 126.049C101.467 128.452 103.263 127.373 105.263 126.683C110.923 124.731 116.561 122.533 122.393 121.319C128.053 120.141 133.931 119.822 139.734 119.545C165.614 118.31 191.544 116.735 216.262 127.275C217.312 127.723 218.834 127.058 220.489 126.871V126.871ZM107.972 64.0651C104.876 64.1371 102.762 65.652 102.069 68.976C100.776 75.188 102.148 80.9191 106.537 85.5491C110.308 89.5271 115.345 88.844 118.418 84.324C122.91 77.718 117.065 65.0831 109.085 64.1521C108.716 64.1091 108.343 64.0901 107.972 64.0651V64.0651ZM218.529 73.9841C218.288 69.5731 218.016 66.481 215.004 64.824C212.534 63.465 209.826 63.7411 207.552 65.3201C203.417 68.1911 200.657 72.1961 199.685 77.1261C198.867 81.2771 201.872 86.2811 205.505 87.6571C209.129 89.0301 213.372 87.2511 215.596 82.7481C217.134 79.6361 217.842 76.1131 218.529 73.9841Z" fill="black"/>
</svg>
