<svg width="320" height="320" viewBox="0 0 320 320" fill="none" xmlns="http://www.w3.org/2000/svg">
<path d="M318.709 151.083C316.5 150.416 313.19 150.04 311.169 150.203C303.598 150.814 296.115 151.969 288.98 154.62C264.699 163.645 239.93 164.175 214.807 159.158C212.786 158.754 210.783 158.184 208.742 157.97C202.981 157.366 197.882 158.837 193.605 162.95C189.143 167.241 184.644 171.5 180.018 175.611C173.65 181.269 172.054 188.298 174.136 196.204C175.087 199.816 176.677 203.312 178.356 206.671C183.583 217.126 189.162 227.406 194.285 237.911C200.944 251.565 205.98 265.85 208.737 280.799C210.228 288.886 211.702 309.356 210.256 311.565C202.069 303.049 194.514 294.752 186.475 286.953C178.315 279.037 169.37 272.041 159.206 266.74C149.151 261.496 138.789 257.171 126.597 254.893C133.376 260.25 148.126 281.5 150.216 290.583C133.502 280.875 119.966 276.257 105.475 271.677C97.287 269.089 89.156 266.306 81.078 263.391C69.368 259.165 58.461 253.403 48.486 245.894C33.895 234.91 24.517 220.568 20.201 202.827C17.114 190.139 13.81 177.504 10.65 164.833C8.15002 154.811 6.14802 144.702 5.76802 134.34C4.94602 111.897 13.05 92.672 26.955 75.52C44.545 53.822 67.828 42.511 94.943 38.202C110.058 35.8 125.15 36.186 140.033 39.665C163.002 45.033 181.67 57.233 195.744 76.207C199.425 81.17 202.735 86.43 205.926 91.728C211.997 101.807 220.651 106.709 232.513 106.042C242.468 105.482 252.437 104.996 262.404 104.897C268.573 104.836 274.752 105.533 280.923 105.941C296.6 106.978 313.753 117.406 318.1 140.328C318.682 143.413 319.25 146 318.709 151.083V151.083ZM147.946 97C138.834 91.25 103.417 92 93.917 96.666C97.667 101.916 108.546 109.491 116.792 112.943C122.681 115.409 128.811 115.776 135.024 114.819C144.313 113.39 148.624 107.517 147.946 97Z" fill="black"/>
</svg>
