<svg width="320" height="320" viewBox="0 0 320 320" fill="none" xmlns="http://www.w3.org/2000/svg">
<path d="M26.17 192.049C25.865 192.56 25.56 193.07 25.256 193.581C27.19 195.406 28.964 197.448 31.089 199.015C37.311 203.606 44.368 206.436 51.789 208.517C70.964 213.893 90.557 214.523 110.302 214.256C137.153 213.892 164.009 213.853 190.863 213.793C204.524 213.763 218.189 214.234 231.846 214.035C245.804 213.831 259.545 211.505 272.736 206.998C278.776 204.934 284.364 201.422 289.943 198.196C291.875 197.079 293.158 194.84 295.014 192.81C293.527 192.304 293.091 192.017 292.674 192.042C291.761 192.097 290.811 192.176 289.959 192.478C273.966 198.136 257.304 198.897 240.611 198.885C229.275 198.877 217.941 197.775 206.603 197.711C175.574 197.534 144.543 197.529 113.515 197.707C101.714 197.774 89.916 198.89 78.118 198.876C61.892 198.858 45.7 198.002 30.152 192.522C28.92 192.089 27.501 192.194 26.17 192.049V192.049ZM47.688 224.709C43.142 221.223 37.754 218.83 32.744 215.952C26.929 212.611 20.768 209.756 15.352 205.861C5.63703 198.874 4.50103 190.397 11.399 180.665C14.477 176.323 17.9 172.227 21.078 167.955C25.76 161.661 26.686 155.131 23.11 147.789C20.384 142.191 18.293 136.245 16.34 130.316C7.87703 104.625 18.443 74.796 41.207 60.118C53.49 52.198 66.917 50.002 81.156 53.102C87.386 54.458 92.801 57.592 97.584 61.771C104.386 67.715 111.114 73.744 117.92 79.683C120.012 81.509 122.316 83.09 124.422 84.901C131.315 90.827 138.836 92.594 148.13 91.425C158.383 90.748 167.44 90.813 177.107 91.483C181.772 91.806 185.999 91.784 189.585 88.886C199.119 81.182 208.813 73.64 217.911 65.443C227.438 56.859 237.919 51.346 251.005 51.756C262.17 52.106 272.41 55.216 281.469 61.926C302.901 77.804 311.893 106.166 303.309 131.411C301.299 137.321 298.932 143.122 296.48 148.867C293.914 154.878 293.956 160.603 297.767 166.008C300.832 170.356 304.133 174.537 307.304 178.811C316.283 190.91 314.724 199.526 302.072 207.805C301.297 208.312 300.537 208.862 299.707 209.261C283.586 217.008 269.196 227.6 253.987 236.845C225.928 253.903 187.571 267.573 160.456 267.573C133.341 267.573 71.823 243.218 47.688 224.709V224.709ZM61.801 144.517C81.334 144.674 97.307 128.445 97.336 108.41C97.365 88.345 82.185 72.059 63.14 71.722C43.572 71.376 27.622 87.217 27.196 107.422C26.774 127.383 42.614 144.362 61.801 144.517V144.517ZM292.659 108.101C292.656 87.746 277.326 71.865 257.545 71.724C238.234 71.587 222.74 87.956 222.802 108.431C222.863 128.611 238.68 144.724 258.23 144.52C277.264 144.322 292.662 128.034 292.659 108.101V108.101Z" fill="black"/>
<path d="M61.943 103.531C61.39 110.18 60.884 116.834 60.252 123.476C60.102 125.057 59.747 126.691 59.117 128.14C57.186 132.581 53.247 133.395 49.763 129.951C48.336 128.541 47.148 126.678 46.426 124.801C42.051 113.42 43.064 102.249 48.147 91.324C48.437 90.702 48.837 90.126 49.231 89.56C51.769 85.925 55.122 84.096 57.818 85.117C61.552 86.532 61.757 89.819 61.749 93.149C61.74 96.603 61.747 100.057 61.747 103.511C61.812 103.518 61.877 103.524 61.943 103.531V103.531Z" fill="black"/>
<path d="M276.732 110.82C275.777 115.319 275.121 119.911 273.745 124.277C273.021 126.575 271.368 128.843 269.552 130.476C266.44 133.273 262.737 132.353 261.047 128.563C260.214 126.695 259.689 124.569 259.562 122.526C258.969 113.052 258.392 103.57 258.155 94.083C258.008 88.193 259.558 85.401 262.679 85.012C267.02 84.471 269.451 87.319 271.455 90.62C274.422 95.507 276.149 103.005 276.732 110.82Z" fill="black"/>
</svg>
