<svg width="320" height="320" viewBox="0 0 320 320" fill="none" xmlns="http://www.w3.org/2000/svg">
<path d="M37.4 165.8C27.1 203.4 43 222.8 55 233C67 243.2 102.2 251.8 114.1 270.3C128.8 292.8 125.7 314 125.7 314C134.1 302.6 137.5 284 137.6 273.4C137.7 262.9 134 255.3 113 243.2C84.8 229.1 61.8 233.1 54.1 202.8C46.4 172.5 72.9 97.2 72.9 97.2C69.9 92.5 58.3 66 58.3 66C48 71.1 34 82.2 34 82.2C38.8 91.2 55.7 110.4 55.7 110.4C55.7 110.4 47.7 128 37.4 165.8V165.8Z" fill="black"/>
<path d="M96.9 85.7C96.9 85.7 73.8 128.9 69 163.9C64.3 198.8 86.6 216.3 114.4 228.3C142.3 240.3 142.6 251.8 142.6 251.8L146.4 240.3C137.9 217.2 95 212.9 91.6 174.3C88.1 135.8 112.5 80.5 112.5 80.5C108.9 74.7 106.2 52.6 105.6 46C95.9 48.8 87 52 79.2 55.4C81.8 67 96.9 85.7 96.9 85.7V85.7Z" fill="black"/>
<path d="M152.2 140.9C168.8 185.7 192.4 181.6 207.9 188.4C223.4 195.2 235.8 211.1 235.8 211.1L242.6 211.4C222.4 183.2 182.2 169.6 173.6 154.2C165.1 138.7 181.3 128.5 186.5 120.4C191.7 112.2 193.8 96 193.8 96C193.8 96 210.4 85.2 218.6 59.1C226.8 33 225.4 15 225.4 15C225.4 15 199.3 36.4 183.5 53.5C167.6 70.6 166.7 90.4 167.6 98.1C168.5 105.8 159.1 109.6 142.7 131.7C126.5 153.8 130.4 193 130.4 193C101.1 158 149.9 76.6 149.9 76.6C148.7 68.4 152 37.6 152 37.6C142.3 38.4 133.1 39.6 124.4 41.4C124.5 49.8 131 75.8 131 75.8C131 75.8 102 149.1 110.2 179C118.4 209 152.2 225.7 152.2 225.7L155.2 223.1C128.1 194 152.2 140.9 152.2 140.9V140.9Z" fill="black"/>
<path d="M277.2 240.9C276.9 237.1 270.5 224.5 264.7 213.8C258.9 203.1 264.7 213.8 264.7 213.7C264.1 212.7 263.6 211.6 263 210.6C255.9 197.5 238.7 163.7 228.9 142.2C218.1 118.7 203 105.1 203 105.1C203 130.8 180.7 135.8 187.2 148.7C193.7 161.6 202.7 161.5 218.2 168.1C223.4 170.3 230 177.5 236.2 185.6C250.2 204.9 271.3 238.6 270.6 240.6C268.6 246.2 264.2 247.2 264.4 252.4C264.6 257.6 264.3 264.4 261.7 266.4C259.1 268.4 253.2 265.3 250.8 267.1C248.3 268.8 246.4 270.2 242.8 267.8C239.2 265.3 236.6 265.1 231.5 264.2C226.9 263.3 219.2 259.5 217.7 244C224.2 238.3 232.8 227.2 221.7 215.2C201.4 193.1 196 200.8 177.5 191.7C164.1 185.1 155.8 173.4 155.8 173.4C148.6 201.6 166.7 223.6 166.7 223.6C190.8 231.2 209.9 246.3 212.1 248C214.3 269.8 232.3 272.4 235.4 272.5C238.9 272.7 241.2 277.9 244.6 278.1C248.1 278.3 249.3 275.1 251.9 274.9C254.5 274.7 253.8 277.5 262.7 274.9C271.4 272.3 270.9 258 272.1 253.5C273.2 248.8 277.9 248 277.2 240.9V240.9ZM215.1 160.4C211.3 160.8 199.9 156.4 195.7 148.6C191.6 140.9 214.6 141.1 217.2 146C220.1 151.5 218.9 159.8 215.1 160.4Z" fill="black"/>
</svg>
