<svg width="320" height="320" viewBox="0 0 320 320" fill="none" xmlns="http://www.w3.org/2000/svg">
<path d="M286.5 187.7C283.3 174.3 278.8 162.7 273.5 152.5H273.6C273.6 152.5 281.2 44.1 261.7 39.2C245.7 35.2 203.8 91.7 194.3 89.4C180.5 85.5 168.5 84.3 160.7 84.3H157.8C150.1 84.3 138 85.5 124.3 89.4C114.8 91.6 72.9 35.2 56.9 39.2C37.4 44.1 45 152.5 45 152.5C39.6 162.7 35.2 174.4 32 187.7C25.3 215.8 89.9 281 157.8 281H160.7C228.6 281 293.2 215.8 286.5 187.7V187.7ZM128.2 206.6C121.7 216.5 94.4 214.3 85 197.6C74.3 178.6 87.2 172.3 101.1 175C124.3 179.6 134.6 196.7 128.2 206.6ZM176.8 233.1C175.4 237.6 164.9 246.5 158.5 246.5H157.6C151.2 246.5 140.7 237.6 139.3 233.1C137.9 228.6 146.4 226.4 157.6 226.4H158.5C169.8 226.4 178.2 228.6 176.8 233.1ZM231.2 197.6C221.8 214.3 194.5 216.5 188 206.6C181.5 196.7 191.8 179.7 215.1 175.1C229.1 172.3 241.9 178.6 231.2 197.6Z" fill="black"/>
</svg>
