<svg width="320" height="320" viewBox="0 0 320 320" fill="none" xmlns="http://www.w3.org/2000/svg">
<path d="M289 84.8C283.5 77.7 271.4 76 260.2 81.2C257.2 82.6 251.5 86 243.9 90.7C243.9 90.7 239.4 62.4 209.9 54C180.4 45.5 89.2 55.5 20.4 109.2C20.4 109.2 116.2 68.7 161.8 86.8C201.3 102.4 178.8 131.5 162.5 141.2C162.5 141.2 162.5 141.2 162.4 141.2C162.2 141.3 161.9 141.5 161.7 141.6C149.3 148.8 137.8 155.1 128.6 159.2C90.2 176.8 4.40002 179 4.40002 179C4.40002 179 26.9 185.9 74.2 181.6C121.5 177.4 127.1 167.5 133.3 172.1C139.5 176.7 73.9 228.6 27.5 245.4C27.5 245.4 70.9 235.9 109.6 209.7C148.3 183.5 153.3 175.5 171.8 171.8C175.6 171 180.4 170.5 185.8 169.8C202.9 169.6 220.3 177.5 214.6 203.3C201.7 261.3 98.5 294.8 98.5 294.8C198.3 280.7 259.2 211.3 269 182.2C275.3 163.4 268.9 148.5 263.5 140.3C286.4 119.8 291.5 106.8 292.2 98.6C293.7 90.8 303.5 88 303.5 88C300 84.4 291.4 87.1 289 84.8V84.8Z" fill="black"/>
</svg>
