<svg width="320" height="320" viewBox="0 0 320 320" fill="none" xmlns="http://www.w3.org/2000/svg">
<path d="M230.7 121C254.4 153.3 288.4 165.4 303 131.9C303 131.9 278.7 142.8 266.6 108.8C258.1 85.4 240 55 204.3 58.5C206.4 44.7 205.7 26.2 191.8 5.00002C191.8 5.00002 190.6 19.8 172.3 37.2C160.7 48.2 146.2 56.6 144.4 69.4C144.4 69.4 138.3 63.9 145 51.2C151.7 38.4 161.3 15.3 140.6 1.90002C140.6 1.90002 144.4 16 129.2 23.9C114 31.8 84.9 46.9 91.6 79.7C91.6 79.7 68.5 57.8 92.8 22C92.8 22 64.6 27.6 39.1 59.2C18.8 84.4 -26 166.5 31.7 249.9C72 309.7 132.9 315.1 132.9 315.1C117.1 279.3 120.8 236.9 120.8 236.9C134.8 245.4 142.1 246 156 248.4C170 250.8 193 264.3 200.7 268.4C251.3 295.7 254.6 287.1 277.1 267.7C287.9 258.3 291.3 246.8 285.6 229.1C279.9 211.2 251.8 188.1 243.8 171.7C235.7 155.3 242.9 151.7 234.1 136.2C230.1 129.4 221.5 118.7 213.2 108.9C220.6 111.8 226.8 115.7 230.7 121V121ZM267.3 223.1C275.4 222.9 281.3 241.6 275.9 251.3C270.5 261 272.1 244.3 266.9 241.2C259.3 236.7 256.6 223.5 267.3 223.1ZM210.5 176.9C201.9 180.7 183.9 168.3 183.9 161.5C183.9 154.7 192 153.6 203.9 153.4C222.6 152.9 219.1 173.2 210.5 176.9Z" fill="black"/>
</svg>
