<svg width="320" height="320" viewBox="0 0 320 320" fill="none" xmlns="http://www.w3.org/2000/svg">
<path d="M291.6 116C293.1 112.6 305.8 83.4 290.9 66.5C290.3 65.9 282.6 57.3 271.1 56.6C264.3 56.2 258.5 59.2 247 65.1C238.8 69.3 232.4 73.4 227.9 76.4C219.2 71.3 211.4 68.6 206 67.2C198.1 65.1 188.3 62.4 176.3 65.1C169.3 66.6 164 69.4 160.7 71.5C157.3 69.4 152 66.6 145.1 65.1C132.3 62.3 121.8 65.6 114 67.9C109.1 69.4 102.4 71.9 94.9 76.4C85.3 70.5 77 66.4 70.8 63.7C55.2 56.7 50.3 56.9 47.4 57.3C45.5 57.6 36.6 59.1 30.4 66.5C30.3 66.6 28.8 68.5 27.6 70.7C22.6 80.2 22.8 97.8 29.4 113.9C35 127.6 43.8 136.8 50.3 142.2C46.3 152.1 41.1 168.7 41.1 189.6C41.1 202.4 41.5 230.5 60.9 256.8C76.4 277.8 96.4 287.4 106.9 291.5C109.6 294.5 124.7 311.3 144.4 315.6C152.4 317.3 160.7 317 160.7 317C160.7 317 169 316.7 177.7 314.2C195.9 308.9 208.5 297.4 215.2 290.1C224.6 286.6 250.2 275.7 266.9 248.3C281 225.1 281.1 202.4 281.1 190.3C281 169 275.4 152.2 271.2 142.2C277.5 137.2 286 128.7 291.6 116V116ZM48.1 186.8C46.3 182.9 47 177.2 50.9 174.8C53.5 173.2 56.9 173.4 59.4 174.8C62.1 176.4 62.9 179 63.6 181.2C64.4 183.6 65.5 187 63.6 189.7C61.5 192.7 57.1 192.6 56.5 192.5C53.1 192.3 49.7 190.1 48.1 186.8V186.8ZM69.4 232.1C67.9 234.9 63.3 235.3 60.2 234.2C57.5 233.2 55.2 230.8 54.5 227.8C54.4 227.1 53.6 223.6 55.9 221.4C57.9 219.5 60.8 219.9 61.6 220C66.1 220.6 68.3 225 68.7 225.7C69.3 227 70.6 229.8 69.4 232.1V232.1ZM88.5 209.4C88.1 213.3 83.6 215.4 82.8 215.8C78 218 73.3 216 72.9 215.8C68.6 213.9 65.6 209.4 65.8 205.2C65.8 204.5 66 202.7 67.2 201C67.4 200.7 68.9 198.7 71.4 198.2C72.5 198 73.7 198 77.8 199.6C83.5 201.9 86.4 203.1 87.7 206C88.1 206.5 88.6 207.8 88.5 209.4V209.4ZM123.1 179C120.4 183 115.8 184 112.5 184.7C106.9 185.9 102.3 184.7 99.8 184C98.7 183.7 91.2 181.5 84.9 174.8C81.1 170.7 80.7 168.1 80.7 167C80.5 164.4 81.6 162.4 82.1 161.3C85.9 154.1 95.1 152.4 97 152.1C103.1 151 107.9 152.5 109 152.8C111 153.5 120.8 156.9 123.9 166.2C124.4 168 126.4 174.1 123.1 179V179ZM188.8 232.8C188.7 233.1 188.4 233.8 186 235.6C184.3 236.9 182.8 237.8 181.8 238.4C181.1 238.9 180.1 239.6 179 240.5C177.5 241.7 175.8 243.1 174.8 244C173.3 245.3 170.9 247.8 168.2 251.8C167.5 253.8 167.1 255.5 166.8 256.8C166.2 259.7 166.4 260.8 165.4 262.5C165 263.2 163.9 265 162 265.3C159.9 265.6 158 263.8 157.1 262.5C156.2 261.1 156.3 260.1 155.7 257.5C155.4 256.2 154.8 254.2 153.6 251.8C150.6 247.9 147.9 245.1 146 243.3C142.1 239.6 139.8 237.6 139.8 237.6C137.9 235.8 136.3 234.4 135.1 233.5C134.3 232.8 133.8 232.5 133.6 231.9C132.9 230 135.2 227.5 136.4 226.2C138.5 224 140.7 221.5 144 221.2C144.8 221.1 146.1 221.2 152.3 224.7C159 228.6 159.2 229.6 161.2 229.7C163.7 229.7 164 228.3 170.8 224.7C174.5 222.8 176.5 221.8 178.4 221.9C183 222.1 186 226 186.7 226.9C187.7 228.3 189.5 230.6 188.8 232.8V232.8ZM220.3 184C217.8 184.7 213.3 185.9 207.7 184.7C204.4 184 199.8 183 197.2 179C193.9 174.1 195.9 168 196.5 166.3C199.6 156.9 209.2 153.5 211.2 152.9C212.3 152.6 217.1 151.1 223.1 152.2C224.9 152.5 234.1 154.2 237.8 161.4C238.3 162.4 239.4 164.4 239.2 167.1C239.1 168.2 238.8 170.8 235 174.9C228.8 181.5 221.4 183.7 220.3 184V184ZM240 215.8C239.2 215.4 234.8 213.4 234.4 209.4C234.2 207.8 234.8 206.5 235.1 205.9C236.4 203.1 239.3 201.8 244.9 199.5C248.9 197.9 250.1 197.8 251.2 198.1C253.7 198.7 255.2 200.6 255.4 200.9C256.7 202.6 256.8 204.4 256.8 205.1C257 209.3 254 213.8 249.8 215.7C249.3 216 244.7 218 240 215.8V215.8ZM266.6 227.8C266 230.8 263.7 233.2 261 234.2C257.9 235.3 253.4 234.9 251.9 232.1C250.7 229.8 252 227 252.6 225.7C252.9 225 255.1 220.7 259.6 220C260.4 219.9 263.2 219.5 265.2 221.4C267.5 223.7 266.7 227.2 266.6 227.8V227.8ZM271.5 174.8C275.4 177.2 276.1 182.9 274.3 186.8C272.8 190.1 269.4 192.3 265.9 192.5C265.3 192.5 261 192.7 258.9 189.7C257 187 258.1 183.6 258.9 181.2C259.6 179 260.4 176.4 263.1 174.8C265.6 173.3 268.9 173.2 271.5 174.8V174.8Z" fill="black"/>
</svg>
