<svg width="320" height="320" viewBox="0 0 320 320" fill="none" xmlns="http://www.w3.org/2000/svg">
<path d="M207 126.8C199.9 131.1 183.9 140 172.3 142.8C160.7 145.5 158.7 151.5 158.7 151.5H158.1C158.1 151.5 156.2 145.6 144.5 142.8C132.9 140.1 116.9 131.2 109.8 126.8C102.7 122.5 89.6 127.4 86.9 142.3C83.4 161 85.2 186.4 124.2 188.3C124.2 188.3 121.5 197.5 126.1 202.5C126.1 202.5 118.5 213.3 115.8 230.9C113.1 248.5 114.9 260.5 121.9 262.1C128.9 263.7 142.9 274.5 158.1 274.5H158.7C173.9 274.5 188 263.7 194.9 262.1C201.9 260.5 203.7 248.5 201 230.9C198.3 213.3 190.7 202.5 190.7 202.5C195.3 197.6 192.6 188.3 192.6 188.3C231.6 186.4 233.5 161 229.9 142.3C227.2 127.4 214.1 122.4 207 126.8V126.8ZM118 168.5C111.2 167.6 106 161.4 109 154C112 146.6 117.1 150.1 122 153.2C131.5 159.4 138 161 137.9 164.5C137.7 167.7 124.8 169.4 118 168.5ZM153 200.1C152.1 202 146.9 202.2 141.8 201.2C136.7 200.3 131 194.2 134.2 189.4C135.8 187.1 138.2 187 139.8 187.5C142.8 188.3 143.8 191.3 145.5 194.5C147.7 198.5 154.5 197.2 153 200.1V200.1ZM175 201.2C169.9 202.1 164.7 202 163.8 200.1C162.3 197.2 169.3 198.5 171.4 194.4C173.1 191.2 174 188.3 177.1 187.4C178.7 186.9 181.1 187.1 182.7 189.3C185.9 194.3 180.1 200.3 175 201.2V201.2ZM198.9 168.5C192.1 169.4 179.1 167.6 179 164.5C178.9 161.1 185.4 159.4 194.9 153.2C199.7 150.1 204.8 146.6 207.9 154C211 161.4 205.8 167.5 198.9 168.5Z" fill="black"/>
<path d="M272.2 155C274.4 150.3 275.7 144.2 275.7 135.8C275.7 125.8 273.6 115.3 270.3 108.5C267 101.7 261.3 97 254.4 95.1C249.9 77.4 244.4 62 237.5 49.4C230 35.5 220.8 24.4 210.3 16.6C190.2 1.7 169.8 1.7 158.9 1.7H158.2C147.2 1.7 126.9 1.7 106.7 16.8C96.2 24.7 87.1 35.6 79.5 49.6C72.8 62.2 67.1 77.5 62.6 95.3C55.8 97 50 101.8 46.7 108.7C43.4 115.4 41.3 125.9 41.3 136C41.3 144.3 42.7 150.6 44.8 155.2C41.6 163.3 37.6 175.6 37.5 187.6C37.4 207 50.7 233.8 58.7 248.1C63.5 256.5 79.9 285 93.7 293.4C104.1 299.9 109.9 301.5 114 302.6C115.9 303.2 117 303.4 118.5 304.2C119.3 304.5 120.6 305.7 121.9 306.7C127.8 311.4 137.9 319.4 157.7 319.4H158.4C178.3 319.4 187.9 311.8 194.1 306.7C195.4 305.7 196.7 304.6 197.4 304.2C198.9 303.4 199.9 303.2 202 302.6C206.3 301.5 212.2 299.7 222.7 293.4C236.3 285 253 256.1 257.7 247.4C265.6 233 278.9 206.2 278.9 187.6C279.5 175.5 275.5 163.1 272.2 155V155ZM215.4 280.7C201.4 289.4 198.7 287.1 191.2 291.1C183.7 295 179.1 304.6 159 304.6H158.3C138.2 304.6 133.4 295.1 125.9 291.1C118.4 287.2 116 289.4 102 280.7C88 272 52.7 213.8 52.8 187.5C52.9 171.6 62.3 153 62.3 153C53.9 148.5 55.9 124.2 60.4 115C62.6 110.4 66.1 109.3 69.1 109.3C72.2 109.3 74.7 110.6 74.7 110.6C93.8 17.7 137.4 16.5 158.5 16.5H159.2C180.3 16.5 223.9 17.6 243 110.6C243 110.6 245.5 109.3 248.6 109.3C251.6 109.3 255.1 110.4 257.3 115C261.8 124.2 263.7 148.6 255.4 153C255.4 153 264.9 171.6 264.9 187.5C264.6 212.2 229.4 272 215.4 280.7Z" fill="black"/>
</svg>
