<svg width="320" height="320" viewBox="0 0 320 320" fill="none" xmlns="http://www.w3.org/2000/svg">
<path d="M291.7 108.7C294.3 89.9 292.6 58.8 273.3 49.8C252 40 223.4 62.6 223.4 62.6C223.4 62.6 203.8 48.1 159.8 48.5C116.3 48.1 96.6 62.6 96.6 62.6C96.6 62.6 68 40.4 46.6 49.8C27.4 58.8 25.7 89.5 28.2 108.7C22.7 121.1 7.69999 156.5 25.2 203C38.4 237.6 64.5 261.9 82.8 271.3C93.5 294.4 120.8 320 159.6 320H160H160.4C196.7 320 227.4 294 238.1 271.3C256.5 261.5 282.5 237.1 295.7 203C312.6 156.9 297.2 121.1 291.7 108.7V108.7ZM121.8 201.3C120.9 209.4 108.1 214.1 101.3 215C92.8 216.3 70.1 216.3 73.1 182.6C73.5 177.5 75.2 171.9 83.8 167.2C101.3 157.4 124.3 177.8 121.8 201.3V201.3ZM182.8 270.1C179.8 271 176 271 176 276.5C176 279.9 177.3 282 180.7 282.9C179.8 283.8 175.6 291.4 160.6 291.4C145.7 291.4 141 283.7 140.5 282.9C143.9 282 145.2 279.9 145.2 276.5C145.2 271 141.4 271 138.4 270.1C134.6 269.2 129.9 268.8 129.9 260.7C129.9 256.4 132.5 249.2 138.9 247.5C143.6 246.2 155.5 245.8 161.5 255.6C167.5 245.8 179.9 246.6 184.1 247.5C190.5 249.2 192.6 256 192.6 260.7C191.3 268.8 186.2 269.2 182.8 270.1V270.1ZM217.4 215C210.6 214.1 198.2 209 196.9 201.3C193.9 178.2 217.4 157.3 234.9 167.6C243.4 172.3 245.1 177.8 245.6 183C248.1 216.3 225.9 216.3 217.4 215Z" fill="black"/>
</svg>
