<svg width="320" height="320" viewBox="0 0 320 320" fill="none" xmlns="http://www.w3.org/2000/svg">
<path d="M137.377 276.476C132.381 275.727 128.081 275.022 123.764 274.447C108.469 272.412 93.1779 272.504 77.8709 274.455C71.4949 275.268 69.5929 273.431 71.2569 267.271C72.4269 262.942 71.9709 259.072 70.6419 255.089C67.8019 246.58 65.0839 238.022 61.9199 229.633C60.6389 226.236 61.1909 224.034 63.5809 221.435C66.2209 218.565 68.5729 215.295 70.4149 211.859C73.0369 206.969 73.7429 201.696 69.7789 197.082C65.8809 192.545 60.5939 191.075 54.8689 192.344C44.9219 194.548 39.3249 201.59 35.7469 210.586C34.9679 212.545 34.4209 214.596 33.5129 217.386C31.2239 215.346 29.3729 213.875 27.7269 212.201C11.6119 195.814 3.38294 175.861 2.47794 153.14C0.990942 115.789 14.5549 84.937 44.5149 62.131C64.9049 46.609 88.2749 42.7 113.117 47.378C126.962 49.985 137.989 57.91 147.695 67.782C150.152 70.281 152.246 73.158 154.828 75.507C157.335 77.788 161.533 82.833 164.039 82.416C166.544 82 165.657 76.211 165.867 73.737C166.534 65.864 170.535 60.386 177.131 56.261C200.132 41.878 228.716 52.692 235.794 79.074C237.819 86.624 241.753 91.137 248.528 94.474C265.661 102.913 282.243 112.386 296.95 124.687C303.136 129.861 308.711 135.79 314.324 141.608C315.985 143.33 317.671 146.176 318.368 148.571C318.368 151.89 312.381 147.329 310.338 145.964C303.961 141.702 297.76 137.17 291.294 133.052C276.993 123.944 261.507 117.251 245.662 111.379C242.402 110.171 238.925 109.457 235.491 108.833C231.239 108.061 227.187 108.844 223.618 111.428C217.623 115.768 210.945 118.408 203.601 119.101C199.639 119.475 198.042 122.201 196.524 125.162C193.326 131.399 190.354 137.758 186.991 143.903C166.833 180.741 136.84 205.894 97.0549 219.386C92.9119 220.791 88.7829 222.323 84.8309 224.187C79.7259 226.594 78.7399 228.896 80.2069 234.182C81.3779 238.4 82.9659 242.502 84.1119 246.725C85.7309 252.688 89.7739 255.975 95.5009 257.336C103.598 259.261 111.763 260.9 119.861 262.821C123.26 263.627 126.645 264.634 129.886 265.925C134.242 267.659 137.067 270.78 137.377 276.476V276.476ZM217.775 90.682C222.431 90.674 226.321 86.864 226.111 82.518C225.914 78.432 221.6 74.583 217.225 74.59C212.935 74.597 209.355 78.192 209.374 82.473C209.393 86.9 213.271 90.689 217.775 90.682V90.682Z" fill="black"/>
</svg>
