<svg width="320" height="320" viewBox="0 0 320 320" fill="none" xmlns="http://www.w3.org/2000/svg">
<path d="M315.8 175.7C313.7 172.3 309.7 171.7 308.8 171.5C305 170.8 302 172.4 301.1 172.9C296.5 169.7 291.6 166.4 286.4 163.1C281.1 159.8 276 156.8 271 154C267.4 153.2 264.5 153.2 262.6 153.3C258.1 153.6 254.8 154.9 250 156.8C244.6 158.9 240.3 161.3 237.4 163.1C236.6 161.9 235.4 160.2 233.9 158.2C227.2 148.9 225.4 147.2 222.7 146.3C221.7 146 218.9 145 216.4 146.3C212.5 148.3 212.3 154.4 212.2 156.8C212.1 158.9 212.4 163.9 215.7 168.7C220.5 175.6 228.2 176.9 229.7 177.1C227.9 177.4 222.3 178.1 216.4 175C214.4 173.9 209.9 171.3 207.3 165.9C203.3 157.6 205.6 147.1 211.5 141.5C213.1 140 215 138.2 217.8 138C222.4 137.6 226.4 141.8 233.9 149.9C236.1 152.2 237.7 154.2 238.8 155.5C240.6 154.1 243.1 152.3 246.5 150.6C253.3 147.2 259.4 146.6 261.9 146.4C264 146.3 266 146.3 267.9 146.4C263.3 135.6 253.6 114 233.3 94C221.6 82.5 205.3 66.5 179.5 61.9C169.7 60.2 161.3 60.6 155.8 61.2C160.4 65.8 165 70.7 169.8 75.9C174.5 81.1 179 86.3 183.1 91.3C173 83.4 157.1 73.2 135.6 68.3C125.6 66 111.7 62.9 94.4 66.9C82.9 69.5 74.1 74.4 68.7 78C71.5 79.9 74.5 81.7 77.8 83.6C82.2 86.1 86.4 88.2 90.4 89.9C84.4 91.4 75.7 94.1 66 99C55.9 104 41 111.5 29.7 127.6C25.8 133.1 19.8 143.3 17.1 158.3C21.7 155.7 28 152.7 35.9 150.6C44.2 148.4 51.4 147.8 56.8 147.8C51.7 150.9 36.1 161.2 28.2 182C21.5 199.6 24.1 215 25.4 221.1C31.7 223.2 38 225.3 44.2 227.4C44.9 235.9 46.2 245.2 48.4 255.3C49.7 261 51.1 266.4 52.6 271.4C62.2 275 66.1 273.8 68 272.1C69.9 270.3 69.1 268.3 71.5 264.4C73.2 261.7 77.2 256.8 80.6 257.4C85 258.2 83.7 267.8 89.7 272.1C94.3 275.3 100.9 273.8 105.8 272.1C106.2 269.1 107 265.5 108.6 261.6C112.3 252.5 118.2 246.6 121.9 243.4C130.7 244.7 141 245.6 152.6 245.5C166 245.4 177.8 243.9 187.5 242C190.2 246.6 194.5 252.9 200.8 259.5C208.2 267.3 211.8 271.4 218.3 273.5C222.7 274.9 226.8 274.7 235.1 274.2C242.3 273.8 248.2 273.4 249.1 270.7C249.6 269.1 248.1 267.7 244.2 263C233.9 250.3 233.1 245.3 233 242.8C233 240.6 233.4 238.9 233.7 237.9C244.9 235.3 253.9 232.1 260.2 229.5C273.7 224.1 286.9 218.6 299.3 206.5C305 200.9 308.8 195.5 311.2 191.8C312 191.2 313 190.3 314 189C315.8 186.2 318.7 180.3 315.8 175.7V175.7ZM275.3 186.2C273.7 189.1 269.7 189.7 266.9 189C264 188.3 261.3 186 260.6 182.7C260.5 182.4 259.7 178.1 262.7 175.7C266 173 270.7 175.5 271.1 175.7C273 176.8 274.1 178.3 274.6 179.2C275 179.9 276.9 183.3 275.3 186.2Z" fill="black"/>
</svg>
