<svg width="320" height="320" viewBox="0 0 320 320" fill="none" xmlns="http://www.w3.org/2000/svg">
<path d="M192.574 257.508C190.097 257.346 189.661 265.047 188.599 268.323C187.304 272.318 186.443 276.468 184.925 280.369C184.291 281.998 182.535 284.345 181.13 284.243C178.352 284.042 176.684 279.977 176.498 279.575C173.668 273.48 172.896 273.19 166.331 275.715C161.889 277.902 160.688 272.824 159.895 270.311C159.161 267.986 158.766 265.324 155.882 264.75C152.756 264.128 150.862 266.393 149.424 268.575C145.65 274.299 141.668 279.967 138.665 286.096C135.58 292.394 130.626 295.91 124.375 295.876C117.565 295.839 110.321 294.86 103.913 292.916C73.494 283.69 50.08 265.514 35.932 236.58C28.898 222.194 27.273 206.969 30.802 191.272C32.705 182.809 37.151 176.593 45.183 172.552C60.197 164.999 74.923 156.875 90.397 148.654C89.317 147.74 88.818 147.159 88.19 146.809C74.555 139.194 67.153 126.869 62.722 112.512C60.272 104.573 62.508 101.93 70.78 103.818C78.25 105.523 85.653 108.172 92.574 111.476C101.782 115.872 110.161 121.786 117.038 129.485C118.925 131.598 120.798 132.417 123.417 131.299C126.645 129.921 139.287 125.353 137.563 122.254C134.551 116.84 130.087 113.35 124.014 111.759C112.198 108.663 101.025 103.928 90.336 98.034C82.162 93.527 75.462 87.496 71.129 79.124C69.407 75.798 67.268 70.06 69.923 67.849C72.193 66.739 73.363 69.505 75.037 70.209C78.365 71.608 80.412 70.433 80.033 66.814C79.683 63.472 78.585 60.168 77.505 56.952C75.875 52.097 73.661 47.42 72.295 42.5C71.347 39.088 71.145 35.397 71.127 31.828C71.118 29.963 71.575 27.636 72.801 26.317C75.761 24.682 77.502 29 78.998 30.822C81.405 33.754 83.447 37.018 86.065 39.736C90.611 44.457 95.265 43.508 97.328 37.352C98.644 33.425 99.036 29.197 99.976 25.134C100.7 22.003 101.291 18.772 102.563 15.856C103.973 12.626 106.406 12.303 108.923 14.749C110.541 16.322 111.819 18.256 113.179 20.081C116.469 24.498 119.524 29.108 123.057 33.319C125.093 35.746 127.635 37.96 130.372 39.538C134.965 42.186 138.795 40.565 140.893 35.65C141.828 33.459 142.053 28.6 144.047 27.907C146.291 27.34 147.538 31.619 148.399 33.311C149.595 35.659 150.231 38.285 151.194 40.758C153.738 47.293 155.912 54.022 159.058 60.257C160.964 64.034 164.133 67.319 167.239 70.3C169.9 72.854 173.374 73.785 177.294 72.777C181.154 71.784 182.457 72.498 182.496 76.303C182.536 80.2 181.736 84.178 180.779 87.989C180.048 90.899 178.295 93.538 177.359 96.415C175.625 101.746 179.729 101.751 185.567 100.482C192.631 98.946 196.144 98.604 201.347 94.371C205.913 90.656 210.224 86.627 214.734 82.841C216.375 81.463 218.058 79.002 220.557 80.962C222.77 82.697 221.754 85.218 220.873 87.282C219.763 89.883 218.309 92.341 216.949 94.831C215.943 96.672 214.334 98.799 216.261 100.483C217.609 101.661 220.019 102.264 221.871 102.11C229.022 101.514 235.613 98.88 241.373 94.73C246.278 91.196 249.755 86.95 254.366 83.009C256.187 81.453 258.524 77.961 260.734 78.275C263.907 78.992 263.055 83.038 262.672 85.334C261.751 90.87 259.439 95.842 255.789 100.141C246.429 111.167 234.637 117.873 220.292 119.963C212.211 121.14 204.093 122.086 196.04 123.425C192.514 124.011 188.92 124.911 185.686 126.388C178.675 129.589 181.757 132.558 188.342 138.559C191.6 141.528 195.316 144.002 198.874 146.634C206.648 152.386 213.286 158.922 216.586 168.442C217.422 170.853 220.082 172.893 222.331 174.506C232.944 182.117 243.796 189.395 254.383 197.04C261.954 202.507 268.742 208.843 273.922 216.754C278.658 223.986 281.529 231.717 280.919 240.505C280.461 247.112 280.485 253.792 279.476 260.313C277.941 270.223 273.557 274.059 264.024 274.068C260.374 274.072 256.579 275.224 253.112 276.541C248.352 278.348 243.891 278.048 239.721 275.549C234.639 272.504 229.255 271.053 223.393 270.64C216.174 270.132 209.71 267.56 203.812 263.195C200.873 261.021 194.369 257.612 192.574 257.508V257.508ZM189.118 177.759C182.088 177.274 179.178 180.571 181.191 185.637C182.721 189.487 185.902 191.536 189.844 192.242C193.691 192.931 196.957 191.433 199.428 188.558C202.198 185.335 201.26 181.481 197.224 179.925C194.301 178.797 191.142 178.281 189.118 177.759Z" fill="black"/>
</svg>
