<svg width="320" height="320" viewBox="0 0 320 320" fill="none" xmlns="http://www.w3.org/2000/svg">
<path d="M282.5 75.5C282.2 73.4 281.5 69.0999 278.8 60.7999C277.1 55.3999 276.2 52.7 275.1 50.5C270.8 41.5 263.4 36.6999 257.5 32.9C250.9 28.5999 244.4 24.3999 234.7 23.3999C230 22.8999 218.4 21.6999 209.7 29.2999C203.1 35.0999 201.4 43.1999 200.2 49.0999C199.4 52.9999 199.4 55.9999 199.5 60.7999C199.5 61.8999 199.6 63.3999 200.2 65.1999C201.1 67.6999 202.7 69.1999 203.1 69.5999C207 73.4999 217.2 89.7999 220.7 99.6999C222.7 105.3 224.9 115.5 220.7 130.5C217.3 127.7 213.7 125 209.7 122.4C183.9 105.6 156.7 101.6 137.1 101.1C130.3 104.4 122.9 108.9 115.7 115C106.1 123.2 100.2 131.5 97.3 135.6C93.4 141.1 91.1 145.4 87.8 151.8C82 162.6 80.5 167.7 79.7 170.9C78.8 174.5 78.4 177.6 78.2 179.7C77.9 180.7 76.9 181.3 76 181.2C75.3 181.1 74.7 180.5 74.5 179.7C74.1 178 73.8 175.4 73.8 172.4C73.8 167.3 74.9 163.3 76 159.9C80.1 147.2 85.5 137.9 85.5 137.9C92.9 125.1 100.6 117.2 109.7 107.8C109.7 107.8 119.5 97.6999 129.7 92.7999C130.4 89.3999 131.5 84.6999 133.2 79.1999C135.4 72.0999 136.1 71.4 136.9 67.5C137.9 62.5 140 51.4 134 46.9C130.3 44.1999 124.5 44.6 120.8 46.9C115.3 50.3 113.9 58.1 113.5 57.9C113.1 57.8 114.2 54.2 114.2 54.2C116.5 46.9 118.4 42.8999 119.3 40.1999C120.4 37.0999 123.2 29.2999 120 23.2999C115.9 15.4999 104 15.1999 103.1 15.1999C91 15.0999 82.6 25.3 80.6 27.7C73.5 36.3 71.1 47.0999 70.3 46.7999C69.7 46.5999 72.9 39.3999 69.6 35.0999C69.4 34.7999 68.1 33.3 65.9 32.9C63.3 32.4 60.5 33.8999 58.6 36.5999C55.8 38.9999 51.8 42.7999 48.3 48.2999C43.5 55.8999 42.2 62.9 41 68.9C39 79.1 39.4 87.5999 39.5 89.4999C39.8 94.4999 40.6 98.9999 40.2 98.9999C39.8 99.0999 36.9 92.7999 35.8 85.7999C35.6 84.5999 35.2 81.5999 32.9 79.1999C32.2 78.4999 31.6 77.7999 30.7 77.6999C27.5 77.2999 24.2 84.5999 23.4 86.4999C17.2 100.1 19.9 117.7 20.5 121C21.9 129.8 25.3 143.6 34.5 159.2C31 156.9 29.1 154.5 27.9 152.6C24.8 147.6 25.3 143.2 22 141.6C19.7 140.5 17.1 141.5 16.9 141.6C10.2 144.4 9.1 159.2 11 169.5C12.8 179.1 17.3 185.8 19.8 189.3C23.9 195.2 28.3 199.2 31.5 201.8C33 202.7 34.6 203.8 36.3 205.2C37.3 206 38.1 206.9 38.9 207.7C36.7 207.5 34.9 207.2 33.8 207C31.3 206.6 30.4 206.3 28.7 206.3C26.6 206.3 25.2 206.3 24.3 207C22.2 208.7 23.2 213.7 24.3 216.5C26.7 222.5 32.1 225.7 35.3 227.5C37.3 228.7 39.4 229.6 47 231.9C60.6 236.1 64.2 236.2 71.2 239.2C74.3 240.5 78.1 242.4 82.2 245.1C79 249 76.5 252 74.9 253.9C70.6 258.9 69.1 260.5 68.3 263.4C68.1 264.1 67.1 268 68.3 271.5C70.7 278.3 80.2 280.4 89.6 282.5C95.3 283.8 105.2 285.8 118.2 284H118.3C122.2 290.1 126.1 296.2 130 302.4C126.7 303.7 124.6 306.1 124.9 308.3C125.1 310 126.5 311.3 127.8 312C128.2 312.2 128.5 312.3 128.9 312.3C130.8 312.6 178 313.5 190.3 312C190.6 312 190.8 311.9 190.8 311.9C192.2 311.7 199.9 311.1 206.3 309C209.7 307.9 212.3 307.1 212.3 306C212.2 303.9 201.9 302.7 197.3 302C191.5 301.1 183.7 300.4 174.2 300.9C171.7 297.3 169.3 293.3 166.9 289.2C164.6 285.2 162.6 281.4 160.7 277.6C172.9 278.1 193.2 278 213.9 267.2C245.8 250.5 256.5 219.9 257.2 214.3C257.9 208.7 258 206.9 258 206.9C258.2 202.5 257.8 200.8 258.6 197.4C259.1 195.7 259.3 195.6 260.1 193C260.1 193 261 190.1 261.6 186.4C264.1 171.1 263.1 157 263.1 157C262.6 150.4 261.7 145.5 260.2 137.2C259.1 131.4 258.1 126.7 257.3 123.2C259.3 123.5 262.5 123.5 265.4 121.7C271.5 117.9 271.4 108.6 271.3 104.8C271.2 98.3999 269.2 93.8999 266.2 87.1999C264.2 82.6999 261 76.4999 255.9 69.5999C257.2 68.7999 259.2 67.8 261.8 67.4C266.6 66.6 270.5 68.1 272.1 68.9C273.4 73.8 273.6 77.7999 273.6 80.5999C273.6 82.1999 273.4 86.7999 275.1 91.5999C275.5 92.6999 276.1 94.2999 277.3 94.4999C278.5 94.7999 279.6 93.5999 280.2 92.9999C282.3 90.8999 282.9 88.1999 283.1 86.3999C283.3 81.4999 282.8 77.4 282.5 75.5V75.5ZM146.7 301.7C142.3 294.8 137.9 288 133.5 281.1C133.5 280.8 133.6 280.5 133.6 280.1C136.9 278.9 139.9 277.5 142.5 276.2C145.9 281.7 151.5 290.5 158.5 301.6C154.5 301.7 150.6 301.7 146.7 301.7ZM249.5 52C248 54 245.1 54.6 242.9 54.2C242.7 54.2 239.4 53.5 237.8 50.5C237.5 49.9 236.5 48.0999 237.1 46.0999C237.4 45.1999 238 44.3 238.6 43.9C240.6 42.6 245.4 45.4 250.3 50.5C250.1 50.9 249.9 51.4 249.5 52Z" fill="black"/>
</svg>
