<svg width="320" height="320" viewBox="0 0 320 320" fill="none" xmlns="http://www.w3.org/2000/svg">
<path d="M269.6 46.3C260.4 33.9 248.8 24.2 249.5 35C250.2 48.5 248.3 69.6 234 54.7C206.8 26.3 167.7 -6.69999 105.1 10.8C59.3 23.6 2.3 90.4 12.1 188.4C21.9 286.4 98.6 310.7 135.6 315.4C162.4 318.8 244.3 302.9 245.1 225.5C245.8 160.2 208.3 144.9 174.7 141.3C141.1 137.7 106.4 154.4 102.4 189.8C98.4 225.2 123.5 241.9 137.8 246.4C152.2 250.8 180.9 246.4 183.2 226.2C185.5 206 169.5 200.2 169.5 200.2C178.7 220.8 155.9 235.2 139.7 222.7C123.5 210.2 128.9 185 141.5 175.1C154 165.3 200.8 159.9 215.2 194.9C227.9 225.9 211.6 268 175.7 277.5C137.4 287.6 100.3 276.6 83.2 246.1C66 215.4 68 167.6 94.8 137.3C117.7 111.4 159.2 90.7 216.7 117.1C258.5 136.2 266.3 168.6 290.1 164.5C318.4 159.7 317 110.5 269.6 46.3ZM279.5 118.4C274.8 124.9 263.7 124.9 256.7 119.7C249.7 114.6 247.9 105.3 252.7 98.8C257.4 92.3 267 91.3 273.8 96.4C281 101.5 284.4 112 279.5 118.4V118.4Z" fill="black"/>
</svg>
