<svg width="320" height="320" viewBox="0 0 320 320" fill="none" xmlns="http://www.w3.org/2000/svg">
<path d="M89.3 116.4C90.6 114.4 92.8 111.4 96.1 108.3C107.5 97.4999 122 95.0999 132.7 93.3999C136.1 92.8999 140.7 92.2999 146.3 91.9999C141.6 84.9999 133.4 74.8999 120.5 66.1999C112.5 60.7999 104.9 57.4999 98.8 55.3999C96.4 55.4999 79.8 56.3999 69 70.2999C60.9 80.6999 60.8 92.1999 60.9 94.6999C61 100.6 62.4 105.3 63.6 108.3H66.3C75.8 108.6 83.7 112.5 89.3 116.4V116.4Z" fill="black"/>
<path d="M51.3 108.3C49.8 103.2 47.5 92.3 51.3 79.8C54.2 70.2 59.5 63.9 62.1 60.8C66.5 55.7 71 52.2 74.3 50C68.8 50 56.9 50.7 44.5 58.1C31.4 66 25.3 76.8 22.9 81.2C21.6 83.5 18 90.5 16.1 100.2C14.9 106.6 13.5 113.6 16.1 121.9C18.3 128.9 22.1 133.3 22.9 134.1C28.9 140.7 36.1 142.9 39.2 143.6C38.9 141 38.7 137.2 39.2 132.8C39.6 128.6 40.2 123.5 43.3 117.9C44.5 115.5 46.9 111.8 51.3 108.3V108.3Z" fill="black"/>
<path d="M47.3 162.5C48.6 163.8 52.9 167.9 59.5 167.9C65.2 167.9 69.2 164.8 70.3 163.8C70.4 166.1 70.4 167.9 70.3 169.2C69.9 177 68.2 179.3 67.6 180C67.2 180.5 66.8 180.8 66.2 181.4C66.2 181.4 63.2 184.1 59.4 185.5C53.6 187.6 47.6 186 45.8 185.5C39.1 183.8 34.9 179.9 32.2 177.4C29.5 174.8 26.5 171.3 22.7 163.8C19.7 157.8 15.7 148.8 13.2 136.7C15.1 139.5 19.8 145.4 28.1 148.9C33.6 151.2 38.6 151.6 41.7 151.6C42.1 153.5 43.1 158.4 47.3 162.5V162.5Z" fill="black"/>
<path d="M231.7 116.4C230.4 114.4 228.2 111.4 224.9 108.3C213.5 97.4999 199 95.0999 188.3 93.3999C184.9 92.8999 180.3 92.2999 174.7 91.9999C179.4 84.9999 187.6 74.8999 200.5 66.1999C208.5 60.7999 216.1 57.4999 222.2 55.3999C224.6 55.4999 241.2 56.3999 252 70.2999C260.1 80.6999 260.2 92.1999 260.1 94.6999C260 100.6 258.6 105.3 257.4 108.3C256.5 108.3 255.6 108.3 254.7 108.3C245.2 108.6 237.3 112.5 231.7 116.4V116.4Z" fill="black"/>
<path d="M269.7 108.3C271.2 103.2 273.5 92.3 269.7 79.8C266.8 70.2 261.5 63.9 258.9 60.8C254.5 55.7 250 52.2 246.7 50C252.2 50 264.1 50.7 276.5 58.1C289.6 65.9 295.8 76.7 298.2 81.2C299.5 83.5 303.1 90.5 305 100.2C306.2 106.6 307.6 113.6 305 121.9C302.8 128.9 299 133.3 298.2 134.1C292.2 140.7 285 142.9 281.9 143.6C282.2 141 282.4 137.2 281.9 132.8C281.5 128.6 280.9 123.5 277.8 117.9C276.5 115.5 274.1 111.8 269.7 108.3V108.3Z" fill="black"/>
<path d="M273.7 162.5C272.4 163.8 268.1 167.9 261.5 167.9C255.8 167.9 251.8 164.8 250.7 163.8C250.6 166.1 250.6 167.9 250.7 169.2C251.1 177 252.8 179.3 253.4 180C253.8 180.5 254.2 180.8 254.8 181.4C254.8 181.4 257.8 184.1 261.6 185.5C267.4 187.6 273.4 186 275.2 185.5C281.9 183.8 286.1 179.9 288.8 177.4C291.5 174.8 294.5 171.3 298.3 163.8C301.3 157.8 305.3 148.8 307.8 136.7C305.9 139.5 301.2 145.4 292.9 148.9C287.4 151.2 282.4 151.6 279.3 151.6C278.9 153.5 277.9 158.4 273.7 162.5V162.5Z" fill="black"/>
<path d="M261.5 121.9C255.5 118.1 250.3 117.8 247.9 117.8C240.6 117.9 234.8 121.6 230.3 124.6C227.9 126.1 226.1 127.6 224.9 128.7C224.8 127.4 224.4 125.5 223.5 123.3C221.4 118.2 217.7 115.4 215.4 113.8C204 105.8 185.6 103 185.6 103C174.9 100.9 165.7 100.3 158.5 100.3C151.1 100.3 142.4 100.3 131.4 103C129 103.6 114.6 107.3 107 113.8C101.6 118.5 97.5 124.6 97.5 124.6C96.1 126.4 94.8 128.2 93.4 130C92.4 128.2 90.8 125.6 88 123.2C79.9 116.3 69.7 117.5 67.7 117.8C63.1 118.5 59.5 120.2 56.9 121.9C56.7 125 56.7 130.7 59.6 136.8C60.3 138.4 65.1 148 75.9 151.7C78.6 152.6 81 152.9 82.7 153.1C82.7 154.4 82.8 156.2 82.7 158.5C82.6 163.6 82.2 164.7 81.3 173.4C80.8 178.6 80.5 182.9 81.3 188.3C82 192.3 85.2 207.7 97.6 218.1C102.2 222 102.9 220.8 107.1 224.9C116 233.4 119.1 243.9 119.3 246.6C120.7 265.6 121.3 269.6 122 272.4C122.5 274.5 127.9 289.7 141 298.2C143.2 299.6 148.6 303 155.9 303.6C156.4 303.6 156.8 303.7 157.2 303.7V303.6C156.7 293.5 156.1 286 155.8 283.3C155.7 282.5 155.6 281 154.4 280C153.9 279.5 153.4 279.3 153 279.2C150.5 278.3 148.7 278.1 147.6 277.8C144.2 276.9 142.5 273.1 142.2 272.4C141.2 270.1 140.4 266.2 142.2 264.2C143 263.4 144.2 262.5 147.9 262.9C159.9 264.2 161.2 264.2 170.7 262.9C174.8 262.3 175.8 263.8 176.1 264.3C177.9 266.4 176.6 270.9 174.7 273.8C173.6 275.6 172.6 277.2 170.6 277.9C169.3 278.3 167.7 278.3 165.2 279.3C164.7 279.5 164.3 279.7 163.8 280.1C162.7 281.1 162.5 282.6 162.4 283.4C162.3 285.5 161.7 293.2 161 303.7C161 303.7 167.5 303.3 173.2 301C183.6 296.9 190 286.8 192.2 283.4C194.5 279.7 199.7 271.5 200.3 260.3C200.7 253.2 199 252 200.3 245.4C200.8 242.8 202.6 235.6 208.4 229.1C212.3 224.8 213.4 225.9 219.2 221C228.7 213 233 204 234.1 201.5C235.2 199 237.4 194 238.2 187.1C238.6 183.2 238.4 180.1 238.2 176.3C237.8 170.4 237.6 167.1 236.6 163.3C236.3 162.4 235.7 160.3 235.5 157.3C235.4 155.5 235.4 154.1 235.5 153.2C237.2 153.1 239.6 152.8 242.3 151.8C251.4 148.7 256 141.6 257.2 139.6C262 131.9 261.7 124.5 261.5 121.9V121.9ZM119.1 201.9C117.3 205.3 113 205.8 111 206C104.9 206.6 100.3 203.1 98.8 201.9C94.5 198.6 92.8 194.5 92 192.4C91.2 190.4 89.9 187 90.6 182.9C90.9 181.4 91.3 179.1 93.3 177.5C93.6 177.2 94.7 176.4 96 176.1C98 175.7 99.7 176.8 105.5 181.5C110.8 185.8 107.4 183.2 115 189.6C116.4 190.8 117 191.3 117.7 192.3C118 192.7 121.4 197.7 119.1 201.9V201.9ZM225.8 192.4C225 194.5 223.3 198.6 219 201.9C217.5 203 212.9 206.6 206.7 206C204.6 205.8 200.4 205.4 198.5 201.9C196.3 197.8 199.6 192.7 199.9 192.4C200.6 191.4 201.2 190.9 202.6 189.7C210.3 183.2 206.8 185.9 212.1 181.6C217.9 176.9 219.6 175.8 221.6 176.2C223 176.5 224 177.3 224.3 177.6C226.3 179.2 226.8 181.6 227 183C227.9 187 226.6 190.3 225.8 192.4V192.4Z" fill="black"/>
</svg>
