<svg width="320" height="320" viewBox="0 0 320 320" fill="none" xmlns="http://www.w3.org/2000/svg">
<path d="M226.287 107.206C235.8 109.586 250.431 110.192 259.989 107.675C274.105 104.084 281.414 95.756 283.976 83.579C286.17 72.099 285.833 42.727 242.798 29.706C262.167 44.85 274.105 67.711 260.048 78.445C245.991 89.179 228.285 71.843 188.47 72.586C167.396 72.979 163.475 100.351 162.596 103.231C162.315 104.153 160.99 105.21 159.999 105.419C159.008 105.21 157.744 104.153 157.463 103.231C156.584 100.351 152.663 72.979 131.589 72.586C91.7741 71.844 74.068 89.179 60.011 78.445C45.954 67.711 57.892 44.85 77.261 29.706C34.227 42.727 33.89 72.099 36.084 83.579C38.646 95.755 45.955 104.083 60.071 107.675C69.628 110.192 84.259 109.586 93.772 107.206C97.988 106.151 110.231 103.938 113.982 109.268C109.967 112.959 107.409 114.897 104.728 119.909C100.632 122.507 96.594 120.906 92.68 119.896C88.041 118.7 83.541 116.974 78.925 115.678C70.968 113.445 62.875 111.912 54.565 112.472C49.494 112.813 44.311 113.112 39.998 117.049C46.144 139.054 66.414 146.974 83.984 145.671C87.694 145.396 91.315 144.046 95.008 143.358C97.599 142.874 100.317 141.533 103.376 144.365C103.491 154.254 106.295 164.046 112.159 172.742C116.78 179.595 121.592 198.925 123.277 202.742C126.182 209.777 126.751 216.817 123.693 223.95C121.579 228.883 122.173 233.733 123.836 238.731C125.431 243.522 126.845 246.415 127.42 251.375C128.059 256.897 129.482 261.864 133.942 265.407C133.129 268.261 131.445 270.254 133.012 275.985C134.41 281.099 145.879 284.972 144.386 293.016C151.553 287.531 145.381 281.498 147.333 278.21C153.358 281.075 155.705 285.232 155.606 290.592C155.542 294.045 150.757 299.232 156.547 304.694C157.427 296.855 165.028 296.111 169.074 290.091C171.961 285.795 172.757 282.321 173.445 276.924C176.441 280.127 178.631 284.789 175.72 292.41C187.438 286.325 190.039 279.463 185.752 265.716C192.357 262.427 192.508 255.948 193.517 249.688C194.166 245.665 195.08 243.66 196.486 239.812C198.525 234.232 199.177 228.811 196.768 223.214C193.981 216.738 194.372 210.176 197.036 203.818C198.756 199.764 203.218 179.594 207.84 172.741C213.704 164.045 216.509 154.252 216.623 144.364C219.682 141.532 222.4 142.873 224.991 143.357C228.684 144.046 232.305 145.395 236.015 145.67C253.586 146.974 273.855 139.053 280.001 117.048C275.689 113.112 270.505 112.813 265.434 112.471C257.124 111.912 249.031 113.445 241.074 115.677C236.458 116.972 231.958 118.698 227.319 119.895C223.404 120.905 219.367 122.506 215.271 119.908C212.59 114.896 210.092 112.958 206.078 109.267C209.828 103.937 222.072 106.151 226.287 107.206V107.206ZM128.147 158.568C127.776 161.158 127.217 163.875 124.001 164.576C121.069 165.215 118.544 164.046 117.327 161.59C115.359 157.622 113.599 153.457 112.489 149.183C111.321 144.691 115.685 141.15 120.079 142.893C122.039 143.671 124.177 145.131 125.198 146.885C126.845 149.718 128.65 155.067 128.147 158.568ZM188.593 237.517C185.06 242.902 185.108 246.891 184.213 252.776C183.154 259.739 180.732 262.143 173.213 263.113C168.469 263.725 163.651 263.85 159.266 264.164C154.396 263.708 149.912 263.543 145.541 262.809C140.774 262.009 137.402 259.415 136.736 254.736C135.763 247.904 135.633 243 131.881 236.678C130.867 234.97 132.143 232.954 134.031 231.848C135.93 230.735 138.043 230.793 139.774 232.103C141.065 233.081 142.051 234.411 143.112 235.628C144.18 236.853 144.997 238.307 146.229 239.36C152.755 244.937 170.864 243.637 176.385 237.25C177.658 235.777 178.691 234.114 180.064 232.73C181.847 230.932 184.573 230.649 186.617 231.787C188.61 232.897 189.886 235.546 188.593 237.517V237.517ZM207.51 149.183C206.399 153.457 204.639 157.622 202.672 161.59C201.454 164.046 198.929 165.215 195.998 164.576C192.782 163.875 192.223 161.158 191.852 158.568C191.35 155.067 193.155 149.718 194.803 146.885C195.823 145.131 197.962 143.671 199.922 142.893C204.314 141.15 208.678 144.691 207.51 149.183Z" fill="black"/>
</svg>
