<svg width="320" height="320" viewBox="0 0 320 320" fill="none" xmlns="http://www.w3.org/2000/svg">
<path d="M208.9 54.2C239 37 265.4 39.9 261.4 36.6C258.7 34.4 227.9 36.5 207.6 47.5C192.5 55.7 181.4 67.5 175 77.4C168.8 87.3 165.2 97 163.1 104.2C162.4 104.1 161.6 104 160.7 104H160.4C159.2 104 158.2 104.2 157.3 104.5C155.2 97.2 151.6 87.5 145.4 77.5C139.2 67.6 128.1 55.8 112.8 47.6C92.5 36.6 61.8 34.6 59 36.7C55 40 81.4 37.2 111.5 54.4C123.7 61.3 131.6 69.2 138.6 79.9C148 94.1 150.5 104.5 151 110.6C150 113 149.6 115.7 149.8 118C149.8 118 142.4 119.2 137.3 128.6C136 131 135.3 133.4 135 135.5C132.1 130.7 129.1 124.9 127.5 119.7C126.7 117.2 124.6 115.4 122.1 115.2C121.5 115.1 109.4 115.3 94.4 98.7C92.2 96 88 92 87.5 95.4C86 105.4 100 120.4 117.3 125.1C122.1 137.8 131.2 152.1 132.2 153.6C131 157.8 129.7 163 128.5 169.2C123.8 165.9 118.7 162 115.8 159.4C114.2 157.9 111.9 157.4 109.8 158C107.7 158.6 106.1 160.3 105.4 162.4C105.3 162.7 94.5 199.6 67.4 218.8C64.5 220.9 60.4 224.2 63.8 224.8C73.2 226.3 90.1 215.9 95.8 208.4C105.3 195.9 111.3 183 114.5 174.7C118.5 177.7 122.9 180.9 126.4 183.2C125.7 189.7 125.4 196.7 125.5 204.3C125.5 206.7 125.6 209.3 125.8 211.7C120.4 214.4 111.6 218.6 107.2 220.2C104.1 221.4 102.5 224.7 103.4 227.9C103.5 228.4 117.4 276.7 105.6 300.7C104.1 303.8 102.3 310.4 105.5 309.2C112.8 306.5 121.4 289.6 121.4 272C121.4 254.5 119.1 238.3 117 229.8C120.2 228.3 123.9 226.6 127.2 225.1C131.6 253.5 143.5 279.5 159.4 291.9C159.5 292 160 292.2 160.4 292.2C160.8 292.2 161.3 292 161.4 291.9C177.2 279.5 189.1 253.7 193.5 225.4C196.6 226.9 200 228.5 203 229.9C200.9 238.4 198.6 254.6 198.6 272.1C198.6 289.6 207.3 306.5 214.5 309.3C217.7 310.6 216 304 214.4 300.8C202.6 276.8 216.4 228.4 216.6 228C217.5 224.9 215.9 221.5 212.8 220.3C208.6 218.7 200.4 214.8 194.9 212.1C195.1 209.6 195.2 206.9 195.2 204.4C195.3 196.4 195 189 194.2 182.4C197.7 180.2 202 177.2 206.1 174.4C209.1 182.8 214.6 196 223.6 208.7C229 216.4 245.6 227.4 255.1 226.1C258.6 225.6 254.5 222.2 251.8 220C225.3 199.9 215.7 162.7 215.7 162.3C215.1 160.2 213.6 158.5 211.5 157.8C209.4 157.1 207.1 157.6 205.5 159C202.5 161.5 197.2 165.2 192.3 168.5C191.1 162.2 189.8 156.8 188.5 152.8C190.7 149.3 198.5 136.5 202.9 125.1C220.2 120.4 234.3 105.4 232.7 95.4C232.1 91.9 228.1 95.9 225.8 98.5C210.8 115 198.7 114.9 198.1 115C195.6 115.2 193.4 117 192.7 119.5C191.2 124.5 188.4 129.8 185.8 134.4C185.5 132.6 184.8 130.5 183.7 128.4C178.6 118.9 171.2 117.8 171.2 117.8C171.4 115 170.9 111.8 169.4 109.1C170.1 102.9 172.9 92.9 181.6 79.7C188.8 69.1 196.6 61.2 208.9 54.2V54.2ZM181.5 152.5C181.5 152.5 178.3 156.1 172.5 158.8C159.5 165 167.4 248.1 160.3 279.7H159.5C152.3 248.2 159.8 164.6 147.3 158.8C141.5 156.1 138.3 152.5 138.3 152.5C138.3 152.5 148 156.7 160 156.7C170 156.6 181.5 152.5 181.5 152.5V152.5Z" fill="black"/>
</svg>
