<svg width="320" height="320" viewBox="0 0 320 320" fill="none" xmlns="http://www.w3.org/2000/svg">
<path d="M274.6 118.4C277.3 115.5 289.7 101.9 289 82.4999C288.6 72.4999 284.5 53.5999 271.8 49.3999C263.9 46.7999 254.3 50.2999 248.8 53.6999C243.4 56.9999 241.5 60.6999 234.4 63.7999C229.8 65.7999 225.6 66.3999 222.9 66.6999C219.9 64.7999 215.5 62.0999 210 59.4999C184.6 47.3999 161.7 47.7999 156.8 47.9999C152.6 48.0999 131.3 49.0999 107.9 60.8999C103.7 62.9999 100.3 65.0999 97.8001 66.5999C95.9001 66.4999 92.8001 66.1999 89.2001 65.1999C78.6001 62.1999 75.8001 56.2999 66.2001 52.2999C61.2001 50.1999 55.0001 47.4999 49.0001 49.3999C35.7001 53.5999 33.4001 76.8999 33.2001 79.5999C31.2001 102.2 45.8001 118 47.6001 119.8C50.8001 123.1 53.9001 125.4 56.2001 127C52.8001 135.7 49.4001 146.9 47.6001 160.1C44.7001 180.8 46.6001 198.3 49.0001 210.4C51.2001 221.6 58.8001 235.6 72.0001 243.5C79.2001 247.8 86.4001 249.2 109.4 253.6C112.1 254.1 116.9 255.4 119.5 259.3C119.8 259.8 120.7 261.6 122.4 265C123.5 267.2 123.6 267.4 123.8 267.9C124.7 269.3 126.1 271.4 128.1 273.6C131 276.9 137 283.6 146.8 286.5C152 288 156.3 288 159.7 287.9C162.1 287.9 166.2 287.8 171.2 286.5C186.7 282.3 194.7 269.8 195.6 267.8C195.7 267.6 196.3 266.2 197.3 264.3C197.6 263.6 198 262.9 198.5 262C200 259.3 200.6 258.4 201.4 257.7C201.4 257.7 203.1 255.9 205.7 254.8C212.6 251.8 234.5 251.7 247.4 244.7C259.8 238 265.9 224.1 267.5 220.3C271.1 211.5 272.8 204.4 273.2 190.1C273.4 185.7 273.7 170.9 270.3 151.3C268.6 141.3 266.4 133 264.6 126.9C267.2 125.3 270.9 122.5 274.6 118.4V118.4ZM61.9001 201.8C60.4001 199.8 59.1001 196.8 59.0001 190.3C59.0001 186.5 59.4001 180.4 61.9001 173.1C63.5001 177.1 66.1001 182.3 70.5001 187.5C72.6001 190 77.1001 195.1 84.9001 199C90.6001 201.9 95.9001 202.9 99.3001 203.3V209C94.4001 210 86.8001 210.8 77.7001 209C72.4001 208 68.1001 206.3 64.8001 204.7C64.0001 204.1 62.9001 203.1 61.9001 201.8V201.8ZM107.9 227.6C106.4 231.3 102.2 232.5 99.3001 233.3C93.7001 234.9 89.0001 233.9 86.4001 233.3C84.0001 232.8 80.2001 231.9 76.3001 229C72.2001 226 70.1001 222.4 69.1001 220.4C74.7001 221.8 82.0001 223.2 90.7001 223.3C97.3001 223.4 103.2 222.7 107.9 221.9C108.3 223.1 108.8 225.4 107.9 227.6V227.6ZM128 157.2C126.5 161.1 122.1 162.5 120.8 162.9C115.5 164.6 110.7 162.7 107.9 161.5C99.9001 158.2 94.2001 151.3 92.1001 144.3C91.3001 141.7 90.3001 138.2 92.1001 135.7C94.0001 133 98.1001 132.9 100.7 132.8C105.7 132.7 109.4 134.4 112.2 135.7C115.2 137.1 119.9 139.3 123.7 144.3C125.9 147.2 129.9 152.4 128 157.2ZM175.4 236.3C173.9 237.7 172 239.1 168.2 242C165.9 243.7 164.4 244.5 162.5 244.9C160.7 245.3 159.2 245 158.2 244.9C157.2 244.7 154.8 244.3 151 242C148.4 240.4 146.7 238.9 143.8 236.3C137.8 230.8 137 228.7 136.6 227.7C136.2 226.5 135.4 224.1 136.6 222C137.8 219.9 140.2 219.3 140.9 219.1C143.5 218.5 145.5 219.2 152.4 222C155.6 223.3 158.2 224.3 159.6 224.9C161.4 224 171.9 219 178.3 219.2C181.2 219.3 182.3 220.3 182.6 220.6C184.1 222.1 184 224.3 184 224.9C184.1 228.1 181.2 230.8 175.4 236.3V236.3ZM199.1 163C197.9 162.6 193.6 161.1 192.1 157.3C190.3 152.5 194.2 147.2 196.3 144.4C200 139.4 204.6 137.2 207.5 135.8C210.2 134.5 213.8 132.8 218.7 132.9C221.3 133 225.2 133.1 227.1 135.8C228.8 138.3 227.9 141.8 227.1 144.4C225 151.5 219.5 158.3 211.8 161.6C208.8 162.7 204.2 164.7 199.1 163V163ZM242.3 230.5C238.5 233.4 234.9 234.3 232.5 234.8C229.9 235.4 225.3 236.4 219.9 234.8C217 233.9 213 232.7 211.5 229.1C210.6 226.8 211.1 224.6 211.5 223.4C216.1 224.3 221.8 224.9 228.2 224.8C236.6 224.7 243.7 223.4 249.1 221.9C248.3 223.9 246.3 227.5 242.3 230.5V230.5ZM256.3 203.2C255.3 204.6 254.3 205.5 253.5 206.1C250.3 207.7 246 209.4 240.9 210.4C232.2 212.2 224.7 211.4 220 210.4C220 208.5 220 206.6 220 204.7C223.3 204.3 228.4 203.3 234 200.4C241.5 196.5 245.9 191.4 248 188.9C252.3 183.7 254.9 178.5 256.4 174.5C258.8 181.8 259.2 187.9 259.2 191.7C259 198.2 257.7 201.2 256.3 203.2Z" fill="black"/>
</svg>
