<svg width="320" height="320" viewBox="0 0 320 320" fill="none" xmlns="http://www.w3.org/2000/svg">
<path d="M255.5 38.7C246.9 37.3 236 23 209.5 23C181.1 23 172.3 37.3 163.8 38.7C147 41.4 127.9 60 130.1 86.1C134.9 141.5 184.2 153.7 193.3 178.2C207.8 217.1 206.5 253.8 164 269.4C121.5 285 84.4 266.9 79.9 252.1C76.4 240.9 86.5 231.1 101.4 230.4C119.3 229.7 142.9 244.9 161.8 241.3C180.7 237.6 187.6 215.8 177.5 195.6C167.4 175.3 145.8 172.6 126.2 172.7C107.2 172.8 89 187.2 69.5 187.6C56.5 187.9 46.3 175 58 161C69.6 146.9 102.3 152.5 110.3 156C110.3 156 105.6 145.1 84.5 141.8C63.4 138.6 44.5 148.7 38.4 166.2C32.2 183.6 42.1 195.1 55.7 201C80.7 211.9 118.4 185.7 141.2 194.8C164.1 203.9 154.9 217.9 142.9 215.1C130.9 212.3 96.8 202.9 70.3 218.6C43.8 234.3 43 262 52.4 275.3C61.8 288.6 92.4 310 153.4 306.4C214.4 302.8 233.8 279.3 239.7 254.5C245.3 230.5 238.1 192.1 238.2 178.6C238.5 150.6 285 141.5 289.8 86.1C292.2 60 272.8 41.4 255.5 38.7V38.7ZM183.4 70.3C182 68.5 180.8 61.7 186.4 63C192 64.4 195.7 71.4 195.7 71.4C190.4 74.8 184.8 72.2 183.4 70.3V70.3ZM239.5 70.3C238.1 72.1 232.5 74.8 227.2 71.5C227.2 71.5 231 64.5 236.5 63.1C242 61.7 240.9 68.5 239.5 70.3Z" fill="black"/>
</svg>
