<svg width="320" height="320" viewBox="0 0 320 320" fill="none" xmlns="http://www.w3.org/2000/svg">
<path d="M165.895 47.7C184.588 49.458 203.024 52.328 221.22 56.953C228.651 58.842 233.964 62.777 237.446 69.476C249.577 92.815 261.52 116.199 267.961 141.97C272.507 160.159 276.736 178.325 276.896 197.225C276.972 206.218 274.744 214.414 270.981 222.53C257.043 252.584 231.702 267.795 201.294 276.113C166.023 285.761 131.455 283.122 97.74 268.848C74.376 258.956 57.7 242.466 47.233 219.373C41.666 207.091 42.362 194.37 43.837 181.657C48.407 142.246 62.342 105.956 81.2 71.33C85.402 63.615 91.006 58.591 99.867 56.516C119.297 51.967 138.893 48.87 158.802 47.718C161.159 47.582 163.53 47.7 165.895 47.7V47.7ZM84.426 229.596C83.937 243.992 88.481 251.999 100.052 257.44C106.667 260.551 113.577 263.162 120.56 265.342C154.489 275.935 187.394 272.428 219.414 257.694C231.187 252.276 236.21 243.083 235.37 230.312C234.63 219.056 232.077 208.371 226.661 198.373C223.724 192.951 224.345 191.112 229.26 187.693C231.202 186.342 233.318 185.241 235.25 183.877C251.64 172.304 252.668 145.427 237.186 133.894C222.471 122.932 204.517 124.568 192.615 138.571C189.032 142.786 186.393 148.061 184.335 153.252C181.185 161.199 179.036 162.702 170.678 162.135C163.631 161.656 156.499 161.583 149.458 162.087C140.594 162.722 138.274 161.556 135.477 152.876C132.361 143.207 126.345 135.947 117.712 130.631C102.156 121.052 76.25 130.63 72.479 150.155C69.617 164.973 74.449 177.58 87.793 185.959C96.096 191.172 96.378 191.985 91.98 200.568C87.022 210.245 84.916 220.6 84.426 229.596V229.596Z" fill="black"/>
<path d="M35.221 183.207C29.573 184.042 25.973 182.371 23.252 179.201C20.652 176.172 18.324 172.851 16.277 169.42C12.886 163.737 9.94303 157.788 6.58303 152.086C1.47503 143.417 1.06603 134.976 6.00003 125.909C13.91 111.376 21.093 96.45 28.9 81.86C39.013 62.96 56.036 55.29 78.525 59.59C56.104 98.044 40.228 138.66 35.221 183.207V183.207Z" fill="black"/>
<path d="M241.228 59.765C262.317 54.944 280.414 62.704 290.445 81.085C298.823 96.438 306.52 112.163 314.58 127.691C318.085 134.443 318.697 141.282 315.086 148.084C310.431 156.852 305.595 165.527 300.64 174.128C299.364 176.342 297.509 178.301 295.634 180.073C292.518 183.019 290.599 183.415 284.553 182.86C279.433 138.821 263.845 98.103 241.228 59.765V59.765Z" fill="black"/>
<path d="M217.595 139.38C228.204 139.227 236.705 147.397 236.899 157.932C237.099 168.74 228.462 177.633 217.819 177.578C207.579 177.525 198.718 168.71 198.664 158.522C198.608 148.174 207.157 139.53 217.595 139.38V139.38Z" fill="black"/>
<path d="M102.114 139.381C112.558 139.504 121.118 148.108 121.101 158.466C121.084 168.648 112.251 177.488 102.002 177.579C91.368 177.673 82.691 168.79 82.865 157.988C83.036 147.436 91.498 139.255 102.114 139.381V139.381Z" fill="black"/>
<path d="M160.147 172.45C165.474 172.45 170.004 173.326 174.514 175.14C182.317 178.277 183.929 184.899 179.132 191.718C178.861 192.103 178.586 192.49 178.271 192.839C165.009 207.55 154.01 207.732 140.857 191.861C135.35 185.217 137.47 178.06 145.654 174.94C150.201 173.206 154.82 172.45 160.147 172.45V172.45Z" fill="black"/>
</svg>
