<svg width="320" height="320" viewBox="0 0 320 320" fill="none" xmlns="http://www.w3.org/2000/svg">
<path d="M273.6 125.1C266.3 112.7 256.9 100.5 246.2 89.5C260.8 85 269.1 67.8 265.3 52.2C261.5 36.6 247.5 16.7 224.3 25.8C201.1 34.9 210.2 59.7 202.6 56.1C188.1 48.2 173.6 43.5 160.8 43.5H159C146.1 43.5 131.6 48.2 117.2 56.1C109.7 59.6 118.9 34.9 95.5001 25.8C72.1001 16.7 58.3001 36.8 54.5001 52.3C50.7001 67.8 59.1001 85.1 73.6001 89.6C62.9001 100.6 53.3001 112.6 46.2001 125.2C21.4001 167.9 1.70005 228 46.2001 270.8C88.4001 311.6 128.9 318.7 159.1 318.7H160.9C191.1 318.7 231.6 311.6 273.8 270.8C318.1 227.9 298.4 167.8 273.6 125.1V125.1ZM110.3 189.4C81.3001 189.4 92.2001 147.6 116.4 150.2C130.9 151.7 139.3 189.4 110.3 189.4ZM194 231.9C192.9 234.6 131.7 234.6 130.6 231.9C129.5 229.2 137.6 228.8 148.9 228.8C160.2 228.8 162 211.7 159.1 211.7C156.2 211.7 152.9 207.8 149.7 203.5C146.5 199.2 134.5 200 140.3 194.2C143.1 191.4 152.7 196.5 162.2 196.5C171.7 196.5 181.3 191.3 184.1 194.2C189.8 200 177.9 199.2 174.7 203.5C171.5 207.8 168.2 211.7 165.3 211.7C162.4 211.7 164.2 228.8 175.5 228.8C187 228.8 195.1 229.2 194 231.9V231.9ZM209.5 189.4C180.6 189.4 189 151.7 203.4 150.2C227.6 147.6 238.4 189.4 209.5 189.4Z" fill="black"/>
</svg>
