<svg width="320" height="320" viewBox="0 0 320 320" fill="none" xmlns="http://www.w3.org/2000/svg">
<path d="M139.445 181.097C138.37 179.892 129.425 192.49 124.41 196.492C115.241 203.808 110.651 213.191 106.934 224.207C100.808 242.368 94.466 260.335 91.271 279.324C90.1 286.283 87.71 293.964 83.332 300.262C83.216 298.329 83.122 266.91 83.301 253.527C83.353 249.632 83.922 245.6 85.077 241.888C88.839 229.803 93.114 217.878 96.913 205.804C98.372 201.166 100.645 197.333 104.213 194.03C109.789 188.868 115.153 183.475 120.53 178.103C121.712 176.922 122.575 175.421 123.587 174.064C122.718 173.429 122.455 173.071 122.215 173.087C110.683 173.816 99.154 174.585 87.624 175.333C84.198 175.555 81.44 177.145 78.958 179.386C70.631 186.904 62.385 194.516 53.896 201.846C51.096 204.264 50.751 207.359 49.969 210.482C47.422 220.647 44.966 230.837 42.185 240.938C41.175 244.609 39.999 248.42 36.039 252.461C36.039 248.941 35.941 246.963 36.055 244.997C36.812 231.997 37.839 219.007 38.28 205.997C38.437 201.365 39.43 197.495 42.643 194.199C52.493 184.091 62.335 173.975 72.172 163.854C74.805 161.145 77.945 159.845 81.745 159.372C91.433 158.165 101.083 156.648 110.729 155.13C112.343 154.876 113.859 153.996 116.678 152.93C113.369 150.991 111.376 149.554 109.178 148.582C100.583 144.778 91.97 141.006 83.269 137.457C78.718 135.601 75.261 132.848 72.866 128.488C66.596 117.072 60.175 105.738 53.746 94.411C51.095 89.741 51 85.214 52.265 79.882C55.35 66.879 60.751 38.303 60.935 34.778C65.876 45.053 66.501 58.235 64.928 69.17C63.328 80.291 65.182 89.575 72.534 98.249C76.936 103.442 80.146 109.682 83.627 115.606C85.97 119.595 89.175 121.879 93.575 123.343C105.913 127.447 118.112 131.97 130.584 136.406C132.286 134.787 130.456 133.417 129.476 132.181C121.388 121.976 113.489 111.6 104.961 101.773C100.657 96.813 98.355 91.842 98.574 85.196C98.943 73.988 98.643 62.758 98.639 51.537C98.638 48.22 99.162 45.161 101.649 42.568C112.652 31.097 123.557 19.533 135.33 7.12598C133.626 19.43 123.388 33.912 116.08 43.382C112.696 47.767 111.75 52.016 112.496 57.446C113.577 65.313 113.858 73.305 114.173 81.256C114.354 85.823 115.616 89.58 118.926 92.92C128.08 102.156 137.006 111.617 146.481 121.465C153.333 114.763 158.083 121.597 160 121.597C161.917 121.597 167.5 114.514 172.946 122.064C182.369 112.245 191.007 103.002 199.94 94.054C203.469 90.519 205.398 86.792 205.57 81.703C205.864 73.029 206.546 64.353 207.483 55.724C207.989 51.068 206.852 47.41 204.002 43.706C196.922 34.506 183.875 15.431 185.811 7.53598C188.1 10.227 190.359 12.944 192.686 15.602C195.07 18.325 197.471 21.037 199.954 23.669C205.167 29.196 210.203 34.924 215.77 40.074C219.544 43.566 221.305 47.429 221.245 52.435C221.098 64.739 220.985 77.043 221 89.348C221.005 93.649 219.014 96.788 216.379 99.955C208.049 109.965 199.913 120.137 191.766 130.298C190.486 131.894 189.543 133.761 188.486 135.436C190.378 137.056 191.709 135.974 192.968 135.518C203.497 131.701 213.916 127.557 224.546 124.052C229.998 122.254 234.052 119.521 237.037 114.502C242.027 106.111 247.377 97.916 252.944 89.894C255.201 86.643 255.621 83.432 255.523 79.699C255.239 68.852 254.713 44.231 258.407 34.264C259.912 42.855 261.166 50.026 262.674 57.627C264.151 65.071 265.624 72.542 267.687 79.835C269.292 85.509 268.482 90.448 265.63 95.417C259.327 106.399 253.078 117.415 246.992 128.518C244.594 132.894 241.157 135.617 236.59 137.47C227.548 141.14 218.615 145.085 209.683 149.019C207.798 149.849 206.108 151.123 203.093 152.933C205.917 153.994 207.43 154.861 209.04 155.118C218.326 156.598 227.606 158.191 236.947 159.206C241.549 159.706 245.255 161.252 248.417 164.505C257.75 174.108 267.136 183.659 276.46 193.271C279.272 196.17 281.203 199.32 281.379 203.73C282.028 219.95 283.06 236.154 283.999 253.286C282.741 251.534 281.598 250.388 280.975 249.007C275.739 237.391 272.355 225.18 270.44 212.639C269.56 206.879 267.242 202.72 262.715 199.038C255.706 193.338 249.149 187.066 242.595 180.832C239.029 177.439 235.189 175.387 230.146 175.12C219.678 174.565 209.232 173.614 198.773 172.879C198.129 172.834 197.453 173.248 196.084 173.663C197.208 175.237 198.027 176.785 199.209 177.971C204.319 183.097 209.442 188.218 214.742 193.145C218.807 196.924 221.604 201.132 223.221 206.638C226.68 218.423 230.886 229.992 234.923 241.602C236.616 246.469 236.883 251.254 236.647 256.454C236.09 268.716 235.248 290.43 235.654 300.876C231.499 293.805 226.593 272.043 224.469 259.167C223.829 255.289 222.731 251.446 221.442 247.725C217.655 236.795 213.536 225.978 209.834 215.02C208.661 211.547 207.635 208.221 204.912 205.557C197.93 198.727 191.117 191.723 184.094 184.936C183.277 184.146 180.814 180.672 179.998 181.167C176.998 184.334 181.307 194.599 182.883 197.818C185.108 202.362 187.934 206.621 190.026 211.219C198.274 229.351 195.924 246.432 184.379 262.407C182.906 264.444 181.159 266.34 179.29 268.025C167.29 278.841 151.719 279.127 140.207 267.845C126.187 254.105 121.121 237.33 126.887 218.204C128.637 212.399 132.118 207.128 134.667 201.548C136.911 196.637 142.333 184.333 139.445 181.097V181.097Z" fill="black"/>
</svg>
