<svg width="320" height="320" viewBox="0 0 320 320" fill="none" xmlns="http://www.w3.org/2000/svg">
<path d="M120.6 130.8C115.8 127.7 112.3 125.5 107 124.8C104.6 124.5 101.5 124.1 97.9 125.6C93 127.6 90.8 131.6 90.3 132.4C87.9 136.8 88.6 141 88.8 142.2C89 144.3 90 150.3 94.8 155.8C96.2 157.3 100.5 161.8 107.6 163.4C109.7 163.9 114.7 164.9 120.4 162.6C124.7 160.9 127.3 158.1 128 157.3C129 156.1 130.9 153.9 131.8 150.5C132 149.8 133 145.4 131 140.7C129.5 136.6 126.5 134.7 120.6 130.8V130.8Z" fill="black"/>
<path d="M157.7 182.2C155.8 180.3 153 180.6 152.4 180.7C150.1 181 148.6 182.3 147.9 183C146.1 184.6 145.5 186.5 144.9 188.3C144.1 190.7 143.4 192.7 144.1 195.1C144.3 195.7 145.1 198.5 147.9 199.6C150 200.4 151.9 199.8 152.4 199.6C154.8 198.7 156 196.7 156.9 195.1C157.7 193.7 158.1 192.5 158.4 191.3C158.9 189.7 159.2 188.4 159.2 186.8C159.1 185.4 159 183.6 157.7 182.2V182.2Z" fill="black"/>
<path d="M226.6 125.5C223 124.1 219.9 124.4 217.5 124.7C212.2 125.4 208.6 127.6 203.9 130.7C198 134.5 195 136.5 193.3 140.5C191.3 145.2 192.4 149.7 192.5 150.3C193.4 153.7 195.2 155.9 196.3 157.1C197 157.9 199.5 160.7 203.9 162.4C209.6 164.7 214.7 163.6 216.8 163.2C224 161.6 228.3 157.2 229.7 155.6C234.6 150.1 235.5 144.1 235.8 142C236 140.8 236.7 136.6 234.3 132.2C233.8 131.5 231.5 127.5 226.6 125.5V125.5Z" fill="black"/>
<path d="M175.8 183C175.1 182.3 173.6 181 171.3 180.7C170.7 180.6 167.9 180.3 166 182.2C164.7 183.6 164.6 185.4 164.5 186.7C164.4 188.4 164.8 189.6 165.3 191.2C165.6 192.3 166 193.6 166.8 195C167.7 196.6 168.9 198.7 171.3 199.5C171.8 199.7 173.7 200.3 175.8 199.5C178.5 198.4 179.4 195.6 179.6 195C180.3 192.6 179.6 190.6 178.8 188.2C178.3 186.5 177.6 184.6 175.8 183Z" fill="black"/>
<path d="M312 135.4C308.4 129.3 303.1 123.6 295.2 121C288.5 118.8 282.1 119.5 277.3 120.7C276.9 118.9 276.3 116.7 275.5 113.9C272 101.8 270.3 95.7999 266.5 86.8999C264.3 81.5999 258.6 68.1999 254.5 61.8999C252.3 57.8999 249.5 53.4999 246 49.2999C222.2 20.6999 180.4 19.4999 165.1 19.0999C148.5 18.5999 108.6 17.4999 82.7 43.9999C73.6 53.3999 68 64.3999 63.8 72.6999C54.4 91.3999 50.5 108.5 48.7 120.3C45.1 119.7 32.7 118.1 20.7 125.6C12.5 130.7 8.20004 137.6 6.30004 141.5C3.90004 146.4 2.70004 151.4 2.30004 156.3C4.11868e-05 170.3 3.40004 186.2 9.60004 197.8C19.5 216.3 39.4 229.3 57.8 230.5C58 230.5 58.2 230.6 58.4 230.6C69.5 244.6 80.8 254.4 89.4 260.8C97.3 266.7 109.3 275.6 127.2 282C135.1 284.8 145.8 288.5 160.5 288.8C163.5 288.9 176.7 288.9 193 283.5C210.4 277.7 221.5 268.8 234.6 258.6C242.2 252.6 252.5 243.7 263.3 231.4C264.5 231.1 265.8 230.8 267.2 230.4C284.4 228.5 302.8 215.4 312 196.9C321.1 179.1 324 151.9 312 135.4V135.4ZM273.6 181.5C277.3 166.6 278.6 153.2 278.9 142.2C281.4 141.9 287.2 141.7 292.5 145.2C294.4 146.5 295.9 148 297.1 149.6C297.8 150.6 298.4 151.7 299 152.8C300.4 155.7 301.1 158.7 301.6 161C304.4 173.2 301 187.5 291.7 197.3C289.1 200 280.6 209 271.2 207.1C268.9 206.6 267.1 205.6 265.9 204.8C268.8 198.1 271.4 190.2 273.6 181.5V181.5ZM45.8 142.2C46.1 153.2 47.4 166.6 51.1 181.5C53.3 190.3 55.9 198.1 58.7 204.9C57.5 205.7 55.7 206.7 53.4 207.2C44 209 35.6 200.1 33 197.4C23.8 187.7 20.4 173.4 23.2 161.1C24.2 156.6 25.8 149.5 32.3 145.2C37.5 141.7 43.3 141.9 45.8 142.2V142.2ZM245.3 169.4C237.8 175.5 229.9 177.6 225.6 178.5C226.7 181.4 228 185.5 228.6 190.6C230.6 206.1 224.9 218.2 222.6 223.1C214.3 240.4 200.6 248.7 195.4 251.8C185.1 257.9 176.2 259.7 174.2 260.1C160.4 262.8 149.2 260.2 144 258.6C131.5 254.9 123.6 248.3 119.8 245C114.5 240.5 103.9 231.4 99.4 216.3C98.7 213.8 95 202.3 97.1 187.6C97.7 183.5 98.6 180.2 99.4 177.8C95.8 177.3 85 175.5 76 166.5C63.6 154.1 64.5 138 64.7 135.5C66.4 111.3 90.1 99.6999 92.7 98.4999C112.6 89.0999 131.9 97.0999 134.3 98.4999C136.5 99.7999 138.8 101.5 138.8 101.5C139.4 101.9 139.8 102.3 140.2 102.5C141.1 103.2 141.8 103.7 141.8 103.7C144.4 105.7 150.1 106.7 150.1 106.7C155.7 107.7 158.6 108.2 162.9 108.2C165 108.2 170 108.1 175.7 106.7C175.7 106.7 181.6 105.3 184.8 102.9C185.4 102.4 186.2 101.8 186.2 101.8C186.9 101.3 187.5 100.8 187.8 100.6C187.8 100.6 190.2 98.8999 193.1 97.5999C195.9 96.2999 216.5 89.7999 236.2 101.4C240 103.6 262.5 117.6 261.1 140.7C260.3 156.5 248.4 166.9 245.3 169.4V169.4Z" fill="black"/>
</svg>
