<svg width="320" height="320" viewBox="0 0 320 320" fill="none" xmlns="http://www.w3.org/2000/svg">
<path d="M281.9 170.8C283.5 168.3 284 164.1 280.9 161C277.8 157.9 248.5 129.8 234.7 117.2C227.2 110.4 236.7 106.9 231.6 101C228.4 97.3001 208.6 83.5001 197.4 73.8001C186.2 64.2001 171.5 62.9001 171.5 62.9001C180 57.9001 182.2 48.1001 182.4 35.7001C182.6 23.3001 180.2 12.3001 177.9 9.20005C175.6 6.10005 173.7 7.50005 171.9 10.3001C170.3 13.2001 152.9 43.2001 147.8 51.9001C142.7 60.6001 144.2 63.0001 144.2 63.0001C103.2 63.5001 48.5 107.9 47.3 169.6C46.8 197.1 54.8 220.9 69.1 240.3C69.8 241.3 70.5 242.3 71.3 243.3C71.4 243.4 71.5 243.5 71.5 243.7C72.5 244.9 73.5 246.2 74.5 247.3V247.4C122 303.6 206.8 312.7 206.8 312.7C220.3 240 172 171.7 172 171.7C188.4 183 199.7 182.1 211.4 182.4C223.1 182.6 228.8 179.9 231.5 182.9C234.2 185.9 232.6 188.6 234.2 192C235.8 195.4 241.5 204.2 250 205.5C258.5 206.9 263.7 204.1 271.6 197.3C279.6 190.6 282.7 184.6 282.8 180C283 175.7 280.4 173.3 281.9 170.8V170.8ZM204 118.4C202.5 115.8 201.3 112.7 201.9 109.9C202.4 107.5 205.4 107.3 209.2 108.9C215.5 111.4 218.5 111.8 219.3 115.5C220.8 123.5 208.2 126.2 204 118.4Z" fill="black"/>
<path d="M34.3 157.6C42.1 85.4 102.4 58.3 130.1 51.8L155.1 4.90002C135.2 6.80002 68.3 13.5 32.5 66.4C-24.7 151 9.49998 247.9 64.2 265.3C64.4 265.4 26.2 231.8 34.3 157.6V157.6Z" fill="black"/>
</svg>
