<svg width="320" height="320" viewBox="0 0 320 320" fill="none" xmlns="http://www.w3.org/2000/svg">
<path d="M292.5 61.9C290.2 53.6 270.5 52.3 253.1 66.8C242.7 75.5 229.1 77.5 225.1 67.1C221.2 57.1 234.7 58 243.9 53.1C250.4 49.6 255.3 44.8 255.3 35.2C255.3 33 254.2 23.2 248.5 24C243 24.7 245.8 31.9 226.3 35.8C217.5 37.5 189.8 33.5 161.3 33.5H159.9C131.5 33.5 103.7 37.5 94.9 35.8C75.3 31.9 78.2 24.8 72.7 24C67 23.2 65.9 33 65.9 35.2C65.9 44.9 70.9 49.7 77.3 53.1C86.4 58 100 57.1 96.1 67.1C92.1 77.5 78.5 75.5 68.1 66.8C50.7 52.3 31 53.6 28.7 61.9C24.4 77.4 31.9 109.3 50.3 117.7C68.1 125.9 74.4 115.4 80.3 121.6C87.2 128.7 82.6 132.1 88.4 168.9C94.5 208.1 106.2 214.3 106.2 222.8C106.2 231.3 100 248.5 100 262.9C100 277.3 117.7 277.1 117.7 277.1C117.7 277.1 124.6 297.2 159.4 297.2H162C196.8 297.2 203.7 277.1 203.7 277.1C203.7 277.1 221.4 277.3 221.4 262.9C221.4 248.5 215.2 231.3 215.2 222.8C215.2 214.3 226.9 208.2 233 168.9C238.8 132 234.2 128.6 241.1 121.6C247.1 115.4 253.3 126 271.1 117.7C287.5 110 296.7 77.4 292.5 61.9V61.9ZM100.3 135.5C106.5 123.8 119 133.5 124.8 146.1C129.9 157.2 126.2 160.5 118.2 161.8C106.9 163.6 91.2 152.9 100.3 135.5V135.5ZM190.7 267.5C188.1 275 178.3 281.9 161.8 281.9H160.5C140.8 281.9 134.1 275.4 131.5 267.8C128.9 260.3 109.1 244.9 121.8 233.9C134.5 222.9 140.1 233.9 160.2 233.9H160.6C180.8 233.9 186.4 222.9 199.1 233.9C211.7 245 193.3 260 190.7 267.5V267.5ZM202.8 161.8C194.8 160.5 191.1 157.2 196.2 146.1C202 133.5 214.5 123.8 220.7 135.5C229.8 152.9 214.1 163.6 202.8 161.8V161.8Z" fill="black"/>
</svg>
