<svg width="320" height="320" viewBox="0 0 320 320" fill="none" xmlns="http://www.w3.org/2000/svg">
<path fill-rule="evenodd" clip-rule="evenodd" d="M110.889 30H35.7782C32.5873 30 30 32.5861 30 35.7782V110.889C30 114.08 32.5873 116.667 35.7782 116.667H110.889C114.081 116.667 116.667 114.08 116.667 110.889V35.7782C116.667 32.5861 114.081 30 110.889 30ZM197.591 116.67H122.48C119.289 116.67 116.702 119.256 116.702 122.447V197.559C116.702 200.75 119.289 203.337 122.48 203.337H197.591C200.782 203.337 203.369 200.75 203.369 197.559V122.447C203.369 119.256 200.782 116.67 197.591 116.67ZM209.111 30H284.223C287.414 30 290 32.5861 290 35.7782V110.889C290 114.08 287.414 116.667 284.223 116.667H209.111C205.92 116.667 203.333 114.08 203.333 110.889V35.7782C203.333 32.5861 205.92 30 209.111 30ZM110.889 203.333H35.7782C32.5873 203.333 30 205.919 30 209.11V284.222C30 287.413 32.5873 290 35.7782 290H110.889C114.081 290 116.667 287.413 116.667 284.222V209.11C116.667 205.919 114.081 203.333 110.889 203.333ZM209.111 203.333H284.223C287.414 203.333 290 205.919 290 209.11V284.222C290 287.413 287.414 290 284.223 290H209.111C205.92 290 203.333 287.413 203.333 284.222V209.11C203.333 205.919 205.92 203.333 209.111 203.333Z" fill="black"/>
</svg>
