<svg width="42" height="42" viewBox="0 0 42 42" fill="none" xmlns="http://www.w3.org/2000/svg">
<path fill-rule="evenodd" clip-rule="evenodd" d="M17.6 12H12.4C12.1791 12 12 12.179 12 12.4V17.6C12 17.8209 12.1791 18.0001 12.4 18.0001H17.6C17.821 18.0001 18.0001 17.8209 18.0001 17.6V12.4C18.0001 12.179 17.821 12 17.6 12ZM23.6025 18.0002H18.4025C18.1816 18.0002 18.0025 18.1793 18.0025 18.4002V23.6003C18.0025 23.8212 18.1816 24.0003 18.4025 24.0003H23.6025C23.8234 24.0003 24.0025 23.8212 24.0025 23.6003V18.4002C24.0025 18.1793 23.8234 18.0002 23.6025 18.0002ZM24.4001 12H29.6001C29.8211 12 30.0001 12.179 30.0001 12.4V17.6C30.0001 17.8209 29.8211 18.0001 29.6001 18.0001H24.4001C24.1792 18.0001 24 17.8209 24 17.6V12.4C24 12.179 24.1792 12 24.4001 12ZM17.6 23.9999H12.4C12.1791 23.9999 12 24.179 12 24.3999V29.6C12 29.8209 12.1791 30 12.4 30H17.6C17.821 30 18.0001 29.8209 18.0001 29.6V24.3999C18.0001 24.179 17.821 23.9999 17.6 23.9999ZM24.4001 23.9999H29.6001C29.8211 23.9999 30.0001 24.179 30.0001 24.3999V29.6C30.0001 29.8209 29.8211 30 29.6001 30H24.4001C24.1792 30 24 29.8209 24 29.6V24.3999C24 24.179 24.1792 23.9999 24.4001 23.9999Z" fill="white"/>
</svg>
