<svg width="42" height="42" viewBox="0 0 42 42" fill="none" xmlns="http://www.w3.org/2000/svg">
<path fill-rule="evenodd" clip-rule="evenodd" d="M27.1914 13.0854L13.8897 18.007C12.6926 18.4725 12.6926 20.1352 13.9562 20.5343L17.5477 21.7314C18.2128 21.931 18.9443 21.7979 19.5429 21.3989L25.7282 16.3443L20.6736 22.5295C20.208 23.0616 20.075 23.7932 20.341 24.5248L21.5382 28.1162C21.9372 29.3134 23.6664 29.3799 24.0655 28.1827L28.9206 14.9476C29.3196 13.7504 28.2555 12.6863 27.1914 13.0854ZM15.6854 22.8621C15.9515 23.1281 15.9515 23.4606 15.6854 23.7267L14.8208 24.5913C14.5548 24.8573 14.2222 24.8573 13.9562 24.5913C13.6902 24.3253 13.6902 23.9927 13.9562 23.7267L14.8208 22.8621C15.0869 22.596 15.4194 22.596 15.6854 22.8621ZM17.4146 23.7267C17.6807 23.4607 18.0132 23.4607 18.2792 23.7267C18.4788 23.9927 18.4788 24.3918 18.2127 24.6578L15.6854 27.1851C15.4194 27.4512 15.0868 27.4512 14.8208 27.1851C14.5548 26.9191 14.5548 26.5865 14.8208 26.3205L17.4146 23.7267ZM17.4147 27.1851L18.2793 26.3205C18.4788 26.0545 18.8778 26.0545 19.1439 26.3205C19.4099 26.5865 19.4099 26.9191 19.1439 27.1851L18.2793 28.0497C18.0132 28.3158 17.6807 28.3158 17.4147 28.0497C17.1486 27.7837 17.1486 27.4511 17.4147 27.1851Z" fill="#47A9F1"/>
</svg>
