<svg width="42" height="42" viewBox="0 0 42 42" fill="none" xmlns="http://www.w3.org/2000/svg">
<path fill-rule="evenodd" clip-rule="evenodd" d="M20.0063 22.3844C20.6015 22.8806 20.9772 23.3805 21.1951 23.9239L21.21 23.9619L21.2296 24.0136L21.2483 24.065L21.2659 24.1159L21.2827 24.1667L21.2947 24.2047L21.3062 24.2427L21.3207 24.2936L21.3242 24.3063L21.3277 24.3191L21.341 24.3704L21.3473 24.3962L21.3595 24.4482L21.3708 24.5009L21.3814 24.5544L21.3914 24.6089L21.3937 24.6227L21.396 24.6365L21.4049 24.6926L21.4132 24.75L21.4208 24.8088L21.4278 24.8692L21.4342 24.9312L21.4401 24.995L21.4454 25.0608L21.4467 25.0776L21.4479 25.0945L21.4525 25.1634L21.4566 25.2347L21.4603 25.3083L21.4636 25.3846L21.4678 25.504L21.4702 25.5872L21.4731 25.7177L21.4753 25.8554L21.4775 26.0479L21.4804 26.2682L21.4826 26.3896L21.4863 26.5406L21.4885 26.6118L21.4909 26.6804L21.4952 26.7791L21.4984 26.8422L21.5039 26.9335L21.508 26.9924L21.5126 27.05L21.5175 27.1065L21.5228 27.162L21.5287 27.2169L21.5349 27.2712L21.5417 27.3253L21.549 27.3792L21.5568 27.4333L21.5652 27.4877L21.5789 27.5703L21.5888 27.6264C21.7028 28.2606 21.9238 28.8426 22.2924 29.4175C22.5617 29.8375 23.073 30.2321 23.8291 30.6088L23.8757 30.6319L23.962 30.6737L23.9839 30.6841L24.006 30.6945L24.0953 30.7361C24.1354 30.7545 24.1762 30.7729 24.2175 30.7913L24.28 30.8188L24.3754 30.8599L24.4729 30.9009L24.5724 30.9418L24.6739 30.9826L24.7254 31.0029L24.7774 31.0232L24.883 31.0637L24.9905 31.1041L25.1002 31.1443L25.1705 31.1697C23.4764 31.7232 21.8518 32 20.2966 32C18.5245 32 17.0446 31.5521 15.8572 30.6562C13.1516 31.3132 11.5425 31.4018 11.0299 30.922C10.5174 30.4422 11.2691 29.7458 13.2851 28.8327C11.3578 25.8247 10.2907 23.6868 10.0837 22.419C9.99847 21.8967 9.98132 21.3521 10.0187 20.8153L10.0851 20.8106C15.0314 20.4625 18.3432 20.998 20.0063 22.3844ZM27.7784 9.23917C28.3653 9.61144 28.3653 10.7618 27.7784 12.6901C30.172 14.9212 31.5522 17.4174 31.9191 20.1787C32.286 22.94 31.4049 25.9492 29.2759 29.2063C30.7983 30.3501 31.3743 31.0117 31.0037 31.1911C30.6578 31.3586 29.1469 31.2915 26.4712 30.9899L26.4767 30.9708L26.3544 30.934L26.2341 30.8971L26.1158 30.8601L25.9994 30.823L25.885 30.7859L25.7725 30.7488L25.6621 30.7116L25.6348 30.7023L25.6076 30.693L25.5001 30.6557L25.4735 30.6464L25.4471 30.637L25.291 30.581L25.2654 30.5717L25.2399 30.5623L25.1393 30.5249L25.0407 30.4874L25.0164 30.478L24.9922 30.4687L24.8965 30.4312L24.8729 30.4218L24.8494 30.4124L24.7567 30.3748L24.666 30.3372L24.5773 30.2996L24.5554 30.2902L24.5337 30.2808L24.4479 30.2431L24.3641 30.2054L24.3435 30.196L24.323 30.1866L24.2422 30.1489L24.1634 30.1111L24.0866 30.0734L24.0677 30.064L24.0489 30.0545L23.9751 30.0168C23.9346 29.9958 23.895 29.9748 23.8564 29.9538L23.7991 29.9224L23.7323 29.8846C23.2711 29.6202 22.9562 29.3559 22.789 29.0952C22.4639 28.5881 22.2709 28.0797 22.1703 27.5205L22.168 27.5074L22.1657 27.4944L22.1568 27.4428L22.1486 27.3918L22.1408 27.3411L22.1301 27.2653L22.1237 27.2146L22.1176 27.1636L22.1121 27.112L22.1069 27.0597L22.1 26.9792L22.0959 26.9241L22.0903 26.8384L22.0871 26.7791L22.0841 26.7178L22.0815 26.6542L22.077 26.5197L22.0734 26.3737L22.0706 26.2148L22.0662 25.8422L22.0638 25.6969L22.0607 25.5588L22.0581 25.4706L22.0536 25.3435L22.05 25.2621L22.046 25.1833L22.0415 25.1068L22.0364 25.0326L22.0308 24.9605L22.0293 24.9428L22.0278 24.9252L22.0213 24.856L22.0143 24.7885L22.0065 24.7227L22.0045 24.7065L22.0024 24.6904L21.9937 24.6267L21.9842 24.5643L21.974 24.503L21.9713 24.4879L21.9686 24.4728L21.9572 24.4129L21.9482 24.3686L21.9387 24.3246L21.9252 24.2665L21.9108 24.2088C21.8993 24.1641 21.887 24.1197 21.8738 24.0752L21.8533 24.0084L21.8346 23.951L21.8149 23.8933L21.7941 23.835L21.7723 23.7762L21.7609 23.7466C21.5077 23.0907 21.0676 22.4969 20.3834 21.9265C18.5782 20.4216 15.1495 19.8618 10.0834 20.2146C10.2659 18.9576 10.73 17.8087 11.2911 17.1739C13.2851 14.9183 20.2584 15.4775 23.0709 16.591C25.8833 17.7045 23.6793 22.9409 26.9588 22.9409C29.1452 22.9409 28.9792 20.0451 26.4608 14.2535C25.7 14.764 25.1325 15.0742 24.7582 15.1842C23.6871 15.499 22.7075 15.3154 22.4706 14.9183C22.1916 14.4504 22.8105 13.2234 24.4113 12.5258C24.7248 12.3893 25.2901 12.3893 26.1072 12.5258C25.8667 11.6566 25.7921 11.0687 25.8833 10.7621C26.2888 9.39945 27.3396 8.96084 27.7784 9.23917ZM21.3625 18.4356C21.036 18.4356 20.7714 18.7018 20.7714 19.0302V19.9965C20.7714 20.3249 21.036 20.5911 21.3625 20.5911C21.6889 20.5911 21.9535 20.3249 21.9535 19.9965V19.0302C21.9535 18.7018 21.6889 18.4356 21.3625 18.4356ZM19.4338 9.00799C21.3471 9.10401 21.5609 13.1396 20.075 13.1396C18.5891 13.1396 19.4338 11.2655 18.5471 11.2655C18.1125 11.2655 18.015 12.0743 17.9172 12.8993L17.9052 13.0003C17.8069 13.8253 17.6947 14.6341 17.2314 14.6341C16.286 14.6341 16.7643 11.4118 16.1271 11.4118C15.4899 11.4118 15.561 13.1396 14.2623 13.1396C12.9636 13.1396 13.0298 9.00799 15.1583 9.00799C16.7891 9.00799 16.3618 9.7132 17.3886 9.7132C17.7993 9.7132 17.9026 9.585 18.0011 9.43731L18.0158 9.41502C18.1591 9.19844 18.3241 8.9523 19.4338 9.00799Z" fill="white"/>
</svg>
