<svg width="143" height="102" viewBox="0 0 143 102" fill="none" xmlns="http://www.w3.org/2000/svg">
<g filter="url(#filter0_di_27493_32565)">
<path d="M100.617 22.1238C100.323 22.1238 93.6829 22.4179 85.4331 24.3991C74.2578 27.0304 65.8842 31.3952 60.7454 37.3079C59.6155 38.6235 58.532 39.8773 57.5724 41.0691C55.5448 41.6108 49.9262 43.1586 47.3413 43.6384C45.84 43.9325 44.5862 44.7683 43.6885 46.0376C41.8311 48.7308 38.6117 54.2255 38.4878 54.4731L34.7886 60.8037L41.537 57.8783C44.4624 56.5627 48.5951 55.665 49.7869 56.3769C49.8488 56.4389 49.9107 56.4389 49.9726 56.7949C49.9726 58.7141 50.4525 60.556 51.3502 62.4134C49.4928 63.8529 48.4867 66.1127 48.5951 68.4499V76.6997H56.8449C59.1821 76.8236 61.3955 75.7401 62.8814 73.9446C64.7388 74.8424 66.5807 75.2603 68.5 75.3222C68.794 75.3841 68.856 75.446 68.856 75.5079C69.568 76.6997 68.6702 80.8324 67.3546 83.7578L64.4292 90.4598L70.7598 86.7605C70.9919 86.6367 76.5022 83.4173 79.1954 81.5599C80.4491 80.7241 81.2849 79.4084 81.5945 77.907C82.1362 75.3377 83.6221 69.7191 84.1638 67.676C85.3557 66.7163 86.6094 65.6484 87.925 64.503C101.793 52.2443 103.047 25.6993 103.109 24.5694L103.233 22L100.617 22.1238ZM50.9323 51.718C49.3845 51.2382 47.589 51.3001 45.8554 51.5942C46.5055 50.5107 47.1711 49.5047 47.7128 48.7307C47.8366 48.4986 48.0688 48.3748 48.3629 48.3128C49.5547 48.0807 51.4121 47.6008 53.2695 47.1829C52.186 48.7927 51.474 50.294 50.9323 51.718ZM59.0583 70.9109C58.5785 71.561 57.7427 71.9325 56.9687 71.8706H56.1948L61.1633 64.1005L53.3933 69.1155V68.2796C53.3314 67.4438 53.6874 66.6699 54.3529 66.1901L63.8565 58.6522C64.3363 58.2343 64.9864 57.9402 65.5901 57.8164L68.0975 57.2128L67.4939 59.7202C67.3081 60.3703 67.076 60.974 66.6581 61.4538L59.0583 70.9109ZM76.8891 76.9474C76.8272 77.1796 76.7034 77.4272 76.4712 77.5975C75.6973 78.1392 74.6757 78.7893 73.6077 79.4549C73.9018 77.7213 73.9637 75.9258 73.4839 74.378C74.9234 73.8363 76.4093 73.1243 78.0345 72.1027C77.6011 73.8982 77.1213 75.6937 76.8891 76.9474ZM84.7675 60.9275C76.5176 68.2177 71.9671 70.3692 68.6857 70.493H68.5619C67.5403 70.493 66.7045 70.3073 65.8687 70.0132L70.2954 64.3946C71.1312 63.3112 71.7349 62.1193 72.0909 60.8037L74.49 50.7584L64.4447 53.1575C63.129 53.4516 61.8753 54.0552 60.8538 54.891L55.2352 59.3178C54.9411 58.482 54.7554 57.6462 54.7554 56.6246V56.5008C54.8173 53.2658 57.0307 48.6688 64.3209 40.419C73.1124 30.4356 91.2838 27.7424 98.0942 27.0923C97.4441 33.9646 94.7509 52.1359 84.7675 60.9275Z" fill="url(#paint0_linear_27493_32565)"/>
<path d="M47.6196 88.5254C44.5705 89.129 41.4593 89.2993 38.3482 89.3612C36.5528 89.3612 34.7573 89.2993 32.8999 89.129C33.6119 87.9372 34.2775 86.7299 34.8657 85.4762C35.9956 82.9068 36.8314 80.3374 37.4969 77.7062C38.1006 75.1987 38.8126 72.7377 39.7103 70.2921C40.5461 67.8466 41.5058 65.3856 42.5738 62.94C41.6141 63.8997 40.7783 64.9057 40.0044 65.9892C39.2305 67.0727 38.4566 68.2026 37.7291 69.3325C36.3516 71.6078 35.1597 74.1152 34.1382 76.5608C33.1785 78.9599 32.1725 81.3435 30.9652 83.495C29.7733 85.6464 28.3958 87.6277 26.7242 89.5315L24 92.7664L28.241 93.37C31.5843 93.8499 34.9895 94.082 38.4102 93.9737C40.1437 93.9118 41.8153 93.7879 43.5489 93.4939C45.2205 93.2617 46.9541 92.8438 48.5638 92.364C51.8452 91.4043 55.0182 89.8565 57.8352 87.8753C59.2128 86.8537 60.5284 85.7238 61.5964 84.4082C62.6799 83.0925 63.686 81.715 64.3515 80.1672C62.0762 82.5663 59.3366 84.2999 56.5196 85.6619C53.6561 87.0395 50.6688 87.9217 47.6196 88.5254ZM83.0336 50.5885C85.1851 50.5885 87.3366 49.7526 89.0082 48.1429C92.2896 44.8615 92.2896 39.5371 89.0082 36.2402C87.3985 34.6305 85.3089 33.7947 83.0336 33.7947C80.7584 33.7947 78.6688 34.6924 77.0591 36.2402C73.7777 39.5216 73.7777 44.8461 77.0591 48.1429C78.6688 49.7526 80.8203 50.5885 83.0336 50.5885ZM80.4024 39.5835C81.1143 38.8715 82.0121 38.5 82.9717 38.5C83.9314 38.5 84.891 38.856 85.5411 39.5835C86.9806 41.023 86.9806 43.2828 85.5411 44.7222C84.1016 46.1617 81.8418 46.1617 80.4024 44.7222C79.0403 43.3447 79.0403 41.023 80.4024 39.5835Z" fill="url(#paint1_linear_27493_32565)"/>
</g>
<g filter="url(#filter1_di_27493_32565)">
<path d="M100.967 72.0211C101.762 71.7892 102.594 72.2461 102.827 73.0411L104.622 79.1874C104.854 79.9824 104.397 80.8151 103.602 81.0473C102.807 81.279 101.974 80.8223 101.742 80.0273L99.9468 73.881C99.715 73.0861 100.172 72.2534 100.967 72.0211ZM113.392 70.2797C114.07 70.7555 114.234 71.691 113.758 72.3691C113.283 73.0472 112.347 73.2112 111.669 72.7354L105.12 68.1403C104.442 67.6644 104.278 66.7289 104.754 66.0508C105.23 65.3728 106.165 65.2089 106.843 65.6846L113.392 70.2797ZM116.873 58.4645C117.699 58.4124 118.412 59.0401 118.464 59.8666C118.516 60.6931 117.889 61.406 117.062 61.4584L110.672 61.8607C109.845 61.9126 109.132 61.285 109.08 60.4586C109.028 59.6322 109.656 58.9193 110.482 58.8668L116.873 58.4645Z" fill="url(#paint2_linear_27493_32565)" shape-rendering="crispEdges"/>
</g>
<g filter="url(#filter2_di_27493_32565)">
<path d="M66.8736 16.406C66.046 16.3751 65.4001 15.6787 65.4306 14.8511L65.6669 8.4523C65.6978 7.62473 66.3942 6.97877 67.2218 7.00934C68.0493 7.04035 68.6954 7.73665 68.6648 8.56423L68.4285 14.963C68.3975 15.7904 67.7011 16.4364 66.8736 16.406ZM54.5337 14.1367C54.0404 13.4711 54.1801 12.5317 54.8456 12.0384C55.5112 11.5452 56.4506 11.6848 56.9439 12.3503L61.7075 18.7775C62.2006 19.443 62.061 20.3825 61.3956 20.8757C60.7301 21.369 59.7907 21.2292 59.2973 20.5638L54.5337 14.1367ZM47.502 24.2495C46.7013 24.038 46.2229 23.2174 46.4341 22.4166C46.6456 21.6159 47.4661 21.1375 48.2669 21.3487L54.4577 22.9838C55.2584 23.1955 55.7368 24.016 55.5257 24.8167C55.3142 25.6173 54.4935 26.0956 53.6928 25.8846L47.502 24.2495Z" fill="url(#paint3_linear_27493_32565)" shape-rendering="crispEdges"/>
</g>
<defs>
<filter id="filter0_di_27493_32565" x="0" y="2" width="127.233" height="120" filterUnits="userSpaceOnUse" color-interpolation-filters="sRGB">
<feFlood flood-opacity="0" result="BackgroundImageFix"/>
<feColorMatrix in="SourceAlpha" type="matrix" values="0 0 0 0 0 0 0 0 0 0 0 0 0 0 0 0 0 0 127 0" result="hardAlpha"/>
<feOffset dy="4"/>
<feGaussianBlur stdDeviation="12"/>
<feComposite in2="hardAlpha" operator="out"/>
<feColorMatrix type="matrix" values="0 0 0 0 0 0 0 0 0 0 0 0 0 0 0 0 0 0 0.08 0"/>
<feBlend mode="normal" in2="BackgroundImageFix" result="effect1_dropShadow_27493_32565"/>
<feBlend mode="normal" in="SourceGraphic" in2="effect1_dropShadow_27493_32565" result="shape"/>
<feColorMatrix in="SourceAlpha" type="matrix" values="0 0 0 0 0 0 0 0 0 0 0 0 0 0 0 0 0 0 127 0" result="hardAlpha"/>
<feOffset dy="0.5"/>
<feComposite in2="hardAlpha" operator="arithmetic" k2="-1" k3="1"/>
<feColorMatrix type="matrix" values="0 0 0 0 1 0 0 0 0 1 0 0 0 0 1 0 0 0 0.16 0"/>
<feBlend mode="normal" in2="shape" result="effect2_innerShadow_27493_32565"/>
</filter>
<filter id="filter1_di_27493_32565" x="91.5384" y="52.2006" width="35.2767" height="39.3419" filterUnits="userSpaceOnUse" color-interpolation-filters="sRGB">
<feFlood flood-opacity="0" result="BackgroundImageFix"/>
<feColorMatrix in="SourceAlpha" type="matrix" values="0 0 0 0 0 0 0 0 0 0 0 0 0 0 0 0 0 0 127 0" result="hardAlpha"/>
<feOffset dy="2.08696"/>
<feGaussianBlur stdDeviation="4.17391"/>
<feComposite in2="hardAlpha" operator="out"/>
<feColorMatrix type="matrix" values="0 0 0 0 0 0 0 0 0 0 0 0 0 0 0 0 0 0 0.04 0"/>
<feBlend mode="normal" in2="BackgroundImageFix" result="effect1_dropShadow_27493_32565"/>
<feBlend mode="normal" in="SourceGraphic" in2="effect1_dropShadow_27493_32565" result="shape"/>
<feColorMatrix in="SourceAlpha" type="matrix" values="0 0 0 0 0 0 0 0 0 0 0 0 0 0 0 0 0 0 127 0" result="hardAlpha"/>
<feOffset dy="0.521739"/>
<feComposite in2="hardAlpha" operator="arithmetic" k2="-1" k3="1"/>
<feColorMatrix type="matrix" values="0 0 0 0 1 0 0 0 0 1 0 0 0 0 1 0 0 0 0.92 0"/>
<feBlend mode="normal" in2="shape" result="effect2_innerShadow_27493_32565"/>
</filter>
<filter id="filter2_di_27493_32565" x="38.0365" y="0.747431" width="38.9774" height="35.6219" filterUnits="userSpaceOnUse" color-interpolation-filters="sRGB">
<feFlood flood-opacity="0" result="BackgroundImageFix"/>
<feColorMatrix in="SourceAlpha" type="matrix" values="0 0 0 0 0 0 0 0 0 0 0 0 0 0 0 0 0 0 127 0" result="hardAlpha"/>
<feOffset dy="2.08696"/>
<feGaussianBlur stdDeviation="4.17391"/>
<feComposite in2="hardAlpha" operator="out"/>
<feColorMatrix type="matrix" values="0 0 0 0 0 0 0 0 0 0 0 0 0 0 0 0 0 0 0.04 0"/>
<feBlend mode="normal" in2="BackgroundImageFix" result="effect1_dropShadow_27493_32565"/>
<feBlend mode="normal" in="SourceGraphic" in2="effect1_dropShadow_27493_32565" result="shape"/>
<feColorMatrix in="SourceAlpha" type="matrix" values="0 0 0 0 0 0 0 0 0 0 0 0 0 0 0 0 0 0 127 0" result="hardAlpha"/>
<feOffset dy="0.521739"/>
<feComposite in2="hardAlpha" operator="arithmetic" k2="-1" k3="1"/>
<feColorMatrix type="matrix" values="0 0 0 0 1 0 0 0 0 1 0 0 0 0 1 0 0 0 0.92 0"/>
<feBlend mode="normal" in2="shape" result="effect2_innerShadow_27493_32565"/>
</filter>
<linearGradient id="paint0_linear_27493_32565" x1="68.4086" y1="19.3669" x2="68.4086" y2="93.0929" gradientUnits="userSpaceOnUse">
<stop stop-color="white" stop-opacity="0.88"/>
<stop offset="1" stop-color="white" stop-opacity="0.56"/>
</linearGradient>
<linearGradient id="paint1_linear_27493_32565" x1="57.141" y1="31.4791" x2="57.141" y2="96.3155" gradientUnits="userSpaceOnUse">
<stop stop-color="white" stop-opacity="0.88"/>
<stop offset="1" stop-color="white" stop-opacity="0.56"/>
</linearGradient>
<linearGradient id="paint2_linear_27493_32565" x1="117.703" y1="58.6451" x2="102.195" y2="80.7466" gradientUnits="userSpaceOnUse">
<stop stop-color="white" stop-opacity="0.96"/>
<stop offset="1" stop-color="white" stop-opacity="0.84"/>
</linearGradient>
<linearGradient id="paint3_linear_27493_32565" x1="46.7711" y1="23.816" x2="68.4624" y2="7.73893" gradientUnits="userSpaceOnUse">
<stop stop-color="white" stop-opacity="0.96"/>
<stop offset="1" stop-color="white" stop-opacity="0.84"/>
</linearGradient>
</defs>
</svg>
