<svg width="88" height="20" viewBox="0 0 88 20" fill="none" xmlns="http://www.w3.org/2000/svg">
  <path fill-rule="evenodd" clip-rule="evenodd" d="M17.0538 0.664468C19.3446 0.116184 21.1866 0.0332887 21.2701 0.0332887L22 0L21.9667 0.714075L21.9663 0.722294C21.945 1.13952 21.5734 8.4304 17.7511 11.8096C17.4079 12.1095 17.0594 12.4031 16.7055 12.6902C16.6996 12.7125 16.6932 12.7364 16.6865 12.7617C16.5237 13.3769 16.1353 14.8443 15.9912 15.5308C15.9084 15.9459 15.6762 16.3114 15.3272 16.5438C14.5803 17.0588 13.0534 17.9556 12.9868 17.9889L11.2276 19.0183L12.041 17.158C12.4063 16.3447 12.6548 15.1986 12.4559 14.8663C12.4559 14.8494 12.4396 14.833 12.3561 14.8161C11.8251 14.7998 11.3111 14.6836 10.7958 14.4342C10.381 14.9329 9.76719 15.2312 9.11948 15.1986H6.82933V12.9062C6.81255 12.5858 6.87315 12.2661 7.00599 11.9741C7.13883 11.6821 7.34001 11.4264 7.5925 11.2287C7.34333 10.7137 7.21092 10.1987 7.21092 9.66742C7.19628 9.58124 7.18213 9.56943 7.16763 9.55733C7.16533 9.5554 7.16301 9.55347 7.16069 9.55124C6.82868 9.35151 5.68394 9.60084 4.87055 9.96637L2.9946 10.7803L4.02389 9.01992C4.05716 8.95335 4.95273 7.42533 5.46803 6.67797C5.70681 6.3337 6.06969 6.09552 6.48037 6.0135C7.07361 5.9028 8.25203 5.58594 8.9572 5.39632C9.10024 5.35786 9.22381 5.32463 9.31907 5.29943C9.58455 4.96719 9.88329 4.61864 10.1983 4.25312C11.6262 2.60826 13.9496 1.39551 17.0538 0.664468ZM6.06552 8.2223C6.5469 8.13941 7.04459 8.12243 7.47639 8.25559C7.64203 7.81094 7.8592 7.38726 8.12345 6.99323C7.90472 7.04261 7.68598 7.09494 7.48132 7.1439C7.20445 7.21014 6.95333 7.27021 6.7628 7.30849C6.67931 7.32546 6.61278 7.3581 6.58016 7.42468C6.43079 7.64138 6.24816 7.92336 6.06552 8.2223ZM9.47655 13.7932C9.57789 13.7469 9.66611 13.676 9.73327 13.587L11.8414 10.9624C11.9582 10.8299 12.0241 10.6641 12.0743 10.4814L12.2406 9.7836L11.5427 9.94939C11.377 9.98268 11.1944 10.0656 11.0613 10.1824L8.42219 12.275C8.33181 12.341 8.25991 12.4292 8.21342 12.5311C8.16693 12.6329 8.1474 12.745 8.15672 12.8566V13.089L10.3144 11.6935L8.93749 13.8527H9.15274C9.26393 13.86 9.37521 13.8396 9.47655 13.7932ZM14.564 15.4472C14.6224 15.4013 14.6634 15.3369 14.6801 15.2645C14.7233 15.0383 14.7942 14.7493 14.8706 14.4379C14.9119 14.2694 14.9548 14.0944 14.9958 13.9192C14.5471 14.2019 14.1322 14.4009 13.7343 14.5504C13.8667 14.9825 13.8504 15.4805 13.7669 15.9629C14.0657 15.7801 14.3481 15.5974 14.564 15.4472ZM12.4063 13.4708C13.3188 13.4375 14.5803 12.8396 16.8718 10.8129L16.8711 10.8136C19.6433 8.37177 20.3902 3.32234 20.5728 1.41183C18.6805 1.59459 13.6339 2.34196 11.1944 5.11601C9.16905 7.40836 8.55526 8.68704 8.53895 9.58452V9.61716C8.53853 9.87216 8.58336 10.1252 8.67136 10.3645L10.2316 9.13545C10.5219 8.89988 10.8628 8.73498 11.2276 8.65375L14.0161 7.98928L13.3521 10.7803C13.2525 11.1454 13.0866 11.4774 12.8544 11.7764L11.6262 13.3377C11.8577 13.4212 12.0906 13.4708 12.373 13.4708H12.4063ZM3.98345 18.7127C4.84642 18.6958 5.70938 18.6461 6.55603 18.4797C7.40269 18.3139 8.23238 18.0646 9.02947 17.6821C9.80959 17.3009 10.5728 16.8192 11.2035 16.1547C11.0209 16.5862 10.7391 16.968 10.4403 17.3335C10.1416 17.6991 9.77632 18.015 9.39474 18.2969C8.61055 18.8498 7.74135 19.2707 6.82151 19.543C6.3734 19.6755 5.89202 19.7923 5.4276 19.8582C4.95526 19.9353 4.47819 19.9798 3.99976 19.9914C3.05396 20.0247 2.10751 19.9581 1.17801 19.8256L0 19.6592L0.763164 18.7623C1.21481 18.2469 1.60995 17.6845 1.94183 17.0848C2.27318 16.487 2.55562 15.8225 2.8211 15.158C3.10353 14.4772 3.43554 13.7795 3.81712 13.1483C4.01672 12.8324 4.23262 12.5171 4.44788 12.2182C4.66378 11.9192 4.89599 11.6366 5.16147 11.3709C4.86729 12.0405 4.60136 12.7221 4.36438 13.414C4.11652 14.0947 3.91692 14.7762 3.75124 15.4733C3.56861 16.2043 3.33574 16.9184 3.02069 17.6331C2.85436 17.9817 2.67173 18.3133 2.47278 18.6461C2.98743 18.6958 3.48511 18.7127 3.98345 18.7127ZM18.0511 7.25881C17.6069 7.6925 17.0117 7.93658 16.3911 7.9396C16.0832 7.94124 15.778 7.88194 15.4931 7.7651C15.2082 7.64826 14.9492 7.4762 14.731 7.25881C14.5141 7.04181 14.342 6.78417 14.2246 6.50059C14.1071 6.21702 14.0467 5.91308 14.0467 5.60613C14.0467 5.29918 14.1071 4.99523 14.2246 4.71166C14.342 4.42809 14.5141 4.17044 14.731 3.95344C15.1791 3.52134 15.7603 3.27201 16.3911 3.27201C16.6992 3.269 17.0048 3.32774 17.2899 3.44477C17.575 3.5618 17.8338 3.73476 18.0511 3.95344C18.9643 4.8666 18.9643 6.34501 18.0511 7.25881ZM15.987 4.66158C15.8644 4.71293 15.7534 4.78842 15.6605 4.88357C15.2789 5.28173 15.2789 5.92988 15.6605 6.31172C16.0591 6.70988 16.6898 6.70988 17.0883 6.31172C17.4862 5.91291 17.4862 5.28173 17.0883 4.88357C16.9057 4.68384 16.6402 4.58462 16.3741 4.58462C16.2412 4.58405 16.1096 4.61022 15.987 4.66158Z" fill="currentColor"/>
  <path d="M33.7438 11.9647C33.1075 12.6553 32.455 12.9922 31.7394 12.9922C30.3706 12.9922 29.3044 11.8528 29.3044 10.3934C29.3044 8.9172 30.3388 7.77845 31.6756 7.77845C32.6619 7.77845 33.2981 8.30782 33.7281 8.77282L33.8075 8.86907L34.635 7.9872L34.5556 7.90657C33.9988 7.31282 33.1713 6.62345 31.6913 6.62345C29.655 6.62345 28 8.32345 28 10.4091C28 12.5266 29.6231 14.1953 31.6913 14.1953C33.1869 14.1953 34.0462 13.4409 34.6188 12.7997L34.6988 12.7034L33.8394 11.9009L33.7438 11.9647ZM39.0906 6.6072C38.1519 6.6072 37.3881 6.97595 36.8313 7.71407V3.78407L35.5588 4.40907V13.9866H36.8313V9.86345C36.8313 8.6447 37.6431 7.7947 38.8044 7.7947C39.9344 7.7947 40.6025 8.54845 40.6025 9.78345V14.0022H41.8756V9.5272C41.8756 7.74595 40.7931 6.6072 39.0906 6.6072ZM46.1238 6.63907C45.0263 6.63907 44.23 6.92782 43.5463 7.24907L43.4506 7.2972L43.8488 8.3722L43.96 8.32345C44.7075 7.98657 45.3288 7.82657 46.0288 7.82657C47.3013 7.82657 47.9694 8.43595 47.9694 9.6072V9.67095C47.4444 9.5272 46.84 9.4147 45.965 9.4147C44.0238 9.4147 42.8775 10.3128 42.8775 11.8209C42.8775 13.3447 44.2462 14.1466 45.5987 14.1466C46.76 14.1466 47.5081 13.6497 47.9856 13.1528V13.9866H49.2419V9.59095C49.2419 8.66032 48.9881 7.9547 48.4787 7.44095C47.9375 6.92845 47.1263 6.63907 46.1238 6.63907ZM47.9694 10.7459V11.3072C47.9694 12.3178 47.0306 13.0722 45.7738 13.0722C44.9944 13.0722 44.1506 12.6709 44.1506 11.7884C44.1506 10.9703 44.8669 10.4734 46.06 10.4734C46.8875 10.4734 47.54 10.6172 47.9694 10.7459ZM54.2706 6.6072C53.3312 6.6072 52.5681 6.97595 52.0112 7.71407V6.76782H50.7381V14.0184H52.0112V9.86345C52.0112 8.6447 52.8225 7.7947 53.9837 7.7947C55.1137 7.7947 55.7819 8.54845 55.7819 9.78345V14.0022H57.055V9.5272C57.055 7.74595 55.9569 6.6072 54.2706 6.6072ZM64.0875 7.7947C63.4031 7.00845 62.5281 6.6072 61.4938 6.6072C60.6276 6.61041 59.7937 6.93643 59.155 7.52157C58.4706 8.16345 58.105 9.04532 58.105 10.0403C58.105 11.0191 58.4706 11.9172 59.155 12.5591C59.7937 13.1442 60.6276 13.4702 61.4938 13.4734C62.5281 13.4734 63.3875 13.0559 64.1037 12.2222V12.7034C64.1037 14.2109 63.2287 15.0772 61.7006 15.0772C60.7619 15.0772 59.8869 14.7884 59.0913 14.2109L58.98 14.1309L58.3913 15.1578L58.4869 15.2216C59.4256 15.8797 60.5231 16.2166 61.7169 16.2166C62.8781 16.2166 63.8169 15.8791 64.4538 15.2378C65.0581 14.6122 65.3763 13.7622 65.3763 12.6709V6.7522H64.1031V7.7947H64.0875ZM64.1356 10.0241C64.1356 11.4522 62.8944 12.3022 61.7006 12.3022C60.4119 12.3022 59.41 11.3078 59.41 10.0397C59.41 8.7247 60.3644 7.77845 61.7006 7.77845C62.8944 7.7622 64.1356 8.6122 64.1356 10.0241ZM70.0062 6.6072C68.0331 6.6072 66.5537 8.22782 66.5537 10.3934C66.5537 12.5591 68.0969 14.1791 70.1494 14.1791C71.3588 14.1791 72.2656 13.7622 73.1088 12.8153L73.1881 12.7191L72.3613 11.9816L72.2812 12.0616C71.6606 12.7191 70.9925 13.0078 70.1812 13.0078C68.9562 13.0078 68.0494 12.1741 67.8744 10.9228H73.3631L73.3794 10.8103C73.395 10.6497 73.395 10.5378 73.395 10.4416C73.3794 8.14782 72.0269 6.6072 70.0062 6.6072ZM72.0744 9.84782H67.8581C68.0494 8.59657 68.9081 7.73032 69.99 7.73032C71.3106 7.73032 71.9312 8.78907 72.0744 9.84782ZM74.5725 14.0028H75.845V4.23282L74.5725 4.8747V14.0028ZM77.5169 14.0028H78.7894V3.78345L77.5169 4.4247V14.0028ZM85.5669 6.75157L83.4031 12.3984L80.9531 6.75157H79.5525L82.7669 13.8578C82.3369 14.8528 81.9713 15.0453 81.4781 15.0453C81.0644 15.0453 80.7781 14.9809 80.4438 14.8047L80.3325 14.7403L79.8869 15.7991L79.9825 15.8472C80.5075 16.1041 80.9531 16.2159 81.51 16.2159C82.6394 16.2159 83.3394 15.6228 83.9281 14.1628L86.9194 6.75157H85.5669Z" fill="currentColor"/>
</svg>
