<svg xmlns="http://www.w3.org/2000/svg" width="100" height="100" fill="none" viewBox="0 0 48 48"
    class="flex-shrink-0 h-full w-auto aspect-square">
    <path fill="#ADFF86"
        d="M4 22.514c0-6.616 0-9.924 1.328-12.433a11.43 11.43 0 0 1 4.753-4.753C12.59 4 15.898 4 22.514 4h2.972c6.616 0 9.924 0 12.433 1.328a11.43 11.43 0 0 1 4.753 4.753C44 12.59 44 15.898 44 22.514v2.972c0 6.616 0 9.924-1.328 12.433a11.43 11.43 0 0 1-4.753 4.753C35.41 44 32.102 44 25.486 44h-2.972c-6.616 0-9.924 0-12.433-1.328a11.43 11.43 0 0 1-4.753-4.753C4 35.41 4 32.102 4 25.486z"></path>
    <path fill="#1F1F1F"
        d="M13.619 33.689c.262-1.246 1.31-4.238 2.414-6.381-1.56 1.483-2.419 2.6-3.462 4.387-.533.914-.943 2.626-1.571 3.483 1.776 0 3.517.291 5.292 0 2.213-.3 4.793-1.425 5.708-3.483-1.048 1.246-5.804 2.231-8.381 1.994"></path>
    <path fill="#1F1F1F" fill-rule="evenodd"
        d="M30.605 11.884c3.058-.73 5.518-.84 5.629-.84l.975-.044-.044.95-.001.014c-.03.578-.532 10.26-5.628 14.75-.23.199-.457.432-.68.66a9 9 0 0 1-.728.694c-.05.19-.123.454-.206.757-.246.894-.586 2.131-.735 2.84a2.1 2.1 0 0 1-.886 1.35c-.998.684-3.036 1.878-3.125 1.922l-2.35 1.37 1.087-2.475c.487-1.083.82-2.608.554-3.05 0-.022-.022-.044-.133-.067a5.1 5.1 0 0 1-2.083-.508c-.554.663-1.374 1.061-2.238 1.017h-3.059v-3.05a2.65 2.65 0 0 1 1.02-2.233c-.333-.685-.51-1.37-.51-2.077-.019-.114-.038-.13-.057-.146l-.01-.009c-.443-.265-1.972.066-3.057.553l-2.505 1.083 1.374-2.343c.045-.089 1.241-2.122 1.928-3.117a2.16 2.16 0 0 1 1.352-.884c.702-.13 1.917-.47 2.81-.719.32-.09.599-.167.798-.22.187-.233.438-.477.695-.726.229-.222.463-.449.661-.678 1.906-2.188 5.008-3.801 9.152-4.774m-.771 9.122a2.65 2.65 0 0 0 2.655-2.648 2.65 2.65 0 0 0-2.655-2.649 2.65 2.65 0 0 0-2.655 2.649 2.65 2.65 0 0 0 2.655 2.648"
        clip-rule="evenodd"></path>
</svg>