<svg width="32" height="32" viewBox="0 0 32 32" fill="none" xmlns="http://www.w3.org/2000/svg">
  <path d="M5 11.25C5 9.04086 6.79086 7.25 9 7.25H23C25.2091 7.25 27 9.04086 27 11.25V13.25H5V11.25Z" fill="#AAB4BF"/>
  <path fill-rule="evenodd" clip-rule="evenodd" d="M27 15.25H5V20.75C5 22.9591 6.79086 24.75 9 24.75H23C25.2091 24.75 27 22.9591 27 20.75V15.25ZM9 19.25C8.17157 19.25 7.5 19.9216 7.5 20.75C7.5 21.5784 8.17157 22.25 9 22.25H10C10.8284 22.25 11.5 21.5784 11.5 20.75C11.5 19.9216 10.8284 19.25 10 19.25H9Z" fill="#AAB4BF"/>
</svg>
