<svg width="24" height="24" viewBox="0 0 24 24" fill="none" xmlns="http://www.w3.org/2000/svg">
<g id="24/ic-allert-24">
<path id="Subtract" fill-rule="evenodd" clip-rule="evenodd" d="M2 12C2 6.47715 6.47715 2 12 2C17.5228 2 22 6.47715 22 12C22 17.5228 17.5228 22 12 22C6.47715 22 2 17.5228 2 12ZM13 7.25C13 6.69772 12.5523 6.25 12 6.25C11.4477 6.25 11 6.69771 11 7.25V12.75C11 13.3023 11.4477 13.75 12 13.75C12.5522 13.75 12.9999 13.3023 12.9999 12.75L13 7.25ZM12 17.75C11.4477 17.75 11 17.3023 11 16.75C11 16.1977 11.4477 15.75 12 15.75C12.5523 15.75 13 16.1977 13 16.75C13 17.3023 12.5523 17.75 12 17.75Z" fill="#FF415C"/>
</g>
</svg>
