<svg width="24" height="24" viewBox="0 0 24 24" fill="none" xmlns="http://www.w3.org/2000/svg">
<path d="M19.6745 6.45683C19.1157 6.15801 18.5615 5.99888 17.0332 5.99888L6.73316 6.0002C5.37985 6.01602 4.85459 6.17374 4.32527 6.45683C3.76654 6.75564 3.32804 7.19413 3.02923 7.75286C2.73042 8.31159 2.57129 8.8658 2.57129 10.3941L2.57261 16.4084C2.58843 17.7617 2.74615 18.287 3.02923 18.8163C3.32804 19.3751 3.76654 19.8136 4.32527 20.1124C4.884 20.4112 5.4382 20.5703 6.96652 20.5703H17.0332C18.5615 20.5703 19.1157 20.4112 19.6745 20.1124C20.2332 19.8136 20.6717 19.3751 20.9705 18.8163C21.2693 18.2576 21.4284 17.7034 21.4284 16.1751V10.3941C21.4284 8.8658 21.2693 8.31159 20.9705 7.75286C20.6717 7.19413 20.2332 6.75564 19.6745 6.45683Z" fill="#AAB4BF"/>
<path d="M16.2657 2.79928C15.9864 2.64988 15.7093 2.57031 14.9451 2.57031H9.05462C8.29046 2.57031 8.01336 2.64988 7.73399 2.79928C7.45463 2.94869 7.23538 3.16794 7.08597 3.4473C6.97342 3.65775 6.90051 3.86692 6.87138 4.28398H17.1283C17.0992 3.86692 17.0263 3.65775 16.9137 3.4473C16.7643 3.16794 16.5451 2.94869 16.2657 2.79928Z" fill="#AAB4BF"/>
</svg>
