<svg width="24" height="24" viewBox="0 0 24 24" fill="none" xmlns="http://www.w3.org/2000/svg">
<g id="24/ic-doc-24">
<path id="Subtract" fill-rule="evenodd" clip-rule="evenodd" d="M3.5 6C3.5 3.79086 5.29086 2 7.5 2H16.5C18.7091 2 20.5 3.79086 20.5 6V18C20.5 20.2091 18.7091 22 16.5 22H7.5C5.29086 22 3.5 20.2091 3.5 18V6ZM7 10C7 9.44772 7.44772 9 8 9H13C13.5523 9 14 9.44772 14 10C14 10.5523 13.5523 11 13 11H8C7.44772 11 7 10.5523 7 10ZM8 14C7.44772 14 7 14.4477 7 15C7 15.5523 7.44772 16 8 16H16C16.5523 16 17 15.5523 17 15C17 14.4477 16.5523 14 16 14H8Z" fill="#AAB4BF"/>
</g>
</svg>
