<svg width="46" height="46" viewBox="0 0 46 46" fill="none" xmlns="http://www.w3.org/2000/svg">
<path d="M7 15.75C7 12.7124 9.46243 10.25 12.5 10.25H33.5C36.5376 10.25 39 12.7124 39 15.75V19.25H7V15.75Z" fill="#AAB4BF"/>
<path fill-rule="evenodd" clip-rule="evenodd" d="M39 21.75H7V30.25C7 33.2876 9.46243 35.75 12.5 35.75H33.5C36.5376 35.75 39 33.2876 39 30.25V21.75ZM12.4279 28.2236C11.3286 28.2236 10.4375 29.1148 10.4375 30.2141C10.4375 31.3133 11.3286 32.2045 12.4279 32.2045H13.9471C15.0464 32.2045 15.9375 31.3133 15.9375 30.2141C15.9375 29.1148 15.0464 28.2236 13.9471 28.2236H12.4279Z" fill="#AAB4BF"/>
</svg>
