<svg width="24" height="24" viewBox="0 0 24 24" fill="none" xmlns="http://www.w3.org/2000/svg">
<path fill-rule="evenodd" clip-rule="evenodd" d="M3.60707 19.5933L3.60909 19.5937L3.75843 19.624L3.76067 19.6244C6.56816 20.1865 9.46499 20.1169 12.2424 19.4231L12.4411 19.3727L12.4794 19.3631L12.4809 19.3627C14.8149 18.7799 17.2488 18.7217 19.6079 19.1934C20.8456 19.4412 22 18.495 22 17.2329V6.39387C22 5.43951 21.3269 4.61985 20.3915 4.43237L19.9986 4.35419C17.3495 3.82425 14.6148 3.88998 11.9936 4.54468L11.5206 4.66268C9.18605 5.24586 6.75181 5.30423 4.39212 4.83229L4.3909 4.83205C3.15439 4.58634 2 5.53137 2 6.79387V17.6329C2 18.584 2.67084 19.4063 3.60707 19.5933ZM18.5912 6.08123C17.8916 6.01716 17.1854 5.98827 16.4745 6.00639C15.9224 6.02046 15.4863 6.47944 15.5003 7.03154C15.5144 7.58365 15.9734 8.01981 16.5255 8.00574C17.1486 7.98986 17.7764 8.01497 18.4088 8.07289C18.9588 8.12327 19.4455 7.71826 19.4958 7.16827C19.5462 6.61829 19.1412 6.1316 18.5912 6.08123ZM4.50417 16.8397C4.55454 16.2897 5.04123 15.8847 5.59121 15.9351C6.22256 15.9929 6.85095 16.0172 7.47602 16.0022C8.02814 15.989 8.48647 16.4258 8.49971 16.978C8.51296 17.5301 8.07611 17.9884 7.52398 18.0017C6.81505 18.0187 6.10944 17.9909 5.40879 17.9268C4.85881 17.8764 4.45379 17.3897 4.50417 16.8397ZM14 12C14 13.1046 13.1046 14 12 14C10.8954 14 10 13.1046 10 12C10 10.8954 10.8954 10 12 10C13.1046 10 14 10.8954 14 12Z" fill="#AAB4BF"/>
</svg>
