<svg width="24" height="24" viewBox="0 0 24 24" fill="none" xmlns="http://www.w3.org/2000/svg">
<path fill-rule="evenodd" clip-rule="evenodd" d="M19.804 18.2129C17.299 17.7119 14.715 17.7739 12.237 18.3929L12 18.4529C9.366 19.1109 6.619 19.1769 3.957 18.6439L3.804 18.6129C3.336 18.5199 3 18.1089 3 17.6329V6.7939C3 6.1629 3.577 5.6899 4.196 5.8129C6.701 6.3139 9.285 6.2519 11.763 5.6329L12.236 5.5149C14.714 4.8959 17.299 4.8339 19.803 5.3349L20.195 5.4129C20.664 5.5069 21 5.9169 21 6.3939V17.2329C21 17.8639 20.423 18.3369 19.804 18.2129Z" fill="#AAB4BF" stroke="#AAB4BF" stroke-width="1.5" stroke-linecap="round" stroke-linejoin="round"/>
<path d="M18.5 7.07706C17.834 7.01606 17.167 6.98906 16.5 7.00606" stroke="#F7F8F9" stroke-width="2" stroke-linecap="round" stroke-linejoin="round"/>
<path d="M5.5 16.9309C6.166 16.9919 6.833 17.0179 7.5 17.0019" stroke="#F7F8F9" stroke-width="2" stroke-linecap="round" stroke-linejoin="round"/>
<path fill-rule="evenodd" clip-rule="evenodd" d="M12 13.9102C13.1046 13.9102 14 13.0147 14 11.9102C14 10.8056 13.1046 9.91016 12 9.91016C10.8954 9.91016 10 10.8056 10 11.9102C10 13.0147 10.8954 13.9102 12 13.9102Z" fill="#F7F8F9" stroke="#F7F8F9" stroke-linecap="round" stroke-linejoin="round"/>
</svg>
