<svg width="32" height="32" viewBox="0 0 32 32" fill="none" xmlns="http://www.w3.org/2000/svg">
<path fill-rule="evenodd" clip-rule="evenodd" d="M6.5 7.79004C6.5 7.37632 6.83628 7.04004 7.25 7.04004H21.8333C22.3856 7.04004 22.8333 6.59232 22.8333 6.04004C22.8333 5.48775 22.3856 5.04004 21.8333 5.04004H7.25C5.73172 5.04004 4.5 6.27175 4.5 7.79004V15.8665C5.82689 14.6789 7.57911 13.9568 9.5 13.9568C13.6421 13.9568 17 17.3147 17 21.4568C17 23.5861 16.1126 25.5082 14.6876 26.8734H24.1667C26.0081 26.8734 27.5 25.3815 27.5 23.54V11.8734C27.5 10.0319 26.0081 8.54004 24.1667 8.54004H7.25C6.83628 8.54004 6.5 8.20375 6.5 7.79004ZM21.5 18.9568C22.3284 18.9568 23 18.2852 23 17.4568C23 16.6284 22.3284 15.9568 21.5 15.9568C20.6716 15.9568 20 16.6284 20 17.4568C20 18.2852 20.6716 18.9568 21.5 18.9568Z" fill="#AAB4BF"/>
<path fill-rule="evenodd" clip-rule="evenodd" d="M15 21.4568C15 24.501 12.5442 26.9568 9.5 26.9568C6.45575 26.9568 4 24.501 4 21.4568C4 18.4125 6.45575 15.9568 9.5 15.9568C12.5442 15.9568 15 18.4125 15 21.4568ZM6.1 21.4568C6.1 20.9597 6.50294 20.5568 7 20.5568H8.6V18.9568C8.6 18.4597 9.00294 18.0568 9.5 18.0568C9.99706 18.0568 10.4 18.4597 10.4 18.9568V20.5568H12C12.4971 20.5568 12.9 20.9597 12.9 21.4568C12.9 21.9538 12.4971 22.3568 12 22.3568H10.4V23.9568C10.4 24.4538 9.99706 24.8568 9.5 24.8568C9.00294 24.8568 8.6 24.4538 8.6 23.9568V22.3568H7C6.50294 22.3568 6.1 21.9538 6.1 21.4568Z" fill="#AAB4BF"/>
</svg>
