<svg width="24" height="24" viewBox="0 0 24 24" fill="none" xmlns="http://www.w3.org/2000/svg">
<g id="24/ic-close-24">
<path id="Subtract" fill-rule="evenodd" clip-rule="evenodd" d="M12 2C6.47715 2 2 6.47715 2 12C2 17.5228 6.47715 22 12 22C17.5228 22 22 17.5228 22 12C22 6.47715 17.5228 2 12 2ZM17.0134 9.39594C17.3701 8.97434 17.3175 8.34336 16.8959 7.98661C16.4743 7.62987 15.8434 7.68245 15.4866 8.10406L10.6559 13.813L8.42267 11.7828C8.01402 11.4113 7.38157 11.4414 7.01006 11.8501C6.63855 12.2587 6.66867 12.8912 7.07733 13.2627L10.0773 15.9899C10.2781 16.1725 10.5445 16.2656 10.8153 16.2479C11.0861 16.2301 11.3381 16.1031 11.5134 15.8959L17.0134 9.39594Z" fill="white"/>
</g>
</svg>
