<svg width="16" height="16" viewBox="0 0 16 16" fill="none" xmlns="http://www.w3.org/2000/svg">
<g clip-path="url(#clip0_28_17)">
<path d="M8 16C12.4183 16 16 12.4183 16 8C16 3.58172 12.4183 0 8 0C3.58172 0 0 3.58172 0 8C0 12.4183 3.58172 16 8 16Z" fill="white"/>
<path fill-rule="evenodd" clip-rule="evenodd" d="M6.03033 4.96967C5.73744 4.67678 5.26256 4.67678 4.96967 4.96967C4.67678 5.26256 4.67678 5.73744 4.96967 6.03033L6.93934 8L4.96967 9.96967C4.67678 10.2626 4.67678 10.7374 4.96967 11.0303C5.26256 11.3232 5.73744 11.3232 6.03033 11.0303L8 9.06066L9.96967 11.0303C10.2626 11.3232 10.7374 11.3232 11.0303 11.0303C11.3232 10.7374 11.3232 10.2626 11.0303 9.96967L9.06066 8L11.0303 6.03033C11.3232 5.73744 11.3232 5.26256 11.0303 4.96967C10.7374 4.67678 10.2626 4.67678 9.96967 4.96967L8 6.93934L6.03033 4.96967Z" fill="#000000"/>
</g>
<defs>
<clipPath id="clip0_28_17">
<rect width="16" height="16" fill="white"/>
</clipPath>
</defs>
</svg>
