<svg width="24" height="24" viewBox="0 0 24 24" fill="none" xmlns="http://www.w3.org/2000/svg">
<path fill-rule="evenodd" clip-rule="evenodd" d="M8.96874 3.25C10.3159 0.916665 13.6841 0.916668 15.0312 3.25L21.959 15.25C23.3061 17.5833 21.622 20.5 18.9277 20.5H5.07225C2.37795 20.5 0.693853 17.5833 2.041 15.25L8.96874 3.25ZM13.2988 4.25C12.7214 3.25012 11.2785 3.25012 10.7012 4.25L3.77245 16.25C3.19524 17.25 3.9176 18.5 5.07225 18.5H18.9277C20.0824 18.5 20.8047 17.25 20.2275 16.25L13.2988 4.25ZM11 8V12C11 12.5523 11.4477 13 12 13C12.5523 13 13 12.5523 13 12V8C13 7.44772 12.5523 7 12 7C11.4477 7 11 7.44772 11 8ZM13.125 15.5C13.125 16.0824 12.6825 16.5615 12.1152 16.6191L12 16.625C11.3787 16.625 10.875 16.1213 10.875 15.5C10.875 14.8787 11.3787 14.375 12 14.375L12.1152 14.3809C12.6825 14.4385 13.125 14.9176 13.125 15.5Z" fill="#FF9A50"/>
</svg>
