<svg width="32" height="32" viewBox="0 0 32 32" fill="none" xmlns="http://www.w3.org/2000/svg">
  <path fill-rule="evenodd" clip-rule="evenodd" d="M8 11H24V22.6667C24 25.6122 21.6122 28 18.6667 28H13.3333C10.3878 28 8 25.6122 8 22.6667V11ZM13.25 14.666C13.9404 14.666 14.5 15.2257 14.5 15.916L14.5 21.416C14.5 22.1064 13.9404 22.666 13.25 22.666C12.5596 22.666 12 22.1064 12 21.416L12 15.916C12 15.2257 12.5596 14.666 13.25 14.666ZM20 15.916C20 15.2257 19.4404 14.666 18.75 14.666C18.0596 14.666 17.5 15.2257 17.5 15.916V21.416C17.5 22.1064 18.0596 22.666 18.75 22.666C19.4404 22.666 20 22.1064 20 21.416V15.916Z" fill="#AAB4BF"/>
  <line x1="6.25" y1="9.75" x2="25.75" y2="9.75" stroke="#AAB4BF" stroke-width="2.5" stroke-linecap="round"/>
  <path d="M12 9V6.5C12 5.11929 13.1193 4 14.5 4H17.5C18.8807 4 20 5.11929 20 6.5V9" stroke="#AAB4BF" stroke-width="2.5" stroke-linecap="round"/>
</svg>
