<svg width="16" height="16" viewBox="0 0 16 16" fill="none" xmlns="http://www.w3.org/2000/svg">
<path d="M10.7933 1.33334H5.20667C2.78 1.33334 1.33333 2.78 1.33333 5.20667V10.7867C1.33333 13.22 2.78 14.6667 5.20667 14.6667H10.7867C13.2133 14.6667 14.66 13.22 14.66 10.7933V5.20667C14.6667 2.78 13.22 1.33334 10.7933 1.33334ZM7.3 11.6733C7.10667 11.8667 6.74 12.0533 6.47333 12.0933L4.83333 12.3267C4.77333 12.3333 4.71333 12.34 4.65333 12.34C4.38 12.34 4.12667 12.2467 3.94667 12.0667C3.72667 11.8467 3.63333 11.5267 3.68667 11.1733L3.92 9.53334C3.96 9.26 4.14 8.9 4.34 8.70667L6.97711 6.06956C7.13498 5.91169 7.40031 5.97038 7.49333 6.17334C7.56 6.31334 7.63333 6.46 7.71333 6.59334C7.78 6.70667 7.85333 6.81334 7.91333 6.89334C7.98667 7.00667 8.07333 7.11334 8.12667 7.17334C8.16 7.22 8.18667 7.25334 8.2 7.26667C8.36667 7.46667 8.56 7.65334 8.72667 7.79334C8.78222 7.84889 8.84413 7.89825 8.90575 7.94699C8.97393 8.00092 9.04015 8.0519 9.1 8.09334C9.20667 8.17334 9.31333 8.24667 9.42667 8.30667C9.56 8.38667 9.70667 8.46 9.85333 8.53334C10.0497 8.61871 10.1073 8.88479 9.95543 9.03569L7.3 11.6733ZM11.58 7.39334L10.9667 8.01334C10.9267 8.05334 10.8733 8.07334 10.82 8.07334C10.7796 8.07334 10.7403 8.06121 10.7016 8.04951C9.37567 7.6488 8.32109 6.58049 7.94 5.24667C7.92 5.17334 7.94 5.09334 7.99333 5.04667L8.61333 4.42667C9.62667 3.41334 10.5933 3.43334 11.5867 4.42667C12.0933 4.93334 12.34 5.42 12.34 5.92667C12.3333 6.40667 12.0867 6.88667 11.58 7.39334Z" fill="currentColor"/>
</svg>
