<svg width="46" height="46" viewBox="0 0 46 46" fill="none" xmlns="http://www.w3.org/2000/svg">
  <path d="M0 23C0 10.2975 10.2975 0 23 0C35.7025 0 46 10.2975 46 23C46 35.7025 35.7025 46 23 46C10.2975 46 0 35.7025 0 23Z" fill="#564CE2"/>
  <path fill-rule="evenodd" clip-rule="evenodd" d="M30.8839 17.3839C31.1183 17.1495 31.25 16.8315 31.25 16.5C31.25 16.1685 31.1183 15.8505 30.8839 15.6161L28.3839 13.1161C27.8957 12.628 27.1043 12.628 26.6161 13.1161C26.128 13.6043 26.128 14.3957 26.6161 14.8839L26.9822 15.25H21C19.2159 15.25 17.6321 15.8501 16.4911 16.9911C15.3501 18.1321 14.75 19.7159 14.75 21.5V22C14.75 22.6904 15.3096 23.25 16 23.25C16.6904 23.25 17.25 22.6904 17.25 22V21.5C17.25 20.2841 17.6499 19.3679 18.2589 18.7589C18.8679 18.1499 19.7841 17.75 21 17.75H26.9822L26.6161 18.1161C26.128 18.6043 26.128 19.3957 26.6161 19.8839C27.1043 20.372 27.8957 20.372 28.3839 19.8839L30.8839 17.3839ZM15.1161 28.6161C14.8817 28.8505 14.75 29.1685 14.75 29.5C14.75 29.8315 14.8817 30.1495 15.1161 30.3839L17.6161 32.8839C18.1043 33.372 18.8957 33.372 19.3839 32.8839C19.872 32.3957 19.872 31.6043 19.3839 31.1161L19.0178 30.75H25C26.7841 30.75 28.3679 30.1499 29.5089 29.0089C30.6499 27.8679 31.25 26.2841 31.25 24.5V24C31.25 23.3096 30.6904 22.75 30 22.75C29.3096 22.75 28.75 23.3096 28.75 24V24.5C28.75 25.7159 28.3501 26.6321 27.7411 27.2411C27.1321 27.8501 26.2159 28.25 25 28.25H19.0178L19.3839 27.8839C19.872 27.3957 19.872 26.6043 19.3839 26.1161C18.8957 25.628 18.1043 25.628 17.6161 26.1161L15.1161 28.6161Z" fill="#FFF"/>
</svg>
