<svg width="32" height="32" viewBox="0 0 32 32" fill="none" xmlns="http://www.w3.org/2000/svg">
  <path fill-rule="evenodd" clip-rule="evenodd" d="M16 29C23.1797 29 29 23.1797 29 16C29 8.8203 23.1797 3 16 3C8.8203 3 3 8.8203 3 16C3 23.1797 8.8203 29 16 29ZM16.8501 7.75C16.8501 7.28056 16.4695 6.9 16.0001 6.9C15.5306 6.9 15.1501 7.28056 15.1501 7.75V8.98829L14.6139 8.45183C14.282 8.11981 13.7438 8.11969 13.4118 8.45156C13.0798 8.78342 13.0796 9.32161 13.4115 9.65364L15.1501 11.393V14.5272L12.4339 12.9586L11.7987 10.5858C11.6772 10.1324 11.2112 9.86318 10.7577 9.98458C10.3043 10.106 10.0351 10.572 10.1565 11.0255L10.3522 11.7564L9.09183 11.0286C8.68531 10.7938 8.16544 10.933 7.93067 11.3396C7.69591 11.7461 7.83514 12.266 8.24167 12.5007L9.50457 13.23L8.77034 13.4267C8.31688 13.5481 8.04773 14.0142 8.16917 14.4676C8.29061 14.9211 8.75667 15.1903 9.21013 15.0688L11.5865 14.4324L14.3004 15.9996L11.5849 17.5679L9.21013 16.9319C8.75667 16.8104 8.29061 17.0796 8.16917 17.533C8.04773 17.9865 8.31688 18.4526 8.77034 18.574L9.50293 18.7702L8.24167 19.4986C7.83514 19.7333 7.69591 20.2532 7.93067 20.6597C8.16544 21.0663 8.68531 21.2055 9.09183 20.9707L10.3526 20.2426L10.1565 20.9752C10.0351 21.4287 10.3043 21.8947 10.7577 22.0161C11.2112 22.1375 11.6772 21.8683 11.7987 21.4148L12.4343 19.0404L15.1501 17.4721V20.607L13.4115 22.3463C13.0796 22.6784 13.0798 23.2165 13.4118 23.5484C13.7438 23.8803 14.282 23.8802 14.6139 23.5481L15.1501 23.0117V24.25C15.1501 24.7194 15.5306 25.1 16.0001 25.1C16.4695 25.1 16.8501 24.7194 16.8501 24.25V23.0118L17.3862 23.5481C17.7181 23.8802 18.2562 23.8803 18.5883 23.5484C18.9203 23.2165 18.9204 22.6784 18.5885 22.3463L16.8501 20.6071V17.4721L19.5655 19.0402L20.2012 21.4148C20.3226 21.8683 20.7887 22.1375 21.2422 22.0161C21.6956 21.8947 21.9648 21.4287 21.8434 20.9752L21.6472 20.2424L22.9083 20.9707C23.3149 21.2055 23.8347 21.0663 24.0695 20.6597C24.3043 20.2532 24.165 19.7333 23.7585 19.4986L22.4971 18.7701L23.2296 18.574C23.683 18.4526 23.9522 17.9865 23.8307 17.533C23.7093 17.0796 23.2432 16.8104 22.7898 16.9319L20.4152 17.5678L17.6998 15.9996L20.4136 14.4324L22.7898 15.0688C23.2432 15.1903 23.7093 14.9211 23.8307 14.4676C23.9522 14.0142 23.683 13.5481 23.2296 13.4267L22.4955 13.2301L23.7585 12.5007C24.165 12.266 24.3043 11.7461 24.0695 11.3396C23.8347 10.933 23.3149 10.7938 22.9083 11.0286L21.6477 11.7566L21.8434 11.0255C21.9648 10.572 21.6956 10.106 21.2422 9.98458C20.7887 9.86318 20.3226 10.1324 20.2012 10.5858L19.5659 12.9588L16.8501 14.5272V11.3929L18.5885 9.65364C18.9204 9.32161 18.9203 8.78342 18.5883 8.45156C18.2562 8.11969 17.7181 8.11981 17.3862 8.45183L16.8501 8.98818V7.75Z" fill="#AAB4BF"/>
</svg>
