<svg width="24" height="24" viewBox="0 0 24 24" fill="none" xmlns="http://www.w3.org/2000/svg">
<path d="M5.5 4.5L18.5 18.5" stroke="white" stroke-width="2" stroke-linecap="round"/>
<path d="M14.2702 2.00008C14.2702 1.55702 13.9786 1.16678 13.5537 1.04114C13.1289 0.915488 12.672 1.08439 12.431 1.45618L7.86386 8.50262L9.26748 10.0142L14.0017 15.1126L15.4053 16.6242L19.3391 10.5558C19.5383 10.2486 19.5536 9.85717 19.3792 9.53533C19.2047 9.21348 18.8683 9.01268 18.5023 9.01186L14.2702 9.00233V2.00008Z" fill="white"/>
<path d="M14.2833 18.3551L12.8797 16.8435L9.30782 12.9969L6.74193 10.2336L4.66085 13.4444C4.46174 13.7516 4.4464 14.143 4.62086 14.4649C4.79531 14.7867 5.13168 14.9875 5.49775 14.9883L9.72872 14.9978V22.0001C9.72872 22.4431 10.0202 22.8334 10.4451 22.959C10.87 23.0847 11.3268 22.9158 11.5678 22.544L14.2833 18.3551Z" fill="white"/>
</svg>
