<svg width="69" height="68" viewBox="0 0 69 68" fill="none" xmlns="http://www.w3.org/2000/svg">
<g clip-path="url(#clip0_11072_127303)">
<path fill-rule="evenodd" clip-rule="evenodd" d="M34.5 68C53.2777 68 68.5 52.7777 68.5 34C68.5 15.2223 53.2777 0 34.5 0C15.7223 0 0.5 15.2223 0.5 34C0.5 52.7777 15.7223 68 34.5 68ZM34.5 16.7875C36.3778 16.7875 37.9 18.3097 37.9 20.1875V32.0627L48.1154 38.1176C49.7307 39.075 50.2641 41.1607 49.3066 42.776C48.3492 44.3913 46.2635 44.9247 44.6482 43.9672L32.8296 36.962C32.6945 36.8857 32.5651 36.8003 32.4422 36.7068C32.0539 36.4124 31.7439 36.0463 31.5201 35.6384C31.3236 35.2818 31.1893 34.8861 31.1317 34.466C31.1066 34.2855 31.0959 34.1026 31.1 33.9192V20.1875C31.1 18.3097 32.6223 16.7875 34.5 16.7875Z" fill="#E4E6EA"/>
</g>
<defs>
<clipPath id="clip0_11072_127303">
<rect width="68" height="68" fill="white" transform="translate(0.5)"/>
</clipPath>
</defs>
</svg>
