<svg width="32" height="32" viewBox="0 0 32 32" fill="none" xmlns="http://www.w3.org/2000/svg">
<circle cx="16" cy="16" r="16" fill="#564CE2"/>
<path d="M14.9082 22.4134C15.2616 22.4688 15.624 22.4991 15.9948 22.5003H16.0193C21.1376 22.5003 24.6725 16.8778 24.8198 16.6381C25.0606 16.2461 25.059 15.753 24.8157 15.3625C24.7667 15.2828 24.3431 14.6078 23.6106 13.7422" stroke="white" stroke-width="2" stroke-linecap="round"/>
<mask id="mask0_8922_21413" style="mask-type:alpha" maskUnits="userSpaceOnUse" x="11" y="11" width="8" height="8">
<path d="M16 11L11 16.5L13.5 18.5L18.5 13.5L16 11Z" fill="white"/>
</mask>
<g mask="url(#mask0_8922_21413)">
<circle cx="16" cy="16" r="2.25" fill="white" stroke="white" stroke-width="2"/>
</g>
<path d="M23 9L9 23" stroke="white" stroke-width="2" stroke-linecap="round"/>
<path d="M20.7633 11.1196C19.4275 10.2016 17.8134 9.5 15.9996 9.5C10.865 9.5 7.33005 15.1225 7.18276 15.3622C6.93908 15.7544 6.93908 16.2496 7.18276 16.6419C7.27624 16.794 8.73423 19.1061 11.0986 20.7794" stroke="white" stroke-width="2"/>
</svg>
