<svg width="16" height="16" viewBox="0 0 16 16" fill="none" xmlns="http://www.w3.org/2000/svg">
<path fill-rule="evenodd" clip-rule="evenodd" d="M16 8C16 12.4183 12.4183 16 8 16C3.58172 16 0 12.4183 0 8C0 3.58172 3.58172 0 8 0C12.4183 0 16 3.58172 16 8ZM9 12C9.00001 12.5523 8.55229 13 8.00001 13C7.44772 13 7.00001 12.5523 7.00001 12L7.00001 7.99997C7.00001 7.4477 7.44771 7 7.99998 7C8.55225 7 8.99995 7.4477 8.99995 7.99996L9 12ZM7.99991 3C7.44763 3 6.99991 3.44772 6.99991 4C6.99991 4.55228 7.44763 5 7.99991 5C8.5522 5 8.99991 4.55228 8.99991 4C8.99991 3.44772 8.5522 3 7.99991 3Z" fill="#AAB4BF"/>
</svg>
