<svg width="32" height="32" viewBox="0 0 32 32" fill="none" xmlns="http://www.w3.org/2000/svg">
<path d="M26.6051 20.6093C26.6462 20.8471 26.6673 21.0887 26.6673 21.3333C26.6673 25.0152 21.8917 28 16.0007 28C10.1096 28 5.33398 25.0152 5.33398 21.3333C5.33398 21.0887 5.35507 20.8471 5.39616 20.6093C7.83342 23.4809 11.6767 25.3333 16.0007 25.3333C20.3174 25.3333 24.1549 23.4871 26.5918 20.6241L26.6051 20.6093ZM26.6051 15.276C26.6462 15.5138 26.6673 15.7554 26.6673 16C26.6673 19.6819 21.8917 22.6667 16.0007 22.6667C10.1096 22.6667 5.33398 19.6819 5.33398 16C5.33398 15.7554 5.35507 15.5138 5.39616 15.276C7.83342 18.1475 11.6767 20 16.0007 20C20.3174 20 24.1549 18.1538 26.5918 15.2908L26.6051 15.276ZM16.0007 4C21.8917 4 26.6673 6.98477 26.6673 10.6667C26.6673 14.3486 21.8917 17.3333 16.0007 17.3333C10.1096 17.3333 5.33398 14.3486 5.33398 10.6667C5.33398 6.98477 10.1096 4 16.0007 4Z" fill="#F7F8F9"/>
</svg>
