<svg width="32" height="32" viewBox="0 0 32 32" fill="none" xmlns="http://www.w3.org/2000/svg">
  <path fill-rule="evenodd" clip-rule="evenodd" d="M5.5 16C5.5 13.2386 7.73858 11 10.5 11H21.5C24.2614 11 26.5 13.2386 26.5 16V23C26.5 25.7614 24.2614 28 21.5 28H10.5C7.73858 28 5.5 25.7614 5.5 23V16ZM17.25 19.8715C17.3705 19.7909 17.4848 19.6974 17.5912 19.591C18.4699 18.7123 18.4699 17.2877 17.5912 16.409C16.7126 15.5303 15.2879 15.5303 14.4093 16.409C13.5306 17.2877 13.5306 18.7123 14.4093 19.591C14.5155 19.6972 14.6297 19.7906 14.75 19.8712V22C14.75 22.6904 15.3096 23.25 16 23.25C16.6904 23.25 17.25 22.6904 17.25 22V19.8715Z" fill="#AAB4BF"/>
  <path d="M11 13V10C11 7.23858 13.2386 5 16 5V5C18.7614 5 21 7.23858 21 10V13" stroke="#AAB4BF" stroke-width="2.5" stroke-linecap="round"/>
</svg>
