<svg width="44" height="27" viewBox="0 0 44 27" fill="none" xmlns="http://www.w3.org/2000/svg">
<path d="M27.9478 2.88776H16.0508V24.1128H27.9478V2.88776Z" fill="#FF415C"/>
<path d="M16.8069 13.5C16.8069 9.1875 18.8464 5.3625 21.9811 2.8875C19.6773 1.0875 16.7691 0 13.5966 0C6.08069 0 0 6.0375 0 13.5C0 20.9625 6.08069 27 13.5966 27C16.7691 27 19.6773 25.9125 21.9811 24.1125C18.8464 21.675 16.8069 17.8125 16.8069 13.5Z" fill="#F6C046"/>
<path d="M44.0006 13.5C44.0006 20.9625 37.92 27 30.4041 27C27.2315 27 24.3234 25.9125 22.0195 24.1125C25.1921 21.6375 27.1938 17.8125 27.1938 13.5C27.1938 9.1875 25.1543 5.3625 22.0195 2.8875C24.3234 1.0875 27.2315 0 30.4041 0C37.92 0 44.0006 6.075 44.0006 13.5Z" fill="#564CE2"/>
</svg>
