<svg width="24" height="24" viewBox="0 0 24 24" fill="none" xmlns="http://www.w3.org/2000/svg">
<path fill-rule="evenodd" clip-rule="evenodd" d="M12.0006 4.06641C8.52905 4.06641 5.71484 6.88062 5.71484 10.3521V14.0202C4.74534 14.1586 4 14.9922 4 16C4 17.1046 4.89543 18 6 18H18C19.1046 18 20 17.1046 20 16C20 14.9926 19.2552 14.1592 18.2863 14.0203V10.3521C18.2863 6.88062 15.4721 4.06641 12.0006 4.06641Z" fill="#AAB4BF"/>
<path d="M10.9336 4.06667C10.9336 3.47756 11.4112 3 12.0003 3C12.5894 3 13.0669 3.47756 13.0669 4.06667V5.13333H10.9336V4.06667Z" fill="#AAB4BF" stroke="#AAB4BF" stroke-width="1.5" stroke-linecap="round" stroke-linejoin="round"/>
<path d="M10 21H14" stroke="#AAB4BF" stroke-width="2" stroke-linecap="round"/>
</svg>
