<svg width="16" height="16" viewBox="0 0 16 16" fill="none" xmlns="http://www.w3.org/2000/svg">
<g opacity="0.5">
<path d="M4 13.3333L12.6667 2" stroke="white" stroke-width="1.54688" stroke-linecap="round" stroke-linejoin="round"/>
<path d="M9.41055 6.25871C7.18721 5.84004 4.78588 6.41871 3.06055 8.00071" stroke="white" stroke-width="1.54688" stroke-linecap="round" stroke-linejoin="round"/>
<path d="M11.6758 3.29662C8.13583 2.03595 3.93183 2.67128 1.0625 5.20328" stroke="white" stroke-width="1.54688" stroke-linecap="round" stroke-linejoin="round"/>
<path d="M12.9389 7.99849C12.6518 7.73467 12.3451 7.50091 12.0234 7.29492" stroke="white" stroke-width="1.54688" stroke-linecap="round" stroke-linejoin="round"/>
<path d="M14.9385 5.20118C14.6959 4.98751 14.4407 4.79297 14.1777 4.61133" stroke="white" stroke-width="1.54688" stroke-linecap="round" stroke-linejoin="round"/>
<path d="M10.9486 10.5473C10.685 10.2854 10.3944 10.0668 10.0859 9.89062" stroke="white" stroke-width="1.54688" stroke-linecap="round" stroke-linejoin="round"/>
<path d="M7.99835 12.8333C7.86035 12.8333 7.74835 12.9453 7.74969 13.0833C7.74902 13.2213 7.86102 13.3333 7.99902 13.3333C8.13702 13.3333 8.24902 13.2213 8.24902 13.0833C8.24902 12.9453 8.13702 12.8333 7.99835 12.8333" stroke="white" stroke-width="1.54688" stroke-linecap="round" stroke-linejoin="round"/>
</g>
</svg>
