<svg width="20" height="20" viewBox="0 0 20 20" fill="none" xmlns="http://www.w3.org/2000/svg">
<path fill-rule="evenodd" clip-rule="evenodd" d="M10 20C4.47846 20 0 15.5231 0 10C0 4.47692 4.47846 0 10 0C15.5231 0 20 4.47692 20 10C20 15.5231 15.5231 20 10 20ZM10.6353 5.48619C11.0091 5.64092 11.2528 6.00561 11.2528 6.41016V12.4342H11.9998C12.5521 12.4342 12.9998 12.882 12.9998 13.4342C12.9998 13.9865 12.5521 14.4342 11.9998 14.4342H8.50391C7.95162 14.4342 7.50391 13.9865 7.50391 13.4342C7.50391 12.882 7.95162 12.4342 8.50391 12.4342H9.25281V8.82595L9.20743 8.87137C8.81709 9.26207 8.18392 9.26236 7.79322 8.87202C7.40252 8.48168 7.40222 7.84851 7.79257 7.45781L9.54538 5.70338C9.83131 5.41719 10.2615 5.33146 10.6353 5.48619Z" fill="white"/>
</svg>
