<svg width="24" height="24" viewBox="0 0 24 24" fill="none" xmlns="http://www.w3.org/2000/svg">
<path fill-rule="evenodd" clip-rule="evenodd" d="M2 6C2 3.79086 3.79086 2 6 2H18C20.2091 2 22 3.79086 22 6V18C22 20.2091 20.2091 22 18 22H6C3.79086 22 2 20.2091 2 18V6ZM20 17.2504V13.5901C20 13.2954 19.8701 13.0158 19.6449 12.8258L16.1309 9.86055C15.5494 9.36988 14.6927 9.39226 14.1376 9.91263L10.9258 12.9237C10.5353 13.2898 9.92344 13.2752 9.5508 12.8909C8.95406 12.2755 7.95968 12.2985 7.39203 12.9409L4.25067 16.4955C4.08915 16.6783 4 16.9138 4 17.1577V17.2504C4 18.7692 5.23122 20.0004 6.75 20.0004H17.25C18.7688 20.0004 20 18.7692 20 17.2504ZM8.41421 5.58579C7.63316 4.80474 6.36684 4.80474 5.58579 5.58579C4.80474 6.36684 4.80474 7.63316 5.58579 8.41421C6.36684 9.19526 7.63316 9.19526 8.41421 8.41421C9.19526 7.63316 9.19526 6.36684 8.41421 5.58579Z" fill="white"/>
</svg>
