<svg width="32" height="32" viewBox="0 0 32 32" fill="none" xmlns="http://www.w3.org/2000/svg">
  <path fill-rule="evenodd" clip-rule="evenodd" d="M7.94048 11.8664C8.01054 10.8158 8.88321 10 9.93626 10H22.0643C23.1173 10 23.99 10.8158 24.0601 11.8665L24.856 23.8004C24.9716 25.5319 23.5975 27 21.8623 27H10.1383C8.40303 27 7.02897 25.5319 7.14448 23.8004M7.14448 23.8004L7.94048 11.8664L7.14448 23.8004ZM11 22C11 21.4477 11.4477 21 12 21H20C20.5523 21 21 21.4477 21 22C21 22.5523 20.5523 23 20 23H12C11.4477 23 11 22.5523 11 22Z" fill="#AAB4BF"/>
  <path d="M19.001 13V9V9V9C19.001 7.343 17.658 6 16.001 6H16C14.343 6 13 7.343 13 9V9V9V13" stroke="#AAB4BF" stroke-width="2" stroke-linecap="round" stroke-linejoin="round"/>
</svg>
