<svg width="13" height="14" viewBox="0 0 13 14" fill="none" xmlns="http://www.w3.org/2000/svg">
<g clip-path="url(#clip0_7757_96018)">
<path d="M6.13504 0.719484C6.28433 0.426838 6.71567 0.426839 6.86496 0.719484L8.55828 4.03888C8.61756 4.15509 8.73215 4.23564 8.86471 4.25427L12.6511 4.78656C12.9849 4.83349 13.1182 5.23037 12.8767 5.45816L10.1368 8.04195C10.0409 8.1324 9.99711 8.26273 10.0198 8.39046L10.6665 12.0388C10.7236 12.3605 10.3746 12.6058 10.076 12.4539L6.68939 10.7314C6.57082 10.6711 6.42918 10.6711 6.31061 10.7314L2.92397 12.4539C2.6254 12.6058 2.27643 12.3605 2.33346 12.0388L2.98025 8.39046C3.00289 8.26273 2.95912 8.1324 2.8632 8.04195L0.123349 5.45816C-0.118203 5.23037 0.0150889 4.83349 0.348905 4.78656L4.13529 4.25427C4.26785 4.23564 4.38244 4.15509 4.44172 4.03888L6.13504 0.719484Z" fill="#564CE2"/>
</g>
<defs>
<clipPath id="clip0_7757_96018">
<rect width="13" height="13" fill="white" transform="translate(0 0.5)"/>
</clipPath>
</defs>
</svg>
