<svg width="32" height="32" viewBox="0 0 32 32" fill="none" xmlns="http://www.w3.org/2000/svg">
  <path fill-rule="evenodd" clip-rule="evenodd" d="M16 29C23.1797 29 29 23.1797 29 16C29 8.8203 23.1797 3 16 3C8.8203 3 3 8.8203 3 16C3 23.1797 8.8203 29 16 29ZM8.6665 18.501C8.11422 18.501 7.6665 18.9487 7.6665 19.501C7.6665 20.0533 8.11422 20.501 8.6665 20.501H9.1665V22.6669C9.1665 23.2192 9.61422 23.6669 10.1665 23.6669C10.7188 23.6669 11.1665 23.2192 11.1665 22.6669V20.501H11.6665C12.2188 20.501 12.6665 20.0533 12.6665 19.501C12.6665 18.9487 12.2188 18.501 11.6665 18.501H8.6665ZM19.3333 19.501C19.3333 18.9487 19.781 18.501 20.3333 18.501H23.3333C23.8855 18.501 24.3333 18.9487 24.3333 19.501C24.3333 20.0533 23.8855 20.501 23.3333 20.501H22.8332V22.6673C22.8332 23.2196 22.3855 23.6673 21.8332 23.6673C21.2809 23.6673 20.8332 23.2196 20.8332 22.6673V20.501H20.3333C19.781 20.501 19.3333 20.0533 19.3333 19.501ZM14.4998 11.001C13.9475 11.001 13.4998 11.4487 13.4998 12.001C13.4998 12.5533 13.9475 13.001 14.4998 13.001H17.4998C18.052 13.001 18.4998 12.5533 18.4998 12.001C18.4998 11.4487 18.052 11.001 17.4998 11.001H16.9998V9.33398C16.9998 8.7817 16.5521 8.33398 15.9998 8.33398C15.4476 8.33398 14.9998 8.7817 14.9998 9.33398V11.001H14.4998ZM10.1665 8.33398C10.7188 8.33398 11.1665 8.7817 11.1665 9.33398V16.0007C11.1665 16.5529 10.7188 17.0007 10.1665 17.0007C9.61422 17.0007 9.1665 16.5529 9.1665 16.0007V9.33398C9.1665 8.7817 9.61422 8.33398 10.1665 8.33398ZM15.9998 15.001C16.552 15.001 16.9998 15.4487 16.9998 16.001V22.6677C16.9998 23.2199 16.552 23.6677 15.9998 23.6677C15.4475 23.6677 14.9998 23.2199 14.9998 22.6677V16.001C14.9998 15.4487 15.4475 15.001 15.9998 15.001ZM21.8332 8.33398C22.3855 8.33398 22.8332 8.7817 22.8332 9.33398V16.0007C22.8332 16.5529 22.3855 17.0007 21.8332 17.0007C21.2809 17.0007 20.8332 16.5529 20.8332 16.0007V9.33398C20.8332 8.7817 21.2809 8.33398 21.8332 8.33398Z" fill="#AAB4BF"/>
</svg>
