<svg width="24" height="24" viewBox="0 0 24 24" fill="none" xmlns="http://www.w3.org/2000/svg">
<path fill-rule="evenodd" clip-rule="evenodd" d="M5.1773 21.0002H18.8382C21.1399 21.0002 22.5842 18.5153 21.445 16.5153L14.6362 4.56202C13.4872 2.545 10.5812 2.54103 9.42672 4.5549L2.5746 16.5082C1.42813 18.5082 2.87201 21.0002 5.1773 21.0002ZM11.9986 18.0002C12.5509 18.0002 12.9986 17.5525 12.9986 17.0002C12.9986 16.4479 12.5509 16.0002 11.9986 16.0002C11.4464 16.0002 10.9986 16.4479 10.9986 17.0002C10.9986 17.5525 11.4464 18.0002 11.9986 18.0002ZM11.9986 14.0002C12.5509 14.0002 12.9986 13.5525 12.9986 13.0002V10.0002C12.9986 9.44789 12.5509 9.00017 11.9986 9.00017C11.4464 9.00017 10.9986 9.44789 10.9986 10.0002V13.0002C10.9986 13.5525 11.4464 14.0002 11.9986 14.0002Z" fill="#AAB4BF"/>
</svg>
