<svg width="69" height="68" viewBox="0 0 69 68" fill="none" xmlns="http://www.w3.org/2000/svg">
<path fill-rule="evenodd" clip-rule="evenodd" d="M0.5 34C0.5 15.2223 15.7223 0 34.5 0C53.2777 0 68.5 15.2223 68.5 34C68.5 52.7777 53.2777 68 34.5 68C15.7223 68 0.5 52.7777 0.5 34Z" fill="#E4E6EA"/>
<path fill-rule="evenodd" clip-rule="evenodd" d="M34.4968 38.874C45.8915 38.874 55.5445 41.6329 55.5445 46.0128C55.5445 49.4971 48.3515 58.3026 34.4968 58.3026C20.6421 58.3026 13.4492 49.4971 13.4492 46.0164C13.4492 41.6329 23.1022 38.874 34.4968 38.874ZM34.4994 13.1982C39.8666 13.1982 44.2137 17.5454 44.2137 22.9125C44.2137 28.2797 39.8666 32.6268 34.4994 32.6268C29.1323 32.6268 24.7852 28.2797 24.7852 22.9125C24.7852 17.5454 29.1323 13.1982 34.4994 13.1982Z" fill="white"/>
</svg>
