<svg width="24" height="24" viewBox="0 0 24 24" fill="none" xmlns="http://www.w3.org/2000/svg">
<path fill-rule="evenodd" clip-rule="evenodd" d="M15.9392 2.13218H15.9391C15.1493 1.86887 14.2785 2.06451 13.6772 2.64041L13.5825 2.73115C12.7009 3.5755 11.306 3.56024 10.4431 2.69681L10.4002 2.65387C9.71718 1.97051 8.67349 1.80099 7.80934 2.23307C7.0647 2.60539 6.58738 3.35937 6.56939 4.19171L6.56655 4.32298C6.54017 5.54339 5.5431 6.51887 4.3224 6.51854H4.26165C3.29551 6.51827 2.43764 7.13642 2.13213 8.05298C1.86886 8.8428 2.06448 9.71345 2.64031 10.3147L2.73115 10.4096C3.57544 11.2912 3.56016 12.686 2.69676 13.549L2.65377 13.5919C1.97048 14.2749 1.80101 15.3186 2.23309 16.1827C2.60541 16.9274 3.35939 17.4047 4.19175 17.4227L4.32302 17.4255C5.54343 17.4519 6.51891 18.449 6.51858 19.6697V19.7304C6.51832 20.6966 7.13646 21.5544 8.05303 21.8599C8.84285 22.1232 9.71351 21.9276 10.3148 21.3517L10.4096 21.261C11.2912 20.4166 12.686 20.4319 13.549 21.2953L13.5919 21.3383C14.2749 22.0216 15.3186 22.1912 16.1827 21.7591C16.9274 21.3868 17.4047 20.6328 17.4227 19.8004L17.4256 19.6692C17.4519 18.4487 18.449 17.4733 19.6697 17.4736H19.7304C20.6966 17.4739 21.5545 16.8557 21.86 15.9391C22.1232 15.1493 21.9276 14.2787 21.3518 13.6774L21.261 13.5826C20.4167 12.701 20.4319 11.3062 21.2953 10.4432L21.3383 10.4003C22.0217 9.71731 22.1912 8.67361 21.7591 7.80946C21.3868 7.06479 20.6328 6.58745 19.8005 6.56946L19.6692 6.56661C18.4488 6.54023 17.4733 5.54316 17.4736 4.32246V4.26169C17.4739 3.29555 16.8557 2.4377 15.9392 2.13218ZM11.9998 15.4998C13.9328 15.4998 15.4998 13.9328 15.4998 11.9998C15.4998 10.0668 13.9328 8.49976 11.9998 8.49976C10.0668 8.49976 8.49976 10.0668 8.49976 11.9998C8.49976 13.9328 10.0668 15.4998 11.9998 15.4998Z" fill="#AAB4BF"/>
</svg>
