<svg width="32" height="32" viewBox="0 0 32 32" fill="none" xmlns="http://www.w3.org/2000/svg">
<path d="M6 27C4.39286 27 3 25.7 3 24.2V20.6C3 19 4.39286 17.8 6 17.8C7.71429 17.8 9 19.1 9 20.6V24.2C9 25.7 7.71429 27 6 27Z" fill="#F7F8F9"/>
<path d="M15 27C13.2857 27 12 25.7 12 24.2V15.1C12 13.5 13.3929 12.3 15 12.3C16.7143 12.3 18 13.6 18 15.1V24.2C18 25.7 16.7143 27 15 27Z" fill="#F7F8F9"/>
<path d="M24 27C22.2857 27 21 25.7 21 24.2V7.8C21 6.2 22.3929 5 24 5C25.6071 5 27 6.3 27 7.8V24.2C27 25.7 25.6071 27 24 27Z" fill="#F7F8F9"/>
</svg>
