<svg width="46" height="46" viewBox="0 0 46 46" fill="none" xmlns="http://www.w3.org/2000/svg">
<path d="M23 46C35.7025 46 46 35.7025 46 23C46 10.2975 35.7025 0 23 0C10.2975 0 0 10.2975 0 23C0 35.7025 10.2975 46 23 46Z" fill="#0098EA"/>
<path fill-rule="evenodd" clip-rule="evenodd" d="M16.5996 15.2003L29.4997 15.2002C29.956 15.2002 30.4121 15.2672 30.8887 15.4894C31.46 15.7557 31.7629 16.1755 31.9752 16.4859C31.9917 16.51 32.0071 16.5349 32.0214 16.5604C32.271 17.0046 32.3996 17.4843 32.3996 18.0002C32.3996 18.4904 32.283 19.0245 32.0214 19.49C32.019 19.4945 32.0164 19.4989 32.0139 19.5033L23.8638 33.5033C23.6841 33.8121 23.3533 34.0015 22.9961 34.0002C22.6388 33.999 22.3094 33.8072 22.1318 33.4972L14.1315 19.5271C14.1292 19.5233 14.1269 19.5195 14.1246 19.5157C13.9415 19.2139 13.6583 18.7474 13.6088 18.1453C13.5633 17.5915 13.6877 17.0367 13.9659 16.5557C14.2442 16.0746 14.663 15.69 15.1668 15.4546C15.707 15.2022 16.2544 15.2003 16.5996 15.2003ZM21.9996 17.2002H16.5996C16.2448 17.2002 16.1086 17.2221 16.0134 17.2666C15.8818 17.328 15.7712 17.4291 15.6973 17.557C15.6233 17.6849 15.5899 17.833 15.6021 17.9814C15.609 18.0664 15.6437 18.1637 15.8482 18.5009C15.8524 18.5079 15.8566 18.5151 15.8607 18.5222L21.9996 29.2418V17.2002ZM23.9996 17.2002V29.2948L30.2807 18.5052C30.3516 18.3764 30.3996 18.1903 30.3996 18.0002C30.3996 17.846 30.3677 17.7121 30.2962 17.5741C30.2212 17.4663 30.1755 17.4092 30.1373 17.3701C30.1045 17.3367 30.0793 17.3187 30.0437 17.3021C29.8952 17.2329 29.7432 17.2002 29.4997 17.2002H23.9996Z" fill="white"/>
</svg>
