<svg width="24" height="24" viewBox="0 0 24 24" fill="none" xmlns="http://www.w3.org/2000/svg">
<path fill-rule="evenodd" clip-rule="evenodd" d="M4 13.5H7V18.168C6.44772 18.168 6 18.6157 6 19.168C6 19.7203 6.44772 20.168 7 20.168H17.6364H19.1075C19.6006 20.168 20.0003 20.5677 20.0003 21.0608V21.2751C20.0003 21.7682 19.6006 22.168 19.1075 22.168H7V22.18C6.90882 22.18 6.81859 22.1759 6.72948 22.168H6.66699V22.1617C5.16685 21.9961 4 20.7243 4 19.18V13.5Z" fill="#AAB4BF"/>
<path fill-rule="evenodd" clip-rule="evenodd" d="M6.08333 2C4.93274 2 4 2.93274 4 4.08333V18.1667H17.9167C19.0673 18.1667 20 17.2339 20 16.0833V4.08333C20 2.93274 19.0673 2 17.9167 2H6.08333ZM11.999 5.5C12.5513 5.5 12.999 5.94772 12.999 6.5C12.999 7.05228 12.5513 7.5 11.999 7.5C11.4467 7.5 10.999 7.05228 10.999 6.5C10.999 5.94772 11.4467 5.5 11.999 5.5ZM11.999 9.5C12.5513 9.5 12.999 9.94772 12.999 10.5V13.5C12.999 14.0523 12.5513 14.5 11.999 14.5C11.4467 14.5 10.999 14.0523 10.999 13.5V10.5C10.999 9.94772 11.4467 9.5 11.999 9.5Z" fill="#AAB4BF"/>
</svg>
