<svg width="32" height="32" viewBox="0 0 32 32" fill="none" xmlns="http://www.w3.org/2000/svg">
<circle cx="20.5" cy="11.5" r="8.5" fill="white"/>
<circle cx="13" cy="19" r="12" fill="#564CE2"/>
<path fill-rule="evenodd" clip-rule="evenodd" d="M13 29C7.47846 29 3 24.5231 3 19C3 13.4769 7.47846 9 13 9C18.5231 9 23 13.4769 23 19C23 24.5231 18.5231 29 13 29ZM13.6353 14.4862C14.0091 14.6409 14.2528 15.0056 14.2528 15.4102V21.4342H14.9998C15.5521 21.4342 15.9998 21.882 15.9998 22.4342C15.9998 22.9865 15.5521 23.4342 14.9998 23.4342H11.5039C10.9516 23.4342 10.5039 22.9865 10.5039 22.4342C10.5039 21.882 10.9516 21.4342 11.5039 21.4342H12.2528V17.8259L12.2074 17.8714C11.8171 18.2621 11.1839 18.2624 10.7932 17.872C10.4025 17.4817 10.4022 16.8485 10.7926 16.4578L12.5454 14.7034C12.8313 14.4172 13.2615 14.3315 13.6353 14.4862Z" fill="white"/>
</svg>
