<svg width="32" height="32" viewBox="0 0 32 32" fill="none" xmlns="http://www.w3.org/2000/svg">
<path fill-rule="evenodd" clip-rule="evenodd" d="M29 16C29 23.1797 23.1797 29 16 29C8.8203 29 3 23.1797 3 16C3 8.8203 8.8203 3 16 3C23.1797 3 29 8.8203 29 16ZM16.7071 22.7071L20.7071 18.7071C21.0976 18.3166 21.0976 17.6834 20.7071 17.2929C20.3166 16.9024 19.6834 16.9024 19.2929 17.2929L17.0222 19.5636V10.1997C17.0222 9.64742 16.5745 9.1997 16.0222 9.1997C15.4699 9.1997 15.0222 9.64742 15.0222 10.1997V19.608L12.7071 17.2929C12.3166 16.9024 11.6834 16.9024 11.2929 17.2929C10.9024 17.6834 10.9024 18.3166 11.2929 18.7071L15.2929 22.7071C15.6834 23.0976 16.3166 23.0976 16.7071 22.7071Z" fill="#AAB4BF"/>
</svg>
