<svg width="32" height="32" viewBox="0 0 32 32" fill="none" xmlns="http://www.w3.org/2000/svg">
  <path fill-rule="evenodd" clip-rule="evenodd" d="M16 29C23.1797 29 29 23.1797 29 16C29 8.8203 23.1797 3 16 3C8.8203 3 3 8.8203 3 16C3 23.1797 8.8203 29 16 29ZM15.9994 6.59782C16.5517 6.59782 16.9994 7.04553 16.9994 7.59782V9.27837C16.9994 9.83066 16.5517 10.2784 15.9994 10.2784C15.4471 10.2784 14.9994 9.83066 14.9994 9.27837V7.59782C14.9994 7.04553 15.4471 6.59782 15.9994 6.59782ZM16.9994 22.7228C16.9994 22.1705 16.5517 21.7228 15.9994 21.7228C15.4471 21.7228 14.9994 22.1705 14.9994 22.7228V24.4034C14.9994 24.9557 15.4471 25.4034 15.9994 25.4034C16.5517 25.4034 16.9994 24.9557 16.9994 24.4034V22.7228ZM22.6462 9.35256C23.0368 9.74308 23.0368 10.3762 22.6462 10.7668L22.0497 11.3634C21.6591 11.7539 21.026 11.7539 20.6354 11.3634C20.2449 10.9728 20.2449 10.3397 20.6354 9.94916L21.232 9.35256C21.6226 8.96203 22.2557 8.96203 22.6462 9.35256ZM11.3616 22.0514C11.7521 21.6609 11.7521 21.0278 11.3616 20.6372C10.9711 20.2467 10.3379 20.2467 9.94737 20.6372L9.35077 21.2338C8.96024 21.6243 8.96024 22.2575 9.35077 22.648C9.74129 23.0386 10.3745 23.0386 10.765 22.648L11.3616 22.0514ZM21.721 16.0003C21.721 15.448 22.1687 15.0003 22.721 15.0003H24.4016C24.9539 15.0003 25.4016 15.448 25.4016 16.0003C25.4016 16.5526 24.9539 17.0003 24.4016 17.0003H22.721C22.1687 17.0003 21.721 16.5526 21.721 16.0003ZM7.59603 15.0003C7.04374 15.0003 6.59603 15.448 6.59603 16.0003C6.59603 16.5526 7.04374 17.0003 7.59603 17.0003H9.27658C9.82887 17.0003 10.2766 16.5526 10.2766 16.0003C10.2766 15.448 9.82887 15.0003 9.27658 15.0003H7.59603ZM20.6354 20.6372C21.026 20.2467 21.6591 20.2467 22.0497 20.6372L22.6462 21.2338C23.0368 21.6243 23.0368 22.2575 22.6462 22.648C22.2557 23.0386 21.6226 23.0386 21.232 22.648L20.6354 22.0514C20.2449 21.6609 20.2449 21.0278 20.6354 20.6372ZM10.765 9.35256C10.3745 8.96203 9.74129 8.96203 9.35077 9.35256C8.96024 9.74308 8.96024 10.3762 9.35077 10.7668L9.94737 11.3634C10.3379 11.7539 10.9711 11.7539 11.3616 11.3634C11.7521 10.9728 11.7521 10.3397 11.3616 9.94916L10.765 9.35256ZM19.2409 19.2409C21.0308 17.451 21.0308 14.549 19.2409 12.7591C17.451 10.9692 14.549 10.9692 12.7591 12.7591C10.9692 14.549 10.9692 17.451 12.7591 19.2409C14.549 21.0308 17.451 21.0308 19.2409 19.2409Z" fill="#AAB4BF"/>
</svg>
