<svg width="14" height="14" viewBox="0 0 14 14" fill="none" xmlns="http://www.w3.org/2000/svg">
<g clip-path="url(#clip0_7123_73863)">
<path d="M2.34315 4.68629C2.34315 5.07091 2.34315 5.26323 2.29444 5.44302C2.26313 5.55862 2.2171 5.66973 2.15751 5.77361C2.06481 5.93519 1.92883 6.07117 1.65686 6.34314C1.03347 6.96653 0.72177 7.27823 0.625628 7.64511C0.564656 7.87777 0.564656 8.12223 0.625628 8.35489C0.72177 8.72177 1.03347 9.03347 1.65686 9.65686C1.92883 9.92883 2.06481 10.0648 2.15751 10.2264C2.2171 10.3303 2.26313 10.4414 2.29444 10.557C2.34315 10.7368 2.34315 10.9291 2.34315 11.3137C2.34315 12.1953 2.34315 12.6361 2.53458 12.9635C2.65599 13.1712 2.82885 13.344 3.03649 13.4654C3.36389 13.6569 3.80469 13.6569 4.68629 13.6569C5.07092 13.6569 5.26323 13.6569 5.44302 13.7056C5.55862 13.7369 5.66973 13.7829 5.77362 13.8425C5.93519 13.9352 6.07118 14.0712 6.34315 14.3431C6.96653 14.9665 7.27823 15.2782 7.6451 15.3744C7.87777 15.4353 8.12223 15.4353 8.3549 15.3744C8.72177 15.2782 9.03347 14.9665 9.65685 14.3431C9.92883 14.0712 10.0648 13.9352 10.2264 13.8425C10.3303 13.7829 10.4414 13.7369 10.557 13.7056C10.7368 13.6569 10.9291 13.6569 11.3137 13.6569C12.1953 13.6569 12.6361 13.6569 12.9635 13.4654C13.1712 13.344 13.344 13.1712 13.4654 12.9635C13.6569 12.6361 13.6569 12.1953 13.6569 11.3137C13.6569 10.9291 13.6569 10.7368 13.7056 10.557C13.7369 10.4414 13.7829 10.3303 13.8425 10.2264C13.9352 10.0648 14.0712 9.92882 14.3431 9.65685C14.9665 9.03347 15.2782 8.72177 15.3744 8.3549C15.4353 8.12223 15.4353 7.87777 15.3744 7.6451C15.2782 7.27823 14.9665 6.96654 14.3431 6.34315C14.0712 6.07118 13.9352 5.93519 13.8425 5.77362C13.7829 5.66973 13.7369 5.55863 13.7056 5.44302C13.6569 5.26323 13.6569 5.07092 13.6569 4.6863C13.6569 3.80469 13.6569 3.36388 13.4654 3.03648C13.344 2.82885 13.1712 2.65599 12.9635 2.53458C12.6361 2.34315 12.1953 2.34315 11.3137 2.34315C10.9291 2.34315 10.7368 2.34315 10.557 2.29444C10.4414 2.26312 10.3303 2.2171 10.2264 2.1575C10.0648 2.06481 9.92883 1.92883 9.65685 1.65685C9.03347 1.03347 8.72177 0.721771 8.3549 0.625629C8.12223 0.564656 7.87777 0.564656 7.6451 0.625629C7.27823 0.721771 6.96653 1.03347 6.34315 1.65685C6.07118 1.92883 5.93519 2.06481 5.77362 2.1575C5.66973 2.2171 5.55862 2.26312 5.44302 2.29444C5.26323 2.34315 5.07092 2.34315 4.68629 2.34315C3.80469 2.34315 3.36389 2.34315 3.03649 2.53458C2.82885 2.65599 2.65599 2.82885 2.53458 3.03648C2.34315 3.36388 2.34315 3.80469 2.34315 4.68629Z" fill="#F7F8F9"/>
<path d="M3.75736 5.51472C3.75736 5.82373 3.75736 5.97824 3.71346 6.12147C3.69483 6.18225 3.67045 6.24112 3.64064 6.29727C3.5704 6.4296 3.46115 6.53885 3.24264 6.75736C2.74113 7.25887 2.49037 7.50963 2.43232 7.81058C2.40818 7.93571 2.40818 8.06429 2.43232 8.18942C2.49037 8.49037 2.74113 8.74113 3.24264 9.24264C3.46115 9.46115 3.5704 9.5704 3.64064 9.70273C3.67045 9.75888 3.69483 9.81775 3.71346 9.87853C3.75736 10.0218 3.75736 10.1763 3.75736 10.4853C3.75736 11.1945 3.75736 11.5491 3.92912 11.803C4.00053 11.9086 4.09145 11.9995 4.197 12.0709C4.45086 12.2426 4.80548 12.2426 5.51472 12.2426C5.82373 12.2426 5.97824 12.2426 6.12148 12.2865C6.18226 12.3052 6.24112 12.3296 6.29727 12.3594C6.4296 12.4296 6.53885 12.5389 6.75736 12.7574C7.25887 13.2589 7.50963 13.5096 7.81058 13.5677C7.93571 13.5918 8.06429 13.5918 8.18942 13.5677C8.49037 13.5096 8.74113 13.2589 9.24264 12.7574C9.46115 12.5389 9.5704 12.4296 9.70273 12.3594C9.75888 12.3296 9.81774 12.3052 9.87852 12.2865C10.0218 12.2426 10.1763 12.2426 10.4853 12.2426C11.1945 12.2426 11.5491 12.2426 11.803 12.0709C11.9086 11.9995 11.9995 11.9086 12.0709 11.803C12.2426 11.5491 12.2426 11.1945 12.2426 10.4853C12.2426 10.1763 12.2426 10.0218 12.2865 9.87852C12.3052 9.81774 12.3296 9.75888 12.3594 9.70272C12.4296 9.5704 12.5389 9.46114 12.7574 9.24264C13.2589 8.74113 13.5096 8.49038 13.5677 8.18942C13.5918 8.06429 13.5918 7.93571 13.5677 7.81058C13.5096 7.50962 13.2589 7.25887 12.7574 6.75736C12.5389 6.53886 12.4296 6.4296 12.3594 6.29728C12.3296 6.24112 12.3052 6.18226 12.2865 6.12148C12.2426 5.97824 12.2426 5.82374 12.2426 5.51472C12.2426 4.80548 12.2426 4.45085 12.0709 4.19699C11.9995 4.09145 11.9086 4.00052 11.803 3.92912C11.5491 3.75736 11.1945 3.75736 10.4853 3.75736C10.1763 3.75736 10.0218 3.75736 9.87852 3.71346C9.81774 3.69483 9.75888 3.67044 9.70273 3.64064C9.5704 3.5704 9.46115 3.46115 9.24264 3.24264C8.74113 2.74113 8.49037 2.49037 8.18942 2.43232C8.06429 2.40818 7.93571 2.40818 7.81058 2.43232C7.50963 2.49037 7.25887 2.74113 6.75736 3.24264C6.53885 3.46115 6.4296 3.5704 6.29727 3.64064C6.24112 3.67044 6.18226 3.69483 6.12148 3.71346C5.97824 3.75736 5.82373 3.75736 5.51472 3.75736C4.80548 3.75736 4.45086 3.75736 4.197 3.92911C4.09145 4.00052 4.00053 4.09145 3.92912 4.19699C3.75736 4.45085 3.75736 4.80548 3.75736 5.51472Z" fill="#00BE80"/>
<path d="M6 8.0696L7.7529 9.5L10 7" stroke="white" stroke-width="1.3" stroke-linecap="round" stroke-linejoin="round"/>
</g>
<defs>
<clipPath id="clip0_7123_73863">
<rect width="16" height="16" fill="white"/>
</clipPath>
</defs>
</svg>
