<svg width="132" height="80" viewBox="0 0 132 80" fill="none" xmlns="http://www.w3.org/2000/svg">
<path d="M30.5786 55.8862C30.5786 55.8862 31.6812 59.7313 36.6288 62.4738C41.5764 65.2163 45.4214 64.1137 45.4214 64.1137" stroke="url(#paint0_linear_5_1615)" stroke-width="2" stroke-linecap="round" stroke-dasharray="0.1 4.5"/>
<path fill-rule="evenodd" clip-rule="evenodd" d="M47.0776 30.1153C45.7005 32.0819 45.3108 34.8549 44.5314 40.4009L43.9747 44.362C43.1952 49.908 42.8055 52.681 43.5871 54.951C44.2747 56.9478 45.5767 58.6756 47.3066 59.8869C49.2732 61.2639 52.0462 61.6536 57.5922 62.4331L77.3976 65.2165C82.9436 65.996 85.7166 66.3857 87.9866 65.6041C89.9833 64.9165 91.7112 63.6145 92.9224 61.8846C94.2995 59.918 94.6892 57.145 95.4686 51.599L96.0253 47.6379C96.8048 42.0919 97.1945 39.3189 96.4129 37.0489C95.7253 35.0522 94.4233 33.3243 92.6934 32.1131C90.7268 30.736 87.9538 30.3463 82.4078 29.5669L62.6024 26.7834C57.0564 26.004 54.2834 25.6142 52.0134 26.3959C50.0167 27.0834 48.2889 28.3854 47.0776 30.1153ZM57.3241 49.956C57.4675 51.0412 57.9078 51.5567 58.8265 51.6858C59.7452 51.8149 60.3313 51.4338 60.7558 50.4481L64.2251 42.5336L64.3121 42.5458L65.4751 51.1114C65.6087 52.1952 66.0601 52.7024 66.9982 52.8342C67.8975 52.9606 68.4629 52.5865 68.8971 51.6022L73.3045 41.433C73.4528 41.0791 73.5598 40.7391 73.5951 40.4877C73.7093 39.6754 73.2287 39.095 72.339 38.97C71.5751 38.8626 71.0524 39.2132 70.7505 40.0287L67.3908 48.7771L67.3135 48.7663L66.2302 39.423C66.1384 38.5324 65.7147 38.039 64.9217 37.9275C64.1094 37.8134 63.5895 38.1446 63.2393 39.0224L59.6254 47.6858L59.548 47.6749L58.7299 38.3393C58.6727 37.4832 58.2683 36.9925 57.5044 36.8851C56.6147 36.7601 55.9928 37.1855 55.8786 37.9978C55.8419 38.2589 55.851 38.6152 55.8974 38.9866L57.3241 49.956ZM74.1129 51.3984C74.6013 52.9758 76.39 54.2824 78.6045 54.5936C81.7862 55.0408 84.2834 53.3405 84.702 50.362C85.0758 47.7026 83.444 45.5601 80.7749 45.185C79.3534 44.9852 78.1334 45.3857 77.4364 46.2049L77.3784 46.1967L78.2522 42.365L83.7644 43.1397C84.4994 43.243 85.0275 42.8537 85.1267 42.1478C85.2259 41.4418 84.8159 40.9207 84.0906 40.8188L77.9692 39.9585C76.8377 39.7994 76.1619 40.1877 75.8993 41.3539L74.7742 46.4126C74.7577 46.4596 74.7537 46.4886 74.7482 46.5272C74.5994 47.3051 74.9602 48.0363 75.9176 48.1708C76.5655 48.2619 76.876 48.1576 77.5213 47.7059C78.0811 47.3014 78.8277 47.0414 79.6594 47.1583C81.1776 47.3717 82.114 48.5683 81.9074 50.0383C81.6954 51.5469 80.449 52.4861 78.9307 52.2727C77.6735 52.096 76.9372 51.3712 76.5756 50.2948C76.3202 49.7264 75.9813 49.4717 75.4011 49.3901C74.6468 49.2841 74.12 49.6637 74.0154 50.4083C73.9665 50.7565 74.0114 51.0685 74.1129 51.3984Z" fill="white"/>
<path fill-rule="evenodd" clip-rule="evenodd" d="M1.58714 25.049C0.805516 27.319 1.19524 30.092 1.97468 35.638L2.53137 39.5991C3.31081 45.1451 3.70054 47.9181 5.07757 49.8847C6.28884 51.6146 8.01667 52.9166 10.0134 53.6041C12.2834 54.3857 15.0564 53.996 20.6024 53.2166L40.4078 50.4331C45.9538 49.6537 48.7268 49.264 50.6934 47.8869C52.4233 46.6756 53.7253 44.9478 54.4129 42.9511C55.1945 40.6811 54.8048 37.9081 54.0253 32.3621L53.4686 28.401C52.6892 22.855 52.2995 20.082 50.9224 18.1153C49.7111 16.3855 47.9833 15.0835 45.9866 14.3959C43.7166 13.6143 40.9436 14.004 35.3976 14.7835L15.5922 17.5669C10.0462 18.3464 7.27317 18.7361 5.30656 20.1131C3.57668 21.3244 2.27467 23.0522 1.58714 25.049ZM20.4648 40.5894C21.0575 41.7191 21.8051 42.1268 22.9462 41.9664C24.0777 41.8074 24.684 41.2094 24.9437 39.9698L27.3719 28.8991C27.4319 28.6244 27.4435 28.3565 27.4068 28.0954C27.2954 27.3024 26.6087 26.8368 25.719 26.9619C24.955 27.0692 24.5674 27.4689 24.4357 28.2862L22.5848 38.7629L22.5171 38.7724L17.8445 29.2421C17.4912 28.4831 16.9768 28.1905 16.1935 28.3006C15.2747 28.4297 14.7347 29.0776 14.8502 29.8996C14.8896 30.18 14.976 30.444 15.1108 30.7012L20.4648 40.5894ZM36.3847 38.6479C36.5152 39.5762 37.1647 39.9879 37.9674 39.8751C38.77 39.7623 39.2906 39.1862 39.1602 38.2578L38.9712 36.9136L39.7642 36.8021C40.5282 36.6948 40.8968 36.1598 40.8003 35.4731C40.7038 34.7865 40.2103 34.3628 39.4367 34.4715L38.6437 34.583L37.6366 27.4171C37.4531 26.1115 36.4119 25.4394 34.9323 25.6473C33.7525 25.8131 33.1145 26.3959 32.3554 28.0114C31.1538 30.478 30.0602 32.8012 29.3448 34.6572C29.017 35.4823 28.919 36.0483 29.0033 36.6479C29.1405 37.6246 29.9389 38.183 30.993 38.0349L36.1958 37.3037L36.3847 38.6479ZM34.9504 28.0214L35.9371 35.0423L31.4693 35.6702L31.4584 35.5928C32.2936 33.3256 33.3039 31.1817 34.8924 28.0296L34.9504 28.0214Z" fill="white" fill-opacity="0.5"/>
<defs>
<linearGradient id="paint0_linear_5_1615" x1="30" y1="55" x2="46.5" y2="65" gradientUnits="userSpaceOnUse">
<stop stop-color="white" stop-opacity="0.5"/>
<stop offset="1" stop-color="white"/>
</linearGradient>
</defs>
</svg>
