<svg width="196" height="108" viewBox="0 0 196 108" fill="none" xmlns="http://www.w3.org/2000/svg">
<path d="M61.1572 85.7725C61.1572 85.7725 63.3623 93.4626 73.2575 98.9476C83.1527 104.433 90.8428 102.228 90.8428 102.228" stroke="url(#paint0_linear_5_1541)" stroke-width="4" stroke-linecap="round" stroke-dasharray="0.2 9"/>
<path opacity="0.48" fill-rule="evenodd" clip-rule="evenodd" d="M3.17424 24.0979C1.611 28.6379 2.39044 34.1839 3.94933 45.2759L5.06271 53.1981C6.6216 64.2901 7.40104 69.8361 10.1551 73.7693C12.5777 77.2291 16.0333 79.8331 20.0268 81.2082C24.5668 82.7714 30.1128 81.992 41.2048 80.4331L80.8156 74.8662C91.9076 73.3073 97.4536 72.5279 101.387 69.7738C104.847 67.3512 107.451 63.8956 108.826 59.9021C110.389 55.3621 109.609 49.8161 108.051 38.7241L106.937 30.8019C105.378 19.7099 104.599 14.1639 101.845 10.2306C99.4223 6.77087 95.9666 4.16686 91.9731 2.79179C87.4332 1.22855 81.8871 2.00799 70.7951 3.56688L31.1844 9.1338C20.0923 10.6927 14.5463 11.4721 10.6131 14.2262C7.15332 16.6487 4.54931 20.1044 3.17424 24.0979ZM40.9296 55.1788C42.115 57.4381 43.6102 58.2536 45.8925 57.9328C48.1554 57.6148 49.3679 56.4188 49.8873 53.9396L54.7437 31.7982C54.8637 31.2488 54.887 30.713 54.8136 30.1908C54.5907 28.6048 53.2173 27.6736 51.4379 27.9237C49.91 28.1384 49.1348 28.9377 48.8714 30.5723L45.1695 51.5258L45.0341 51.5448L35.6889 32.4841C34.9825 30.9661 33.9535 30.381 32.3869 30.6011C30.5495 30.8594 29.4693 32.1551 29.7003 33.7991C29.7792 34.36 29.952 34.888 30.2215 35.4024L40.9296 55.1788ZM72.7694 51.2957C73.0303 53.1524 74.3294 53.9757 75.9347 53.7501C77.54 53.5245 78.5812 52.3723 78.3203 50.5155L77.9424 47.8271L79.5284 47.6042C81.0564 47.3895 81.7935 46.3194 81.6005 44.9462C81.4075 43.573 80.4206 42.7255 78.8733 42.943L77.2874 43.1659L75.2732 28.8341C74.9062 26.223 72.8238 24.8787 69.8646 25.2945C67.505 25.6262 66.229 26.7917 64.7108 30.0227C62.3076 34.9559 60.1204 39.6024 58.6895 43.3142C58.0339 44.9645 57.838 46.0966 58.0065 47.2957C58.281 49.2492 59.8778 50.3659 61.986 50.0696L72.3915 48.6072L72.7694 51.2957ZM69.9008 30.0427L71.8742 44.0844L62.9386 45.3403L62.9169 45.1855C64.5872 40.6511 66.6078 36.3633 69.7848 30.0591L69.9008 30.0427Z" fill="url(#paint1_linear_5_1541)"/>
<path fill-rule="evenodd" clip-rule="evenodd" d="M94.1553 34.2306C91.4012 38.1639 90.6218 43.7099 89.0629 54.8019L87.9495 62.7241C86.3906 73.8161 85.6112 79.3621 87.1744 83.9021C88.5495 87.8956 91.1535 91.3512 94.6132 93.7738C98.5465 96.5279 104.092 97.3073 115.185 98.8662L154.795 104.433C165.887 105.992 171.433 106.771 175.973 105.208C179.967 103.833 183.422 101.229 185.845 97.7694C188.599 93.8361 189.378 88.2901 190.937 77.1981L192.051 69.2759C193.61 58.1839 194.389 52.6379 192.826 48.0979C191.451 44.1044 188.847 40.6488 185.387 38.2262C181.454 35.4721 175.908 34.6927 164.816 33.1338L125.205 27.5669C114.113 26.008 108.567 25.2286 104.027 26.7918C100.033 28.1669 96.5778 30.7709 94.1553 34.2306ZM114.648 73.912C114.935 76.0824 115.816 77.1134 117.653 77.3717C119.491 77.6299 120.663 76.8676 121.512 74.8963L128.45 59.0673L128.624 59.0917L130.95 76.2228C131.218 78.3905 132.12 79.4049 133.996 79.6686C135.795 79.9214 136.926 79.173 137.794 77.2044L146.609 56.866C146.906 56.1583 147.12 55.4783 147.19 54.9754C147.419 53.3508 146.458 52.1901 144.678 51.94C143.15 51.7253 142.105 52.4265 141.501 54.0575L134.782 71.5544L134.627 71.5326L132.461 52.8461C132.277 51.0649 131.43 50.078 129.844 49.8551C128.219 49.6268 127.179 50.2893 126.479 52.0449L119.251 69.3716L119.096 69.3499L117.46 50.6787C117.346 48.9665 116.537 47.985 115.009 47.7703C113.229 47.5202 111.986 48.371 111.757 49.9956C111.684 50.5178 111.702 51.2304 111.795 51.9732L114.648 73.912ZM148.226 76.7968C149.203 79.9517 152.78 82.5648 157.209 83.1873C163.572 84.0816 168.567 80.6811 169.404 74.724C170.152 69.4052 166.888 65.1202 161.55 64.37C158.707 63.9704 156.267 64.7715 154.873 66.4098L154.757 66.3935L156.505 58.7301L167.529 60.2795C168.999 60.4861 170.055 59.7075 170.254 58.2956C170.452 56.8837 169.632 55.8415 168.181 55.6376L155.938 53.917C153.676 53.599 152.324 54.3754 151.799 56.7079L149.549 66.8252C149.516 66.9192 149.507 66.9772 149.497 67.0546C149.199 68.6103 149.92 70.0726 151.835 70.3417C153.131 70.5238 153.752 70.3153 155.043 69.4119C156.162 68.6028 157.656 68.0829 159.319 68.3167C162.355 68.7434 164.228 71.1367 163.815 74.0766C163.391 77.0938 160.898 78.9722 157.862 78.5454C155.347 78.192 153.874 76.7425 153.151 74.5897C152.641 73.4528 151.963 72.9434 150.802 72.7803C149.294 72.5683 148.24 73.3275 148.031 74.8167C147.933 75.513 148.023 76.1371 148.226 76.7968Z" fill="url(#paint2_linear_5_1541)"/>
<defs>
<linearGradient id="paint0_linear_5_1541" x1="61" y1="83.5" x2="93.5" y2="103" gradientUnits="userSpaceOnUse">
<stop stop-color="#F6522B" stop-opacity="0.48"/>
<stop offset="1" stop-color="#F6522B"/>
</linearGradient>
<linearGradient id="paint1_linear_5_1541" x1="9.51629" y1="84.8866" x2="115.949" y2="62.1519" gradientUnits="userSpaceOnUse">
<stop stop-color="#F54927"/>
<stop offset="1" stop-color="#FAA046"/>
</linearGradient>
<linearGradient id="paint2_linear_5_1541" x1="83.496" y1="94.4127" x2="192.072" y2="101.895" gradientUnits="userSpaceOnUse">
<stop stop-color="#F54927"/>
<stop offset="1" stop-color="#FAA046"/>
</linearGradient>
</defs>
</svg>
