<svg width="24" height="24" viewBox="0 0 24 24" fill="none" xmlns="http://www.w3.org/2000/svg">
<path fill-rule="evenodd" clip-rule="evenodd" d="M14.2065 12.7515V12.7493C14.0826 12.7582 13.4442 12.7965 12.0198 12.7965C10.8825 12.7965 10.0819 12.7627 9.8004 12.7493V12.7526C5.42248 12.5604 2.1548 11.7993 2.1548 10.8888C2.1548 9.97932 5.42248 9.21826 9.8004 9.02265V11.9949C10.0864 12.0152 10.9061 12.0635 12.0389 12.0635C13.398 12.0635 14.0792 12.0073 14.2065 11.9961V9.0249C18.5754 9.21938 21.8352 9.98044 21.8352 10.8888C21.8352 11.7993 18.5754 12.5581 14.2065 12.7515ZM14.2065 8.71576V6.05598H20.3027V2H3.70419V6.05598H9.8004V8.71463C4.84596 8.94171 1.12 9.92198 1.12 11.0956C1.12 12.2692 4.84596 13.2484 9.8004 13.4766V22H14.2065V13.4743C19.153 13.2473 22.87 12.2681 22.87 11.0956C22.87 9.92311 19.153 8.94396 14.2065 8.71576Z" fill="#AAB4BF"/>
</svg>
