<svg width="32" height="32" viewBox="0 0 32 32" fill="none" xmlns="http://www.w3.org/2000/svg">
  <path fill-rule="evenodd" clip-rule="evenodd" d="M16 29C23.1797 29 29 23.1797 29 16C29 8.8203 23.1797 3 16 3C8.8203 3 3 8.8203 3 16C3 23.1797 8.8203 29 16 29ZM20.0028 9.27051H14.1673C11.0841 9.27051 8.58398 11.7706 8.58398 14.8538V15.083C8.58398 15.6353 9.03169 16.083 9.58398 16.083C10.1362 16.083 10.5839 15.6353 10.5839 15.083V14.8538C10.5839 12.8752 12.1886 11.2705 14.1673 11.2705H20.0041L19.4189 11.8557C19.0284 12.2462 19.0284 12.8794 19.4189 13.2699C19.8094 13.6605 20.4426 13.6605 20.8331 13.2699L23.1248 10.9783C23.4581 10.6449 23.5069 10.1347 23.2711 9.74954C23.2258 9.67541 23.171 9.60764 23.1086 9.54788L20.8331 7.27239C20.4426 6.88186 19.8094 6.88186 19.4189 7.27239C19.0284 7.66291 19.0284 8.29607 19.4189 8.6866L20.0028 9.27051ZM11.9976 20.7295L12.5828 20.1443C12.9733 19.7538 12.9733 19.1206 12.5828 18.7301C12.1922 18.3395 11.5591 18.3395 11.1685 18.7301L8.87688 21.0217C8.68153 21.2171 8.5839 21.4731 8.58398 21.7292C8.58398 21.7293 8.58398 21.7294 8.58398 21.7295C8.58398 22.0172 8.70546 22.2765 8.89992 22.4589L11.1685 24.7276C11.5591 25.1181 12.1922 25.1181 12.5828 24.7276C12.9733 24.3371 12.9733 23.7039 12.5828 23.3134L11.9989 22.7295H17.834C20.9172 22.7295 23.4173 20.2294 23.4173 17.1462V16.917C23.4173 16.3647 22.9696 15.917 22.4173 15.917C21.865 15.917 21.4173 16.3647 21.4173 16.917V17.1462C21.4173 19.1248 19.8126 20.7295 17.834 20.7295H11.9976Z" fill="#AAB4BF"/>
</svg>
