<svg width="24" height="24" viewBox="0 0 24 24" fill="none" xmlns="http://www.w3.org/2000/svg">
<path fill-rule="evenodd" clip-rule="evenodd" d="M9.6192 4.07882C12.3848 1.3072 16.8702 1.30692 19.635 4.07882C22.3995 6.84946 22.3992 11.3408 19.635 14.1123C17.7397 16.012 15.0407 16.6045 12.6409 15.9043L7.14333 21.4144C6.95573 21.6024 6.70103 21.7081 6.43542 21.7081H3C2.73478 21.7081 2.48043 21.6027 2.29289 21.4152C2.10536 21.2276 2 20.9733 2 20.7081V17.2654C2 17.0005 2.10505 16.7465 2.29209 16.5591L7.81896 11.0196C7.14828 8.63383 7.74042 5.96207 9.6192 4.07882ZM14.6035 10.5508C15.4319 10.5508 16.1035 9.87921 16.1035 9.05078C16.1035 8.22235 15.4319 7.55078 14.6035 7.55078C13.7751 7.55078 13.1035 8.22235 13.1035 9.05078C13.1035 9.87921 13.7751 10.5508 14.6035 10.5508Z" fill="#AAB4BF"/>
</svg>
