<svg width="56" height="56" viewBox="0 0 56 56" fill="none" xmlns="http://www.w3.org/2000/svg">
<path d="M28 20C27.1717 20 26.4999 20.6717 26.4999 21.5001V26.4999H21.5001C20.6717 26.4999 20 27.1713 20 28C20 28.8283 20.6717 29.5001 21.5001 29.5001H26.4999V34.4999C26.4999 35.3283 27.1717 36 28 36C28.8283 36 29.5001 35.3286 29.5001 34.4999V29.5001H34.4999C35.3283 29.5001 36 28.8283 36 28C36 27.1717 35.3283 26.4999 34.4999 26.4999H29.5001V21.5001C29.5001 20.6717 28.8287 20 28 20Z" fill="white"/>
</svg>
