<svg width="56" height="56" viewBox="0 0 56 56" fill="none" xmlns="http://www.w3.org/2000/svg">
<path d="M29.9586 37.1856V39.531C29.9586 39.7655 29.7631 40 29.4896 40H27.2225C26.988 40 26.7535 39.8045 26.7535 39.531V37.2639C24.4474 37.1077 22.5709 35.3095 22.3364 33.0033C22.2974 32.7296 22.5319 32.5343 22.8054 32.5343H25.1116C25.3071 32.5343 25.5026 32.6516 25.5416 32.8471C25.6978 33.5505 26.3233 34.0981 27.066 34.0981H29.0594C30.2322 34.0981 31.3266 33.2381 31.4438 32.0654C31.6001 30.6971 30.5056 29.5637 29.1767 29.5637H27.6913C24.8379 29.5637 22.297 27.492 22.0235 24.6777C21.7498 21.6678 23.8997 19.1271 26.7141 18.7361V16.43C26.7141 16.1955 26.9096 16 27.183 16H29.4502C29.6847 16 29.9192 16.1955 29.9192 16.43V18.6971C32.2253 18.8534 34.1018 20.6515 34.3362 22.9577C34.3752 23.2314 34.1407 23.4267 33.8672 23.4267H31.5611C31.3656 23.4267 31.1701 23.3094 31.1311 23.0749C30.9749 22.3715 30.3494 21.824 29.6067 21.824H27.6132C26.4405 21.824 25.3461 22.6839 25.2288 23.8566C25.0726 25.2249 26.167 26.3583 27.4959 26.3583H29.2159C32.382 26.3583 34.9619 29.0944 34.6492 32.3388C34.3755 34.8795 32.3821 36.7556 29.9587 37.1857L29.9586 37.1856Z" fill="white"/>
</svg>
