<svg width="56" height="56" viewBox="0 0 56 56" fill="none" xmlns="http://www.w3.org/2000/svg">
<path fill-rule="evenodd" clip-rule="evenodd" d="M15 21.9132C15 21.522 15.1302 21.1741 15.3905 20.9133L19.8598 16.3912C20.1634 16.1304 20.5106 16 20.8577 16C21.2482 16 21.5954 16.1304 21.8557 16.3912C22.3763 16.9129 22.3763 17.8261 21.8557 18.3477L19.6861 20.5217H29.6113C30.3925 20.5217 31 21.1307 31 21.9132C31 22.696 30.3922 23.3047 29.6113 23.3047L19.6861 23.3044L21.8557 25.4784C22.3763 26 22.3763 26.9132 21.8557 27.4348C21.3351 27.9565 20.4237 27.9565 19.9031 27.4348L15.3905 22.9131C15.1302 22.6523 15 22.2611 15 21.9132ZM41 34.3128C41 34.704 40.8698 35.0519 40.6095 35.3127L36.1402 39.8347C35.8366 40.0956 35.4894 40.226 35.1423 40.226C34.7518 40.226 34.4046 40.0956 34.1443 39.8347C33.6237 39.3131 33.6237 38.3999 34.1443 37.8782L36.3139 35.7043H26.3887C25.6075 35.7043 25 35.0953 25 34.3128C25 33.53 25.6078 32.9213 26.3887 32.9213L36.3139 32.9216L34.1443 30.7476C33.6237 30.226 33.6237 29.3128 34.1443 28.7911C34.6649 28.2695 35.5763 28.2695 36.0969 28.7911L40.6095 33.3128C40.8698 33.5737 41 33.9649 41 34.3128Z" fill="white"/>
</svg>
