<svg width="56" height="56" viewBox="0 0 56 56" fill="none" xmlns="http://www.w3.org/2000/svg">
<path d="M27.1416 37.5119C27.4676 37.8373 27.9024 38 28.3915 38C28.8263 38 29.3154 37.8373 29.6414 37.5119L35.2936 31.8711C35.9456 31.2203 35.9456 30.0812 35.2936 29.4304C34.6415 28.7796 33.5 28.7796 32.8479 29.4304L30.1305 32.1424L30.1309 19.7359C30.1309 18.7598 29.37 18 28.3915 18C27.4134 18 26.6521 18.7593 26.6521 19.7359V32.1424L23.9347 29.4304C23.2826 28.7796 22.1411 28.7796 21.4891 29.4304C21.163 29.7558 21 30.1897 21 30.6778C21 31.1118 21.163 31.5458 21.4891 31.9253L27.1416 37.5119Z" fill="white"/>
</svg>
