<svg width="56" height="56" viewBox="0 0 56 56" fill="none" xmlns="http://www.w3.org/2000/svg">
<path d="M29.8584 18.4881C29.5324 18.1627 29.0976 18 28.6085 18C28.1737 18 27.6846 18.1627 27.3586 18.4881L21.7064 24.1289C21.0544 24.7797 21.0544 25.9188 21.7064 26.5696C22.3585 27.2204 23.5 27.2204 24.1521 26.5696L26.8695 23.8576L26.8691 36.2641C26.8691 37.2402 27.63 38 28.6085 38C29.5866 38 30.3479 37.2407 30.3479 36.2641L30.3479 23.8576L33.0653 26.5696C33.7174 27.2204 34.8589 27.2204 35.5109 26.5696C35.837 26.2442 36 25.8103 36 25.3222C36 24.8882 35.837 24.4542 35.5109 24.0747L29.8584 18.4881Z" fill="white"/>
</svg>
