<svg width="36" height="36" viewBox="0 0 36 36" fill="none" xmlns="http://www.w3.org/2000/svg">
<path d="M26.7562 9.42863H12.8454C12.337 9.42681 11.8457 9.61147 11.4645 9.94783L4.97116 15.7612C4.53487 16.1551 4.28577 16.7152 4.28577 17.3029C4.28577 17.8905 4.53487 18.4507 4.97116 18.8446L11.4594 24.6633V24.663C11.8407 24.9993 12.332 25.184 12.84 25.1822H26.7508C27.6031 25.1836 28.4217 24.8494 29.0301 24.2524C29.638 23.655 29.9866 22.8421 30.0001 21.9899V12.6468C29.9932 11.7909 29.6485 10.9723 29.0409 10.3694C28.433 9.76661 27.6118 9.42847 26.7559 9.42847L26.7562 9.42863ZM24.5501 20.0749C24.9589 20.4837 24.9589 21.1459 24.5501 21.5543C24.1417 21.9627 23.4795 21.9627 23.0711 21.5543L20.315 18.7983L17.5586 21.5543C17.1502 21.9627 16.4876 21.9627 16.0792 21.5543C15.6708 21.1459 15.6708 20.4836 16.0792 20.0749L18.8356 17.3189L16.0796 14.5629H16.0792C15.6708 14.1541 15.6708 13.4918 16.0792 13.0834C16.4876 12.6751 17.1503 12.675 17.5587 13.0834L20.3147 15.8395L23.0707 13.0834H23.0711C23.4795 12.675 24.1417 12.675 24.5501 13.0834C24.9589 13.4919 24.9589 14.1541 24.5501 14.5629L21.8147 17.3189L24.5501 20.0749Z" fill="#798287"/>
</svg>
