<svg width="10" height="16" viewBox="0 0 10 16" fill="none" xmlns="http://www.w3.org/2000/svg">
<path d="M9.6668 7.98306C9.66393 7.62482 9.52238 7.28159 9.27204 7.02626L2.68192 0.40654C2.42469 0.146996 2.07553 0.000771523 1.71101 2.86102e-06C1.34651 -0.000766754 0.99659 0.143917 0.738379 0.402116C0.479997 0.660506 0.334425 1.01124 0.33366 1.37739C0.332895 1.74354 0.476931 2.09502 0.733975 2.35439L6.35421 7.99987L0.733975 13.6453V13.6455C0.387675 13.9949 0.253215 14.5036 0.381354 14.9796C0.509494 15.4558 0.880713 15.8271 1.35511 15.9537C1.82974 16.0803 2.33539 15.9429 2.68191 15.5934L9.27203 8.97364C9.5308 8.70987 9.67311 8.3526 9.66679 7.98241L9.6668 7.98306Z" fill="#CBCBCB"/>
</svg>
