<svg width="18" height="20" viewBox="0 0 18 20" fill="none" xmlns="http://www.w3.org/2000/svg">
<path fill-rule="evenodd" clip-rule="evenodd" d="M11 12V10C11 8.34315 9.65685 7 8 7V9C8.55228 9 9 9.44772 9 10V12H11ZM5 9H3C2.44772 9 2 9.44772 2 10V17C2 17.5523 2.44772 18 3 18H8C8.55229 18 9 17.5523 9 17V15H11V17C11 18.6569 9.65685 20 8 20H3C1.34315 20 0 18.6569 0 17V10C0 8.34315 1.34315 7 3 7H5V9Z" fill="#42A3EB"/>
<path d="M8 3C8 1.89543 8.89543 1 10 1H15C16.1046 1 17 1.89543 17 3V10C17 11.1046 16.1046 12 15 12H10C8.89543 12 8 11.1046 8 10V3Z" fill="white" stroke="#42A3EB" stroke-width="2"/>
</svg>
