<svg width="24" height="24" viewBox="0 0 24 24" fill="none" xmlns="http://www.w3.org/2000/svg">
<circle cx="12" cy="12" r="9" fill="white"/>
<path d="M11.9944 21C16.9096 21 21 16.9182 21 12C21 7.08179 16.8984 3 11.9833 3C7.07925 3 3 7.08179 3 12C3 16.9182 7.09041 21 11.9944 21ZM11.9944 19.3048C7.9486 19.3048 4.71641 16.0595 4.71641 12C4.71641 7.94053 7.93746 4.69517 11.9833 4.69517C16.0402 4.69517 19.2947 7.94053 19.2947 12C19.2947 16.0595 16.0514 19.3048 11.9944 19.3048ZM18.0019 17.7993L17.9684 17.6877C17.5672 16.3829 15.2378 15 11.9944 15C8.75107 15 6.43282 16.3829 6.03158 17.6877L5.99814 17.7993C7.59194 19.3494 10.4229 20.2305 11.9944 20.2305C13.5771 20.2305 16.408 19.3494 18.0019 17.7993ZM11.9944 13.5279C13.6774 13.5502 15.0037 12.1115 15.0037 10.2268C15.0037 8.45354 13.6774 6.99257 11.9944 6.99257C10.3226 6.99257 8.98513 8.45354 8.99629 10.2268C9.00743 12.1115 10.3115 13.5056 11.9944 13.5279Z" fill="#1C8FE3"/>
</svg>
