<svg width="30" height="30" viewBox="0 0 30 30" fill="none" xmlns="http://www.w3.org/2000/svg">
<path d="M24.999 14.9999C25.0012 16.5921 24.4155 18.1194 23.371 19.2452C22.3266 20.371 20.9094 21.0023 19.4324 20.9999H17.499C17.2012 20.9999 16.9261 20.8289 16.7773 20.5508C16.6285 20.273 16.6285 19.9307 16.7773 19.6526C16.9261 19.3747 17.2012 19.2035 17.499 19.2035H19.4324C20.8257 19.2035 22.1132 18.4024 22.8098 17.1018C23.5065 15.8012 23.5065 14.1988 22.8098 12.8982C22.1132 11.5976 20.8257 10.7965 19.4324 10.7965H17.499C17.2012 10.7965 16.9261 10.6253 16.7773 10.3474C16.6285 10.0693 16.6285 9.72704 16.7773 9.44916C16.9261 9.17107 17.2012 9.00005 17.499 9.00005H19.4324C20.908 9.00226 22.3226 9.63521 23.3662 10.76C24.4095 11.8847 24.9967 13.4095 24.999 15L24.999 14.9999ZM12.4991 19.2035H10.5656C9.1724 19.2035 7.88484 18.4023 7.18822 17.1017C6.4916 15.8011 6.4916 14.1987 7.18822 12.8982C7.88484 11.5976 9.1724 10.7964 10.5656 10.7964H12.4991C12.7969 10.7964 13.072 10.6252 13.2208 10.3473C13.3696 10.0692 13.3696 9.72699 13.2208 9.44911C13.072 9.17102 12.7969 9 12.4991 9H10.5656C8.57698 9 6.73922 10.1436 5.7447 12C4.75046 13.8563 4.75046 16.1436 5.7447 18C6.73912 19.8564 8.57693 21 10.5656 21H12.4991C12.7969 21 13.072 20.829 13.2208 20.5509C13.3696 20.273 13.3696 19.9308 13.2208 19.6527C13.072 19.3748 12.7969 19.2036 12.4991 19.2036V19.2035ZM9.89897 14.9999C9.89897 15.2381 9.98677 15.4667 10.1432 15.6351C10.2995 15.8035 10.5113 15.8982 10.7323 15.8982H19.2656C19.5632 15.8982 19.8383 15.7269 19.9871 15.4491C20.1361 15.1712 20.1361 14.8287 19.9871 14.5508C19.8383 14.273 19.5632 14.1017 19.2656 14.1017H10.7323C10.5113 14.1017 10.2995 14.1964 10.1432 14.3648C9.98677 14.5332 9.89897 14.7618 9.89897 14.9999Z" fill="white"/>
</svg>
