<svg width="12" height="10" viewBox="0 0 12 10" fill="none" xmlns="http://www.w3.org/2000/svg">
<path d="M10.8062 0.000584387C10.5048 0.0104658 10.2186 0.152146 10.0082 0.395513C8.19643 2.44137 6.38304 4.47905 4.56837 6.52491L1.90279 4.01875H1.90293C1.58425 3.72033 1.14874 3.63596 0.759899 3.7971C0.37106 3.95839 0.0880143 4.34089 0.017175 4.80073C-0.053792 5.26057 0.0982619 5.72835 0.415995 6.02781L3.89752 9.29683H3.89738C4.12026 9.50601 4.40455 9.61379 4.69433 9.59859C4.984 9.58354 5.25828 9.44672 5.46296 9.21504C7.52438 6.88735 9.58724 4.57265 11.6523 2.24115C11.8757 1.99427 12.0011 1.65603 12 1.30348C11.999 0.950801 11.8717 0.613606 11.6469 0.36843C11.4221 0.123071 11.1188 -0.00963874 10.8061 0.000545789L10.8062 0.000584387Z" fill="white"/>
</svg>
