<svg width="18" height="20" viewBox="0 0 18 20" fill="none" xmlns="http://www.w3.org/2000/svg">
<circle cx="9" cy="10" r="9" fill="#34C759"/>
<path d="M12.6046 6.40037C12.3786 6.40779 12.1639 6.51405 12.0062 6.69657C10.6473 8.23096 9.28728 9.75923 7.92628 11.2936L5.9271 9.414H5.9272C5.68819 9.19019 5.36155 9.12691 5.06992 9.24776C4.7783 9.36873 4.56601 9.6556 4.51288 10.0005C4.45966 10.3454 4.5737 10.6962 4.812 10.9208L7.42314 13.3726H7.42304C7.5902 13.5294 7.80341 13.6103 8.02075 13.5989C8.238 13.5876 8.44371 13.485 8.59722 13.3112C10.1433 11.5654 11.6904 9.82943 13.2392 8.0808C13.4068 7.89564 13.5008 7.64196 13.5 7.37755C13.4993 7.11304 13.4038 6.86014 13.2352 6.67626C13.0666 6.49224 12.8391 6.39271 12.6046 6.40035L12.6046 6.40037Z" fill="white"/>
</svg>
