<svg width="20" height="20" viewBox="0 0 20 20" fill="none" xmlns="http://www.w3.org/2000/svg">
<path fill-rule="evenodd" clip-rule="evenodd" d="M10 20C15.5228 20 20 15.5228 20 10C20 4.47715 15.5228 0 10 0C4.47715 0 0 4.47715 0 10C0 15.5228 4.47715 20 10 20ZM13.3402 6.32959C13.5155 6.12679 13.754 6.00872 14.0051 6.00049L14.0051 6.00045C14.2657 5.99197 14.5184 6.10256 14.7058 6.30702C14.8931 6.51134 14.9992 6.79233 15 7.08624C15.0009 7.38003 14.8965 7.66189 14.7103 7.86762C13.859 8.82872 13.0082 9.78639 12.1577 10.7436C11.2889 11.7215 10.4206 12.699 9.55247 13.6792C9.3819 13.8723 9.15333 13.9863 8.91194 13.9988C8.67046 14.0115 8.43355 13.9217 8.24782 13.7474H8.24793L5.34666 11.0232C5.08188 10.7736 4.95517 10.3838 5.01431 10.0006C5.07335 9.61741 5.30922 9.29866 5.63325 9.16425C5.95728 9.02997 6.32021 9.10028 6.58577 9.34896H6.58566L8.80697 11.4374C9.41687 10.7498 10.0266 10.0634 10.6361 9.37708C11.5379 8.36175 12.4393 7.34688 13.3402 6.32959Z" fill="#4DC57D"/>
</svg>
