<svg width="18" height="21" viewBox="0 0 18 21" fill="none" xmlns="http://www.w3.org/2000/svg">
<path fill-rule="evenodd" clip-rule="evenodd" d="M5 7.5H3C1.34315 7.5 0 8.84315 0 10.5V17.5C0 19.1569 1.34315 20.5 3 20.5H8C9.65685 20.5 11 19.1569 11 17.5V15.5H9V17.5C9 18.0523 8.55229 18.5 8 18.5H3C2.44772 18.5 2 18.0523 2 17.5V10.5C2 9.94772 2.44772 9.5 3 9.5H5V7.5Z" fill="#33333B"/>
<path d="M8 3.5C8 2.39543 8.89543 1.5 10 1.5H15C16.1046 1.5 17 2.39543 17 3.5V10.5C17 11.6046 16.1046 12.5 15 12.5H10C8.89543 12.5 8 11.6046 8 10.5V3.5Z" stroke="#33333B" stroke-width="2"/>
</svg>
