<svg width="13" height="8" viewBox="0 0 13 8" fill="none" xmlns="http://www.w3.org/2000/svg">
<path d="M6.5127 7.49986C6.78138 7.4977 7.03881 7.39154 7.23031 7.20379L12.1951 2.2612C12.3898 2.06827 12.4994 1.8064 12.5 1.53301C12.5006 1.25964 12.3921 0.9972 12.1984 0.803542C12.0046 0.609755 11.7416 0.500576 11.467 0.500002C11.1923 0.499429 10.9287 0.607456 10.7342 0.800239L6.5001 5.01541L2.26599 0.800239H2.26584C2.0038 0.540514 1.62227 0.439669 1.26528 0.535773C0.908137 0.631878 0.629644 0.910292 0.534707 1.26609C0.439759 1.62207 0.542788 2.0013 0.804978 2.26119L5.76977 7.20378C5.9676 7.39785 6.23555 7.50459 6.51319 7.49985L6.5127 7.49986Z" fill="#858B93"/>
</svg>
