<svg width="13" height="14" viewBox="0 0 13 14" fill="none" xmlns="http://www.w3.org/2000/svg">
<path d="M4.39546 6.65801C4.39546 6.37354 4.62586 6.14293 4.91008 6.14293C5.19429 6.14293 5.42469 6.37354 5.42469 6.65801C5.42469 6.94249 5.19429 7.1731 4.91008 7.1731C4.62586 7.1731 4.39546 6.94249 4.39546 6.65801Z" fill="#CBCBCB"/>
<path d="M6.04222 6.65801C6.04222 6.37354 6.27263 6.14293 6.55684 6.14293C6.84105 6.14293 7.07145 6.37354 7.07145 6.65801C7.07145 6.94249 6.84105 7.1731 6.55684 7.1731C6.27263 7.1731 6.04222 6.94249 6.04222 6.65801Z" fill="#CBCBCB"/>
<path d="M8.2036 6.14293C7.91939 6.14293 7.68899 6.37354 7.68899 6.65801C7.68899 6.94249 7.91939 7.1731 8.2036 7.1731C8.48781 7.1731 8.71821 6.94249 8.71821 6.65801C8.71821 6.37354 8.48781 6.14293 8.2036 6.14293Z" fill="#CBCBCB"/>
<path fill-rule="evenodd" clip-rule="evenodd" d="M6.5 0.5C2.91015 0.5 0 3.41015 0 7C0 10.5899 2.91015 13.5 6.5 13.5C10.0899 13.5 13 10.5899 13 7C13 3.41015 10.0899 0.5 6.5 0.5ZM8.24507 4.12083C7.1359 4.02615 6.02093 4.02066 4.91088 4.1044L4.83132 4.1104C3.77274 4.19026 2.95455 5.07325 2.95455 6.1358V9.64549C2.95455 9.75423 3.01163 9.85496 3.10487 9.91076C3.19811 9.96655 3.31379 9.9692 3.40948 9.91772L5.01952 9.05168C5.09441 9.01139 5.1781 8.99031 5.26312 8.99031H8.95863C9.4247 8.99031 9.82412 8.65679 9.90766 8.19784C10.077 7.26771 10.0904 6.31585 9.94724 5.38132L9.90506 5.10593C9.82828 4.60455 9.41849 4.22099 8.91355 4.17789L8.24507 4.12083Z" fill="#CBCBCB"/>
</svg>
