<svg width="20" height="20" viewBox="0 0 20 20" fill="none" xmlns="http://www.w3.org/2000/svg">
<path d="M10 0C4.48421 0 0 4.48421 0 10C0 15.5158 4.48421 20 10 20C15.5158 20 20 15.5158 20 10C20 4.48421 15.5158 0 10 0ZM18.1684 10C18.1684 11.0316 17.9578 12.0211 17.6 12.9473C16.5263 12.5263 15.3894 12.1894 14.1264 11.9578C14.1685 11.3052 14.2105 10.6526 14.2105 10C14.2105 9.34741 14.1895 8.69477 14.1264 8.04218C15.3896 7.81059 16.5473 7.47372 17.6 7.05271C17.9578 7.97891 18.1684 8.96838 18.1684 10ZM10 18.1684C9.38955 18.1684 8.35789 16.5473 7.87372 13.4947C9.28425 13.3473 10.7159 13.3473 12.1264 13.4947C11.642 16.5473 10.6104 18.1684 9.99996 18.1684H10ZM1.83158 10C1.83158 8.94737 2.04217 7.95789 2.40004 7.05271C3.45267 7.47372 4.6106 7.8106 5.87365 8.04218C5.8105 8.69477 5.7895 9.34741 5.7895 10C5.7895 10.6526 5.8105 11.3052 5.87365 11.9578C4.61041 12.1894 3.45267 12.5263 2.40004 12.9473C2.04216 12.0211 1.83158 11.0316 1.83158 10ZM10 1.83158C10.6105 1.83158 11.6421 3.45267 12.1263 6.50526C10.7158 6.6527 9.2841 6.6527 7.87365 6.50526C8.35797 3.45267 9.38959 1.83158 10 1.83158H10ZM12.379 10C12.379 10.5895 12.358 11.1579 12.3158 11.6842C10.779 11.5368 9.2211 11.5368 7.66321 11.6842C7.62106 11.1579 7.60006 10.5895 7.60006 10C7.60006 9.41053 7.62106 8.84207 7.66321 8.31575C8.44212 8.3999 9.22114 8.44204 9.97907 8.44204C10.758 8.44204 11.537 8.3999 12.2949 8.31575C12.3579 8.84207 12.3791 9.41053 12.3791 10H12.379ZM16.779 5.43158C15.8948 5.76845 14.9474 6.04203 13.9158 6.23162C13.6842 4.75797 13.3054 3.4106 12.8 2.33688C14.4211 2.94733 15.8105 4.02113 16.779 5.43162V5.43158ZM7.20004 2.33684C6.69474 3.38947 6.31583 4.73684 6.08425 6.23158C5.05263 6.04214 4.10526 5.76842 3.22109 5.43154C4.18959 4.02102 5.57895 2.94726 7.20004 2.3368V2.33684ZM3.22109 14.5684C4.1053 14.2315 5.05263 13.958 6.08425 13.7684C6.31583 15.242 6.6947 16.5894 7.20004 17.6631C5.57895 17.0527 4.18959 15.9789 3.22109 14.5684V14.5684ZM12.8 17.6632C13.3053 16.5895 13.6842 15.2422 13.9158 13.7684C14.9474 13.9579 15.8948 14.2316 16.779 14.5685C15.8317 15.979 14.4211 17.0527 12.8 17.6632V17.6632Z" fill="#42A3EB"/>
</svg>
