<svg width="100" height="60" viewBox="0 0 100 60" fill="none" xmlns="http://www.w3.org/2000/svg">
<path d="M39.0944 25.9571C39.8326 25.9571 40.2017 25.588 40.2017 24.8498V22.0429C40.2017 21.4249 40.3562 20.9657 40.6652 20.6652C40.9742 20.3562 41.4206 20.2017 42.0043 20.2017H44.8755C45.6223 20.2017 45.9957 19.8369 45.9957 19.1073C45.9957 18.3691 45.6223 18 44.8755 18H41.9142C40.6266 18 39.6524 18.3262 38.9914 18.9785C38.3305 19.6309 38 20.5966 38 21.8755V24.8498C38 25.588 38.3648 25.9571 39.0944 25.9571ZM60.9056 25.9571C61.6352 25.9571 62 25.588 62 24.8498V21.8755C62 20.5966 61.6695 19.6309 61.0086 18.9785C60.3562 18.3262 59.382 18 58.0858 18H55.1116C54.382 18 54.0172 18.3691 54.0172 19.1073C54.0172 19.8369 54.382 20.2017 55.1116 20.2017H57.9957C58.5708 20.2017 59.0172 20.3562 59.3348 20.6652C59.6524 20.9657 59.8112 21.4249 59.8112 22.0429V24.8498C59.8112 25.588 60.176 25.9571 60.9056 25.9571ZM41.9142 42H44.8755C45.6223 42 45.9957 41.6352 45.9957 40.9056C45.9957 40.176 45.6223 39.8112 44.8755 39.8112H42.0043C41.4206 39.8112 40.9742 39.6567 40.6652 39.3476C40.3562 39.0472 40.2017 38.588 40.2017 37.97V35.1631C40.2017 34.4249 39.8326 34.0558 39.0944 34.0558C38.3648 34.0558 38 34.4249 38 35.1631V38.1245C38 39.412 38.3305 40.3777 38.9914 41.0215C39.6524 41.6738 40.6266 42 41.9142 42ZM55.1116 42H58.0858C59.382 42 60.3562 41.6738 61.0086 41.0215C61.6695 40.3691 62 39.4034 62 38.1245V35.1631C62 34.4249 61.6352 34.0558 60.9056 34.0558C60.176 34.0558 59.8112 34.4249 59.8112 35.1631V37.97C59.8112 38.588 59.6524 39.0472 59.3348 39.3476C59.0172 39.6567 58.5708 39.8112 57.9957 39.8112H55.1116C54.382 39.8112 54.0172 40.176 54.0172 40.9056C54.0172 41.6352 54.382 42 55.1116 42ZM45.3906 29.1888C45.691 29.1888 45.9356 29.0944 46.1245 28.9056C46.3133 28.7167 46.4077 28.4721 46.4077 28.1717V26.5236C46.4077 26.2232 46.3133 25.9828 46.1245 25.8026C45.9356 25.6137 45.691 25.5193 45.3906 25.5193C45.1073 25.5193 44.8712 25.6137 44.6824 25.8026C44.4936 25.9914 44.3991 26.2318 44.3991 26.5236V28.1717C44.3991 28.4721 44.4936 28.7167 44.6824 28.9056C44.8712 29.0944 45.1073 29.1888 45.3906 29.1888ZM49.0343 32.0601C49.0515 32.0601 49.0687 32.0601 49.0858 32.0601C49.103 32.0601 49.1202 32.0601 49.1373 32.0601C49.7554 32.0601 50.2275 31.897 50.5536 31.5708C50.8884 31.2361 51.0558 30.7554 51.0558 30.1288V26.3047C51.0558 26.0644 50.9785 25.8712 50.824 25.7253C50.6781 25.5708 50.485 25.4936 50.2446 25.4936C49.9957 25.4936 49.794 25.5708 49.6395 25.7253C49.4936 25.8712 49.4206 26.0644 49.4206 26.3047V30.2189C49.4206 30.279 49.4034 30.3262 49.3691 30.3605C49.3433 30.3863 49.3004 30.3991 49.2403 30.3991H48.8541C48.6223 30.3991 48.4292 30.4764 48.2747 30.6309C48.1202 30.7854 48.0429 30.9742 48.0429 31.1974C48.0429 31.4721 48.1288 31.6867 48.3004 31.8412C48.4721 31.9871 48.7167 32.0601 49.0343 32.0601ZM54.5708 29.1888C54.8627 29.1888 55.0987 29.0944 55.279 28.9056C55.4678 28.7167 55.5622 28.4721 55.5622 28.1717V26.5236C55.5622 26.2318 55.4678 25.9914 55.279 25.8026C55.0987 25.6137 54.8627 25.5193 54.5708 25.5193C54.2704 25.5193 54.0258 25.6137 53.8369 25.8026C53.6567 25.9828 53.5665 26.2232 53.5665 26.5236V28.1717C53.5665 28.4721 53.6567 28.7167 53.8369 28.9056C54.0258 29.0944 54.2704 29.1888 54.5708 29.1888ZM49.9356 36.1159C50.6738 36.1159 51.3948 35.9657 52.0987 35.6652C52.8112 35.3562 53.4292 34.9399 53.9528 34.4163C54.03 34.3391 54.0901 34.2489 54.133 34.1459C54.176 34.0429 54.1974 33.927 54.1974 33.7983C54.1974 33.5665 54.1159 33.3777 53.9528 33.2318C53.7983 33.0773 53.6052 33 53.3734 33C53.1502 33 52.9313 33.1073 52.7167 33.3219C52.3906 33.6652 51.9785 33.9442 51.4807 34.1588C50.9914 34.3734 50.4764 34.4807 49.9356 34.4807C49.4292 34.4807 48.927 34.3777 48.4292 34.1717C47.9313 33.9657 47.5107 33.6824 47.1674 33.3219C47.0644 33.2275 46.9614 33.1502 46.8584 33.0901C46.7639 33.03 46.6395 33 46.485 33C46.2532 33 46.0601 33.0773 45.9056 33.2318C45.7511 33.3777 45.6738 33.5665 45.6738 33.7983C45.6738 33.9099 45.691 34.0172 45.7253 34.1202C45.7682 34.2146 45.8326 34.309 45.9185 34.4034C46.3991 34.9614 47 35.3863 47.721 35.6781C48.4506 35.97 49.1888 36.1159 49.9356 36.1159Z" fill="black"/>
</svg>
