<svg width="24" height="24" viewBox="0 0 24 24" fill="none" xmlns="http://www.w3.org/2000/svg">
<path d="M2.66339 14.9894L6.92047 10.6082C6.98254 10.5461 7.04459 10.5213 7.10666 10.5213C7.16871 10.5213 7.23076 10.5461 7.29283 10.6082L10.7432 14.195C11.19 14.6543 11.6492 14.8777 12.1333 14.8777C12.6297 14.8777 13.0641 14.6543 13.5233 14.195L17.2964 10.4096L18.8106 11.9238C19.2077 12.3209 19.7166 12.0727 19.8655 11.5142L21.3921 5.73052C21.5286 5.23405 21.0818 4.81208 20.5854 4.9486L14.8265 6.46278C14.268 6.62413 14.0198 7.12058 14.4169 7.51774L15.9435 9.04435L12.3194 12.7057C12.2698 12.7677 12.1953 12.7926 12.1333 12.7926C12.0836 12.7926 12.0091 12.7677 11.9471 12.7057L8.49672 9.1188C8.04992 8.65959 7.59071 8.43619 7.10666 8.43619C6.62262 8.43619 6.18822 8.64719 5.71658 9.1188L1.31055 13.6241L2.66339 14.9894Z" fill="white"/>
<path d="M1 20.1525C1 20.6613 1.33511 20.9964 1.84396 20.9964H21.1064C21.6028 20.9964 22 20.5993 22 20.1028C22 19.6188 21.6028 19.2092 21.1064 19.2092H3.09752C2.86169 19.2092 2.78724 19.1472 2.78724 18.9113V3.89361C2.78724 3.40957 2.39008 3 1.89361 3C1.40959 3 1 3.40957 1 3.89361V20.1525Z" fill="white"/>
</svg>
