<svg width="24" height="19" viewBox="0 0 24 19" fill="none" xmlns="http://www.w3.org/2000/svg">
<path opacity="0.4" fill-rule="evenodd" clip-rule="evenodd" d="M20.2782 2.42894L18.1569 0.307617L15.4094 3.05504C14.3075 2.74736 13.1674 2.5858 12 2.5858C7.33629 2.5858 3.10929 5.16426 0 9.3358C1.35803 11.1577 2.92918 12.6757 4.65675 13.8077L1.8934 16.5711L4.01472 18.6924L20.2782 2.42894ZM7.72363 10.7408L13.405 5.05943C12.963 4.9143 12.4907 4.8358 12 4.8358C9.51446 4.8358 7.5 6.85026 7.5 9.3358C7.5 9.82646 7.5785 10.2988 7.72363 10.7408ZM12 13.8358C11.9576 13.8358 11.9152 13.8352 11.8731 13.834L9.81267 15.8944C10.5289 16.0207 11.2589 16.0858 12 16.0858C16.6667 16.0858 20.8907 13.5073 24 9.3358C22.8763 7.82828 21.6067 6.52881 20.2232 5.4839L16.4982 9.20887C16.4994 9.25104 16.5 9.29335 16.5 9.3358C16.5 11.8213 14.4855 13.8358 12 13.8358Z" fill="black"/>
</svg>
