<svg width="170" height="170" viewBox="0 0 170 170" xmlns="http://www.w3.org/2000/svg">
<path d="M37.1244 39.2547V59.8715C39.3489 62.6995 41.5515 65.5292 43.7305 68.3556C46.0474 71.2761 48.3424 74.2202 50.6156 77.1878H105.282L114.67 86.5731L50.6863 86.5024V130.746L27.8064 130.675V69.8856L37.1244 81.9141V121.359H41.2975V80.4529L27.8064 63.0694V48.5728C27.8064 43.4262 31.9795 39.2547 37.1244 39.2547Z" fill="#DBDAD5"/>
<path d="M55.2258 90.6756L119.316 90.7463V69.884L128.634 81.9141V130.677H119.316V100.061H64.6111C64.6111 100.061 60.1371 95.5869 55.2258 90.6756Z" fill="#DBDAD5"/>
<path d="M142.192 39.3941V70.4403L132.805 58.4119V48.7811H128.632V59.873C130.904 62.7935 133.175 65.6905 135.447 68.5639C137.674 71.439 139.921 74.3108 142.192 77.1859V121.357C142.192 126.503 138.021 130.675 132.874 130.675H132.805V80.4544L119.314 63.0709V39.3941H142.192Z" fill="#DBDAD5"/>
<path d="M50.6844 39.2544V70.4419L41.2974 58.4101V39.2544H50.6844Z" fill="#DBDAD5"/>
</svg>
