<svg width="7" height="12" viewBox="0 0 7 12" fill="none" xmlns="http://www.w3.org/2000/svg">
<path d="M6.99986 5.9873C6.9977 5.71862 6.89154 5.46119 6.70379 5.26969L1.7612 0.304905C1.56827 0.110248 1.3064 0.00057888 1.03301 1.90735e-06C0.759642 -0.000575066 0.4972 0.107938 0.303542 0.301587C0.109755 0.49538 0.000576019 0.758429 2.38419e-06 1.03304C-0.000571251 1.30766 0.107456 1.57127 0.300239 1.76579L4.51541 5.9999L0.300239 10.234V10.2342C0.040514 10.4962 -0.0603313 10.8777 0.0357733 11.2347C0.131878 11.5919 0.410292 11.8704 0.766092 11.9653C1.12207 12.0602 1.5013 11.9572 1.76119 11.695L6.70378 6.73023C6.89785 6.5324 7.00459 6.26445 6.99985 5.98681L6.99986 5.9873Z" fill="#858B93"/>
</svg>
