<svg width="16" height="16" viewBox="0 0 16 16" fill="none" xmlns="http://www.w3.org/2000/svg">
<circle cx="8" cy="8" r="7.5" fill="#8E979D" stroke="white"/>
<path fill-rule="evenodd" clip-rule="evenodd" d="M10.2411 7.2551H10.4649L10.4648 7.25518C10.8825 7.25518 11.2222 7.58678 11.2222 7.99656V11.2551C11.2232 11.6649 10.8843 11.9973 10.4667 11.9973L5.75739 12C5.33974 12 5 11.6675 5 11.2578V8.00002C4.99905 7.59024 5.33791 7.25778 5.75556 7.25691H5.83532L5.83349 6.16267C5.83268 4.97066 6.82109 4.00087 8.03596 4C9.2509 3.99921 10.2393 4.96891 10.2402 6.16093L10.2411 7.2551ZM6.64535 6.16266L6.64719 7.2569L9.42944 7.25517L9.4276 6.16093C9.4276 5.40896 8.80342 4.79649 8.03603 4.79649C7.26865 4.79735 6.64535 5.40975 6.64535 6.16266ZM8.11115 10.6684C8.60207 10.6684 9.00004 10.2704 9.00004 9.77951C9.00004 9.28859 8.60207 8.89063 8.11115 8.89063C7.62023 8.89063 7.22227 9.28859 7.22227 9.77951C7.22227 10.2704 7.62023 10.6684 8.11115 10.6684Z" fill="white"/>
</svg>
