<svg width="30" height="30" viewBox="0 0 30 30" fill="none" xmlns="http://www.w3.org/2000/svg">
    <path d="M14.9906 13.2188C14.0063 13.2188 13.2094 14.0156 13.2094 15C13.2094 15.9844 14.0063 16.7812 14.9906 16.7812C15.975 16.7812 16.7719 15.9844 16.7719 15C16.7719 14.0156 15.975 13.2188 14.9906 13.2188ZM7.78125 13.2188C6.79688 13.2188 6 14.0156 6 15C6 15.9844 6.79688 16.7812 7.78125 16.7812C8.76562 16.7812 9.5625 15.9844 9.5625 15C9.5625 14.0156 8.76562 13.2188 7.78125 13.2188ZM22.2188 13.2188C21.2344 13.2188 20.4375 14.0156 20.4375 15C20.4375 15.9844 21.2344 16.7812 22.2188 16.7812C23.2031 16.7812 24 15.9844 24 15C24 14.0156 23.2031 13.2188 22.2188 13.2188Z" fill="black" />
</svg>