
<svg width="12" height="12" viewBox="0 0 12 12" fill="none" xmlns="http://www.w3.org/2000/svg">
<path d="M11.984 11.5999L11.1506 9.07751C11.9012 7.82125 12.1668 6.33396 11.8975 4.89564C11.6281 3.45728 10.8424 2.16697 9.68805 1.26732C8.53379 0.367835 7.09061 -0.0788531 5.62999 0.0114369C4.1694 0.101629 2.79214 0.722537 1.7573 1.75731C0.722465 2.79208 0.101632 4.16937 0.0114349 5.63C-0.0788481 7.09059 0.367856 8.53382 1.26732 9.68805C2.1669 10.8424 3.45716 11.6281 4.89564 11.8975C6.3341 12.1668 7.8213 11.9012 9.0775 11.1506L11.5999 11.984C11.709 12.0194 11.8287 11.9906 11.9097 11.9096C11.9907 11.8285 12.0195 11.7089 11.9841 11.5998L11.984 11.5999ZM3.26043 6.99831C2.99683 6.99831 2.74406 6.8936 2.55767 6.70713C2.37121 6.52076 2.2665 6.26797 2.2665 6.00437C2.2665 5.74077 2.37121 5.488 2.55767 5.30161C2.74405 5.11515 2.99683 5.01044 3.26043 5.01044C3.52403 5.01044 3.77681 5.11515 3.96319 5.30161C4.14966 5.48798 4.25437 5.74077 4.25437 6.00437C4.25382 6.26779 4.14893 6.52031 3.96264 6.70658C3.77634 6.89285 3.52382 6.99775 3.26043 6.99831ZM6.00421 6.99831C5.74061 6.99831 5.48783 6.8936 5.30145 6.70713C5.11498 6.52076 5.01027 6.26797 5.01027 6.00437C5.01027 5.74077 5.11498 5.488 5.30145 5.30161C5.48782 5.11515 5.74061 5.01044 6.00421 5.01044C6.26781 5.01044 6.52058 5.11515 6.70697 5.30161C6.89343 5.48798 6.99814 5.74077 6.99814 6.00437C6.99814 6.26797 6.89343 6.52075 6.70697 6.70713C6.5206 6.8936 6.26781 6.99831 6.00421 6.99831ZM8.74798 6.99831C8.48438 6.99831 8.23161 6.8936 8.04522 6.70713C7.85876 6.52076 7.75405 6.26797 7.75405 6.00437C7.75405 5.74077 7.85876 5.488 8.04522 5.30161C8.23159 5.11515 8.48438 5.01044 8.74798 5.01044C9.01158 5.01044 9.26436 5.11515 9.45074 5.30161C9.63721 5.48798 9.74191 5.74077 9.74191 6.00437C9.74191 6.26797 9.6372 6.52075 9.45074 6.70713C9.26437 6.8936 9.01158 6.99831 8.74798 6.99831Z" fill="#BDC3CA"/>
</svg>
