<svg width="42" height="42" viewBox="0 0 42 42" fill="none" xmlns="http://www.w3.org/2000/svg">
<path d="M12.0001 26.5262C12.0001 27.4474 12.3659 28.331 13.0175 28.9825C13.6689 29.6339 14.5524 30 15.4738 30H28.7369C29.3231 30 29.8854 29.7669 30.3 29.3524C30.7146 28.9379 30.9474 28.3757 30.9474 27.7893V17.3683V17.3686C30.9474 16.7822 30.7145 16.2201 30.3 15.8055C29.8854 15.3909 29.3231 15.1579 28.7369 15.1579H26.8421V13.5789C26.8421 13.1602 26.6758 12.7586 26.3797 12.4626C26.0834 12.1665 25.6819 12 25.2631 12H14.5264C13.8563 12 13.2138 12.2663 12.7399 12.7401C12.2661 13.2137 12 13.8563 12 14.5264L12.0001 26.5262ZM26.7253 21.4326H28.8949V24.0378H26.7253C26.3687 24.0554 26.0205 23.9261 25.7619 23.6798C25.5033 23.4335 25.357 23.0921 25.357 22.7353C25.357 22.3782 25.5033 22.0368 25.7619 21.7905C26.0205 21.5445 26.3687 21.4149 26.7253 21.4326V21.4326ZM14.5264 13.8948H24.9473V15.1579H14.5264C14.1774 15.1579 13.8948 14.8753 13.8948 14.5264C13.8948 14.1777 14.1775 13.8948 14.5264 13.8948V13.8948Z" fill="white"/>
</svg>
