<svg width="32" height="34" viewBox="0 0 32 34" fill="none" xmlns="http://www.w3.org/2000/svg">
<g filter="url(#filter0_d_1194_1163)">
<path d="M24.113 1.97702C21.6606 1.77156 19.2528 1.19919 16.9704 0.278678C16.1174 -0.0928926 15.148 -0.0928926 14.295 0.278678C12.0126 1.19924 9.60479 1.77157 7.15235 1.97702C6.28847 2.06095 5.48691 2.46368 4.90401 3.10692C4.32117 3.74994 3.99886 4.58715 4 5.45517V10.8758C4 17.3435 7.22225 21.9151 14.1434 25.2539C15.0863 25.6987 16.1785 25.6987 17.1214 25.2539C24.101 21.9154 27.2648 17.3435 27.2648 10.8758V5.45517C27.266 4.5872 26.9437 3.74999 26.3608 3.10692C25.7779 2.4637 24.9763 2.06097 24.1124 1.97702H24.113ZM24.9389 10.876C24.9389 16.4248 22.2168 20.1824 16.1097 23.1602C15.8063 23.2967 15.4593 23.2967 15.1558 23.1602C9.04867 20.2055 6.32661 16.4248 6.32661 10.876V5.45537C6.32525 5.16598 6.43177 4.88653 6.62535 4.6713C6.81892 4.45631 7.08573 4.32116 7.37356 4.29214C10.0624 4.0561 12.701 3.42083 15.2027 2.40759C15.4791 2.29756 15.7872 2.29756 16.0635 2.40759C18.5652 3.42083 21.2035 4.05608 23.8926 4.29214C24.1805 4.32115 24.4473 4.45631 24.6409 4.6713C24.8344 4.8865 24.941 5.16596 24.9396 5.45537L24.9389 10.876Z" fill="#4DC47D"/>
<path d="M19.5179 8.52638L14.737 13.1794L12.899 11.4228C12.6809 11.2063 12.3862 11.0846 12.0787 11.0846C11.7714 11.0846 11.4766 11.2063 11.2587 11.4228C11.0384 11.6413 10.9146 11.9387 10.9146 12.2489C10.9146 12.559 11.0384 12.8563 11.2587 13.0748L13.9109 15.6805C14.129 15.8971 14.4238 16.0188 14.7311 16.0188C15.0384 16.0188 15.3333 15.8971 15.5512 15.6805L21.1463 10.1781C21.4433 9.88497 21.5617 9.45577 21.4566 9.05205C21.3514 8.64815 21.0387 8.3311 20.6365 8.22028C20.2342 8.10927 19.8032 8.22164 19.506 8.51453L19.5179 8.52638Z" fill="#4DC47D"/>
</g>
<defs>
<filter id="filter0_d_1194_1163" x="-1" y="0" width="34" height="34" filterUnits="userSpaceOnUse" color-interpolation-filters="sRGB">
<feFlood flood-opacity="0" result="BackgroundImageFix"/>
<feColorMatrix in="SourceAlpha" type="matrix" values="0 0 0 0 0 0 0 0 0 0 0 0 0 0 0 0 0 0 127 0" result="hardAlpha"/>
<feOffset dy="4"/>
<feGaussianBlur stdDeviation="2"/>
<feComposite in2="hardAlpha" operator="out"/>
<feColorMatrix type="matrix" values="0 0 0 0 0 0 0 0 0 0 0 0 0 0 0 0 0 0 0.25 0"/>
<feBlend mode="normal" in2="BackgroundImageFix" result="effect1_dropShadow_1194_1163"/>
<feBlend mode="normal" in="SourceGraphic" in2="effect1_dropShadow_1194_1163" result="shape"/>
</filter>
</defs>
</svg>
