<svg width="16" height="16" viewBox="0 0 16 16" fill="none" xmlns="http://www.w3.org/2000/svg">
<circle cx="8" cy="8" r="8" fill="#E19626"/>
<path d="M6.66602 9.90332H8.47754V9.54102C8.47754 8.87109 8.73047 8.53613 9.63965 8.00977C10.6035 7.44238 11.1025 6.72461 11.1025 5.69922V5.68555C11.1025 4.13379 9.81055 3.04688 7.85547 3.04688C5.75684 3.04688 4.56738 4.22266 4.5332 5.89746V5.91113L6.37891 5.9043H6.39258C6.42676 5.13184 6.94629 4.63281 7.73242 4.63281C8.51172 4.63281 9.03125 5.10449 9.03125 5.74707V5.76074C9.03125 6.40332 8.76465 6.73828 7.88281 7.26465C6.93945 7.81836 6.56348 8.43359 6.65234 9.50684L6.66602 9.90332ZM7.64355 13.1982C8.40918 13.1982 8.88086 12.7607 8.88086 12.0566C8.88086 11.3457 8.40918 10.9082 7.64355 10.9082C6.87793 10.9082 6.39941 11.3457 6.39941 12.0566C6.39941 12.7607 6.87793 13.1982 7.64355 13.1982Z" fill="white"/>
</svg>
