<svg width="24" height="24" viewBox="0 0 24 24" fill="none" xmlns="http://www.w3.org/2000/svg">
<rect width="24" height="24" rx="12" fill="white"/>
<path d="M9.7825 16.025H15.4175V14.5H9.7825V16.025ZM9.7825 13.05H15.4175V11.5H9.7825V13.05ZM8.05 19C7.77 19 7.525 18.895 7.315 18.685C7.105 18.475 7 18.23 7 17.95V6.05C7 5.77 7.105 5.525 7.315 5.315C7.525 5.105 7.77 5 8.05 5H14.3675L18.2 8.8325V17.95C18.2 18.23 18.095 18.475 17.885 18.685C17.675 18.895 17.43 19 17.15 19H8.05ZM13.8425 9.305V6.05H8.05V17.95H17.15V9.305H13.8425Z" fill="#858B93"/>
</svg>
