<svg width="42" height="42" viewBox="0 0 42 42" fill="none" xmlns="http://www.w3.org/2000/svg">
<path d="M14.9165 22.5905L20.4186 14.4897L19.3986 13.7977C19.3618 13.7727 19.3167 13.7632 19.273 13.7716C19.2293 13.7799 19.1908 13.8053 19.1658 13.8422L16.2032 18.1951C16.0142 18.4726 15.6915 18.6282 15.3567 18.6032C15.0219 18.5783 14.7258 18.3765 14.5801 18.0742C14.4343 17.7717 14.461 17.4145 14.6499 17.137L17.5935 12.7905C17.8985 12.3398 18.3702 12.029 18.9047 11.927C19.4392 11.825 19.9925 11.94 20.442 12.2467L21.462 12.9387L22.0586 12.0583C22.6079 11.3266 23.4959 10.9302 24.4073 11.0101C25.3186 11.09 26.1241 11.6348 26.5376 12.451C26.951 13.2671 26.9139 14.2388 26.4391 15.0209L19.2865 25.5617C17.9835 27.4854 16.1104 28.9522 13.9307 29.7559C13.7212 29.8325 13.4877 29.8033 13.3036 29.6772C13.1197 29.5512 13.0079 29.3439 13.0038 29.121C12.943 26.7978 13.612 24.5138 14.9167 22.5904L14.9165 22.5905ZM24.5663 27.9486C23.5907 27.9486 23.085 28.5284 22.7485 28.9135C22.4543 29.2499 22.3844 29.2986 22.2046 29.2986C22.0247 29.2986 21.9528 29.2478 21.6608 28.9114C21.3244 28.5263 20.8144 27.9465 19.8409 27.9465C18.8674 27.9465 18.3744 28.5094 18.038 28.8924C17.8765 29.0515 17.7854 29.2687 17.7854 29.4954C17.7854 29.7223 17.8765 29.9394 18.038 30.0985C18.1968 30.2575 18.4122 30.3468 18.6368 30.3468C18.8615 30.3468 19.077 30.2575 19.2357 30.0985L19.2611 30.0731L19.2949 30.0351C19.5891 29.6987 19.6589 29.6479 19.8387 29.6479C20.0187 29.6479 20.0906 29.6987 20.3826 30.0351C20.719 30.4202 21.2289 31 22.2025 31C23.176 31 23.6837 30.4202 24.0203 30.0351C24.3145 29.6987 24.3843 29.6479 24.5641 29.6479C24.744 29.6479 24.8159 29.6987 25.1101 30.0351C25.4465 30.4202 25.9565 31 26.93 31C27.9035 31 28.4113 30.4202 28.7479 30.0371C28.912 29.8714 29.0004 29.6452 28.9923 29.4122C28.9842 29.1791 28.8803 28.9597 28.7049 28.8058C28.5297 28.6518 28.2987 28.577 28.0665 28.599C27.8343 28.6211 27.6214 28.7379 27.4782 28.9219C27.184 29.2563 27.1142 29.307 26.9322 29.307C26.7502 29.307 26.6804 29.2563 26.3862 28.9199C26.0582 28.5304 25.5419 27.9486 24.5665 27.9486L24.5663 27.9486Z" fill="white"/>
</svg>
