<svg width="42" height="42" viewBox="0 0 42 42" fill="none" xmlns="http://www.w3.org/2000/svg">
<path d="M22.6164 15.379C22.8024 15.1759 22.8096 14.8721 22.64 14.655L21.8066 13.5907C21.6809 13.4296 21.6485 13.2289 21.7233 13.0381C21.7982 12.8476 21.9567 12.7177 22.1585 12.6955L28.3964 12.004C28.5812 11.9832 28.7506 12.0438 28.8741 12.1851C28.9976 12.3263 29.0331 12.503 28.9941 12.6872L27.6216 19.1816C27.5781 19.3901 27.4172 19.538 27.2115 19.5841C27.0058 19.6298 26.8071 19.5575 26.6725 19.3935L25.4829 17.9486C25.2931 17.7177 24.957 17.6776 24.724 17.8634C23.5286 18.8185 17.9802 22.5283 12.8518 23.5433C12.581 23.5969 12.2904 23.5139 12.1147 22.9966C11.939 22.4794 12.0621 22.1342 12.311 22.0141C15.2569 20.5923 20.2303 17.9818 22.6164 15.379ZM13.6514 26.6972H27.5229C28.435 26.6972 29.1743 27.4366 29.1743 28.3486C29.1743 29.2607 28.435 30 27.5229 30H13.6514C12.7393 30 12 29.2607 12 28.3486C12 27.4366 12.7393 26.6972 13.6514 26.6972Z" fill="white"/>
</svg>
