<svg width="17" height="22" viewBox="0 0 17 22" fill="none" xmlns="http://www.w3.org/2000/svg">
<path d="M0 21.353V0.646999C0 0.289741 0.289733 0 0.646998 0H16.1767C16.534 0 16.8237 0.289733 16.8237 0.646999V21.353C16.8237 21.7103 16.534 22 16.1767 22H0.646998C0.289741 22 0 21.7103 0 21.353ZM8.39185 11.3233C10.5153 11.3233 11.8237 8.53878 11.9696 5.85866C11.988 5.52273 11.7459 5.22887 11.4127 5.18251C10.6299 5.07371 9.46758 4.22154 8.93199 3.4975C8.67326 3.14777 8.15028 3.14777 7.89155 3.4975C7.35596 4.22154 6.19365 5.07369 5.41084 5.18251C5.07768 5.22886 4.8355 5.52273 4.85392 5.85866C5.00155 8.57001 6.26822 11.3233 8.39181 11.3233H8.39185ZM3.23519 15.853H13.5882C13.9454 15.853 14.2352 15.5632 14.2352 15.2058C14.2352 14.8484 13.9455 14.5588 13.5882 14.5588H3.23519C2.87793 14.5588 2.58819 14.8484 2.58819 15.2058C2.58819 15.5632 2.87792 15.853 3.23519 15.853ZM3.23519 19.4117H8.41189C8.7693 19.4117 9.05888 19.122 9.05888 18.7647C9.05888 18.4073 8.76931 18.1176 8.41189 18.1176H3.23519C2.87793 18.1176 2.58819 18.4073 2.58819 18.7647C2.58819 19.122 2.87792 19.4117 3.23519 19.4117ZM8.39185 10.0295C7.34802 10.0295 6.4274 8.21911 6.1929 6.3139C6.97556 6.04059 7.79687 5.47602 8.41177 4.86371C9.0264 5.4757 9.84723 6.04012 10.6296 6.31359C10.3903 8.20037 9.44165 10.0295 8.39181 10.0295H8.39185Z" fill="white"/>
</svg>
