<svg width="24" height="24" viewBox="0 0 24 24" fill="none" xmlns="http://www.w3.org/2000/svg">
<path d="M6.13724 20.9907C6.53654 21.2929 7.0222 21.1742 7.60498 20.7533L11.9974 17.5264L16.4007 20.7533C16.9727 21.1742 17.4583 21.2929 17.8576 20.9907C18.2462 20.6993 18.3217 20.2029 18.0843 19.5338L16.3467 14.3643L20.7823 11.1806C21.3651 10.7812 21.6134 10.3388 21.4515 9.86389C21.3004 9.41061 20.8471 9.18399 20.1348 9.19478L14.6955 9.23795L13.0443 4.03606C12.8284 3.35616 12.4939 3 11.9974 3C11.5118 3 11.1772 3.35616 10.9506 4.03606L9.29937 9.23795L3.86005 9.19478C3.14777 9.18399 2.70529 9.41061 2.5434 9.86389C2.39231 10.3388 2.64053 10.7812 3.21253 11.1806L7.64815 14.3643L5.9106 19.5338C5.67317 20.2029 5.74872 20.6993 6.13724 20.9907Z" fill="#F3A203"/>
</svg>
