<svg width="42" height="42" viewBox="0 0 42 42" fill="none" xmlns="http://www.w3.org/2000/svg">
<path d="M21.905 13.0001H20.2064C19.8668 13.0001 19.6024 13.2264 19.6024 13.5173V14.8101L19.4139 14.8426C17.2621 15.2628 15.8278 16.976 16.0167 18.883C16.2431 20.79 18.2437 22.277 20.5464 22.277H21.6789C22.0941 22.277 22.4717 22.4387 22.7358 22.6973C23.0002 22.9559 23.1511 23.3115 23.1134 23.6345C23.0379 24.2487 22.3585 24.7335 21.5657 24.7335H20.0559C19.6407 24.7335 19.263 24.4749 19.1499 24.1193C19.0743 23.8929 18.8478 23.7315 18.5458 23.7315H16.8093C16.6205 23.7315 16.4696 23.7962 16.3564 23.8931C16.2432 23.9901 16.2055 24.1517 16.2055 24.2809C16.3943 25.7354 17.6777 26.9316 19.3763 27.1899L19.5272 27.2222V28.4828C19.5272 28.7736 19.7915 29 20.1312 29H21.8298C22.1695 29 22.4338 28.7736 22.4338 28.4828L22.4336 27.1252L22.5845 27.093C24.4342 26.7051 25.7932 25.3798 25.9817 23.8283C26.0949 22.7617 25.6796 21.7274 24.8491 20.9194C24.0187 20.1435 22.8485 19.691 21.6028 19.691H20.2815C19.8662 19.691 19.4886 19.5294 19.2245 19.2707C18.9602 19.0121 18.8093 18.6565 18.8469 18.301C18.9225 17.6868 19.6018 17.202 20.3947 17.202H21.9045C22.3197 17.202 22.6973 17.4607 22.8105 17.8162C22.8861 18.0426 23.1125 18.2365 23.4145 18.2365H25.1511C25.3399 18.2365 25.4908 18.1718 25.604 18.0749C25.7172 17.9779 25.7928 17.8162 25.7549 17.687C25.5661 16.2326 24.2827 15.0364 22.5841 14.7781L22.4332 14.7458V13.4852C22.509 13.2264 22.2449 13 21.905 13L21.905 13.0001Z" fill="white"/>
<path d="M20.993 6.0009C24.4587 5.96345 27.6984 7.08961 30.4107 9.22987C32.1812 10.619 33.6128 12.3837 34.5921 14.3736H36.0237C36.7395 14.3736 37.2293 15.1622 36.89 15.8004L35.8353 17.7904V17.8656H35.7598L33.9893 21.1697C33.6125 21.8454 32.6707 21.8454 32.2942 21.1697L29.4313 15.763C29.0923 15.1247 29.5443 14.3362 30.2977 14.3362H31.7292C29.4688 10.7693 25.4758 8.44128 21.0684 8.44128C14.137 8.44128 8.52402 14.0357 8.48635 20.9441C8.48635 24.2857 9.76709 27.4396 12.178 29.805C14.5513 32.1705 17.7156 33.4845 21.0683 33.4845C25.1368 33.4845 28.8285 31.5697 31.1641 28.4156C31.4655 28.0401 31.9553 27.89 32.4072 28.0778C33.236 28.4533 33.4995 29.5046 32.9346 30.218C31.9174 31.4945 30.6742 32.621 29.2805 33.5596C26.8321 35.1366 24.0068 36 21.0683 36C17.0374 36 13.2328 34.4231 10.4075 31.5697C7.54457 28.7162 6 24.924 6 20.9066C6 12.7591 12.7431 6.03845 20.993 6.0009Z" fill="white"/>
</svg>
