<svg width="10" height="12" viewBox="0 0 10 12" fill="none" xmlns="http://www.w3.org/2000/svg">
<path d="M9.25 4.94686H9.22057V5.69686C9.22057 7.03113 8.5122 8.22819 7.5758 9.22134C6.6458 10.2077 5.56643 10.911 5.00246 11.2451L5.0024 11.245L4.99601 11.249C4.99367 11.2495 4.98994 11.25 4.98528 11.25C4.98064 11.25 4.97694 11.2495 4.9746 11.249L4.96819 11.2452C4.4043 10.911 3.32491 10.2077 2.39486 9.22126C1.45841 8.22807 0.75 7.03103 0.75 5.69686V2.86301C0.75 2.85604 0.751154 2.85214 0.75176 2.85049C0.75243 2.84866 0.753029 2.84796 0.753078 2.8479C0.753086 2.84789 0.753092 2.84789 0.753097 2.84788C0.753133 2.84786 0.753206 2.84781 0.753328 2.84774C0.753381 2.84771 0.756068 2.8461 0.763323 2.845L0.763328 2.84504L0.770915 2.84381C2.92672 2.4943 4.25917 1.53156 4.95853 0.772584C4.96959 0.760825 4.97849 0.755837 4.98383 0.753518C4.98971 0.750959 4.9951 0.75 5 0.75C5.00491 0.75 5.0103 0.750959 5.01618 0.753516C5.0216 0.755875 5.03071 0.760994 5.04204 0.773196L5.0472 0.77875L5.05247 0.784199C5.76824 1.52453 7.06331 2.49268 9.22909 2.84381L9.22908 2.84385L9.23638 2.84496C9.24369 2.84607 9.24644 2.8477 9.24655 2.84776L9.24692 2.84802C9.24699 2.84811 9.2476 2.84882 9.24826 2.85063C9.24886 2.85227 9.25 2.85612 9.25 2.86301V4.94686Z" stroke="#A1A5B5" stroke-width="1.5"/>
</svg>
