<svg width="28" height="28" viewBox="0 0 28 28" fill="none" xmlns="http://www.w3.org/2000/svg">
<rect width="28" height="28" rx="6" fill="#64BF7E"/>
<path d="M15.2572 9.6281C15.4019 9.47015 15.4075 9.23383 15.2755 9.06503L14.6274 8.23723C14.5296 8.11188 14.5044 7.95583 14.5625 7.80739C14.6208 7.65922 14.7441 7.55817 14.9011 7.54092L19.7528 7.0031C19.8965 6.98693 20.0282 7.03406 20.1243 7.14393C20.2203 7.25381 20.2479 7.39125 20.2177 7.53452L19.1502 12.5857C19.1163 12.7478 18.9911 12.8629 18.8312 12.8987C18.6712 12.9343 18.5166 12.8781 18.412 12.7505L17.4867 11.6267C17.3391 11.4471 17.0777 11.4159 16.8964 11.5604C15.9667 12.3033 11.6512 15.1887 7.66248 15.9781C7.45187 16.0198 7.22586 15.9552 7.0892 15.5529C6.95255 15.1507 7.0483 14.8822 7.2419 14.7887C9.53314 13.6829 13.4014 11.6525 15.2572 9.6281ZM8.2844 18.4312H19.0734C19.7828 18.4312 20.3578 19.0062 20.3578 19.7156C20.3578 20.425 19.7828 21 19.0734 21H8.2844C7.57505 21 7 20.425 7 19.7156C7 19.0062 7.57505 18.4312 8.2844 18.4312Z" fill="white"/>
</svg>
