<svg width="10" height="14" viewBox="0 0 10 14" fill="none" xmlns="http://www.w3.org/2000/svg">
<path d="M8.78284 6.22751H8.4232L8.42178 4.46901C8.42026 2.55327 6.8318 0.994819 4.87922 0.996095C2.92675 0.99749 1.33823 2.55608 1.33953 4.47182L1.34247 6.23042H1.2143C0.543074 6.23181 -0.00153079 6.76613 3.2328e-06 7.42469V12.6603C3.2328e-06 13.3189 0.546012 13.8532 1.21724 13.8532L8.7857 13.849C9.45692 13.849 10.0015 13.3146 10 12.6561V7.41913C10 6.76057 9.45399 6.22764 8.78276 6.22764L8.78284 6.22751ZM2.64726 6.2304L2.64432 4.4718C2.64432 3.26176 3.64604 2.27754 4.87934 2.27616C6.11264 2.27616 7.11579 3.26049 7.11579 4.46902L7.11874 6.22762L2.64726 6.2304Z" fill="#858B93"/>
</svg>
