<svg width="19" height="20" viewBox="0 0 19 20" fill="none" xmlns="http://www.w3.org/2000/svg">
<path fill-rule="evenodd" clip-rule="evenodd" d="M3.86551 7.75317C4.39267 7.75317 4.82002 8.18052 4.82002 8.70768C4.82002 9.35727 4.36155 9.91656 3.72459 10.044C3.61168 10.0666 3.51778 10.0847 3.44287 10.0982C2.50213 10.2683 2.06572 10.6841 2.06572 11.0181C2.06572 11.718 5.52088 13.0838 9.29574 13.0838C13.0706 13.0838 16.5258 11.7066 16.5258 11.0181C16.5258 10.6972 16.046 10.2701 15.1486 10.0982C15.0742 10.0839 14.9829 10.0673 14.8748 10.0481C14.2366 9.93531 13.7715 9.38074 13.7715 8.73269C13.7715 8.68113 13.7756 8.62966 13.7839 8.57877C13.869 8.05765 14.3603 7.7041 14.8814 7.78909C14.9743 7.80423 15.0633 7.8186 15.1486 7.8322C16.9621 8.12134 18.5915 9.75653 18.5915 10.807V15.8381C18.5915 17.2615 17.6924 19.7628 9.29574 19.9898C0.899102 20.2168 0 16.6343 0 15.8381V10.807C0 9.00633 2.06776 8.26038 3.44287 7.8322C3.50349 7.81332 3.57474 7.7947 3.65662 7.77633C3.72518 7.76093 3.79524 7.75317 3.86551 7.75317ZM16.5258 13.6501C14.5764 14.6497 12.1664 15.1495 9.29574 15.1495C6.4251 15.1495 4.01601 14.6497 2.06848 13.6501V15.8381C3.46624 17.2362 5.87533 17.9353 9.29574 17.9353C12.7162 17.9353 15.1262 17.2362 16.5258 15.8381V13.6501Z" fill="white"/>
<path d="M9.29604 0C9.86647 0 10.3289 0.462427 10.3289 1.03286V3.44287H12.7389C13.2755 3.44287 13.717 3.85275 13.767 4.3763L13.7718 4.47573C13.7718 5.04587 13.309 5.50859 12.7389 5.50859H10.3289V7.9186C10.3289 8.48903 9.86647 8.95146 9.29604 8.95146C8.72561 8.95146 8.26318 8.48903 8.26318 7.9186V5.50859H5.85317C5.28303 5.50859 4.82031 5.04587 4.82031 4.47573C4.82031 3.90559 5.28303 3.44287 5.85317 3.44287H8.26318V1.03286C8.26318 0.462427 8.72561 0 9.29604 0Z" fill="white"/>
</svg>
