<svg width="24" height="24" viewBox="0 0 24 24" fill="none" xmlns="http://www.w3.org/2000/svg">
<path d="M6.13724 20.9907C6.53654 21.2929 7.0222 21.1742 7.60498 20.7533L11.9974 17.5264L16.4007 20.7533C16.9727 21.1742 17.4583 21.2929 17.8576 20.9907C18.2462 20.6993 18.3217 20.2029 18.0843 19.5338L16.3467 14.3643L20.7823 11.1806C21.3651 10.7812 21.6134 10.3388 21.4515 9.86389C21.3004 9.41061 20.8471 9.18399 20.1348 9.19478L14.6955 9.23795L13.0443 4.03606C12.8284 3.35616 12.4939 3 11.9974 3C11.5118 3 11.1772 3.35616 10.9506 4.03606L9.29937 9.23795L3.86005 9.19478C3.14777 9.18399 2.70529 9.41061 2.5434 9.86389C2.39231 10.3388 2.64053 10.7812 3.21253 11.1806L7.64815 14.3643L5.9106 19.5338C5.67317 20.2029 5.74872 20.6993 6.13724 20.9907ZM7.55103 19.0589C7.54022 19.0373 7.54022 19.0265 7.55103 18.9834L9.20225 14.3211C9.32096 13.965 9.2562 13.6844 8.93244 13.4577L4.85294 10.6733C4.82056 10.641 4.80978 10.6301 4.82056 10.6086C4.83137 10.587 4.84216 10.587 4.88532 10.587L9.82819 10.6949C10.2059 10.7057 10.4434 10.5546 10.5621 10.1769L11.9543 5.43907C11.9651 5.3959 11.9759 5.38511 11.9974 5.38511C12.019 5.38511 12.0298 5.3959 12.0406 5.43907L13.4328 10.1769C13.5515 10.5546 13.7997 10.7057 14.1775 10.6949L19.1096 10.587C19.1527 10.587 19.1635 10.587 19.1743 10.6086C19.1851 10.6301 19.1743 10.641 19.1419 10.6733L15.0624 13.4577C14.7387 13.6844 14.6739 13.965 14.8034 14.3211L16.4438 18.9834C16.4547 19.0265 16.4547 19.0373 16.4438 19.0589C16.4331 19.0805 16.4115 19.0589 16.3791 19.0373L12.4615 16.0263C12.1701 15.7889 11.8355 15.7889 11.5334 16.0263L7.62658 19.0373C7.5942 19.0589 7.5726 19.0805 7.55103 19.0589Z" fill="#798287"/>
</svg>
