<svg width="16" height="25" viewBox="0 0 16 25" fill="none" xmlns="http://www.w3.org/2000/svg">
<path fill-rule="evenodd" clip-rule="evenodd" d="M8.23666 0.789534L13.5033 6.13024C14.4305 7.06 13.0398 8.4551 12.1123 7.52535L9.01206 4.41592C8.7529 4.15607 8.54581 4.24161 8.54581 4.60375V15.3767C8.54581 15.9214 8.10547 16.3632 7.56239 16.3632C7.01908 16.3632 6.57873 15.9215 6.57873 15.3767V4.60375C6.57873 4.24207 6.37003 4.15745 6.11248 4.41592L3.01198 7.52535C2.08474 8.4551 0.693807 7.06001 1.62104 6.13024L6.85325 0.792529C7.23418 0.404022 7.85434 0.401961 8.23661 0.789547L8.23666 0.789534ZM3.61676 9.37611C4.16144 9.37611 4.60317 9.8176 4.60317 10.3625C4.60317 10.9072 4.16146 11.3487 3.61676 11.3487H2.62987C2.26659 11.3487 1.97283 11.6427 1.97283 12.008V21.8681C1.97283 22.233 2.26708 22.5274 2.63216 22.5274H12.4922C12.8571 22.5274 13.1515 22.2329 13.1515 21.8681V12.008C13.1515 11.6438 12.8568 11.3487 12.4945 11.3487H11.5076C10.9629 11.3487 10.5212 10.9072 10.5212 10.3625C10.5212 9.81761 10.9629 9.37611 11.5076 9.37611H12.4945C13.9469 9.37611 15.1244 10.5549 15.1244 12.008V21.8681C15.1244 23.3228 13.9462 24.5 12.4922 24.5H2.63216C1.17723 24.5 0 23.3221 0 21.8681V12.008C0 10.5536 1.17676 9.37611 2.62987 9.37611H3.61676Z" fill="#fff"/>
</svg>
