<svg id="Capa_1" data-name="Capa 1" xmlns="http://www.w3.org/2000/svg" xmlns:xlink="http://www.w3.org/1999/xlink" viewBox="0 0 1080 1080"><defs><style>.cls-1{fill:url(#linear-gradient);}.cls-2{fill:#2970d8;}.cls-3{fill:#fff;}</style><linearGradient id="linear-gradient" x1="89.95" y1="280.17" x2="999.55" y2="805.32" gradientUnits="userSpaceOnUse"><stop offset="0.13" stop-color="#348bed"/><stop offset="0.31" stop-color="#2b80e8"/><stop offset="0.64" stop-color="#1461db"/><stop offset="0.72" stop-color="#0e57d7"/></linearGradient></defs><path class="cls-1" d="M939.26,211.06a70.34,70.34,0,0,0-70.32-70.32H211.06a70.33,70.33,0,0,0-70.32,70.32V868.94a70.33,70.33,0,0,0,70.32,70.32H643.38L939.26,643.38Z"/><path class="cls-2" d="M643.38,939.26H868.94a70.33,70.33,0,0,0,70.32-70.32V643.38Z"/><path class="cls-3" d="M822.91,512.63,696.36,386.07h0l-.23-.23c-.15-.16-.34-.27-.5-.43-.83-.78-1.68-1.52-2.57-2.21-.62-.5-1.26-1-1.92-1.41-.29-.2-.59-.38-.89-.56a34.38,34.38,0,0,0-45.83,7.62L447.59,585.68V410.42a34.75,34.75,0,0,0-69.5,0V585.68l-71.86-71.85A34.75,34.75,0,1,0,257.09,563L388.27,694.16a33.82,33.82,0,0,0,2.6,2.35c.89.72,1.8,1.39,2.73,2l0,0a34.61,34.61,0,0,0,15.68,5.6l.15,0c1.12.11,2.25.16,3.37.16h0l.51,0c.95,0,1.89,0,2.83-.14.23,0,.46-.07.69-.1.89-.1,1.78-.21,2.66-.39.14,0,.27-.07.41-.1,1-.2,1.95-.43,2.92-.72l.15-.06c1.05-.32,2.09-.69,3.11-1.11h0l0,0a34.62,34.62,0,0,0,4.17-2.1l.78-.46a36,36,0,0,0,3.78-2.68l.33-.3c.75-.63,1.48-1.27,2.18-2L636.8,494.77V669.58a34.76,34.76,0,0,0,69.51,0V494.32l67.45,67.46a34.75,34.75,0,0,0,49.15-49.15Z"/></svg>