<svg width="16" height="22" viewBox="0 0 16 22" fill="none" xmlns="http://www.w3.org/2000/svg">
<path fill-rule="evenodd" clip-rule="evenodd" d="M8.69458 21.7072L15.7126 15.0175C16.0958 14.6281 16.0958 14.0324 15.7126 13.6658C15.3294 13.2992 14.6827 13.2992 14.2994 13.6658L8 19.6911L1.70062 13.6658C1.29349 13.2992 0.670704 13.2992 0.287415 13.6658C-0.095805 14.0323 -0.095805 14.628 0.287415 15.0175L7.28142 21.7072C7.68855 22.0737 8.31133 22.0737 8.69462 21.7072H8.69458Z" fill="#C1C1C1"/>
<path opacity="0.4" fill-rule="evenodd" clip-rule="evenodd" d="M8.69458 15.0116L15.7126 8.32193C16.0958 7.93252 16.0958 7.33683 15.7126 6.97022C15.3294 6.60368 14.6827 6.60368 14.2994 6.97022L8 12.9955L1.70062 6.97022C1.29349 6.60368 0.670704 6.60368 0.287415 6.97022C-0.095805 7.33677 -0.095805 7.93243 0.287415 8.32193L7.28142 15.0116C7.68855 15.3782 8.31133 15.3782 8.69462 15.0116H8.69458Z" fill="#C1C1C1"/>
<path opacity="0.23" fill-rule="evenodd" clip-rule="evenodd" d="M8.69458 8.3163L15.7126 1.62662C16.0958 1.23721 16.0958 0.64152 15.7126 0.274909C15.3294 -0.0916363 14.6827 -0.0916363 14.2994 0.274909L8 6.30019L1.70062 0.274909C1.29349 -0.0916363 0.670704 -0.0916363 0.287415 0.274909C-0.095805 0.641454 -0.095805 1.23712 0.287415 1.62662L7.28142 8.3163C7.68855 8.68285 8.31133 8.68285 8.69462 8.3163H8.69458Z" fill="#C1C1C1"/>
</svg>
