<svg width="20" height="21" viewBox="0 0 20 21" fill="none" xmlns="http://www.w3.org/2000/svg">
<path fill-rule="evenodd" clip-rule="evenodd" d="M3.19246 0.667081L16.9159 0.666992C17.4014 0.666992 17.8866 0.738299 18.3936 0.974678C19.0013 1.25798 19.3236 1.70452 19.5494 2.03476C19.567 2.06045 19.5834 2.08693 19.5986 2.11401C19.8641 2.5866 20.0009 3.09684 20.0009 3.64571C20.0009 4.16723 19.8769 4.73541 19.5986 5.23063C19.596 5.23544 19.5933 5.24007 19.5906 5.24479L10.9203 20.1384C10.7291 20.4669 10.3772 20.6683 9.99719 20.667C9.61715 20.6657 9.26664 20.4616 9.0778 20.1318L0.566776 5.27004C0.564329 5.26602 0.561882 5.262 0.559435 5.25789C0.364652 4.93693 0.0634341 4.44057 0.0107404 3.80004C-0.0376713 3.21097 0.0947175 2.62076 0.390693 2.10903C0.686669 1.59721 1.13225 1.18807 1.66819 0.937626C2.24284 0.669089 2.82517 0.667081 3.19246 0.667081ZM8.93711 2.79466H3.19246C2.81504 2.79466 2.67015 2.81791 2.56887 2.86527C2.42879 2.93063 2.31117 3.03821 2.23252 3.17418C2.15388 3.31024 2.11831 3.46788 2.13124 3.6257C2.13867 3.71615 2.17555 3.81961 2.39305 4.17833C2.3976 4.18584 2.40205 4.19345 2.40642 4.20105L8.93711 15.6048V2.79466ZM11.0648 2.79466V15.6612L17.7467 4.18296C17.8221 4.04594 17.8733 3.84792 17.8733 3.64571C17.8733 3.48169 17.8393 3.33925 17.7633 3.19244C17.6835 3.07771 17.6349 3.01697 17.5942 2.97538C17.5594 2.93981 17.5326 2.92076 17.4946 2.90311C17.3366 2.82944 17.175 2.79466 16.9159 2.79466H11.0648Z" fill="white"/>
</svg>
