<svg width="24" height="24" viewBox="0 0 24 24" fill="none" xmlns="http://www.w3.org/2000/svg">
<path fill-rule="evenodd" clip-rule="evenodd" d="M12 24C18.6274 24 24 18.6274 24 12C24 5.37258 18.6274 0 12 0C5.37258 0 0 5.37258 0 12C0 18.6274 5.37258 24 12 24ZM13.1076 7.50759C13.1076 6.89583 12.6117 6.3999 11.9999 6.3999C11.3881 6.3999 10.8922 6.89583 10.8922 7.50759V10.8922H7.50759C6.89615 10.8922 6.3999 11.3885 6.3999 11.9999C6.3999 12.6113 6.89615 13.1076 7.50759 13.1076H10.8922V16.4922C10.8922 17.104 11.3881 17.5999 11.9999 17.5999C12.6117 17.5999 13.1076 17.104 13.1076 16.4922V13.1076H16.4922C17.1037 13.1076 17.5999 12.6113 17.5999 11.9999L17.5948 11.8933C17.5411 11.3318 17.0677 10.8922 16.4922 10.8922H13.1076V7.50759Z" fill="white"/>
</svg>
