<svg width="12" height="13" viewBox="0 0 12 13" fill="none" xmlns="http://www.w3.org/2000/svg">
<path fill-rule="evenodd" clip-rule="evenodd" d="M1.91538 0.833549L10.1494 0.833496C10.4407 0.833496 10.7318 0.87628 11.036 1.01811C11.4007 1.18809 11.5941 1.45602 11.7296 1.65415C11.7401 1.66957 11.7499 1.68546 11.7591 1.70171C11.9184 1.98526 12.0005 2.29141 12.0005 2.62073C12.0005 2.93364 11.926 3.27455 11.7591 3.57168C11.7575 3.57456 11.7559 3.57734 11.7542 3.58017L6.5521 12.5163C6.43738 12.7134 6.22624 12.8343 5.99822 12.8335C5.77019 12.8327 5.55989 12.7103 5.44658 12.5124L0.339968 3.59532C0.3385 3.59291 0.337031 3.5905 0.335563 3.58804C0.218694 3.39546 0.0379628 3.09765 0.0063466 2.71332C-0.0227004 2.35988 0.0567328 2.00576 0.234318 1.69872C0.411904 1.39163 0.679252 1.14615 1.00081 0.995876C1.3456 0.834754 1.69501 0.833549 1.91538 0.833549ZM5.36217 2.1101H1.91538C1.68892 2.1101 1.60199 2.12405 1.54122 2.15246C1.45718 2.19168 1.3866 2.25622 1.33942 2.33781C1.29223 2.41944 1.27089 2.51403 1.27865 2.60872C1.28311 2.66299 1.30523 2.72507 1.43573 2.9403C1.43846 2.94481 1.44113 2.94937 1.44375 2.95393L5.36217 9.79619V2.1101ZM6.63877 2.1101V9.83001L10.6479 2.94308C10.6932 2.86086 10.7239 2.74206 10.7239 2.62073C10.7239 2.52232 10.7035 2.43685 10.6579 2.34877C10.61 2.27992 10.5808 2.24348 10.5564 2.21853C10.5355 2.19719 10.5194 2.18576 10.4967 2.17517C10.4019 2.13097 10.3049 2.1101 10.1494 2.1101H6.63877Z" fill="#A1A5B5"/>
</svg>
