<svg width="24" height="24" viewBox="0 0 24 24" fill="none" xmlns="http://www.w3.org/2000/svg">
<g clip-path="url(#clip0_105_22)">
<path d="M14.4883 0.353774C12.8071 -0.0655922 11.038 -0.125517 9.31654 0.246102C9.18351 0.274822 9.09894 0.40595 9.12766 0.538985C9.15638 0.67202 9.28751 0.756585 9.42055 0.727865C11.0691 0.371975 12.7673 0.430656 14.3826 0.835508C18.2455 1.80369 21.4609 4.70804 22.6855 8.50192C23.1591 9.96913 23.3603 11.5314 23.4006 13.1687C23.404 13.3048 23.517 13.4124 23.653 13.409C23.7891 13.4057 23.8967 13.2927 23.8933 13.1566C23.8525 11.4968 23.6489 9.89435 23.1636 8.37871C21.8918 4.40681 18.5312 1.36224 14.4883 0.353774Z" fill="black"/>
<path d="M8.06596 1.09936C8.19716 1.06317 8.27418 0.927469 8.23798 0.79627C8.20179 0.665072 8.06609 0.588055 7.93489 0.624249C6.13464 1.12089 3.60221 2.83695 2.03715 5.12947C2.03654 5.13036 2.03593 5.13126 2.03534 5.13216C0.661106 7.20313 -0.200341 9.80567 0.0401722 12.3311C0.0404012 12.3335 0.0406655 12.3359 0.0409651 12.3383C0.0986063 12.7994 0.195372 13.2597 0.292252 13.7205C0.496299 14.691 0.700849 15.664 0.541413 16.6524C0.51974 16.7868 0.611092 16.9132 0.745455 16.9349C0.879818 16.9566 1.00631 16.8652 1.02798 16.7309C1.19465 15.6977 0.987704 14.6899 0.78072 13.6819C0.684995 13.2157 0.589262 12.7495 0.53047 12.2807C0.304262 9.89442 1.11905 7.40497 2.44511 5.40601C3.95064 3.20149 6.38856 1.56211 8.06596 1.09936Z" fill="black"/>
<path d="M11.2998 1.64994C14.3937 1.46101 17.487 2.72368 19.5644 5.14273C19.6531 5.24598 19.6412 5.40156 19.538 5.49023C19.4347 5.5789 19.2792 5.56708 19.1905 5.46383C17.215 3.16341 14.2714 1.96179 11.3283 2.14198C11.3273 2.14204 11.3262 2.1421 11.3252 2.14215C7.60326 2.32224 4.11766 4.84713 2.8356 8.38513C2.78923 8.51308 2.64791 8.57922 2.51995 8.53286C2.39199 8.48649 2.32585 8.34517 2.37222 8.21721C3.72283 4.49007 7.38292 1.84013 11.2998 1.64994Z" fill="black"/>
<path d="M20.3152 6.21932C20.2393 6.10633 20.0862 6.07625 19.9732 6.15213C19.8602 6.22801 19.8301 6.38111 19.906 6.4941C21.0576 8.20891 21.5338 10.075 21.7221 12.2894C21.7336 12.425 21.8529 12.5256 21.9885 12.5141C22.1241 12.5025 22.2247 12.3833 22.2132 12.2476C22.0208 9.9848 21.5297 8.02784 20.3152 6.21932Z" fill="black"/>
<path d="M22.0484 13.2939C22.1842 13.2854 22.3012 13.3886 22.3097 13.5245C22.4026 15.0105 22.4035 16.6917 22.2391 17.9341C22.2212 18.069 22.0974 18.1639 21.9625 18.1461C21.8275 18.1282 21.7326 18.0044 21.7505 17.8695C21.9089 16.672 21.9098 15.0264 21.8178 13.5552C21.8093 13.4194 21.9126 13.3024 22.0484 13.2939Z" fill="black"/>
<path d="M2.46346 9.57872C2.4954 9.44642 2.41405 9.31327 2.28175 9.28133C2.14945 9.24939 2.01631 9.33074 1.98437 9.46304C1.80349 10.2122 1.70959 10.9817 1.70587 11.752C1.70204 12.546 1.85008 13.3209 1.99817 14.0962C2.11932 14.7304 2.2405 15.3648 2.27862 16.01C2.32869 16.8574 2.15044 17.7061 1.84241 18.5138C1.79392 18.641 1.85769 18.7834 1.98486 18.8319C2.11203 18.8804 2.25443 18.8166 2.30292 18.6895C2.62851 17.8357 2.82587 16.916 2.77062 15.9809C2.73276 15.3402 2.61159 14.7094 2.49046 14.079C2.34266 13.3097 2.19493 12.5407 2.19873 11.7544C2.20226 11.0225 2.2915 10.2909 2.46346 9.57872Z" fill="black"/>
<path d="M8.92971 4.10251C8.98043 4.22881 8.91916 4.3723 8.79286 4.42302C6.23806 5.449 4.31956 7.76425 3.92818 10.4944C3.76467 11.6351 3.94133 12.7649 4.11793 13.8945C4.21739 14.5306 4.31684 15.1666 4.3555 15.8044C4.43933 17.1874 4.28181 18.7065 3.38176 20.0886C3.30749 20.2026 3.15483 20.2349 3.04078 20.1606C2.92673 20.0864 2.89448 19.9337 2.96875 19.8196C3.78879 18.5604 3.94401 17.1617 3.86354 15.8342C3.82431 15.1871 3.72549 14.5437 3.62673 13.9007C3.44954 12.7471 3.27254 11.5948 3.44031 10.4245C3.8582 7.50938 5.90143 5.05307 8.60919 3.96566C8.73549 3.91495 8.87899 3.97621 8.92971 4.10251Z" fill="black"/>
<path d="M17.5809 5.50552C15.5654 3.61778 12.6442 2.95892 9.98931 3.54124C9.85637 3.57039 9.77224 3.7018 9.8014 3.83474C9.83055 3.96768 9.96196 4.05181 10.0949 4.02265C12.6089 3.47124 15.3595 4.10025 17.2439 5.86524C18.8323 7.35288 19.7546 9.51751 19.996 11.8792C20.0099 12.0146 20.1308 12.1131 20.2662 12.0993C20.4016 12.0855 20.5002 11.9645 20.4863 11.8291C20.2356 9.37677 19.2744 7.09168 17.5809 5.50552Z" fill="black"/>
<path d="M20.4348 13.0027C20.5702 12.9888 20.6912 13.0873 20.7051 13.2227C20.9391 15.5014 20.8383 17.9626 20.4849 20.3436C20.465 20.4782 20.3396 20.5712 20.205 20.5512C20.0704 20.5312 19.9774 20.4059 19.9974 20.2713C20.3458 17.9234 20.4439 15.504 20.2148 13.273C20.2009 13.1376 20.2994 13.0166 20.4348 13.0027Z" fill="black"/>
<path d="M11.8433 5.00824C8.06701 5.00824 4.99878 8.02094 4.99878 11.7457C4.99878 12.1436 5.03409 12.5334 5.1014 12.9125C5.12519 13.0465 5.25311 13.1359 5.38711 13.1121C5.52112 13.0883 5.61046 12.9604 5.58667 12.8264C5.52435 12.4754 5.49164 12.1144 5.49164 11.7457C5.49164 8.30071 8.33158 5.5011 11.8433 5.5011C13.4302 5.5011 14.8801 6.07308 15.993 7.01818C16.0967 7.10628 16.2523 7.0936 16.3404 6.98987C16.4285 6.88613 16.4158 6.73061 16.312 6.64251C15.1128 5.62406 13.5506 5.00824 11.8433 5.00824Z" fill="black"/>
<path d="M16.8642 7.56132C16.9624 7.46712 17.1184 7.47039 17.2126 7.56862C18.3002 8.70272 18.6483 10.4852 18.8786 11.981C19.1381 13.666 19.1777 15.3098 19.1777 16.0719C19.1777 16.208 19.0674 16.3183 18.9313 16.3183C18.7952 16.3183 18.6848 16.208 18.6848 16.0719C18.6848 15.3221 18.6456 13.7061 18.3915 12.056C18.1777 10.6673 17.8694 8.96559 16.8569 7.90975C16.7627 7.81152 16.766 7.65552 16.8642 7.56132Z" fill="black"/>
<path d="M19.1151 17.4832C19.126 17.3476 19.0247 17.2288 18.8891 17.218C18.7534 17.2072 18.6347 17.3084 18.6238 17.4441C18.5028 18.962 18.3447 20.4783 18.0238 21.879C17.9934 22.0116 18.0763 22.1438 18.209 22.1742C18.3416 22.2046 18.4738 22.1217 18.5042 21.989C18.8335 20.5515 18.9938 19.0052 19.1151 17.4832Z" fill="black"/>
<path d="M5.49806 13.8195C5.63159 13.7932 5.76116 13.8801 5.78746 14.0137C6.3085 16.6596 5.94855 19.0633 4.56873 21.1688C4.49413 21.2826 4.34138 21.3144 4.22755 21.2398C4.11371 21.1652 4.08191 21.0125 4.15651 20.8987C5.45477 18.9176 5.80417 16.6494 5.30388 14.1089C5.27759 13.9754 5.36452 13.8458 5.49806 13.8195Z" fill="black"/>
<path d="M11.8433 6.61164C9.39196 6.61164 6.98723 8.50913 6.74179 10.8939C6.63433 11.9379 6.78528 12.9663 6.93629 13.9951C7.06815 14.8935 7.20006 15.7921 7.16001 16.7018C7.06835 18.7837 6.45751 20.5022 5.40792 21.9176C5.32685 22.027 5.34976 22.1813 5.45908 22.2624C5.5684 22.3434 5.72274 22.3205 5.80381 22.2112C6.91703 20.71 7.5568 18.8947 7.65239 16.7235C7.69226 15.8179 7.55995 14.9221 7.42773 14.0269C7.27653 13.0032 7.12544 11.9802 7.23206 10.9444C7.44768 8.84938 9.60401 7.1045 11.8433 7.1045C12.8877 7.1045 15.5899 7.67003 16.4495 10.4702C16.9882 12.2249 17.1351 14.5997 17.0046 16.9068C16.8741 19.2137 16.4683 21.42 15.9226 22.8348C15.8736 22.9618 15.9369 23.1044 16.0638 23.1534C16.1908 23.2024 16.3335 23.1392 16.3825 23.0122C16.9534 21.532 17.3646 19.2698 17.4967 16.9347C17.6287 14.5998 17.4836 12.1593 16.9206 10.3255C15.9665 7.21728 12.9754 6.61164 11.8433 6.61164Z" fill="black"/>
<path d="M8.0509 21.1692C8.16489 21.2435 8.19703 21.3962 8.12268 21.5102C7.96986 21.7445 7.83543 21.9897 7.701 22.2348C7.56657 22.48 7.43211 22.7251 7.27927 22.9595C7.20492 23.0735 7.05223 23.1056 6.93824 23.0313C6.82424 22.9569 6.7921 22.8042 6.86646 22.6902C7.01927 22.4559 7.1537 22.2108 7.28813 21.9656C7.42257 21.7205 7.55703 21.4753 7.70986 21.241C7.78422 21.127 7.9369 21.0948 8.0509 21.1692Z" fill="black"/>
<path d="M10.161 9.1697C10.2741 9.09404 10.3045 8.94099 10.2288 8.82786C10.1532 8.71473 10.0001 8.68437 9.88699 8.76003C8.91115 9.41273 8.31247 10.3102 8.31247 11.6251C8.31247 12.408 8.45117 13.048 8.59343 13.7043C8.8063 14.6865 8.95069 15.6666 8.92474 16.6755C8.89323 17.9006 8.65353 19.02 8.19277 20.0865C8.13879 20.2114 8.19631 20.3565 8.32125 20.4104C8.44619 20.4644 8.59123 20.4069 8.64521 20.282C9.13239 19.1544 9.38441 17.9725 9.41744 16.6882C9.4444 15.6398 9.29601 14.6209 9.07522 13.6001C8.93263 12.9409 8.80533 12.3523 8.80533 11.6251C8.80533 10.4985 9.30092 9.74497 10.161 9.1697Z" fill="black"/>
<path d="M11.1228 8.30386C12.1454 8.09539 13.2458 8.35299 14.0558 9.00856C15.5026 10.1796 15.695 12.3151 15.8509 14.0456L15.8589 14.1338C16.0603 16.3644 15.8297 18.5311 15.3651 20.707C15.3367 20.8401 15.2058 20.9249 15.0727 20.8965C14.9396 20.8681 14.8547 20.7372 14.8831 20.6041C15.3407 18.4608 15.5638 16.3457 15.368 14.1781C15.3615 14.1063 15.3551 14.0335 15.3485 13.9599L15.3484 13.9588C15.21 12.395 15.0365 10.4364 13.7457 9.39166C13.0533 8.83118 12.1035 8.60693 11.2213 8.78678C11.0879 8.81397 10.9578 8.7279 10.9306 8.59454C10.9034 8.46119 10.9895 8.33104 11.1228 8.30386Z" fill="black"/>
<path d="M15.0168 21.9332C15.0504 21.8013 14.9707 21.6672 14.8388 21.6336C14.7069 21.6 14.5728 21.6797 14.5392 21.8116C14.3902 22.3968 14.1607 22.925 13.8696 23.4113C13.7997 23.5281 13.8377 23.6794 13.9545 23.7493C14.0713 23.8192 14.2226 23.7812 14.2925 23.6644C14.6062 23.1403 14.8552 22.5681 15.0168 21.9332Z" fill="black"/>
<path d="M13.8118 18.3571C13.9469 18.373 14.0435 18.4956 14.0275 18.6307C13.7948 20.5975 13.2693 22.3516 12.4262 23.873C12.3603 23.992 12.2103 24.035 12.0912 23.9691C11.9722 23.9031 11.9292 23.7531 11.9951 23.6341C12.802 22.1781 13.3115 20.4877 13.5381 18.5728C13.5541 18.4377 13.6766 18.3411 13.8118 18.3571Z" fill="black"/>
<path d="M13.761 11.4958C13.5901 10.583 12.8066 9.88467 11.8555 9.88467C10.5675 9.88467 9.66378 11.1829 9.98223 12.3908C10.5211 14.523 10.6095 16.5779 10.2447 18.557L10.2445 18.5585C9.92795 20.3355 9.32008 21.9341 8.49091 23.2887C8.41986 23.4048 8.45636 23.5565 8.57244 23.6275C8.68852 23.6986 8.84022 23.6621 8.91127 23.546C9.77435 22.136 10.4029 20.4791 10.7296 18.6457C11.1083 16.5901 11.0145 14.4632 10.4597 12.2688L10.4591 12.2662C10.2202 11.3627 10.886 10.3775 11.8555 10.3775C12.5551 10.3775 13.1458 10.8922 13.2762 11.5848C13.6349 13.6654 13.8217 15.5948 13.6887 17.256C13.6778 17.3917 13.779 17.5104 13.9147 17.5213C14.0503 17.5322 14.1691 17.431 14.18 17.2953C14.3179 15.5735 14.1233 13.5966 13.7616 11.4993C13.7614 11.4981 13.7612 11.497 13.761 11.4958Z" fill="black"/>
<path d="M11.1201 22.1689C11.2412 22.2311 11.2889 22.3797 11.2267 22.5007L10.5737 23.7715C10.5115 23.8925 10.3629 23.9402 10.2419 23.878C10.1208 23.8158 10.0731 23.6673 10.1353 23.5462L10.7883 22.2755C10.8505 22.1544 10.9991 22.1067 11.1201 22.1689Z" fill="black"/>
<path d="M12.0387 11.7335C12.0076 11.601 11.875 11.5188 11.7425 11.5499C11.61 11.581 11.5278 11.7137 11.5589 11.8462C12.39 15.3837 12.2758 18.49 11.2636 21.1361C11.215 21.2632 11.2786 21.4057 11.4057 21.4543C11.5328 21.503 11.6753 21.4393 11.7239 21.3122C12.7794 18.5531 12.8866 15.3428 12.0387 11.7335Z" fill="black"/>
</g>
<defs>
<clipPath id="clip0_105_22">
<rect width="24" height="24" fill="white"/>
</clipPath>
</defs>
</svg>
