<svg width="100" height="60" viewBox="0 0 100 60" fill="none" xmlns="http://www.w3.org/2000/svg">
<path d="M55.8102 22.47C55.7302 22.47 55.6502 22.45 55.5802 22.41C53.6602 21.42 52.0002 21 50.0102 21C48.0302 21 46.1502 21.47 44.4402 22.41C44.2002 22.54 43.9002 22.45 43.7602 22.21C43.6302 21.97 43.7202 21.66 43.9602 21.53C45.8202 20.52 47.8602 20 50.0102 20C52.1402 20 54.0002 20.47 56.0402 21.52C56.2902 21.65 56.3802 21.95 56.2502 22.19C56.1602 22.37 55.9902 22.47 55.8102 22.47V22.47ZM41.5002 27.72C41.4002 27.72 41.3002 27.69 41.2102 27.63C40.9802 27.47 40.9302 27.16 41.0902 26.93C42.0802 25.53 43.3402 24.43 44.8402 23.66C47.9802 22.04 52.0002 22.03 55.1502 23.65C56.6502 24.42 57.9102 25.51 58.9002 26.9C59.0602 27.12 59.0102 27.44 58.7802 27.6C58.5502 27.76 58.2402 27.71 58.0802 27.48C57.1802 26.22 56.0402 25.23 54.6902 24.54C51.8202 23.07 48.1502 23.07 45.2902 24.55C43.9302 25.25 42.7902 26.25 41.8902 27.51C41.8102 27.65 41.6602 27.72 41.5002 27.72V27.72ZM47.7502 39.79C47.6202 39.79 47.4902 39.74 47.4002 39.64C46.5302 38.77 46.0602 38.21 45.3902 37C44.7002 35.77 44.3402 34.27 44.3402 32.66C44.3402 29.69 46.8802 27.27 50.0002 27.27C53.1202 27.27 55.6602 29.69 55.6602 32.66C55.6602 32.94 55.4402 33.16 55.1602 33.16C54.8802 33.16 54.6602 32.94 54.6602 32.66C54.6602 30.24 52.5702 28.27 50.0002 28.27C47.4302 28.27 45.3402 30.24 45.3402 32.66C45.3402 34.1 45.6602 35.43 46.2702 36.51C46.9102 37.66 47.3502 38.15 48.1202 38.93C48.3102 39.13 48.3102 39.44 48.1202 39.64C48.0102 39.74 47.8802 39.79 47.7502 39.79ZM54.9202 37.94C53.7302 37.94 52.6802 37.64 51.8202 37.05C50.3302 36.04 49.4402 34.4 49.4402 32.66C49.4402 32.38 49.6602 32.16 49.9402 32.16C50.2202 32.16 50.4402 32.38 50.4402 32.66C50.4402 34.07 51.1602 35.4 52.3802 36.22C53.0902 36.7 53.9202 36.93 54.9202 36.93C55.1602 36.93 55.5602 36.9 55.9602 36.83C56.2302 36.78 56.4902 36.96 56.5402 37.24C56.5902 37.51 56.4102 37.77 56.1302 37.82C55.5602 37.93 55.0602 37.94 54.9202 37.94V37.94ZM52.9102 40C52.8702 40 52.8202 39.99 52.7802 39.98C51.1902 39.54 50.1502 38.95 49.0602 37.88C47.6602 36.49 46.8902 34.64 46.8902 32.66C46.8902 31.04 48.2702 29.72 49.9702 29.72C51.6702 29.72 53.0502 31.04 53.0502 32.66C53.0502 33.73 53.9802 34.6 55.1302 34.6C56.2802 34.6 57.2102 33.73 57.2102 32.66C57.2102 28.89 53.9602 25.83 49.9602 25.83C47.1202 25.83 44.5202 27.41 43.3502 29.86C42.9602 30.67 42.7602 31.62 42.7602 32.66C42.7602 33.44 42.8302 34.67 43.4302 36.27C43.5302 36.53 43.4002 36.82 43.1402 36.91C42.8802 37.01 42.5902 36.87 42.5002 36.62C42.0102 35.31 41.7702 34.01 41.7702 32.66C41.7702 31.46 42.0002 30.37 42.4502 29.42C43.7802 26.63 46.7302 24.82 49.9602 24.82C54.5102 24.82 58.2102 28.33 58.2102 32.65C58.2102 34.27 56.8302 35.59 55.1302 35.59C53.4302 35.59 52.0502 34.27 52.0502 32.65C52.0502 31.58 51.1202 30.71 49.9702 30.71C48.8202 30.71 47.8902 31.58 47.8902 32.65C47.8902 34.36 48.5502 35.96 49.7602 37.16C50.7102 38.1 51.6202 38.62 53.0302 39.01C53.3002 39.08 53.4502 39.36 53.3802 39.62C53.3302 39.85 53.1202 40 52.9102 40V40Z" fill="black"/>
</svg>
