<svg width="46" height="46" viewBox="0 0 46 46" fill="none" xmlns="http://www.w3.org/2000/svg">
<g clip-path="url(#clip0_10880_112473)">
<path d="M23 46C35.7025 46 46 35.7025 46 23C46 10.2975 35.7025 0 23 0C10.2975 0 0 10.2975 0 23C0 35.7025 10.2975 46 23 46Z" fill="#0098EA"/>
<path fill-rule="evenodd" clip-rule="evenodd" d="M16.6001 15.2003L29.5001 15.2002C29.9565 15.2002 30.4126 15.2672 30.8892 15.4894C31.4605 15.7557 31.7634 16.1755 31.9757 16.4859C31.9922 16.51 32.0076 16.5349 32.0219 16.5604C32.2715 17.0046 32.4001 17.4843 32.4001 18.0002C32.4001 18.4904 32.2835 19.0245 32.0219 19.49C32.0195 19.4945 32.0169 19.4989 32.0144 19.5033L23.8643 33.5033C23.6846 33.8121 23.3538 34.0015 22.9966 34.0002C22.6393 33.999 22.3098 33.8072 22.1323 33.4972L14.132 19.5271C14.1296 19.5233 14.1274 19.5195 14.1251 19.5157C13.942 19.2139 13.6588 18.7474 13.6093 18.1453C13.5638 17.5915 13.6882 17.0367 13.9664 16.5557C14.2447 16.0746 14.6635 15.69 15.1673 15.4546C15.7075 15.2022 16.2548 15.2003 16.6001 15.2003ZM22.0001 17.2002H16.6001C16.2453 17.2002 16.1091 17.2221 16.0139 17.2666C15.8822 17.328 15.7717 17.4291 15.6978 17.557C15.6238 17.6849 15.5904 17.833 15.6026 17.9814C15.6095 18.0664 15.6442 18.1637 15.8487 18.5009C15.8529 18.5079 15.8571 18.5151 15.8612 18.5222L22.0001 29.2418V17.2002ZM24.0001 17.2002V29.2948L30.2812 18.5052C30.352 18.3764 30.4001 18.1903 30.4001 18.0002C30.4001 17.846 30.3681 17.7121 30.2967 17.5741C30.2217 17.4663 30.176 17.4092 30.1378 17.3701C30.105 17.3367 30.0798 17.3187 30.0442 17.3021C29.8957 17.2329 29.7437 17.2002 29.5001 17.2002H24.0001Z" fill="white"/>
</g>
<defs>
<clipPath id="clip0_10880_112473">
<rect width="46" height="46" fill="white"/>
</clipPath>
</defs>
</svg>
