<svg width="100" height="60" viewBox="0 0 100 60" fill="none" xmlns="http://www.w3.org/2000/svg">
<path d="M40.0329 29.2119C40.5603 29.3995 41.0232 29.139 41.2169 28.6596C42.9176 24.2829 46.8787 21.6465 51.4426 21.6465C53.3371 21.6465 54.7364 21.9904 56.0603 22.6052C56.6308 22.8657 57.1475 22.8657 57.3735 22.3759C57.5781 21.9799 57.4058 21.584 56.9322 21.313C55.1992 20.3126 53.5416 20 51.4426 20C45.9853 20 41.5829 22.8761 39.5808 27.8989C39.3333 28.4929 39.5701 29.0452 40.0329 29.2119ZM41.6583 38.9449C41.9489 39.3409 42.5194 39.4034 42.9176 39.0804C43.7465 38.403 44.2093 37.288 44.2093 36.0688C44.1985 34.5474 43.5419 33.7554 43.5419 32.0047C43.5419 27.8051 47.094 24.3559 51.4319 24.3559C56.534 24.3559 59.9138 28.4512 59.9138 34.589C59.9138 37.0796 59.4833 38.7365 59.1065 39.6014C58.9235 40.0287 59.085 40.5184 59.494 40.706C59.9246 40.9144 60.4951 40.7164 60.678 40.2579C61.0871 39.2158 61.6145 37.3193 61.6145 34.5786C61.6145 27.4821 57.5565 22.7198 51.4319 22.7198C46.1683 22.7198 41.8412 26.909 41.8412 32.0047C41.8412 33.7762 42.5409 34.9746 42.5517 36.0479C42.5517 36.767 42.261 37.3818 41.8197 37.809C41.4753 38.1529 41.3999 38.601 41.6583 38.9449ZM63.4121 33.3907C63.8965 33.3907 64.2301 33.0051 64.1978 32.5049C63.778 28.024 62.2603 25.3875 59.677 23.022C59.3003 22.6886 58.7513 22.7511 58.4499 23.095C58.1378 23.418 58.1916 23.8974 58.5791 24.2621C60.8718 26.4504 62.2173 28.9306 62.5617 32.557C62.6155 33.0468 62.9492 33.3907 63.4121 33.3907ZM46.9864 34.6307C46.7065 33.9117 46.3621 33.0989 46.3621 32.0151C46.3621 29.2953 48.6333 27.0861 51.4426 27.0861C52.4975 27.0861 52.8204 27.1799 53.6923 27.555C54.1444 27.753 54.5642 27.628 54.7471 27.2841C54.9732 26.8777 54.8548 26.3775 54.3704 26.1066C53.5954 25.6689 52.6267 25.4396 51.4426 25.4396C47.7076 25.4396 44.6506 28.3991 44.6506 32.0151C44.6506 33.2448 45.0058 34.4223 45.318 35.256C45.5117 35.7457 46.0176 35.9437 46.5343 35.7457C46.9756 35.579 47.1478 35.1101 46.9864 34.6307ZM55.6621 29.1911C56.6201 30.6813 57.126 32.5883 57.126 35.1205C57.126 37.8299 56.3725 40.4038 55.1777 41.8106C54.8871 42.1753 54.8978 42.6651 55.21 42.9673C55.5867 43.3008 56.1895 43.2487 56.4909 42.8735C57.9117 41.0082 58.8051 38.08 58.8051 35.0788C58.8051 31.5879 58.0409 29.8789 57.126 28.3158C56.8676 27.8677 56.3294 27.7218 55.9204 27.9302C55.4468 28.1594 55.3607 28.7222 55.6621 29.1911ZM46.9649 42.4463C48.8485 40.9874 49.9034 38.6323 49.8926 36.0375C49.8819 34.068 49.1715 32.8905 49.1715 31.8901C49.1715 30.6292 50.0756 29.8059 51.4426 29.8059C53.3156 29.8059 54.1659 31.765 54.2628 35.0371C54.3812 38.1842 53.251 41.1124 51.5287 42.5401C51.1735 42.8318 51.0874 43.2904 51.3242 43.6551C51.6256 44.0511 52.2176 44.124 52.5944 43.7801C54.4888 42.1232 55.8774 38.5177 55.8666 34.9225C55.8451 30.7021 54.4458 28.1699 51.4426 28.1699C49.1715 28.1699 47.5031 29.6496 47.5031 31.7546C47.5031 33.0363 48.1704 34.5578 48.1919 36.0375C48.2027 38.1529 47.3846 40.0078 45.91 41.1645C45.5333 41.4667 45.4579 41.9252 45.7162 42.3108C46.0176 42.7276 46.5774 42.7693 46.9649 42.4463ZM40.5926 35.8708C41.0232 35.7353 41.2385 35.3081 41.1308 34.8183C40.851 33.7137 40.711 32.7863 40.7326 31.3482C40.7326 30.8897 40.4419 30.5458 40.0006 30.4833C39.484 30.4207 39.0642 30.7334 39.0211 31.2752C38.9458 32.5362 39.0642 33.7762 39.5055 35.2768C39.6454 35.7666 40.1298 36.0167 40.5926 35.8708ZM52.7235 37.1525C52.9926 35.5894 52.8958 33.8179 52.3576 32.1402C52.1853 31.6295 51.744 31.4003 51.2812 31.5462C50.8291 31.6712 50.5815 32.0985 50.7215 32.5674C51.2058 34.1514 51.2812 35.5165 51.0659 36.9024C50.9906 37.361 51.2166 37.7778 51.7225 37.8612C52.1961 37.9445 52.6482 37.6423 52.7235 37.1525ZM44.586 41.0186C45.501 40.5705 46.5666 39.195 46.9003 38.1217C47.0402 37.684 46.8142 37.2151 46.3836 37.0692C45.9423 36.9233 45.4902 37.1734 45.318 37.6319C45.0274 38.4551 44.5537 39.07 43.811 39.5806C43.359 39.8932 43.219 40.31 43.3805 40.6956C43.5742 41.1124 44.0909 41.2687 44.586 41.0186ZM49.6343 43.3216C50.5169 42.686 51.4103 41.4771 51.9162 40.185C52.0992 39.7265 51.9162 39.2158 51.4749 39.0804C50.9583 38.9032 50.5492 39.1637 50.3447 39.6223C49.9034 40.6435 49.3544 41.3834 48.5902 41.9982C48.2242 42.29 48.1274 42.7797 48.3749 43.1445C48.6333 43.53 49.2145 43.6134 49.6343 43.3216Z" fill="black"/>
</svg>
