<svg width="42" height="42" viewBox="0 0 42 42" fill="none" xmlns="http://www.w3.org/2000/svg">
<circle cx="21" cy="21" r="21" fill="#42A3EB"/>
<path fill-rule="evenodd" clip-rule="evenodd" d="M15.5532 13.0001L26.5319 13C26.9203 13 27.3085 13.057 27.7141 13.2461C28.2003 13.4728 28.4581 13.83 28.6388 14.0942C28.6528 14.1148 28.6659 14.1359 28.6781 14.1576C28.8905 14.5357 29 14.9439 29 15.383C29 15.8002 28.9007 16.2547 28.6781 16.6509C28.676 16.6548 28.6738 16.6585 28.6717 16.6622L21.7355 28.5771C21.5825 28.8399 21.301 29.001 20.997 29C20.6929 28.9989 20.4125 28.8357 20.2615 28.5719L13.4526 16.6824C13.4507 16.6792 13.4487 16.676 13.4468 16.6727C13.2909 16.4159 13.05 16.0189 13.0078 15.5064C12.9691 15.0352 13.075 14.563 13.3118 14.1536C13.5486 13.7442 13.905 13.4169 14.3338 13.2165C14.7935 13.0017 15.2594 13.0001 15.5532 13.0001ZM20.1489 14.7021H15.5532C15.2512 14.7021 15.1353 14.7207 15.0543 14.7586C14.9423 14.8109 14.8482 14.897 14.7852 15.0057C14.7223 15.1146 14.6939 15.2407 14.7042 15.367C14.7102 15.4393 14.7397 15.5221 14.9137 15.8091C14.9173 15.8151 14.9209 15.8212 14.9244 15.8272L20.1489 24.9503V14.7021ZM21.851 14.7021V24.9953L27.1966 15.8128C27.2569 15.7032 27.2978 15.5447 27.2978 15.383C27.2978 15.2518 27.2706 15.1378 27.2098 15.0204C27.146 14.9286 27.1071 14.88 27.0746 14.8467C27.0467 14.8183 27.0253 14.803 26.9949 14.7889C26.8685 14.73 26.7392 14.7021 26.5319 14.7021H21.851Z" fill="white"/>
</svg>
