<svg width="18" height="18" viewBox="0 0 18 18" fill="none" xmlns="http://www.w3.org/2000/svg">
<path d="M15.7904 0.666992H2.2102C1.80098 0.666992 1.40844 0.82958 1.11893 1.11893C0.82958 1.40846 0.666992 1.80099 0.666992 2.2102V15.7904C0.666992 16.1997 0.82958 16.5922 1.11893 16.8817C1.40846 17.1711 1.80099 17.3337 2.2102 17.3337H15.7904C16.1997 17.3337 16.5922 17.1711 16.8817 16.8817C17.1711 16.5922 17.3337 16.1997 17.3337 15.7904V2.2102C17.3337 1.80098 17.1711 1.40844 16.8817 1.11893C16.5922 0.82958 16.1997 0.666992 15.7904 0.666992ZM9.00033 3.44477C9.73697 3.44477 10.4436 3.73739 10.9645 4.25839C11.4855 4.77921 11.7781 5.48591 11.7781 6.22255C11.7781 6.95919 11.4855 7.66585 10.9645 8.1867C10.4437 8.70769 9.73697 9.00033 9.00033 9.00033C8.26368 9.00033 7.55703 8.7077 7.03617 8.1867C6.51518 7.66589 6.22255 6.95919 6.22255 6.22255C6.22255 5.48591 6.51517 4.77925 7.03617 4.25839C7.55698 3.73741 8.26368 3.44477 9.00033 3.44477ZM14.5559 13.9386C14.5466 14.1513 14.4985 14.3606 14.414 14.5559H3.61149C3.51831 14.3621 3.46182 14.1529 3.44477 13.9386V13.8707C3.44477 12.204 5.93251 10.8522 9.00033 10.8522C12.0681 10.8522 14.5559 12.204 14.5559 13.8707V13.9386Z" fill="white"/>
</svg>
