<svg width="15" height="15" viewBox="0 0 15 15" fill="none" xmlns="http://www.w3.org/2000/svg">
<path d="M14.3472 6.00989C14.0364 5.70832 13.7248 5.40445 13.4128 5.09838C13.404 4.67441 13.3931 4.25063 13.3798 3.82707C13.3622 3.25975 13.1165 2.7185 12.6978 2.29808C12.2791 1.87765 11.7361 1.63401 11.1694 1.6161C10.7458 1.60301 10.3221 1.59202 9.89851 1.58322C9.59309 1.27171 9.2903 0.960517 8.9901 0.649727C8.58376 0.232865 8.05767 -0.000214153 7.49804 1.47646e-07C6.93841 0.000314436 6.412 0.234554 6.00828 0.649727C5.70653 0.961133 5.40278 1.27297 5.09696 1.58531C4.67337 1.5939 4.24979 1.60489 3.82641 1.61819C2.65972 1.65798 1.65561 2.6628 1.61578 3.82887C1.60272 4.25283 1.59164 4.67661 1.58276 5.10017C1.27066 5.40603 0.959201 5.7098 0.64833 6.01137C0.233113 6.41566 0 6.94341 0 7.50047C0 8.05753 0.231752 8.58529 0.64833 8.99103C0.959174 9.29238 1.27128 9.59582 1.58453 9.90139C1.59289 10.3254 1.60386 10.7495 1.61734 11.1735C1.6352 11.7417 1.88064 12.2815 2.299 12.7025C2.71737 13.1236 3.26007 13.3666 3.82762 13.3842C4.25121 13.3977 4.6749 13.4087 5.09849 13.4173C5.40391 13.7287 5.70734 14.0396 6.00866 14.3503C6.41324 14.7672 6.93983 15.0003 7.50072 15C8.06161 14.9997 8.58677 14.7672 8.99278 14.3506C9.29413 14.0394 9.59764 13.7279 9.90327 13.4159C10.3269 13.4071 10.7505 13.3961 11.1738 13.3828C12.3403 13.3432 13.3443 12.3384 13.3841 11.1722C13.3974 10.7486 13.4083 10.325 13.4169 9.90149C13.729 9.59542 14.0406 9.29155 14.3517 8.98998C14.7668 8.58601 15 8.05879 15 7.49972C15 6.94047 14.763 6.41566 14.3472 6.00989Z" fill="white"/>
<path d="M13.4343 6.20857C13.1649 5.94721 12.8948 5.68386 12.6244 5.41859C12.6168 5.05116 12.6073 4.68388 12.5958 4.31679C12.5806 3.82511 12.3676 3.35604 12.0048 2.99167C11.6419 2.6273 11.1713 2.41614 10.6801 2.40062C10.313 2.38928 9.94582 2.37975 9.57871 2.37213C9.31401 2.10215 9.05159 1.83245 8.79142 1.5631C8.43926 1.20182 7.98332 0.999814 7.4983 1C7.01329 1.00027 6.55707 1.20328 6.20718 1.5631C5.94566 1.83298 5.68241 2.10324 5.41737 2.37394C5.05026 2.38138 4.68315 2.39091 4.31622 2.40243C3.30509 2.43692 2.43486 3.30776 2.40034 4.31835C2.38902 4.68579 2.37943 5.05306 2.37173 5.42015C2.10124 5.68523 1.83131 5.94849 1.56189 6.20985C1.20203 6.56023 1 7.01763 1 7.50041C1 7.98319 1.20085 8.44058 1.56189 8.79222C1.83128 9.0534 2.10177 9.31638 2.37326 9.5812C2.3805 9.94864 2.39001 10.3162 2.40169 10.6837C2.41718 11.1761 2.62989 11.6439 2.99246 12.0088C3.35505 12.3738 3.82539 12.5844 4.31727 12.5996C4.68438 12.6113 5.05158 12.6209 5.41869 12.6283C5.68339 12.8982 5.94636 13.1676 6.20751 13.4369C6.55814 13.7983 7.01452 14.0003 7.50063 14C7.98673 13.9997 8.44186 13.7983 8.79374 13.4372C9.05491 13.1675 9.31796 12.8975 9.58284 12.6271C9.94995 12.6195 10.3171 12.61 10.684 12.5985C11.6949 12.5641 12.5651 11.6933 12.5996 10.6825C12.6111 10.3154 12.6205 9.94836 12.628 9.58129C12.8985 9.31603 13.1685 9.05268 13.4381 8.79132C13.7979 8.44121 14 7.98428 14 7.49976C14 7.01507 13.7946 6.56023 13.4343 6.20857Z" fill="url(#paint0_linear_728_3007)"/>
<path fill-rule="evenodd" clip-rule="evenodd" d="M11 5.917L6.89121 11L6.88488 10.9934L6.88167 11L4 8.48165L4.88178 7.38871L6.71886 8.9967L9.94882 5L11 5.917Z" fill="white"/>
<defs>
<linearGradient id="paint0_linear_728_3007" x1="7.5" y1="1" x2="7.5" y2="14" gradientUnits="userSpaceOnUse">
<stop stop-color="#FFBF1B"/>
<stop offset="1" stop-color="#FFD747"/>
</linearGradient>
</defs>
</svg>
