<svg width="24" height="15" viewBox="0 0 24 15" fill="none" xmlns="http://www.w3.org/2000/svg">
<path opacity="0.4" d="M12 0.75C7.33629 0.75 3.10929 3.32846 0 7.5C3.1095 11.6715 7.33629 14.25 12 14.25C16.6667 14.25 20.8907 11.6715 24 7.5C20.8905 3.32846 16.6637 0.75 12 0.75ZM12 3C14.4855 3 16.5 5.01446 16.5 7.5C16.5 9.98554 14.4855 12 12 12C9.51446 12 7.5 9.98554 7.5 7.5C7.5 5.01446 9.51446 3 12 3ZM12 5.25C10.7575 5.25 9.75 6.25749 9.75 7.5C9.75 8.74251 10.7575 9.75 12 9.75C13.2425 9.75 14.25 8.74251 14.25 7.5C14.25 6.25749 13.2425 5.25 12 5.25Z" fill="black"/>
</svg>
