<svg width="28" height="28" viewBox="0 0 28 28" fill="none" xmlns="http://www.w3.org/2000/svg">
<rect width="28" height="28" rx="6" fill="#47A9F1"/>
<path d="M13.2991 20.6583C13.5273 20.8861 13.8317 21 14.1741 21C14.4784 21 14.8208 20.8861 15.049 20.6583L19.0055 16.7098C19.4619 16.2542 19.4619 15.4568 19.0055 15.0013C18.549 14.5457 17.75 14.5457 17.2936 15.0013L15.3913 16.8997L15.3916 8.21512C15.3916 7.53183 14.859 7 14.174 7C13.4894 7 12.9565 7.53154 12.9565 8.21512V16.8997L11.0543 15.0013C10.5978 14.5457 9.7988 14.5457 9.34234 15.0013C9.11411 15.229 9 15.5328 9 15.8745C9 16.1783 9.11411 16.482 9.34234 16.7477L13.2991 20.6583Z" fill="white"/>
</svg>
