<svg width="56" height="56" viewBox="0 0 56 56" fill="none" xmlns="http://www.w3.org/2000/svg">
<path d="M36.4409 14.8153L12.7483 25.8633C11.7836 26.3132 11.3654 27.4623 11.8152 28.4269L17.8875 41.4488C18.3373 42.4135 19.4864 42.8317 20.451 42.3819L44.1436 31.3338C45.1083 30.884 45.5265 29.7349 45.0767 28.7702L39.0045 15.7483C38.5547 14.7839 37.4056 14.3656 36.441 14.8155L36.4409 14.8153ZM33.2684 28.0012C33.1557 28.3108 32.8544 28.4513 32.5449 28.3386C32.4123 28.2903 32.2817 28.1677 32.2255 28.0472C32.1693 27.9268 32.1433 27.792 32.2076 27.6153C32.4006 27.085 32.1336 26.5123 31.6033 26.3192C31.2937 26.2066 31.1532 25.9053 31.2659 25.5957C31.3786 25.2862 31.6799 25.1457 31.9894 25.2584C33.0944 25.6606 33.6706 26.8963 33.2684 28.0013L33.2684 28.0012ZM34.7549 29.143C34.6223 29.0947 34.4917 28.9721 34.4355 28.8516C34.3793 28.7311 34.3533 28.5963 34.4176 28.4197C35.045 26.6959 34.1314 24.7367 32.4076 24.1093C32.0981 23.9966 31.9576 23.6953 32.0703 23.3858C32.1829 23.0763 32.4842 22.9357 32.7937 23.0484C35.1363 23.901 36.3451 26.4934 35.4785 28.8058C35.3657 29.1151 35.0341 29.2697 34.7549 29.1429L34.7549 29.143ZM37.7024 29.6402C37.5898 29.9497 37.2885 30.0902 36.9789 29.9776C36.8464 29.9293 36.7157 29.8067 36.6595 29.6862C36.6034 29.5657 36.5934 29.3868 36.6417 29.2543C37.7195 26.2929 36.1874 23.0073 33.226 21.9294C32.9165 21.8168 32.776 21.5155 32.8887 21.206C33.0014 20.8964 33.3026 20.7559 33.6122 20.8686C37.1337 22.1252 38.9752 26.0743 37.7025 29.6403L37.7024 29.6402Z" fill="#43A4EB"/>
</svg>
