<svg width="56" height="56" viewBox="0 0 56 56" fill="none" xmlns="http://www.w3.org/2000/svg">
<path fill-rule="evenodd" clip-rule="evenodd" d="M19.0387 16.3412H21.4375V15H17.6975V19.1229H19.0387L19.0387 16.3412ZM36.9594 16.3412V19.1229H38.3006V15H34.5606V16.3412H36.9594ZM19.0387 30.7946V33.422H21.4375V34.7649H17.6975V30.7946H19.0387ZM36.9594 33.422H34.5606V34.7649H38.3006V30.7946H36.9595L36.9594 33.422ZM38.1337 37.7114C38.1858 37.7234 38.2379 37.7355 38.2901 37.7475H38.29C40.3607 38.2253 41.2802 38.3174 41.6856 38.8223C42.0656 39.2955 41.994 40.1313 41.9956 41.9873H14.0055C14.0055 40.131 13.9331 39.2951 14.3128 38.8219C14.7177 38.3173 15.6367 38.2251 17.706 37.7475C17.7977 37.7262 17.8895 37.7049 17.9812 37.6837C21.8096 36.7967 25.4637 35.9501 23.644 32.596C18.1247 22.4302 22.0709 16.6676 27.9989 16.6676C33.8116 16.6676 37.8573 22.2172 32.352 32.596C30.5673 35.967 34.1826 36.8005 38.1337 37.7114Z" fill="#43A4EB"/>
</svg>
