<svg width="56" height="56" viewBox="0 0 56 56" fill="none" xmlns="http://www.w3.org/2000/svg">
<path d="M27.6609 13.7339C20.4535 13.7339 14.5867 19.5911 14.5867 26.7969C14.5867 34.0026 20.4531 39.8711 27.6609 39.8711C29.5697 39.8711 31.391 39.4563 33.0287 38.7185C33.287 38.6055 33.4891 38.3941 33.5903 38.1311C33.6915 37.8682 33.6832 37.5757 33.5673 37.3191C33.4514 37.0623 33.2375 36.8627 32.9733 36.7646C32.7092 36.6666 32.4169 36.6784 32.1616 36.7975C32.1322 36.8107 32.1033 36.8284 32.0739 36.8413C32.3253 36.4623 32.5524 36.0502 32.7653 35.6228C33.074 35.0031 33.3524 34.3334 33.5886 33.6141L35.85 42.0553C35.9232 42.3278 36.1031 42.5596 36.3489 42.6987C36.5946 42.8377 36.886 42.8722 37.1572 42.7945C37.4287 42.7169 37.6578 42.5336 37.7928 42.2859L38.4625 41.0673L40.4823 43.3725C40.6702 43.5882 40.9378 43.718 41.2235 43.7325C41.5092 43.7472 41.7885 43.6448 41.9973 43.4492L44.9611 40.6941C45.1603 40.5079 45.2794 40.2519 45.2939 39.9796C45.3081 39.7074 45.2164 39.4401 45.0378 39.234L43.0401 36.9398L44.1378 36.4897C44.3826 36.3902 44.5811 36.2025 44.6938 35.9636C44.8067 35.7247 44.8256 35.4522 44.7472 35.1998C44.6685 34.9477 44.498 34.734 44.2694 34.6017L39.67 31.9672C40.3541 30.3819 40.7349 28.6284 40.7349 26.7968C40.7349 19.5907 34.8685 13.7339 27.6607 13.7339L27.6609 13.7339ZM26.607 16.3354V21.1985H23.5883C23.8306 20.3558 24.1141 19.5781 24.4446 18.9151C25.1016 17.5968 25.8579 16.748 26.607 16.3354V16.3354ZM28.7148 16.3354C29.4638 16.748 30.2202 17.5968 30.8772 18.9151C31.2077 19.5781 31.4912 20.3558 31.7335 21.1985H28.7148V16.3354ZM23.259 16.7637C23.0041 17.1467 22.7716 17.55 22.5565 17.982C22.0816 18.9351 21.6918 20.0226 21.3928 21.1985H20.0537C19.7714 21.1945 19.4997 21.3036 19.2988 21.5018C19.0979 21.6998 18.9849 21.9701 18.9849 22.2523C18.9849 22.5344 19.0979 22.8046 19.2988 23.0026C19.4997 23.2008 19.7715 23.3101 20.0537 23.306H20.9757C20.813 24.4181 20.7231 25.5835 20.7231 26.7969C20.7231 28.0063 20.814 29.1768 20.9757 30.2875H17.2653C16.8992 29.192 16.6946 28.0173 16.6946 26.7969C16.6946 22.2972 19.3905 18.4529 23.259 16.7636L23.259 16.7637ZM32.0627 16.7637C34.1702 17.684 35.9364 19.2395 37.1012 21.1985H33.9289C33.6299 20.0226 33.2401 18.9351 32.7652 17.982C32.5501 17.55 32.3175 17.1467 32.0627 16.7637V16.7637ZM23.1053 23.3062H26.607V30.2877H23.1053C22.9274 29.1949 22.8308 28.0165 22.8308 26.7971C22.8308 25.5734 22.9264 24.4021 23.1053 23.3062ZM28.7147 23.3062H32.2164C32.3953 24.4022 32.4908 25.5734 32.4908 26.7971C32.4908 28.0165 32.3943 29.1949 32.2164 30.2877H28.7147V23.3062ZM34.3459 23.3062H38.0564C38.4244 24.4041 38.627 25.5729 38.627 26.7971C38.627 28.2518 38.3386 29.6457 37.8258 30.9135L34.4996 29.0035C34.5633 28.2866 34.5986 27.549 34.5986 26.7971C34.5986 25.5837 34.5087 24.4183 34.346 23.3062H34.3459ZM35.3011 31.8904L41.3496 35.3482L40.8774 35.5457C40.5626 35.6746 40.3293 35.9473 40.2509 36.2784C40.1725 36.6094 40.2585 36.9581 40.4822 37.2144L42.7766 39.8489L41.3496 41.1662L39.0552 38.5427C38.8288 38.2856 38.4914 38.1548 38.1508 38.1921C37.8102 38.2291 37.5088 38.4295 37.3429 38.7292L37.2111 38.9708L35.3011 31.8904ZM18.2205 32.3954H21.3928C21.6922 33.5801 22.0791 34.6648 22.5565 35.6226C22.7716 36.0546 23.0041 36.4697 23.259 36.8522C21.1485 35.9287 19.3853 34.3602 18.2205 32.3954ZM23.5883 32.3954H26.607V37.2582C25.8582 36.8456 25.1013 35.9966 24.4446 34.6785C24.1131 34.0135 23.8308 33.2409 23.5883 32.3954ZM28.7148 32.3954H31.7335C31.4909 33.2409 31.2087 34.0136 30.8772 34.6785C30.2205 35.9966 29.4636 36.8456 28.7148 37.2582V32.3954Z" fill="#43A4EB"/>
</svg>
