<svg width="60" height="55" viewBox="0 0 60 55" fill="none" xmlns="http://www.w3.org/2000/svg">
<g clip-path="url(#clip0_3488_2999)">
<path fill-rule="evenodd" clip-rule="evenodd" d="M20.2958 0.073451C20.4029 0.025001 20.5191 0 20.6366 0H39.3635C39.481 0 39.5971 0.025001 39.7044 0.073451L52.318 5.77539C52.4654 5.84176 52.5901 5.94988 52.6775 6.08645L59.8673 17.3246C60.064 17.6324 60.0404 18.0334 59.8085 18.3153L30.6416 53.7944C30.3085 54.1997 29.6918 54.1997 29.3587 53.7944L0.191711 18.3153C-0.0400912 18.0334 -0.0638701 17.6324 0.133033 17.3246L7.32265 6.08645C7.41008 5.94988 7.53496 5.84176 7.68188 5.77539L20.2958 0.073451Z" fill="url(#paint0_linear_3488_2999)"/>
<path fill-rule="evenodd" clip-rule="evenodd" d="M20.2958 0.073451C20.4029 0.025001 20.5191 0 20.6366 0H39.3635C39.481 0 39.5971 0.025001 39.7044 0.073451L52.318 5.77539C52.4654 5.84176 52.5901 5.94988 52.6775 6.08645L59.8673 17.3246C60.064 17.6324 60.0404 18.0334 59.8085 18.3153H0.191711C-0.0400912 18.0334 -0.0638701 17.6324 0.133033 17.3246L7.32265 6.08645C7.41008 5.94988 7.53496 5.84176 7.68188 5.77539L20.2958 0.073451Z" fill="url(#paint1_linear_3488_2999)"/>
<path d="M30.0007 11.166L41.38 26.2607H18.6216L30.0007 11.166Z" fill="#95B0FF"/>
<path d="M29.3212 53.7042C29.6699 54.1271 30.3196 54.1185 30.657 53.6866L33.8572 49.5901L41.38 26.2609H18.6216L25.9286 49.5901L29.3212 53.7042Z" fill="url(#paint2_linear_3488_2999)"/>
<path d="M30.0009 11.166L9.82874 8.16772L18.6217 26.2609L30.0009 11.166Z" fill="#D7D6FC"/>
<path d="M0.19165 18.3154L9.82755 8.16772L18.6206 26.2609L0.19165 18.3154Z" fill="#BDB3F9"/>
<path d="M29.9995 11.166L50.1716 8.16772L41.3786 26.2609L29.9995 11.166Z" fill="#6E97FF"/>
<path d="M59.8089 18.3156L50.1734 8.16797L41.3804 26.2611L59.8089 18.3156Z" fill="#A4CCFA"/>
<path d="M59.8084 18.3153L50.1729 8.16772L52.3453 5.78979C52.3861 5.81091 52.5051 5.8626 52.6255 6.01169C52.7802 6.20313 57.2939 12.9254 59.8671 17.3246C60.1031 17.728 59.983 18.1041 59.8084 18.3153Z" fill="#799FF0"/>
<path d="M0.191576 18.3153L9.82715 8.16772L7.65472 5.78979C7.61387 5.81091 7.49494 5.8626 7.37446 6.01169C7.21976 6.20313 2.7061 12.9254 0.132862 17.3246C-0.103105 17.728 0.0169539 18.1041 0.191576 18.3153Z" fill="#B28DFF"/>
<path d="M13.1676 29.3603C13.0868 29.3982 13.0091 29.3027 13.0626 29.2311L15.6463 25.7717C16.4048 24.756 16.5429 23.4042 16.0053 22.2556L14.1743 18.3438C14.1364 18.2629 14.2318 18.185 14.3032 18.2386L17.7563 20.827C18.7702 21.587 20.1196 21.7253 21.266 21.1867L25.1707 19.3523C25.2515 19.3144 25.3292 19.4099 25.2757 19.4815L22.692 22.9409C21.9334 23.9566 21.7954 25.3085 22.333 26.457L24.164 30.3688C24.2019 30.4497 24.1065 30.5276 24.035 30.474L20.5819 27.8856C19.5681 27.1257 18.2187 26.9874 17.0723 27.5259L13.1676 29.3603Z" fill="white"/>
</g>
<defs>
<linearGradient id="paint0_linear_3488_2999" x1="1.78069e-05" y1="18.6768" x2="61.5" y2="18.0351" gradientUnits="userSpaceOnUse">
<stop stop-color="#9889FE"/>
<stop offset="0.495027" stop-color="#68A3F1"/>
<stop offset="1" stop-color="#61A8EA"/>
</linearGradient>
<linearGradient id="paint1_linear_3488_2999" x1="7.28573" y1="5.79625" x2="51.6429" y2="5.58236" gradientUnits="userSpaceOnUse">
<stop stop-color="#B69EFD"/>
<stop offset="1" stop-color="#9BB7FC"/>
</linearGradient>
<linearGradient id="paint2_linear_3488_2999" x1="30.0008" y1="26.2609" x2="30.0008" y2="54.016" gradientUnits="userSpaceOnUse">
<stop stop-color="#B3C9FA"/>
<stop offset="1" stop-color="#A3D2F6"/>
</linearGradient>
<clipPath id="clip0_3488_2999">
<rect width="60" height="54.0984" fill="white"/>
</clipPath>
</defs>
</svg>
