<svg width="101" height="60" viewBox="0 0 101 60" fill="none" xmlns="http://www.w3.org/2000/svg">
<path d="M50.7031 41.3906C55.5625 41.3906 59.125 38.125 59.125 33.5781V33.5469C59.125 29.3125 56.0781 26.1875 51.7344 26.1875C48.6719 26.1875 46.4219 27.75 45.5312 29.8125H45.4531C45.4531 29.5625 45.4531 29.3281 45.4688 29.0938C45.625 24.8281 47.1406 21.3594 50.7656 21.3594C52.7812 21.3594 54.1719 22.3594 54.7656 23.9062L54.8281 24.0469H58.8281L58.7969 23.875C58.0781 20.4688 54.9688 18.0625 50.7969 18.0625C45.0469 18.0625 41.5938 22.5156 41.5938 29.9688V30C41.5938 37.9062 45.7188 41.3906 50.7031 41.3906ZM46.1406 33.6406V33.625C46.1406 31.1094 48.1094 29.2969 50.6875 29.2969C53.2656 29.2969 55.1562 31.125 55.1562 33.6875V33.7188C55.1562 36.1562 53.1562 38.0938 50.6406 38.0938C48.125 38.0938 46.1406 36.1406 46.1406 33.6406Z" fill="black"/>
</svg>
