<svg width="101" height="60" viewBox="0 0 101 60" fill="none" xmlns="http://www.w3.org/2000/svg">
<path d="M50.5 41.3906C55.6562 41.3906 59.2656 38.7031 59.2656 34.8594V34.8281C59.2656 31.9688 57.1719 29.75 54.1875 29.1406V29.0469C56.75 28.3594 58.4375 26.4844 58.4375 24.0781V24.0469C58.4375 20.5938 55.1562 18.0625 50.5 18.0625C45.8594 18.0625 42.5625 20.5938 42.5625 24.0469V24.0781C42.5625 26.4844 44.25 28.3594 46.8125 29.0469V29.1406C43.8281 29.75 41.75 31.9688 41.75 34.8281V34.8594C41.75 38.7031 45.3438 41.3906 50.5 41.3906ZM50.5 27.7656C48.1562 27.7656 46.5469 26.4062 46.5469 24.4531V24.4219C46.5469 22.4688 48.1719 21.1094 50.5 21.1094C52.8281 21.1094 54.4531 22.4688 54.4531 24.4219V24.4531C54.4531 26.4062 52.8438 27.7656 50.5 27.7656ZM50.5 38.3125C47.8125 38.3125 45.8906 36.7656 45.8906 34.6094V34.5781C45.8906 32.4062 47.7812 30.8438 50.5 30.8438C53.2188 30.8438 55.1094 32.4062 55.1094 34.5781V34.6094C55.1094 36.7656 53.2031 38.3125 50.5 38.3125Z" fill="black"/>
</svg>
