<svg width="101" height="60" viewBox="0 0 101 60" fill="none" xmlns="http://www.w3.org/2000/svg">
<path d="M50.4219 41.3906C55.4062 41.3906 58.8438 38.6406 58.8438 34.7188V34.6875C58.8438 31.5625 56.6406 29.5938 53.3125 29.2812V29.2031C56.0156 28.6406 58.0469 26.7812 58.0469 23.9844V23.9531C58.0469 20.4531 55.0312 18.0625 50.375 18.0625C45.8281 18.0625 42.75 20.5938 42.4219 24.4062L42.4062 24.5938H46.1562L46.1719 24.4375C46.375 22.5 48 21.2656 50.375 21.2656C52.7969 21.2656 54.1719 22.4531 54.1719 24.4844V24.5156C54.1719 26.4844 52.5156 27.8906 50.0312 27.8906H47.4531V30.8906H50.125C53 30.8906 54.75 32.2031 54.75 34.5781V34.6094C54.75 36.6562 53.0156 38.0938 50.4062 38.0938C47.7656 38.0938 46.0156 36.7656 45.7969 34.9375L45.7812 34.7656H41.9219L41.9375 34.9531C42.25 38.7344 45.4688 41.3906 50.4219 41.3906Z" fill="black"/>
</svg>
