<svg width="101" height="60" viewBox="0 0 101 60" fill="none" xmlns="http://www.w3.org/2000/svg">
<path d="M50.2969 18.0625C45.4375 18.0625 41.8594 21.3281 41.8594 25.875V25.9062C41.8594 30.1406 44.9219 33.2656 49.2656 33.2656C52.3125 33.2656 54.5625 31.7031 55.4531 29.6406H55.5469C55.5469 29.8906 55.5312 30.125 55.5156 30.3594C55.3594 34.625 53.8438 38.0938 50.2188 38.0938C48.2031 38.0938 46.8281 37.0938 46.2188 35.5469L46.1719 35.4062H42.1719L42.2031 35.5781C42.9062 38.9844 46.0312 41.3906 50.2031 41.3906C55.9531 41.3906 59.4062 36.9375 59.4062 29.4844V29.4531C59.4062 21.5469 55.2656 18.0625 50.2969 18.0625ZM50.2969 30.1562C47.7344 30.1562 45.8281 28.3281 45.8281 25.7656V25.7344C45.8281 23.2969 47.8438 21.3594 50.3438 21.3594C52.875 21.3594 54.8438 23.3125 54.8438 25.8125V25.8281C54.8438 28.3438 52.875 30.1562 50.2969 30.1562Z" fill="black"/>
</svg>
