<svg width="101" height="60" viewBox="0 0 101 60" fill="none" xmlns="http://www.w3.org/2000/svg">
<path d="M50.7344 41.3906C55.7188 41.3906 59.2031 38.2031 59.2031 33.5625V33.5312C59.2031 29.25 56.1094 26.1406 51.8125 26.1406C49.5469 26.1406 47.6875 27.0312 46.7031 28.5469H46.625L47.25 21.75H57.875V18.4531H44.0312L42.9531 31.5625H46.4688C46.7344 31.0625 47.1094 30.625 47.5312 30.2812C48.3906 29.5625 49.5 29.1719 50.7812 29.1719C53.4219 29.1719 55.3125 31.0156 55.3125 33.5938V33.625C55.3125 36.2656 53.4531 38.1094 50.7656 38.1094C48.3906 38.1094 46.6719 36.6562 46.3438 34.7656L46.3281 34.6562H42.5469L42.5625 34.8594C42.8594 38.5938 46.0469 41.3906 50.7344 41.3906Z" fill="black"/>
</svg>
