<svg width="101" height="60" viewBox="0 0 101 60" fill="none" xmlns="http://www.w3.org/2000/svg">
<g opacity="0.7">
<path d="M60.5078 43.0352H48.7227C46.7129 43.0352 45.4141 42.502 44.1016 41.0391L36.582 32.9727C35.5156 31.7832 35.1465 31.0039 35.1465 30.1289C35.1465 29.2539 35.5156 28.4883 36.582 27.2988L44.0879 19.1914C45.4004 17.7285 46.7129 17.25 48.7227 17.25H60.5078C63.5293 17.25 65.1426 18.8496 65.1426 21.8438V38.6328C65.1426 41.6406 63.5293 43.0352 60.5078 43.0352ZM60.248 40C61.4375 40 62.0938 39.3848 62.0938 38.127V22.1582C62.0938 20.9004 61.4375 20.2988 60.248 20.2988H48.5449C47.6562 20.2988 47.0547 20.4766 46.4258 21.1465L38.9746 29.1992C38.6191 29.5684 38.4961 29.8418 38.4961 30.1289C38.4961 30.416 38.6191 30.7031 38.9746 31.0723L46.4395 39.084C47.0684 39.7539 47.6562 40 48.5586 40H60.248ZM48.3125 35.8574C47.5605 35.8574 46.9727 35.2695 46.9727 34.5176C46.9727 34.1621 47.123 33.834 47.3828 33.5879L50.8008 30.1699L47.3828 26.7383C47.123 26.4922 46.9727 26.1641 46.9727 25.8086C46.9727 25.0566 47.5605 24.4824 48.3125 24.4824C48.709 24.4824 49.0098 24.6055 49.2695 24.8789L52.6875 28.2832L56.1191 24.8652C56.3926 24.5918 56.6934 24.4688 57.0762 24.4688C57.8281 24.4688 58.416 25.0566 58.416 25.8086C58.416 26.1504 58.2793 26.4648 58.0059 26.7383L54.5879 30.1699L57.9922 33.5742C58.252 33.834 58.4023 34.1484 58.4023 34.5176C58.4023 35.2695 57.8145 35.8574 57.0625 35.8574C56.666 35.8574 56.3516 35.7207 56.0918 35.4609L52.6875 32.0566L49.2969 35.4609C49.0371 35.7207 48.709 35.8574 48.3125 35.8574Z" fill="#838D99"/>
</g>
</svg>
