<svg xmlns="http://www.w3.org/2000/svg" viewBox="0 0 512 512" width="512" height="512" preserveAspectRatio="xMidYMid meet" style="width: 100%; height: 100%; transform: translate3d(0px, 0px, 0px);">
    <defs>
        <clipPath id="__lottie_element_17">
            <rect width="512" height="512" x="0" y="0"></rect>
        </clipPath>
    </defs>
    <g clip-path="url(#__lottie_element_17)">
        <g transform="matrix(1.100000023841858,0,0,1.100000023841858,260.7619934082031,270.74700927734375)" opacity="0.15" style="display: block;">
            <g opacity="1" transform="matrix(1,0,0,1,0,0)">
                <path stroke-linecap="round" stroke-linejoin="round" fill-opacity="0" stroke="rgb(0,0,0)" stroke-opacity="1" stroke-width="15" d=" M-131,193 C-131,193 134,193 134,193"></path>
            </g>
        </g>
        <g transform="matrix(1.0399999618530273,0,0,0.9599999785423279,-3.396240234375,11.13177490234375)" opacity="1" style="display: block;">
            <g opacity="1" transform="matrix(1,0,0,1,80.38899993896484,244.9320068359375)">
                <path fill="rgb(255,170,18)" fill-opacity="1" d=" M57.722999572753906,-37.95000076293945 C57.722999572753906,-37.95000076293945 32.50299835205078,-57.44599914550781 -1.2280000448226929,-41.26499938964844 C-49.26599884033203,-18.22100067138672 -76.3010025024414,31.547000885009766 -70.93699645996094,44.625999450683594 C-66.22599792480469,56.112998962402344 -14.98900032043457,31.134000778198242 25.864999771118164,37.17599868774414 C66.71900177001953,43.21799850463867 87.11299896240234,-19.740999221801758 57.722999572753906,-37.95000076293945z"></path>
            </g>
            <g opacity="1" transform="matrix(1,0,0,1,80.38899993896484,244.92999267578125)">
                <path fill="rgb(252,203,29)" fill-opacity="1" d=" M64.1510009765625,17.01099967956543 C67.78199768066406,3.114000082015991 64.98799896240234,-11.85099983215332 53.470001220703125,-18.986000061035156 C53.470001220703125,-18.986000061035156 35.45899963378906,-42.13800048828125 4.433000087738037,-26.71299934387207 C-31.996000289916992,-8.60099983215332 -57.58300018310547,31.086999893188477 -59.70000076293945,47.4739990234375 C-65.72699737548828,48.08399963378906 -69.76799774169922,47.47999954223633 -70.93499755859375,44.62900161743164 C-76.3030014038086,31.551000595092773 -49.26599884033203,-18.222000122070312 -1.2330000400543213,-41.268001556396484 C32.500999450683594,-57.44599914550781 57.72800064086914,-37.95399856567383 57.72800064086914,-37.95399856567383 C74.86100006103516,-27.327999114990234 75.072998046875,-1.4769999980926514 64.1510009765625,17.01099967956543z"></path>
            </g>
            <g opacity="1" transform="matrix(1,0,0,1,84.03399658203125,217.9029998779297)">
                <path stroke-linecap="round" stroke-linejoin="round" fill-opacity="0" stroke="rgb(254,230,60)" stroke-opacity="1" stroke-width="11" d=" M-26.555999755859375,11.006999969482422 C-19.018999099731445,3.6449999809265137 6.748000144958496,-14.059000015258789 26.555999755859375,-10.553000450134277"></path>
            </g>
            <g opacity="1" transform="matrix(1,0,0,1,80.38899993896484,244.9320068359375)">
                <path stroke-linecap="butt" stroke-linejoin="miter" fill-opacity="0" stroke-miterlimit="10" stroke="rgb(206,117,0)" stroke-opacity="1" stroke-width="8" d=" M57.722999572753906,-37.95000076293945 C57.722999572753906,-37.95000076293945 32.50299835205078,-57.44599914550781 -1.2280000448226929,-41.26499938964844 C-49.26599884033203,-18.22100067138672 -76.3010025024414,31.547000885009766 -70.93699645996094,44.625999450683594 C-66.22599792480469,56.112998962402344 -14.98900032043457,31.134000778198242 25.864999771118164,37.17599868774414 C66.71900177001953,43.21799850463867 87.11299896240234,-19.740999221801758 57.722999572753906,-37.95000076293945z"></path>
            </g>
        </g>
        <g transform="matrix(1.0399999618530273,0,0,0.9599999785423279,-6.396636962890625,11.13177490234375)" opacity="1" style="display: block;">
            <g opacity="1" transform="matrix(1,0,0,1,422.01800537109375,244.9320068359375)">
                <path fill="rgb(255,170,18)" fill-opacity="1" d=" M-58.38999938964844,-36.97999954223633 C-58.38999938964844,-36.97999954223633 -33.417999267578125,-56.792999267578125 0.5139999985694885,-41.03900146484375 C48.8390007019043,-18.601999282836914 76.5,30.820999145507812 71.3010025024414,43.96699905395508 C66.73500061035156,55.512001037597656 15.187999725341797,31.18199920654297 -25.586999893188477,37.737998962402344 C-66.36199951171875,44.29399871826172 -87.5479965209961,-18.402000427246094 -58.38999938964844,-36.97999954223633z"></path>
            </g>
            <g opacity="1" transform="matrix(1,0,0,1,422.0190124511719,244.92999267578125)">
                <path fill="rgb(252,203,29)" fill-opacity="1" d=" M-64.1240005493164,18.058000564575195 C-67.93000030517578,4.208000183105469 -65.32499694824219,-10.791000366210938 -53.89799880981445,-18.070999145507812 C-53.89799880981445,-18.070999145507812 -32.020999908447266,-35.4370002746582 -2.2780001163482666,-21.6299991607666 C34.62099838256836,-4.497000217437744 57.777000427246094,30.597000122070312 60.10100173950195,46.95600128173828 C66.13500213623047,47.4900016784668 70.16799926757812,46.834999084472656 71.29900360107422,43.970001220703125 C76.50199890136719,30.825000762939453 48.8390007019043,-18.60300064086914 0.5189999938011169,-41.04199981689453 C-33.41699981689453,-56.792999267578125 -58.39500045776367,-36.98400115966797 -58.39500045776367,-36.98400115966797 C-75.39299774169922,-26.14299964904785 -75.27899932861328,-0.29100000858306885 -64.1240005493164,18.058000564575195z"></path>
            </g>
            <g opacity="1" transform="matrix(1,0,0,1,435.90899658203125,229.95700073242188)">
                <path stroke-linecap="round" stroke-linejoin="round" fill-opacity="0" stroke="rgb(254,230,60)" stroke-opacity="1" stroke-width="11" d=" M-25.860000610351562,-17.711999893188477 C-25.860000610351562,-17.711999893188477 2.505000114440918,-10.479000091552734 25.860000610351562,17.711999893188477"></path>
            </g>
            <g opacity="1" transform="matrix(1,0,0,1,422.01800537109375,244.9320068359375)">
                <path stroke-linecap="butt" stroke-linejoin="miter" fill-opacity="0" stroke-miterlimit="10" stroke="rgb(206,117,0)" stroke-opacity="1" stroke-width="8" d=" M-58.38999938964844,-36.97999954223633 C-58.38999938964844,-36.97999954223633 -33.417999267578125,-56.792999267578125 0.5139999985694885,-41.03900146484375 C48.8390007019043,-18.601999282836914 76.5,30.820999145507812 71.3010025024414,43.96699905395508 C66.73500061035156,55.512001037597656 15.187999725341797,31.18199920654297 -25.586999893188477,37.737998962402344 C-66.36199951171875,44.29399871826172 -87.5479965209961,-18.402000427246094 -58.38999938964844,-36.97999954223633z"></path>
            </g>
        </g>
        <g transform="matrix(1,0,0,1,4.75,-3.25)" opacity="1" style="display: block;">
            <g opacity="1" transform="matrix(1,0,0,1,164.83799743652344,453.02899169921875)">
                <path fill="rgb(247,141,22)" fill-opacity="1" d=" M11.701000213623047,-38.28300094604492 C10.98799991607666,-16.886999130249023 2.430000066757202,11.998000144958496 -10.407999992370605,20.913000106811523 C-53.91299819946289,16.989999771118164 -72.45700073242188,19.1299991607666 -74.23999786376953,29.47100067138672 C-76.02300262451172,39.8120002746582 -62.6879997253418,40.48699951171875 -41.64899826049805,34.42499923706055 C-27.725000381469727,30.413000106811523 -10.03600025177002,29.014999389648438 5.195000171661377,29.871000289916992 C12.979000091552734,30.30900001525879 20.121000289916992,31.334999084472656 25.788999557495117,32.90299987792969 C34.14699935913086,35.21500015258789 48.5629997253418,37.016998291015625 59.499000549316406,36.38199996948242 C78.7229995727539,35.26499938964844 80.47000122070312,15.96500015258789 58.1150016784668,18.64699935913086 C47.76599884033203,19.888999938964844 39.999000549316406,21.881000518798828 29.25,18.301000595092773 C21.04800033569336,6.177000045776367 29.886999130249023,-35.7859992980957 29.886999130249023,-35.7859992980957"></path>
                <path stroke-linecap="round" stroke-linejoin="round" fill-opacity="0" stroke="rgb(149,58,3)" stroke-opacity="1" stroke-width="8" d=" M11.701000213623047,-38.28300094604492 C10.98799991607666,-16.886999130249023 2.430000066757202,11.998000144958496 -10.407999992370605,20.913000106811523 C-53.91299819946289,16.989999771118164 -72.45700073242188,19.1299991607666 -74.23999786376953,29.47100067138672 C-76.02300262451172,39.8120002746582 -62.6879997253418,40.48699951171875 -41.64899826049805,34.42499923706055 C-27.725000381469727,30.413000106811523 -10.03600025177002,29.014999389648438 5.195000171661377,29.871000289916992 C12.979000091552734,30.30900001525879 20.121000289916992,31.334999084472656 25.788999557495117,32.90299987792969 C34.14699935913086,35.21500015258789 48.5629997253418,37.016998291015625 59.499000549316406,36.38199996948242 C78.7229995727539,35.26499938964844 80.47000122070312,15.96500015258789 58.1150016784668,18.64699935913086 C47.76599884033203,19.888999938964844 39.999000549316406,21.881000518798828 29.25,18.301000595092773 C21.04800033569336,6.177000045776367 29.886999130249023,-35.7859992980957 29.886999130249023,-35.7859992980957"></path>
            </g>
            <g opacity="0.5" transform="matrix(1,0,0,1,182.45199584960938,438.3710021972656)">
                <path fill="rgb(149,58,3)" fill-opacity="1" d=" M7.751999855041504,32.981998443603516 C-0.6060000061988831,18.222000122070312 -13.942999839782715,21.77899932861328 -17.32200050354004,28.53700065612793 C-13.744000434875488,11.130999565124512 -5.415999889373779,-32.981998443603516 -5.415999889373779,-32.981998443603516 C-5.415999889373779,-32.981998443603516 17.32200050354004,-30.26099967956543 17.32200050354004,-30.26099967956543 C17.32200050354004,-30.26099967956543 3.0880000591278076,7.511000156402588 7.751999855041504,32.981998443603516z"></path>
            </g>
            <g opacity="1" transform="matrix(1,0,0,1,108.52200317382812,479.97601318359375)">
                <path fill="rgb(252,203,29)" fill-opacity="1" d=" M-13.795000076293945,2.4000000953674316 C-13.260000228881836,-2.2769999504089355 6.249000072479248,-5.216000080108643 13.064000129699707,-3.4790000915527344 C19.150999069213867,-1.9270000457763672 -14.402999877929688,7.7170000076293945 -13.795000076293945,2.4000000953674316z"></path>
            </g>
        </g>
        <g transform="matrix(1,0,0,1,4.75,-3.25)" opacity="1" style="display: block;">
            <g opacity="1" transform="matrix(1,0,0,1,165.06100463867188,482.4169921875)">
                <path fill="rgb(247,141,22)" fill-opacity="1" d=" M8.961000442504883,-12.486000061035156 C1.4919999837875366,-15.331000328063965 -11.704999923706055,-12.265999794006348 -13.520999908447266,0.2680000066757202 C-15.979999542236328,17.23699951171875 14.251999855041504,18.826000213623047 13.654000282287598,-0.7160000205039978"></path>
                <path stroke-linecap="round" stroke-linejoin="round" fill-opacity="0" stroke="rgb(149,58,3)" stroke-opacity="1" stroke-width="8" d=" M8.961000442504883,-12.486000061035156 C1.4919999837875366,-15.331000328063965 -11.704999923706055,-12.265999794006348 -13.520999908447266,0.2680000066757202 C-15.979999542236328,17.23699951171875 14.251999855041504,18.826000213623047 13.654000282287598,-0.7160000205039978"></path>
            </g>
            <g opacity="1" transform="matrix(1,0,0,1,163.6219940185547,481.39300537109375)">
                <path fill="rgb(252,203,29)" fill-opacity="1" d=" M6.861000061035156,0 C6.861000061035156,3.433000087738037 3.7890000343322754,6.216000080108643 0,6.216000080108643 C-3.7890000343322754,6.216000080108643 -6.861000061035156,3.433000087738037 -6.861000061035156,0 C-6.861000061035156,-3.433000087738037 -3.7890000343322754,-6.216000080108643 0,-6.216000080108643 C3.7890000343322754,-6.216000080108643 6.861000061035156,-3.433000087738037 6.861000061035156,0z"></path>
            </g>
        </g>
        <g transform="matrix(1,0,0,1,4.75,-3.25)" opacity="1" style="display: block;">
            <g opacity="1" transform="matrix(1,0,0,1,335.64599609375,453.02899169921875)">
                <path fill="rgb(247,141,22)" fill-opacity="1" d=" M-11.701000213623047,-38.28300094604492 C-10.98799991607666,-16.886999130249023 -2.430000066757202,11.998000144958496 10.407999992370605,20.913000106811523 C53.91299819946289,16.989999771118164 72.45700073242188,19.1299991607666 74.23999786376953,29.47100067138672 C76.02300262451172,39.8120002746582 62.6879997253418,40.48699951171875 41.64899826049805,34.42499923706055 C20.610000610351562,28.363000869750977 -9.029000282287598,28.267000198364258 -25.788999557495117,32.90299987792969 C-34.14699935913086,35.21500015258789 -48.5629997253418,37.016998291015625 -59.499000549316406,36.38199996948242 C-78.7229995727539,35.26499938964844 -80.47000122070312,15.96500015258789 -58.1150016784668,18.64699935913086 C-47.76599884033203,19.888999938964844 -39.999000549316406,21.881000518798828 -29.25,18.301000595092773 C-21.04800033569336,6.177000045776367 -29.886999130249023,-35.7859992980957 -29.886999130249023,-35.7859992980957"></path>
                <path stroke-linecap="round" stroke-linejoin="round" fill-opacity="0" stroke="rgb(149,58,3)" stroke-opacity="1" stroke-width="8" d=" M-11.701000213623047,-38.28300094604492 C-10.98799991607666,-16.886999130249023 -2.430000066757202,11.998000144958496 10.407999992370605,20.913000106811523 C53.91299819946289,16.989999771118164 72.45700073242188,19.1299991607666 74.23999786376953,29.47100067138672 C76.02300262451172,39.8120002746582 62.6879997253418,40.48699951171875 41.64899826049805,34.42499923706055 C20.610000610351562,28.363000869750977 -9.029000282287598,28.267000198364258 -25.788999557495117,32.90299987792969 C-34.14699935913086,35.21500015258789 -48.5629997253418,37.016998291015625 -59.499000549316406,36.38199996948242 C-78.7229995727539,35.26499938964844 -80.47000122070312,15.96500015258789 -58.1150016784668,18.64699935913086 C-47.76599884033203,19.888999938964844 -39.999000549316406,21.881000518798828 -29.25,18.301000595092773 C-21.04800033569336,6.177000045776367 -29.886999130249023,-35.7859992980957 -29.886999130249023,-35.7859992980957"></path>
            </g>
            <g opacity="0.5" transform="matrix(1,0,0,1,318.0320129394531,438.3710021972656)">
                <path fill="rgb(149,58,3)" fill-opacity="1" d=" M-7.751999855041504,32.981998443603516 C3.869999885559082,24.106000900268555 16.476999282836914,26.88800048828125 17.32200050354004,28.53700065612793 C13.744000434875488,11.130999565124512 5.915999889373779,-33.21500015258789 5.915999889373779,-33.21500015258789 C5.915999889373779,-33.21500015258789 -16.82200050354004,-30.493999481201172 -16.82200050354004,-30.493999481201172 C-16.82200050354004,-30.493999481201172 -3.0880000591278076,7.511000156402588 -7.751999855041504,32.981998443603516z"></path>
            </g>
            <g opacity="1" transform="matrix(1,0,0,1,391.9620056152344,479.97601318359375)">
                <path fill="rgb(252,203,29)" fill-opacity="1" d=" M13.795000076293945,2.4000000953674316 C13.260000228881836,-2.2769999504089355 -6.249000072479248,-5.216000080108643 -13.064000129699707,-3.4790000915527344 C-19.150999069213867,-1.9270000457763672 14.402999877929688,7.7170000076293945 13.795000076293945,2.4000000953674316z"></path>
            </g>
        </g>
        <g transform="matrix(1,0,0,1,4.75,-3.25)" opacity="1" style="display: block;">
            <g opacity="1" transform="matrix(1,0,0,1,334.5159912109375,483.0140075683594)">
                <path fill="rgb(247,141,22)" fill-opacity="1" d=" M-2.510999917984009,-13.868000030517578 C4.406000137329102,-13.163999557495117 12.126999855041504,-8.585000038146973 13.194000244140625,0.6380000114440918 C15.427000045776367,19.933000564575195 -17.297000885009766,17.33799934387207 -12.895000457763672,-2.0420000553131104"></path>
                <path stroke-linecap="round" stroke-linejoin="round" fill-opacity="0" stroke="rgb(149,58,3)" stroke-opacity="1" stroke-width="8" d=" M-2.510999917984009,-13.868000030517578 C4.406000137329102,-13.163999557495117 12.126999855041504,-8.585000038146973 13.194000244140625,0.6380000114440918 C15.427000045776367,19.933000564575195 -17.297000885009766,17.33799934387207 -12.895000457763672,-2.0420000553131104"></path>
            </g>
            <g opacity="1" transform="matrix(1,0,0,1,335.9230041503906,481.6390075683594)">
                <path fill="rgb(252,203,29)" fill-opacity="1" d=" M-6.861000061035156,0 C-6.599999904632568,3.433000087738037 -3.315999984741211,6.216000080108643 0.4729999899864197,6.216000080108643 C4.26200008392334,6.216000080108643 7.122000217437744,3.433000087738037 6.861000061035156,0 C6.599999904632568,-3.433000087738037 3.315999984741211,-6.216000080108643 -0.4729999899864197,-6.216000080108643 C-4.26200008392334,-6.216000080108643 -7.122000217437744,-3.433000087738037 -6.861000061035156,0z"></path>
            </g>
        </g>
        <g transform="matrix(1.0399999618530273,0,0,0.9599999785423279,-5.397186279296875,11.13177490234375)" opacity="1" style="display: block;">
            <g opacity="1" transform="matrix(1,0,0,1,251.16400146484375,294.15301513671875)">
                <path fill="rgb(252,203,29)" fill-opacity="1" d=" M146.7030029296875,29.86400032043457 C146.80499267578125,89.11599731445312 81.22200012207031,146.7480010986328 0.20000000298023224,146.88699340820312 C-80.8219985961914,147.0260009765625 -146.60000610351562,89.61900329589844 -146.70199584960938,30.367000579833984 C-146.7689971923828,-8.753999710083008 -135.3209991455078,-51.0989990234375 -112.47799682617188,-84.43099975585938 C-104.77100372314453,-95.677001953125 -99.16600036621094,-117.29499816894531 -104.45099639892578,-133.97000122070312 C-82.12300109863281,-152.88800048828125 -34.73699951171875,-145.4250030517578 -0.3009999990463257,-145.48399353027344 C36.96500015258789,-145.54800415039062 84.99400329589844,-145.64300537109375 108.30899810791016,-123.40699768066406 C107.25299835205078,-109.67500305175781 106.6510009765625,-91.85299682617188 113.20500183105469,-82.05599975585938 C135.29200744628906,-49.03900146484375 146.63800048828125,-7.800000190734863 146.7030029296875,29.86400032043457z"></path>
            </g>
            <g opacity="1" transform="matrix(1,0,0,1,251.1840057373047,260.9849853515625)">
                <path fill="rgb(252,223,57)" fill-opacity="1" d=" M116.04399871826172,13.437000274658203 C116.22000122070312,111.52999877929688 -115.86699676513672,112.16999816894531 -116.04399871826172,13.835000038146973 C-116.13899993896484,-39.0369987487793 -64.08200073242188,-87.18699645996094 -0.17299999296665192,-87.2969970703125 C63.643001556396484,-87.40599822998047 115.94499969482422,-41.49700164794922 116.04399871826172,13.437000274658203z"></path>
            </g>
            <g opacity="1" transform="matrix(1,0,0,1,251.16400146484375,373.406005859375)">
                <path fill="rgb(255,169,18)" fill-opacity="1" d=" M-145.87399291992188,-67.58399963378906 C-146.43600463867188,-61.303001403808594 -146.71299743652344,-55.05400085449219 -146.70199584960938,-48.88600158691406 C-146.60000610351562,10.366999626159668 -80.8219985961914,67.77300262451172 0.20000000298023224,67.63400268554688 C81.22200012207031,67.49500274658203 146.80499267578125,9.86400032043457 146.7030029296875,-49.388999938964844 C146.6929931640625,-55.395999908447266 146.39199829101562,-61.49399948120117 145.80999755859375,-67.63400268554688 C130.00900268554688,67.48899841308594 -144.41000366210938,63.65599822998047 -145.87399291992188,-67.58399963378906z"></path>
            </g>
            <g opacity="1" transform="matrix(1,0,0,1,254.1959991455078,207.28399658203125)">
                <path fill="rgb(255,169,18)" fill-opacity="1" d=" M110.34700012207031,5.511000156402588 C58.513999938964844,67.18800354003906 -79.01599884033203,63.35499954223633 -110.34700012207031,-4.677999973297119 C-107.60900115966797,-8.668999671936035 -103.87100219726562,-22.80500030517578 -104.9469985961914,-31.506000518798828 C-77.45500183105469,-64.08100128173828 -48.23899841308594,-41.691001892089844 -3.250999927520752,-41.768001556396484 C36.4630012512207,-41.83599853515625 76.3290023803711,-55.99599838256836 104.79299926757812,-28.815000534057617 C103.16500091552734,-17.052000045776367 103.125,-4.610000133514404 110.34700012207031,5.511000156402588z"></path>
            </g>
            <g opacity="1" transform="matrix(1,0,0,1,251.16400146484375,294.4309997558594)">
                <path stroke-linecap="round" stroke-linejoin="round" fill-opacity="0" stroke="rgb(206,117,0)" stroke-opacity="1" stroke-width="8" d=" M146.7030029296875,29.586000442504883 C146.80499267578125,88.83799743652344 81.22200012207031,146.47000122070312 0.20000000298023224,146.60899353027344 C-80.8219985961914,146.7480010986328 -146.60000610351562,89.34100341796875 -146.70199584960938,30.089000701904297 C-146.76699829101562,-8.069999694824219 -135.8769989013672,-49.29499816894531 -114.14299774169922,-82.23300170898438 C-106.48100280761719,-93.84500122070312 -101.10600280761719,-105.94999694824219 -104.45099639892578,-132.07000732421875 C-81.87899780273438,-151.81100463867188 -35.5890007019043,-145.7010040283203 -0.3009999990463257,-145.76199340820312 C37.499000549316406,-145.82699584960938 88.2040023803711,-150.1649932861328 111.64600372314453,-127.38200378417969 C104.59200286865234,-87.16200256347656 108.39399719238281,-90.78199768066406 117.9489974975586,-74.84500122070312 C136.9149932861328,-43.209999084472656 146.64300537109375,-5.28000020980835 146.7030029296875,29.586000442504883z"></path>
            </g>
        </g>
        <g transform="matrix(1.0399999618530273,0,0,0.9599999785423279,-5.397186279296875,11.13177490234375)" opacity="1" style="display: block;">
            <g opacity="1" transform="matrix(1,0,0,1,254.2310028076172,122.31999969482422)">
                <path fill="rgb(252,203,29)" fill-opacity="1" d=" M110.1780014038086,33.90800094604492 C104.322998046875,130.75 -116.16600036621094,121.87100219726562 -110.32599639892578,24.6200008392334 C-106.56800079345703,-37.95000076293945 -67.72699737548828,-105.18900299072266 5.460000038146973,-102.10600280761719 C77.72699737548828,-99.06199645996094 113.90499877929688,-27.733999252319336 110.1780014038086,33.90800094604492z"></path>
            </g>
            <g opacity="1" transform="matrix(1,0,0,1,254.3350067138672,111.21499633789062)">
                <path fill="rgb(254,230,60)" fill-opacity="1" d=" M92.22899627685547,27.636999130249023 C90.89399719238281,59.3380012512207 44.73699951171875,80.14199829101562 -3.6559998989105225,78.96900177001953 C-65.00499725341797,77.48200225830078 -93.59200286865234,50.09000015258789 -92.25700378417969,18.388999938964844 C-90.43299865722656,-24.91699981689453 -53.512001037597656,-81.38899993896484 4.61899995803833,-78.94000244140625 C62.01900100708008,-76.52200317382812 94.0260009765625,-15.027999877929688 92.22899627685547,27.636999130249023z"></path>
            </g>
            <g opacity="1" transform="matrix(1,0,0,1,256.4289855957031,74.20600128173828)">
                <path fill="rgb(253,253,157)" fill-opacity="1" d=" M69.71700286865234,8.789999961853027 C68.89099884033203,28.391000747680664 37.007999420166016,42.96699905395508 -1.496000051498413,41.345001220703125 C-40,39.722999572753906 -70.54399871826172,22.517000198364258 -69.71800231933594,2.9159998893737793 C-68.89199829101562,-16.684999465942383 -35.9640007019043,-43.21500015258789 2.5299999713897705,-41.37699890136719 C42.18899917602539,-39.483001708984375 70.54299926757812,-10.810999870300293 69.71700286865234,8.789999961853027z"></path>
            </g>
            <g opacity="1" transform="matrix(1,0,0,1,254.1959991455078,113.89199829101562)">
                <path stroke-linecap="round" stroke-linejoin="round" fill-opacity="0" stroke="rgb(206,117,0)" stroke-opacity="1" stroke-width="8" d=" M83.24099731445312,93.78099822998047 C85.8740005493164,91.6969985961914 88.36299896240234,89.34400177001953 90.68699645996094,86.79100036621094 C102.17900085449219,74.16400146484375 109.61100006103516,56.630001068115234 110.21299743652344,42.33599853515625 C112.81199645996094,-19.36400032043457 77.76200103759766,-90.63400268554688 5.494999885559082,-93.6780014038086 C-67.69200134277344,-96.76100158691406 -107.65299987792969,-29.579999923706055 -110.29100036621094,33.047000885009766 C-110.96800231933594,49.111000061035156 -105.552001953125,64.697998046875 -95.61100006103516,78.27799987792969 C-95.61100006103516,78.27799987792969 -93.56400299072266,81.18800354003906 -89.98300170898438,85.23699951171875"></path>
            </g>
        </g>
        <g transform="matrix(1.0223695039749146,-0.0647670179605484,0.07228053361177444,0.9721900224685669,269.2897033691406,32.70915222167969)" opacity="1" style="display: block;">
            <g opacity="1" transform="matrix(1,0,0,1,34.659000396728516,25.70400047302246)">
                <path stroke-linecap="round" stroke-linejoin="round" fill-opacity="0" stroke="rgb(255,255,255)" stroke-opacity="1" stroke-width="6" d=" M-1.9190000295639038,-1.2580000162124634 C-0.6759999990463257,-0.47099998593330383 0.6060000061988831,0.367000013589859 1.9190000295639038,1.2580000162124634"></path>
            </g>
            <g opacity="1" transform="matrix(1,0,0,1,20.290000915527344,17.599000930786133)">
                <path stroke-linecap="round" stroke-linejoin="round" fill-opacity="0" stroke="rgb(255,255,255)" stroke-opacity="1" stroke-width="6" d=" M-5.289999961853027,-2.5989999771118164 C-5.289999961853027,-2.5989999771118164 -1.0880000591278076,-0.9350000023841858 5.289999961853027,2.5989999771118164"></path>
            </g>
        </g>
        <g transform="matrix(1.0399999618530273,0,0,0.9599999785423279,94.88168334960938,11.25274658203125)" opacity="1" style="display: block;">
            <g opacity="1" transform="matrix(1,0,0,1,204.65899658203125,126.302001953125)">
                <path fill="rgb(17,17,17)" fill-opacity="1" d=" M20.684999465942383,0.004000000189989805 C20.680999755859375,14.258000373840332 11.416999816894531,25.809999465942383 -0.007000000216066837,25.808000564575195 C-11.430999755859375,25.805999755859375 -20.68899917602539,14.25 -20.684999465942383,-0.004000000189989805 C-20.680999755859375,-14.258000373840332 -11.416999816894531,-25.809999465942383 0.007000000216066837,-25.808000564575195 C11.430999755859375,-25.805999755859375 20.68899917602539,-14.25 20.684999465942383,0.004000000189989805z"></path>
                <path stroke-linecap="round" stroke-linejoin="round" fill-opacity="0" stroke="rgb(17,17,17)" stroke-opacity="1" stroke-width="0" d=" M20.684999465942383,0.004000000189989805 C20.680999755859375,14.258000373840332 11.416999816894531,25.809999465942383 -0.007000000216066837,25.808000564575195 C-11.430999755859375,25.805999755859375 -20.68899917602539,14.25 -20.684999465942383,-0.004000000189989805 C-20.680999755859375,-14.258000373840332 -11.416999816894531,-25.809999465942383 0.007000000216066837,-25.808000564575195 C11.430999755859375,-25.805999755859375 20.68899917602539,-14.25 20.684999465942383,0.004000000189989805z"></path>
            </g>
            <g opacity="1" transform="matrix(1,0,0,1,204.6580047607422,137.55299377441406)">
                <path fill="rgb(72,73,73)" fill-opacity="1" d=" M14.569999694824219,-5.585000038146973 C14.569000244140625,-0.41499999165534973 8.513999938964844,9.567999839782715 -0.004000000189989805,9.565999984741211 C-8.522000312805176,9.564000129699707 -14.571000099182129,-0.42100000381469727 -14.569999694824219,-5.591000080108643 C-14.567999839782715,-13.88599967956543 -8.517999649047852,-6.064000129699707 0,-6.061999797821045 C8.517999649047852,-6.059999942779541 14.571999549865723,-14.255000114440918 14.569999694824219,-5.585000038146973z"></path>
            </g>
            <g opacity="1" transform="matrix(1,0,0,1,204.66200256347656,110.69200134277344)">
                <path fill="rgb(245,245,245)" fill-opacity="1" d=" M11.36400032043457,2.869999885559082 C11.36299991607666,7.033999919891357 6.276000022888184,3.7019999027252197 0,3.7009999752044678 C-6.276000022888184,3.700000047683716 -11.364999771118164,7.123000144958496 -11.36400032043457,2.865999937057495 C-11.36299991607666,0.21400000154972076 -6.27400016784668,-5.001999855041504 0.0020000000949949026,-5.000999927520752 C6.2779998779296875,-5 11.364999771118164,0.2199999988079071 11.36400032043457,2.869999885559082z"></path>
            </g>
        </g>
        <g transform="matrix(1.0399999618530273,0,0,0.9599999785423279,-5.11639404296875,11.25274658203125)" opacity="1" style="display: block;">
            <g opacity="1" transform="matrix(1,0,0,1,204.65899658203125,126.302001953125)">
                <path fill="rgb(17,17,17)" fill-opacity="1" d=" M20.684999465942383,0.004000000189989805 C20.680999755859375,14.258000373840332 11.416999816894531,25.809999465942383 -0.007000000216066837,25.808000564575195 C-11.430999755859375,25.805999755859375 -20.68899917602539,14.25 -20.684999465942383,-0.004000000189989805 C-20.680999755859375,-14.258000373840332 -11.416999816894531,-25.809999465942383 0.007000000216066837,-25.808000564575195 C11.430999755859375,-25.805999755859375 20.68899917602539,-14.25 20.684999465942383,0.004000000189989805z"></path>
                <path stroke-linecap="round" stroke-linejoin="round" fill-opacity="0" stroke="rgb(17,17,17)" stroke-opacity="1" stroke-width="0" d=" M20.684999465942383,0.004000000189989805 C20.680999755859375,14.258000373840332 11.416999816894531,25.809999465942383 -0.007000000216066837,25.808000564575195 C-11.430999755859375,25.805999755859375 -20.68899917602539,14.25 -20.684999465942383,-0.004000000189989805 C-20.680999755859375,-14.258000373840332 -11.416999816894531,-25.809999465942383 0.007000000216066837,-25.808000564575195 C11.430999755859375,-25.805999755859375 20.68899917602539,-14.25 20.684999465942383,0.004000000189989805z"></path>
            </g>
            <g opacity="1" transform="matrix(1,0,0,1,204.6580047607422,137.55299377441406)">
                <path fill="rgb(72,73,73)" fill-opacity="1" d=" M14.569999694824219,-5.585000038146973 C14.569000244140625,-0.41499999165534973 8.513999938964844,9.567999839782715 -0.004000000189989805,9.565999984741211 C-8.522000312805176,9.564000129699707 -14.571000099182129,-0.42100000381469727 -14.569999694824219,-5.591000080108643 C-14.567999839782715,-13.88599967956543 -8.517999649047852,-6.064000129699707 0,-6.061999797821045 C8.517999649047852,-6.059999942779541 14.571999549865723,-14.255000114440918 14.569999694824219,-5.585000038146973z"></path>
            </g>
            <g opacity="1" transform="matrix(1,0,0,1,204.66200256347656,110.69200134277344)">
                <path fill="rgb(245,245,245)" fill-opacity="1" d=" M11.36400032043457,2.869999885559082 C11.36299991607666,7.033999919891357 6.276000022888184,3.7019999027252197 0,3.7009999752044678 C-6.276000022888184,3.700000047683716 -11.364999771118164,7.123000144958496 -11.36400032043457,2.865999937057495 C-11.36299991607666,0.21400000154972076 -6.27400016784668,-5.001999855041504 0.0020000000949949026,-5.000999927520752 C6.2779998779296875,-5 11.364999771118164,0.2199999988079071 11.36400032043457,2.869999885559082z"></path>
            </g>
        </g>
        <g transform="matrix(1.0399999618530273,0,0,0.9599999785423279,257.6468811035156,184.6988067626953)" opacity="1" style="display: block;">
            <g opacity="1" transform="matrix(1,0,0,1,0,0)">
                <path fill="rgb(252,203,29)" fill-opacity="1" d=" M-16.11400032043457,-33.138999938964844 C-16.11400032043457,-33.138999938964844 -23.774999618530273,-23.648000717163086 -23.920000076293945,-7.706999778747559 C-24.04599952697754,6.1479997634887695 -20.631999969482422,30.2810001373291 -3.4830000400543213,32.88100051879883 C19.37700080871582,36.34600067138672 30.795000076293945,4.4070000648498535 19.548999786376953,-31.66200065612793 C19.548999786376953,-31.66200065612793 -16.11400032043457,-33.138999938964844 -16.11400032043457,-33.138999938964844z"></path>
            </g>
        </g>
        <g transform="matrix(1.0399999618530273,0,0,0.9599999785423279,-5.397186279296875,11.13177490234375)" opacity="1" style="display: block;">
            <g opacity="1" transform="matrix(1,0,0,1,252.927001953125,158.56399536132812)">
                <path fill="rgb(149,58,3)" fill-opacity="1" d=" M22.107999801635742,1.5980000495910645 C22.104999542236328,15.359999656677246 9.335000038146973,28.608999252319336 -0.007000000216066837,28.60700035095215 C-9.345000267028809,28.604999542236328 -22.111000061035156,15.350000381469727 -22.107999801635742,1.5880000591278076 C-22.104999542236328,-12.163000106811523 -12.196999549865723,-28.610000610351562 0.007000000216066837,-28.60700035095215 C11.206000328063965,-28.604000091552734 20.46500015258789,-14.751999855041504 21.902999877929688,-1.8389999866485596 C22.035999298095703,-0.6819999814033508 22.107999801635742,0.46299999952316284 22.107999801635742,1.5980000495910645z"></path>
            </g>
        </g>
        <g transform="matrix(1.369430422782898,0.42617467045783997,-0.42562010884284973,1.1653335094451904,147.36862182617188,158.7198028564453)" opacity="1" style="display: block;">
            <g opacity="1" transform="matrix(1,0,0,1,0,0)">
                <path fill="rgb(155,11,11)" fill-opacity="1" d=" M86.33200073242188,-28.652999877929688 C80.84500122070312,-33.36899948120117 65.16300201416016,-27.323999404907227 61.612998962402344,-19.378999710083008 C66.15299987792969,-16.503000259399414 68.51699829101562,-15.616999626159668 73.38200378417969,-12.723999977111816 C77.0739974975586,-10.529000282287598 78.08899688720703,-10.892999649047852 79.82599639892578,-14.29699993133545 C81.31199645996094,-17.20800018310547 84.4219970703125,-23.389999389648438 86.33200073242188,-28.652999877929688z"></path>
                <path stroke-linecap="round" stroke-linejoin="round" fill-opacity="0" stroke="rgb(206,117,0)" stroke-opacity="1" stroke-width="3" d=" M86.33200073242188,-28.652999877929688 C80.84500122070312,-33.36899948120117 65.16300201416016,-27.323999404907227 61.612998962402344,-19.378999710083008 C66.15299987792969,-16.503000259399414 68.51699829101562,-15.616999626159668 73.38200378417969,-12.723999977111816 C77.0739974975586,-10.529000282287598 78.08899688720703,-10.892999649047852 79.82599639892578,-14.29699993133545 C81.31199645996094,-17.20800018310547 84.4219970703125,-23.389999389648438 86.33200073242188,-28.652999877929688z"></path>
            </g>
        </g>
        <g transform="matrix(1.0399999618530273,0,0,0.9599999785423279,-5.397186279296875,10.13238525390625)" opacity="1" style="display: block;">
            <g opacity="1" transform="matrix(1,0,0,1,252.92799377441406,154.5540008544922)">
                <path fill="rgb(247,141,22)" fill-opacity="1" d=" M19.711999893188477,8.27299976348877 C19.711999893188477,8.27299976348877 3.25,23.19300079345703 3.25,23.19300079345703 C1.5670000314712524,25.065000534057617 -1.5779999494552612,25.065000534057617 -3.259999990463257,23.191999435424805 C-3.259999990463257,23.191999435424805 -19.702999114990234,8.277000427246094 -19.702999114990234,8.277000427246094 C-21.36199951171875,6.429999828338623 -22.155000686645508,4.053999900817871 -21.854000091552734,1.684999942779541 C-20.23200035095215,-11.085000038146973 -11.055999755859375,-24.600000381469727 0.006000000052154064,-24.597000122070312 C11.204999923706055,-24.5939998626709 20.464000701904297,-10.741999626159668 21.902000427246094,2.1710000038146973 C21.902000427246094,2.1710000038146973 21.902000427246094,2.1710000038146973 21.902000427246094,2.1710000038146973 C22.034000396728516,4.381999969482422 21.253000259399414,6.559000015258789 19.711999893188477,8.27299976348877z"></path>
            </g>
            <g opacity="1" transform="matrix(1,0,0,1,252.9340057373047,154.55099487304688)">
                <path fill="rgb(242,182,36)" fill-opacity="1" d=" M9.770999908447266,-20.97800064086914 C9.770999908447266,-20.97800064086914 9.770999908447266,-20.97800064086914 9.770999908447266,-20.97800064086914 C6.2170000076293945,-10.29800033569336 3.6649999618530273,4.658999919891357 3.1449999809265137,20.672000885009766 C3.118000030517578,21.511999130249023 3.1500000953674316,22.356000900268555 3.2339999675750732,23.191999435424805 C3.2339999675750732,23.191999435424805 3.2339999675750732,23.191999435424805 3.2339999675750732,23.191999435424805 C3.2339999675750732,23.191999435424805 3.2230000495910645,23.214000701904297 3.2230000495910645,23.214000701904297 C1.5390000343322754,25.065000534057617 -1.597000002861023,25.052000045776367 -3.2669999599456787,23.190000534057617 C-3.2669999599456787,23.190000534057617 -3.2669999599456787,23.190000534057617 -3.2669999599456787,23.190000534057617 C-3.069999933242798,20.510000228881836 -3.1019999980926514,17.819000244140625 -3.3440001010894775,15.142999649047852 C-4.379000186920166,3.700000047683716 -6.249000072479248,-7.88100004196167 -8.541000366210938,-17.207000732421875 C-8.857000350952148,-18.490999221801758 -9.276000022888184,-19.746000289916992 -9.770999908447266,-20.972000122070312 C-9.770999908447266,-20.972000122070312 -9.770999908447266,-20.972000122070312 -9.770999908447266,-20.972000122070312 C-6.828000068664551,-23.240999221801758 -3.509999990463257,-24.594999313354492 0.0010000000474974513,-24.5939998626709 C3.51200008392334,-24.593000411987305 6.816999912261963,-23.23699951171875 9.770999908447266,-20.97800064086914z"></path>
            </g>
        </g>
    </g>
</svg>