<svg width="12" height="12" viewBox="0 0 12 12" fill="none" xmlns="http://www.w3.org/2000/svg">
<path fill-rule="evenodd" clip-rule="evenodd" d="M1.91538 5.30027e-05L10.1494 0C10.4407 0 10.7318 0.0427843 11.036 0.184611C11.4007 0.354594 11.5941 0.62252 11.7296 0.820658C11.7401 0.836073 11.7499 0.85196 11.7591 0.868214C11.9184 1.15176 12.0005 1.45791 12.0005 1.78723C12.0005 2.10014 11.926 2.44105 11.7591 2.73818C11.7575 2.74107 11.7559 2.74385 11.7542 2.74668L6.5521 11.6828C6.43738 11.8799 6.22624 12.0008 5.99822 12C5.77019 11.9992 5.55989 11.8768 5.44658 11.6789L0.339968 2.76183C0.3385 2.75942 0.337031 2.75701 0.335563 2.75454C0.218694 2.56196 0.0379628 2.26415 0.0063466 1.87983C-0.0227004 1.52639 0.0567328 1.17226 0.234318 0.865224C0.411904 0.558133 0.679252 0.312649 1.00081 0.16238C1.3456 0.00125836 1.69501 5.30027e-05 1.91538 5.30027e-05ZM5.36217 1.2766H1.91538C1.68892 1.2766 1.60199 1.29055 1.54122 1.31897C1.45718 1.35819 1.3866 1.42273 1.33942 1.50431C1.29223 1.58595 1.27089 1.68053 1.27865 1.77523C1.28311 1.82949 1.30523 1.89157 1.43573 2.1068C1.43846 2.11131 1.44113 2.11587 1.44375 2.12043L5.36217 8.96269V1.2766ZM6.63877 1.2766V8.99651L10.6479 2.10958C10.6932 2.02737 10.7239 1.90856 10.7239 1.78723C10.7239 1.68882 10.7035 1.60336 10.6579 1.51527C10.61 1.44643 10.5808 1.40999 10.5564 1.38503C10.5355 1.36369 10.5194 1.35226 10.4967 1.34167C10.4019 1.29747 10.3049 1.2766 10.1494 1.2766H6.63877Z" fill="white"/>
</svg>
