<svg width="72" height="72" viewBox="0 0 72 72" fill="none" xmlns="http://www.w3.org/2000/svg">
<path d="M54.9968 0H17.0032C7.60789 0 0 7.60789 0 17.0032V54.9968C0 64.3921 7.60789 72 17.0032 72H54.9968C64.3921 72 72 64.3921 72 54.9968V17.0032C72 7.60789 64.3921 0 54.9968 0Z" fill="url(#paint0_linear_11710_129039)"/>
<path d="M49.7172 15.085H21.6192C20.698 15.085 19.7767 15.4528 19.0858 16.0965L8.81392 26.0737C7.20174 27.4531 7.10962 29.8899 8.62967 31.3612L33.5493 56.0514C34.7009 57.2009 36.6355 57.2009 37.787 56.0514L62.7067 31.3612C64.1807 29.8899 64.1346 27.4531 62.5224 26.0737L52.2045 16.0965C51.5596 15.4068 50.6384 15.085 49.7172 15.085ZM22.8629 18.9471H48.4735C49.3026 18.9471 50.0396 19.269 50.6384 19.8667L57.4556 26.8094H46.4467C44.9267 26.8094 43.5448 27.7749 43.0381 29.2462L42.1629 31.775C41.7484 32.9704 40.5968 33.798 39.3071 33.798H32.0293C30.7395 33.798 29.588 32.9704 29.1734 31.775L28.2982 29.2002C27.7915 27.7749 26.4097 26.7634 24.8896 26.7634H13.9729L20.698 19.8667C21.2507 19.269 22.0338 18.9471 22.8629 18.9471ZM13.9729 30.6256H22.4483C23.7381 30.6256 24.8896 31.4532 25.3042 32.6946L30.4632 45.3845C30.8777 46.3501 29.588 47.1777 28.851 46.396L13.9729 30.6256ZM34.7469 49.8444L31.2462 37.6142H40.0901L36.6355 49.8444C36.3591 50.764 35.0233 50.764 34.7469 49.8444ZM48.888 30.6256H57.4556L42.4854 46.396C41.7484 47.1777 40.5047 46.3501 40.8732 45.3845L46.0322 32.7406C46.4007 31.4991 47.5983 30.6256 48.888 30.6256Z" fill="white"/>
<defs>
<linearGradient id="paint0_linear_11710_129039" x1="8.26309" y1="64.399" x2="58.575" y2="12.8908" gradientUnits="userSpaceOnUse">
<stop stop-color="#1A6DFD"/>
<stop offset="1" stop-color="#C622FD"/>
</linearGradient>
</defs>
</svg>
