<svg width="46" height="46" viewBox="0 0 46 46" fill="none" xmlns="http://www.w3.org/2000/svg">
  <g clip-path="url(#clip0_13401_75268)">
    <path d="M23 46C35.7025 46 46 35.7025 46 23C46 10.2975 35.7025 0 23 0C10.2975 0 0 10.2975 0 23C0 35.7025 10.2975 46 23 46Z" fill="#E4E6EA"/>
    <g clip-path="url(#clip1_13401_75268)">
      <path d="M23.0016 9.2002L22.8164 9.82916V28.0785L23.0016 28.2633L31.4726 23.256L23.0016 9.2002Z" fill="#343434"/>
      <path d="M23.0005 9.2002L14.5293 23.256L23.0005 28.2633V19.4055V9.2002Z" fill="#8C8C8C"/>
      <path d="M23.0008 29.867L22.8965 29.9942V36.4949L23.0008 36.7996L31.477 24.8623L23.0008 29.867Z" fill="#3C3C3B"/>
      <path d="M23.0005 36.7996V29.867L14.5293 24.8623L23.0005 36.7996Z" fill="#8C8C8C"/>
      <path d="M23 28.263L31.471 23.2557L23 19.4053V28.263Z" fill="#141414"/>
      <path d="M14.5293 23.2557L23.0005 28.263V19.4053L14.5293 23.2557Z" fill="#393939"/>
    </g>
  </g>
  <defs>
    <clipPath id="clip0_13401_75268">
      <rect width="46" height="46" fill="white"/>
    </clipPath>
    <clipPath id="clip1_13401_75268">
      <rect width="16.9474" height="27.5997" fill="white" transform="translate(14.5254 9.19922)"/>
    </clipPath>
  </defs>
</svg>
