<svg width="46" height="46" viewBox="0 0 46 46" fill="none" xmlns="http://www.w3.org/2000/svg">
  <g clip-path="url(#clip0_near)">
    <path d="M23 46C35.7025 46 46 35.7025 46 23C46 10.2975 35.7025 0 23 0C10.2975 0 0 10.2975 0 23C0 35.7025 10.2975 46 23 46Z" fill="#FFFFFF"/>
    <g transform="translate(6, 6) scale(0.378)">
      <path d="M72.2,4.6L53.4,32.5c-1.3,1.9,1.2,4.2,3,2.6L74.9,19c0.5-0.4,1.2-0.1,1.2,0.6v50.3c0,0.7-0.9,1-1.3,0.5l-56-67  C17,1.2,14.4,0,11.5,0h-2C4.3,0,0,4.3,0,9.6v70.8C0,85.7,4.3,90,9.6,90c3.3,0,6.4-1.7,8.2-4.6l18.8-27.9c1.3-1.9-1.2-4.2-3-2.6  l-18.5,16c-0.5,0.4-1.2,0.1-1.2-0.6V20.1c0-0.7,0.9-1,1.3-0.5l56,67c1.8,2.2,4.5,3.4,7.3,3.4h2c5.3,0,9.6-4.3,9.6-9.6V9.6  c0-5.3-4.3-9.6-9.6-9.6C77.1,0,74,1.7,72.2,4.6z" fill="#000000"/>
    </g>
  </g>
  <defs>
    <clipPath id="clip0_near">
      <rect width="46" height="46" fill="white"/>
    </clipPath>
  </defs>
</svg>