<svg width="46" height="46" viewBox="0 0 46 46" fill="none" xmlns="http://www.w3.org/2000/svg">
  <g clip-path="url(#clip0_13401_75274)">
    <path d="M23 46C35.7025 46 46 35.7025 46 23C46 10.2975 35.7025 0 23 0C10.2975 0 0 10.2975 0 23C0 35.7025 10.2975 46 23 46Z" fill="#824EE2"/>
    <path d="M30.0786 18.2942C29.5755 18.0068 28.9288 18.0068 28.3539 18.2942L24.3295 20.665L21.5987 22.1736L17.6463 24.5444C17.1432 24.8317 16.4964 24.8317 15.9215 24.5444L12.8314 22.6765C12.3284 22.3891 11.9691 21.8144 11.9691 21.1678V17.5758C11.9691 17.001 12.2565 16.4263 12.8314 16.0671L15.9215 14.2711C16.4246 13.9837 17.0714 13.9837 17.6463 14.2711L20.7364 16.1389C21.2394 16.4263 21.5987 17.001 21.5987 17.6476V20.0184L24.3295 18.4379V15.9953C24.3295 15.4205 24.0421 14.8458 23.4672 14.4866L17.7181 11.1101C17.2151 10.8227 16.5683 10.8227 15.9934 11.1101L10.1006 14.5584C9.52573 14.8458 9.23828 15.4205 9.23828 15.9953V22.7483C9.23828 23.3231 9.52573 23.8978 10.1006 24.257L15.9215 27.6336C16.4246 27.9209 17.0714 27.9209 17.6463 27.6336L21.5987 25.3346L24.3295 23.7541L28.282 21.4552C28.785 21.1678 29.4318 21.1678 30.0067 21.4552L33.0968 23.2512C33.5999 23.5386 33.9592 24.1133 33.9592 24.7599V28.352C33.9592 28.9267 33.6717 29.5014 33.0968 29.8606L30.0786 31.6567C29.5755 31.944 28.9288 31.944 28.3539 31.6567L25.2637 29.8606C24.7607 29.5733 24.4014 28.9985 24.4014 28.352V26.053L21.6706 27.6336V30.0043C21.6706 30.5791 21.958 31.1538 22.5329 31.513L28.3539 34.8895C28.8569 35.1769 29.5037 35.1769 30.0786 34.8895L35.8995 31.513C36.4025 31.2256 36.7618 30.6509 36.7618 30.0043V23.1794C36.7618 22.6047 36.4744 22.0299 35.8995 21.6707L30.0786 18.2942Z" fill="white"/>
  </g>
  <defs>
    <clipPath id="clip0_13401_75274">
      <rect width="46" height="46" fill="white"/>
    </clipPath>
  </defs>
</svg>
