<svg width="46" height="46" viewBox="0 0 46 46" xmlns="http://www.w3.org/2000/svg" style="background-color:#000000;border-radius:50%">
  <g clip-path="url(#clip0_19573_33090)">
    <circle cx="23" cy="23" r="23" fill="#000000"/>
    <path d="M23 46C35.7025 46 46 35.7025 46 23C46 10.2975 35.7025 0 23 0C10.2975 0 0 10.2975 0 23C0 35.7025 10.2975 46 23 46Z" fill="#000000" style="fill:#000000 !important"/>
    <path d="M35.8638 29.6918L31.5717 34.2834C31.4789 34.3832 31.3664 34.4628 31.2414 34.5173C31.1164 34.5717 30.9815 34.5999 30.845 34.6H10.4987C10.4016 34.6 10.3067 34.5717 10.2256 34.5186C10.1444 34.4656 10.0805 34.3901 10.0417 34.3013C10.0028 34.2126 9.9908 34.1145 10.007 34.019C10.0232 33.9236 10.067 33.8349 10.1329 33.7639L14.4202 29.1722C14.513 29.0725 14.6255 28.9929 14.7505 28.9384C14.8755 28.884 15.0104 28.8558 15.1469 28.8556H35.4932C35.5911 28.8536 35.6875 28.8805 35.7701 28.933C35.8527 28.9855 35.918 29.0612 35.9576 29.1506C35.9972 29.24 36.0094 29.339 35.9927 29.4353C35.9761 29.5316 35.9312 29.6209 35.8638 29.6918ZM31.5717 20.4433C31.4785 20.344 31.366 20.2647 31.2411 20.2103C31.1161 20.1558 30.9814 20.1274 30.845 20.1267H10.4987C10.4016 20.1267 10.3067 20.155 10.2256 20.2081C10.1444 20.2611 10.0805 20.3366 10.0417 20.4254C10.0028 20.5141 9.9908 20.6122 10.007 20.7077C10.0232 20.8031 10.067 20.8918 10.1329 20.9628L14.4202 25.5569C14.5134 25.6562 14.6259 25.7355 14.7508 25.7899C14.8758 25.8443 15.0105 25.8728 15.1469 25.8735H35.4932C35.59 25.873 35.6846 25.8443 35.7654 25.7911C35.8463 25.7379 35.9098 25.6623 35.9483 25.5737C35.9868 25.485 35.9987 25.3871 35.9824 25.2919C35.9661 25.1966 35.9223 25.1082 35.8565 25.0373L31.5717 20.4433ZM10.4987 17.1445H30.845C30.9815 17.1444 31.1164 17.1162 31.2414 17.0618C31.3664 17.0073 31.4789 16.9277 31.5717 16.8279L35.8638 12.2363C35.9141 12.1832 35.952 12.1197 35.9749 12.0503C35.9978 11.9809 36.005 11.9074 35.996 11.8349C35.9871 11.7624 35.9622 11.6927 35.9231 11.6309C35.884 11.5692 35.8318 11.5168 35.7701 11.4775C35.6874 11.425 35.5911 11.3981 35.4932 11.4001H15.1469C15.0104 11.4003 14.8755 11.4285 14.7505 11.4829C14.6255 11.5374 14.513 11.617 14.4202 11.7167L10.1329 16.3084C10.067 16.3794 10.0232 16.4681 10.007 16.5635C9.9908 16.659 10.0028 16.7571 10.0417 16.8458C10.0805 16.9346 10.1444 17.0101 10.2256 17.0631C10.3067 17.1162 10.4016 17.1445 10.4987 17.1445Z" fill="url(#paint0_linear_19573_33090)"/>
  </g>
  <defs>
    <linearGradient id="paint0_linear_19573_33090" x1="12.1942" y1="35.1534" x2="33.4743" y2="11.1078" gradientUnits="userSpaceOnUse">
      <stop offset="0.08" stop-color="#9945FF"/>
      <stop offset="0.3" stop-color="#8752F3"/>
      <stop offset="0.5" stop-color="#5497D5"/>
      <stop offset="0.6" stop-color="#43B4CA"/>
      <stop offset="0.72" stop-color="#28E0B9"/>
      <stop offset="0.97" stop-color="#19FB9B"/>
    </linearGradient>
    <clipPath id="clip0_19573_33090">
      <circle cx="23" cy="23" r="23" fill="white"/>
    </clipPath>
  </defs>
</svg>
