<svg width="46" height="46" viewBox="0 0 46 46" fill="none" xmlns="http://www.w3.org/2000/svg">
  <g clip-path="url(#clip0_13494_48845)">
    <path d="M23 46C35.7025 46 46 35.7025 46 23C46 10.2975 35.7025 0 23 0C10.2975 0 0 10.2975 0 23C0 35.7025 10.2975 46 23 46Z" fill="#0098EA"/>
    <path fill-rule="evenodd" clip-rule="evenodd" d="M16.1915 15.0001L29.9149 15C30.4004 15 30.8856 15.0713 31.3926 15.3077C32.0004 15.591 32.3227 16.0375 32.5485 16.3678C32.566 16.3935 32.5825 16.4199 32.5977 16.447C32.8632 16.9196 33 17.4299 33 17.9787C33 18.5002 32.8759 19.0684 32.5977 19.5636C32.5951 19.5685 32.5923 19.5731 32.5896 19.5778L23.9194 34.4714C23.7282 34.7999 23.3763 35.0013 22.9962 35C22.6162 34.9987 22.2657 34.7947 22.0768 34.4649L13.5658 19.6031C13.5634 19.599 13.5609 19.595 13.5585 19.5909C13.3637 19.2699 13.0625 18.7736 13.0098 18.133C12.9614 17.544 13.0937 16.9538 13.3897 16.442C13.6857 15.9302 14.1313 15.5211 14.6672 15.2706C15.2419 15.0021 15.8242 15.0001 16.1915 15.0001ZM21.9362 17.1277H16.1915C15.8141 17.1277 15.6692 17.1509 15.5679 17.1983C15.4278 17.2636 15.3102 17.3712 15.2316 17.5072C15.1529 17.6433 15.1173 17.8009 15.1303 17.9587C15.1377 18.0492 15.1746 18.1526 15.3921 18.5113C15.3966 18.5189 15.4011 18.5265 15.4054 18.5341L21.9362 29.9378V17.1277ZM24.0638 17.1277V29.9942L30.7458 18.516C30.8212 18.379 30.8723 18.1809 30.8723 17.9787C30.8723 17.8147 30.8383 17.6723 30.7623 17.5255C30.6825 17.4107 30.6339 17.35 30.5933 17.3084C30.5584 17.2728 30.5316 17.2538 30.4937 17.2361C30.3357 17.1625 30.174 17.1277 29.9149 17.1277H24.0638Z" fill="white"/>
  </g>
  <defs>
    <clipPath id="clip0_13494_48845">
      <rect width="46" height="46" fill="white"/>
    </clipPath>
  </defs>
</svg>
