<svg width="46" height="46" viewBox="0 0 46 46" fill="none" xmlns="http://www.w3.org/2000/svg">
  <g clip-path="url(#clip0_13494_48839)">
    <path d="M23 46C35.7025 46 46 35.7025 46 23C46 10.2975 35.7025 0 23 0C10.2975 0 0 10.2975 0 23C0 35.7025 10.2975 46 23 46Z" fill="#EA1330"/>
    <g clip-path="url(#clip1_13494_48839)">
      <path d="M34.082 19.2293C32.957 18.1906 31.4008 16.6043 30.1333 15.4793L30.0583 15.4268C29.9335 15.3266 29.7928 15.248 29.642 15.1943C26.5858 14.6243 12.362 11.9656 12.0845 11.9993C12.0068 12.0102 11.9324 12.0384 11.867 12.0818L11.7958 12.1381C11.708 12.2272 11.6414 12.3348 11.6008 12.4531L11.582 12.5018V12.7681V12.8093C13.1833 17.2681 19.5058 31.8743 20.7508 35.3018C20.8258 35.5343 20.9683 35.9768 21.2345 35.9993H21.2945C21.437 35.9993 22.0445 35.1968 22.0445 35.1968C22.0445 35.1968 32.9045 22.0268 34.0033 20.6243C34.1455 20.4516 34.2711 20.2658 34.3783 20.0693C34.4056 19.9157 34.3927 19.7575 34.3408 19.6103C34.2889 19.4631 34.1997 19.3319 34.082 19.2293ZM24.8308 20.7631L29.4658 16.9193L32.1845 19.4243L24.8308 20.7631ZM23.0308 20.5118L15.0508 13.9718L27.962 16.3531L23.0308 20.5118ZM23.7508 22.2256L31.9183 20.9093L22.5808 32.1593L23.7508 22.2256ZM13.967 14.6243L22.3633 21.7493L21.1483 32.1668L13.967 14.6243Z" fill="white"/>
    </g>
  </g>
  <defs>
    <clipPath id="clip0_13494_48839">
      <rect width="46" height="46" fill="white"/>
    </clipPath>
    <clipPath id="clip1_13494_48839">
      <rect width="24" height="24" fill="white" transform="translate(11 12)"/>
    </clipPath>
  </defs>
</svg>
