<svg width="46" height="46" viewBox="0 0 46 46" fill="none" xmlns="http://www.w3.org/2000/svg">
<path d="M0 23C0 10.2975 10.2975 0 23 0C35.7025 0 46 10.2975 46 23C46 35.7025 35.7025 46 23 46C10.2975 46 0 35.7025 0 23Z" fill="var(--color-event-category-other)"/>
<path fill-rule="evenodd" clip-rule="evenodd" d="M23 35C29.6274 35 35 29.6274 35 23C35 16.3726 29.6274 11 23 11C16.3726 11 11 16.3726 11 23C11 29.6274 16.3726 35 23 35ZM16.5385 24.8462C17.5581 24.8462 18.3846 24.0196 18.3846 23C18.3846 21.9804 17.5581 21.1538 16.5385 21.1538C15.5189 21.1538 14.6923 21.9804 14.6923 23C14.6923 24.0196 15.5189 24.8462 16.5385 24.8462ZM24.8462 23C24.8462 24.0196 24.0196 24.8462 23 24.8462C21.9804 24.8462 21.1538 24.0196 21.1538 23C21.1538 21.9804 21.9804 21.1538 23 21.1538C24.0196 21.1538 24.8462 21.9804 24.8462 23ZM29.4615 24.8462C30.4811 24.8462 31.3077 24.0196 31.3077 23C31.3077 21.9804 30.4811 21.1538 29.4615 21.1538C28.4419 21.1538 27.6154 21.9804 27.6154 23C27.6154 24.0196 28.4419 24.8462 29.4615 24.8462Z" fill="white"/>
</svg>
