<svg width="46" height="46" viewBox="0 0 46 46" fill="none" xmlns="http://www.w3.org/2000/svg">
<path d="M0 23C0 10.2975 10.2975 0 23 0C35.7025 0 46 10.2975 46 23C46 35.7025 35.7025 46 23 46C10.2975 46 0 35.7025 0 23Z" fill="var(--color-event-category-refund)"/>
<rect x="14" y="32" width="18" height="3" rx="1.5" fill="white"/>
<path d="M17.5039 12.002C21.6459 12.0042 25.0021 15.3639 25 19.5059L24.9971 24.877L27.4385 22.4414L27.5527 22.3389C28.1423 21.8592 29.011 21.8947 29.5596 22.4443C30.1078 22.9939 30.1418 23.8626 29.6611 24.4512L29.5576 24.5654L24.5527 29.5605C24.0035 30.1083 23.1354 30.142 22.5469 29.6621L22.4326 29.5596L17.4336 24.5586C16.8482 23.9728 16.8481 23.0232 17.4336 22.4375C17.9829 21.8883 18.8523 21.8542 19.4414 22.335L19.5557 22.4375L21.9971 24.8799L22 19.5049C22.0013 17.0197 19.9881 15.0034 17.5029 15.002L13.499 15C12.6708 14.9993 11.9996 14.3273 12 13.499C12.0005 12.6709 12.672 12 13.5 12L17.5039 12.002Z" fill="white"/>
</svg>
